<?xml version="1.0" encoding="UTF-8" standalone="yes"?>
<svg xmlns="http://www.w3.org/2000/svg" xmlns:xlink="http://www.w3.org/1999/xlink" width="1920.000px" height="1080.000px" version="1.1" viewBox="-422.778 499.677 853.333 480.000">
  <!--
	Exported with Concepts: Smarter Sketching
	Version: 2024.11 on Android 13
	https://concepts.app/
	-->
  <title>Baselines</title>
  <desc>Drawing exported from Concepts: Smarter Sketching</desc>
  <defs></defs>
  <g id="Pen" opacity="1.000">
    <path id="STROKE_ad626568-3bbc-499e-86a9-c6883a81c0f0" opacity="1.000" fill="none" stroke="#f9f9f1" stroke-width="1.600" stroke-opacity="1.000" stroke-linecap="round" stroke-linejoin="round" d="M -382.033 725.227 Q -382.139 725.695 -382.193 725.707 Q -381.958 725.773 -380.071 723.295 Q -378.185 720.817 -372.279 706.518 Q -372.195 707.664 -372.219 707.416 Q -372.244 707.168 -372.580 709.014 Q -372.917 710.860 -373.081 714.380 Q -373.245 717.901 -373.346 719.877 Q -373.447 721.854 -373.454 722.858 Q -373.461 723.863 -372.909 724.480 Q -372.356 725.098 -371.852 725.259 Q -371.348 725.419 -370.502 724.834 Q -369.656 724.248 -368.991 723.621 Q -368.325 722.993 -367.115 720.640 Q -365.904 718.287 -364.671 714.698 Q -363.437 711.109 -362.866 708.955 Q -362.295 706.801 -361.725 704.919 Q -361.767 704.745 -361.664 708.984 Q -361.562 713.222 -361.601 715.684 Q -361.640 718.146 -361.226 719.676 Q -360.812 721.206 -360.380 721.872 Q -359.947 722.539 -359.505 722.955 Q -359.064 723.372 -358.777 723.489 Q -358.491 723.605 -358.468 723.696 Q -358.446 723.787 -358.391 723.767 Q -358.337 723.747 -358.344 723.758 Q -358.351 723.768 -358.564 723.817 Q -358.776 723.866 -357.407 723.788 "></path>
    <path id="STROKE_81fb9ad6-0fb9-4bc0-a811-57eb42e3d436" opacity="1.000" fill="none" stroke="#f9f9f1" stroke-width="1.600" stroke-opacity="1.000" stroke-linecap="round" stroke-linejoin="round" d="M -350.371 703.639 Q -350.216 704.041 -350.098 708.923 Q -349.980 713.805 -349.713 717.762 Q -349.445 721.719 -348.612 725.227 "></path>
    <path id="STROKE_95c400d8-e90b-4a43-9cdc-c5e0b90294c8" opacity="1.000" fill="none" stroke="#f9f9f1" stroke-width="1.600" stroke-opacity="1.000" stroke-linecap="round" stroke-linejoin="round" d="M -339.977 704.119 Q -340.162 704.268 -339.710 708.668 Q -339.259 713.068 -338.581 716.352 Q -337.903 719.635 -337.258 722.509 "></path>
    <path id="STROKE_90f87cdd-3df5-47eb-b5a7-ae9b9acba392" opacity="1.000" fill="none" stroke="#f9f9f1" stroke-width="1.600" stroke-opacity="1.000" stroke-linecap="round" stroke-linejoin="round" d="M -341.576 707.477 Q -341.526 707.374 -341.943 707.132 Q -342.360 706.890 -342.035 705.328 Q -341.709 703.766 -340.969 702.587 Q -340.229 701.408 -339.476 700.719 Q -338.724 700.030 -338.065 699.720 Q -337.406 699.410 -335.742 699.132 Q -334.078 698.855 -332.869 698.509 Q -331.661 698.163 -330.339 698.951 Q -329.018 699.739 -328.436 700.517 Q -327.853 701.296 -327.882 703.305 Q -327.911 705.314 -329.147 707.157 Q -330.383 709.000 -331.220 709.911 Q -332.056 710.823 -332.341 710.995 Q -332.625 711.166 -333.287 711.163 Q -333.948 711.160 -334.700 710.995 "></path>
    <path id="STROKE_125ed2eb-3f09-41dc-af88-06687fcd4541" opacity="1.000" fill="none" stroke="#f9f9f1" stroke-width="1.600" stroke-opacity="1.000" stroke-linecap="round" stroke-linejoin="round" d="M 283.775 635.250 L 283.455 798.518 "></path>
    <path id="STROKE_d36fc843-86f1-4d03-a7dd-5612efd99c20" opacity="1.000" fill="none" stroke="#f9f9f1" stroke-width="1.600" stroke-opacity="1.000" stroke-linecap="round" stroke-linejoin="round" d="M 319.435 632.851 L 316.556 807.473 "></path>
    <path id="STROKE_254e003c-ce5a-41e0-9491-af27173b3ceb" opacity="1.000" fill="none" stroke="#f9f9f1" stroke-width="1.600" stroke-opacity="1.000" stroke-linecap="round" stroke-linejoin="round" d="M 289.691 628.693 Q 289.612 628.773 289.532 628.853 Q 289.157 628.941 290.823 629.289 Q 292.490 629.638 296.524 629.630 Q 300.559 629.622 302.873 629.678 Q 305.188 629.734 306.671 629.307 Q 308.154 628.880 310.065 628.823 Q 311.977 628.765 313.678 629.333 "></path>
    <path id="STROKE_0f83ad85-be29-4a96-9b15-172a817fd517" opacity="1.000" fill="none" stroke="#f9f9f1" stroke-width="1.600" stroke-opacity="1.000" stroke-linecap="round" stroke-linejoin="round" d="M 289.532 805.394 Q 289.431 805.427 289.427 805.434 Q 289.423 805.440 289.987 805.161 Q 290.552 804.882 292.982 804.609 Q 295.412 804.335 296.620 804.220 Q 297.828 804.106 300.000 803.923 Q 302.173 803.741 304.351 803.513 Q 306.529 803.285 307.685 803.125 Q 308.841 802.966 309.580 802.645 Q 310.319 802.325 310.960 801.876 "></path>
    <path id="STROKE_d8d6dbe7-8f60-41be-8c3d-7f703b556e78" opacity="1.000" fill="none" stroke="#f9f9f1" stroke-width="1.600" stroke-opacity="1.000" stroke-linecap="round" stroke-linejoin="round" d="M 293.050 658.437 Q 292.970 658.516 292.890 658.596 Q 292.921 658.999 296.285 659.483 Q 299.649 659.967 305.123 657.877 L 305.203 657.957 "></path>
    <path id="STROKE_b5a5e139-f719-4d03-abb9-35ff9e73155a" opacity="1.000" fill="none" stroke="#f9f9f1" stroke-width="1.600" stroke-opacity="1.000" stroke-linecap="round" stroke-linejoin="round" d="M 294.489 694.896 Q 294.783 695.374 298.112 695.339 Q 301.440 695.305 305.363 694.576 "></path>
    <path id="STROKE_83deb3b1-cf7a-44a1-af85-12463484f25d" opacity="1.000" fill="none" stroke="#f9f9f1" stroke-width="1.600" stroke-opacity="1.000" stroke-linecap="round" stroke-linejoin="round" d="M 293.849 733.914 Q 293.712 734.120 293.529 734.394 Q 293.460 733.888 297.158 734.027 Q 300.855 734.166 305.043 733.275 "></path>
    <path id="STROKE_536dfd43-58f9-4fe5-b573-6943cf0d3949" opacity="1.000" fill="none" stroke="#f9f9f1" stroke-width="1.600" stroke-opacity="1.000" stroke-linecap="round" stroke-linejoin="round" d="M 295.128 768.295 Q 296.310 769.211 299.543 769.650 Q 302.776 770.089 306.802 768.295 "></path>
    <path id="STROKE_ab016adb-70d8-49f6-8765-3ed4c69c874c" opacity="1.000" fill="none" stroke="#f9f9f1" stroke-width="1.600" stroke-opacity="1.000" stroke-linecap="round" stroke-linejoin="round" d="M 299.926 676.986 Q 299.711 677.089 300.186 676.849 Q 300.660 676.610 301.128 675.951 Q 301.597 675.292 301.169 674.428 Q 300.741 673.565 300.448 673.059 Q 300.156 672.554 299.834 672.148 Q 299.513 671.742 298.706 671.702 Q 297.899 671.661 297.203 672.625 Q 296.506 673.588 296.108 674.387 Q 295.711 675.186 295.523 676.586 Q 295.336 677.985 295.718 679.141 Q 296.100 680.296 296.463 680.693 Q 296.826 681.089 297.377 681.473 Q 297.928 681.857 298.730 682.123 Q 299.532 682.388 300.499 682.458 Q 301.466 682.528 302.236 682.113 Q 303.007 681.698 303.752 680.718 Q 304.497 679.738 304.556 678.469 Q 304.614 677.200 303.903 675.932 Q 303.192 674.664 301.045 673.148 "></path>
    <path id="STROKE_340c3e51-098b-4926-8c81-5a398f28d431" opacity="1.000" fill="none" stroke="#f9f9f1" stroke-width="1.600" stroke-opacity="1.000" stroke-linecap="round" stroke-linejoin="round" d="M 294.169 785.406 Q 294.249 785.565 294.329 785.725 Q 293.889 786.042 296.701 784.584 Q 299.513 783.125 302.324 780.608 Q 302.508 780.323 302.383 781.564 Q 302.257 782.806 302.459 784.746 Q 302.660 786.687 303.124 788.284 "></path>
    <path id="STROKE_ebe9e8e7-2d10-4c39-878d-bf9c63f26308" opacity="1.000" fill="none" stroke="#ffb352" stroke-width="1.600" stroke-opacity="1.000" stroke-linecap="round" stroke-linejoin="round" d="M 295.747 646.151 Q 295.661 646.236 295.127 646.771 Q 295.886 646.667 303.735 639.792 Q 304.297 639.998 304.123 645.375 "></path>
    <path id="STROKE_dac7481c-2fa3-417e-9fda-ecbebe44f02f" opacity="1.000" fill="none" stroke="#ffb352" stroke-width="1.600" stroke-opacity="1.000" stroke-linecap="round" stroke-linejoin="round" d="M 299.780 711.915 Q 299.949 711.805 300.272 711.484 Q 300.595 711.163 300.775 710.623 Q 300.956 710.083 300.869 710.180 Q 300.783 710.276 300.998 709.978 Q 301.213 709.681 298.616 707.262 Q 297.530 707.551 296.787 708.936 Q 296.044 710.321 295.797 712.469 Q 295.549 714.616 295.658 715.908 Q 295.768 717.200 295.898 717.611 Q 296.028 718.022 296.240 718.458 Q 296.451 718.895 296.679 719.148 Q 296.906 719.402 297.149 719.474 Q 297.393 719.546 298.242 719.536 Q 299.092 719.526 300.013 719.179 Q 300.934 718.832 301.846 717.620 Q 302.758 716.407 303.278 715.399 Q 303.798 714.391 303.661 713.253 Q 303.524 712.114 302.261 709.123 "></path>
    <path id="STROKE_4bef6370-6e2f-4ed7-ad97-0ee9c0e3d393" opacity="1.000" fill="none" stroke="#ffb352" stroke-width="1.600" stroke-opacity="1.000" stroke-linecap="round" stroke-linejoin="round" d="M 295.282 752.398 Q 295.175 752.478 294.661 752.863 Q 294.931 752.584 295.266 752.181 Q 295.601 751.778 295.693 751.731 Q 295.785 751.683 296.651 750.467 Q 297.517 749.250 301.331 745.418 Q 301.969 745.579 301.604 747.879 Q 301.240 750.179 301.193 751.885 Q 301.146 753.591 301.420 754.206 Q 301.693 754.820 301.920 755.016 Q 302.147 755.213 302.227 755.303 Q 302.306 755.393 302.373 755.434 Q 302.441 755.476 302.572 755.500 "></path>
    <path id="STROKE_600d72eb-ce96-45fb-9844-0e8da6a16922" opacity="1.000" fill="none" stroke="#009ef1" stroke-width="1.019" stroke-opacity="1.000" stroke-linecap="round" stroke-linejoin="round" d="M -53.729 524.521 Q -53.675 524.554 -53.338 523.739 Q -53.560 524.489 -53.252 528.646 Q -52.944 532.803 -53.143 539.761 "></path>
    <path id="STROKE_b595250a-559c-4f3f-8cab-09dc17baab7a" opacity="1.000" fill="none" stroke="#009ef1" stroke-width="1.019" stroke-opacity="1.000" stroke-linecap="round" stroke-linejoin="round" d="M -48.063 527.647 Q -48.474 527.224 -48.844 527.061 Q -49.994 528.361 -48.844 535.853 "></path>
    <path id="STROKE_217a2168-2448-4a13-a161-120643a4921a" opacity="1.000" fill="none" stroke="#009ef1" stroke-width="1.019" stroke-opacity="1.000" stroke-linecap="round" stroke-linejoin="round" d="M -26.591 538.547 Q -26.438 538.053 -27.235 536.776 Q -28.031 535.499 -28.777 535.011 Q -29.522 534.522 -30.009 534.406 Q -30.497 534.290 -30.990 534.645 Q -31.482 534.999 -31.527 534.956 Q -31.571 534.912 -31.866 535.759 Q -32.161 536.606 -30.426 541.579 Q -28.691 546.553 -27.841 549.208 Q -26.990 551.864 -26.231 554.487 Q -25.472 557.110 -27.743 563.910 Q -27.647 563.718 -26.783 561.413 "></path>
    <path id="STROKE_f53764c3-8a14-4835-ac5f-a03c8ebaa26f" opacity="1.000" fill="none" stroke="#009ef1" stroke-width="1.019" stroke-opacity="1.000" stroke-linecap="round" stroke-linejoin="round" d="M -18.713 537.202 Q -18.907 537.888 -18.790 542.849 Q -18.674 547.810 -18.400 553.087 Q -18.126 558.363 -16.983 563.334 "></path>
    <path id="STROKE_0068c736-31fd-4661-8bb1-ec8af2b7bde3" opacity="1.000" fill="none" stroke="#009ef1" stroke-width="1.019" stroke-opacity="1.000" stroke-linecap="round" stroke-linejoin="round" d="M -25.630 550.845 Q -25.696 550.779 -25.534 549.692 Q -25.184 549.915 -11.988 547.194 "></path>
    <path id="STROKE_25579402-1700-42b1-850e-1908c8de2ff4" opacity="1.000" fill="none" stroke="#009ef1" stroke-width="1.019" stroke-opacity="1.000" stroke-linecap="round" stroke-linejoin="round" d="M -2.957 548.155 Q -2.999 547.725 -3.393 546.357 Q -3.787 544.990 -4.026 543.970 Q -4.265 542.951 -5.192 543.036 Q -6.120 543.120 -6.577 543.779 Q -7.034 544.438 -7.576 545.358 Q -8.118 546.277 -8.537 549.069 Q -8.956 551.861 -8.970 553.484 Q -8.984 555.106 -8.838 556.658 Q -8.692 558.210 -7.184 559.875 Q -6.157 559.041 -5.299 558.112 Q -4.441 557.184 -2.380 547.386 Q -2.433 547.487 -2.600 550.147 Q -2.767 552.807 -2.650 554.959 Q -2.533 557.111 -1.849 558.825 Q -1.166 560.539 1.655 561.413 "></path>
    <path id="STROKE_0693d258-fccb-4388-b26b-ce793a5b6a9f" opacity="1.000" fill="none" stroke="#009ef1" stroke-width="1.019" stroke-opacity="1.000" stroke-linecap="round" stroke-linejoin="round" d="M 5.498 546.233 Q 5.479 546.928 5.539 551.690 Q 5.600 556.452 6.554 561.220 Q 7.347 561.045 7.505 560.876 Q 7.663 560.707 7.622 560.686 Q 7.582 560.665 7.562 560.789 Q 7.542 560.913 7.762 560.169 Q 7.982 559.425 8.427 556.576 Q 8.872 553.727 9.586 551.318 Q 10.300 548.910 10.757 547.651 Q 11.215 546.391 11.229 546.256 Q 11.243 546.120 12.415 545.080 Q 12.966 545.215 13.273 548.744 Q 13.579 552.273 13.802 554.485 Q 14.025 556.697 14.777 558.227 Q 15.529 559.756 17.354 560.270 Q 19.179 560.783 21.446 560.452 "></path>
    <path id="STROKE_900366bc-1ac2-4863-b0e5-19da4c1c0eaf" opacity="1.000" fill="none" stroke="#009ef1" stroke-width="1.019" stroke-opacity="1.000" stroke-linecap="round" stroke-linejoin="round" d="M 32.206 548.155 Q 32.007 547.716 31.538 546.809 Q 31.068 545.902 30.743 545.486 Q 30.419 545.070 30.253 544.988 Q 30.086 544.906 29.433 545.024 Q 28.780 545.141 28.570 545.484 Q 28.361 545.827 27.912 546.366 Q 27.463 546.904 27.005 549.448 Q 26.547 551.991 26.661 555.070 Q 26.775 558.150 26.826 559.852 Q 26.877 561.554 27.300 562.127 Q 27.724 562.701 28.660 562.682 Q 29.597 562.662 30.254 561.660 Q 30.911 560.659 32.002 554.987 Q 33.094 549.315 32.782 537.587 Q 32.818 539.360 32.785 539.261 Q 32.752 539.162 32.832 542.490 Q 32.912 545.819 33.208 548.723 Q 33.504 551.628 33.982 553.247 Q 34.460 554.866 34.768 555.954 Q 35.076 557.043 37.394 558.146 "></path>
    <path id="STROKE_3436d829-847d-46be-a83e-8820f287203a" opacity="1.000" fill="none" stroke="#009ef1" stroke-width="1.019" stroke-opacity="1.000" stroke-linecap="round" stroke-linejoin="round" d="M 48.154 546.617 Q 48.132 546.309 46.136 544.600 Q 45.342 545.488 44.303 547.510 Q 43.263 549.532 43.238 554.023 Q 43.214 558.514 44.215 562.950 Q 46.581 563.308 49.691 543.927 Q 49.616 543.306 49.873 547.115 Q 50.131 550.924 50.513 553.264 Q 50.895 555.604 51.408 557.428 Q 51.921 559.253 58.722 561.220 "></path>
    <path id="STROKE_bd311880-5c10-439d-b449-88eda8cf56d7" opacity="1.000" fill="none" stroke="#009ef1" stroke-width="1.019" stroke-opacity="1.000" stroke-linecap="round" stroke-linejoin="round" d="M 59.490 559.491 Q 59.747 559.195 61.787 553.286 Q 63.827 547.377 65.255 538.163 Q 65.096 538.167 65.202 543.003 Q 65.307 547.840 65.310 550.980 Q 65.313 554.121 65.697 556.454 Q 66.082 558.787 67.176 560.644 "></path>
    <path id="STROKE_d176556f-16fc-4af5-a468-76a5c1a4718f" opacity="1.000" fill="none" stroke="#009ef1" stroke-width="1.019" stroke-opacity="1.000" stroke-linecap="round" stroke-linejoin="round" d="M 79.473 544.504 Q 79.657 544.465 78.973 544.099 Q 78.289 543.732 77.861 543.388 Q 77.433 543.045 76.184 543.270 Q 74.935 543.494 73.891 544.314 Q 72.848 545.133 72.298 548.065 Q 71.748 550.997 71.434 552.807 Q 71.120 554.617 71.483 556.208 Q 71.847 557.798 72.784 558.824 Q 73.721 559.849 74.762 559.852 Q 75.803 559.854 76.686 559.295 Q 77.570 558.735 78.272 557.654 Q 78.975 556.573 79.240 555.997 Q 79.505 555.421 79.772 554.562 Q 80.040 553.703 80.044 553.190 Q 80.048 552.677 80.057 552.311 Q 80.065 551.944 80.070 551.846 Q 80.075 551.747 79.861 550.896 Q 79.647 550.045 79.509 548.875 Q 79.372 547.704 79.858 546.617 "></path>
    <path id="STROKE_2a6b01ab-af32-4130-b5b3-13c8b071e752" opacity="1.000" fill="none" stroke="#009ef1" stroke-width="1.019" stroke-opacity="1.000" stroke-linecap="round" stroke-linejoin="round" d="M 84.085 546.617 Q 83.645 547.331 86.102 559.683 Q 86.198 559.683 86.390 559.875 Q 87.016 559.753 87.706 556.084 Q 88.396 552.414 88.805 549.897 Q 89.215 547.380 90.810 544.888 Q 91.331 544.860 91.665 547.428 Q 92.000 549.997 92.604 552.644 Q 93.208 555.290 93.585 556.881 Q 93.961 558.471 95.087 559.254 Q 96.214 560.037 97.186 560.384 Q 98.159 560.731 99.380 560.283 Q 100.602 559.835 101.952 558.052 Q 103.302 556.268 104.371 554.051 Q 105.439 551.834 105.753 548.217 Q 106.066 544.599 105.125 541.430 Q 104.185 541.540 103.208 543.910 Q 102.231 546.281 102.728 549.850 Q 103.224 553.419 103.360 555.277 Q 103.496 557.135 104.042 558.425 Q 104.588 559.714 105.189 560.372 Q 105.791 561.030 106.344 561.504 Q 106.897 561.978 108.123 561.557 Q 109.349 561.136 112.330 556.993 "></path>
    <path id="STROKE_370be11e-43c2-4ca5-8cd7-cda8d5f11d71" opacity="1.000" fill="none" stroke="#009ef1" stroke-width="1.019" stroke-opacity="1.000" stroke-linecap="round" stroke-linejoin="round" d="M 121.361 518.949 Q 121.319 519.240 120.376 521.838 Q 119.433 524.437 121.169 527.787 Q 121.761 527.459 122.321 527.019 "></path>
    <path id="STROKE_f686fb8b-bc55-43aa-a43d-11b000ba0fbc" opacity="1.000" fill="none" stroke="#009ef1" stroke-width="1.019" stroke-opacity="1.000" stroke-linecap="round" stroke-linejoin="round" d="M 126.549 521.639 Q 125.647 522.289 126.837 527.883 Q 127.125 527.883 127.317 527.787 "></path>
    <path id="STROKE_4b770d4f-cfff-4021-aac7-f5af76cff569" opacity="1.000" fill="none" stroke="#f9f9f1" stroke-width="1.019" stroke-opacity="1.000" stroke-linecap="round" stroke-linejoin="round" d="M -286.068 711.199 L 231.210 718.088 "></path>
    <path id="STROKE_593474e8-4ea3-4d3b-9f3e-8de238ba98e2" opacity="1.000" fill="none" stroke="#f9f9f1" stroke-width="1.019" stroke-opacity="1.000" stroke-linecap="round" stroke-linejoin="round" d="M 234.765 711.422 Q 234.384 711.167 233.654 710.533 Q 234.137 711.703 234.543 726.533 Q 234.849 725.151 234.806 725.327 Q 234.763 725.502 234.699 725.116 Q 234.636 724.730 234.980 721.714 Q 235.324 718.698 233.432 710.533 Q 234.393 709.821 237.281 710.317 Q 240.170 710.814 241.765 711.320 Q 243.360 711.827 244.439 712.814 Q 245.518 713.801 245.319 715.779 Q 245.120 717.758 244.236 719.488 Q 243.352 721.218 242.486 722.093 Q 241.621 722.969 240.104 724.149 Q 238.586 725.329 236.321 726.755 "></path>
    <path id="STROKE_fc01132f-e1d3-4844-b479-e1099960ea82" opacity="1.000" fill="none" stroke="#f9f9f1" stroke-width="1.019" stroke-opacity="1.000" stroke-linecap="round" stroke-linejoin="round" d="M -193.430 647.470 Q -193.503 647.640 -193.001 646.201 Q -192.498 644.763 -192.406 643.691 Q -192.313 642.619 -192.941 641.970 Q -193.569 641.320 -194.496 641.776 Q -195.424 642.232 -196.647 644.122 Q -197.870 646.012 -198.789 647.953 Q -199.708 649.893 -200.375 653.798 Q -201.042 657.703 -201.033 660.963 Q -201.024 664.224 -200.914 665.937 Q -200.803 667.650 -200.276 669.091 Q -199.748 670.533 -198.922 671.217 Q -198.095 671.902 -197.495 671.938 Q -196.895 671.973 -195.401 671.226 Q -193.908 670.479 -193.050 669.473 Q -192.191 668.466 -191.772 666.419 Q -191.353 664.372 -192.732 661.572 Q -194.112 658.772 -195.700 655.737 Q -195.417 655.629 -190.351 655.737 "></path>
    <path id="STROKE_5afbad86-79f2-4177-8bec-677bee6dd004" opacity="1.000" fill="none" stroke="#f9f9f1" stroke-width="1.019" stroke-opacity="1.000" stroke-linecap="round" stroke-linejoin="round" d="M -181.273 660.114 Q -181.283 659.951 -181.164 658.138 Q -181.045 656.325 -181.127 655.286 Q -181.210 654.247 -181.810 653.572 Q -182.410 652.896 -182.877 653.194 Q -183.343 653.491 -184.221 655.064 Q -185.100 656.636 -185.484 658.872 Q -185.868 661.107 -185.934 662.558 Q -185.999 664.010 -185.856 665.456 Q -185.712 666.901 -185.268 668.014 Q -184.825 669.126 -184.061 669.587 Q -183.297 670.048 -182.201 669.626 Q -181.105 669.205 -180.724 668.620 Q -180.344 668.034 -179.823 666.845 Q -179.302 665.656 -179.152 663.667 Q -179.002 661.679 -182.732 656.548 "></path>
    <path id="STROKE_25147960-4b1b-49bb-b9d3-911175fc5317" opacity="1.000" fill="none" stroke="#f9f9f1" stroke-width="1.019" stroke-opacity="1.000" stroke-linecap="round" stroke-linejoin="round" d="M -155.986 644.552 Q -155.727 644.721 -155.154 651.115 Q -154.582 657.509 -154.134 662.113 Q -153.687 666.717 -153.068 670.164 Q -153.149 670.164 -153.230 670.164 "></path>
    <path id="STROKE_da7c33bd-2b3d-41d1-b5f8-c66cd1c67f65" opacity="1.000" fill="none" stroke="#f9f9f1" stroke-width="1.019" stroke-opacity="1.000" stroke-linecap="round" stroke-linejoin="round" d="M -163.118 655.899 Q -163.199 655.980 -163.442 656.224 Q -163.536 656.625 -159.742 656.687 Q -155.949 656.750 -149.015 654.603 "></path>
    <path id="STROKE_acabf236-12c7-426a-b957-d66bb29d7a40" opacity="1.000" fill="none" stroke="#f9f9f1" stroke-width="1.019" stroke-opacity="1.000" stroke-linecap="round" stroke-linejoin="round" d="M -137.344 650.550 Q -138.038 650.823 -138.074 650.712 Q -139.146 650.411 -140.528 650.871 Q -141.911 651.331 -143.095 654.170 Q -144.280 657.008 -144.790 659.467 Q -145.301 661.926 -145.374 663.329 Q -145.446 664.731 -145.081 666.457 Q -144.717 668.183 -143.886 669.285 Q -143.055 670.386 -141.777 670.918 Q -140.499 671.450 -139.119 671.441 Q -137.740 671.432 -136.465 670.519 Q -135.189 669.605 -134.302 668.135 Q -133.414 666.666 -132.995 664.637 Q -132.576 662.608 -136.372 655.737 Q -136.128 655.656 -135.399 655.575 "></path>
    <path id="STROKE_1973576e-1fc4-4b7c-b040-b2c55869be25" opacity="1.000" fill="none" stroke="#f9f9f1" stroke-width="1.019" stroke-opacity="1.000" stroke-linecap="round" stroke-linejoin="round" d="M -98.116 646.498 Q -99.051 645.616 -98.923 645.696 Q -98.794 645.776 -99.299 645.364 Q -99.805 644.951 -100.523 644.383 Q -101.242 643.814 -102.025 644.061 Q -102.808 644.307 -103.051 644.541 Q -103.293 644.774 -103.391 645.139 Q -103.490 645.504 -103.487 645.824 Q -103.485 646.145 -103.406 646.911 Q -103.327 647.678 -102.627 650.329 Q -101.926 652.980 -101.067 655.979 Q -100.207 658.979 -99.614 660.812 Q -99.021 662.645 -98.624 665.632 Q -98.227 668.618 -99.575 673.082 Q -99.185 672.918 -97.719 669.721 Q -96.254 666.524 -91.470 661.897 "></path>
    <path id="STROKE_1ddb9a24-52fa-4f7c-a719-6fa43d911b76" opacity="1.000" fill="none" stroke="#f9f9f1" stroke-width="1.019" stroke-opacity="1.000" stroke-linecap="round" stroke-linejoin="round" d="M -85.148 652.819 Q -85.746 653.072 -87.190 655.155 Q -88.635 657.239 -89.502 659.044 Q -90.369 660.850 -90.310 662.927 Q -90.252 665.004 -90.121 666.301 Q -89.991 667.598 -89.146 668.313 Q -88.302 669.028 -87.340 669.493 Q -86.379 669.957 -85.196 669.417 Q -84.014 668.877 -83.085 667.966 Q -82.156 667.055 -81.782 666.702 Q -81.407 666.348 -81.060 664.417 Q -80.714 662.487 -81.101 660.905 Q -81.488 659.323 -81.816 658.701 Q -82.143 658.079 -82.068 653.954 Q -81.887 653.873 -81.258 653.144 "></path>
    <path id="STROKE_b5429460-6d09-432c-8a87-f5b1db813f92" opacity="1.000" fill="none" stroke="#f9f9f1" stroke-width="1.019" stroke-opacity="1.000" stroke-linecap="round" stroke-linejoin="round" d="M -78.178 663.518 Q -78.078 663.006 -76.912 661.829 Q -75.746 660.651 -74.246 657.883 Q -72.746 655.115 -71.824 652.280 Q -70.901 649.445 -70.559 646.011 Q -71.159 646.276 -71.598 651.309 Q -72.037 656.341 -72.234 658.985 Q -72.432 661.628 -72.310 663.756 Q -72.188 665.884 -71.929 667.354 Q -71.670 668.825 -71.294 669.380 Q -70.918 669.935 -70.458 670.426 Q -69.997 670.916 -69.705 671.047 Q -69.413 671.178 -68.523 670.654 Q -67.633 670.129 -66.904 666.925 Q -66.176 663.722 -65.742 661.660 Q -65.309 659.598 -65.039 658.321 Q -64.769 657.045 -64.481 651.928 Q -64.980 652.696 -65.195 657.260 Q -65.410 661.823 -65.545 664.568 Q -65.679 667.312 -63.589 671.056 Q -62.148 671.076 -59.890 667.946 Q -57.633 664.816 -55.970 655.413 Q -56.184 655.417 -55.965 658.332 Q -55.746 661.247 -55.466 663.281 Q -55.186 665.315 -54.507 666.455 Q -53.828 667.595 -52.849 668.608 Q -51.870 669.622 -49.486 668.543 "></path>
    <path id="STROKE_526f67c5-1802-43ff-bd93-ab89fe710f7a" opacity="1.000" fill="none" stroke="#f9f9f1" stroke-width="1.019" stroke-opacity="1.000" stroke-linecap="round" stroke-linejoin="round" d="M -44.786 646.011 Q -45.983 646.281 -45.520 649.863 Q -45.058 653.445 -44.857 657.260 Q -44.655 661.075 -45.434 670.488 Q -45.713 669.867 -45.376 666.477 Q -45.038 663.086 -43.907 660.160 Q -42.776 657.234 -41.895 655.845 Q -41.014 654.455 -40.635 653.731 Q -40.256 653.006 -39.675 652.980 Q -39.093 652.954 -38.752 653.031 Q -38.410 653.108 -37.956 653.662 Q -37.501 654.216 -37.067 657.983 Q -36.633 661.750 -36.302 663.976 Q -35.971 666.203 -35.796 667.523 Q -35.621 668.843 -34.957 669.776 Q -34.293 670.709 -33.114 671.785 "></path>
    <circle id="STROKE_4e563ed3-bd22-4a2c-99aa-5607dc04c8e0" opacity="1.000" fill="#f9f9f1" stroke="#f9f9f1" stroke-width="0.1" stroke-opacity="1.000" fill-opacity="1.000" cx="-29.062" cy="642.283" r="0.510"></circle>
    <path id="STROKE_56fb822c-b163-4377-9ab7-81928393f006" opacity="1.000" fill="none" stroke="#f9f9f1" stroke-width="1.019" stroke-opacity="1.000" stroke-linecap="round" stroke-linejoin="round" d="M -20.957 659.790 Q -20.395 659.880 -20.054 659.150 Q -19.712 658.420 -19.646 657.598 Q -19.579 656.775 -19.690 655.861 Q -19.801 654.948 -20.332 654.231 Q -20.863 653.515 -21.242 653.267 Q -21.620 653.020 -22.902 653.630 Q -24.184 654.240 -25.379 656.223 Q -26.573 658.206 -27.286 660.658 Q -27.999 663.111 -27.936 664.966 Q -27.874 666.822 -27.665 667.694 Q -27.457 668.566 -27.025 669.244 Q -26.593 669.923 -25.659 670.141 Q -24.725 670.359 -23.008 669.901 Q -21.291 669.443 -20.581 668.651 Q -19.871 667.859 -19.590 667.445 Q -19.308 667.030 -19.488 665.791 Q -19.668 664.552 -20.198 663.103 Q -20.729 661.654 -20.843 660.193 Q -20.956 658.731 -19.498 656.872 "></path>
    <path id="STROKE_af928e14-018a-4fd6-ac7b-9cba81c5f2b1" opacity="1.000" fill="none" stroke="#f9f9f1" stroke-width="1.019" stroke-opacity="1.000" stroke-linecap="round" stroke-linejoin="round" d="M -13.338 653.306 Q -13.755 653.978 -14.173 659.481 Q -14.591 664.984 -13.663 673.568 Q -13.051 673.941 -10.788 669.185 Q -8.526 664.429 -7.198 661.261 Q -5.870 658.094 -3.612 655.899 Q -3.528 655.509 -3.208 656.897 Q -2.889 658.284 -2.803 661.276 Q -2.718 664.268 -2.270 666.783 Q -1.822 669.297 -1.419 670.661 Q -1.016 672.026 -0.238 673.249 Q 0.541 674.473 1.215 674.761 Q 1.889 675.049 2.639 675.087 Q 3.388 675.126 6.276 672.433 "></path>
    <path id="STROKE_85d606cc-25b3-4634-adbc-93ac6f71e647" opacity="1.000" fill="none" stroke="#f9f9f1" stroke-width="1.019" stroke-opacity="1.000" stroke-linecap="round" stroke-linejoin="round" d="M 34.481 653.306 Q 34.319 653.387 34.157 653.468 Q 34.142 653.807 34.175 656.450 Q 34.208 659.094 34.103 660.772 Q 33.998 662.451 33.897 663.535 Q 33.796 664.618 33.773 666.664 Q 33.749 668.710 34.562 670.812 Q 35.023 670.839 36.720 669.311 Q 38.417 667.784 39.709 666.981 Q 41.001 666.179 41.602 666.177 Q 42.203 666.174 42.559 666.871 Q 42.914 667.568 42.918 668.196 Q 42.922 668.824 42.583 669.907 Q 42.245 670.990 41.127 672.433 Q 40.749 672.050 40.702 671.988 Q 40.656 671.927 40.708 671.927 Q 40.759 671.927 40.523 671.823 Q 40.286 671.718 40.220 669.032 Q 40.154 666.346 41.120 663.241 Q 42.085 660.135 43.091 658.011 Q 44.097 655.887 44.958 654.788 Q 45.818 653.690 46.247 653.202 Q 46.675 652.714 47.667 652.994 Q 48.659 653.274 49.172 655.138 Q 49.685 657.001 49.794 660.352 Q 49.903 663.703 49.665 665.879 Q 49.427 668.056 51.015 670.812 "></path>
    <circle id="STROKE_d5ef1773-b5f1-4f3f-8822-86d64d550d06" opacity="1.000" fill="#f9f9f1" stroke="#f9f9f1" stroke-width="0.1" stroke-opacity="1.000" fill-opacity="1.000" cx="53.122" cy="644.715" r="0.510"></circle>
    <path id="STROKE_7a293bdb-e3e8-4e3e-85be-46d6ed3b82b4" opacity="1.000" fill="none" stroke="#f9f9f1" stroke-width="1.019" stroke-opacity="1.000" stroke-linecap="round" stroke-linejoin="round" d="M 61.389 646.173 Q 61.442 645.976 60.662 651.573 Q 59.882 657.169 61.389 670.812 Q 61.178 670.952 60.092 669.191 "></path>
    <path id="STROKE_4ca09a53-8815-49ad-8fda-39a7c0c7790f" opacity="1.000" fill="none" stroke="#f9f9f1" stroke-width="1.019" stroke-opacity="1.000" stroke-linecap="round" stroke-linejoin="round" d="M 58.634 659.952 Q 59.100 659.349 63.659 658.817 "></path>
    <path id="STROKE_9f762664-0fc2-4d2d-a58d-a238fb1e0173" opacity="1.000" fill="none" stroke="#f9f9f1" stroke-width="1.019" stroke-opacity="1.000" stroke-linecap="round" stroke-linejoin="round" d="M 69.494 647.470 Q 69.488 645.831 69.656 645.768 Q 69.656 645.606 69.656 645.363 Q 70.055 645.434 70.025 650.707 Q 69.995 655.980 69.918 658.927 Q 69.842 661.875 69.944 663.682 Q 70.046 665.489 70.953 666.760 Q 71.784 666.360 73.177 663.773 Q 74.570 661.186 80.517 655.413 Q 80.725 655.427 81.010 655.904 Q 81.295 656.381 81.173 659.800 Q 81.051 663.219 81.367 666.101 Q 81.683 668.983 82.193 670.805 Q 82.702 672.627 83.267 673.403 Q 83.831 674.179 84.011 674.631 Q 84.191 675.083 85.107 674.759 Q 86.023 674.435 86.570 673.888 Q 87.118 673.342 87.518 672.722 Q 87.917 672.103 89.108 669.678 "></path>
    <path id="STROKE_a31cc74e-d427-4fcf-8709-43f4c5eef10b" opacity="1.000" fill="none" stroke="#f9f9f1" stroke-width="1.019" stroke-opacity="1.000" stroke-linecap="round" stroke-linejoin="round" d="M 126.271 649.766 Q 125.952 649.242 125.200 648.298 Q 124.449 647.354 123.649 646.978 Q 122.850 646.601 122.358 646.794 Q 121.865 646.986 121.381 647.528 Q 120.896 648.070 120.940 650.342 Q 120.983 652.613 122.387 656.736 Q 123.791 660.858 124.720 662.895 Q 125.649 664.932 125.883 665.923 Q 126.117 666.914 126.019 667.342 Q 125.922 667.771 125.733 668.041 Q 125.545 668.311 125.162 668.791 Q 124.778 669.270 124.155 669.539 Q 123.531 669.807 122.482 669.621 Q 122.558 669.469 123.088 668.711 "></path>
    <path id="STROKE_5f49313f-f566-4d46-8f98-c8c6ed6dab98" opacity="1.000" fill="none" stroke="#f9f9f1" stroke-width="1.019" stroke-opacity="1.000" stroke-linecap="round" stroke-linejoin="round" d="M 143.397 655.374 Q 143.429 655.387 143.594 654.934 Q 143.759 654.481 143.342 653.750 Q 142.926 653.018 142.659 652.544 Q 142.393 652.071 141.600 651.946 Q 140.807 651.821 140.063 651.888 Q 140.160 651.664 140.215 651.130 Q 140.186 650.871 138.976 651.834 Q 137.766 652.797 136.753 654.165 Q 135.740 655.534 134.710 657.303 Q 133.680 659.072 133.137 661.174 Q 132.594 663.275 132.566 664.595 Q 132.537 665.915 132.733 666.844 Q 132.928 667.774 133.897 668.969 Q 134.866 670.163 136.456 670.319 Q 138.047 670.475 140.821 669.015 "></path>
    <path id="STROKE_95e261bd-501f-4bf2-b466-51e9409ea770" opacity="1.000" fill="none" stroke="#f9f9f1" stroke-width="1.019" stroke-opacity="1.000" stroke-linecap="round" stroke-linejoin="round" d="M 153.400 650.827 Q 153.332 650.542 153.600 655.798 Q 153.867 661.054 154.060 664.328 Q 154.253 667.602 154.461 669.924 "></path>
    <path id="STROKE_7c174da0-0715-4589-ada7-0bdaa776362a" opacity="1.000" fill="none" stroke="#f9f9f1" stroke-width="1.019" stroke-opacity="1.000" stroke-linecap="round" stroke-linejoin="round" d="M 164.616 652.040 Q 164.364 651.564 164.723 656.401 Q 165.082 661.237 165.515 664.614 Q 165.949 667.990 165.525 670.530 "></path>
    <path id="STROKE_312bb8b7-c7ca-4784-89fb-e5ab9685d2be" opacity="1.000" fill="none" stroke="#f9f9f1" stroke-width="1.019" stroke-opacity="1.000" stroke-linecap="round" stroke-linejoin="round" d="M 165.374 656.587 Q 165.059 656.062 165.044 654.052 Q 165.029 652.043 165.311 650.384 Q 165.592 648.725 166.110 647.475 Q 166.627 646.226 167.921 645.405 Q 169.215 644.585 169.887 644.244 Q 170.559 643.903 171.824 644.209 Q 173.090 644.516 174.401 644.967 Q 175.712 645.419 176.853 647.046 Q 177.994 648.673 178.568 650.137 Q 179.142 651.602 179.062 652.674 Q 178.982 653.746 178.490 654.591 Q 177.998 655.435 177.072 656.247 Q 176.146 657.060 175.265 657.690 Q 174.383 658.321 170.375 658.860 "></path>
  </g>
</svg>