<?xml version="1.0" encoding="UTF-8" standalone="yes"?>
<svg xmlns="http://www.w3.org/2000/svg" xmlns:xlink="http://www.w3.org/1999/xlink" width="1920.000px" height="1080.000px" version="1.1" viewBox="-415.838 480.424 853.333 480.000">
  <!--
	Exported with Concepts: Smarter Sketching
	Version: 2024.11 on Android 13
	https://concepts.app/
	-->
  <title>Bipartite with features</title>
  <desc>Drawing exported from Concepts: Smarter Sketching</desc>
  <defs></defs>
  <g id="Pen" opacity="1.000">
    <path id="STROKE_1050adcb-5fff-4466-97d5-2190b4f557f1" opacity="1.000" fill="none" stroke="#f9f9f1" stroke-width="0.921" stroke-opacity="1.000" stroke-linecap="round" stroke-linejoin="round" d="M -95.844 622.751 Q -95.654 622.753 -95.463 622.752 Q -95.273 622.750 -95.083 622.746 Q -94.892 622.741 -94.702 622.733 Q -94.512 622.725 -94.322 622.714 Q -94.131 622.703 -93.942 622.688 Q -93.752 622.673 -93.562 622.656 Q -93.373 622.638 -93.183 622.617 Q -92.994 622.595 -92.805 622.571 Q -92.616 622.546 -92.428 622.519 Q -92.240 622.491 -92.052 622.460 Q -91.864 622.429 -91.677 622.394 Q -91.489 622.360 -91.303 622.322 Q -91.116 622.285 -90.930 622.244 Q -90.744 622.203 -90.559 622.159 Q -90.373 622.115 -90.189 622.068 Q -90.005 622.020 -89.821 621.970 Q -89.637 621.919 -89.455 621.865 Q -89.272 621.812 -89.090 621.755 Q -88.909 621.698 -88.728 621.638 Q -88.547 621.578 -88.367 621.514 Q -88.188 621.451 -88.009 621.385 Q -87.831 621.319 -87.654 621.249 Q -87.476 621.180 -87.300 621.107 Q -87.124 621.035 -86.949 620.959 Q -86.775 620.883 -86.601 620.805 Q -86.428 620.726 -86.256 620.645 Q -86.084 620.563 -85.913 620.478 Q -85.742 620.394 -85.573 620.306 Q -85.404 620.218 -85.237 620.128 Q -85.069 620.037 -84.903 619.944 Q -84.737 619.850 -84.573 619.754 Q -84.409 619.658 -84.246 619.559 Q -84.084 619.459 -83.923 619.357 Q -83.762 619.255 -83.603 619.151 Q -83.444 619.046 -83.287 618.938 Q -83.130 618.831 -82.975 618.720 Q -82.819 618.610 -82.666 618.497 Q -82.513 618.384 -82.362 618.268 Q -82.210 618.153 -82.061 618.035 Q -81.912 617.916 -81.765 617.796 Q -81.617 617.675 -81.472 617.551 Q -81.327 617.428 -81.184 617.302 Q -81.042 617.176 -80.901 617.048 Q -80.760 616.919 -80.622 616.788 Q -80.484 616.658 -80.347 616.524 Q -80.211 616.391 -80.078 616.256 Q -79.944 616.120 -79.813 615.982 Q -79.681 615.844 -79.552 615.704 Q -79.423 615.564 -79.297 615.422 Q -79.171 615.279 -79.047 615.135 Q -78.923 614.990 -78.801 614.844 Q -78.680 614.697 -78.561 614.548 Q -78.442 614.399 -78.326 614.248 Q -78.210 614.098 -78.096 613.945 Q -77.983 613.792 -77.872 613.637 Q -77.761 613.482 -77.653 613.325 Q -77.545 613.169 -77.439 613.010 Q -77.334 612.852 -77.231 612.691 Q -77.128 612.531 -77.029 612.369 Q -76.929 612.206 -76.832 612.042 Q -76.735 611.879 -76.641 611.713 Q -76.547 611.547 -76.456 611.380 Q -76.364 611.213 -76.276 611.044 Q -76.188 610.876 -76.103 610.705 Q -76.017 610.535 -75.935 610.363 Q -75.853 610.192 -75.773 610.019 Q -75.694 609.845 -75.618 609.671 Q -75.541 609.496 -75.468 609.321 Q -75.395 609.145 -75.325 608.968 Q -75.255 608.791 -75.188 608.613 Q -75.121 608.434 -75.057 608.255 Q -74.993 608.076 -74.932 607.895 Q -74.871 607.715 -74.814 607.533 Q -74.756 607.352 -74.702 607.169 Q -74.647 606.987 -74.596 606.803 Q -74.545 606.620 -74.497 606.436 Q -74.449 606.251 -74.404 606.066 Q -74.359 605.881 -74.318 605.695 Q -74.276 605.510 -74.238 605.323 Q -74.199 605.136 -74.164 604.949 Q -74.129 604.762 -74.097 604.574 Q -74.066 604.387 -74.037 604.198 Q -74.009 604.010 -73.983 603.821 Q -73.958 603.633 -73.936 603.443 Q -73.914 603.254 -73.896 603.065 Q -73.877 602.875 -73.862 602.685 Q -73.846 602.496 -73.834 602.306 Q -73.822 602.116 -73.814 601.925 Q -73.805 601.735 -73.800 601.545 Q -73.794 601.354 -73.792 601.164 Q -73.790 600.974 -73.792 600.783 Q -73.793 600.593 -73.798 600.402 Q -73.802 600.212 -73.810 600.022 Q -73.818 599.831 -73.829 599.641 Q -73.841 599.451 -73.855 599.261 Q -73.870 599.072 -73.888 598.882 Q -73.906 598.692 -73.927 598.503 Q -73.948 598.314 -73.972 598.125 Q -73.997 597.936 -74.025 597.748 Q -74.052 597.559 -74.084 597.372 Q -74.115 597.184 -74.149 596.996 Q -74.183 596.809 -74.221 596.622 Q -74.258 596.436 -74.299 596.250 Q -74.340 596.064 -74.384 595.879 Q -74.428 595.693 -74.476 595.509 Q -74.523 595.324 -74.574 595.141 Q -74.624 594.957 -74.678 594.774 Q -74.732 594.592 -74.788 594.410 Q -74.845 594.228 -74.905 594.048 Q -74.966 593.867 -75.029 593.687 Q -75.092 593.508 -75.158 593.329 Q -75.225 593.151 -75.294 592.973 Q -75.364 592.796 -75.436 592.620 Q -75.509 592.444 -75.584 592.269 Q -75.660 592.094 -75.738 591.921 Q -75.817 591.748 -75.899 591.576 Q -75.980 591.403 -76.065 591.233 Q -76.150 591.062 -76.237 590.893 Q -76.325 590.724 -76.415 590.557 Q -76.506 590.389 -76.599 590.223 Q -76.693 590.057 -76.789 589.893 Q -76.886 589.729 -76.985 589.566 Q -77.084 589.404 -77.186 589.243 Q -77.288 589.082 -77.393 588.923 Q -77.497 588.764 -77.605 588.607 Q -77.713 588.450 -77.823 588.295 Q -77.933 588.139 -78.046 587.986 Q -78.159 587.833 -78.275 587.681 Q -78.390 587.530 -78.509 587.381 Q -78.627 587.232 -78.748 587.084 Q -78.869 586.937 -78.992 586.792 Q -79.115 586.647 -79.241 586.504 Q -79.367 586.361 -79.496 586.221 Q -79.624 586.080 -79.755 585.942 Q -79.886 585.803 -80.019 585.667 Q -80.152 585.531 -80.288 585.398 Q -80.423 585.264 -80.561 585.132 Q -80.699 585.001 -80.839 584.872 Q -80.979 584.743 -81.122 584.617 Q -81.264 584.490 -81.408 584.366 Q -81.553 584.242 -81.700 584.121 Q -81.846 584.000 -81.995 583.881 Q -82.144 583.762 -82.295 583.646 Q -82.446 583.530 -82.599 583.416 Q -82.751 583.302 -82.906 583.192 Q -83.061 583.081 -83.218 582.973 Q -83.375 582.864 -83.533 582.759 Q -83.692 582.654 -83.852 582.551 Q -84.012 582.448 -84.175 582.348 Q -84.337 582.249 -84.501 582.152 Q -84.665 582.055 -84.830 581.961 Q -84.996 581.867 -85.163 581.775 Q -85.330 581.684 -85.499 581.596 Q -85.668 581.508 -85.838 581.422 Q -86.008 581.337 -86.180 581.255 Q -86.352 581.172 -86.525 581.093 Q -86.698 581.014 -86.872 580.938 Q -87.047 580.861 -87.223 580.788 Q -87.398 580.715 -87.575 580.645 Q -87.752 580.575 -87.931 580.508 Q -88.109 580.441 -88.288 580.377 Q -88.468 580.313 -88.648 580.252 Q -88.829 580.191 -89.010 580.134 Q -89.192 580.076 -89.374 580.022 Q -89.557 579.967 -89.740 579.916 Q -89.923 579.865 -90.108 579.817 Q -90.292 579.769 -90.477 579.724 Q -90.662 579.679 -90.848 579.637 Q -91.034 579.596 -91.220 579.557 Q -91.407 579.519 -91.594 579.484 Q -91.781 579.449 -91.969 579.417 Q -92.157 579.385 -92.345 579.357 Q -92.533 579.328 -92.722 579.303 Q -92.911 579.278 -93.100 579.256 Q -93.289 579.234 -93.478 579.216 Q -93.668 579.197 -93.858 579.182 Q -94.048 579.166 -94.238 579.154 Q -94.428 579.142 -94.618 579.134 Q -94.808 579.125 -94.998 579.120 Q -95.189 579.114 -95.379 579.112 Q -95.570 579.110 -95.760 579.112 Q -95.950 579.113 -96.141 579.117 Q -96.331 579.122 -96.521 579.130 Q -96.712 579.138 -96.902 579.149 Q -97.092 579.160 -97.282 579.175 Q -97.472 579.190 -97.661 579.207 Q -97.851 579.225 -98.040 579.247 Q -98.229 579.268 -98.418 579.292 Q -98.607 579.317 -98.795 579.344 Q -98.984 579.372 -99.172 579.403 Q -99.360 579.434 -99.547 579.469 Q -99.734 579.503 -99.921 579.541 Q -100.107 579.578 -100.293 579.619 Q -100.479 579.660 -100.665 579.704 Q -100.850 579.748 -101.034 579.796 Q -101.219 579.843 -101.402 579.893 Q -101.586 579.944 -101.769 579.998 Q -101.951 580.051 -102.133 580.108 Q -102.315 580.165 -102.496 580.225 Q -102.676 580.285 -102.856 580.349 Q -103.036 580.412 -103.214 580.478 Q -103.393 580.544 -103.570 580.614 Q -103.747 580.683 -103.923 580.756 Q -104.099 580.828 -104.274 580.904 Q -104.449 580.980 -104.622 581.058 Q -104.796 581.137 -104.968 581.219 Q -105.140 581.300 -105.310 581.385 Q -105.481 581.469 -105.650 581.557 Q -105.819 581.645 -105.987 581.735 Q -106.154 581.826 -106.320 581.919 Q -106.486 582.013 -106.650 582.109 Q -106.814 582.205 -106.977 582.305 Q -107.140 582.404 -107.300 582.506 Q -107.461 582.608 -107.620 582.713 Q -107.779 582.817 -107.936 582.925 Q -108.093 583.032 -108.249 583.143 Q -108.404 583.253 -108.557 583.366 Q -108.711 583.479 -108.862 583.595 Q -109.013 583.710 -109.162 583.828 Q -109.312 583.947 -109.459 584.068 Q -109.606 584.188 -109.751 584.312 Q -109.896 584.435 -110.039 584.561 Q -110.182 584.687 -110.322 584.815 Q -110.463 584.944 -110.601 585.075 Q -110.740 585.205 -110.876 585.339 Q -111.012 585.472 -111.146 585.607 Q -111.279 585.743 -111.411 585.881 Q -111.542 586.019 -111.671 586.159 Q -111.800 586.299 -111.926 586.441 Q -112.053 586.584 -112.177 586.728 Q -112.301 586.873 -112.422 587.020 Q -112.544 587.166 -112.662 587.315 Q -112.781 587.464 -112.897 587.615 Q -113.014 587.766 -113.127 587.918 Q -113.241 588.071 -113.352 588.226 Q -113.463 588.381 -113.571 588.538 Q -113.679 588.694 -113.784 588.853 Q -113.890 589.012 -113.992 589.172 Q -114.095 589.332 -114.195 589.495 Q -114.295 589.657 -114.392 589.821 Q -114.488 589.984 -114.583 590.150 Q -114.677 590.316 -114.768 590.483 Q -114.859 590.650 -114.947 590.819 Q -115.036 590.987 -115.121 591.158 Q -115.206 591.328 -115.288 591.500 Q -115.371 591.671 -115.450 591.844 Q -115.529 592.018 -115.606 592.192 Q -115.682 592.367 -115.755 592.542 Q -115.828 592.718 -115.898 592.895 Q -115.969 593.072 -116.036 593.250 Q -116.103 593.429 -116.167 593.608 Q -116.230 593.787 -116.291 593.968 Q -116.352 594.148 -116.410 594.330 Q -116.467 594.511 -116.522 594.694 Q -116.576 594.876 -116.627 595.060 Q -116.679 595.243 -116.727 595.427 Q -116.775 595.612 -116.819 595.797 Q -116.864 595.982 -116.906 596.168 Q -116.947 596.354 -116.986 596.540 Q -117.024 596.727 -117.059 596.914 Q -117.094 597.101 -117.126 597.289 Q -117.158 597.476 -117.186 597.665 Q -117.215 597.853 -117.240 598.042 Q -117.265 598.230 -117.287 598.420 Q -117.309 598.609 -117.328 598.798 Q -117.346 598.988 -117.362 599.178 Q -117.377 599.367 -117.389 599.557 Q -117.401 599.747 -117.410 599.938 Q -117.418 600.128 -117.424 600.318 Q -117.429 600.509 -117.431 600.699 Q -117.433 600.890 -117.432 601.080 Q -117.430 601.270 -117.426 601.461 Q -117.421 601.651 -117.413 601.841 Q -117.405 602.032 -117.394 602.222 Q -117.383 602.412 -117.368 602.602 Q -117.354 602.792 -117.336 602.981 Q -117.318 603.171 -117.297 603.360 Q -117.275 603.549 -117.251 603.738 Q -117.227 603.927 -117.199 604.115 Q -117.171 604.304 -117.140 604.491 Q -117.109 604.679 -117.074 604.867 Q -117.040 605.054 -117.003 605.241 Q -116.965 605.427 -116.924 605.613 Q -116.883 605.799 -116.839 605.985 Q -116.795 606.170 -116.748 606.354 Q -116.700 606.539 -116.650 606.722 Q -116.599 606.906 -116.546 607.089 Q -116.492 607.271 -116.435 607.453 Q -116.378 607.635 -116.318 607.815 Q -116.258 607.996 -116.195 608.176 Q -116.131 608.355 -116.065 608.534 Q -115.999 608.712 -115.929 608.890 Q -115.860 609.067 -115.787 609.243 Q -115.715 609.419 -115.639 609.594 Q -115.564 609.769 -115.485 609.942 Q -115.406 610.115 -115.325 610.288 Q -115.243 610.460 -115.158 610.630 Q -115.074 610.801 -114.986 610.970 Q -114.899 611.139 -114.808 611.306 Q -114.717 611.474 -114.624 611.640 Q -114.531 611.806 -114.434 611.970 Q -114.338 612.134 -114.239 612.297 Q -114.139 612.459 -114.037 612.620 Q -113.935 612.781 -113.831 612.940 Q -113.726 613.099 -113.618 613.256 Q -113.511 613.413 -113.400 613.568 Q -113.290 613.724 -113.177 613.877 Q -113.064 614.030 -112.949 614.182 Q -112.833 614.333 -112.715 614.482 Q -112.596 614.631 -112.476 614.779 Q -112.355 614.926 -112.231 615.071 Q -112.108 615.216 -111.982 615.359 Q -111.856 615.502 -111.728 615.642 Q -111.599 615.783 -111.469 615.921 Q -111.338 616.060 -111.205 616.196 Q -111.071 616.332 -110.936 616.466 Q -110.800 616.599 -110.662 616.731 Q -110.525 616.862 -110.384 616.991 Q -110.244 617.120 -110.102 617.246 Q -109.959 617.373 -109.815 617.497 Q -109.670 617.621 -109.524 617.742 Q -109.377 617.863 -109.228 617.982 Q -109.079 618.101 -108.929 618.217 Q -108.778 618.333 -108.625 618.447 Q -108.472 618.561 -108.317 618.672 Q -108.162 618.782 -108.006 618.891 Q -107.849 618.999 -107.690 619.104 Q -107.532 619.210 -107.371 619.312 Q -107.211 619.415 -107.049 619.515 Q -106.887 619.614 -106.723 619.711 Q -106.559 619.808 -106.393 619.902 Q -106.228 619.996 -106.060 620.088 Q -105.893 620.179 -105.725 620.267 Q -105.556 620.355 -105.386 620.441 Q -105.215 620.526 -105.044 620.608 Q -104.872 620.691 -104.699 620.770 Q -104.526 620.849 -104.351 620.925 Q -104.177 621.002 -104.001 621.075 Q -103.825 621.148 -103.648 621.218 Q -103.471 621.288 -103.293 621.355 Q -103.115 621.422 -102.935 621.486 Q -102.756 621.550 -102.575 621.611 Q -102.395 621.672 -102.213 621.729 Q -102.032 621.787 -101.849 621.841 Q -101.667 621.896 -101.483 621.947 Q -101.300 621.998 -101.116 622.046 Q -100.932 622.094 -100.746 622.139 Q -100.561 622.184 -100.376 622.226 Q -100.190 622.267 -100.003 622.306 Q -99.817 622.344 -99.629 622.379 Q -99.442 622.414 -99.255 622.446 Q -99.067 622.478 -98.879 622.506 Q -98.690 622.535 -98.502 622.560 Q -98.313 622.585 -98.124 622.607 Q -97.934 622.629 -97.745 622.648 Q -97.555 622.666 -97.366 622.681 Q -97.176 622.697 -96.986 622.709 Q -96.796 622.721 -96.605 622.729 Q -96.415 622.738 -96.225 622.743 Q -96.035 622.749 -95.844 622.751 Z"></path>
    <path id="STROKE_69176d43-718d-4495-84ac-58fd2f6c2b5d" opacity="1.000" fill="none" stroke="#f9f9f1" stroke-width="0.921" stroke-opacity="1.000" stroke-linecap="round" stroke-linejoin="round" d="M -96.409 732.724 Q -96.219 732.726 -96.028 732.725 Q -95.838 732.724 -95.647 732.719 Q -95.457 732.714 -95.267 732.706 Q -95.077 732.698 -94.887 732.687 Q -94.696 732.676 -94.507 732.661 Q -94.317 732.647 -94.127 732.629 Q -93.938 732.611 -93.748 732.590 Q -93.559 732.569 -93.370 732.544 Q -93.181 732.520 -92.993 732.492 Q -92.805 732.464 -92.617 732.433 Q -92.429 732.402 -92.242 732.368 Q -92.054 732.333 -91.868 732.296 Q -91.681 732.258 -91.495 732.217 Q -91.309 732.176 -91.124 732.132 Q -90.938 732.088 -90.754 732.041 Q -90.570 731.994 -90.386 731.943 Q -90.202 731.893 -90.020 731.839 Q -89.837 731.785 -89.655 731.728 Q -89.473 731.671 -89.293 731.611 Q -89.112 731.551 -88.932 731.488 Q -88.753 731.425 -88.574 731.358 Q -88.396 731.292 -88.219 731.223 Q -88.041 731.153 -87.865 731.081 Q -87.689 731.008 -87.514 730.932 Q -87.340 730.857 -87.166 730.778 Q -86.993 730.700 -86.821 730.618 Q -86.649 730.536 -86.478 730.452 Q -86.307 730.367 -86.138 730.279 Q -85.969 730.192 -85.802 730.101 Q -85.634 730.011 -85.468 729.917 Q -85.302 729.824 -85.138 729.727 Q -84.974 729.631 -84.811 729.532 Q -84.649 729.433 -84.488 729.331 Q -84.327 729.229 -84.168 729.124 Q -84.009 729.019 -83.852 728.912 Q -83.695 728.804 -83.540 728.694 Q -83.384 728.583 -83.231 728.470 Q -83.078 728.357 -82.927 728.242 Q -82.775 728.126 -82.626 728.008 Q -82.477 727.890 -82.330 727.769 Q -82.182 727.648 -82.037 727.525 Q -81.892 727.401 -81.749 727.275 Q -81.607 727.149 -81.466 727.021 Q -81.325 726.893 -81.187 726.762 Q -81.049 726.631 -80.912 726.498 Q -80.776 726.365 -80.643 726.229 Q -80.509 726.094 -80.378 725.956 Q -80.246 725.818 -80.117 725.678 Q -79.988 725.537 -79.862 725.395 Q -79.735 725.253 -79.612 725.108 Q -79.488 724.964 -79.366 724.817 Q -79.245 724.670 -79.126 724.521 Q -79.007 724.373 -78.891 724.222 Q -78.775 724.071 -78.661 723.918 Q -78.548 723.765 -78.437 723.610 Q -78.326 723.456 -78.218 723.299 Q -78.109 723.142 -78.004 722.984 Q -77.899 722.825 -77.796 722.665 Q -77.693 722.504 -77.594 722.342 Q -77.494 722.180 -77.397 722.016 Q -77.300 721.852 -77.206 721.686 Q -77.112 721.521 -77.021 721.354 Q -76.929 721.187 -76.841 721.018 Q -76.753 720.849 -76.668 720.679 Q -76.582 720.509 -76.500 720.337 Q -76.418 720.165 -76.338 719.992 Q -76.259 719.819 -76.183 719.644 Q -76.106 719.470 -76.033 719.294 Q -75.960 719.118 -75.890 718.941 Q -75.820 718.764 -75.753 718.586 Q -75.686 718.408 -75.622 718.228 Q -75.558 718.049 -75.497 717.869 Q -75.436 717.688 -75.379 717.507 Q -75.321 717.325 -75.267 717.143 Q -75.212 716.960 -75.161 716.777 Q -75.110 716.593 -75.062 716.409 Q -75.014 716.225 -74.969 716.040 Q -74.924 715.855 -74.883 715.669 Q -74.841 715.483 -74.803 715.296 Q -74.764 715.110 -74.729 714.923 Q -74.694 714.736 -74.662 714.548 Q -74.631 714.360 -74.602 714.172 Q -74.574 713.984 -74.548 713.795 Q -74.523 713.606 -74.501 713.417 Q -74.479 713.228 -74.461 713.038 Q -74.442 712.849 -74.427 712.659 Q -74.411 712.469 -74.399 712.279 Q -74.387 712.089 -74.379 711.899 Q -74.370 711.708 -74.365 711.518 Q -74.359 711.328 -74.357 711.137 Q -74.355 710.947 -74.357 710.757 Q -74.358 710.566 -74.363 710.376 Q -74.367 710.185 -74.375 709.995 Q -74.383 709.805 -74.394 709.615 Q -74.406 709.425 -74.420 709.235 Q -74.435 709.045 -74.453 708.855 Q -74.470 708.666 -74.492 708.477 Q -74.513 708.287 -74.537 708.098 Q -74.562 707.910 -74.590 707.721 Q -74.617 707.533 -74.648 707.345 Q -74.680 707.157 -74.714 706.970 Q -74.748 706.782 -74.786 706.596 Q -74.823 706.409 -74.864 706.223 Q -74.905 706.037 -74.949 705.852 Q -74.993 705.667 -75.041 705.482 Q -75.088 705.298 -75.139 705.114 Q -75.189 704.931 -75.243 704.748 Q -75.297 704.565 -75.353 704.383 Q -75.410 704.202 -75.470 704.021 Q -75.531 703.840 -75.594 703.661 Q -75.657 703.481 -75.723 703.303 Q -75.790 703.124 -75.859 702.947 Q -75.929 702.769 -76.001 702.593 Q -76.074 702.417 -76.149 702.243 Q -76.225 702.068 -76.303 701.894 Q -76.382 701.721 -76.464 701.549 Q -76.545 701.377 -76.630 701.206 Q -76.715 701.036 -76.802 700.867 Q -76.890 700.698 -76.980 700.530 Q -77.071 700.362 -77.164 700.197 Q -77.258 700.031 -77.354 699.866 Q -77.450 699.702 -77.550 699.540 Q -77.649 699.377 -77.751 699.216 Q -77.853 699.055 -77.958 698.896 Q -78.062 698.737 -78.170 698.580 Q -78.278 698.423 -78.388 698.268 Q -78.498 698.113 -78.611 697.959 Q -78.724 697.806 -78.840 697.655 Q -78.955 697.503 -79.074 697.354 Q -79.192 697.205 -79.313 697.058 Q -79.434 696.911 -79.557 696.766 Q -79.680 696.621 -79.806 696.478 Q -79.932 696.335 -80.061 696.194 Q -80.189 696.054 -80.320 695.915 Q -80.451 695.777 -80.584 695.641 Q -80.717 695.505 -80.853 695.371 Q -80.988 695.237 -81.126 695.106 Q -81.264 694.974 -81.404 694.846 Q -81.544 694.717 -81.686 694.590 Q -81.829 694.464 -81.973 694.340 Q -82.118 694.216 -82.265 694.094 Q -82.411 693.973 -82.560 693.854 Q -82.709 693.735 -82.860 693.619 Q -83.011 693.503 -83.164 693.389 Q -83.316 693.276 -83.471 693.165 Q -83.626 693.054 -83.783 692.946 Q -83.939 692.838 -84.098 692.732 Q -84.257 692.627 -84.417 692.524 Q -84.577 692.422 -84.740 692.322 Q -84.902 692.222 -85.066 692.125 Q -85.230 692.028 -85.395 691.934 Q -85.561 691.840 -85.728 691.749 Q -85.895 691.658 -86.064 691.569 Q -86.233 691.481 -86.403 691.396 Q -86.573 691.310 -86.745 691.228 Q -86.916 691.146 -87.090 691.067 Q -87.263 690.987 -87.437 690.911 Q -87.612 690.835 -87.787 690.761 Q -87.963 690.688 -88.140 690.618 Q -88.317 690.548 -88.496 690.481 Q -88.674 690.414 -88.853 690.350 Q -89.033 690.286 -89.213 690.225 Q -89.394 690.165 -89.575 690.107 Q -89.757 690.049 -89.939 689.995 Q -90.121 689.940 -90.305 689.889 Q -90.488 689.838 -90.673 689.790 Q -90.857 689.742 -91.042 689.697 Q -91.227 689.652 -91.413 689.611 Q -91.599 689.569 -91.785 689.531 Q -91.972 689.493 -92.159 689.458 Q -92.346 689.422 -92.534 689.391 Q -92.722 689.359 -92.910 689.330 Q -93.098 689.302 -93.287 689.277 Q -93.476 689.251 -93.665 689.229 Q -93.854 689.208 -94.043 689.189 Q -94.233 689.170 -94.423 689.155 Q -94.613 689.140 -94.803 689.128 Q -94.993 689.116 -95.183 689.107 Q -95.373 689.098 -95.563 689.093 Q -95.754 689.088 -95.944 689.086 Q -96.135 689.084 -96.325 689.085 Q -96.515 689.086 -96.706 689.091 Q -96.896 689.095 -97.086 689.103 Q -97.277 689.111 -97.467 689.123 Q -97.657 689.134 -97.847 689.148 Q -98.037 689.163 -98.226 689.181 Q -98.416 689.199 -98.605 689.220 Q -98.794 689.241 -98.983 689.266 Q -99.172 689.290 -99.360 689.318 Q -99.549 689.346 -99.737 689.377 Q -99.924 689.408 -100.112 689.442 Q -100.299 689.477 -100.486 689.514 Q -100.672 689.552 -100.858 689.593 Q -101.044 689.633 -101.230 689.677 Q -101.415 689.722 -101.599 689.769 Q -101.784 689.816 -101.967 689.867 Q -102.151 689.917 -102.334 689.971 Q -102.516 690.025 -102.698 690.082 Q -102.880 690.139 -103.061 690.199 Q -103.241 690.259 -103.421 690.322 Q -103.600 690.385 -103.779 690.452 Q -103.957 690.518 -104.135 690.587 Q -104.312 690.657 -104.488 690.729 Q -104.664 690.802 -104.839 690.877 Q -105.014 690.953 -105.187 691.032 Q -105.361 691.110 -105.533 691.192 Q -105.705 691.274 -105.875 691.358 Q -106.046 691.443 -106.215 691.531 Q -106.384 691.618 -106.552 691.709 Q -106.719 691.799 -106.885 691.893 Q -107.051 691.986 -107.215 692.082 Q -107.379 692.179 -107.542 692.278 Q -107.705 692.377 -107.865 692.479 Q -108.026 692.581 -108.185 692.686 Q -108.344 692.791 -108.501 692.898 Q -108.658 693.006 -108.814 693.116 Q -108.969 693.226 -109.122 693.339 Q -109.275 693.452 -109.427 693.568 Q -109.578 693.684 -109.727 693.802 Q -109.877 693.920 -110.024 694.041 Q -110.171 694.162 -110.316 694.285 Q -110.461 694.409 -110.604 694.534 Q -110.747 694.660 -110.887 694.789 Q -111.028 694.917 -111.166 695.048 Q -111.305 695.179 -111.441 695.312 Q -111.577 695.445 -111.711 695.581 Q -111.844 695.716 -111.976 695.854 Q -112.107 695.992 -112.236 696.132 Q -112.365 696.272 -112.491 696.415 Q -112.618 696.557 -112.742 696.702 Q -112.866 696.846 -112.987 696.993 Q -113.109 697.140 -113.227 697.288 Q -113.346 697.437 -113.462 697.588 Q -113.579 697.739 -113.692 697.892 Q -113.806 698.045 -113.917 698.199 Q -114.028 698.354 -114.136 698.511 Q -114.244 698.668 -114.349 698.826 Q -114.455 698.985 -114.557 699.145 Q -114.660 699.306 -114.760 699.468 Q -114.860 699.630 -114.956 699.794 Q -115.053 699.958 -115.148 700.123 Q -115.242 700.289 -115.333 700.456 Q -115.424 700.623 -115.512 700.792 Q -115.601 700.961 -115.686 701.131 Q -115.771 701.301 -115.853 701.473 Q -115.936 701.645 -116.015 701.818 Q -116.094 701.991 -116.171 702.165 Q -116.247 702.340 -116.320 702.516 Q -116.393 702.692 -116.463 702.869 Q -116.534 703.046 -116.601 703.224 Q -116.668 703.402 -116.732 703.581 Q -116.795 703.761 -116.856 703.941 Q -116.917 704.122 -116.975 704.303 Q -117.032 704.485 -117.087 704.667 Q -117.141 704.850 -117.192 705.033 Q -117.244 705.217 -117.292 705.401 Q -117.340 705.585 -117.384 705.770 Q -117.429 705.955 -117.471 706.141 Q -117.512 706.327 -117.551 706.513 Q -117.589 706.700 -117.624 706.887 Q -117.659 707.074 -117.691 707.262 Q -117.723 707.450 -117.751 707.638 Q -117.780 707.826 -117.805 708.015 Q -117.830 708.204 -117.852 708.393 Q -117.874 708.582 -117.893 708.772 Q -117.911 708.961 -117.927 709.151 Q -117.942 709.341 -117.954 709.531 Q -117.966 709.721 -117.975 709.911 Q -117.983 710.101 -117.989 710.292 Q -117.994 710.482 -117.996 710.672 Q -117.998 710.863 -117.997 711.053 Q -117.995 711.244 -117.991 711.434 Q -117.986 711.624 -117.978 711.815 Q -117.970 712.005 -117.959 712.195 Q -117.948 712.385 -117.933 712.575 Q -117.919 712.765 -117.901 712.954 Q -117.883 713.144 -117.862 713.333 Q -117.840 713.523 -117.816 713.711 Q -117.791 713.900 -117.764 714.089 Q -117.736 714.277 -117.705 714.465 Q -117.674 714.653 -117.639 714.840 Q -117.605 715.027 -117.567 715.214 Q -117.530 715.401 -117.489 715.587 Q -117.448 715.773 -117.404 715.958 Q -117.360 716.143 -117.313 716.328 Q -117.265 716.512 -117.215 716.696 Q -117.164 716.879 -117.111 717.062 Q -117.057 717.245 -117.000 717.426 Q -116.943 717.608 -116.883 717.789 Q -116.823 717.969 -116.760 718.149 Q -116.696 718.329 -116.630 718.507 Q -116.564 718.686 -116.494 718.863 Q -116.425 719.040 -116.352 719.216 Q -116.280 719.392 -116.204 719.567 Q -116.129 719.742 -116.050 719.915 Q -115.971 720.089 -115.890 720.261 Q -115.808 720.433 -115.723 720.604 Q -115.639 720.774 -115.551 720.943 Q -115.463 721.112 -115.373 721.280 Q -115.282 721.447 -115.189 721.613 Q -115.096 721.779 -114.999 721.943 Q -114.903 722.108 -114.804 722.270 Q -114.704 722.433 -114.602 722.594 Q -114.500 722.754 -114.396 722.913 Q -114.291 723.072 -114.183 723.229 Q -114.076 723.387 -113.965 723.542 Q -113.855 723.697 -113.742 723.850 Q -113.629 724.004 -113.514 724.155 Q -113.398 724.306 -113.280 724.456 Q -113.161 724.605 -113.041 724.752 Q -112.920 724.899 -112.796 725.044 Q -112.673 725.189 -112.547 725.332 Q -112.421 725.475 -112.293 725.616 Q -112.164 725.756 -112.034 725.895 Q -111.903 726.033 -111.770 726.169 Q -111.636 726.305 -111.501 726.439 Q -111.365 726.573 -111.227 726.704 Q -111.090 726.835 -110.949 726.964 Q -110.809 727.093 -110.667 727.220 Q -110.524 727.346 -110.380 727.470 Q -110.235 727.594 -110.089 727.715 Q -109.942 727.837 -109.793 727.956 Q -109.644 728.074 -109.493 728.191 Q -109.343 728.307 -109.190 728.420 Q -109.037 728.534 -108.882 728.645 Q -108.727 728.756 -108.571 728.864 Q -108.414 728.972 -108.255 729.078 Q -108.097 729.183 -107.936 729.286 Q -107.776 729.388 -107.614 729.488 Q -107.452 729.588 -107.288 729.685 Q -107.124 729.782 -106.958 729.876 Q -106.793 729.970 -106.625 730.061 Q -106.458 730.152 -106.290 730.240 Q -106.121 730.329 -105.951 730.414 Q -105.780 730.499 -105.609 730.582 Q -105.437 730.664 -105.264 730.743 Q -105.091 730.823 -104.916 730.899 Q -104.742 730.975 -104.566 731.048 Q -104.390 731.122 -104.213 731.192 Q -104.036 731.262 -103.858 731.329 Q -103.679 731.396 -103.500 731.460 Q -103.321 731.524 -103.140 731.584 Q -102.960 731.645 -102.778 731.703 Q -102.597 731.760 -102.414 731.815 Q -102.232 731.869 -102.048 731.921 Q -101.865 731.972 -101.681 732.020 Q -101.497 732.068 -101.311 732.113 Q -101.126 732.157 -100.941 732.199 Q -100.755 732.241 -100.568 732.279 Q -100.382 732.317 -100.194 732.352 Q -100.007 732.387 -99.820 732.419 Q -99.632 732.451 -99.444 732.479 Q -99.255 732.508 -99.066 732.533 Q -98.878 732.558 -98.689 732.580 Q -98.499 732.602 -98.310 732.621 Q -98.120 732.640 -97.931 732.655 Q -97.741 732.670 -97.551 732.682 Q -97.361 732.694 -97.170 732.703 Q -96.980 732.711 -96.790 732.717 Q -96.600 732.722 -96.409 732.724 Z"></path>
    <path id="STROKE_20871689-d23d-4ef5-b975-322309c01e59" opacity="1.000" fill="none" stroke="#f9f9f1" stroke-width="0.921" stroke-opacity="1.000" stroke-linecap="round" stroke-linejoin="round" d="M -96.387 854.210 Q -96.197 854.212 -96.007 854.211 Q -95.816 854.210 -95.626 854.205 Q -95.435 854.201 -95.245 854.193 Q -95.055 854.185 -94.865 854.173 Q -94.675 854.162 -94.485 854.148 Q -94.295 854.133 -94.105 854.115 Q -93.916 854.097 -93.727 854.076 Q -93.537 854.055 -93.348 854.030 Q -93.160 854.006 -92.971 853.978 Q -92.783 853.950 -92.595 853.919 Q -92.407 853.888 -92.220 853.854 Q -92.033 853.819 -91.846 853.782 Q -91.659 853.744 -91.473 853.703 Q -91.287 853.662 -91.102 853.618 Q -90.917 853.574 -90.732 853.527 Q -90.548 853.480 -90.364 853.429 Q -90.181 853.379 -89.998 853.325 Q -89.815 853.271 -89.634 853.214 Q -89.452 853.157 -89.271 853.097 Q -89.090 853.037 -88.911 852.974 Q -88.731 852.911 -88.553 852.844 Q -88.374 852.778 -88.197 852.709 Q -88.020 852.639 -87.843 852.567 Q -87.667 852.494 -87.493 852.418 Q -87.318 852.343 -87.144 852.264 Q -86.971 852.186 -86.799 852.104 Q -86.627 852.022 -86.456 851.938 Q -86.286 851.853 -86.117 851.765 Q -85.948 851.678 -85.780 851.587 Q -85.613 851.497 -85.447 851.403 Q -85.281 851.310 -85.116 851.214 Q -84.952 851.117 -84.790 851.018 Q -84.627 850.919 -84.466 850.817 Q -84.305 850.715 -84.146 850.610 Q -83.987 850.505 -83.830 850.398 Q -83.673 850.290 -83.518 850.180 Q -83.363 850.070 -83.209 849.957 Q -83.056 849.844 -82.905 849.728 Q -82.754 849.612 -82.604 849.494 Q -82.455 849.376 -82.308 849.255 Q -82.161 849.134 -82.016 849.011 Q -81.871 848.887 -81.728 848.761 Q -81.585 848.636 -81.444 848.507 Q -81.304 848.379 -81.165 848.248 Q -81.027 848.117 -80.891 847.984 Q -80.755 847.851 -80.621 847.715 Q -80.487 847.580 -80.356 847.442 Q -80.225 847.304 -80.096 847.164 Q -79.967 847.024 -79.840 846.881 Q -79.714 846.739 -79.590 846.594 Q -79.466 846.450 -79.344 846.303 Q -79.223 846.156 -79.104 846.007 Q -78.985 845.859 -78.869 845.708 Q -78.753 845.557 -78.639 845.404 Q -78.526 845.251 -78.415 845.096 Q -78.304 844.942 -78.196 844.785 Q -78.088 844.628 -77.982 844.470 Q -77.877 844.311 -77.774 844.151 Q -77.672 843.990 -77.572 843.828 Q -77.472 843.666 -77.375 843.502 Q -77.278 843.338 -77.184 843.172 Q -77.090 843.007 -76.999 842.840 Q -76.908 842.673 -76.819 842.504 Q -76.731 842.335 -76.646 842.165 Q -76.561 841.995 -76.478 841.823 Q -76.396 841.651 -76.317 841.478 Q -76.237 841.305 -76.161 841.130 Q -76.085 840.956 -76.012 840.780 Q -75.938 840.604 -75.868 840.427 Q -75.798 840.250 -75.731 840.072 Q -75.664 839.894 -75.600 839.714 Q -75.536 839.535 -75.475 839.355 Q -75.415 839.174 -75.357 838.993 Q -75.299 838.811 -75.245 838.629 Q -75.191 838.446 -75.139 838.263 Q -75.088 838.079 -75.040 837.895 Q -74.992 837.711 -74.947 837.526 Q -74.902 837.341 -74.861 837.155 Q -74.819 836.969 -74.781 836.782 Q -74.743 836.596 -74.708 836.409 Q -74.672 836.222 -74.641 836.034 Q -74.609 835.846 -74.580 835.658 Q -74.552 835.470 -74.527 835.281 Q -74.501 835.092 -74.480 834.903 Q -74.458 834.714 -74.439 834.524 Q -74.420 834.335 -74.405 834.145 Q -74.390 833.955 -74.378 833.765 Q -74.366 833.575 -74.357 833.385 Q -74.348 833.195 -74.343 833.004 Q -74.338 832.814 -74.336 832.623 Q -74.334 832.433 -74.335 832.243 Q -74.336 832.052 -74.341 831.862 Q -74.345 831.671 -74.353 831.481 Q -74.361 831.291 -74.373 831.101 Q -74.384 830.911 -74.398 830.721 Q -74.413 830.531 -74.431 830.341 Q -74.449 830.152 -74.470 829.963 Q -74.491 829.773 -74.516 829.585 Q -74.540 829.396 -74.568 829.207 Q -74.596 829.019 -74.627 828.831 Q -74.658 828.643 -74.692 828.456 Q -74.727 828.269 -74.764 828.082 Q -74.802 827.895 -74.843 827.709 Q -74.883 827.523 -74.928 827.338 Q -74.972 827.153 -75.019 826.968 Q -75.066 826.784 -75.117 826.600 Q -75.167 826.417 -75.221 826.234 Q -75.275 826.051 -75.332 825.870 Q -75.389 825.688 -75.449 825.507 Q -75.509 825.326 -75.572 825.147 Q -75.635 824.967 -75.702 824.789 Q -75.768 824.610 -75.837 824.433 Q -75.907 824.256 -75.979 824.079 Q -76.052 823.903 -76.128 823.729 Q -76.203 823.554 -76.282 823.380 Q -76.360 823.207 -76.442 823.035 Q -76.524 822.863 -76.608 822.692 Q -76.693 822.522 -76.781 822.353 Q -76.868 822.184 -76.959 822.016 Q -77.049 821.849 -77.143 821.683 Q -77.236 821.517 -77.332 821.352 Q -77.429 821.188 -77.528 821.026 Q -77.627 820.863 -77.729 820.702 Q -77.831 820.542 -77.936 820.383 Q -78.041 820.224 -78.148 820.066 Q -78.256 819.909 -78.366 819.754 Q -78.476 819.599 -78.589 819.445 Q -78.702 819.292 -78.818 819.141 Q -78.934 818.990 -79.052 818.840 Q -79.170 818.691 -79.291 818.544 Q -79.412 818.397 -79.535 818.252 Q -79.659 818.107 -79.785 817.964 Q -79.910 817.821 -80.039 817.680 Q -80.167 817.540 -80.298 817.401 Q -80.429 817.263 -80.562 817.127 Q -80.695 816.991 -80.831 816.857 Q -80.966 816.723 -81.104 816.592 Q -81.242 816.461 -81.382 816.332 Q -81.522 816.203 -81.665 816.076 Q -81.807 815.950 -81.952 815.826 Q -82.096 815.702 -82.243 815.581 Q -82.390 815.459 -82.538 815.340 Q -82.687 815.221 -82.838 815.105 Q -82.989 814.989 -83.142 814.875 Q -83.295 814.762 -83.450 814.651 Q -83.604 814.540 -83.761 814.432 Q -83.918 814.324 -84.076 814.218 Q -84.235 814.113 -84.395 814.010 Q -84.556 813.908 -84.718 813.808 Q -84.880 813.708 -85.044 813.611 Q -85.208 813.514 -85.373 813.420 Q -85.539 813.326 -85.706 813.235 Q -85.873 813.144 -86.042 813.055 Q -86.211 812.967 -86.381 812.882 Q -86.551 812.797 -86.723 812.714 Q -86.895 812.632 -87.068 812.553 Q -87.241 812.473 -87.416 812.397 Q -87.590 812.321 -87.766 812.248 Q -87.942 812.174 -88.119 812.104 Q -88.296 812.034 -88.474 811.967 Q -88.652 811.900 -88.832 811.836 Q -89.011 811.772 -89.191 811.711 Q -89.372 811.651 -89.553 811.593 Q -89.735 811.535 -89.917 811.481 Q -90.100 811.427 -90.283 811.375 Q -90.467 811.324 -90.651 811.276 Q -90.835 811.228 -91.020 811.183 Q -91.205 811.138 -91.391 811.097 Q -91.577 811.055 -91.763 811.017 Q -91.950 810.979 -92.137 810.944 Q -92.324 810.909 -92.512 810.877 Q -92.700 810.845 -92.888 810.816 Q -93.076 810.788 -93.265 810.763 Q -93.454 810.737 -93.643 810.716 Q -93.832 810.694 -94.022 810.675 Q -94.211 810.656 -94.401 810.641 Q -94.591 810.626 -94.781 810.614 Q -94.971 810.602 -95.161 810.593 Q -95.351 810.584 -95.542 810.579 Q -95.732 810.574 -95.923 810.572 Q -96.113 810.570 -96.303 810.571 Q -96.494 810.572 -96.684 810.577 Q -96.875 810.582 -97.065 810.589 Q -97.255 810.597 -97.445 810.609 Q -97.635 810.620 -97.825 810.635 Q -98.015 810.649 -98.205 810.667 Q -98.394 810.685 -98.583 810.706 Q -98.773 810.727 -98.961 810.752 Q -99.150 810.776 -99.339 810.804 Q -99.527 810.832 -99.715 810.863 Q -99.903 810.894 -100.090 810.928 Q -100.277 810.963 -100.464 811.000 Q -100.651 811.038 -100.837 811.079 Q -101.023 811.120 -101.208 811.164 Q -101.393 811.208 -101.578 811.255 Q -101.762 811.302 -101.946 811.353 Q -102.129 811.403 -102.312 811.457 Q -102.495 811.511 -102.676 811.568 Q -102.858 811.625 -103.039 811.685 Q -103.220 811.745 -103.399 811.808 Q -103.579 811.871 -103.757 811.938 Q -103.936 812.004 -104.113 812.073 Q -104.290 812.143 -104.466 812.215 Q -104.643 812.288 -104.817 812.364 Q -104.992 812.439 -105.166 812.518 Q -105.339 812.596 -105.511 812.678 Q -105.683 812.760 -105.854 812.844 Q -106.024 812.929 -106.193 813.017 Q -106.362 813.104 -106.530 813.195 Q -106.697 813.285 -106.863 813.379 Q -107.029 813.472 -107.193 813.568 Q -107.358 813.665 -107.520 813.764 Q -107.683 813.863 -107.844 813.965 Q -108.004 814.067 -108.163 814.172 Q -108.322 814.277 -108.480 814.384 Q -108.637 814.492 -108.792 814.602 Q -108.947 814.713 -109.100 814.825 Q -109.254 814.938 -109.405 815.054 Q -109.556 815.170 -109.706 815.288 Q -109.855 815.406 -110.002 815.527 Q -110.149 815.648 -110.294 815.771 Q -110.439 815.895 -110.582 816.021 Q -110.725 816.146 -110.866 816.275 Q -111.006 816.403 -111.145 816.534 Q -111.283 816.665 -111.419 816.798 Q -111.555 816.931 -111.689 817.067 Q -111.823 817.202 -111.954 817.340 Q -112.085 817.478 -112.214 817.618 Q -112.343 817.758 -112.470 817.901 Q -112.596 818.043 -112.720 818.188 Q -112.844 818.332 -112.965 818.479 Q -113.087 818.626 -113.206 818.775 Q -113.325 818.923 -113.441 819.074 Q -113.557 819.225 -113.671 819.378 Q -113.784 819.531 -113.895 819.686 Q -114.006 819.840 -114.114 819.997 Q -114.222 820.154 -114.328 820.312 Q -114.433 820.471 -114.536 820.631 Q -114.638 820.792 -114.738 820.954 Q -114.838 821.116 -114.935 821.280 Q -115.032 821.444 -115.126 821.609 Q -115.220 821.775 -115.311 821.942 Q -115.402 822.109 -115.491 822.278 Q -115.579 822.447 -115.664 822.617 Q -115.749 822.787 -115.832 822.959 Q -115.914 823.131 -115.993 823.304 Q -116.073 823.477 -116.149 823.652 Q -116.225 823.826 -116.298 824.002 Q -116.372 824.178 -116.442 824.355 Q -116.512 824.532 -116.579 824.710 Q -116.646 824.888 -116.710 825.068 Q -116.774 825.247 -116.835 825.427 Q -116.895 825.608 -116.953 825.789 Q -117.010 825.971 -117.065 826.153 Q -117.119 826.336 -117.171 826.519 Q -117.222 826.703 -117.270 826.887 Q -117.318 827.071 -117.363 827.256 Q -117.408 827.441 -117.449 827.627 Q -117.491 827.813 -117.529 828.000 Q -117.567 828.186 -117.602 828.373 Q -117.637 828.560 -117.669 828.748 Q -117.701 828.936 -117.730 829.124 Q -117.758 829.312 -117.783 829.501 Q -117.809 829.690 -117.830 829.879 Q -117.852 830.068 -117.871 830.258 Q -117.890 830.447 -117.905 830.637 Q -117.920 830.827 -117.932 831.017 Q -117.944 831.207 -117.953 831.397 Q -117.962 831.587 -117.967 831.778 Q -117.972 831.968 -117.974 832.159 Q -117.976 832.349 -117.975 832.539 Q -117.974 832.730 -117.969 832.920 Q -117.964 833.111 -117.957 833.301 Q -117.949 833.491 -117.937 833.681 Q -117.926 833.871 -117.911 834.061 Q -117.897 834.251 -117.879 834.441 Q -117.861 834.630 -117.840 834.819 Q -117.819 835.009 -117.794 835.198 Q -117.770 835.386 -117.742 835.575 Q -117.714 835.763 -117.683 835.951 Q -117.652 836.139 -117.618 836.326 Q -117.583 836.513 -117.546 836.700 Q -117.508 836.887 -117.467 837.073 Q -117.426 837.259 -117.382 837.444 Q -117.338 837.629 -117.291 837.814 Q -117.244 837.998 -117.193 838.182 Q -117.143 838.365 -117.089 838.548 Q -117.035 838.731 -116.978 838.912 Q -116.921 839.094 -116.861 839.275 Q -116.801 839.456 -116.738 839.635 Q -116.675 839.815 -116.608 839.993 Q -116.542 840.172 -116.473 840.349 Q -116.403 840.526 -116.331 840.703 Q -116.258 840.879 -116.182 841.053 Q -116.107 841.228 -116.028 841.402 Q -115.950 841.575 -115.868 841.747 Q -115.786 841.919 -115.702 842.090 Q -115.617 842.260 -115.529 842.429 Q -115.442 842.598 -115.351 842.766 Q -115.261 842.933 -115.167 843.099 Q -115.074 843.265 -114.977 843.430 Q -114.881 843.594 -114.782 843.756 Q -114.683 843.919 -114.581 844.080 Q -114.479 844.240 -114.374 844.399 Q -114.269 844.558 -114.162 844.716 Q -114.054 844.873 -113.944 845.028 Q -113.833 845.183 -113.721 845.337 Q -113.608 845.490 -113.492 845.641 Q -113.376 845.792 -113.258 845.942 Q -113.140 846.091 -113.019 846.238 Q -112.898 846.385 -112.775 846.530 Q -112.651 846.675 -112.525 846.818 Q -112.399 846.961 -112.271 847.102 Q -112.143 847.242 -112.012 847.381 Q -111.881 847.519 -111.748 847.655 Q -111.615 847.791 -111.479 847.925 Q -111.344 848.059 -111.206 848.190 Q -111.068 848.321 -110.928 848.450 Q -110.788 848.579 -110.645 848.706 Q -110.503 848.832 -110.358 848.956 Q -110.214 849.080 -110.067 849.201 Q -109.920 849.323 -109.771 849.442 Q -109.623 849.561 -109.472 849.677 Q -109.321 849.793 -109.168 849.907 Q -109.015 850.020 -108.860 850.131 Q -108.706 850.242 -108.549 850.350 Q -108.392 850.458 -108.234 850.564 Q -108.075 850.669 -107.915 850.772 Q -107.754 850.874 -107.592 850.974 Q -107.430 851.074 -107.266 851.171 Q -107.102 851.268 -106.936 851.362 Q -106.771 851.456 -106.604 851.547 Q -106.437 851.638 -106.268 851.727 Q -106.099 851.815 -105.929 851.900 Q -105.759 851.985 -105.587 852.068 Q -105.415 852.150 -105.242 852.229 Q -105.069 852.309 -104.894 852.385 Q -104.720 852.461 -104.544 852.534 Q -104.368 852.608 -104.191 852.678 Q -104.014 852.748 -103.836 852.815 Q -103.658 852.882 -103.478 852.946 Q -103.299 853.010 -103.119 853.071 Q -102.938 853.131 -102.757 853.189 Q -102.575 853.247 -102.393 853.301 Q -102.210 853.355 -102.027 853.407 Q -101.843 853.458 -101.659 853.506 Q -101.475 853.554 -101.290 853.599 Q -101.105 853.644 -100.919 853.685 Q -100.733 853.727 -100.546 853.765 Q -100.360 853.803 -100.173 853.838 Q -99.986 853.874 -99.798 853.905 Q -99.610 853.937 -99.422 853.966 Q -99.234 853.994 -99.045 854.019 Q -98.856 854.045 -98.667 854.066 Q -98.478 854.088 -98.288 854.107 Q -98.099 854.126 -97.909 854.141 Q -97.719 854.156 -97.529 854.168 Q -97.339 854.180 -97.149 854.189 Q -96.959 854.198 -96.768 854.203 Q -96.578 854.208 -96.387 854.210 Z"></path>
    <path id="STROKE_08bb1073-7793-4e5d-bac3-1940943df7a6" opacity="1.000" fill="none" stroke="#f9f9f1" stroke-width="0.921" stroke-opacity="1.000" stroke-linecap="round" stroke-linejoin="round" d="M 38.619 673.009 Q 38.810 673.011 39.000 673.009 Q 39.191 673.008 39.381 673.003 Q 39.571 672.999 39.762 672.991 Q 39.952 672.983 40.142 672.972 Q 40.332 672.960 40.522 672.946 Q 40.712 672.931 40.901 672.913 Q 41.091 672.895 41.280 672.874 Q 41.469 672.853 41.658 672.829 Q 41.847 672.804 42.036 672.776 Q 42.224 672.749 42.412 672.717 Q 42.600 672.686 42.787 672.652 Q 42.974 672.618 43.161 672.580 Q 43.348 672.542 43.534 672.502 Q 43.720 672.461 43.905 672.417 Q 44.090 672.373 44.275 672.325 Q 44.459 672.278 44.643 672.227 Q 44.826 672.177 45.009 672.123 Q 45.192 672.069 45.373 672.012 Q 45.555 671.956 45.736 671.896 Q 45.916 671.835 46.096 671.772 Q 46.276 671.709 46.454 671.643 Q 46.633 671.576 46.810 671.507 Q 46.987 671.437 47.163 671.365 Q 47.339 671.292 47.514 671.217 Q 47.689 671.141 47.862 671.062 Q 48.036 670.984 48.208 670.902 Q 48.380 670.821 48.550 670.736 Q 48.721 670.651 48.890 670.564 Q 49.059 670.476 49.227 670.386 Q 49.394 670.295 49.560 670.202 Q 49.726 670.108 49.890 670.012 Q 50.055 669.915 50.217 669.816 Q 50.380 669.717 50.541 669.615 Q 50.701 669.513 50.860 669.408 Q 51.019 669.303 51.176 669.196 Q 51.334 669.088 51.489 668.978 Q 51.644 668.868 51.797 668.755 Q 51.951 668.642 52.102 668.526 Q 52.253 668.411 52.403 668.292 Q 52.552 668.174 52.699 668.053 Q 52.846 667.932 52.991 667.809 Q 53.136 667.686 53.279 667.560 Q 53.422 667.434 53.563 667.305 Q 53.703 667.177 53.842 667.046 Q 53.980 666.915 54.116 666.782 Q 54.252 666.649 54.386 666.513 Q 54.520 666.378 54.651 666.240 Q 54.782 666.102 54.911 665.962 Q 55.040 665.822 55.167 665.679 Q 55.293 665.537 55.417 665.393 Q 55.541 665.248 55.662 665.101 Q 55.784 664.955 55.903 664.806 Q 56.021 664.657 56.138 664.506 Q 56.254 664.355 56.367 664.202 Q 56.481 664.050 56.592 663.895 Q 56.703 663.740 56.811 663.583 Q 56.919 663.426 57.024 663.268 Q 57.130 663.109 57.232 662.949 Q 57.335 662.788 57.435 662.626 Q 57.535 662.464 57.632 662.300 Q 57.729 662.136 57.823 661.971 Q 57.917 661.805 58.008 661.638 Q 58.099 661.471 58.187 661.302 Q 58.276 661.133 58.361 660.963 Q 58.446 660.793 58.529 660.621 Q 58.611 660.449 58.690 660.276 Q 58.770 660.103 58.846 659.929 Q 58.922 659.754 58.995 659.578 Q 59.068 659.403 59.139 659.226 Q 59.209 659.049 59.276 658.870 Q 59.343 658.692 59.407 658.513 Q 59.471 658.333 59.531 658.153 Q 59.592 657.972 59.650 657.791 Q 59.707 657.609 59.762 657.427 Q 59.816 657.244 59.868 657.061 Q 59.919 656.878 59.967 656.693 Q 60.015 656.509 60.060 656.324 Q 60.104 656.139 60.146 655.953 Q 60.188 655.767 60.226 655.581 Q 60.264 655.394 60.299 655.207 Q 60.334 655.020 60.366 654.832 Q 60.398 654.644 60.426 654.456 Q 60.455 654.268 60.480 654.079 Q 60.505 653.890 60.527 653.701 Q 60.549 653.512 60.568 653.323 Q 60.586 653.133 60.602 652.943 Q 60.617 652.753 60.629 652.563 Q 60.641 652.373 60.650 652.183 Q 60.658 651.993 60.664 651.802 Q 60.669 651.612 60.671 651.422 Q 60.673 651.231 60.672 651.041 Q 60.671 650.850 60.666 650.660 Q 60.661 650.470 60.653 650.279 Q 60.645 650.089 60.634 649.899 Q 60.623 649.709 60.608 649.519 Q 60.594 649.329 60.576 649.140 Q 60.558 648.950 60.537 648.761 Q 60.516 648.572 60.491 648.383 Q 60.467 648.194 60.439 648.006 Q 60.411 647.817 60.380 647.629 Q 60.349 647.441 60.315 647.254 Q 60.280 647.067 60.243 646.880 Q 60.205 646.693 60.164 646.508 Q 60.123 646.322 60.079 646.136 Q 60.035 645.951 59.988 645.767 Q 59.941 645.582 59.890 645.398 Q 59.839 645.215 59.786 645.032 Q 59.732 644.850 59.675 644.668 Q 59.618 644.486 59.558 644.305 Q 59.498 644.125 59.435 643.945 Q 59.372 643.765 59.305 643.587 Q 59.239 643.408 59.169 643.231 Q 59.100 643.054 59.027 642.878 Q 58.955 642.702 58.879 642.527 Q 58.804 642.352 58.725 642.179 Q 58.646 642.005 58.565 641.833 Q 58.483 641.661 58.399 641.491 Q 58.314 641.320 58.226 641.151 Q 58.139 640.982 58.048 640.814 Q 57.958 640.647 57.864 640.481 Q 57.771 640.315 57.674 640.151 Q 57.578 639.987 57.479 639.824 Q 57.380 639.661 57.278 639.501 Q 57.176 639.340 57.071 639.181 Q 56.966 639.022 56.859 638.865 Q 56.751 638.708 56.641 638.552 Q 56.530 638.397 56.417 638.244 Q 56.304 638.090 56.189 637.939 Q 56.073 637.788 55.955 637.639 Q 55.837 637.489 55.716 637.342 Q 55.595 637.195 55.472 637.050 Q 55.348 636.905 55.222 636.762 Q 55.096 636.619 54.968 636.479 Q 54.840 636.338 54.709 636.200 Q 54.578 636.061 54.445 635.925 Q 54.312 635.789 54.176 635.655 Q 54.040 635.522 53.903 635.390 Q 53.765 635.259 53.625 635.130 Q 53.484 635.001 53.342 634.875 Q 53.200 634.748 53.055 634.624 Q 52.911 634.500 52.764 634.379 Q 52.617 634.257 52.468 634.139 Q 52.320 634.020 52.169 633.904 Q 52.018 633.787 51.865 633.674 Q 51.712 633.560 51.557 633.449 Q 51.402 633.338 51.246 633.230 Q 51.089 633.122 50.930 633.017 Q 50.772 632.911 50.611 632.809 Q 50.451 632.706 50.289 632.606 Q 50.127 632.506 49.963 632.409 Q 49.799 632.312 49.633 632.218 Q 49.468 632.124 49.301 632.033 Q 49.133 631.942 48.965 631.854 Q 48.796 631.765 48.626 631.680 Q 48.455 631.595 48.284 631.513 Q 48.112 631.430 47.939 631.351 Q 47.766 631.272 47.591 631.195 Q 47.417 631.119 47.241 631.046 Q 47.065 630.973 46.888 630.903 Q 46.711 630.832 46.533 630.765 Q 46.355 630.698 46.175 630.634 Q 45.996 630.570 45.815 630.510 Q 45.635 630.449 45.454 630.391 Q 45.272 630.334 45.090 630.279 Q 44.907 630.225 44.724 630.174 Q 44.540 630.122 44.356 630.074 Q 44.172 630.026 43.987 629.982 Q 43.802 629.937 43.616 629.895 Q 43.430 629.854 43.243 629.815 Q 43.057 629.777 42.870 629.742 Q 42.683 629.707 42.495 629.675 Q 42.307 629.643 42.119 629.615 Q 41.930 629.586 41.742 629.561 Q 41.553 629.536 41.364 629.514 Q 41.175 629.492 40.985 629.473 Q 40.796 629.455 40.606 629.439 Q 40.416 629.424 40.226 629.412 Q 40.036 629.400 39.846 629.391 Q 39.655 629.383 39.465 629.377 Q 39.275 629.372 39.084 629.370 Q 38.894 629.368 38.703 629.369 Q 38.513 629.371 38.323 629.375 Q 38.132 629.380 37.942 629.388 Q 37.752 629.396 37.562 629.407 Q 37.372 629.418 37.182 629.433 Q 36.992 629.447 36.802 629.465 Q 36.613 629.483 36.423 629.504 Q 36.234 629.526 36.045 629.550 Q 35.857 629.574 35.668 629.602 Q 35.480 629.630 35.292 629.661 Q 35.104 629.692 34.917 629.727 Q 34.729 629.761 34.543 629.798 Q 34.356 629.836 34.170 629.877 Q 33.984 629.918 33.799 629.962 Q 33.614 630.006 33.429 630.053 Q 33.245 630.101 33.061 630.151 Q 32.878 630.202 32.695 630.255 Q 32.512 630.309 32.330 630.366 Q 32.149 630.423 31.968 630.483 Q 31.787 630.543 31.608 630.606 Q 31.428 630.670 31.250 630.736 Q 31.071 630.802 30.894 630.872 Q 30.716 630.941 30.540 631.014 Q 30.364 631.086 30.190 631.162 Q 30.015 631.237 29.841 631.316 Q 29.668 631.395 29.496 631.476 Q 29.324 631.558 29.153 631.643 Q 28.983 631.727 28.814 631.815 Q 28.645 631.902 28.477 631.993 Q 28.309 632.084 28.144 632.177 Q 27.978 632.270 27.813 632.367 Q 27.649 632.463 27.487 632.562 Q 27.324 632.661 27.163 632.763 Q 27.002 632.865 26.843 632.970 Q 26.684 633.075 26.527 633.183 Q 26.370 633.290 26.215 633.400 Q 26.060 633.511 25.906 633.624 Q 25.753 633.737 25.602 633.852 Q 25.450 633.968 25.301 634.086 Q 25.152 634.204 25.005 634.325 Q 24.858 634.446 24.713 634.570 Q 24.568 634.693 24.425 634.819 Q 24.282 634.945 24.141 635.073 Q 24.001 635.202 23.862 635.332 Q 23.724 635.463 23.588 635.596 Q 23.452 635.730 23.318 635.865 Q 23.184 636.001 23.053 636.139 Q 22.921 636.276 22.793 636.417 Q 22.664 636.557 22.537 636.699 Q 22.411 636.841 22.287 636.986 Q 22.163 637.131 22.041 637.277 Q 21.920 637.424 21.801 637.573 Q 21.682 637.722 21.566 637.872 Q 21.450 638.023 21.336 638.176 Q 21.223 638.329 21.112 638.484 Q 21.001 638.639 20.893 638.795 Q 20.785 638.952 20.679 639.111 Q 20.574 639.269 20.471 639.430 Q 20.369 639.590 20.269 639.752 Q 20.169 639.914 20.072 640.078 Q 19.975 640.242 19.881 640.408 Q 19.787 640.573 19.696 640.740 Q 19.605 640.908 19.516 641.076 Q 19.428 641.245 19.343 641.415 Q 19.257 641.586 19.175 641.757 Q 19.093 641.929 19.014 642.102 Q 18.934 642.275 18.858 642.450 Q 18.782 642.624 18.708 642.800 Q 18.635 642.976 18.565 643.153 Q 18.495 643.330 18.428 643.508 Q 18.361 643.686 18.297 643.866 Q 18.233 644.045 18.172 644.226 Q 18.112 644.406 18.054 644.588 Q 17.996 644.769 17.942 644.952 Q 17.887 645.134 17.836 645.318 Q 17.785 645.501 17.737 645.685 Q 17.689 645.869 17.644 646.055 Q 17.599 646.240 17.558 646.425 Q 17.516 646.611 17.478 646.798 Q 17.439 646.984 17.404 647.172 Q 17.369 647.359 17.338 647.546 Q 17.306 647.734 17.277 647.922 Q 17.249 648.111 17.224 648.299 Q 17.198 648.488 17.176 648.677 Q 17.154 648.867 17.136 649.056 Q 17.117 649.246 17.102 649.435 Q 17.087 649.625 17.075 649.815 Q 17.063 650.005 17.054 650.195 Q 17.045 650.386 17.040 650.576 Q 17.035 650.766 17.033 650.957 Q 17.031 651.147 17.032 651.338 Q 17.033 651.528 17.038 651.718 Q 17.042 651.909 17.050 652.099 Q 17.058 652.289 17.070 652.479 Q 17.081 652.670 17.095 652.859 Q 17.110 653.049 17.128 653.239 Q 17.146 653.428 17.167 653.618 Q 17.188 653.807 17.213 653.996 Q 17.237 654.185 17.265 654.373 Q 17.293 654.561 17.324 654.749 Q 17.355 654.937 17.389 655.124 Q 17.423 655.312 17.461 655.498 Q 17.499 655.685 17.540 655.871 Q 17.580 656.057 17.624 656.242 Q 17.669 656.428 17.716 656.612 Q 17.763 656.796 17.814 656.980 Q 17.864 657.164 17.918 657.346 Q 17.972 657.529 18.029 657.711 Q 18.086 657.892 18.146 658.073 Q 18.206 658.254 18.269 658.433 Q 18.332 658.613 18.399 658.792 Q 18.465 658.970 18.534 659.147 Q 18.604 659.325 18.676 659.501 Q 18.749 659.677 18.824 659.852 Q 18.900 660.026 18.979 660.200 Q 19.057 660.373 19.139 660.545 Q 19.221 660.717 19.305 660.888 Q 19.390 661.058 19.477 661.228 Q 19.565 661.397 19.656 661.564 Q 19.746 661.732 19.840 661.898 Q 19.933 662.064 20.029 662.228 Q 20.126 662.392 20.225 662.555 Q 20.324 662.717 20.426 662.878 Q 20.528 663.039 20.633 663.198 Q 20.738 663.357 20.845 663.514 Q 20.953 663.671 21.063 663.826 Q 21.173 663.982 21.286 664.135 Q 21.399 664.288 21.515 664.439 Q 21.631 664.591 21.749 664.740 Q 21.867 664.889 21.988 665.036 Q 22.109 665.184 22.232 665.329 Q 22.356 665.474 22.481 665.616 Q 22.607 665.759 22.736 665.900 Q 22.864 666.041 22.995 666.179 Q 23.126 666.317 23.259 666.453 Q 23.392 666.590 23.528 666.723 Q 23.663 666.857 23.801 666.988 Q 23.939 667.120 24.079 667.249 Q 24.219 667.378 24.362 667.504 Q 24.504 667.630 24.649 667.754 Q 24.793 667.878 24.940 668.000 Q 25.087 668.121 25.235 668.240 Q 25.384 668.359 25.535 668.475 Q 25.686 668.591 25.839 668.705 Q 25.992 668.818 26.146 668.929 Q 26.301 669.040 26.458 669.148 Q 26.615 669.256 26.773 669.362 Q 26.932 669.467 27.092 669.570 Q 27.253 669.673 27.415 669.772 Q 27.577 669.872 27.741 669.969 Q 27.905 670.066 28.070 670.160 Q 28.236 670.254 28.403 670.345 Q 28.570 670.437 28.739 670.525 Q 28.908 670.613 29.078 670.698 Q 29.248 670.784 29.420 670.866 Q 29.592 670.948 29.765 671.028 Q 29.938 671.107 30.112 671.183 Q 30.287 671.259 30.463 671.333 Q 30.638 671.406 30.816 671.476 Q 30.993 671.546 31.171 671.613 Q 31.349 671.680 31.528 671.744 Q 31.708 671.808 31.888 671.869 Q 32.069 671.930 32.250 671.987 Q 32.432 672.045 32.614 672.099 Q 32.797 672.154 32.980 672.205 Q 33.163 672.256 33.348 672.304 Q 33.532 672.352 33.717 672.397 Q 33.902 672.442 34.088 672.483 Q 34.274 672.525 34.460 672.563 Q 34.647 672.602 34.834 672.637 Q 35.021 672.672 35.209 672.704 Q 35.397 672.735 35.585 672.764 Q 35.773 672.792 35.962 672.818 Q 36.151 672.843 36.340 672.865 Q 36.529 672.887 36.719 672.905 Q 36.908 672.924 37.098 672.939 Q 37.288 672.954 37.478 672.966 Q 37.668 672.979 37.858 672.987 Q 38.048 672.996 38.239 673.001 Q 38.429 673.007 38.619 673.009 Z"></path>
    <path id="STROKE_a45d5d5c-741f-4d37-b4c4-2619bd6b334d" opacity="1.000" fill="none" stroke="#f9f9f1" stroke-width="0.921" stroke-opacity="1.000" stroke-linecap="round" stroke-linejoin="round" d="M 38.641 794.495 Q 38.832 794.497 39.022 794.495 Q 39.212 794.494 39.403 794.490 Q 39.593 794.485 39.783 794.477 Q 39.974 794.469 40.164 794.458 Q 40.354 794.447 40.544 794.432 Q 40.734 794.417 40.923 794.399 Q 41.113 794.382 41.302 794.360 Q 41.491 794.339 41.680 794.315 Q 41.869 794.290 42.057 794.262 Q 42.246 794.235 42.434 794.204 Q 42.621 794.172 42.809 794.138 Q 42.996 794.104 43.183 794.066 Q 43.369 794.029 43.555 793.988 Q 43.741 793.947 43.927 793.903 Q 44.112 793.859 44.296 793.811 Q 44.481 793.764 44.664 793.714 Q 44.848 793.663 45.031 793.609 Q 45.213 793.556 45.395 793.499 Q 45.577 793.442 45.757 793.382 Q 45.938 793.322 46.118 793.258 Q 46.297 793.195 46.476 793.129 Q 46.654 793.062 46.832 792.993 Q 47.009 792.924 47.185 792.851 Q 47.361 792.779 47.536 792.703 Q 47.711 792.627 47.884 792.549 Q 48.058 792.470 48.230 792.388 Q 48.402 792.307 48.572 792.222 Q 48.743 792.137 48.912 792.050 Q 49.081 791.962 49.248 791.872 Q 49.416 791.781 49.582 791.688 Q 49.748 791.594 49.912 791.498 Q 50.076 791.402 50.239 791.302 Q 50.401 791.203 50.562 791.101 Q 50.723 790.999 50.882 790.894 Q 51.041 790.790 51.198 790.682 Q 51.355 790.575 51.511 790.464 Q 51.666 790.354 51.819 790.241 Q 51.972 790.128 52.124 790.012 Q 52.275 789.897 52.424 789.778 Q 52.574 789.660 52.721 789.539 Q 52.868 789.419 53.013 789.295 Q 53.158 789.172 53.301 789.046 Q 53.444 788.920 53.584 788.792 Q 53.725 788.663 53.863 788.532 Q 54.002 788.402 54.138 788.268 Q 54.274 788.135 54.408 788.000 Q 54.541 787.864 54.673 787.726 Q 54.804 787.588 54.933 787.448 Q 55.062 787.308 55.188 787.166 Q 55.315 787.023 55.439 786.879 Q 55.563 786.734 55.684 786.587 Q 55.805 786.441 55.924 786.292 Q 56.043 786.143 56.159 785.992 Q 56.276 785.841 56.389 785.689 Q 56.503 785.536 56.614 785.381 Q 56.724 785.226 56.833 785.069 Q 56.941 784.913 57.046 784.754 Q 57.152 784.595 57.254 784.435 Q 57.357 784.275 57.457 784.112 Q 57.556 783.950 57.653 783.786 Q 57.750 783.622 57.844 783.457 Q 57.939 783.291 58.030 783.124 Q 58.121 782.957 58.209 782.788 Q 58.297 782.620 58.383 782.449 Q 58.468 782.279 58.550 782.107 Q 58.633 781.936 58.712 781.762 Q 58.791 781.589 58.868 781.415 Q 58.944 781.240 59.017 781.065 Q 59.090 780.889 59.160 780.712 Q 59.230 780.535 59.297 780.356 Q 59.365 780.178 59.428 779.999 Q 59.492 779.820 59.553 779.639 Q 59.614 779.459 59.672 779.277 Q 59.729 779.096 59.784 778.913 Q 59.838 778.731 59.889 778.547 Q 59.940 778.364 59.988 778.180 Q 60.037 777.995 60.081 777.810 Q 60.126 777.625 60.168 777.439 Q 60.209 777.253 60.248 777.067 Q 60.286 776.880 60.321 776.693 Q 60.356 776.506 60.388 776.318 Q 60.420 776.131 60.448 775.942 Q 60.477 775.754 60.502 775.565 Q 60.527 775.377 60.549 775.187 Q 60.571 774.998 60.590 774.809 Q 60.608 774.619 60.623 774.429 Q 60.639 774.240 60.651 774.049 Q 60.663 773.859 60.671 773.669 Q 60.680 773.479 60.685 773.289 Q 60.691 773.098 60.693 772.908 Q 60.695 772.717 60.694 772.527 Q 60.692 772.337 60.688 772.146 Q 60.683 771.956 60.675 771.766 Q 60.667 771.575 60.656 771.385 Q 60.645 771.195 60.630 771.005 Q 60.616 770.815 60.598 770.626 Q 60.580 770.436 60.559 770.247 Q 60.537 770.058 60.513 769.869 Q 60.488 769.680 60.461 769.492 Q 60.433 769.303 60.402 769.115 Q 60.371 768.928 60.336 768.740 Q 60.302 768.553 60.264 768.366 Q 60.227 768.180 60.186 767.994 Q 60.145 767.808 60.101 767.622 Q 60.057 767.437 60.010 767.253 Q 59.962 767.068 59.912 766.885 Q 59.861 766.701 59.807 766.518 Q 59.754 766.336 59.697 766.154 Q 59.640 765.972 59.580 765.792 Q 59.520 765.611 59.456 765.431 Q 59.393 765.252 59.327 765.073 Q 59.261 764.895 59.191 764.717 Q 59.122 764.540 59.049 764.364 Q 58.977 764.188 58.901 764.013 Q 58.825 763.838 58.747 763.665 Q 58.668 763.491 58.587 763.319 Q 58.505 763.147 58.420 762.977 Q 58.336 762.806 58.248 762.637 Q 58.160 762.468 58.070 762.301 Q 57.979 762.133 57.886 761.967 Q 57.792 761.801 57.696 761.637 Q 57.600 761.473 57.501 761.310 Q 57.401 761.148 57.299 760.987 Q 57.197 760.826 57.093 760.667 Q 56.988 760.508 56.880 760.351 Q 56.773 760.194 56.662 760.038 Q 56.552 759.883 56.439 759.730 Q 56.326 759.577 56.211 759.425 Q 56.095 759.274 55.977 759.125 Q 55.858 758.975 55.738 758.828 Q 55.617 758.681 55.493 758.536 Q 55.370 758.391 55.244 758.248 Q 55.118 758.105 54.990 757.965 Q 54.861 757.824 54.731 757.686 Q 54.600 757.547 54.467 757.411 Q 54.333 757.275 54.198 757.141 Q 54.062 757.008 53.924 756.876 Q 53.786 756.745 53.646 756.616 Q 53.506 756.487 53.364 756.361 Q 53.221 756.234 53.077 756.110 Q 52.932 755.986 52.786 755.865 Q 52.639 755.744 52.490 755.625 Q 52.341 755.506 52.190 755.390 Q 52.040 755.273 51.887 755.160 Q 51.734 755.046 51.579 754.935 Q 51.424 754.825 51.267 754.716 Q 51.111 754.608 50.952 754.503 Q 50.794 754.397 50.633 754.295 Q 50.473 754.192 50.311 754.092 Q 50.148 753.993 49.985 753.896 Q 49.821 753.799 49.655 753.705 Q 49.490 753.610 49.322 753.519 Q 49.155 753.428 48.986 753.340 Q 48.818 753.252 48.647 753.166 Q 48.477 753.081 48.305 752.999 Q 48.134 752.916 47.961 752.837 Q 47.788 752.758 47.613 752.682 Q 47.439 752.605 47.263 752.532 Q 47.087 752.459 46.910 752.389 Q 46.733 752.319 46.555 752.251 Q 46.376 752.184 46.197 752.121 Q 46.018 752.057 45.837 751.996 Q 45.657 751.935 45.475 751.878 Q 45.294 751.820 45.111 751.765 Q 44.929 751.711 44.745 751.660 Q 44.562 751.609 44.378 751.560 Q 44.193 751.512 44.008 751.468 Q 43.823 751.423 43.637 751.381 Q 43.452 751.340 43.265 751.301 Q 43.079 751.263 42.891 751.228 Q 42.704 751.193 42.516 751.161 Q 42.329 751.129 42.140 751.101 Q 41.952 751.072 41.763 751.047 Q 41.575 751.022 41.385 751.000 Q 41.196 750.978 41.007 750.959 Q 40.817 750.941 40.628 750.926 Q 40.438 750.910 40.248 750.898 Q 40.058 750.886 39.867 750.878 Q 39.677 750.869 39.487 750.864 Q 39.296 750.858 39.106 750.856 Q 38.916 750.854 38.725 750.855 Q 38.535 750.857 38.344 750.861 Q 38.154 750.866 37.964 750.874 Q 37.774 750.882 37.583 750.893 Q 37.393 750.904 37.203 750.919 Q 37.014 750.933 36.824 750.951 Q 36.634 750.969 36.445 750.990 Q 36.256 751.012 36.067 751.036 Q 35.878 751.061 35.690 751.088 Q 35.501 751.116 35.314 751.147 Q 35.126 751.178 34.938 751.213 Q 34.751 751.247 34.564 751.285 Q 34.378 751.322 34.192 751.363 Q 34.006 751.404 33.821 751.448 Q 33.635 751.492 33.451 751.539 Q 33.266 751.587 33.083 751.637 Q 32.899 751.688 32.717 751.742 Q 32.534 751.795 32.352 751.852 Q 32.170 751.909 31.990 751.969 Q 31.809 752.029 31.629 752.093 Q 31.450 752.156 31.271 752.222 Q 31.093 752.288 30.915 752.358 Q 30.738 752.427 30.562 752.500 Q 30.386 752.572 30.211 752.648 Q 30.036 752.724 29.863 752.802 Q 29.690 752.881 29.518 752.963 Q 29.346 753.044 29.175 753.129 Q 29.004 753.213 28.835 753.301 Q 28.666 753.389 28.499 753.479 Q 28.331 753.570 28.165 753.663 Q 27.999 753.757 27.835 753.853 Q 27.671 753.949 27.508 754.048 Q 27.346 754.148 27.185 754.250 Q 27.024 754.352 26.865 754.456 Q 26.706 754.561 26.549 754.669 Q 26.392 754.776 26.237 754.887 Q 26.081 754.997 25.928 755.110 Q 25.775 755.223 25.623 755.339 Q 25.472 755.454 25.323 755.572 Q 25.174 755.691 25.026 755.811 Q 24.879 755.932 24.734 756.056 Q 24.589 756.179 24.446 756.305 Q 24.304 756.431 24.163 756.559 Q 24.022 756.688 23.884 756.818 Q 23.745 756.949 23.609 757.083 Q 23.473 757.216 23.340 757.351 Q 23.206 757.487 23.074 757.625 Q 22.943 757.763 22.814 757.903 Q 22.685 758.043 22.559 758.185 Q 22.432 758.328 22.308 758.472 Q 22.185 758.617 22.063 758.763 Q 21.942 758.910 21.823 759.059 Q 21.704 759.208 21.588 759.359 Q 21.472 759.509 21.358 759.662 Q 21.244 759.815 21.134 759.970 Q 21.023 760.125 20.915 760.281 Q 20.806 760.438 20.701 760.597 Q 20.596 760.755 20.493 760.916 Q 20.390 761.076 20.291 761.238 Q 20.191 761.401 20.094 761.564 Q 19.997 761.728 19.903 761.894 Q 19.809 762.059 19.717 762.227 Q 19.626 762.394 19.538 762.563 Q 19.450 762.731 19.364 762.902 Q 19.279 763.072 19.197 763.244 Q 19.115 763.415 19.035 763.588 Q 18.956 763.761 18.880 763.936 Q 18.803 764.110 18.730 764.286 Q 18.657 764.462 18.587 764.639 Q 18.517 764.816 18.450 764.994 Q 18.383 765.173 18.319 765.352 Q 18.255 765.531 18.194 765.712 Q 18.133 765.892 18.076 766.074 Q 18.018 766.255 17.964 766.438 Q 17.909 766.620 17.858 766.804 Q 17.807 766.987 17.759 767.171 Q 17.711 767.356 17.666 767.541 Q 17.621 767.726 17.579 767.912 Q 17.538 768.097 17.500 768.284 Q 17.461 768.470 17.426 768.658 Q 17.391 768.845 17.359 769.033 Q 17.327 769.220 17.299 769.409 Q 17.270 769.597 17.245 769.786 Q 17.220 769.974 17.198 770.164 Q 17.176 770.353 17.158 770.542 Q 17.139 770.732 17.124 770.922 Q 17.108 771.111 17.096 771.301 Q 17.084 771.491 17.076 771.682 Q 17.067 771.872 17.062 772.062 Q 17.056 772.253 17.054 772.443 Q 17.052 772.633 17.054 772.824 Q 17.055 773.014 17.059 773.205 Q 17.064 773.395 17.072 773.585 Q 17.080 773.776 17.091 773.966 Q 17.102 774.156 17.117 774.346 Q 17.132 774.535 17.150 774.725 Q 17.167 774.915 17.189 775.104 Q 17.210 775.293 17.234 775.482 Q 17.259 775.671 17.287 775.859 Q 17.314 776.047 17.345 776.235 Q 17.376 776.423 17.411 776.611 Q 17.445 776.798 17.483 776.984 Q 17.520 777.171 17.561 777.357 Q 17.602 777.543 17.646 777.728 Q 17.690 777.914 17.738 778.098 Q 17.785 778.283 17.835 778.466 Q 17.886 778.650 17.940 778.832 Q 17.993 779.015 18.050 779.197 Q 18.107 779.379 18.167 779.559 Q 18.227 779.740 18.291 779.920 Q 18.354 780.099 18.420 780.278 Q 18.487 780.456 18.556 780.634 Q 18.625 780.811 18.698 780.987 Q 18.771 781.163 18.846 781.338 Q 18.922 781.513 19.000 781.686 Q 19.079 781.859 19.161 782.031 Q 19.242 782.203 19.327 782.374 Q 19.412 782.545 19.499 782.714 Q 19.587 782.883 19.677 783.050 Q 19.768 783.218 19.861 783.384 Q 19.955 783.550 20.051 783.714 Q 20.147 783.878 20.247 784.041 Q 20.346 784.203 20.448 784.364 Q 20.550 784.525 20.655 784.684 Q 20.759 784.843 20.867 785.000 Q 20.974 785.157 21.085 785.312 Q 21.195 785.468 21.308 785.621 Q 21.421 785.774 21.537 785.926 Q 21.652 786.077 21.771 786.226 Q 21.889 786.375 22.010 786.523 Q 22.130 786.670 22.254 786.815 Q 22.377 786.960 22.503 787.103 Q 22.629 787.245 22.757 787.386 Q 22.886 787.527 23.017 787.665 Q 23.147 787.804 23.281 787.940 Q 23.414 788.076 23.549 788.209 Q 23.685 788.343 23.823 788.474 Q 23.961 788.606 24.101 788.735 Q 24.241 788.864 24.383 788.990 Q 24.526 789.117 24.670 789.241 Q 24.815 789.365 24.962 789.486 Q 25.108 789.607 25.257 789.726 Q 25.406 789.845 25.557 789.961 Q 25.708 790.077 25.860 790.191 Q 26.013 790.305 26.168 790.415 Q 26.323 790.526 26.480 790.634 Q 26.636 790.743 26.795 790.848 Q 26.954 790.953 27.114 791.056 Q 27.274 791.159 27.437 791.258 Q 27.599 791.358 27.763 791.455 Q 27.927 791.552 28.092 791.646 Q 28.258 791.740 28.425 791.832 Q 28.592 791.923 28.761 792.011 Q 28.929 792.099 29.100 792.185 Q 29.270 792.270 29.442 792.352 Q 29.613 792.435 29.787 792.514 Q 29.960 792.593 30.134 792.669 Q 30.309 792.746 30.484 792.819 Q 30.660 792.892 30.837 792.962 Q 31.014 793.032 31.193 793.099 Q 31.371 793.166 31.550 793.230 Q 31.729 793.294 31.910 793.355 Q 32.090 793.416 32.272 793.473 Q 32.453 793.531 32.636 793.585 Q 32.818 793.640 33.002 793.691 Q 33.185 793.742 33.369 793.790 Q 33.554 793.838 33.739 793.883 Q 33.924 793.928 34.110 793.970 Q 34.296 794.011 34.482 794.049 Q 34.669 794.088 34.856 794.123 Q 35.043 794.158 35.231 794.190 Q 35.418 794.221 35.607 794.250 Q 35.795 794.279 35.984 794.304 Q 36.172 794.329 36.362 794.351 Q 36.551 794.373 36.740 794.391 Q 36.930 794.410 37.120 794.425 Q 37.309 794.441 37.500 794.453 Q 37.690 794.465 37.880 794.473 Q 38.070 794.482 38.260 794.487 Q 38.451 794.493 38.641 794.495 Z"></path>
    <path id="STROKE_4eb6c338-fe67-42fa-8aba-24841ed5e982" opacity="1.000" fill="none" stroke="#f9f9f1" stroke-width="0.921" stroke-opacity="1.000" stroke-linecap="round" stroke-linejoin="round" d="M -71.388 605.196 L 18.193 637.818 "></path>
    <path id="STROKE_ff03eefe-258e-4f3f-a161-405739914d50" opacity="1.000" fill="none" stroke="#f9f9f1" stroke-width="0.921" stroke-opacity="1.000" stroke-linecap="round" stroke-linejoin="round" d="M -71.580 704.782 L 16.609 663.647 "></path>
    <path id="STROKE_9fa67b21-be7c-462e-8984-b2ccfe092d89" opacity="1.000" fill="none" stroke="#f9f9f1" stroke-width="0.921" stroke-opacity="1.000" stroke-linecap="round" stroke-linejoin="round" d="M -74.553 721.145 L 16.416 763.521 "></path>
    <path id="STROKE_e117f95c-b0e4-4207-ada0-fad0b1c98740" opacity="1.000" fill="none" stroke="#f9f9f1" stroke-width="0.921" stroke-opacity="1.000" stroke-linecap="round" stroke-linejoin="round" d="M -77.805 816.409 L 23.244 671.077 "></path>
    <path id="STROKE_263747b6-1df1-437f-9948-5ca3053768a6" opacity="1.000" fill="none" stroke="#f9f9f1" stroke-width="0.921" stroke-opacity="1.000" stroke-linecap="round" stroke-linejoin="round" d="M -80.877 618.349 L 23.860 749.596 "></path>
    <path id="STROKE_83c15f03-f61d-464a-b927-4b361e1fcb0b" opacity="1.000" fill="none" stroke="#f9f9f1" stroke-width="0.921" stroke-opacity="1.000" stroke-linecap="round" stroke-linejoin="round" d="M -73.862 827.287 L 17.399 784.239 "></path>
    <circle id="STROKE_40d2d530-438e-43e3-84d7-03fe4750e250" opacity="1.000" fill="#71c047" stroke="#71c047" stroke-width="0.1" stroke-opacity="1.000" fill-opacity="1.000" cx="-156.464" cy="572.269" r="0.498"></circle>
    <path id="STROKE_e5745349-f2c4-4a59-9d2c-09020b399865" opacity="1.000" fill="none" stroke="#71c047" stroke-width="0.995" stroke-opacity="1.000" stroke-linecap="round" stroke-linejoin="round" d="M -157.019 573.269 Q -156.625 573.059 -156.122 572.384 Q -155.618 571.708 -155.410 571.237 Q -155.201 570.766 -155.050 570.081 Q -154.899 569.395 -151.464 561.047 Q -151.400 561.045 -151.566 563.829 Q -151.732 566.613 -151.628 568.355 Q -151.523 570.097 -151.392 571.079 Q -151.260 572.061 -150.880 572.421 Q -150.499 572.780 -150.075 572.791 Q -149.651 572.802 -149.413 572.524 Q -149.176 572.245 -148.876 571.938 Q -148.576 571.631 -146.804 568.442 Q -145.031 565.253 -143.130 558.047 Q -143.104 558.486 -143.182 560.775 Q -143.260 563.065 -143.348 564.833 Q -143.435 566.600 -143.195 568.054 Q -142.954 569.508 -142.811 570.071 Q -142.667 570.633 -142.462 571.065 Q -142.256 571.496 -141.974 571.858 Q -141.692 572.220 -140.353 571.713 "></path>
    <path id="STROKE_3986dda6-2394-4553-81e4-0c0404518bb2" opacity="1.000" fill="none" stroke="#71c047" stroke-width="0.995" stroke-opacity="1.000" stroke-linecap="round" stroke-linejoin="round" d="M -136.464 557.602 Q -135.871 557.610 -136.339 560.888 Q -136.808 564.166 -137.039 566.276 Q -137.271 568.386 -137.237 569.511 Q -137.203 570.636 -137.001 571.091 Q -136.798 571.547 -136.396 571.791 Q -135.995 572.035 -135.379 571.879 Q -134.764 571.723 -130.575 567.824 "></path>
    <path id="STROKE_45d2c856-fd64-4f62-a2f7-8df1e317c000" opacity="1.000" fill="none" stroke="#71c047" stroke-width="0.995" stroke-opacity="1.000" stroke-linecap="round" stroke-linejoin="round" d="M -126.797 555.713 Q -127.135 555.969 -125.464 568.602 Q -125.515 568.706 -126.103 566.972 Q -126.691 565.239 -127.188 564.140 Q -127.685 563.041 -127.783 561.115 Q -127.881 559.189 -128.032 558.177 Q -128.184 557.165 -127.998 556.370 Q -127.811 555.575 -127.645 554.877 Q -127.480 554.179 -126.811 553.792 Q -126.142 553.405 -125.584 553.346 Q -125.025 553.288 -123.752 553.667 Q -122.479 554.046 -121.700 554.473 Q -120.921 554.901 -120.719 555.328 Q -120.518 555.755 -120.405 556.408 Q -120.293 557.061 -120.903 558.073 Q -121.514 559.086 -121.853 559.753 Q -122.193 560.420 -123.686 561.158 Q -123.617 561.080 -123.242 560.935 "></path>
    <path id="STROKE_67d992bf-cdaf-4507-bf14-c88175e2b10e" opacity="1.000" fill="none" stroke="#71c047" stroke-width="0.995" stroke-opacity="1.000" stroke-linecap="round" stroke-linejoin="round" d="M -108.797 549.935 Q -109.084 549.057 -109.302 548.635 Q -109.520 548.212 -109.856 548.172 Q -110.193 548.131 -111.128 549.050 Q -112.063 549.969 -112.698 552.235 Q -113.333 554.501 -113.276 557.872 Q -113.218 561.243 -112.960 563.940 Q -112.702 566.637 -109.464 573.269 Q -109.394 573.199 -109.353 573.158 "></path>
    <path id="STROKE_0df53bb2-16f8-4d66-89d3-91740d5897af" opacity="1.000" fill="none" stroke="#71c047" stroke-width="0.995" stroke-opacity="1.000" stroke-linecap="round" stroke-linejoin="round" d="M -104.242 561.380 Q -104.399 561.395 -103.994 561.485 Q -103.588 561.576 -102.677 560.832 Q -101.767 560.088 -100.932 558.432 Q -100.096 556.777 -99.730 555.440 Q -99.363 554.103 -99.408 552.991 Q -100.234 552.713 -99.891 556.478 Q -99.548 560.242 -99.215 562.512 Q -98.883 564.781 -98.341 566.485 Q -97.800 568.189 -97.130 570.602 "></path>
    <path id="STROKE_7a228907-4795-4880-9c85-6e7e5dabb237" opacity="1.000" fill="none" stroke="#71c047" stroke-width="0.995" stroke-opacity="1.000" stroke-linecap="round" stroke-linejoin="round" d="M -106.242 564.713 Q -106.201 564.964 -104.489 564.491 Q -102.777 564.019 -101.738 563.643 Q -100.700 563.267 -99.982 562.743 Q -99.263 562.218 -97.130 562.269 "></path>
    <path id="STROKE_573b1bea-779f-4c5c-a040-22fe842a610e" opacity="1.000" fill="none" stroke="#71c047" stroke-width="0.995" stroke-opacity="1.000" stroke-linecap="round" stroke-linejoin="round" d="M -91.575 564.713 Q -91.471 565.013 -88.797 562.269 Q -88.727 561.804 -88.471 563.157 Q -88.215 564.510 -88.055 565.357 Q -87.895 566.204 -87.629 566.542 Q -87.363 566.880 -87.019 567.047 "></path>
    <path id="STROKE_e64b62a9-e87c-430e-8ba4-ab614ef1f75e" opacity="1.000" fill="none" stroke="#71c047" stroke-width="0.995" stroke-opacity="1.000" stroke-linecap="round" stroke-linejoin="round" d="M -82.908 550.491 Q -82.587 551.255 -81.586 552.934 Q -80.585 554.613 -79.864 556.903 Q -79.143 559.194 -78.790 560.936 Q -78.436 562.678 -78.606 564.305 Q -78.775 565.933 -79.103 567.630 Q -79.431 569.328 -79.908 570.935 "></path>
    <path id="STROKE_6997d6ee-35bb-44cf-bc9d-0027475e7019" opacity="1.000" fill="none" stroke="#71c047" stroke-width="0.995" stroke-opacity="1.000" stroke-linecap="round" stroke-linejoin="round" d="M -149.019 686.713 Q -148.981 685.984 -147.993 684.226 Q -147.005 682.469 -145.884 680.485 Q -144.763 678.502 -144.268 677.026 Q -143.774 675.550 -142.408 673.435 Q -142.839 673.696 -142.717 675.082 Q -142.595 676.468 -142.680 677.812 Q -142.764 679.157 -142.705 680.812 Q -142.645 682.468 -142.470 683.604 Q -142.294 684.739 -142.062 685.379 Q -141.829 686.019 -141.555 686.244 Q -141.281 686.470 -140.664 686.198 Q -140.046 685.927 -139.905 685.461 Q -139.764 684.995 -139.125 683.148 Q -138.487 681.301 -137.945 678.964 Q -137.403 676.627 -136.464 672.602 Q -136.454 672.722 -136.395 675.864 Q -136.336 679.005 -136.287 680.766 Q -136.238 682.526 -136.150 683.457 Q -136.062 684.387 -135.647 685.087 Q -135.232 685.787 -133.797 685.824 "></path>
    <path id="STROKE_2ba1751b-88f0-4890-9f35-d306ca9f48b8" opacity="1.000" fill="none" stroke="#71c047" stroke-width="0.995" stroke-opacity="1.000" stroke-linecap="round" stroke-linejoin="round" d="M -128.242 673.269 Q -128.390 673.490 -128.558 674.123 Q -128.726 674.757 -129.268 676.394 Q -129.810 678.031 -130.351 679.406 Q -130.893 680.780 -131.103 681.969 Q -131.313 683.157 -131.089 683.903 Q -130.865 684.648 -130.721 685.015 Q -130.577 685.382 -129.799 685.411 Q -129.022 685.440 -128.091 685.042 Q -127.161 684.643 -126.522 684.305 Q -125.883 683.968 -125.483 683.597 Q -125.084 683.226 -124.686 683.158 "></path>
    <path id="STROKE_9c710114-df8f-4073-b392-f5a6ea0a5e90" opacity="1.000" fill="none" stroke="#71c047" stroke-width="0.995" stroke-opacity="1.000" stroke-linecap="round" stroke-linejoin="round" d="M -120.353 671.491 Q -120.750 671.734 -120.435 674.930 Q -120.121 678.126 -118.575 682.158 Q -118.688 681.937 -119.201 679.499 Q -119.713 677.061 -119.942 675.397 Q -120.170 673.733 -120.147 672.891 Q -120.123 672.048 -120.082 671.565 Q -120.040 671.082 -119.120 670.294 Q -118.201 669.506 -117.598 668.959 Q -116.995 668.411 -116.211 668.358 Q -115.428 668.304 -114.816 668.530 Q -114.204 668.755 -114.045 669.452 Q -113.886 670.148 -113.912 670.293 Q -113.939 670.437 -114.002 670.998 Q -114.065 671.559 -114.715 672.649 Q -115.366 673.738 -116.021 674.587 Q -116.676 675.435 -118.019 675.380 "></path>
    <path id="STROKE_32191252-d8b6-41d6-8d0e-59b8979aa48a" opacity="1.000" fill="none" stroke="#71c047" stroke-width="0.995" stroke-opacity="1.000" stroke-linecap="round" stroke-linejoin="round" d="M -104.464 664.047 Q -104.716 663.833 -105.656 665.165 Q -106.597 666.497 -106.916 667.292 Q -107.235 668.088 -107.804 670.215 Q -108.373 672.342 -108.371 674.793 Q -108.369 677.244 -108.135 678.586 Q -107.901 679.927 -107.781 681.026 Q -107.661 682.125 -107.144 683.420 Q -106.626 684.714 -106.237 685.411 Q -105.847 686.109 -105.287 686.579 Q -104.726 687.049 -103.741 687.213 Q -103.630 687.047 -103.464 686.380 "></path>
    <path id="STROKE_84d92bea-d472-48e1-8015-f6e95a562798" opacity="1.000" fill="none" stroke="#71c047" stroke-width="0.995" stroke-opacity="1.000" stroke-linecap="round" stroke-linejoin="round" d="M -101.130 674.491 Q -100.983 674.469 -99.658 673.193 Q -98.333 671.917 -97.315 670.570 Q -96.298 669.222 -96.464 666.602 Q -97.223 666.576 -97.224 669.503 Q -97.226 672.430 -97.197 674.258 Q -97.168 676.086 -96.833 677.727 Q -96.497 679.367 -95.857 681.004 Q -95.217 682.642 -94.768 683.569 Q -94.318 684.495 -93.241 685.047 Q -93.229 684.701 -93.353 684.491 "></path>
    <path id="STROKE_586420ac-8fea-4914-b571-3da0b35f6055" opacity="1.000" fill="none" stroke="#71c047" stroke-width="0.995" stroke-opacity="1.000" stroke-linecap="round" stroke-linejoin="round" d="M -100.575 679.380 Q -100.849 679.026 -98.912 678.376 Q -96.975 677.727 -91.464 675.158 "></path>
    <path id="STROKE_b34da487-7a21-4b64-998f-90afe8c18b8d" opacity="1.000" fill="none" stroke="#71c047" stroke-width="0.995" stroke-opacity="1.000" stroke-linecap="round" stroke-linejoin="round" d="M -87.464 676.491 Q -87.551 676.376 -86.960 675.983 Q -86.369 675.591 -85.929 675.335 Q -85.489 675.080 -85.236 675.215 Q -84.984 675.350 -84.695 675.436 Q -84.406 675.521 -84.049 676.460 Q -83.692 677.399 -86.464 681.602 Q -86.466 681.882 -85.431 681.334 Q -84.395 680.786 -82.241 681.158 "></path>
    <path id="STROKE_263af3a4-2111-4278-a0e8-a721968b73a1" opacity="1.000" fill="none" stroke="#71c047" stroke-width="0.995" stroke-opacity="1.000" stroke-linecap="round" stroke-linejoin="round" d="M -78.797 664.713 Q -78.945 664.948 -78.369 666.567 Q -77.793 668.186 -76.837 669.815 Q -75.881 671.443 -75.374 674.407 Q -74.867 677.371 -74.750 680.000 Q -74.633 682.628 -75.130 685.047 Q -75.367 684.851 -75.575 684.047 "></path>
    <path id="STROKE_007cf1e4-fd2b-45cd-a58b-d15e0e915fa0" opacity="1.000" fill="none" stroke="#71c047" stroke-width="0.995" stroke-opacity="1.000" stroke-linecap="round" stroke-linejoin="round" d="M -146.259 810.206 Q -145.622 810.451 -143.881 806.511 Q -142.139 802.570 -141.388 799.727 Q -140.638 796.884 -138.830 794.552 Q -138.784 794.764 -138.872 797.136 Q -138.960 799.508 -138.908 801.939 Q -138.856 804.371 -138.759 805.853 Q -138.661 807.335 -138.546 808.225 Q -138.431 809.115 -137.893 809.630 Q -137.356 810.146 -136.817 810.342 Q -136.279 810.539 -135.929 810.522 Q -135.579 810.505 -134.325 808.492 Q -133.071 806.480 -132.145 803.952 Q -131.220 801.423 -130.941 800.020 Q -130.662 798.617 -130.167 797.218 Q -129.672 795.820 -129.012 794.684 Q -128.849 794.651 -128.927 796.779 Q -129.004 798.906 -129.007 801.616 Q -129.009 804.326 -129.203 805.769 Q -129.396 807.212 -127.354 810.007 Q -127.135 809.862 -126.492 809.410 "></path>
    <path id="STROKE_2f4a8d9f-bbc4-4209-8c99-20c9ea7eda44" opacity="1.000" fill="none" stroke="#71c047" stroke-width="0.995" stroke-opacity="1.000" stroke-linecap="round" stroke-linejoin="round" d="M -123.175 793.756 Q -123.443 793.910 -124.224 797.934 Q -125.005 801.958 -125.366 804.083 Q -125.726 806.207 -125.918 807.378 Q -126.109 808.550 -124.833 809.676 Q -124.757 809.635 -122.825 808.813 Q -120.892 807.992 -119.724 807.481 Q -118.556 806.970 -117.912 806.626 Q -117.267 806.281 -116.542 806.094 "></path>
    <path id="STROKE_fdbc51fb-f363-46e0-83a8-9ebe43b89fcc" opacity="1.000" fill="none" stroke="#71c047" stroke-width="0.995" stroke-opacity="1.000" stroke-linecap="round" stroke-linejoin="round" d="M -112.960 794.419 Q -113.183 794.559 -113.007 798.754 Q -112.831 802.949 -112.429 807.420 Q -112.802 807.445 -112.936 803.768 Q -113.070 800.090 -113.221 798.090 Q -113.372 796.090 -113.094 794.916 Q -112.816 793.742 -112.418 792.777 Q -112.020 791.812 -111.262 791.291 Q -110.505 790.769 -109.570 790.818 Q -108.635 790.867 -107.982 791.081 Q -107.329 791.294 -106.983 791.787 Q -106.637 792.281 -106.516 793.125 Q -106.395 793.969 -107.397 794.901 Q -108.400 795.832 -109.346 796.599 Q -110.293 797.365 -112.296 799.328 Q -112.285 799.138 -111.633 798.532 "></path>
    <path id="STROKE_3e3335b0-0c51-4abe-adad-07034959129e" opacity="1.000" fill="none" stroke="#71c047" stroke-width="0.995" stroke-opacity="1.000" stroke-linecap="round" stroke-linejoin="round" d="M -100.489 785.530 Q -100.820 785.977 -101.697 788.631 Q -102.574 791.285 -102.961 794.216 Q -103.348 797.147 -103.280 800.153 Q -103.213 803.158 -103.152 804.883 Q -103.092 806.608 -102.759 807.505 Q -102.426 808.402 -102.106 808.675 Q -101.785 808.948 -101.491 809.052 Q -101.196 809.156 -101.130 809.199 Q -101.063 809.242 -99.958 808.880 "></path>
    <path id="STROKE_cf13a40c-4a39-46fa-9288-23c6d9dabdc6" opacity="1.000" fill="none" stroke="#71c047" stroke-width="0.995" stroke-opacity="1.000" stroke-linecap="round" stroke-linejoin="round" d="M -93.988 795.878 Q -93.818 795.681 -92.261 793.528 Q -90.704 791.375 -90.870 787.321 Q -91.565 786.789 -91.494 790.934 Q -91.422 795.078 -91.227 798.531 Q -91.031 801.985 -89.345 807.155 "></path>
    <path id="STROKE_5873907d-6dc7-411e-98f8-16deb61ef485" opacity="1.000" fill="none" stroke="#71c047" stroke-width="0.995" stroke-opacity="1.000" stroke-linecap="round" stroke-linejoin="round" d="M -96.774 799.593 Q -96.880 800.380 -87.620 797.072 "></path>
    <path id="STROKE_8d6ec5e0-f5ed-433b-aaa5-3ae9bd451be6" opacity="1.000" fill="none" stroke="#71c047" stroke-width="0.995" stroke-opacity="1.000" stroke-linecap="round" stroke-linejoin="round" d="M -82.446 798.134 Q -82.328 797.882 -81.451 797.205 Q -81.652 797.122 -81.120 797.322 Q -80.587 797.522 -80.854 803.175 Q -80.738 803.135 -78.400 803.706 Q -78.227 803.467 -78.564 805.101 Q -78.901 806.736 -80.854 807.951 Q -80.908 808.020 -81.128 807.617 Q -81.348 807.214 -80.589 805.563 "></path>
    <path id="STROKE_89ec4207-3418-497a-aa20-42099697de41" opacity="1.000" fill="none" stroke="#71c047" stroke-width="0.995" stroke-opacity="1.000" stroke-linecap="round" stroke-linejoin="round" d="M -75.813 786.857 Q -75.465 786.365 -74.972 786.899 Q -74.479 787.433 -73.975 788.444 Q -73.470 789.454 -72.752 791.887 Q -72.034 794.319 -71.468 796.118 Q -70.902 797.917 -70.867 798.949 Q -70.832 799.982 -70.675 801.408 Q -70.518 802.835 -70.506 804.824 Q -70.495 806.814 -71.700 809.012 Q -71.766 808.813 -71.833 808.614 "></path>
    <path id="STROKE_b77f29d3-311e-4970-b564-26d7af8e40f2" opacity="1.000" fill="none" stroke="#71c047" stroke-width="0.995" stroke-opacity="1.000" stroke-linecap="round" stroke-linejoin="round" d="M 41.264 619.433 Q 41.620 620.023 41.552 619.865 Q 41.847 620.023 43.220 616.423 Q 44.593 612.823 49.035 606.051 Q 49.264 606.230 49.126 609.678 Q 48.988 613.126 49.109 615.263 Q 49.230 617.400 49.490 618.473 Q 49.751 619.546 50.070 620.060 Q 50.389 620.573 50.976 620.778 Q 51.562 620.983 52.387 620.171 Q 53.212 619.359 53.757 617.839 Q 54.301 616.319 54.850 615.045 Q 55.398 613.772 57.957 603.029 Q 58.036 603.166 57.776 607.342 Q 57.516 611.518 57.495 614.298 Q 57.473 617.078 57.446 618.522 Q 57.420 619.966 58.016 620.607 Q 58.612 621.247 59.289 621.505 Q 59.966 621.763 61.986 620.153 "></path>
    <path id="STROKE_4c9c50ea-38b0-4547-b020-2d00effb5052" opacity="1.000" fill="none" stroke="#71c047" stroke-width="0.995" stroke-opacity="1.000" stroke-linecap="round" stroke-linejoin="round" d="M 67.886 604.036 Q 67.630 604.713 66.730 607.275 Q 65.830 609.838 65.386 611.416 Q 64.942 612.994 64.882 613.961 Q 64.822 614.928 64.896 615.639 Q 64.969 616.351 65.165 617.254 Q 65.362 618.158 65.551 618.832 Q 65.740 619.507 66.399 619.735 Q 67.058 619.963 67.985 619.646 Q 68.913 619.328 70.908 616.987 "></path>
    <path id="STROKE_cb74f1c9-aafe-422a-af8d-937bebd0d34e" opacity="1.000" fill="none" stroke="#71c047" stroke-width="0.995" stroke-opacity="1.000" stroke-linecap="round" stroke-linejoin="round" d="M 77.671 605.619 Q 77.602 605.601 77.311 610.257 Q 77.020 614.912 77.959 620.729 Q 78.029 620.589 77.679 617.436 Q 77.328 614.284 76.972 612.319 Q 76.616 610.354 76.874 608.461 Q 77.132 606.568 77.489 605.373 Q 77.846 604.179 78.454 602.557 Q 79.061 600.934 81.916 599.216 Q 82.220 599.290 83.131 600.125 Q 84.042 600.960 84.263 602.636 Q 84.483 604.311 84.415 605.176 Q 84.347 606.041 84.008 607.070 Q 83.669 608.100 83.090 608.831 Q 82.510 609.563 81.829 609.899 Q 81.149 610.234 80.340 610.524 Q 79.531 610.814 77.743 609.936 Q 77.701 609.436 79.110 608.641 "></path>
    <path id="STROKE_d68afd9e-8dd5-4af2-93b1-81d3ea88ec2f" opacity="1.000" fill="none" stroke="#71c047" stroke-width="0.995" stroke-opacity="1.000" stroke-linecap="round" stroke-linejoin="round" d="M 96.953 596.122 Q 96.699 596.354 95.661 597.061 Q 94.624 597.767 93.531 600.991 Q 92.438 604.214 92.037 606.371 Q 91.636 608.528 91.540 611.533 Q 91.444 614.538 91.504 616.318 Q 91.564 618.098 91.790 619.672 Q 92.015 621.246 92.741 622.551 Q 93.466 623.856 94.205 624.446 Q 94.944 625.036 95.451 625.131 Q 95.958 625.226 96.522 624.614 "></path>
    <path id="STROKE_b9611204-5260-4e5d-9035-e705b6eb2390" opacity="1.000" fill="none" stroke="#71c047" stroke-width="0.995" stroke-opacity="1.000" stroke-linecap="round" stroke-linejoin="round" d="M 103.285 607.058 Q 103.531 606.678 105.443 600.870 Q 105.266 601.097 105.318 606.479 Q 105.370 611.861 105.578 614.516 Q 105.786 617.172 105.735 618.958 Q 105.685 620.745 107.170 622.168 "></path>
    <path id="STROKE_50545752-e5e6-4d1c-a603-0b91cbc89e9c" opacity="1.000" fill="none" stroke="#71c047" stroke-width="0.995" stroke-opacity="1.000" stroke-linecap="round" stroke-linejoin="round" d="M 100.407 614.541 Q 100.437 614.754 107.170 612.095 "></path>
    <path id="STROKE_6196bca7-df89-48e1-af7a-ed90f22c8210" opacity="1.000" fill="none" stroke="#71c047" stroke-width="0.995" stroke-opacity="1.000" stroke-linecap="round" stroke-linejoin="round" d="M 117.099 611.519 Q 116.887 611.075 116.739 611.015 Q 116.649 611.351 116.302 612.540 Q 115.954 613.730 116.013 614.901 Q 116.071 616.073 116.473 616.526 Q 116.874 616.980 117.426 616.966 Q 117.979 616.952 118.629 616.286 Q 119.280 615.620 120.409 614.253 "></path>
    <path id="STROKE_9d7b4e3a-db42-4747-9829-aaf46c0d3366" opacity="1.000" fill="none" stroke="#71c047" stroke-width="0.995" stroke-opacity="1.000" stroke-linecap="round" stroke-linejoin="round" d="M 120.840 611.519 Q 120.739 611.357 120.337 611.375 Q 119.547 611.734 120.840 619.433 Q 120.912 619.433 121.128 619.433 "></path>
    <path id="STROKE_eb994ee3-ceba-498e-b0f0-098f139912bc" opacity="1.000" fill="none" stroke="#71c047" stroke-width="0.995" stroke-opacity="1.000" stroke-linecap="round" stroke-linejoin="round" d="M 129.331 597.417 Q 129.145 597.385 129.763 601.445 Q 130.381 605.504 130.650 609.716 Q 130.919 613.928 130.687 617.773 Q 130.455 621.618 128.683 628.787 Q 128.452 629.059 129.043 627.060 "></path>
    <circle id="STROKE_6c3fc71f-24fb-4946-82cd-c8e4fb273e59" opacity="1.000" fill="#71c047" stroke="#71c047" stroke-width="0.1" stroke-opacity="1.000" fill-opacity="1.000" cx="56.086" cy="742.179" r="0.498"></circle>
    <path id="STROKE_5ac6c7e6-924c-4e04-a297-81a0151822d6" opacity="1.000" fill="none" stroke="#71c047" stroke-width="0.995" stroke-opacity="1.000" stroke-linecap="round" stroke-linejoin="round" d="M 56.661 746.496 Q 56.590 746.352 56.518 746.209 Q 57.082 745.325 57.021 745.345 Q 56.813 744.901 58.528 740.664 Q 60.243 736.426 62.130 732.106 Q 61.902 732.170 61.676 735.092 Q 61.450 738.013 61.314 740.319 Q 61.178 742.624 61.402 743.907 Q 61.626 745.190 62.127 746.067 Q 62.628 746.943 63.421 747.126 Q 64.214 747.308 65.233 746.336 Q 66.252 745.364 67.621 741.464 Q 68.989 737.564 69.900 731.963 Q 69.751 731.740 69.998 735.377 Q 70.244 739.013 70.269 741.147 Q 70.295 743.280 70.730 744.578 Q 71.166 745.877 72.346 746.640 "></path>
    <path id="STROKE_d8e401fc-6386-4905-a739-e3b6cd192a31" opacity="1.000" fill="none" stroke="#71c047" stroke-width="0.995" stroke-opacity="1.000" stroke-linecap="round" stroke-linejoin="round" d="M 78.966 733.258 Q 78.966 732.970 78.966 732.754 Q 79.309 733.800 78.395 736.230 Q 77.481 738.661 77.171 740.901 Q 76.861 743.141 76.853 744.328 Q 76.846 745.515 77.086 746.141 Q 77.327 746.767 77.613 747.398 Q 77.898 748.030 79.189 747.702 Q 80.481 747.373 82.225 745.509 Q 83.970 743.645 85.873 741.748 "></path>
    <path id="STROKE_f600c406-e243-4949-97e4-8ea7e038a541" opacity="1.000" fill="none" stroke="#71c047" stroke-width="0.995" stroke-opacity="1.000" stroke-linecap="round" stroke-linejoin="round" d="M 87.744 730.236 Q 87.777 730.206 88.267 734.158 Q 88.757 738.109 88.851 742.006 Q 88.946 745.904 89.327 749.806 Q 89.522 750.066 89.412 745.712 Q 89.303 741.358 89.111 738.849 Q 88.919 736.341 88.955 734.130 Q 88.991 731.920 89.762 730.117 Q 90.534 728.315 91.123 727.408 Q 91.712 726.502 92.539 726.179 Q 93.366 725.857 94.268 726.285 Q 95.171 726.714 95.828 727.809 Q 96.486 728.904 96.744 730.003 Q 97.003 731.102 96.563 732.701 Q 96.124 734.300 95.691 735.306 Q 95.259 736.313 94.229 736.996 Q 93.199 737.678 92.401 737.950 Q 91.604 738.221 91.123 737.884 Q 90.643 737.547 90.619 737.129 Q 90.595 736.711 90.827 736.364 Q 91.058 736.018 91.629 735.272 "></path>
    <path id="STROKE_86ea8a9f-7802-4d47-9827-d6628daa965c" opacity="1.000" fill="none" stroke="#71c047" stroke-width="0.995" stroke-opacity="1.000" stroke-linecap="round" stroke-linejoin="round" d="M 107.602 724.336 Q 107.643 724.100 107.132 724.269 Q 106.622 724.438 106.029 724.695 Q 105.436 724.951 104.633 727.622 Q 103.829 730.293 103.658 731.756 Q 103.488 733.218 103.380 735.007 Q 103.272 736.795 103.140 739.843 Q 103.007 742.891 103.164 745.747 Q 103.321 748.602 103.570 750.105 Q 103.820 751.609 104.303 752.471 Q 104.786 753.334 105.222 753.855 Q 105.658 754.376 107.026 753.403 "></path>
    <path id="STROKE_15f772d2-b82f-4ec4-b647-d2aac2c9cd62" opacity="1.000" fill="none" stroke="#71c047" stroke-width="0.995" stroke-opacity="1.000" stroke-linecap="round" stroke-linejoin="round" d="M 111.631 738.870 Q 112.184 738.613 113.580 736.521 Q 114.975 734.428 115.927 732.262 Q 116.878 730.096 116.667 727.502 Q 115.973 727.244 116.105 733.188 Q 116.236 739.132 116.440 742.586 Q 116.643 746.041 116.914 748.022 Q 117.184 750.002 118.682 751.533 "></path>
    <path id="STROKE_f361d4fe-3227-47f2-9757-5246ac2b5678" opacity="1.000" fill="none" stroke="#71c047" stroke-width="0.995" stroke-opacity="1.000" stroke-linecap="round" stroke-linejoin="round" d="M 111.631 743.331 Q 111.938 743.747 119.977 740.021 "></path>
    <path id="STROKE_9ef3716c-53de-4e5c-9272-6470fc68495a" opacity="1.000" fill="none" stroke="#71c047" stroke-width="0.995" stroke-opacity="1.000" stroke-linecap="round" stroke-linejoin="round" d="M 125.733 741.316 Q 125.576 741.540 125.238 742.287 Q 124.900 743.035 126.165 744.410 Q 126.596 744.194 127.460 743.187 Q 128.073 743.132 129.019 744.114 Q 129.964 745.095 128.683 751.605 Q 128.212 751.097 128.174 750.981 Q 128.135 750.865 128.164 750.637 Q 128.193 750.410 128.180 750.073 Q 128.167 749.735 128.323 747.935 "></path>
    <path id="STROKE_a0238ea5-83f0-4f42-93ea-7442051fceba" opacity="1.000" fill="none" stroke="#71c047" stroke-width="0.995" stroke-opacity="1.000" stroke-linecap="round" stroke-linejoin="round" d="M 124.726 739.589 Q 124.437 739.620 131.345 738.582 "></path>
    <path id="STROKE_0a23b944-41bc-4ebd-92fb-e77a929bca81" opacity="1.000" fill="none" stroke="#71c047" stroke-width="0.995" stroke-opacity="1.000" stroke-linecap="round" stroke-linejoin="round" d="M 140.555 724.768 Q 140.809 725.121 141.483 729.094 Q 142.157 733.067 142.166 737.156 Q 142.175 741.246 141.917 743.906 Q 141.659 746.567 141.318 748.208 Q 140.977 749.849 139.979 750.526 "></path>
  </g>
</svg>