<?xml version="1.0" encoding="UTF-8" standalone="yes"?>
<svg xmlns="http://www.w3.org/2000/svg" xmlns:xlink="http://www.w3.org/1999/xlink" width="205.434pt" height="293.817pt" version="1.1" viewBox="-118.016 595.412 205.434 293.817">
  <!--
	Exported with Concepts: Smarter Sketching
	Version: 2024.11 on Android 13
	https://concepts.app/
	-->
  <title>Expert</title>
  <desc>Drawing exported from Concepts: Smarter Sketching</desc>
  <defs></defs>
  <g id="Pen" opacity="1.000">
    <path id="STROKE_0e6c64ae-902c-4c4b-826e-18e1ab50ea7e" opacity="1.000" fill="none" stroke="#f9f9f1" stroke-width="1.600" stroke-opacity="1.000" stroke-linecap="round" stroke-linejoin="round" d="M -47.458 655.830 Q -49.527 659.372 -51.167 662.318 Q -52.808 665.263 -53.600 666.871 Q -54.391 668.478 -55.387 671.363 Q -56.383 674.248 -56.761 675.796 Q -57.139 677.344 -57.246 677.919 Q -57.353 678.494 -57.884 682.337 Q -58.416 686.179 -58.529 688.717 Q -58.643 691.255 -58.579 692.941 Q -58.515 694.627 -58.377 695.847 Q -58.239 697.067 -58.102 698.297 Q -57.964 699.528 -57.756 700.690 Q -57.547 701.853 -57.510 702.167 Q -57.472 702.482 -55.538 709.105 Q -53.603 715.729 -52.796 717.629 Q -51.989 719.529 -51.668 720.137 Q -51.347 720.745 -50.754 721.988 Q -50.162 723.230 -49.399 724.683 Q -48.636 726.136 -47.292 728.161 Q -45.947 730.186 -45.233 731.108 Q -44.519 732.029 -44.180 732.398 Q -43.842 732.768 -43.080 733.580 Q -42.317 734.393 -41.160 735.423 Q -40.002 736.453 -39.030 737.276 Q -38.059 738.098 -37.776 738.377 Q -37.494 738.657 -35.966 739.680 Q -34.438 740.704 -32.671 741.666 Q -30.905 742.628 -28.320 743.627 Q -25.734 744.627 -24.973 744.897 Q -24.211 745.168 -23.230 745.406 Q -22.248 745.644 -20.268 746.079 Q -18.288 746.514 -17.608 746.634 Q -16.928 746.754 -16.506 746.770 Q -16.084 746.786 -14.356 746.877 Q -12.629 746.968 -9.376 746.743 Q -6.124 746.518 -4.307 746.249 Q -2.491 745.980 -0.830 745.494 Q 0.830 745.007 2.224 744.566 Q 3.618 744.126 5.253 743.426 Q 6.889 742.726 7.863 742.241 Q 8.837 741.756 9.081 741.669 Q 9.325 741.582 12.284 739.923 Q 15.243 738.264 16.937 737.129 Q 18.631 735.993 20.803 734.202 Q 22.975 732.410 23.471 731.804 Q 23.968 731.198 25.298 729.794 Q 26.628 728.390 28.595 725.223 Q 30.561 722.056 31.519 720.074 Q 32.476 718.092 32.848 717.246 Q 33.219 716.400 33.506 715.612 Q 33.792 714.824 34.021 714.244 Q 34.250 713.663 34.408 713.151 Q 34.566 712.638 34.895 711.673 Q 35.223 710.708 36.148 706.817 Q 37.072 702.926 37.547 699.707 Q 38.022 696.487 38.198 692.755 Q 38.374 689.024 38.263 686.832 Q 38.152 684.640 37.946 682.755 Q 37.740 680.869 37.379 678.875 Q 37.018 676.880 36.623 675.340 Q 36.229 673.799 35.816 672.523 Q 35.403 671.246 35.316 670.909 Q 35.230 670.571 34.639 668.970 Q 34.048 667.369 33.441 666.086 Q 32.833 664.802 32.479 664.023 Q 32.125 663.244 31.630 662.392 Q 31.134 661.541 30.952 661.289 Q 30.770 661.036 30.468 660.532 Q 30.167 660.028 29.596 659.083 Q 29.025 658.139 28.692 657.703 Q 28.359 657.267 27.659 656.308 Q 26.958 655.350 25.536 653.727 "></path>
    <path id="STROKE_2ff4e8a4-4b38-44ba-8e08-986410223764" opacity="1.000" fill="none" stroke="#f9f9f1" stroke-width="1.600" stroke-opacity="1.000" stroke-linecap="round" stroke-linejoin="round" d="M -28.406 678.576 Q -29.419 678.831 -30.324 679.174 Q -31.230 679.517 -31.988 679.976 Q -32.746 680.435 -33.551 681.139 Q -34.356 681.843 -34.441 681.891 Q -34.525 681.939 -35.115 682.673 Q -35.705 683.406 -36.052 684.080 Q -36.398 684.754 -36.634 685.278 Q -36.870 685.802 -37.178 687.548 Q -37.487 689.294 -37.389 690.715 Q -37.292 692.136 -37.133 692.616 Q -36.973 693.096 -36.736 693.670 Q -36.498 694.243 -36.185 694.755 Q -35.871 695.268 -35.629 695.701 Q -35.387 696.134 -34.997 696.527 Q -34.606 696.920 -34.211 697.331 Q -33.815 697.742 -33.410 698.037 Q -33.004 698.333 -32.473 698.577 Q -31.941 698.821 -31.866 698.879 Q -31.792 698.938 -30.463 699.209 Q -29.134 699.480 -28.101 699.430 Q -27.069 699.380 -26.110 699.151 Q -25.150 698.922 -24.169 698.507 Q -23.187 698.093 -22.024 697.318 Q -20.860 696.543 -19.945 695.597 Q -19.029 694.652 -18.750 694.194 Q -18.470 693.736 -18.212 693.379 Q -17.953 693.023 -17.743 692.588 Q -17.532 692.153 -17.286 691.370 Q -17.041 690.588 -16.841 689.957 Q -16.642 689.326 -16.608 689.006 Q -16.573 688.686 -16.530 688.591 Q -16.487 688.496 -16.579 686.714 Q -16.671 684.932 -17.017 683.967 Q -17.362 683.002 -17.905 682.327 Q -18.449 681.653 -18.953 681.214 Q -19.456 680.776 -20.247 680.244 Q -21.037 679.712 -21.928 679.314 Q -22.819 678.916 -27.517 677.464 "></path>
    <path id="STROKE_5826807c-965b-41fb-af47-c27c719925a7" opacity="1.000" fill="none" stroke="#f9f9f1" stroke-width="1.600" stroke-opacity="1.000" stroke-linecap="round" stroke-linejoin="round" d="M 11.594 678.353 Q 9.628 678.621 9.225 678.704 Q 8.823 678.788 8.034 678.959 Q 7.244 679.130 6.111 679.563 Q 4.977 679.997 4.235 680.457 Q 3.492 680.917 2.535 681.769 Q 1.579 682.621 0.701 684.092 Q -0.176 685.562 -0.473 686.475 Q -0.770 687.388 -0.874 687.826 Q -0.978 688.264 -0.984 688.407 Q -0.990 688.550 -1.058 689.669 Q -1.125 690.787 -0.970 691.881 Q -0.815 692.975 -0.360 694.032 Q 0.095 695.089 0.653 695.799 Q 1.211 696.509 1.500 696.723 Q 1.789 696.936 2.344 697.345 Q 2.899 697.754 3.674 698.094 Q 4.449 698.433 4.899 698.621 Q 5.349 698.809 5.720 698.986 Q 6.092 699.164 7.404 699.404 Q 8.716 699.645 9.049 699.697 Q 9.382 699.749 9.579 699.736 Q 9.776 699.724 12.261 699.909 "></path>
    <circle id="STROKE_54345ab8-c6bb-4b25-9f48-55baf34f5835" opacity="1.000" fill="#f9f9f1" stroke="#f9f9f1" stroke-width="0.1" stroke-opacity="1.000" fill-opacity="1.000" cx="14.705" cy="699.464" r="0.800"></circle>
    <path id="STROKE_92ec6513-51a4-4678-ac19-8a4df218554e" opacity="1.000" fill="none" stroke="#f9f9f1" stroke-width="1.600" stroke-opacity="1.000" stroke-linecap="round" stroke-linejoin="round" d="M 15.372 698.798 Q 15.457 698.514 16.311 697.162 Q 17.165 695.811 17.732 694.552 Q 18.299 693.294 18.509 692.436 Q 18.718 691.578 18.933 690.575 Q 19.149 689.572 19.167 688.265 Q 19.185 686.958 18.966 686.006 Q 18.746 685.054 18.625 684.631 Q 18.504 684.207 18.497 684.136 Q 18.490 684.065 18.165 683.381 Q 17.840 682.698 17.655 682.355 Q 17.470 682.012 16.814 681.350 Q 16.158 680.688 15.885 680.438 Q 15.612 680.187 15.088 679.833 Q 14.564 679.479 13.649 678.781 Q 13.213 678.518 12.927 678.353 "></path>
    <path id="STROKE_bcf3bbf7-3669-4009-b8d6-b31f7e089954" opacity="1.000" fill="none" stroke="#f9f9f1" stroke-width="1.600" stroke-opacity="1.000" stroke-linecap="round" stroke-linejoin="round" d="M -13.073 687.687 Q -12.500 687.400 -12.137 687.079 Q -11.773 686.758 -11.410 686.558 Q -11.046 686.359 -10.585 686.123 Q -10.124 685.887 -9.670 685.677 Q -9.216 685.466 -8.955 685.407 Q -8.694 685.348 -8.103 685.301 Q -7.512 685.254 -6.773 685.439 Q -6.034 685.625 -5.862 685.667 Q -5.689 685.710 -5.197 685.946 Q -4.705 686.182 -2.406 687.242 "></path>
    <path id="STROKE_af97e977-ee7b-4a98-94ef-eef202bddffb" opacity="1.000" fill="none" stroke="#f9f9f1" stroke-width="1.600" stroke-opacity="1.000" stroke-linecap="round" stroke-linejoin="round" d="M 20.483 686.353 L 20.747 685.940 L 21.363 685.086 Q 21.638 684.480 23.471 682.477 Q 25.305 680.474 26.546 679.509 Q 27.786 678.545 29.066 677.844 Q 30.346 677.144 30.885 676.871 Q 31.423 676.598 32.250 676.300 Q 33.076 676.002 34.502 675.807 Q 35.927 675.611 37.263 675.784 Q 38.598 675.957 38.847 676.018 Q 39.096 676.080 39.846 676.458 Q 40.596 676.836 41.296 677.375 Q 41.996 677.914 42.420 678.383 Q 42.844 678.852 43.994 680.523 Q 45.143 682.195 45.594 683.020 "></path>
    <path id="STROKE_7c2efd73-0988-49c6-8802-b8f86e5b5c29" opacity="1.000" fill="none" stroke="#f9f9f1" stroke-width="1.600" stroke-opacity="1.000" stroke-linecap="round" stroke-linejoin="round" d="M -37.295 685.242 Q -37.662 684.495 -38.441 683.248 Q -39.220 682.001 -39.766 681.310 Q -40.312 680.619 -40.816 680.109 Q -41.320 679.600 -41.599 679.293 Q -41.878 678.986 -42.584 678.362 Q -43.290 677.738 -45.012 676.477 Q -45.515 676.026 -45.994 675.769 Q -46.473 675.511 -47.003 675.177 Q -47.533 674.843 -47.747 674.681 Q -48.605 674.277 -48.994 674.054 Q -49.383 673.831 -49.645 673.776 Q -49.906 673.721 -50.329 673.523 Q -50.753 673.324 -52.735 672.926 Q -54.718 672.528 -54.928 672.504 Q -55.139 672.480 -55.610 672.512 Q -56.082 672.544 -56.545 672.658 Q -57.008 672.773 -57.579 673.169 Q -58.149 673.565 -58.381 673.749 Q -58.612 673.933 -59.185 674.553 Q -59.758 675.173 -59.954 675.548 Q -60.150 675.923 -60.232 676.163 Q -60.315 676.404 -61.517 679.464 "></path>
    <path id="STROKE_3c9c3192-9df2-4114-ad00-1ff6d21d9146" opacity="1.000" fill="none" stroke="#f9f9f1" stroke-width="1.600" stroke-opacity="1.000" stroke-linecap="round" stroke-linejoin="round" d="M -59.517 645.909 Q -58.161 646.748 -57.057 647.480 Q -55.952 648.212 -54.498 649.059 Q -53.043 649.906 -51.813 650.499 Q -50.582 651.091 -50.541 651.127 Q -50.500 651.163 -49.579 651.640 Q -48.659 652.118 -48.430 652.202 Q -48.201 652.287 -46.625 652.930 Q -45.049 653.573 -43.638 654.099 Q -42.227 654.625 -41.056 654.961 Q -39.885 655.297 -39.719 655.339 Q -39.553 655.382 -37.336 656.036 Q -35.120 656.690 -34.063 656.911 Q -33.006 657.131 -32.225 657.354 Q -31.444 657.577 -30.105 657.819 Q -28.766 658.060 -27.352 658.322 Q -25.938 658.585 -25.023 658.648 Q -24.108 658.711 -21.995 658.900 Q -19.881 659.088 -19.027 659.101 Q -18.173 659.114 -15.019 659.053 Q -11.866 658.991 -11.139 658.934 Q -10.412 658.878 -6.422 658.486 Q -2.432 658.095 -0.216 657.754 Q 2.000 657.414 2.895 657.286 Q 3.790 657.158 4.616 657.017 Q 5.441 656.875 6.490 656.677 Q 7.538 656.480 8.286 656.306 Q 9.033 656.133 11.243 655.683 Q 13.453 655.232 14.912 654.879 Q 16.371 654.525 17.061 654.323 Q 17.752 654.121 19.587 653.603 Q 21.422 653.085 21.996 652.927 Q 22.570 652.770 23.259 652.493 Q 23.948 652.216 24.350 652.079 Q 24.753 651.943 25.230 651.747 Q 25.708 651.552 26.430 651.307 Q 27.152 651.062 27.901 650.688 Q 28.650 650.313 29.515 649.898 Q 30.379 649.482 30.911 649.178 Q 31.442 648.874 33.372 647.909 "></path>
    <path id="STROKE_8bcc2658-3e65-4b53-a231-5cb9a4d2c4ec" opacity="1.000" fill="none" stroke="#f9f9f1" stroke-width="1.600" stroke-opacity="1.000" stroke-linecap="round" stroke-linejoin="round" d="M -61.739 620.353 L -61.686 620.879 Q -61.562 621.223 -61.397 624.415 Q -61.232 627.608 -61.026 630.617 Q -60.820 633.625 -60.688 635.065 Q -60.555 636.505 -60.385 640.059 L -60.184 642.131 "></path>
    <path id="STROKE_c39f829d-095e-4c65-9fe6-790d69b24049" opacity="1.000" fill="none" stroke="#f9f9f1" stroke-width="1.600" stroke-opacity="1.000" stroke-linecap="round" stroke-linejoin="round" d="M 33.816 625.242 Q 34.033 627.245 34.357 630.913 Q 34.682 634.581 34.841 637.330 Q 35.000 640.079 35.149 644.353 "></path>
    <path id="STROKE_b8ccbca5-ff06-433a-b13a-e5c4344ae4bc" opacity="1.000" fill="none" stroke="#f9f9f1" stroke-width="1.600" stroke-opacity="1.000" stroke-linecap="round" stroke-linejoin="round" d="M -88.628 613.687 Q -87.715 613.676 -86.857 613.758 Q -86.000 613.841 -85.140 613.993 Q -84.280 614.145 -83.637 614.227 Q -82.995 614.310 -82.375 614.440 Q -81.755 614.570 -80.878 614.676 Q -80.000 614.782 -78.067 615.109 Q -76.135 615.437 -74.789 615.654 Q -73.443 615.870 -72.336 616.075 Q -71.228 616.279 -68.509 616.787 Q -65.790 617.295 -64.528 617.543 Q -63.266 617.791 -61.612 618.156 Q -59.958 618.522 -56.646 619.173 Q -53.334 619.824 -50.992 620.328 Q -48.649 620.832 -47.754 620.990 Q -46.858 621.147 -46.376 621.255 Q -45.894 621.363 -44.818 621.567 Q -43.742 621.770 -42.320 622.088 Q -40.898 622.405 -39.637 622.683 Q -38.375 622.961 -37.649 623.161 Q -36.923 623.362 -35.697 623.601 L -34.940 623.802 L -33.977 623.979 Q -32.917 624.269 -30.397 624.833 Q -27.877 625.398 -26.002 625.758 Q -24.126 626.118 -22.723 626.406 Q -21.319 626.694 -20.913 626.751 Q -20.507 626.809 -20.042 626.926 Q -19.578 627.043 -17.052 627.523 L -14.851 628.131 "></path>
    <path id="STROKE_bf4e3c9b-5674-45a6-af4d-598661959434" opacity="1.000" fill="none" stroke="#f9f9f1" stroke-width="1.600" stroke-opacity="1.000" stroke-linecap="round" stroke-linejoin="round" d="M -11.962 627.909 Q -11.372 627.724 -10.757 627.615 Q -10.142 627.505 -9.237 627.203 Q -8.333 626.902 -6.632 626.447 Q -4.932 625.991 -3.654 625.712 Q -2.377 625.433 -1.421 625.198 Q -0.465 624.963 0.954 624.705 Q 2.372 624.446 3.760 624.185 Q 5.148 623.923 6.382 623.689 Q 7.617 623.455 8.496 623.358 Q 9.376 623.260 10.312 623.111 Q 11.248 622.962 12.116 622.821 Q 12.983 622.679 14.997 622.398 Q 17.010 622.118 17.736 622.009 Q 18.461 621.900 22.103 621.427 Q 25.746 620.953 27.615 620.682 Q 29.484 620.410 30.710 620.181 Q 31.936 619.951 33.230 619.776 Q 34.524 619.602 35.764 619.388 Q 37.004 619.174 37.799 619.006 Q 38.595 618.839 42.256 618.188 Q 45.918 617.538 46.722 617.408 Q 47.526 617.278 48.233 617.187 Q 48.941 617.096 49.116 617.030 Q 49.291 616.964 50.047 616.871 Q 50.802 616.778 53.505 616.173 Q 56.208 615.569 57.620 615.215 Q 59.032 614.861 60.038 614.798 "></path>
    <path id="STROKE_8c7cd732-a4cf-44eb-89f8-b41d64178db0" opacity="1.000" fill="none" stroke="#f9f9f1" stroke-width="1.600" stroke-opacity="1.000" stroke-linecap="round" stroke-linejoin="round" d="M -87.739 611.687 Q -86.781 611.442 -86.000 611.271 Q -85.218 611.099 -84.782 610.980 Q -84.347 610.861 -81.683 610.382 Q -79.019 609.903 -76.059 609.339 Q -73.100 608.776 -70.835 608.429 Q -68.570 608.082 -66.707 607.823 Q -64.844 607.564 -63.750 607.465 Q -62.656 607.365 -61.610 607.250 Q -60.565 607.135 -59.736 607.028 Q -58.907 606.921 -56.754 606.775 Q -54.601 606.630 -52.833 606.576 Q -51.065 606.523 -47.093 606.314 Q -43.121 606.106 -43.057 606.114 Q -42.992 606.121 -40.817 605.959 Q -38.641 605.797 -36.667 605.606 Q -34.693 605.414 -33.533 605.295 Q -32.373 605.176 -31.673 605.049 Q -30.972 604.921 -29.555 604.780 Q -28.139 604.639 -25.910 604.318 Q -23.681 603.997 -20.906 603.472 Q -18.130 602.947 -16.948 602.669 Q -15.766 602.391 -15.194 602.293 Q -14.622 602.196 -14.251 602.078 Q -13.880 601.961 -13.360 601.820 Q -12.841 601.679 -9.517 601.020 "></path>
    <path id="STROKE_90f278ed-71f5-4528-b563-be13e0926552" opacity="1.000" fill="none" stroke="#f9f9f1" stroke-width="1.600" stroke-opacity="1.000" stroke-linecap="round" stroke-linejoin="round" d="M -5.739 600.131 Q -5.448 600.140 -3.921 600.478 Q -2.393 600.816 -0.916 601.033 Q 0.561 601.251 1.454 601.456 Q 2.347 601.661 3.213 601.785 Q 4.080 601.909 4.144 601.929 Q 4.208 601.950 5.750 602.269 Q 7.292 602.589 8.282 602.845 Q 9.272 603.101 9.764 603.200 Q 10.256 603.298 11.139 603.524 Q 12.023 603.751 12.548 603.824 Q 13.073 603.897 13.494 604.009 Q 13.916 604.121 15.981 604.443 Q 18.047 604.766 19.121 604.951 Q 20.195 605.137 21.208 605.278 Q 22.221 605.419 23.896 605.690 Q 25.572 605.961 26.793 606.105 Q 28.014 606.249 28.839 606.308 Q 29.664 606.367 30.816 606.544 Q 31.968 606.721 32.895 606.783 Q 33.822 606.845 35.194 607.074 Q 36.567 607.304 38.827 607.616 Q 41.088 607.928 41.967 608.052 Q 42.845 608.176 46.079 608.671 Q 49.313 609.166 52.521 609.857 Q 55.729 610.548 56.201 610.683 Q 56.672 610.818 57.210 610.937 Q 57.747 611.057 58.324 611.264 Q 58.901 611.470 61.594 612.353 "></path>
    <path id="STROKE_fa4ed0bc-e2b3-4d52-8864-4cdc64050078" opacity="1.000" fill="none" stroke="#f9f9f1" stroke-width="1.600" stroke-opacity="1.000" stroke-linecap="round" stroke-linejoin="round" d="M -112.596 865.719 Q -112.635 865.537 -113.053 864.652 Q -113.021 864.461 -113.138 863.135 Q -113.255 861.809 -113.276 861.190 Q -113.297 860.571 -113.097 857.426 Q -112.896 854.280 -111.895 848.262 Q -110.895 842.243 -110.166 839.177 Q -109.437 836.111 -109.056 834.797 Q -108.674 833.484 -106.801 828.170 Q -104.928 822.856 -103.755 820.254 Q -102.583 817.652 -100.273 813.861 Q -97.963 810.071 -95.921 807.517 Q -93.878 804.963 -92.618 803.678 Q -91.358 802.393 -90.368 801.419 Q -89.379 800.445 -87.836 799.019 Q -86.294 797.594 -82.595 794.173 Q -78.895 790.752 -75.273 787.833 Q -71.650 784.914 -68.783 782.972 Q -65.915 781.030 -64.632 780.310 Q -63.349 779.590 -61.029 778.131 Q -58.708 776.672 -56.964 775.673 Q -55.220 774.673 -54.851 774.447 Q -54.482 774.221 -52.343 773.096 Q -50.204 771.971 -48.828 771.299 Q -47.452 770.628 -44.870 769.661 Q -42.288 768.695 -39.878 767.986 Q -37.469 767.278 -36.405 766.960 Q -35.341 766.642 -34.677 766.473 Q -34.012 766.304 -33.424 766.122 Q -32.837 765.941 -31.590 765.676 Q -30.343 765.411 -28.440 765.004 Q -26.536 764.597 -25.737 764.444 Q -24.938 764.291 -23.709 764.194 Q -22.883 763.924 -17.192 763.678 Q -11.500 763.432 -8.145 763.731 Q -4.789 764.029 -2.474 764.493 Q -0.160 764.956 0.437 765.053 Q 1.034 765.151 2.669 765.623 Q 4.304 766.095 5.242 766.398 Q 6.179 766.701 6.322 766.732 Q 6.464 766.762 7.884 767.245 Q 9.305 767.728 10.341 768.075 Q 11.378 768.422 15.133 769.957 Q 18.888 771.491 19.496 771.765 Q 20.104 772.039 20.738 772.409 Q 21.371 772.780 22.847 773.577 Q 24.323 774.374 25.108 774.889 Q 25.893 775.403 27.283 776.368 Q 28.674 777.332 29.495 777.864 Q 30.316 778.397 31.167 778.991 Q 32.017 779.585 32.519 779.925 Q 33.020 780.264 33.765 780.888 Q 34.510 781.513 35.179 782.131 Q 35.848 782.750 35.979 782.873 Q 36.110 782.996 37.881 784.665 Q 39.652 786.334 42.481 789.366 Q 45.310 792.397 46.363 793.710 Q 47.417 795.023 48.035 795.732 Q 48.653 796.440 49.830 797.924 Q 51.007 799.408 51.717 800.441 Q 52.428 801.473 53.295 802.679 Q 54.162 803.884 55.360 805.694 Q 56.559 807.503 57.448 809.043 Q 58.338 810.583 59.005 811.691 Q 59.673 812.800 59.946 813.301 Q 60.219 813.801 60.442 814.139 Q 60.664 814.477 61.164 815.419 Q 61.665 816.360 62.069 817.067 Q 62.473 817.773 63.481 819.580 Q 64.488 821.387 65.211 822.579 Q 65.933 823.771 66.450 824.712 Q 66.966 825.653 67.695 826.856 Q 68.423 828.058 69.388 829.603 Q 70.352 831.148 71.967 834.014 Q 73.582 836.880 73.971 837.784 Q 74.359 838.687 74.719 839.418 Q 75.079 840.148 75.146 840.242 Q 75.212 840.336 76.385 843.193 Q 77.558 846.049 78.303 848.338 Q 79.049 850.627 79.386 851.967 Q 79.723 853.306 80.056 854.526 Q 80.388 855.746 80.611 856.671 Q 80.834 857.595 80.918 858.186 Q 81.001 858.777 81.135 859.489 Q 81.269 860.201 81.504 861.196 Q 81.740 862.191 81.847 862.679 Q 81.955 863.167 81.953 863.438 Q 81.952 863.708 82.721 867.065 "></path>
    <path id="STROKE_b0818b63-bf26-42af-89b2-c4ccd356f69d" opacity="1.000" fill="none" stroke="#f9f9f1" stroke-width="1.600" stroke-opacity="1.000" stroke-linecap="round" stroke-linejoin="round" d="M -31.497 766.713 L -31.078 767.250 Q -30.742 767.757 -29.602 770.132 Q -28.461 772.507 -27.768 773.961 Q -27.075 775.414 -26.533 776.794 Q -25.991 778.174 -25.523 779.337 Q -25.055 780.500 -24.780 781.013 Q -24.504 781.527 -24.088 782.515 Q -23.672 783.504 -23.349 784.328 Q -23.025 785.153 -22.333 786.678 Q -21.641 788.203 -21.005 789.494 Q -20.369 790.784 -20.124 791.254 Q -19.879 791.724 -19.795 791.851 Q -19.712 791.978 -16.223 798.518 L -15.497 799.824 "></path>
    <path id="STROKE_dd96e372-9e91-4043-a9a1-680743a79527" opacity="1.000" fill="none" stroke="#f9f9f1" stroke-width="1.600" stroke-opacity="1.000" stroke-linecap="round" stroke-linejoin="round" d="M 7.836 767.157 Q 7.634 767.710 6.654 769.574 Q 5.674 771.438 4.888 773.236 Q 4.102 775.034 3.487 776.479 Q 2.871 777.924 2.520 778.917 Q 2.169 779.909 1.781 780.873 Q 1.393 781.836 -0.129 786.380 Q -1.651 790.925 -2.384 793.175 Q -3.116 795.425 -3.369 796.369 Q -3.623 797.313 -3.705 797.683 Q -3.787 798.052 -4.164 799.157 "></path>
    <path id="STROKE_20f177aa-dd46-43fa-8baf-7a54ad1c9a50" opacity="1.000" fill="none" stroke="#f9f9f1" stroke-width="1.600" stroke-opacity="1.000" stroke-linecap="round" stroke-linejoin="round" d="M -19.275 804.046 Q -18.275 803.651 -1.719 798.935 "></path>
    <path id="STROKE_30c263e3-5cd6-417a-8409-bd044490c350" opacity="1.000" fill="none" stroke="#f9f9f1" stroke-width="1.600" stroke-opacity="1.000" stroke-linecap="round" stroke-linejoin="round" d="M -2.164 798.935 Q -1.688 800.159 -1.161 803.687 Q -0.634 807.215 -0.282 809.272 Q 0.070 811.329 0.303 812.505 Q 0.537 813.682 0.947 815.602 "></path>
    <path id="STROKE_84fb23dc-fb1e-4314-bda9-24e867ef23bb" opacity="1.000" fill="none" stroke="#f9f9f1" stroke-width="1.600" stroke-opacity="1.000" stroke-linecap="round" stroke-linejoin="round" d="M -16.164 804.935 Q -16.143 805.033 -16.311 808.555 Q -16.479 812.077 -16.183 813.699 Q -15.887 815.321 -15.348 816.289 Q -14.809 817.257 -12.644 817.835 Q -10.478 818.414 -8.659 818.346 Q -6.840 818.279 -4.678 817.871 Q -2.516 817.464 1.392 816.935 "></path>
    <path id="STROKE_ffb47f9f-f323-48a7-bd76-06192c70c457" opacity="1.000" fill="none" stroke="#f9f9f1" stroke-width="1.600" stroke-opacity="1.000" stroke-linecap="round" stroke-linejoin="round" d="M -13.719 823.824 Q -13.779 823.985 -14.648 825.199 Q -15.516 826.412 -17.669 830.596 Q -19.823 834.780 -21.119 837.949 Q -22.416 841.118 -23.203 843.217 Q -23.990 845.317 -24.762 847.432 Q -25.533 849.547 -26.167 851.192 Q -26.802 852.836 -27.169 853.883 Q -27.536 854.930 -28.608 857.602 "></path>
    <path id="STROKE_36fb836f-f603-47b7-9edb-f0197ad471b3" opacity="1.000" fill="none" stroke="#f9f9f1" stroke-width="1.600" stroke-opacity="1.000" stroke-linecap="round" stroke-linejoin="round" d="M -24.608 858.046 Q -24.476 858.211 -21.924 861.984 Q -19.372 865.757 -17.137 868.893 Q -14.901 872.030 -12.993 874.930 Q -11.085 877.830 -9.958 879.614 Q -8.831 881.398 -6.830 884.491 "></path>
    <path id="STROKE_4fcffcb8-305e-441b-91c4-b33c8b8ffa3b" opacity="1.000" fill="none" stroke="#f9f9f1" stroke-width="1.600" stroke-opacity="1.000" stroke-linecap="round" stroke-linejoin="round" d="M -4.608 881.824 Q -4.149 881.252 -2.818 878.807 Q -1.486 876.362 -0.682 875.044 Q 0.122 873.725 3.450 868.782 Q 6.777 863.839 10.464 858.819 Q 14.151 853.799 17.392 849.380 "></path>
    <path id="STROKE_0231f9e8-56c6-4e7e-ba1b-7de135e70577" opacity="1.000" fill="none" stroke="#f9f9f1" stroke-width="1.600" stroke-opacity="1.000" stroke-linecap="round" stroke-linejoin="round" d="M 2.281 823.380 Q 2.710 824.132 4.489 828.724 Q 6.267 833.316 8.410 838.538 Q 10.553 843.760 12.584 848.209 Q 12.987 848.827 13.392 849.824 "></path>
  </g>
</svg>