<?xml version="1.0" encoding="UTF-8" standalone="yes"?>
<svg xmlns="http://www.w3.org/2000/svg" xmlns:xlink="http://www.w3.org/1999/xlink" width="500.817pt" height="333.281pt" version="1.1" viewBox="-268.417 535.924 500.817 333.281">
  <!--
	Exported with Concepts: Smarter Sketching
	Version: 2024.11 on Android 13
	https://concepts.app/
	-->
  <title>Expert Unassignment</title>
  <desc>Drawing exported from Concepts: Smarter Sketching</desc>
  <defs></defs>
  <g id="Pen" opacity="1.000">
    <path id="STROKE_dc2e441a-2f0a-45a4-afb6-efb9eebd6eb9" opacity="1.000" fill="none" stroke="#ffffff" stroke-width="1.600" stroke-opacity="1.000" stroke-linecap="round" stroke-linejoin="round" d="M -254.559 602.034 L -218.859 602.822 "></path>
    <path id="STROKE_e7e12c16-1cb8-4e25-b2d0-34f00a9247a8" opacity="1.000" fill="none" stroke="#ffffff" stroke-width="1.600" stroke-opacity="1.000" stroke-linecap="round" stroke-linejoin="round" d="M -246.422 656.109 Q -245.775 656.784 -242.629 657.122 Q -239.484 657.460 -236.349 657.352 Q -233.214 657.245 -231.050 656.189 Q -228.886 655.134 -227.716 654.504 Q -226.546 653.875 -226.121 654.113 Q -225.695 654.352 -224.909 654.546 Q -224.123 654.740 -223.191 654.009 Q -223.191 653.867 -221.616 655.322 Q -221.222 655.191 -219.909 654.272 "></path>
    <path id="STROKE_383e3416-495c-47a0-baba-d66797ffddd7" opacity="1.000" fill="none" stroke="#ffffff" stroke-width="1.600" stroke-opacity="1.000" stroke-linecap="round" stroke-linejoin="round" d="M -246.684 709.659 Q -246.579 709.724 -243.272 708.549 Q -239.965 707.373 -236.593 706.635 Q -233.221 705.897 -231.544 705.879 Q -229.866 705.861 -229.321 705.465 Q -228.776 705.070 -227.987 704.895 Q -227.198 704.719 -224.372 703.884 "></path>
    <path id="STROKE_b3b2789a-e279-4f0d-ad9f-2c142d071185" opacity="1.000" fill="none" stroke="#ffffff" stroke-width="1.600" stroke-opacity="1.000" stroke-linecap="round" stroke-linejoin="round" d="M -244.847 758.484 Q -245.988 758.488 -245.634 758.484 Q -245.766 758.353 -245.897 757.959 Q -246.687 757.933 -240.294 756.615 Q -233.901 755.297 -229.643 754.069 Q -225.384 752.841 -221.747 753.759 "></path>
    <path id="STROKE_f198ea23-4a50-4fee-9fbe-27c536c4484b" opacity="1.000" fill="none" stroke="#ffffff" stroke-width="1.600" stroke-opacity="1.000" stroke-linecap="round" stroke-linejoin="round" d="M -245.897 807.572 Q -245.491 807.923 -243.438 807.205 Q -241.385 806.486 -238.830 806.556 Q -236.275 806.626 -235.128 806.869 Q -233.981 807.112 -231.369 806.068 Q -228.757 805.023 -226.654 803.840 Q -224.551 802.657 -222.534 805.209 "></path>
    <path id="STROKE_cc96dccf-59db-46c2-b120-d26262bf03c0" opacity="1.000" fill="none" stroke="#ffffff" stroke-width="1.600" stroke-opacity="1.000" stroke-linecap="round" stroke-linejoin="round" d="M -213.084 603.084 L -211.772 857.709 "></path>
    <path id="STROKE_a658cf90-1cc6-47af-8b04-e6bcc7d67060" opacity="1.000" fill="none" stroke="#ffffff" stroke-width="1.600" stroke-opacity="1.000" stroke-linecap="round" stroke-linejoin="round" d="M -261.647 604.397 L -260.597 862.434 "></path>
    <path id="STROKE_80704321-7112-4010-ac2d-df02a1b929a0" opacity="1.000" fill="none" stroke="#ffffff" stroke-width="1.600" stroke-opacity="1.000" stroke-linecap="round" stroke-linejoin="round" d="M -251.409 860.597 Q -251.080 860.686 -250.748 860.563 Q -250.417 860.441 -249.389 860.491 L -247.853 860.101 Q -246.870 860.004 -243.686 860.703 Q -243.152 860.560 -241.560 860.190 Q -239.969 859.821 -237.459 859.610 Q -234.949 859.398 -232.564 859.225 Q -230.179 859.052 -229.409 859.057 Q -228.638 859.062 -227.131 858.974 Q -225.624 858.885 -225.054 858.824 Q -224.485 858.764 -220.959 858.497 "></path>
    <path id="STROKE_6bbbb8f9-f447-4333-8087-de836946c0e9" opacity="1.000" fill="none" stroke="#ffffff" stroke-width="1.600" stroke-opacity="1.000" stroke-linecap="round" stroke-linejoin="round" d="M -247.209 632.747 Q -247.060 632.635 -232.772 616.734 Q -232.072 616.075 -231.817 619.615 Q -231.562 623.155 -231.831 625.082 Q -232.101 627.009 -231.747 629.089 Q -231.393 631.169 -231.197 633.534 "></path>
    <path id="STROKE_3df3ba4e-437c-4481-ae20-fd2fc10f4ed3" opacity="1.000" fill="none" stroke="#ffffff" stroke-width="1.600" stroke-opacity="1.000" stroke-linecap="round" stroke-linejoin="round" d="M -233.297 676.059 Q -233.149 675.075 -233.240 673.389 Q -233.330 671.703 -233.478 670.845 Q -233.625 669.987 -234.351 669.281 Q -235.076 668.575 -235.834 668.140 Q -236.591 667.706 -236.876 667.538 Q -237.161 667.370 -237.695 667.608 Q -238.230 667.846 -238.337 667.959 Q -238.444 668.073 -240.208 668.633 Q -241.972 669.194 -242.286 672.738 Q -242.599 676.282 -242.568 678.367 Q -242.538 680.453 -242.851 681.631 Q -243.165 682.810 -242.575 684.571 Q -241.985 686.332 -241.751 687.290 Q -241.516 688.249 -240.124 688.729 Q -238.732 689.208 -236.568 689.115 Q -234.404 689.022 -232.604 688.546 Q -230.804 688.069 -229.220 685.394 Q -227.636 682.719 -227.469 680.673 Q -227.302 678.628 -227.579 677.251 Q -227.855 675.874 -229.397 674.948 Q -230.938 674.023 -231.936 673.557 Q -232.933 673.092 -233.385 671.444 Q -233.838 669.796 -235.791 668.184 Q -236.234 669.307 -236.441 671.226 Q -236.649 673.145 -235.134 675.009 "></path>
    <path id="STROKE_e57d67b3-425e-4d3c-9183-d187ce2f865b" opacity="1.000" fill="none" stroke="#ffffff" stroke-width="1.600" stroke-opacity="1.000" stroke-linecap="round" stroke-linejoin="round" d="M -243.797 734.072 Q -243.928 734.072 -244.059 734.072 Q -243.375 733.119 -243.294 733.078 Q -243.213 733.036 -243.229 733.039 Q -243.244 733.043 -243.259 733.226 Q -243.275 733.409 -235.003 721.734 Q -234.885 722.940 -231.066 718.453 Q -231.154 718.206 -230.732 718.862 Q -230.311 719.518 -230.255 724.451 Q -230.200 729.384 -228.309 736.172 "></path>
    <path id="STROKE_45dccc97-1171-445b-aa09-12bd4397d7fb" opacity="1.000" fill="none" stroke="#ffffff" stroke-width="1.600" stroke-opacity="1.000" stroke-linecap="round" stroke-linejoin="round" d="M -233.822 778.172 Q -233.786 778.841 -233.573 777.172 Q -233.361 775.503 -233.473 774.605 Q -233.584 773.707 -233.750 773.483 Q -233.916 773.259 -233.965 772.876 Q -234.014 772.494 -234.664 771.558 Q -235.314 770.622 -236.826 771.232 Q -238.338 771.841 -239.858 773.348 Q -241.377 774.855 -241.772 777.542 Q -242.168 780.228 -242.595 782.426 Q -243.022 784.625 -242.643 786.803 Q -242.265 788.982 -241.797 790.120 Q -241.330 791.258 -239.615 791.756 Q -237.901 792.254 -236.347 792.208 Q -234.794 792.162 -233.521 791.560 Q -232.249 790.958 -231.240 789.791 Q -230.231 788.624 -230.128 787.908 Q -230.026 787.191 -229.934 786.216 Q -229.842 785.241 -229.940 784.207 Q -230.038 783.174 -230.538 781.796 Q -231.038 780.418 -231.210 779.227 Q -231.383 778.036 -234.478 773.841 Q -234.438 773.618 -234.084 775.547 "></path>
    <path id="STROKE_880a948a-23e3-49ee-93fc-111676b0051c" opacity="1.000" fill="none" stroke="#ffffff" stroke-width="1.600" stroke-opacity="1.000" stroke-linecap="round" stroke-linejoin="round" d="M -245.372 842.222 Q -245.672 842.672 -245.897 843.009 Q -245.897 842.878 -245.897 842.747 Q -245.533 843.547 -243.564 840.498 Q -241.595 837.450 -240.486 835.204 Q -239.376 832.959 -238.286 832.253 Q -237.195 831.548 -232.247 826.209 Q -232.059 826.444 -232.425 830.856 Q -232.791 835.269 -233.050 838.199 Q -233.308 841.130 -232.931 842.706 Q -232.553 844.282 -232.035 845.063 Q -231.516 845.843 -230.934 845.634 "></path>
    <path id="STROKE_c7a76ae9-a02b-4cad-bb19-e9d62b83637b" opacity="1.000" fill="none" stroke="#ffffff" stroke-width="1.600" stroke-opacity="1.000" stroke-linecap="round" stroke-linejoin="round" d="M -192.140 725.749 Q -160.883 701.058 -141.798 692.966 Q -122.713 684.874 -78.842 678.283 Q -34.971 671.693 7.222 678.071 Q 49.416 684.449 127.860 724.193 "></path>
    <circle id="STROKE_f66a7aba-6be2-4c37-86b0-6e4f418b96f5" opacity="1.000" fill="#ffffff" stroke="#ffffff" stroke-width="0.1" stroke-opacity="1.000" fill-opacity="1.000" cx="134.304" cy="718.860" r="0.800"></circle>
    <path id="STROKE_d724a543-4158-43f2-b44d-4ac26aa6d985" opacity="1.000" fill="none" stroke="#ffffff" stroke-width="1.600" stroke-opacity="1.000" stroke-linecap="round" stroke-linejoin="round" d="M 134.082 718.416 Q 133.536 717.813 128.082 730.860 Q 128.193 730.971 128.304 731.305 "></path>
    <path id="STROKE_13cdf534-0467-4d6d-b452-849be61cc78d" opacity="1.000" fill="none" stroke="#ffffff" stroke-width="1.600" stroke-opacity="1.000" stroke-linecap="round" stroke-linejoin="round" d="M 134.082 717.305 Q 134.857 718.031 135.048 720.266 Q 135.239 722.501 140.637 727.305 Q 140.789 728.491 138.167 729.463 Q 135.545 730.434 134.069 730.911 Q 132.593 731.388 131.756 732.166 Q 130.919 732.943 130.526 734.193 "></path>
    <path id="STROKE_d412b956-1240-479a-9d41-432d6e17efc5" opacity="1.000" fill="none" stroke="#ffffff" stroke-width="1.600" stroke-opacity="1.000" stroke-linecap="round" stroke-linejoin="round" d="M 182.843 601.827 L 218.543 602.614 "></path>
    <path id="STROKE_719cb0a2-7d88-48ba-8a22-91129e5b4628" opacity="1.000" fill="none" stroke="#ffffff" stroke-width="1.600" stroke-opacity="1.000" stroke-linecap="round" stroke-linejoin="round" d="M 190.980 655.902 Q 191.628 656.576 194.773 656.914 Q 197.919 657.252 201.054 657.145 Q 204.188 657.037 206.352 655.982 Q 208.517 654.926 209.686 654.297 Q 210.856 653.667 211.282 653.906 Q 211.707 654.145 212.493 654.339 Q 213.279 654.532 214.212 653.802 Q 214.211 653.660 215.787 655.114 Q 216.180 654.983 217.493 654.064 "></path>
    <path id="STROKE_2a9673ad-908c-4479-89bb-074e57359e88" opacity="1.000" fill="none" stroke="#ffffff" stroke-width="1.600" stroke-opacity="1.000" stroke-linecap="round" stroke-linejoin="round" d="M 190.718 709.452 Q 190.823 709.517 194.130 708.341 Q 197.437 707.165 200.809 706.427 Q 204.181 705.690 205.859 705.671 Q 207.536 705.653 208.081 705.258 Q 208.626 704.862 209.415 704.687 Q 210.205 704.512 213.030 703.677 "></path>
    <path id="STROKE_d6d182ac-4257-4406-a8b7-511c453473d4" opacity="1.000" fill="none" stroke="#ffffff" stroke-width="1.600" stroke-opacity="1.000" stroke-linecap="round" stroke-linejoin="round" d="M 192.555 758.277 Q 191.415 758.280 191.768 758.277 Q 191.637 758.146 191.505 757.752 Q 190.716 757.726 197.108 756.408 Q 203.501 755.089 207.760 753.862 Q 212.018 752.634 215.655 753.552 "></path>
    <path id="STROKE_19f3fc8e-b98c-4738-8d21-49b22bc094d9" opacity="1.000" fill="none" stroke="#ffffff" stroke-width="1.600" stroke-opacity="1.000" stroke-linecap="round" stroke-linejoin="round" d="M 191.505 807.364 Q 191.912 807.715 193.964 806.997 Q 196.017 806.279 198.572 806.348 Q 201.127 806.418 202.274 806.661 Q 203.421 806.904 206.033 805.860 Q 208.645 804.816 210.748 803.633 Q 212.852 802.450 214.868 805.002 "></path>
    <path id="STROKE_69b5b3cb-9df7-43cf-abeb-dc965f14cc5f" opacity="1.000" fill="none" stroke="#ffffff" stroke-width="1.600" stroke-opacity="1.000" stroke-linecap="round" stroke-linejoin="round" d="M 224.318 602.877 L 225.630 857.502 "></path>
    <path id="STROKE_5ce8f858-ffe6-41d5-802d-10d78b8ea422" opacity="1.000" fill="none" stroke="#ffffff" stroke-width="1.600" stroke-opacity="1.000" stroke-linecap="round" stroke-linejoin="round" d="M 175.755 604.189 L 176.805 862.227 "></path>
    <path id="STROKE_8601935b-0bc8-4269-8ea6-b1fb6d5e44e4" opacity="1.000" fill="none" stroke="#ffffff" stroke-width="1.600" stroke-opacity="1.000" stroke-linecap="round" stroke-linejoin="round" d="M 185.993 860.389 Q 186.323 860.479 186.654 860.356 Q 186.986 860.233 188.014 860.284 L 189.550 859.893 Q 190.533 859.796 193.717 860.495 Q 194.250 860.352 195.842 859.983 Q 197.433 859.614 199.943 859.402 Q 202.453 859.190 204.838 859.017 Q 207.223 858.844 207.994 858.849 Q 208.764 858.855 210.271 858.766 Q 211.779 858.677 212.348 858.617 Q 212.918 858.556 216.443 858.289 "></path>
    <path id="STROKE_eca7c1c8-890e-46d0-b687-2a3bed3aed40" opacity="1.000" fill="none" stroke="#ffffff" stroke-width="1.600" stroke-opacity="1.000" stroke-linecap="round" stroke-linejoin="round" d="M 190.193 632.539 Q 190.342 632.427 204.630 616.527 Q 205.330 615.867 205.585 619.407 Q 205.841 622.947 205.571 624.874 Q 205.301 626.801 205.655 628.881 Q 206.009 630.961 206.205 633.327 "></path>
    <path id="STROKE_1c7911af-3beb-4da3-8e3e-0c422e77e80c" opacity="1.000" fill="none" stroke="#ffffff" stroke-width="1.600" stroke-opacity="1.000" stroke-linecap="round" stroke-linejoin="round" d="M 204.105 675.852 Q 204.253 674.867 204.163 673.181 Q 204.072 671.495 203.925 670.637 Q 203.777 669.779 203.052 669.073 Q 202.326 668.367 201.569 667.933 Q 200.811 667.498 200.526 667.330 Q 200.241 667.163 199.707 667.400 Q 199.173 667.638 199.065 667.752 Q 198.958 667.866 197.194 668.426 Q 195.430 668.986 195.117 672.530 Q 194.803 676.074 194.834 678.160 Q 194.865 680.245 194.551 681.424 Q 194.237 682.602 194.827 684.363 Q 195.417 686.124 195.652 687.083 Q 195.887 688.041 197.278 688.521 Q 198.670 689.001 200.834 688.908 Q 202.998 688.815 204.798 688.338 Q 206.599 687.862 208.183 685.187 Q 209.766 682.512 209.933 680.466 Q 210.100 678.420 209.824 677.043 Q 209.547 675.667 208.005 674.741 Q 206.464 673.815 205.467 673.350 Q 204.470 672.884 204.017 671.236 Q 203.564 669.589 201.612 667.977 Q 201.169 669.100 200.961 671.019 Q 200.753 672.938 202.268 674.802 "></path>
    <path id="STROKE_b07c0f83-d7fc-4317-8299-0b89dc002e07" opacity="1.000" fill="none" stroke="#ed5d47" stroke-width="1.600" stroke-opacity="1.000" stroke-linecap="round" stroke-linejoin="round" d="M 181.860 558.249 Q 181.749 558.249 181.415 558.471 Q 182.379 558.871 184.510 562.870 Q 186.641 566.870 188.974 569.757 Q 191.307 572.644 192.646 573.884 Q 193.985 575.123 194.235 576.359 Q 194.485 577.595 196.526 578.916 Q 196.415 579.027 195.193 578.916 "></path>
    <path id="STROKE_d5ba72fc-4383-4da3-80df-bb02caf06b48" opacity="1.000" fill="none" stroke="#ed5d47" stroke-width="1.600" stroke-opacity="1.000" stroke-linecap="round" stroke-linejoin="round" d="M 178.526 581.082 Q 177.468 580.544 196.526 557.582 "></path>
    <path id="STROKE_34204d73-4906-4ae9-a677-680322f69511" opacity="1.000" fill="none" stroke="#ed5d47" stroke-width="1.600" stroke-opacity="1.000" stroke-linecap="round" stroke-linejoin="round" d="M 207.860 542.693 Q 207.316 543.223 208.903 546.469 Q 210.489 549.716 211.123 552.281 Q 211.757 554.846 213.637 557.360 "></path>
    <path id="STROKE_0538104d-321a-4bab-9d2d-10ddc26af33a" opacity="1.000" fill="none" stroke="#ed5d47" stroke-width="1.600" stroke-opacity="1.000" stroke-linecap="round" stroke-linejoin="round" d="M 204.082 556.916 Q 205.256 558.299 212.637 545.471 Q 213.183 545.356 213.034 549.207 Q 212.885 553.058 214.304 558.471 "></path>
    <path id="STROKE_cc9670e3-7b1f-4467-95a4-1f27aa9cf61c" opacity="1.000" fill="none" stroke="#ed5d47" stroke-width="1.600" stroke-opacity="1.000" stroke-linecap="round" stroke-linejoin="round" d="M 202.526 552.916 Q 202.183 553.989 205.413 553.022 Q 208.642 552.054 210.665 551.521 Q 212.689 550.987 214.749 551.582 "></path>
    <path id="STROKE_f280c3a2-8628-466a-96fd-e3f3b43c745c" opacity="1.000" fill="none" stroke="#ed5d47" stroke-width="1.600" stroke-opacity="1.000" stroke-linecap="round" stroke-linejoin="round" d="M 193.207 736.773 Q 193.184 736.769 193.291 736.761 Q 193.397 736.754 193.564 736.771 Q 193.730 736.788 194.085 736.904 Q 194.440 737.020 194.952 737.365 Q 195.463 737.709 195.971 738.093 Q 196.479 738.478 197.022 738.730 Q 197.565 738.982 198.149 739.100 Q 198.732 739.217 200.237 739.173 Q 201.742 739.128 203.221 737.624 Q 204.700 736.119 205.593 733.825 Q 206.485 731.531 206.710 729.740 Q 206.935 727.950 206.532 726.719 Q 206.129 725.489 205.813 724.519 Q 205.497 723.549 203.203 721.878 "></path>
    <path id="STROKE_31854da0-c765-467d-acf7-daf69e206c27" opacity="1.000" fill="none" stroke="#ed5d47" stroke-width="1.600" stroke-opacity="1.000" stroke-linecap="round" stroke-linejoin="round" d="M 203.987 722.466 Q 203.955 722.651 203.996 721.802 Q 204.038 720.953 202.031 720.763 Q 200.023 720.574 198.602 720.373 Q 197.180 720.172 196.473 720.849 Q 195.765 721.526 194.606 722.757 Q 193.446 723.987 192.811 726.130 Q 192.175 728.274 192.058 729.612 Q 191.942 730.951 192.020 731.429 Q 192.097 731.907 192.180 732.901 Q 192.263 733.895 193.010 734.942 Q 193.756 735.988 195.559 736.185 "></path>
    <path id="STROKE_3dabe73a-f714-4438-86a0-28c72d8f716d" opacity="1.000" fill="none" stroke="#ed5d47" stroke-width="1.600" stroke-opacity="1.000" stroke-linecap="round" stroke-linejoin="round" d="M 194.383 782.832 Q 194.285 782.930 193.795 783.420 Q 194.291 782.644 197.040 780.583 Q 199.788 778.523 204.771 771.660 Q 205.384 771.876 204.752 775.299 Q 204.120 778.722 204.164 780.943 Q 204.208 783.165 204.643 784.367 Q 205.078 785.570 205.375 785.905 Q 205.672 786.240 206.143 786.555 "></path>
    <path id="STROKE_4c685cd8-f3f8-4077-b14a-886822dc3d80" opacity="1.000" fill="none" stroke="#ed5d47" stroke-width="1.600" stroke-opacity="1.000" stroke-linecap="round" stroke-linejoin="round" d="M 203.987 828.890 Q 204.265 827.783 204.213 827.918 Q 204.162 828.053 204.175 828.000 Q 204.187 827.947 204.140 827.524 Q 204.092 827.101 204.004 827.115 Q 203.916 827.128 203.918 826.703 Q 203.920 826.278 200.557 824.284 Q 199.566 824.832 198.279 825.915 Q 196.992 826.999 196.036 830.063 Q 195.081 833.127 194.884 835.806 Q 194.687 838.484 194.832 840.378 Q 194.977 842.271 196.042 843.546 Q 197.106 844.821 198.256 845.247 Q 199.407 845.672 200.362 845.620 Q 201.318 845.567 202.264 845.229 Q 203.210 844.891 203.616 844.708 Q 204.022 844.525 204.324 844.207 Q 204.626 843.889 204.852 843.450 Q 205.077 843.012 205.747 842.127 Q 206.416 841.242 206.880 838.643 Q 207.344 836.044 204.771 829.282 "></path>
  </g>
</svg>