<?xml version="1.0" encoding="utf-8"?>
<svg xmlns="http://www.w3.org/2000/svg" xmlns:xlink="http://www.w3.org/1999/xlink" version= "1.1" width="700px" height="700px" viewBox="930 432 700 700">
<g id="layer1">
<g style="fill:rgb(254,254,254); fill-opacity:1.0; stroke-linejoin: miter">
</g>
<g style="fill:rgb(254,254,254); fill-opacity:1.0; stroke-linejoin: miter">
</g>
<g style="fill:rgb(254,254,254); fill-opacity:1.0; stroke-linejoin: miter">
</g>
<g style="fill:rgb(254,254,254); fill-opacity:1.0; stroke-linejoin: miter">
<path d="M1257.4446,728.1324Q1258.2507,728.1324,1258.642,728.66144L1258.642,728.66144C1258.3085,728.33075,1257.8524,728.136,1257.3672,728.136C1257.3162,728.136,1257.2648,728.1381,1257.2133,728.1425Q1257.3329,728.1324,1257.4446,728.1324 Z M1312.3511,714.7992Q1290.9874,714.7992,1271.8406,721.15594C1271.7921,721.17206,1271.7445,721.1901,1271.6975,721.21027Q1257.8429,727.15106,1256.2888,728.2741L1256.2887,728.2741Q1255.8265,728.60803,1255.5995,729.019L1255.5869,729.019Q1249.938,733.3144,1240.5405,742.0575C1240.489,742.1054,1240.4401,742.1565,1240.3945,742.2101Q1216.5845,770.2072,1217.9554,813.49634C1217.9865,814.47626,1218.7908,815.2496,1219.7642,815.2496C1219.7834,815.2496,1219.803,815.24927,1219.8225,815.24866C1220.8219,815.217,1221.6064,814.38116,1221.5748,813.3817Q1220.2513,771.59357,1243.0388,744.6907L1243.0264,744.6907Q1252.8577,735.5449,1258.4451,731.4008C1258.6237,731.2684,1258.7722,731.1077,1258.8877,730.9287L1258.8751,730.9287Q1261.2305,729.6398,1273.0104,724.5872L1272.9977,724.5872Q1291.5819,718.4203,1312.353,718.4203Q1314.0813,718.4203,1315.8247,718.46295L1315.8116,718.46295Q1322.433,719.61176,1323.4093,720.11035L1323.402,720.11035C1323.5134,720.1833,1323.6328,720.2438,1323.7578,720.29065Q1336.9836,725.25037,1338.9814,727.61365L1338.9681,727.61365Q1339.0127,727.7444,1339.0707,727.8766L1339.0708,727.8768Q1340.1737,730.38916,1350.0372,737.98975L1350.0238,737.98975L1356.1364,745.2819L1356.1227,745.2819Q1361.1166,752.9988,1368.4957,763.2957L1368.482,763.2957Q1377.6538,780.9671,1380.7919,818.65137C1380.8706,819.59674,1381.6622,820.31177,1382.5941,820.31177C1382.6445,820.31177,1382.6953,820.3097,1382.7465,820.3054C1383.7429,820.2224,1384.4835,819.34735,1384.4005,818.3508Q1381.1855,779.74335,1371.5958,761.43524C1371.5568,761.36066,1371.5126,761.289,1371.4635,761.2206Q1364.0413,750.8648,1359.0574,743.1514C1359.0167,743.08856,1358.9723,743.0283,1358.9242,742.97095L1352.6476,735.48303C1352.5634,735.3825,1352.4683,735.29126,1352.3643,735.21124Q1343.3807,728.29785,1342.4341,726.5191L1342.4207,726.5191C1342.3799,726.2565,1342.2817,726.0054,1342.1322,725.78394Q1339.9158,722.50037,1325.242,716.98L1325.2286,716.98Q1325.146,716.9313,1325.056,716.8854L1325.056,716.8854Q1323.5809,716.1322,1316.2965,714.8719C1316.2096,714.8569,1316.1218,714.84827,1316.0336,714.846Q1314.1842,714.7992,1312.3511,714.7992 Z"/>
</g>
<g style="fill:rgb(254,254,254); fill-opacity:1.0; stroke-linejoin: miter">
<path d="M1341.8519,637.64L1341.7137,637.6766L1337.71,638.38153Q1338.2402,638.7509,1338.5703,639.1608L1341.4564,644.551Q1343.8191,651.73175,1344.5573,658.69366Q1345.1832,670.6626,1341.9774,678.89417Q1338.8596,684.6921,1336.3756,687.26807Q1335.1216,688.81445,1329.7983,691.8184L1325.107,696.1358Q1319.1266,699.37146,1313.6576,700.48016Q1304.0881,703.3019,1295.4397,702.31L1294.0287,702.1371L1284.426,699.98895Q1279.4886,698.3836,1276.3334,696.2726Q1270.7311,690.5946,1269.0961,686.7626Q1266.7267,680.9885,1266.7688,679.6038Q1266.3157,677.0737,1266.2926,674.35236Q1266.0221,663.243,1267.427,657.8777L1267.797,656.6226L1274.6615,641.4766L1275.4664,640.38116Q1273.1545,640.53503,1271.3296,640.0843L1264.4436,655.26337Q1261.6257,664.98724,1263.2046,680.27435Q1264.2136,685.9244,1267.1289,690.72754Q1270.5952,695.89526,1273.7632,698.75854Q1277.858,701.71533,1283.327,703.4395L1293.3226,705.6884L1294.9655,705.90076Q1300.5123,706.46985,1304.697,705.9502Q1305.1229,706.2091,1316.8491,703.3906Q1323.116,701.6382,1327.1914,699.09644L1331.9307,694.7551Q1336.4464,692.13025,1337.4913,691.1527Q1342.0493,687.3812,1346.0242,678.4136Q1347.7517,672.2321,1347.7772,670.4234Q1348.5917,663.44763,1348.1567,658.29767Q1347.8473,653.66095,1345.4188,645.09784L1344.7144,642.96515L1341.8519,637.64 Z"/>
</g>
<g style="fill:rgb(254,254,254); fill-opacity:1.0; stroke-linejoin: miter">
<path d="M1293.1461,653.72107Q1294.6722,653.72107,1296.1879,654.6174L1296.1875,654.6174Q1297.5767,655.46655,1297.8224,656.5218L1297.8094,656.5218Q1297.9832,659.29724,1297.0133,661.19464L1297.0048,661.19464Q1295.2924,663.89166,1292.8729,665.83923L1292.733,665.96466L1292.7375,665.9606L1292.7245,665.9606Q1290.3738,667.8779,1289.6698,668.08325L1289.6571,668.08325C1289.5266,668.1072,1289.3994,668.1453,1289.2778,668.19684L1289.265,668.19684Q1288.9299,668.24384,1288.1265,668.24384Q1287.5493,668.24384,1286.7306,668.2196L1286.6521,668.219Q1286.6487,668.21906,1286.6451,668.21906Q1286.4493,668.21906,1286.0953,668.0732L1286.0825,668.0732Q1284.8263,667.2795,1284.2957,666.0374L1284.2928,666.0374Q1282.8391,661.918,1283.0637,660.60394C1283.0845,660.48254,1283.0928,660.3593,1283.0885,660.2362Q1283.0491,659.10205,1284.7689,655.88055L1284.7559,655.88055Q1285.6663,654.5636,1287.0792,653.76587C1287.0994,653.7545,1287.1191,653.7428,1287.1388,653.7307L1287.1516,653.7307Q1287.6649,653.7431,1288.9304,654.38776L1288.9175,654.38776Q1289.1655,654.7856,1289.549,655.9079L1289.549,655.90784C1289.8059,656.6601,1290.509,657.13354,1291.2621,657.13354C1291.4562,657.13354,1291.6536,657.1021,1291.8475,657.0358C1292.7938,656.7125,1293.2987,655.6834,1292.9755,654.7371Q1292.7925,654.2014,1292.6078,653.7503L1292.5948,653.7503Q1292.8706,653.72107,1293.1461,653.72107 Z M1293.1797,650.0926Q1292.11,650.0926,1291.0234,650.3565C1290.6456,650.4483,1290.3245,650.6524,1290.087,650.92474L1290.087,650.92474Q1288.3358,650.11383,1287.0619,650.11383Q1286.8489,650.11383,1286.6492,650.13654L1286.6488,650.13654Q1285.7919,650.23395,1285.1466,650.70776L1285.1338,650.70776Q1283.1073,651.8976,1281.7773,653.82135C1281.7394,653.8763,1281.7046,653.93304,1281.6729,653.9919Q1279.4357,658.14246,1279.4677,660.28485L1279.455,660.28485Q1279.2217,662.5486,1280.878,667.2424L1280.9072,667.3192Q1281.8939,669.7568,1284.2653,671.20715C1284.3293,671.2464,1284.396,671.2816,1284.4645,671.31256Q1285.6321,671.8401,1286.6484,671.8401L1286.6567,671.8401Q1287.3672,671.8607,1287.9502,671.8607Q1289.4657,671.8607,1290.1196,671.7211Q1290.3344,671.6753,1290.5231,671.6053L1290.5101,671.6053Q1290.5962,671.585,1290.6838,671.55945L1290.684,671.55945Q1292.1151,671.14197,1295.1438,668.6599L1295.1434,668.6599Q1298.1006,666.2794,1300.1615,662.9773C1300.1887,662.9337,1300.2144,662.8884,1300.2377,662.8427Q1301.708,659.96606,1301.4053,656.03577C1301.399,655.95447,1301.3873,655.8739,1301.3702,655.7942Q1300.8097,653.18756,1298.0492,651.51135L1298.0311,651.50055Q1295.6503,650.0926,1293.1797,650.0926 Z"/>
</g>
<g style="fill:rgb(254,254,254); fill-opacity:1.0; stroke-linejoin: miter">
<path d="M1326.501,652.8638Q1326.5543,652.8638,1326.607,652.8652L1326.5938,652.8652Q1326.7217,653.2486,1326.8737,653.7617L1326.8737,653.76166C1327.1067,654.54895,1327.8278,655.0587,1328.609,655.0587C1328.7793,655.0587,1328.9523,655.03455,1329.1238,654.98376C1329.1244,654.9836,1329.1251,654.9834,1329.1257,654.98315L1329.139,654.98315Q1329.3357,655.71783,1329.3728,656.70233L1329.3595,656.70233Q1328.998,659.7345,1327.986,663.74475L1327.9858,663.74475Q1327.8353,664.33215,1327.6599,664.565L1327.5995,664.65015L1327.5995,664.65015C1327.5878,664.66766,1327.5764,664.6853,1327.5654,664.7031Q1325.565,667.9407,1322.9645,667.9407Q1322.7836,667.9407,1322.5999,667.925L1322.5865,667.925Q1321.8773,667.5345,1319.8237,666.01715L1319.7861,665.99005L1319.7849,665.9892L1319.7871,665.9892Q1319.1895,665.52606,1318.8314,664.7596L1318.8064,664.7085L1318.8064,664.7085L1318.8053,664.706Q1318.727,664.5391,1318.5708,663.9669L1318.5607,663.93274L1318.5607,663.93274Q1318.4817,663.62115,1318.2892,662.0715L1318.2892,662.07153C1318.2719,661.9324,1318.2385,661.7956,1318.1897,661.6642Q1317.7745,660.5465,1317.6907,660.13617L1317.6775,660.13617Q1317.751,658.4442,1318.0713,657.2224L1318.0581,657.2224Q1319.7229,654.4072,1321.1807,653.0202L1321.1938,653.0202C1321.5271,653.59894,1322.1357,653.9268,1322.764,653.9268C1323.0531,653.9268,1323.3464,653.85736,1323.619,653.711Q1325.1968,652.8638,1326.501,652.8638 Z M1322.1974,667.8968Q1322.3043,667.8968,1322.4144,667.9149L1322.4011,667.9149C1321.8508,667.91626,1321.3322,668.1685,1320.9911,668.59576L1320.9911,668.59576Q1321.5336,667.8968,1322.1974,667.8968 Z M1324.0482,647.9401Q1323.7384,647.9401,1323.47,647.98083L1323.4702,647.98083Q1323.1472,648.0298,1322.8599,648.1329L1322.8466,648.1329Q1318.7786,648.82074,1314.8401,655.5515C1314.7659,655.6783,1314.7074,655.81335,1314.685,655.8933L1314.6848,655.89404L1314.6656,655.9552Q1314.156,657.6859,1314.0582,660.0145L1314.0575,660.03485Q1314.051,660.24554,1314.0803,660.4828L1314.0804,660.4837Q1314.1725,661.2261,1314.7418,662.7805L1314.7288,662.7805Q1314.9263,664.33246,1315.0507,664.8229L1315.0507,664.8229Q1315.0735,664.91315,1315.0989,664.99286L1315.0974,664.99286Q1315.3247,665.8118,1315.5262,666.24225L1315.5264,666.24225Q1315.554,666.30145,1315.5815,666.3549L1315.5804,666.3549Q1316.3333,667.93054,1317.6636,668.92346L1317.7083,668.95575L1317.7074,668.95575Q1320.4285,670.9643,1321.3928,671.36633Q1321.9427,671.5956,1322.4099,671.5956Q1322.5906,671.5956,1322.7589,671.5613L1322.7722,671.5613Q1322.9054,671.5655,1323.0372,671.5655Q1327.5577,671.5655,1330.6134,666.6592L1330.6122,666.6592L1330.6124,666.6588L1330.6145,666.6588Q1331.1823,665.86346,1331.4957,664.6359L1331.497,664.63086Q1332.6057,660.2375,1332.9832,656.89C1332.993,656.80255,1332.9965,656.7142,1332.9935,656.6262Q1332.8268,651.67053,1329.5497,649.9146C1329.51,649.8933,1329.4695,649.87354,1329.4283,649.8553Q1329.2781,649.78864,1329.1265,649.7291L1329.1132,649.7291Q1328.5237,648.90784,1327.716,648.7741L1327.7026,648.7741Q1325.4509,647.9401,1324.0482,647.9401 Z"/>
</g>
<g style="fill:rgb(254,254,254); fill-opacity:1.0; stroke-linejoin: miter">
<path d="M1310.6882,653.20526Q1310.0422,653.20526,1309.359,653.3108L1309.2816,653.32446Q1305.9092,653.9963,1303.6832,657.57227C1303.1548,658.42114,1303.4147,659.53766,1304.2635,660.0661C1304.5613,660.25146,1304.892,660.33984,1305.2186,660.33984C1305.8234,660.33984,1306.4143,660.037,1306.7574,659.48584Q1308.1298,657.2813,1309.9237,656.8894L1309.9117,656.8894Q1310.3168,656.82684,1310.6838,656.82684Q1311.3016,656.82684,1311.8124,657.0039C1311.9082,657.0371,1312.0065,657.06226,1312.1066,657.079L1312.0935,657.079Q1312.6094,657.2658,1314.0942,658.4402C1314.4268,658.7031,1314.8229,658.83075,1315.2162,658.83075C1315.7507,658.83075,1316.28,658.5951,1316.6375,658.14325C1317.2578,657.35895,1317.1249,656.2203,1316.3406,655.6Q1314.2886,653.977,1313.1592,653.6174L1313.1593,653.6174Q1313.0325,653.57697,1312.9089,653.54803L1312.8958,653.54803Q1311.8524,653.20526,1310.6882,653.20526 Z"/>
</g>
<g style="fill:rgb(254,254,254); fill-opacity:1.0; stroke-linejoin: miter">
<path d="M1264.5829,651.01263L1264.5829,651.01263C1264.717,651.2183,1264.8931,651.3969,1265.103,651.5353C1265.402,651.73224,1265.7489,651.83405,1266.0995,651.83405C1266.1488,651.83405,1266.1984,651.83203,1266.2478,651.82794L1266.2605,651.82794Q1266.0646,651.86694,1265.8854,651.86694Q1265.0459,651.86694,1264.5702,651.01263 Z M1267.9608,648.0441Q1266.6986,648.0441,1265.9198,648.2046L1265.9071,648.2046Q1265.697,648.23224,1265.4673,648.29706Q1264.6816,648.51874,1260.6658,650.2302C1260.5809,650.26636,1260.4991,650.3089,1260.4208,650.35754Q1257.2909,652.30035,1257.1973,656.413C1257.1746,657.4127,1257.9666,658.2415,1258.9662,658.2643C1258.9802,658.2646,1258.9943,658.2648,1259.0082,658.2648C1259.9889,658.2648,1260.795,657.4811,1260.8174,656.4954Q1260.8643,654.4366,1262.2056,653.51556L1262.193,653.51556Q1265.5656,652.0793,1266.3265,651.8213L1266.314,651.8213C1266.4148,651.80927,1266.5154,651.78864,1266.6143,651.7593Q1266.9648,651.6553,1267.8219,651.6553Q1268.5632,651.6553,1269.6835,651.7331L1269.6793,651.7331Q1270.5781,651.81635,1270.9908,652.02625L1271.003,652.0324Q1273.0471,653.0527,1273.7411,653.6294L1273.7405,653.6294L1277.833,657.18524L1277.8202,657.18524Q1278.0535,657.5094,1278.1447,658.3476C1278.2456,659.27515,1279.0303,659.9625,1279.9424,659.9625C1280.0078,659.9625,1280.0739,659.959,1280.1404,659.9518C1281.1344,659.8437,1281.8527,658.9502,1281.7445,657.9561Q1281.5082,655.7827,1280.3667,654.599C1280.3297,654.56067,1280.291,654.524,1280.2509,654.4891L1276.0858,650.87024L1276.0555,650.8445Q1275.0416,650.00183,1272.6326,648.7986L1272.6324,648.7986Q1271.5897,648.26825,1269.9701,648.12354L1269.9344,648.12067Q1268.8324,648.0441,1267.9608,648.0441 Z"/>
</g>
<g style="fill:rgb(254,254,254); fill-opacity:1.0; stroke-linejoin: miter">
<path d="M1346.2865,643.7048Q1345.8696,643.7048,1345.4406,643.7268C1345.3811,643.72986,1345.3218,643.73584,1345.263,643.74475Q1340.8647,644.40924,1338.4801,646.0804L1338.4667,646.0804Q1338.317,646.15826,1338.1678,646.2612L1338.1676,646.2613Q1337.0946,647.0023,1332.8431,651.62354L1332.8429,651.62354Q1331.5199,653.0231,1331.1931,654.3115C1330.9473,655.28076,1331.5338,656.2658,1332.503,656.5116C1332.6523,656.54944,1332.8021,656.56757,1332.9495,656.56757C1333.7583,656.56757,1334.4951,656.02155,1334.7031,655.20166Q1334.7997,654.821,1335.488,654.0965L1335.5079,654.0752Q1339.2592,649.99774,1340.131,649.3113L1340.1176,649.3113C1340.2421,649.25745,1340.3606,649.1895,1340.4708,649.1085Q1342.1235,647.89404,1345.7085,647.3398L1345.6951,647.3398Q1345.996,647.32587,1346.2867,647.32587Q1347.1437,647.32587,1347.9125,647.4468L1347.8989,647.4468Q1348.2974,647.59845,1348.7133,648.0459L1348.7625,648.0968Q1351.8829,651.20215,1351.7056,653.0771C1351.6113,654.0726,1352.342,654.95593,1353.3375,655.0501C1353.3955,655.0556,1353.4531,655.0583,1353.5101,655.0583C1354.4332,655.0583,1355.2218,654.35565,1355.3105,653.41815Q1355.6471,649.8624,1351.3677,645.58093L1351.3658,645.58093Q1350.2244,644.3525,1348.8275,643.94135C1348.7588,643.92114,1348.6888,643.90497,1348.6182,643.893Q1347.5049,643.7048,1346.2865,643.7048 Z"/>
</g>
<g style="fill:rgb(254,254,254); fill-opacity:1.0; stroke-linejoin: miter">
</g>
<g style="fill:rgb(254,254,254); fill-opacity:1.0; stroke-linejoin: miter">
<path d="M1317.8545,637.758L1317.7931,637.75934L1317.3086,637.7683L1317.3218,637.76935Q1317.2034,637.86755,1317.0823,637.963Q1316.8398,638.1541,1316.5887,638.3342Q1316.2109,638.6042,1315.8125,638.8478L1316.1901,638.8771Q1316.3926,638.76575,1316.5879,638.6486Q1316.7831,638.5314,1316.9714,638.4085L1317.1578,638.2842Q1317.3423,638.1584,1317.5198,638.02686Q1317.6974,637.89526,1317.8677,637.758L1317.8545,637.758 Z"/>
</g>
<g style="fill:rgb(254,254,254); fill-opacity:1.0; stroke-linejoin: miter">
</g>
<g style="fill:rgb(254,254,254); fill-opacity:1.0; stroke-linejoin: miter">
</g>
<g style="fill:rgb(254,254,254); fill-opacity:1.0; stroke-linejoin: miter">
</g>
<g style="fill:rgb(254,254,254); fill-opacity:1.0; stroke-linejoin: miter">
</g>
<g style="fill:rgb(254,254,254); fill-opacity:1.0; stroke-linejoin: miter">
<path d="M1295.4873,728.61554Q1295.6659,729.8878,1294.2466,730.3649L1294.2466,730.3649C1294.7798,730.1838,1295.1987,729.7648,1295.3793,729.2309C1295.4471,729.0303,1295.4784,728.8221,1295.4744,728.61554 Z M1324.6469,718.5872C1323.7008,718.5872,1322.9047,719.32196,1322.842,720.27954Q1322.5082,725.383,1319.6268,727.99817L1319.5641,728.0578Q1318.5033,729.1174,1313.8003,731.1343L1313.7871,731.1343Q1311.7711,731.4913,1309.9293,732.097L1309.9163,732.097Q1309.1156,732.25586,1308.3619,732.2895L1308.3619,732.2895Q1304.5928,732.1993,1303.7333,731.9275L1303.6317,731.89856Q1299.4287,730.83453,1298.6034,730.2853L1298.5948,730.2853C1298.5398,730.234,1298.4817,730.1864,1298.4207,730.14233Q1295.9325,728.34644,1295.2512,727.7559L1295.2383,727.7559C1295.2145,727.7141,1295.189,727.67303,1295.1616,727.6329Q1293.2716,724.85205,1292.1373,722.4826C1292.0996,722.40375,1292.0563,722.32794,1292.0076,722.2554Q1290.9746,720.7163,1290.0609,719.8432C1289.7102,719.5081,1289.2599,719.3417,1288.8103,719.3417C1288.3331,719.3417,1287.8567,719.5292,1287.501,719.9014C1286.8102,720.6244,1286.8363,721.77045,1287.5592,722.46124Q1288.1785,723.05286,1288.9756,724.23566L1288.9628,724.23566Q1290.1501,726.67377,1292.0168,729.4468L1292.0039,729.4468Q1292.1577,729.7835,1292.4573,730.09534L1292.4576,730.0957Q1293.1124,730.7768,1296.3015,733.0785L1296.2927,733.0785Q1296.3506,733.12506,1296.4124,733.17053L1296.4124,733.17053Q1297.7305,734.13995,1302.743,735.40894L1302.7377,735.40894Q1304.1473,735.8129,1308.3358,735.911L1308.4482,735.91016Q1309.593,735.8658,1310.7904,735.6142C1310.8578,735.60004,1310.9242,735.5821,1310.9906,735.56L1310.9907,735.55994L1310.9908,735.55994Q1312.7135,734.9871,1314.6283,734.6636C1314.7687,734.63983,1314.9059,734.5997,1315.0369,734.5438Q1320.4427,732.2387,1322.0624,730.67944L1322.0604,730.67944Q1326.0258,727.08026,1326.4553,720.516C1326.5206,719.5182,1325.7646,718.65643,1324.7668,718.5911C1324.7266,718.5885,1324.6865,718.5872,1324.6469,718.5872 Z"/>
</g>
<g style="fill:rgb(254,254,254); fill-opacity:1.0; stroke-linejoin: miter">
<path d="M1301.6346,733.29944C1300.7893,733.29944,1300.0333,733.89453,1299.8611,734.7552Q1299.7281,735.4197,1299.4796,736.0192L1299.4767,736.0192Q1297.5405,740.0651,1294.6455,747.2814C1294.6189,747.34784,1294.5961,747.4162,1294.5775,747.48535Q1293.7384,750.6058,1291.0703,756.9606C1291.0234,757.0722,1290.9879,757.1886,1290.9642,757.3073L1290.4807,759.7316L1289.2946,762.8939C1289.2723,762.95325,1289.253,763.0137,1289.2372,763.075Q1288.1678,767.1958,1287.1671,769.8357C1287.1461,769.891,1287.1279,769.9474,1287.1124,770.00446L1285.2262,776.973L1285.2036,777.06616L1284.7764,779.0571C1284.5665,780.0348,1285.1891,780.9975,1286.1667,781.2073C1286.2948,781.23474,1286.4225,781.2479,1286.5483,781.2479C1287.3835,781.2479,1288.1345,780.66656,1288.3169,779.8169L1288.7341,777.8728L1290.6078,770.9505L1290.6166,770.9505Q1291.6344,768.2274,1292.6952,764.16565L1292.6849,764.16565L1293.9226,760.8659C1293.9569,760.77435,1293.9838,760.6801,1294.0029,760.5842L1294.4678,758.2535L1294.4548,758.2535Q1297.0968,751.9517,1298.0186,748.62964L1298.0063,748.62964Q1300.8899,741.4421,1302.7843,737.49615L1302.8246,737.40594Q1303.2094,736.4778,1303.4119,735.4655C1303.608,734.485,1302.9722,733.5311,1301.9917,733.33496C1301.8718,733.311,1301.7523,733.29944,1301.6346,733.29944 Z"/>
</g>
<g style="fill:rgb(254,254,254); fill-opacity:1.0; stroke-linejoin: miter">
<path d="M1288.3481,786.2599C1288.1847,786.38324,1288.0414,786.53485,1287.9261,786.71014C1287.6364,787.1507,1287.5538,787.6944,1287.6958,788.1956L1287.6958,788.1956Q1287.2437,786.9954,1288.3352,786.2599 Z M1287.1107,781.58734C1286.81,781.58734,1286.5052,781.66235,1286.2245,781.8203C1285.353,782.31067,1285.0442,783.4146,1285.5345,784.2861Q1287.5405,787.851,1287.7506,788.3301L1287.7388,788.3301Q1289.0997,792.3765,1291.5402,798.7865C1291.5656,798.8531,1291.5946,798.91785,1291.6276,798.981Q1294.9141,805.2684,1295.2709,806.90155C1295.2764,806.9266,1295.2823,806.9515,1295.2864,806.9633L1295.2914,806.9633C1295.2914,806.9495,1295.2878,806.91437,1295.2786,806.84576L1295.2915,806.84576L1295.3538,807.17535Q1295.3768,807.2343,1295.4031,807.294L1295.4031,807.294Q1295.6322,807.81635,1296.5103,809.24475C1296.8522,809.8009,1297.4462,810.1073,1298.0543,810.1073C1298.3777,810.1073,1298.7051,810.0207,1299.0007,809.8389C1299.8525,809.31525,1300.1187,808.2002,1299.595,807.3484Q1298.9807,806.3492,1298.7853,805.9747L1298.7723,805.9747Q1298.2323,803.8158,1294.934,797.48956L1294.921,797.48956Q1292.4974,791.1234,1291.1577,787.13617L1291.1577,787.13617L1291.1565,787.1325L1291.1675,787.1325Q1291.1244,787.0069,1291.067,786.876L1291.067,786.876Q1290.7852,786.2331,1288.6903,782.5103C1288.3579,781.91956,1287.7435,781.58734,1287.1107,781.58734 Z"/>
</g>
<g style="fill:rgb(254,254,254); fill-opacity:1.0; stroke-linejoin: miter">
<path d="M1308.0178,799.71313Q1309.1434,799.71313,1309.5331,801.0482L1309.5331,801.0482C1309.3236,800.3349,1308.6989,799.82166,1307.9576,799.7552C1307.9033,799.7503,1307.8491,799.7479,1307.7953,799.7479C1307.7098,799.7479,1307.6251,799.75397,1307.5419,799.76575L1307.5419,799.76575Q1307.7943,799.71313,1308.0178,799.71313 Z M1315.7822,785.73737C1315.3796,785.73737,1314.9745,785.871,1314.6383,786.14545Q1312.0747,788.23834,1311.2076,789.76447L1311.2052,789.76447Q1310.4677,790.956,1308.2328,795.7934L1308.2332,795.7934L1308.1858,795.9031Q1306.6547,799.83606,1306.3164,800.5334L1306.3033,800.5334C1306.2549,800.60406,1306.2109,800.6788,1306.1722,800.75726Q1305.3949,802.3326,1302.2466,806.6667C1301.6589,807.4757,1301.8384,808.608,1302.6473,809.1956C1302.9686,809.429,1303.341,809.54144,1303.71,809.54144C1304.2699,809.54144,1304.822,809.28253,1305.1763,808.79486Q1308.2582,804.5521,1309.2701,802.6504L1309.2571,802.6504Q1309.375,802.4973,1309.4735,802.31256L1309.4735,802.3126Q1309.8506,801.6055,1311.5232,797.3121L1311.5201,797.3121Q1313.6511,792.6994,1314.2544,791.7177L1314.2412,791.7177L1314.0629,791.9381L1314.3561,791.55316Q1314.8887,790.61554,1316.9283,788.9505C1317.7029,788.3181,1317.8181,787.17755,1317.1858,786.40295C1316.8279,785.96454,1316.3073,785.73737,1315.7822,785.73737 Z"/>
</g>
<g style="fill:rgb(254,254,254); fill-opacity:1.0; stroke-linejoin: miter">
</g>
<g style="fill:rgb(254,254,254); fill-opacity:1.0; stroke-linejoin: miter">
</g>
<g style="fill:rgb(254,254,254); fill-opacity:1.0; stroke-linejoin: miter">
<path d="M1317.8545,637.75806L1317.7931,637.7594L1317.3086,637.7684L1317.3218,637.7694L1317.0773,637.9675Q1316.8296,638.1626,1316.5725,638.3461Q1316.3146,638.52954,1316.0479,638.7009L1315.7782,638.8689Q1314.9614,639.3645,1314.0638,639.7385L1314.2128,639.76373Q1314.6835,639.5934,1315.1255,639.3996Q1315.5675,639.2058,1315.9807,638.98883L1316.3868,638.76605Q1316.7858,638.5373,1317.156,638.28534L1317.519,638.0275L1317.8677,637.75806L1317.8545,637.75806 Z"/>
</g>
<g style="fill:rgb(254,254,254); fill-opacity:1.0; stroke-linejoin: miter">
</g>
<g style="fill:rgb(254,254,254); fill-opacity:1.0; stroke-linejoin: miter">
</g>
<g style="fill:rgb(254,254,254); fill-opacity:1.0; stroke-linejoin: miter">
</g>
<g style="fill:rgb(254,254,254); fill-opacity:1.0; stroke-linejoin: miter">
</g>
<g style="fill:rgb(254,254,254); fill-opacity:1.0; stroke-linejoin: miter">
<path d="M1356.4814,568.5654Q1356.4403,568.59985,1356.399,568.6344L1356.4127,568.6344Q1356.4419,568.9666,1356.4752,569.25543Q1356.5116,569.6263,1356.6217,570.22284L1356.6354,570.22253L1356.6959,570.3931Q1357.1002,571.59045,1357.4182,572.5264L1357.4182,572.5264Q1357.5085,572.4478,1357.5988,572.3696L1357.6123,572.3696Q1357.1183,570.6225,1356.632,569.0143L1356.495,568.5654 Z"/>
</g>
<g style="fill:rgb(254,254,254); fill-opacity:1.0; stroke-linejoin: miter">
</g>
<g style="fill:rgb(254,254,254); fill-opacity:1.0; stroke-linejoin: miter">
</g>
<g style="fill:rgb(254,254,254); fill-opacity:1.0; stroke-linejoin: miter">
<path d="M1336.0989,539.408L1336.0957,541.0981Q1336.5021,540.45264,1336.9307,539.85504L1336.944,539.85504L1336.0989,539.408 Z"/>
</g>
<g style="fill:rgb(254,254,254); fill-opacity:1.0; stroke-linejoin: miter">
<path d="M1320.2015,637.8559Q1320.8679,639.10925,1319.678,639.9972L1319.678,639.9972C1319.9209,639.7993,1320.1119,639.539,1320.2267,639.2379C1320.3986,638.7868,1320.382,638.2901,1320.1884,637.8559 Z M1359.5463,630.6882C1359.4429,630.6882,1359.338,630.6971,1359.2327,630.71545Q1352.5431,631.88324,1347.7982,633.6843L1347.7848,633.6843Q1341.4458,634.5305,1340.1133,634.9786L1340.0999,634.9786Q1338.047,635.0331,1336.0767,635.37024L1336.0634,635.37024Q1333.6826,635.4185,1333.1508,635.4813L1333.1503,635.4814Q1333.0096,635.49805,1332.8815,635.5276L1332.868,635.5276L1326.6426,636.5007L1326.6294,636.5007Q1324.6514,636.5308,1322.6897,636.7137L1322.6897,636.7137Q1322.3376,636.7131,1322.014,636.7131Q1319.0388,636.7131,1318.4656,636.7674L1318.4661,636.7674Q1318.1996,636.7926,1317.9686,636.8694L1317.9554,636.8694Q1316.8038,637.108,1310.806,637.5943L1310.8062,637.5943Q1309.8477,637.67126,1307.0037,638.338L1306.9906,638.338Q1306.8446,638.345,1306.5244,638.3501L1306.5244,638.3501Q1305.3334,638.28107,1304.5458,638.28107Q1304.1517,638.28107,1303.8586,638.29834L1303.7655,638.3062L1299.9377,638.73126L1299.9377,638.73126Q1297.5222,638.6075,1295.5894,638.5756L1295.5764,638.5756L1293.4104,638.2719C1293.3346,638.2613,1293.258,638.2555,1293.1815,638.2545L1290.5453,638.2217L1290.5453,638.2217L1288.3569,637.78723C1288.2408,637.7642,1288.1228,637.75256,1288.0045,637.75256C1287.9978,637.75256,1287.991,637.7526,1287.9843,637.7527L1285.7186,637.77795L1285.7186,637.77795L1283.9753,637.5337C1283.892,637.52203,1283.8081,637.51624,1283.724,637.51624C1283.7206,637.51624,1283.7172,637.51624,1283.7137,637.51624Q1283.6455,637.5166,1283.5757,637.5166Q1281.3927,637.5166,1277.638,637.13464L1277.6251,637.13464L1275.0769,636.5684C1275.0013,636.55164,1274.925,636.5398,1274.848,636.5328Q1271.4933,636.2279,1270.8225,636.105L1270.8098,636.105C1270.7719,636.0922,1270.7334,636.08075,1270.6946,636.0705Q1265.9639,634.8234,1265.1193,634.4695L1265.1074,634.4695C1265.0582,634.43915,1265.0076,634.4112,1264.9557,634.3857Q1264.6967,634.2584,1264.3553,634.19525L1264.3552,634.19525Q1263.8556,634.1028,1262.3279,634.0138L1262.3152,634.0138Q1258.6973,632.8279,1251.8633,632.0213C1251.7913,632.0128,1251.7196,632.00867,1251.6488,632.00867C1250.7438,632.00867,1249.9617,632.6862,1249.853,633.6072C1249.7358,634.6002,1250.4459,635.5003,1251.439,635.6175Q1258.1196,636.40594,1261.3834,637.5203C1261.5402,637.57385,1261.7035,637.6056,1261.8689,637.6147Q1263.1454,637.68494,1263.5685,637.7371L1263.5558,637.7371Q1264.6261,638.2155,1269.7688,639.5713L1269.7561,639.5713Q1269.8516,639.60016,1269.9553,639.6234L1269.9556,639.6235Q1270.7031,639.7908,1274.426,640.1304L1274.4132,640.1304L1276.9323,640.6901C1277.0007,640.7054,1277.0701,640.71655,1277.1399,640.72375Q1281.1693,641.13763,1283.5792,641.13763Q1283.5835,641.13763,1283.5878,641.13763L1283.6006,641.13763L1285.3512,641.38293C1285.4344,641.39453,1285.5181,641.40045,1285.602,641.40045C1285.6089,641.40045,1285.6157,641.4004,1285.6226,641.4003L1287.8364,641.3756L1287.8364,641.3756L1290.0038,641.8059C1290.1125,641.8275,1290.2229,641.83905,1290.3337,641.84045L1293.0214,641.87396L1293.0214,641.87396L1295.1827,642.177C1295.2571,642.18744,1295.3319,642.19324,1295.407,642.19434Q1297.3798,642.224,1299.8972,642.3551C1299.9286,642.35675,1299.9601,642.35754,1299.9916,642.35754C1300.0582,642.35754,1300.1249,642.3539,1300.1912,642.3465L1304.104,641.912L1304.091,641.912Q1304.2866,641.9012,1304.5573,641.9012Q1305.234,641.9012,1306.3792,641.9689C1306.4149,641.97095,1306.4506,641.97205,1306.4862,641.97205C1306.4951,641.97205,1306.5039,641.972,1306.5127,641.97186Q1307.1307,641.9627,1307.3868,641.94025L1307.3865,641.94025Q1307.5515,641.92584,1307.6862,641.897L1307.7217,641.88904Q1310.3949,641.2597,1311.0963,641.20374L1311.0988,641.20355Q1317.5576,640.6799,1318.9062,640.3661L1318.8931,640.3661Q1319.4393,640.334,1321.8673,640.334Q1322.2898,640.334,1322.7693,640.33496C1322.7705,640.33496,1322.7717,640.33496,1322.7731,640.33496C1322.8301,640.33496,1322.8873,640.3322,1322.9442,640.32684Q1324.8724,640.1437,1326.8193,640.1195C1326.9054,640.11847,1326.9915,640.1112,1327.0765,640.0979L1333.5421,639.0873C1333.5659,639.08356,1333.5896,639.07935,1333.6132,639.0747L1333.5999,639.0747Q1334.019,639.03204,1336.2881,638.98755C1336.3817,638.9857,1336.475,638.9767,1336.5671,638.9604Q1338.4963,638.62006,1340.5253,638.59174C1340.7991,638.58795,1341.067,638.52216,1341.3103,638.4004L1341.2969,638.4004Q1342.2018,638.078,1348.4927,637.2431C1348.6342,637.22437,1348.7727,637.18896,1348.9059,637.13763Q1353.3772,635.4136,1359.8555,634.2826C1360.8405,634.1106,1361.4996,633.17267,1361.3276,632.1876C1361.1741,631.3079,1360.4095,630.6882,1359.5463,630.6882 Z"/>
</g>
<g style="fill:rgb(254,254,254); fill-opacity:1.0; stroke-linejoin: miter">
<path d="M1250.8966,612.5805C1249.897,612.5805,1249.0864,613.39075,1249.086,614.3905L1249.085,617.9651L1249.085,617.96564L1249.085,617.9746L1249.0851,617.9896Q1249.086,618.1038,1249.0681,618.75024C1249.0663,618.8152,1249.068,618.8798,1249.0731,618.94434L1249.0664,618.94434Q1249.0444,619.56586,1248.8083,622.74506L1248.8081,622.74506Q1248.7311,623.64655,1248.6736,623.9417C1248.6655,623.983,1248.6589,624.0243,1248.6472,624.1858L1248.6348,624.1858Q1248.5763,624.5036,1248.3625,625.409L1248.35,625.46625Q1248.292,625.7532,1248.2502,626.03156L1248.245,626.06946Q1248.1327,626.9438,1248.1416,627.39307L1248.1416,627.39307Q1248.1427,627.45013,1248.1455,627.5023C1248.1969,628.46814,1248.9961,629.21674,1249.952,629.21674C1249.9844,629.21674,1250.017,629.2159,1250.0497,629.2141C1251.0443,629.1612,1251.8086,628.3151,1251.7621,627.32166L1251.762,627.32166Q1251.7585,627.1452,1251.8317,626.5684L1251.8313,626.5684Q1251.8553,626.4084,1251.888,626.2409L1251.8867,626.2409Q1252.1615,625.077,1252.2305,624.63434L1252.2278,624.63434Q1252.3235,624.1434,1252.418,623.03265L1252.4194,623.01324Q1252.6876,619.4015,1252.6898,618.8636L1252.6898,618.86206Q1252.6898,618.8563,1252.6898,618.8506L1252.6877,618.8506Q1252.707,618.15283,1252.7059,617.9662L1252.706,617.9662L1252.7072,614.3916C1252.7075,613.39166,1251.8971,612.5808,1250.8972,612.5805C1250.897,612.5805,1250.8969,612.5805,1250.8966,612.5805 Z"/>
</g>
<g style="fill:rgb(254,254,254); fill-opacity:1.0; stroke-linejoin: miter">
<path d="M1324.9469,614.27295Q1324.852,616.2376,1325.2102,617.8944L1325.2234,617.8944Q1325.2639,617.89453,1325.305,617.8946L1325.3198,617.89453Q1325.498,617.8935,1325.7754,617.8783L1325.7886,617.8783C1325.3895,616.72003,1325.1566,615.506,1325.1014,614.27313L1325.1146,614.27313Q1325.0365,614.273,1324.9602,614.27295 Z"/>
</g>
<g style="fill:rgb(254,254,254); fill-opacity:1.0; stroke-linejoin: miter">
<path d="M1360.6573,621.0277L1360.6573,621.0277Q1360.3834,622.05634,1359.285,622.20483L1359.285,622.20483C1359.9111,622.0818,1360.4316,621.6337,1360.6438,621.0277 Z M1357.1681,620.8238C1357.3376,621.584,1357.9841,622.1643,1358.7809,622.23206L1358.7809,622.23206Q1357.3514,622.2068,1357.1544,620.8238 Z M1360.1118,612.0142C1359.994,612.0142,1359.8745,612.0258,1359.7545,612.0498C1358.774,612.2461,1358.1383,613.2,1358.3346,614.1805Q1358.3969,614.4912,1358.3215,614.96796L1358.3215,614.9683Q1358.2916,615.15826,1358.2401,615.3676L1358.2389,615.3676Q1357.8197,616.84436,1357.4979,618.22375L1357.4977,618.22375Q1357.306,619.0053,1357.142,620.17706L1357.1512,620.17755L1357.1377,620.17755Q1357.1334,620.2068,1357.1296,620.2366L1357.1294,620.2378Q1357.064,620.7588,1356.6075,626.50824C1356.5284,627.505,1357.2722,628.3772,1358.269,628.45636C1358.3177,628.4602,1358.3663,628.46216,1358.4143,628.46216C1359.3494,628.46216,1360.142,627.74286,1360.2172,626.79486Q1360.6058,621.8996,1360.7001,620.9047L1360.6819,620.9047C1360.7019,620.8314,1360.7174,620.75616,1360.7281,620.67914Q1360.8687,619.67535,1361.0186,619.07043L1361.0243,619.0464Q1361.3325,617.72504,1361.7396,616.29584L1361.7565,616.2321Q1361.8446,615.87366,1361.8984,615.53265L1361.8984,615.53265Q1362.0746,614.4165,1361.8851,613.4698C1361.7129,612.60925,1360.957,612.0142,1360.1118,612.0142 Z"/>
</g>
<g style="fill:rgb(254,254,254); fill-opacity:1.0; stroke-linejoin: miter">
<path d="M1304.6537,615.4928L1304.6537,615.4928Q1304.8934,615.5799,1305.0101,615.79706L1305.0101,615.79706C1304.9202,615.6629,1304.7921,615.55615,1304.6406,615.4928 Z M1305.0736,616.6343Q1304.9451,617.0124,1304.4663,617.0774L1304.4563,617.0774C1304.722,617.0335,1304.9435,616.86444,1305.0605,616.6343 Z M1248.5509,611.8639Q1248.0098,611.8639,1245.7257,612.00494L1245.7133,612.00494Q1245.6738,612.0054,1245.6327,612.0054Q1245.08,612.0054,1244.1912,611.93274L1244.1696,611.9313L1244.1674,611.93115L1244.172,611.93115Q1244.1582,611.9301,1244.1437,611.92926L1244.1427,611.9292Q1244.0847,611.9259,1243.9907,611.9259Q1243.7887,611.9259,1243.42,611.94104L1243.4072,611.94165Q1241.9913,612.0217,1240.5482,612.6959C1240.1329,612.88995,1239.9536,613.3839,1240.1476,613.7992C1240.2885,614.1008,1240.5878,614.2781,1240.9,614.2781C1241.0177,614.2781,1241.1372,614.2529,1241.2509,614.1998Q1242.3988,613.6635,1243.4904,613.5995L1243.4882,613.5995Q1243.839,613.5851,1243.9811,613.5851Q1244.0248,613.5851,1244.0487,613.5864L1244.0498,613.5864L1244.0753,613.5885L1244.0724,613.5885Q1245.0162,613.66516,1245.6351,613.66516Q1245.7057,613.66516,1245.7721,613.6642L1245.8083,613.66284L1245.8167,613.66235L1245.8191,613.66223Q1248.0715,613.5231,1248.5168,613.5231Q1248.5535,613.5231,1248.5779,613.524L1248.6088,613.5246L1254.9718,613.5327L1254.9592,613.5327Q1255.3986,613.55023,1255.8027,613.6008L1255.795,613.6008Q1257.495,613.91693,1258.6709,613.9932L1258.6617,613.9932Q1259.4346,614.07874,1262.7976,614.1311L1262.7849,614.1311Q1263.983,614.2001,1264.5491,614.27826L1264.5442,614.27826L1269.7432,615.24774L1269.7616,615.251Q1270.8297,615.42535,1271.4364,615.47864L1271.4374,615.47864Q1272.2659,615.55566,1272.6923,615.5687L1272.6843,615.5687Q1273.1022,615.59454,1275.2349,615.61664L1275.2222,615.61664Q1277.9445,615.80035,1279.3954,615.8076L1279.3826,615.8076L1282.0088,616.17694L1282.063,616.1828Q1284.2592,616.34576,1287.3549,616.65027L1287.3555,616.65027Q1287.6567,616.68036,1288.1985,616.68036Q1288.3679,616.68036,1288.5608,616.6774L1288.6168,616.6747Q1290.0577,616.5549,1290.7174,616.546L1293.5723,616.546Q1293.5801,616.54596,1293.5883,616.54596Q1294.0698,616.54596,1295.8394,616.6978L1295.9073,616.70074L1295.876,616.6996L1295.863,616.6996Q1296.2452,616.72595,1298.0493,616.74854L1298.0485,616.74854Q1298.3888,616.755,1299.8054,616.886L1299.8739,616.88916L1299.8347,616.8874L1299.8218,616.8874Q1300.1552,616.91455,1301.8844,616.9371L1301.8715,616.9371L1304.1368,617.0787L1304.1238,617.0787Q1304.1921,617.08984,1304.2675,617.0941L1304.2676,617.0941Q1304.5337,617.1092,1307.1475,617.1092Q1307.8073,617.1092,1308.6166,617.1082C1309.075,617.10767,1309.446,616.73566,1309.4456,616.2773C1309.4451,615.8193,1309.0736,615.4483,1308.6156,615.4483C1308.6154,615.4483,1308.615,615.4483,1308.6146,615.4483Q1307.7123,615.4494,1307.0004,615.4494Q1304.9327,615.4494,1304.4718,615.44025L1304.4587,615.44025C1304.4303,615.4355,1304.4014,615.4321,1304.3721,615.4303L1301.9502,615.27893L1301.9093,615.27734Q1300.2091,615.25525,1299.9589,615.23315L1299.9583,615.23315Q1298.4723,615.09576,1298.0742,615.0888L1298.0701,615.08875Q1296.3146,615.0667,1295.9833,615.044L1295.9812,615.044Q1294.1399,614.88605,1293.5833,614.88605Q1293.5729,614.88605,1293.563,614.8861L1290.7114,614.8861L1290.7008,614.88617Q1289.9901,614.8953,1288.5049,615.0184L1288.492,615.0184Q1288.3263,615.0207,1288.1838,615.0207Q1287.7393,615.0207,1287.5193,614.99854L1287.5175,614.9983Q1284.4402,614.69556,1282.2396,614.53143L1282.2268,614.53143L1279.5574,614.156L1279.4445,614.1479Q1278.0376,614.1433,1275.3085,613.9588L1275.261,613.957Q1273.0979,613.9346,1272.7775,613.91144L1272.743,613.90967Q1272.3676,613.8982,1271.5879,613.8256L1271.5627,613.82367L1271.5608,613.82355L1271.5646,613.82355Q1271.025,613.77496,1270.0488,613.616L1270.0474,613.616L1264.8147,612.64026L1264.7761,612.634Q1264.1384,612.54596,1262.8589,612.47266L1262.8243,612.47144Q1259.4624,612.41907,1258.8253,612.34125L1258.7783,612.33685Q1257.6879,612.2661,1256.0597,611.96173L1256.0437,611.95886L1256.0422,611.9586L1256.0088,611.95374Q1255.5269,611.89343,1255.0077,611.8734L1254.9757,611.8728L1254.9753,611.8728L1248.611,611.8647L1248.6227,611.8647Q1248.5918,611.8639,1248.5509,611.8639 Z"/>
</g>
<g style="fill:rgb(254,254,254); fill-opacity:1.0; stroke-linejoin: miter">
<path d="M1371.24,597.3016C1370.5691,597.3016,1369.9255,597.6763,1369.6123,598.31714L1369.5986,598.31714Q1367.8064,598.5908,1367.1329,598.7935L1367.1298,598.7935L1352.9037,602.6116L1352.844,602.6287Q1352.4642,602.74475,1350.524,603.0462C1350.3124,603.0791,1350.1083,603.14923,1349.9211,603.2534Q1348.4657,604.06384,1346.231,604.32855C1346.0784,604.3466,1345.9287,604.38403,1345.7855,604.43994L1340.5742,606.4745L1337.6299,607.159L1337.6299,607.159Q1337.2198,607.1522,1336.8428,607.1522Q1334.4385,607.1522,1333.3759,607.4262L1333.3625,607.4262Q1331.439,607.7169,1327.4058,608.9897L1327.3925,608.9897Q1322.7513,609.5707,1321.8818,609.81134L1321.8817,609.81134Q1321.7451,609.8491,1321.6256,609.895L1321.6123,609.895Q1313.0516,612.3308,1311.2792,612.49384C1311.1711,612.5038,1311.0642,612.5234,1310.9597,612.5524Q1309.2565,613.0263,1306.7407,614.5363C1305.8834,615.0509,1305.6055,616.1631,1306.1201,617.02045C1306.4597,617.5861,1307.0593,617.8995,1307.6742,617.8995C1307.9913,617.8995,1308.3125,617.81616,1308.6042,617.64105Q1310.583,616.4533,1311.7909,616.0819L1311.7777,616.0819Q1314.068,615.8092,1322.7437,613.3379C1322.7822,613.3269,1322.8203,613.31464,1322.8579,613.3012L1322.8477,613.3012Q1323.4794,613.1264,1328.0267,612.55963C1328.1365,612.54596,1328.2446,612.5223,1328.35,612.4889Q1332.367,611.2155,1334.0055,610.992C1334.0989,610.97925,1334.1913,610.9592,1334.2815,610.9321Q1334.8181,610.77094,1336.6548,610.77094Q1337.1685,610.77094,1337.7838,610.78357C1337.7963,610.7838,1337.8087,610.78394,1337.821,610.78394C1337.959,610.78394,1338.0966,610.7681,1338.231,610.7369L1341.5214,609.9719C1341.606,609.9523,1341.689,609.9266,1341.7698,609.895L1346.8855,607.8978L1346.8721,607.8978Q1349.4691,607.56036,1351.3793,606.5795L1351.3657,606.5795Q1353.2252,606.28503,1353.8439,606.1089L1353.8424,606.1089L1368.1241,602.2759L1368.1766,602.2609Q1368.6691,602.1127,1370.5276,601.83954L1370.5265,601.83954Q1371.6027,601.6947,1372.3492,600.751L1372.3492,600.751Q1372.6417,600.3814,1372.8757,599.8861C1373.303,598.98206,1372.9164,597.90283,1372.0123,597.4756C1371.7625,597.3575,1371.4991,597.3016,1371.24,597.3016 Z"/>
</g>
<g style="fill:rgb(254,254,254); fill-opacity:1.0; stroke-linejoin: miter">
<path d="M1269.651,611.3131L1269.651,611.3131Q1270.3741,611.4809,1270.6735,612.10266L1270.6735,612.10266C1270.4393,611.72174,1270.07,611.43945,1269.6383,611.3131 Z M1261.8861,613.4127C1262.063,613.62634,1262.2864,613.7959,1262.5377,613.90906L1262.5377,613.90906Q1262.1426,613.76056,1261.8735,613.4127 Z M1270.8239,613.7224Q1270.5779,614.73004,1269.329,614.8498L1269.329,614.8498Q1269.5149,614.8276,1269.6818,614.7742C1270.2131,614.6042,1270.6162,614.2088,1270.8112,613.7224 Z M1236.7511,608.05347C1236.2007,608.05347,1235.657,608.3035,1235.3013,608.7778C1234.7013,609.5777,1234.8635,610.7125,1235.6635,611.3125Q1236.693,612.08466,1237.9558,612.2856L1237.9529,612.2856Q1237.9756,612.28955,1237.9995,612.29346L1238.0016,612.2938Q1238.657,612.3993,1241.3594,612.48236L1241.3469,612.48236Q1243.2347,612.8535,1246.4402,613.1025L1246.435,613.1025Q1246.7626,613.134,1247.329,613.134Q1247.5015,613.134,1247.6963,613.13104L1247.8053,613.1261Q1249.5399,612.9951,1250.0867,612.9951Q1250.1255,612.9951,1250.1583,612.9958L1250.1951,612.99615L1254.5707,612.995L1254.5833,612.995Q1255.8463,612.99536,1256.8838,613.1019L1256.8783,613.1019Q1261.838,613.75916,1262.6316,613.9433L1262.619,613.9433C1262.8014,614.01495,1262.997,614.05756,1263.1991,614.06665Q1264.7295,614.13556,1265.0219,614.17456L1265.0089,614.17456Q1268.1461,614.80994,1268.8699,614.85913L1268.8665,614.85913Q1268.9507,614.86755,1269.0393,614.87164L1269.04,614.87164Q1269.2521,614.8813,1270.1348,614.8813Q1271.0457,614.8813,1272.6707,614.87103L1272.6833,614.87103Q1272.7245,614.8722,1272.7687,614.8722Q1272.774,614.8722,1272.7795,614.8722L1272.7808,614.8722Q1273.2115,614.87054,1275.2448,614.7113L1275.2406,614.7113Q1277.0343,614.7113,1279.0879,614.5551L1279.0751,614.5551Q1279.2274,614.55115,1279.3795,614.55115Q1279.6483,614.55115,1279.9167,614.5635L1279.9039,614.5635L1289.2968,615.36334L1289.2968,615.36334L1291.9559,615.76666C1292.0385,615.7792,1292.1218,615.78595,1292.2053,615.787Q1294.5269,615.8153,1296.715,615.9887L1296.8363,615.99426Q1298.673,616.0163,1299.0013,616.03815L1299.0076,616.0385L1301.242,616.1794L1301.3318,616.1828Q1303.1465,616.2069,1303.4271,616.23035L1303.419,616.23035C1303.4434,616.23334,1303.4666,616.2357,1303.4875,616.2373L1303.4905,616.23755L1303.5028,616.2385Q1307.0569,616.5103,1307.6531,616.6679L1307.6461,616.6679C1307.8411,616.7356,1308.0406,616.7679,1308.2375,616.7679C1308.9458,616.7679,1309.6184,616.34955,1309.9087,615.65515C1310.2943,614.7326,1309.8591,613.67206,1308.9365,613.28644Q1308.7754,613.21906,1308.5785,613.16705L1308.5786,613.16705Q1307.6641,612.9253,1303.7917,612.6289L1303.7913,612.6289L1303.7883,612.62866L1303.8005,612.62866Q1303.7656,612.6249,1303.7289,612.6218L1303.7284,612.6218Q1303.3282,612.58844,1301.4417,612.5629L1301.4287,612.5629L1299.2412,612.425L1299.2416,612.425Q1298.8237,612.3972,1296.9552,612.3743L1296.9423,612.3743Q1294.7268,612.20074,1292.39,612.16797L1292.3771,612.16797L1289.7814,611.7743L1289.6636,611.7604L1280.1614,610.9512L1280.0916,610.9466Q1279.7345,610.93005,1279.3778,610.93005Q1279.1644,610.93005,1278.9513,610.936L1278.8628,610.9406Q1276.9176,611.0902,1275.2405,611.0902Q1275.209,611.0902,1275.1775,611.09015C1275.1768,611.09015,1275.1759,611.09015,1275.1752,611.09015C1275.1276,611.09015,1275.08,611.092,1275.0326,611.0957Q1273.1179,611.24615,1272.7828,611.251L1272.7828,611.251C1272.7598,611.25006,1272.7368,611.24963,1272.7137,611.24963C1272.71,611.24963,1272.7063,611.2497,1272.7025,611.2497Q1270.9186,611.26105,1270.0338,611.26105Q1269.6177,611.26105,1269.4004,611.25854L1269.3877,611.25854C1269.3018,611.2461,1269.214,611.2397,1269.125,611.2397C1269.1016,611.2397,1269.0781,611.2401,1269.0547,611.241L1269.0547,611.241Q1268.4752,611.1815,1265.7731,610.63464L1265.7725,610.63464Q1265.6552,610.60657,1265.5236,610.5884L1265.5233,610.5883Q1265.1139,610.5318,1263.649,610.46246L1263.6364,610.46246Q1263.6276,610.4601,1263.6187,610.4577L1263.6188,610.4577Q1262.7472,610.22656,1257.3121,609.5067L1257.3086,609.5062L1257.303,609.5055L1257.2539,609.49976Q1256.0288,609.3739,1254.5747,609.3739L1254.5742,609.3739L1250.2101,609.37506L1250.2101,609.37506Q1250.1653,609.3743,1250.1149,609.3743Q1249.4099,609.3743,1247.5858,609.5113L1247.5732,609.5113Q1247.4098,609.51337,1247.2769,609.51337Q1246.9187,609.51337,1246.7815,609.49805L1246.7205,609.49225Q1243.6031,609.2502,1241.9161,608.9034C1241.814,608.8824,1241.7101,608.8702,1241.6058,608.86707Q1239.0779,608.7914,1238.599,608.7221L1238.5953,608.7221L1238.5247,608.7094Q1238.1478,608.6495,1237.836,608.41565C1237.5104,608.1714,1237.1292,608.05347,1236.7511,608.05347 Z"/>
</g>
<g style="fill:rgb(254,254,254); fill-opacity:1.0; stroke-linejoin: miter">
<path d="M1289.9119,597.42834L1289.9099,597.42883L1289.9098,597.42883L1289.9119,597.42834 Z M1252.9761,602.2053Q1253.0387,602.2053,1253.106,602.2107L1253.1,602.2107C1253.0571,602.20764,1253.0143,602.2061,1252.9716,602.2061C1252.9448,602.2061,1252.9181,602.2067,1252.8915,602.2079L1252.8915,602.2079Q1252.9326,602.2053,1252.9761,602.2053 Z M1244.4227,603.88965C1243.8552,604.0814,1243.4128,604.5452,1243.2543,605.1346C1243.2231,605.25024,1243.204,605.3671,1243.1962,605.4838L1243.1865,605.4838Q1243.1865,604.2003,1244.4103,603.88965 Z M1239.0679,607.26666C1239.4097,607.6835,1239.9229,607.9289,1240.4672,607.9289C1240.4852,607.9289,1240.5034,607.92865,1240.5216,607.9281L1240.534,607.9281Q1240.4208,607.94147,1240.3129,607.94147Q1239.547,607.94147,1239.0554,607.26666 Z M1300.6952,591.6431C1300.6515,591.6431,1300.6075,591.6447,1300.5634,591.6479Q1298.1494,591.8216,1289.0996,593.89954L1289.0977,593.9L1289.0945,593.90076L1289.0057,593.9236L1282.7612,595.7018L1282.7612,595.7018L1274.8505,597.14026C1274.7856,597.15204,1274.7214,597.16736,1274.6582,597.18616L1269.2026,598.80884L1269.19,598.80884Q1264.3478,599.6209,1261.4934,600.67816L1261.4808,600.67816Q1260.7734,600.8311,1257.4846,600.97485C1257.3413,600.98114,1257.1993,601.0044,1257.0615,601.0442Q1253.4253,602.09406,1252.8115,602.21436L1252.7991,602.21436C1252.6798,602.22577,1252.5618,602.249,1252.4467,602.2839L1252.4341,602.2839Q1251.9648,602.37384,1249.7678,602.66815C1249.6925,602.6782,1249.6178,602.69305,1249.5443,602.7125Q1246.916,603.4091,1244.673,603.8246C1244.6102,603.8362,1244.5487,603.851,1244.4884,603.86884L1244.476,603.86884Q1243.7946,603.9685,1240.4724,604.29846L1240.46,604.29846Q1240.247,604.3027,1240.0126,604.3467L1240.0125,604.3467Q1239.403,604.4611,1236.6189,605.30164L1236.6064,605.30164Q1236.0282,605.41547,1235.7477,605.41547Q1235.7208,605.41547,1235.6967,605.4144C1235.6752,605.4135,1235.6537,605.41296,1235.6324,605.4128L1235.62,605.4128L1235.6183,605.4127L1235.627,605.4127C1235.6235,605.4127,1235.6201,605.4127,1235.6167,605.4127C1234.653,605.4127,1233.8514,606.1724,1233.8092,607.1447C1233.7657,608.1437,1234.5403,608.9886,1235.6178,609.0338L1235.6178,609.0338L1235.5659,609.03265L1235.5536,609.03265Q1235.6365,609.03595,1235.7244,609.03595Q1236.4264,609.03595,1237.4498,608.82556C1237.5034,608.8145,1237.5565,608.80115,1237.6089,608.7853Q1240.0188,608.0571,1240.5864,607.9257L1240.5741,607.9257C1240.598,607.9243,1240.6221,607.9224,1240.6461,607.92004Q1244.6329,607.5251,1245.2471,607.41144L1245.247,607.41144Q1245.3683,607.389,1245.4803,607.35986L1245.4679,607.35986Q1247.7358,606.9338,1250.3485,606.2454L1250.336,606.2454Q1252.7274,605.9243,1253.2625,605.81024L1253.2499,605.81024Q1253.3176,605.8021,1253.3875,605.7901L1253.3878,605.79004Q1254.0905,605.6688,1257.8566,604.58356L1257.844,604.58356Q1261.4891,604.4187,1262.4503,604.169L1262.4506,604.16895Q1262.553,604.14233,1262.646,604.1116L1262.711,604.0887Q1265.2853,603.12756,1269.924,602.3576C1269.998,602.3453,1270.0717,602.3283,1270.1437,602.3069L1275.5961,600.6851L1275.5961,600.6851L1283.4963,599.24854C1283.5543,599.238,1283.6116,599.2247,1283.6682,599.20856L1289.9974,597.40625L1290.0083,597.40625Q1298.7002,595.4124,1300.8234,595.2596C1301.8207,595.1878,1302.571,594.32104,1302.4993,593.3237C1302.4307,592.37067,1301.636,591.6431,1300.6952,591.6431 Z"/>
</g>
<g style="fill:rgb(254,254,254); fill-opacity:1.0; stroke-linejoin: miter">
<path d="M1328.0328,591.0638L1328.0328,591.0638C1327.9545,591.0696,1327.8767,591.0805,1327.7999,591.09644L1327.7906,591.09644Q1327.9067,591.07104,1328.0195,591.0638 Z M1341.0504,592.08746L1341.0504,592.08746C1340.3086,592.27655,1339.7675,592.9142,1339.6964,593.6711L1339.6964,593.6711Q1339.7721,592.3712,1341.037,592.08746 Z M1360.1407,592.98987Q1361.039,593.1425,1361.3419,593.91534L1361.3297,593.91534C1361.0881,593.4551,1360.6537,593.1091,1360.1272,592.98987 Z M1339.7267,594.21216C1339.8838,594.96655,1340.5095,595.55035,1341.2917,595.6402L1341.2792,595.6402Q1339.877,595.5369,1339.7133,594.21216 Z M1346.7622,595.0429L1346.7622,595.0429C1347.0424,595.4695,1347.4937,595.7625,1348.0072,595.83936L1348.0072,595.83936Q1347.165,595.753,1346.7487,595.0429 Z M1361.449,595.3528Q1361.221,596.45703,1359.8945,596.5588L1359.8889,596.5588C1360.6107,596.49384,1361.2063,596.0085,1361.4353,595.3528 Z M1317.3011,590.5847Q1317.0464,590.5847,1316.9042,590.59247L1316.9031,590.5925Q1316.7599,590.6004,1316.6414,590.6195L1316.628,590.6217L1314.0826,591.05096L1314.0695,591.05096Q1312.3984,591.1014,1312.0422,591.1345L1312.0416,591.1346Q1311.951,591.14307,1311.867,591.1569L1311.8538,591.1569Q1309.593,591.40765,1309.2367,591.41815L1309.183,591.42053Q1308.4564,591.46344,1307.3658,591.4651L1307.317,591.4658Q1306.7833,591.481,1306.3229,591.5173L1306.3224,591.5173Q1305.3666,591.5872,1303.9329,591.8649C1302.9512,592.05505,1302.3096,593.00507,1302.4998,593.98676C1302.6674,594.8522,1303.4255,595.45337,1304.2754,595.45337C1304.3895,595.45337,1304.5054,595.4425,1304.6216,595.42Q1305.8529,595.18146,1306.595,595.12805L1306.607,595.12714Q1306.9657,595.0989,1307.3954,595.0862L1307.3823,595.0862Q1308.5399,595.0842,1309.3556,595.03766L1309.3429,595.03766Q1309.8536,595.0227,1312.346,594.7456C1312.3611,594.7439,1312.3762,594.74207,1312.3912,594.74L1312.3782,594.74Q1312.6349,594.71606,1314.3174,594.66626C1314.4004,594.6638,1314.483,594.65564,1314.5648,594.64185L1317.1436,594.207L1317.1304,594.207Q1317.1849,594.2052,1317.2803,594.2052Q1317.434,594.2052,1317.6936,594.2098L1317.6804,594.2098Q1318.8652,594.2943,1320.1262,594.3163L1320.1532,594.3166L1323.8173,594.32587L1323.8057,594.32587Q1324.4606,594.33905,1325.0343,594.3889L1325.0305,594.3889Q1327.5638,594.66327,1328.0255,594.6804L1328.0254,594.6804Q1328.0709,594.6821,1328.1157,594.6821Q1328.1512,594.6821,1328.1862,594.681L1328.1995,594.681L1329.77,594.71594L1329.77,594.71594L1331.762,594.83606L1331.8484,594.83923Q1331.9044,594.8399,1331.9634,594.8399Q1332.5562,594.8399,1333.441,594.7695L1333.4543,594.7695Q1333.4998,594.77,1333.5453,594.772L1333.5319,594.772L1336.3179,595.40765L1336.3655,595.41785Q1337.1174,595.56824,1337.9556,595.61755L1337.9923,595.6193L1337.9921,595.6193Q1338.5175,595.6426,1338.7406,595.6426Q1338.7614,595.6426,1338.7795,595.6424L1338.7799,595.6424Q1338.8024,595.64215,1338.8239,595.6416L1338.8104,595.6416Q1339.5492,595.6402,1340.0793,595.6402Q1341.1246,595.6402,1341.3588,595.64557L1341.3453,595.64557C1341.3501,595.646,1341.355,595.64636,1341.3597,595.6467Q1343.6833,595.82623,1344.239,595.82623Q1344.2576,595.82623,1344.274,595.82605L1344.2739,595.82605Q1344.2892,595.82587,1344.304,595.82556L1344.2905,595.82556Q1344.803,595.8249,1345.2473,595.8249Q1347.6467,595.8249,1348.0579,595.84454L1348.0444,595.84454C1348.0706,595.8479,1348.0968,595.85065,1348.1232,595.8529Q1350.9589,596.09235,1352.2063,596.14856L1352.206,596.14856Q1352.8885,596.1821,1353.5527,596.19653L1353.5878,596.19696Q1355.3406,596.2009,1356.1166,596.2463L1356.1058,596.2463L1359.2848,596.5336L1359.2711,596.5336Q1359.4492,596.5645,1359.6499,596.5731L1359.6505,596.5731Q1359.9716,596.58673,1362.1792,596.58673Q1362.7275,596.58673,1363.3922,596.58594L1363.4059,596.58594Q1364.3251,596.5996,1364.6316,596.6219L1364.6548,596.6234Q1365.9614,596.7014,1367.3531,596.93665C1367.4553,596.9539,1367.5569,596.9622,1367.6571,596.9622C1368.5244,596.9622,1369.2908,596.33704,1369.4402,595.4532C1369.6068,594.4672,1368.9426,593.53284,1367.9567,593.3662Q1366.386,593.10065,1364.896,593.0103L1364.8938,593.0103Q1364.4799,592.9803,1363.4446,592.96497L1363.4155,592.9648Q1362.641,592.96576,1362.0309,592.96576Q1360.4332,592.96576,1359.9641,592.959L1359.9504,592.959C1359.9299,592.9564,1359.9094,592.9542,1359.8887,592.95233L1356.3851,592.6356L1356.3278,592.6314Q1355.4569,592.5805,1353.6287,592.5759L1353.6151,592.5759Q1353.0055,592.5625,1352.3771,592.5315L1352.3694,592.5311Q1351.2192,592.47925,1348.5504,592.25494L1348.537,592.25494Q1348.434,592.23987,1348.3246,592.2328L1348.3237,592.2327Q1347.8748,592.2039,1345.1053,592.2039Q1344.7148,592.2039,1344.2782,592.20447L1344.2294,592.2053L1344.2128,592.2053Q1343.8429,592.2053,1341.8337,592.0514L1341.8203,592.0514Q1341.681,592.03357,1341.5287,592.02795L1341.5292,592.02795Q1341.2941,592.0193,1339.9579,592.0193Q1339.4534,592.0193,1338.792,592.0205L1338.745,592.0216L1338.7249,592.0216Q1338.5992,592.0216,1338.1486,592.0016L1338.1378,592.00116L1338.1315,592.0009L1338.1389,592.0009Q1337.5984,591.96747,1337.1277,591.87726L1337.1233,591.87726L1334.1891,591.20776C1334.1028,591.18805,1334.015,591.1747,1333.9268,591.16785Q1333.6738,591.14813,1333.42,591.14813Q1333.3837,591.14813,1333.3472,591.14856C1333.3046,591.14905,1333.262,591.151,1333.2195,591.1545Q1332.4335,591.2189,1331.9698,591.2189Q1331.9587,591.2189,1331.9478,591.2188L1331.9344,591.2188L1329.9529,591.0993L1329.884,591.09644L1328.2074,591.0592C1328.194,591.0589,1328.1805,591.0588,1328.1672,591.0588C1328.1497,591.0588,1328.1321,591.059,1328.1145,591.0595L1328.1145,591.0595Q1327.6831,591.03424,1325.3862,590.7852L1325.348,590.7815Q1324.6445,590.7203,1323.8567,590.70514L1323.8265,590.7048L1320.1625,590.6955L1320.1721,590.6955Q1318.9927,590.67444,1317.89,590.5944L1317.8718,590.5932L1317.8699,590.5931L1317.79,590.58984Q1317.5083,590.5847,1317.3011,590.5847 Z"/>
</g>
<g style="fill:rgb(254,254,254); fill-opacity:1.0; stroke-linejoin: miter">
<path d="M1315.3357,736.9453L1315.3357,736.9459L1315.3357,736.9459Q1315.3357,736.9456,1315.3357,736.9453 Z M1313.5209,730.4701C1312.8204,730.4701,1312.1534,730.87897,1311.8579,731.5628Q1311.4576,732.4889,1311.4113,733.268L1311.4113,733.26825Q1311.3987,733.479,1311.4113,733.6809L1311.415,733.72955L1311.7246,737.2017L1311.7236,737.2017Q1311.7255,737.22766,1311.7278,737.2545L1311.7278,737.2539Q1311.8032,738.13824,1312.9828,743.8889L1312.9862,743.8889Q1313.0248,744.2627,1313.0892,746.01465C1313.0917,746.08105,1313.0978,746.14734,1313.1075,746.2131L1313.388,748.10876L1313.3748,748.10876Q1313.424,750.2671,1313.5718,751.1678L1313.5696,751.1678Q1313.7852,753.01874,1314.4883,756.0627L1314.4751,756.0627L1314.632,757.99646C1314.6405,758.1023,1314.6583,758.2072,1314.6853,758.30994Q1315.1139,759.9423,1315.1559,760.3838L1315.1564,760.38916L1315.82,767.1587L1315.8323,767.2574L1315.833,767.26215L1315.8336,767.2656Q1316.2686,770.0568,1316.4722,772.28394C1316.4786,772.3553,1316.4894,772.4258,1316.5043,772.4959L1317.4786,777.0753L1317.4395,776.7032L1317.4819,777.0852L1317.4808,777.0852L1317.4808,777.08527L1317.4808,777.08527Q1317.5914,777.67487,1317.5569,780.92676C1317.5463,781.92664,1318.3481,782.7458,1319.348,782.7565C1319.3546,782.75653,1319.3612,782.7566,1319.3678,782.7566C1320.3586,782.7566,1321.1672,781.9586,1321.1777,780.96533Q1321.2162,777.3572,1321.0397,776.4171L1321.0397,776.41705L1321.0287,776.41705L1321.0182,776.3218L1321.0204,776.3218L1320.046,771.7424L1320.0583,771.7424Q1319.8474,769.5206,1319.4266,766.8054L1319.4237,766.8054L1318.7601,760.0359L1318.7601,760.0359Q1318.6934,759.34393,1318.2474,757.61926L1318.2343,757.61926L1318.0664,755.5497C1318.0592,755.4615,1318.0457,755.3739,1318.0258,755.2877Q1317.344,752.3423,1317.1577,750.67365L1317.145,750.58124Q1317.0317,749.8911,1316.9905,747.817C1316.989,747.74036,1316.9825,747.66394,1316.9713,747.58813L1316.6896,745.6833L1316.7004,745.6833Q1316.6309,743.84424,1316.5743,743.3966L1316.5743,743.39655Q1316.559,743.2751,1316.5331,743.1614L1316.5302,743.1614Q1315.4186,737.7419,1315.3389,736.9786L1315.3374,736.9786L1315.3313,736.8802L1315.0284,733.48334L1315.026,733.48334Q1315.0345,733.34033,1315.1819,732.9994L1315.1819,732.9994C1315.5786,732.08154,1315.1561,731.01587,1314.2383,730.61914C1314.0043,730.518,1313.7606,730.4701,1313.5209,730.4701 Z"/>
</g>
</g>
</svg>