<?xml version="1.0" encoding="UTF-8" standalone="yes"?>
<svg xmlns="http://www.w3.org/2000/svg" xmlns:xlink="http://www.w3.org/1999/xlink" width="700.000pt" height="550.000pt" version="1.1" viewBox="-464.767 517.183 700.000 550.000">
  <!--
	Exported with Concepts: Smarter Sketching
	Version: 2024.11 on Android 13
	https://concepts.app/
	-->
  <title>Expert Unassignment</title>
  <desc>Drawing exported from Concepts: Smarter Sketching</desc>
  <defs></defs>
  <g id="Pen" opacity="1.000">
    <path id="STROKE_dc2e441a-2f0a-45a4-afb6-efb9eebd6eb9" opacity="1.000" fill="none" stroke="#ffffff" stroke-width="1.600" stroke-opacity="1.000" stroke-linecap="round" stroke-linejoin="round" d="M -351.288 602.256 L -315.588 603.044 "></path>
    <path id="STROKE_e7e12c16-1cb8-4e25-b2d0-34f00a9247a8" opacity="1.000" fill="none" stroke="#ffffff" stroke-width="1.600" stroke-opacity="1.000" stroke-linecap="round" stroke-linejoin="round" d="M -343.151 656.331 Q -342.503 657.005 -339.358 657.343 Q -336.212 657.681 -333.077 657.574 Q -329.943 657.467 -327.779 656.411 Q -325.614 655.355 -324.445 654.726 Q -323.275 654.096 -322.849 654.335 Q -322.424 654.574 -321.638 654.768 Q -320.852 654.962 -319.919 654.231 Q -319.920 654.089 -318.344 655.544 Q -317.951 655.412 -316.638 654.494 "></path>
    <path id="STROKE_383e3416-495c-47a0-baba-d66797ffddd7" opacity="1.000" fill="none" stroke="#ffffff" stroke-width="1.600" stroke-opacity="1.000" stroke-linecap="round" stroke-linejoin="round" d="M -343.413 709.881 Q -343.308 709.946 -340.001 708.770 Q -336.694 707.595 -333.322 706.857 Q -329.950 706.119 -328.272 706.101 Q -326.595 706.083 -326.050 705.687 Q -325.505 705.291 -324.716 705.116 Q -323.926 704.941 -321.100 704.106 "></path>
    <path id="STROKE_b3b2789a-e279-4f0d-ad9f-2c142d071185" opacity="1.000" fill="none" stroke="#ffffff" stroke-width="1.600" stroke-opacity="1.000" stroke-linecap="round" stroke-linejoin="round" d="M -341.576 758.706 Q -342.716 758.710 -342.363 758.706 Q -342.494 758.575 -342.625 758.181 Q -343.415 758.155 -337.022 756.837 Q -330.630 755.519 -326.371 754.291 Q -322.113 753.063 -318.476 753.981 "></path>
    <path id="STROKE_f198ea23-4a50-4fee-9fbe-27c536c4484b" opacity="1.000" fill="none" stroke="#ffffff" stroke-width="1.600" stroke-opacity="1.000" stroke-linecap="round" stroke-linejoin="round" d="M -342.625 807.794 Q -342.219 808.144 -340.167 807.426 Q -338.114 806.708 -335.559 806.778 Q -333.004 806.847 -331.857 807.091 Q -330.710 807.334 -328.098 806.289 Q -325.486 805.245 -323.383 804.062 Q -321.279 802.879 -319.263 805.431 "></path>
    <path id="STROKE_cc96dccf-59db-46c2-b120-d26262bf03c0" opacity="1.000" fill="none" stroke="#ffffff" stroke-width="1.600" stroke-opacity="1.000" stroke-linecap="round" stroke-linejoin="round" d="M -309.813 603.306 L -308.500 857.931 "></path>
    <path id="STROKE_a658cf90-1cc6-47af-8b04-e6bcc7d67060" opacity="1.000" fill="none" stroke="#ffffff" stroke-width="1.600" stroke-opacity="1.000" stroke-linecap="round" stroke-linejoin="round" d="M -358.375 604.619 L -357.326 862.656 "></path>
    <path id="STROKE_80704321-7112-4010-ac2d-df02a1b929a0" opacity="1.000" fill="none" stroke="#ffffff" stroke-width="1.600" stroke-opacity="1.000" stroke-linecap="round" stroke-linejoin="round" d="M -348.138 860.819 Q -347.808 860.908 -347.477 860.785 Q -347.145 860.663 -346.117 860.713 L -344.581 860.323 Q -343.598 860.225 -340.414 860.925 Q -339.881 860.781 -338.289 860.412 Q -336.698 860.043 -334.188 859.831 Q -331.678 859.620 -329.293 859.446 Q -326.908 859.273 -326.137 859.279 Q -325.367 859.284 -323.859 859.195 Q -322.352 859.107 -321.783 859.046 Q -321.213 858.986 -317.688 858.719 "></path>
    <path id="STROKE_6bbbb8f9-f447-4333-8087-de836946c0e9" opacity="1.000" fill="none" stroke="#ffffff" stroke-width="1.600" stroke-opacity="1.000" stroke-linecap="round" stroke-linejoin="round" d="M -343.938 632.969 Q -343.788 632.856 -329.500 616.956 Q -328.801 616.297 -328.546 619.837 Q -328.290 623.377 -328.560 625.304 Q -328.830 627.230 -328.476 629.311 Q -328.121 631.391 -327.926 633.756 "></path>
    <path id="STROKE_3df3ba4e-437c-4481-ae20-fd2fc10f4ed3" opacity="1.000" fill="none" stroke="#ffffff" stroke-width="1.600" stroke-opacity="1.000" stroke-linecap="round" stroke-linejoin="round" d="M -330.026 676.281 Q -329.878 675.296 -329.968 673.611 Q -330.059 671.925 -330.206 671.067 Q -330.354 670.209 -331.079 669.503 Q -331.805 668.797 -332.562 668.362 Q -333.320 667.928 -333.605 667.760 Q -333.890 667.592 -334.424 667.830 Q -334.958 668.067 -335.066 668.181 Q -335.173 668.295 -336.937 668.855 Q -338.701 669.415 -339.014 672.959 Q -339.328 676.503 -339.297 678.589 Q -339.266 680.675 -339.580 681.853 Q -339.894 683.031 -339.304 684.792 Q -338.714 686.553 -338.479 687.512 Q -338.244 688.471 -336.853 688.950 Q -335.461 689.430 -333.297 689.337 Q -331.133 689.244 -329.332 688.768 Q -327.532 688.291 -325.948 685.616 Q -324.365 682.941 -324.198 680.895 Q -324.031 678.849 -324.307 677.473 Q -324.584 676.096 -326.126 675.170 Q -327.667 674.244 -328.664 673.779 Q -329.661 673.314 -330.114 671.666 Q -330.567 670.018 -332.519 668.406 Q -332.962 669.529 -333.170 671.448 Q -333.377 673.367 -331.863 675.231 "></path>
    <path id="STROKE_e57d67b3-425e-4d3c-9183-d187ce2f865b" opacity="1.000" fill="none" stroke="#ffffff" stroke-width="1.600" stroke-opacity="1.000" stroke-linecap="round" stroke-linejoin="round" d="M -340.526 734.294 Q -340.657 734.294 -340.788 734.294 Q -340.104 733.341 -340.023 733.299 Q -339.942 733.258 -339.957 733.261 Q -339.972 733.265 -339.988 733.448 Q -340.003 733.631 -331.732 721.956 Q -331.614 723.161 -327.794 718.675 Q -327.883 718.428 -327.461 719.084 Q -327.039 719.740 -326.984 724.673 Q -326.929 729.606 -325.038 736.394 "></path>
    <path id="STROKE_45dccc97-1171-445b-aa09-12bd4397d7fb" opacity="1.000" fill="none" stroke="#ffffff" stroke-width="1.600" stroke-opacity="1.000" stroke-linecap="round" stroke-linejoin="round" d="M -330.550 778.394 Q -330.514 779.063 -330.302 777.394 Q -330.090 775.725 -330.201 774.827 Q -330.313 773.929 -330.479 773.705 Q -330.644 773.481 -330.693 773.098 Q -330.743 772.715 -331.392 771.780 Q -332.042 770.844 -333.555 771.453 Q -335.067 772.063 -336.586 773.570 Q -338.106 775.077 -338.501 777.763 Q -338.896 780.450 -339.323 782.648 Q -339.750 784.847 -339.372 787.025 Q -338.993 789.203 -338.526 790.342 Q -338.059 791.480 -336.344 791.978 Q -334.629 792.476 -333.076 792.430 Q -331.522 792.384 -330.250 791.781 Q -328.977 791.179 -327.969 790.013 Q -326.960 788.846 -326.857 788.129 Q -326.754 787.413 -326.663 786.438 Q -326.571 785.462 -326.669 784.429 Q -326.766 783.396 -327.267 782.018 Q -327.767 780.640 -327.939 779.449 Q -328.111 778.258 -331.207 774.062 Q -331.167 773.840 -330.813 775.769 "></path>
    <path id="STROKE_880a948a-23e3-49ee-93fc-111676b0051c" opacity="1.000" fill="none" stroke="#ffffff" stroke-width="1.600" stroke-opacity="1.000" stroke-linecap="round" stroke-linejoin="round" d="M -342.101 842.444 Q -342.401 842.894 -342.625 843.231 Q -342.625 843.100 -342.625 842.969 Q -342.261 843.769 -340.292 840.720 Q -338.323 837.671 -337.214 835.426 Q -336.105 833.180 -335.014 832.475 Q -333.923 831.770 -328.976 826.431 Q -328.788 826.665 -329.154 831.078 Q -329.520 835.491 -329.779 838.421 Q -330.037 841.351 -329.659 842.928 Q -329.282 844.504 -328.763 845.284 Q -328.245 846.065 -327.663 845.856 "></path>
    <path id="STROKE_c7a76ae9-a02b-4cad-bb19-e9d62b83637b" opacity="1.000" fill="none" stroke="#ffffff" stroke-width="1.600" stroke-opacity="1.000" stroke-linecap="round" stroke-linejoin="round" d="M -288.869 725.971 Q -257.611 701.280 -238.526 693.188 Q -219.442 685.095 -175.571 678.505 Q -131.700 671.914 -89.506 678.293 Q -47.312 684.671 31.131 724.415 "></path>
    <circle id="STROKE_f66a7aba-6be2-4c37-86b0-6e4f418b96f5" opacity="1.000" fill="#ffffff" stroke="#ffffff" stroke-width="0.1" stroke-opacity="1.000" fill-opacity="1.000" cx="37.576" cy="719.082" r="0.800"></circle>
    <path id="STROKE_d724a543-4158-43f2-b44d-4ac26aa6d985" opacity="1.000" fill="none" stroke="#ffffff" stroke-width="1.600" stroke-opacity="1.000" stroke-linecap="round" stroke-linejoin="round" d="M 37.353 718.637 Q 36.808 718.035 31.353 731.082 Q 31.464 731.193 31.576 731.526 "></path>
    <path id="STROKE_13cdf534-0467-4d6d-b452-849be61cc78d" opacity="1.000" fill="none" stroke="#ffffff" stroke-width="1.600" stroke-opacity="1.000" stroke-linecap="round" stroke-linejoin="round" d="M 37.353 717.526 Q 38.129 718.253 38.319 720.488 Q 38.510 722.723 43.909 727.526 Q 44.061 728.713 41.438 729.684 Q 38.816 730.656 37.340 731.133 Q 35.864 731.609 35.028 732.387 Q 34.191 733.165 33.798 734.415 "></path>
    <path id="STROKE_d412b956-1240-479a-9d41-432d6e17efc5" opacity="1.000" fill="none" stroke="#ffffff" stroke-width="1.600" stroke-opacity="1.000" stroke-linecap="round" stroke-linejoin="round" d="M 86.114 602.049 L 121.814 602.836 "></path>
    <path id="STROKE_719cb0a2-7d88-48ba-8a22-91129e5b4628" opacity="1.000" fill="none" stroke="#ffffff" stroke-width="1.600" stroke-opacity="1.000" stroke-linecap="round" stroke-linejoin="round" d="M 94.252 656.124 Q 94.899 656.798 98.045 657.136 Q 101.190 657.474 104.325 657.366 Q 107.460 657.259 109.624 656.203 Q 111.788 655.148 112.958 654.518 Q 114.128 653.889 114.553 654.128 Q 114.979 654.366 115.765 654.560 Q 116.551 654.754 117.483 654.024 Q 117.483 653.881 119.058 655.336 Q 119.452 655.205 120.764 654.286 "></path>
    <path id="STROKE_2a9673ad-908c-4479-89bb-074e57359e88" opacity="1.000" fill="none" stroke="#ffffff" stroke-width="1.600" stroke-opacity="1.000" stroke-linecap="round" stroke-linejoin="round" d="M 93.989 709.674 Q 94.094 709.739 97.402 708.563 Q 100.709 707.387 104.081 706.649 Q 107.453 705.911 109.130 705.893 Q 110.808 705.875 111.353 705.479 Q 111.898 705.084 112.687 704.909 Q 113.476 704.734 116.302 703.899 "></path>
    <path id="STROKE_d6d182ac-4257-4406-a8b7-511c453473d4" opacity="1.000" fill="none" stroke="#ffffff" stroke-width="1.600" stroke-opacity="1.000" stroke-linecap="round" stroke-linejoin="round" d="M 95.827 758.499 Q 94.686 758.502 95.039 758.499 Q 94.908 758.367 94.777 757.974 Q 93.987 757.948 100.380 756.629 Q 106.773 755.311 111.031 754.083 Q 115.290 752.855 118.927 753.774 "></path>
    <path id="STROKE_19f3fc8e-b98c-4738-8d21-49b22bc094d9" opacity="1.000" fill="none" stroke="#ffffff" stroke-width="1.600" stroke-opacity="1.000" stroke-linecap="round" stroke-linejoin="round" d="M 94.777 807.586 Q 95.183 807.937 97.236 807.219 Q 99.288 806.501 101.844 806.570 Q 104.399 806.640 105.546 806.883 Q 106.692 807.126 109.304 806.082 Q 111.917 805.037 114.020 803.855 Q 116.123 802.672 118.139 805.224 "></path>
    <path id="STROKE_69b5b3cb-9df7-43cf-abeb-dc965f14cc5f" opacity="1.000" fill="none" stroke="#ffffff" stroke-width="1.600" stroke-opacity="1.000" stroke-linecap="round" stroke-linejoin="round" d="M 127.589 603.099 L 128.902 857.724 "></path>
    <path id="STROKE_5ce8f858-ffe6-41d5-802d-10d78b8ea422" opacity="1.000" fill="none" stroke="#ffffff" stroke-width="1.600" stroke-opacity="1.000" stroke-linecap="round" stroke-linejoin="round" d="M 79.027 604.411 L 80.077 862.449 "></path>
    <path id="STROKE_8601935b-0bc8-4269-8ea6-b1fb6d5e44e4" opacity="1.000" fill="none" stroke="#ffffff" stroke-width="1.600" stroke-opacity="1.000" stroke-linecap="round" stroke-linejoin="round" d="M 89.264 860.611 Q 89.594 860.700 89.926 860.578 Q 90.257 860.455 91.285 860.505 L 92.821 860.115 Q 93.804 860.018 96.988 860.717 Q 97.522 860.574 99.113 860.205 Q 100.705 859.835 103.215 859.624 Q 105.724 859.412 108.110 859.239 Q 110.495 859.066 111.265 859.071 Q 112.036 859.077 113.543 858.988 Q 115.050 858.899 115.620 858.839 Q 116.189 858.778 119.714 858.511 "></path>
    <path id="STROKE_eca7c1c8-890e-46d0-b687-2a3bed3aed40" opacity="1.000" fill="none" stroke="#ffffff" stroke-width="1.600" stroke-opacity="1.000" stroke-linecap="round" stroke-linejoin="round" d="M 93.464 632.761 Q 93.614 632.649 107.902 616.749 Q 108.601 616.089 108.857 619.629 Q 109.112 623.169 108.842 625.096 Q 108.573 627.023 108.927 629.103 Q 109.281 631.183 109.477 633.549 "></path>
    <path id="STROKE_1c7911af-3beb-4da3-8e3e-0c422e77e80c" opacity="1.000" fill="none" stroke="#ffffff" stroke-width="1.600" stroke-opacity="1.000" stroke-linecap="round" stroke-linejoin="round" d="M 107.377 676.074 Q 107.525 675.089 107.434 673.403 Q 107.344 671.717 107.196 670.859 Q 107.049 670.001 106.323 669.295 Q 105.597 668.589 104.840 668.154 Q 104.083 667.720 103.798 667.552 Q 103.513 667.384 102.978 667.622 Q 102.444 667.860 102.337 667.974 Q 102.230 668.087 100.466 668.648 Q 98.702 669.208 98.388 672.752 Q 98.075 676.296 98.106 678.381 Q 98.136 680.467 97.822 681.645 Q 97.509 682.824 98.098 684.585 Q 98.688 686.346 98.923 687.304 Q 99.158 688.263 100.550 688.743 Q 101.942 689.223 104.106 689.130 Q 106.270 689.037 108.070 688.560 Q 109.870 688.083 111.454 685.408 Q 113.038 682.733 113.205 680.688 Q 113.372 678.642 113.095 677.265 Q 112.818 675.889 111.277 674.963 Q 109.735 674.037 108.738 673.571 Q 107.741 673.106 107.288 671.458 Q 106.836 669.811 104.883 668.199 Q 104.440 669.321 104.233 671.240 Q 104.025 673.159 105.539 675.024 "></path>
    <path id="STROKE_f280c3a2-8628-466a-96fd-e3f3b43c745c" opacity="1.000" fill="none" stroke="#ed5d47" stroke-width="1.600" stroke-opacity="1.000" stroke-linecap="round" stroke-linejoin="round" d="M 96.479 736.995 Q 96.455 736.991 96.562 736.983 Q 96.668 736.975 96.835 736.992 Q 97.001 737.009 97.357 737.126 Q 97.712 737.242 98.223 737.586 Q 98.735 737.931 99.243 738.315 Q 99.751 738.700 100.293 738.952 Q 100.836 739.204 101.420 739.321 Q 102.004 739.439 103.509 739.395 Q 105.013 739.350 106.492 737.845 Q 107.971 736.341 108.864 734.047 Q 109.757 731.753 109.981 729.962 Q 110.206 728.172 109.803 726.941 Q 109.401 725.711 109.084 724.741 Q 108.768 723.771 106.475 722.099 "></path>
    <path id="STROKE_31854da0-c765-467d-acf7-daf69e206c27" opacity="1.000" fill="none" stroke="#ed5d47" stroke-width="1.600" stroke-opacity="1.000" stroke-linecap="round" stroke-linejoin="round" d="M 107.258 722.688 Q 107.226 722.872 107.268 722.023 Q 107.310 721.174 105.302 720.985 Q 103.294 720.796 101.873 720.595 Q 100.452 720.394 99.744 721.071 Q 99.037 721.748 97.877 722.978 Q 96.718 724.208 96.082 726.352 Q 95.446 728.495 95.330 729.834 Q 95.213 731.173 95.291 731.651 Q 95.369 732.129 95.452 733.123 Q 95.535 734.117 96.281 735.163 Q 97.027 736.210 98.831 736.407 "></path>
    <path id="STROKE_3dabe73a-f714-4438-86a0-28c72d8f716d" opacity="1.000" fill="none" stroke="#ed5d47" stroke-width="1.600" stroke-opacity="1.000" stroke-linecap="round" stroke-linejoin="round" d="M 97.655 783.053 Q 97.557 783.151 97.067 783.641 Q 97.563 782.865 100.311 780.805 Q 103.060 778.745 108.042 771.882 Q 108.656 772.098 108.023 775.521 Q 107.391 778.944 107.435 781.165 Q 107.479 783.386 107.914 784.589 Q 108.349 785.791 108.646 786.127 Q 108.943 786.462 109.414 786.777 "></path>
    <path id="STROKE_4c685cd8-f3f8-4077-b14a-886822dc3d80" opacity="1.000" fill="none" stroke="#ed5d47" stroke-width="1.600" stroke-opacity="1.000" stroke-linecap="round" stroke-linejoin="round" d="M 107.258 829.112 Q 107.536 828.005 107.485 828.140 Q 107.433 828.275 107.446 828.222 Q 107.459 828.169 107.411 827.746 Q 107.363 827.323 107.275 827.337 Q 107.187 827.350 107.189 826.925 Q 107.191 826.499 103.829 824.506 Q 102.838 825.054 101.551 826.137 Q 100.263 827.221 99.308 830.285 Q 98.352 833.349 98.156 836.028 Q 97.959 838.706 98.104 840.600 Q 98.249 842.493 99.313 843.768 Q 100.377 845.043 101.528 845.469 Q 102.678 845.894 103.634 845.841 Q 104.590 845.789 105.535 845.451 Q 106.481 845.113 106.887 844.929 Q 107.293 844.746 107.595 844.428 Q 107.897 844.111 108.123 843.672 Q 108.349 843.234 109.018 842.349 Q 109.688 841.464 110.152 838.865 Q 110.615 836.266 108.042 829.504 "></path>
    <path id="STROKE_01006357-7684-4027-8d30-27120ace30a5" opacity="1.000" fill="none" stroke="#ffffff" stroke-width="1.600" stroke-opacity="1.000" stroke-linecap="round" stroke-linejoin="round" d="M -216.472 571.067 L -212.749 570.160 "></path>
    <path id="STROKE_1a7fd2c9-dfa2-483f-9533-7503c34fe0d0" opacity="1.000" fill="none" stroke="#ffffff" stroke-width="1.600" stroke-opacity="1.000" stroke-linecap="round" stroke-linejoin="round" d="M -212.513 574.408 Q -212.331 573.945 -211.488 573.148 Q -210.645 572.351 -209.130 566.725 Q -207.615 561.099 -206.376 555.054 Q -206.432 555.037 -207.359 561.576 Q -208.285 568.116 -207.994 572.478 Q -207.703 576.841 -207.414 578.978 Q -207.125 581.115 -206.650 582.082 Q -206.175 583.048 -206.077 583.019 Q -205.978 582.990 -204.928 583.932 Q -203.877 584.874 -201.902 582.104 Q -199.926 579.334 -198.804 576.775 Q -197.683 574.216 -196.644 570.939 Q -195.604 567.662 -194.942 564.398 Q -194.281 561.134 -194.263 559.045 Q -194.245 556.956 -193.395 552.930 Q -194.375 552.642 -194.620 559.562 Q -194.865 566.483 -194.822 570.639 Q -194.779 574.795 -194.762 576.719 Q -194.745 578.643 -193.470 580.828 Q -192.195 583.012 -191.155 584.396 Q -190.115 585.781 -188.849 585.953 Q -187.583 586.125 -185.842 585.029 "></path>
    <path id="STROKE_9f874f75-2aaf-41c3-9b52-1084d3913121" opacity="1.000" fill="none" stroke="#ffffff" stroke-width="1.600" stroke-opacity="1.000" stroke-linecap="round" stroke-linejoin="round" d="M -175.929 571.104 Q -175.345 570.645 -175.155 569.428 Q -174.964 568.211 -174.742 566.613 Q -174.519 565.014 -174.578 563.696 Q -174.636 562.377 -176.165 561.073 Q -176.578 561.049 -177.957 562.447 Q -179.336 563.844 -179.772 567.596 Q -180.208 571.349 -180.464 573.609 Q -180.719 575.869 -180.418 577.825 Q -180.117 579.782 -179.182 580.900 Q -178.247 582.017 -176.807 581.946 Q -175.368 581.875 -174.288 579.706 Q -173.209 577.536 -172.869 573.906 Q -172.529 570.277 -175.693 563.315 "></path>
    <path id="STROKE_0aaf7670-b10b-43b4-929f-23c50e2ee7f3" opacity="1.000" fill="none" stroke="#ffffff" stroke-width="1.600" stroke-opacity="1.000" stroke-linecap="round" stroke-linejoin="round" d="M -165.544 569.688 Q -164.686 566.976 -164.782 567.074 Q -164.877 567.172 -164.728 566.473 Q -164.579 565.775 -164.591 565.388 Q -164.603 565.001 -164.601 565.024 Q -164.598 565.048 -164.599 564.998 Q -164.600 564.949 -164.600 564.618 Q -164.600 564.288 -164.600 564.276 Q -164.600 564.264 -164.600 564.338 Q -164.600 564.412 -164.600 563.551 Q -164.648 564.310 -164.786 568.656 Q -164.924 573.001 -164.816 575.769 Q -164.709 578.538 -164.553 579.812 Q -164.397 581.085 -163.749 581.966 Q -163.101 582.846 -162.053 582.271 Q -161.005 581.696 -159.771 580.789 Q -158.537 579.883 -157.690 579.461 Q -156.843 579.038 -155.338 579.598 Q -153.832 580.157 -151.500 579.719 Q -150.591 578.712 -152.037 573.128 Q -153.483 567.543 -152.916 560.601 Q -152.562 560.483 -152.326 560.483 "></path>
    <path id="STROKE_11da4e64-153f-4945-a61d-488ccb35f1f5" opacity="1.000" fill="none" stroke="#ffffff" stroke-width="1.600" stroke-opacity="1.000" stroke-linecap="round" stroke-linejoin="round" d="M -146.425 568.744 Q -145.791 568.884 -144.537 568.699 Q -143.283 568.514 -141.820 567.164 Q -140.357 565.814 -139.743 563.728 Q -139.128 561.642 -139.114 560.386 Q -139.101 559.129 -139.062 558.752 Q -139.022 558.374 -140.053 557.414 Q -140.764 557.181 -142.228 560.280 Q -143.691 563.379 -144.129 567.244 Q -144.567 571.110 -144.541 573.372 Q -144.514 575.635 -143.733 577.320 Q -142.951 579.004 -142.287 579.703 Q -141.623 580.402 -139.777 580.364 Q -137.931 580.326 -135.568 578.657 "></path>
    <path id="STROKE_8c271408-08ad-46ca-b2fd-10e04599b643" opacity="1.000" fill="none" stroke="#ffffff" stroke-width="1.600" stroke-opacity="1.000" stroke-linecap="round" stroke-linejoin="round" d="M -122.587 576.768 Q -122.253 576.451 -121.962 574.025 Q -121.671 571.598 -121.201 568.864 Q -120.732 566.130 -120.705 564.239 Q -120.678 562.347 -121.781 560.826 Q -122.883 559.304 -123.394 558.787 Q -123.905 558.271 -124.854 558.361 Q -125.804 558.452 -126.137 558.726 Q -126.470 558.999 -126.861 559.354 Q -127.252 559.709 -128.087 561.008 Q -128.923 562.307 -129.784 564.885 Q -130.646 567.463 -130.663 570.196 Q -130.680 572.929 -130.657 574.276 Q -130.635 575.623 -129.887 576.500 Q -129.139 577.376 -128.307 577.596 Q -127.475 577.815 -126.754 577.446 Q -126.033 577.076 -124.772 575.666 Q -123.510 574.255 -121.731 567.943 Q -119.952 561.632 -119.046 545.141 Q -118.791 545.453 -119.215 549.426 Q -119.639 553.399 -118.695 559.314 Q -117.751 565.229 -117.450 568.461 Q -117.149 571.694 -116.184 573.631 Q -115.219 575.568 -114.328 576.469 Q -113.437 577.369 -112.801 577.389 Q -112.164 577.409 -111.969 577.022 Q -111.773 576.635 -111.550 576.379 Q -111.326 576.124 -111.173 575.990 Q -111.020 575.855 -110.077 574.644 "></path>
    <circle id="STROKE_dfb27d19-6240-45d3-af30-5cd1eb911049" opacity="1.000" fill="#ffffff" stroke="#ffffff" stroke-width="0.1" stroke-opacity="1.000" fill-opacity="1.000" cx="-64.288" cy="551.750" r="0.800"></circle>
    <path id="STROKE_783adb58-95e3-434b-a258-31de78b43691" opacity="1.000" fill="none" stroke="#ffffff" stroke-width="1.600" stroke-opacity="1.000" stroke-linecap="round" stroke-linejoin="round" d="M -72.077 563.551 Q -70.754 562.711 -71.133 562.725 Q -70.589 561.685 -70.270 560.971 Q -69.952 560.257 -69.949 559.853 Q -69.946 559.449 -70.003 558.431 Q -70.060 557.414 -70.160 556.736 Q -70.260 556.059 -71.723 554.582 Q -72.539 554.347 -74.573 556.782 Q -76.607 559.218 -77.565 561.570 Q -78.524 563.922 -79.046 565.901 Q -79.568 567.880 -79.770 570.562 Q -79.972 573.244 -79.527 574.605 Q -79.082 575.967 -77.929 577.042 Q -76.777 578.116 -75.930 578.716 Q -75.083 579.316 -73.598 578.982 Q -72.112 578.649 -67.120 570.396 "></path>
    <path id="STROKE_67cf4753-b3f8-4f7a-934d-b86e79bd7b5b" opacity="1.000" fill="none" stroke="#ffffff" stroke-width="1.600" stroke-opacity="1.000" stroke-linecap="round" stroke-linejoin="round" d="M -61.928 543.725 Q -62.658 544.531 -62.737 552.751 Q -62.817 560.971 -60.865 568.744 Q -60.654 568.919 -60.677 568.883 Q -60.701 568.848 -59.902 568.052 Q -59.102 567.257 -58.528 564.541 Q -57.954 561.826 -56.762 558.772 Q -55.569 555.718 -51.660 552.340 Q -50.651 552.474 -50.577 557.205 Q -50.503 561.936 -50.263 564.727 Q -50.022 567.517 -49.639 568.802 Q -49.255 570.088 -49.040 570.696 Q -48.824 571.304 -47.333 572.597 Q -45.843 573.891 -41.865 573.700 "></path>
    <path id="STROKE_3f15c91b-510b-469c-85d0-c99a1c5f71aa" opacity="1.000" fill="none" stroke="#ffffff" stroke-width="1.600" stroke-opacity="1.000" stroke-linecap="round" stroke-linejoin="round" d="M -36.909 562.135 Q -35.970 563.077 -36.107 562.933 Q -36.244 562.788 -35.892 562.499 Q -35.540 562.209 -35.250 561.902 Q -34.960 561.595 -35.113 561.698 Q -35.266 561.801 -35.031 561.512 Q -34.796 561.222 -34.210 559.844 Q -33.623 558.466 -33.819 556.323 Q -34.015 554.181 -34.450 553.135 Q -34.885 552.090 -35.454 551.725 Q -36.024 551.360 -36.506 551.555 Q -36.988 551.750 -37.229 552.177 Q -37.469 552.604 -38.336 553.506 Q -39.203 554.408 -39.609 558.707 Q -40.015 563.007 -40.041 565.172 Q -40.066 567.336 -39.957 568.847 Q -39.848 570.358 -38.679 571.458 Q -37.510 571.073 -33.132 554.818 Q -33.203 555.198 -33.122 558.848 Q -33.042 562.498 -32.898 565.419 Q -32.754 568.340 -32.191 570.071 Q -31.627 571.802 -30.903 572.634 Q -30.179 573.467 -29.248 573.622 Q -28.317 573.778 -27.541 573.844 Q -26.764 573.909 -25.845 573.146 Q -24.925 572.382 -24.108 571.692 Q -23.291 571.003 -22.338 569.646 Q -21.385 568.290 -19.915 563.079 "></path>
    <circle id="STROKE_b82d6b07-eca3-448c-b190-259b86ac1128" opacity="1.000" fill="#ffffff" stroke="#ffffff" stroke-width="0.1" stroke-opacity="1.000" fill-opacity="1.000" cx="-18.498" cy="560.247" r="0.800"></circle>
    <path id="STROKE_b8ad2e0d-5175-4637-ae02-553116e29bbb" opacity="1.000" fill="none" stroke="#ffffff" stroke-width="1.600" stroke-opacity="1.000" stroke-linecap="round" stroke-linejoin="round" d="M -17.318 550.097 Q -18.277 550.374 -18.396 552.723 Q -18.516 555.071 -18.315 557.142 Q -18.115 559.213 -18.131 562.033 Q -18.147 564.854 -17.908 566.512 Q -17.668 568.171 -17.082 568.980 Q -16.172 568.324 -15.254 563.640 Q -14.336 558.955 -13.836 555.937 Q -13.335 552.919 -10.946 550.569 Q -10.613 550.787 -10.120 550.451 Q -9.141 550.459 -8.887 555.277 Q -8.633 560.096 -8.638 562.656 Q -8.642 565.216 -7.642 566.669 Q -6.641 568.121 -5.639 568.812 Q -4.636 569.502 -3.648 569.376 Q -2.661 569.251 -1.505 568.508 "></path>
    <path id="STROKE_88af71a5-5558-461c-b80b-949b5feb2744" opacity="1.000" fill="none" stroke="#ffffff" stroke-width="1.600" stroke-opacity="1.000" stroke-linecap="round" stroke-linejoin="round" d="M 8.645 559.302 Q 8.291 559.184 7.937 559.066 Q 8.094 558.899 8.105 558.876 Q 8.116 558.852 8.240 558.652 Q 8.363 558.452 8.655 557.933 Q 8.948 557.413 8.645 552.222 Q 6.794 551.739 1.328 566.855 Q 1.257 566.715 5.694 561.545 Q 7.301 561.177 8.505 566.452 Q 9.709 571.727 10.223 576.475 Q 10.737 581.224 11.786 585.270 Q 12.835 589.315 10.061 595.651 Q 9.687 595.365 8.663 593.465 Q 7.638 591.565 7.704 588.712 Q 7.769 585.859 8.349 583.793 Q 8.929 581.727 13.699 574.726 Q 18.470 567.725 21.953 563.119 Q 25.436 558.514 26.819 554.582 Q 25.708 554.088 23.924 555.797 Q 22.139 557.505 21.024 559.955 Q 19.910 562.404 19.866 564.462 Q 19.822 566.520 20.188 567.979 Q 20.555 569.438 21.664 570.496 Q 22.774 571.553 24.652 571.205 Q 26.529 570.856 27.986 569.900 Q 29.442 568.944 31.303 564.967 "></path>
    <path id="STROKE_6fc15367-2bdc-41e6-875d-b3ef08f11bad" opacity="1.000" fill="none" stroke="#ffffff" stroke-width="1.600" stroke-opacity="1.000" stroke-linecap="round" stroke-linejoin="round" d="M 43.105 554.818 Q 42.846 554.397 42.312 552.904 Q 41.778 551.410 37.676 551.396 Q 37.456 551.632 36.963 552.999 Q 36.470 554.366 37.953 556.673 Q 39.437 558.979 40.426 560.644 Q 41.415 562.309 41.527 563.568 Q 41.639 564.828 41.301 566.784 Q 40.963 568.740 40.713 569.921 Q 40.463 571.103 39.501 571.124 Q 38.539 571.145 38.738 570.986 Q 38.083 570.331 38.148 570.396 Q 37.828 570.199 37.558 570.396 Q 36.484 570.757 36.732 567.091 "></path>
    <path id="STROKE_d62a0523-0c78-4266-83d0-6c4ef66e6a79" opacity="1.000" fill="none" stroke="#ffffff" stroke-width="1.600" stroke-opacity="1.000" stroke-linecap="round" stroke-linejoin="round" d="M 59.863 553.166 Q 59.863 553.048 59.863 552.930 Q 58.656 553.165 60.335 557.414 "></path>
    <path id="STROKE_0b41dc13-c8fc-446f-9eca-43658e10ed74" opacity="1.000" fill="none" stroke="#ffffff" stroke-width="1.600" stroke-opacity="1.000" stroke-linecap="round" stroke-linejoin="round" d="M 60.807 563.787 Q 60.671 564.075 60.099 565.675 Q 60.058 565.635 60.121 565.697 Q 60.183 565.760 60.571 566.147 "></path>
    <path id="STROKE_06965c63-dbc8-4b21-b40b-f039a8522c50" opacity="1.000" fill="none" stroke="#ffffff" stroke-width="1.600" stroke-opacity="1.000" stroke-linecap="round" stroke-linejoin="round" d="M 87.242 542.308 Q 86.998 542.971 87.523 540.935 Q 88.048 538.898 89.624 537.499 Q 91.200 536.100 92.057 535.451 Q 92.914 534.802 95.267 535.464 Q 95.965 535.572 94.260 539.257 Q 92.556 542.942 91.207 544.655 Q 89.859 546.369 89.196 549.239 Q 88.534 552.109 88.409 553.789 Q 88.284 555.468 89.147 556.454 Q 90.011 557.440 93.155 557.988 Q 96.299 558.536 98.040 559.004 Q 99.781 559.473 100.931 560.719 Q 100.844 560.612 99.869 562.901 Q 98.893 565.191 97.355 566.640 Q 95.817 568.089 94.864 568.858 Q 93.911 569.627 93.003 569.819 Q 92.094 570.011 91.451 569.783 Q 90.808 569.556 90.227 569.098 Q 89.646 568.640 89.602 568.035 "></path>
    <path id="STROKE_19166e6f-e7b2-4cc8-8f16-015c090ba508" opacity="1.000" fill="none" stroke="#ffffff" stroke-width="1.600" stroke-opacity="1.000" stroke-linecap="round" stroke-linejoin="round" d="M -222.190 570.632 Q -221.954 570.986 -221.600 571.222 Q -220.870 569.451 -220.960 569.620 Q -221.050 569.788 -221.023 569.569 Q -220.997 569.351 -221.011 569.017 Q -221.024 568.683 -221.013 567.891 Q -221.002 567.099 -221.010 566.958 Q -221.017 566.818 -221.031 566.881 Q -221.045 566.945 -220.973 566.933 Q -220.901 566.920 -221.498 565.143 Q -222.096 563.365 -222.994 562.501 Q -223.891 561.636 -224.646 561.486 Q -225.401 561.336 -226.249 561.576 Q -227.098 561.816 -228.084 562.881 Q -229.070 563.946 -229.338 565.273 Q -229.606 566.601 -229.894 568.738 Q -230.182 570.876 -230.393 573.683 Q -230.605 576.490 -230.423 578.183 Q -230.241 579.877 -230.101 580.564 Q -229.961 581.250 -229.512 581.463 Q -229.064 581.675 -228.586 581.880 Q -228.108 582.086 -227.935 582.008 Q -227.762 581.930 -226.767 581.642 Q -225.772 581.353 -224.059 576.434 Q -222.346 571.516 -220.538 561.191 Q -219.690 561.476 -220.105 565.177 Q -220.521 568.878 -219.659 572.831 Q -218.796 576.785 -217.828 579.000 Q -216.859 581.215 -215.464 582.551 Q -214.134 582.351 -214.519 582.433 Q -213.043 582.193 -213.221 582.079 Q -212.393 581.723 -210.861 580.309 "></path>
    <path id="STROKE_3b3dd2fd-8843-4ff8-a971-bd288e666220" opacity="1.000" fill="none" stroke="#ffffff" stroke-width="1.600" stroke-opacity="1.000" stroke-linecap="round" stroke-linejoin="round" d="M -311.409 575.824 Q -311.489 575.956 -312.172 576.424 Q -312.854 576.893 -313.318 577.186 Q -313.783 577.480 -314.241 577.949 Q -311.995 577.786 -302.676 551.514 Q -303.061 551.897 -302.615 557.803 Q -302.170 563.709 -302.246 568.000 Q -302.323 572.291 -299.843 575.470 Q -296.631 577.232 -288.042 547.501 Q -287.220 547.877 -287.514 553.632 Q -287.809 559.388 -287.867 562.882 Q -287.925 566.376 -287.557 568.711 Q -287.189 571.045 -286.746 572.193 Q -286.302 573.341 -285.732 574.233 Q -285.161 575.125 -284.007 575.483 Q -282.854 575.840 -281.433 575.352 "></path>
    <path id="STROKE_7f27c21b-3af2-4d74-a919-bba9bfd07aba" opacity="1.000" fill="none" stroke="#ffffff" stroke-width="1.600" stroke-opacity="1.000" stroke-linecap="round" stroke-linejoin="round" d="M -273.172 566.855 Q -272.510 566.589 -272.314 565.098 Q -272.117 563.608 -272.382 562.290 Q -272.647 560.973 -272.695 560.270 Q -272.742 559.567 -274.706 557.414 Q -276.012 557.380 -277.261 559.917 Q -278.511 562.453 -278.576 566.345 Q -278.641 570.236 -278.638 572.876 Q -278.636 575.516 -276.595 577.005 Q -275.042 576.610 -274.017 570.739 Q -272.993 564.868 -272.228 558.830 Q -272.055 560.329 -271.148 564.640 Q -270.241 568.950 -267.154 573.346 Q -266.780 573.488 -265.594 573.136 Q -264.408 572.784 -263.869 571.989 Q -263.331 571.193 -262.868 570.372 Q -262.406 569.551 -262.032 568.796 Q -261.657 568.042 -261.264 566.292 Q -260.871 564.543 -260.914 563.137 Q -260.958 561.731 -261.066 560.979 Q -261.174 560.227 -261.297 559.791 Q -261.419 559.355 -261.628 558.753 Q -261.837 558.152 -261.848 557.952 Q -261.859 557.752 -261.843 557.414 Q -261.441 557.809 -260.052 562.621 Q -258.664 567.434 -257.863 569.711 Q -257.061 571.987 -256.715 573.449 Q -256.369 574.912 -251.694 576.296 "></path>
    <path id="STROKE_8b285574-244b-4359-8902-54e65f5d72ad" opacity="1.000" fill="none" stroke="#ffffff" stroke-width="1.600" stroke-opacity="1.000" stroke-linecap="round" stroke-linejoin="round" d="M -260.663 579.601 Q -260.590 578.940 -260.202 577.621 Q -259.815 576.302 -259.026 573.163 Q -258.237 570.024 -256.348 565.477 Q -254.459 560.929 -249.570 555.998 "></path>
    <path id="STROKE_d392cdfa-92c2-4104-a130-2ec824cc62db" opacity="1.000" fill="none" stroke="#ffffff" stroke-width="1.600" stroke-opacity="1.000" stroke-linecap="round" stroke-linejoin="round" d="M -252.443 748.240 Q -252.632 747.811 -253.455 744.089 L -253.354 744.089 Q -253.537 744.892 -253.114 751.288 Q -252.691 757.683 -252.072 763.773 Q -251.453 769.862 -251.633 775.171 Q -251.633 774.969 -251.633 774.766 "></path>
    <path id="STROKE_58b784e3-e46f-4526-82b9-488d4b2818b7" opacity="1.000" fill="none" stroke="#ffffff" stroke-width="1.600" stroke-opacity="1.000" stroke-linecap="round" stroke-linejoin="round" d="M -253.455 743.583 Q -253.106 743.317 -255.075 744.291 L -255.075 744.393 Q -254.831 744.790 -251.278 744.102 Q -247.725 743.415 -244.791 743.246 Q -241.857 743.076 -239.281 743.178 "></path>
    <path id="STROKE_c44905fe-3647-4afa-9d1d-c8fb53a26b2c" opacity="1.000" fill="none" stroke="#ffffff" stroke-width="1.600" stroke-opacity="1.000" stroke-linecap="round" stroke-linejoin="round" d="M -250.620 753.707 Q -250.721 753.808 -250.721 754.416 Q -249.999 754.731 -236.648 754.720 "></path>
    <path id="STROKE_75249457-703c-476f-bc66-c386e7d1efa3" opacity="1.000" fill="none" stroke="#ffffff" stroke-width="1.600" stroke-opacity="1.000" stroke-linecap="round" stroke-linejoin="round" d="M -249.405 772.741 L -249.506 772.843 Q -249.642 772.863 -249.451 772.714 Q -249.259 772.566 -245.943 772.772 Q -242.627 772.977 -234.623 772.539 "></path>
    <path id="STROKE_7940f9e8-87a9-47c8-9729-3e92d2c34774" opacity="1.000" fill="none" stroke="#ffffff" stroke-width="1.600" stroke-opacity="1.000" stroke-linecap="round" stroke-linejoin="round" d="M -230.371 754.517 Q -230.472 754.618 -230.776 754.720 Q -230.805 754.713 -230.820 754.530 Q -230.835 754.347 -230.184 755.924 Q -229.534 757.501 -228.737 759.991 Q -227.941 762.481 -226.939 764.923 Q -225.938 767.365 -224.584 769.000 Q -223.230 770.636 -221.978 771.587 Q -220.725 772.539 -219.930 772.916 Q -219.135 773.294 -218.222 773.146 "></path>
    <path id="STROKE_a7f4c55b-a896-4cbd-8c79-565d631dc41a" opacity="1.000" fill="none" stroke="#ffffff" stroke-width="1.600" stroke-opacity="1.000" stroke-linecap="round" stroke-linejoin="round" d="M -229.561 774.969 Q -229.379 774.516 -227.727 770.387 Q -226.075 766.259 -223.874 763.092 Q -221.673 759.926 -220.265 757.914 Q -218.857 755.902 -215.994 754.720 "></path>
    <path id="STROKE_23acfb7d-dd90-493b-a12b-787b21bf13fe" opacity="1.000" fill="none" stroke="#ffffff" stroke-width="1.600" stroke-opacity="1.000" stroke-linecap="round" stroke-linejoin="round" d="M -208.907 743.988 Q -209.416 744.839 -209.312 744.696 Q -209.253 744.686 -209.310 744.533 Q -209.367 744.380 -209.287 747.577 Q -209.206 750.774 -208.707 754.888 Q -208.208 759.001 -208.017 761.373 Q -207.826 763.745 -206.815 765.152 Q -205.804 766.558 -205.191 767.491 Q -204.577 768.424 -204.530 769.007 Q -204.483 769.590 -204.675 770.242 Q -204.867 770.895 -205.262 771.526 "></path>
    <path id="STROKE_56015b16-e302-4b43-8385-401ee0a4de2d" opacity="1.000" fill="none" stroke="#ffffff" stroke-width="1.600" stroke-opacity="1.000" stroke-linecap="round" stroke-linejoin="round" d="M -215.387 760.389 Q -215.604 758.966 -202.832 757.352 "></path>
    <path id="STROKE_2d48b443-a299-4818-b3fb-bbde54c0ad7a" opacity="1.000" fill="none" stroke="#ffffff" stroke-width="1.600" stroke-opacity="1.000" stroke-linecap="round" stroke-linejoin="round" d="M -193.315 751.075 Q -194.168 751.494 -193.807 757.317 Q -193.446 763.141 -192.882 766.766 Q -192.319 770.392 -190.885 772.944 Q -189.666 772.688 -195.543 754.112 Q -195.754 754.160 -193.765 752.998 Q -191.777 751.836 -183.798 753.100 "></path>
    <path id="STROKE_b379d5ff-b9aa-48cd-a00c-ba81bfc5b391" opacity="1.000" fill="none" stroke="#ffffff" stroke-width="1.600" stroke-opacity="1.000" stroke-linecap="round" stroke-linejoin="round" d="M -169.624 760.389 Q -168.219 760.400 -169.826 751.682 Q -171.093 751.212 -172.148 754.023 Q -173.203 756.835 -173.681 758.270 Q -174.158 759.704 -174.119 762.029 Q -174.080 764.354 -173.897 765.817 Q -173.713 767.279 -172.995 768.073 Q -172.277 768.867 -172.016 768.808 Q -171.754 768.749 -171.520 768.712 Q -171.285 768.675 -170.901 768.091 Q -170.516 767.508 -170.419 767.512 Q -170.322 767.517 -169.205 762.922 Q -168.089 758.327 -167.599 751.277 Q -167.537 753.144 -167.615 752.726 Q -167.694 752.308 -167.309 755.582 Q -166.925 758.857 -166.733 761.480 Q -166.541 764.104 -164.969 766.141 Q -163.397 768.178 -160.309 769.097 "></path>
    <path id="STROKE_67ef5ab5-d928-4f6b-9057-1346392e41a7" opacity="1.000" fill="none" stroke="#ffffff" stroke-width="1.600" stroke-opacity="1.000" stroke-linecap="round" stroke-linejoin="round" d="M -151.602 760.592 Q -151.802 760.522 -151.115 758.370 Q -150.429 756.218 -150.264 754.299 Q -150.099 752.380 -150.449 751.605 Q -150.799 750.831 -151.142 749.977 Q -151.484 749.124 -152.108 748.341 Q -153.692 748.669 -154.100 752.803 Q -154.509 756.938 -154.515 759.768 Q -154.521 762.598 -153.700 765.056 Q -152.879 767.513 -152.361 768.676 Q -151.844 769.840 -151.155 770.242 Q -150.466 770.645 -149.857 771.022 Q -149.247 771.398 -148.728 770.947 Q -148.210 770.495 -147.562 769.376 Q -146.915 768.257 -144.920 765.654 "></path>
    <path id="STROKE_73964faf-f005-4e85-8965-1cd4d8af9ed6" opacity="1.000" fill="none" stroke="#ffffff" stroke-width="1.600" stroke-opacity="1.000" stroke-linecap="round" stroke-linejoin="round" d="M -140.870 742.368 Q -141.181 742.986 -140.328 748.684 Q -139.475 754.383 -139.065 757.843 Q -138.655 761.303 -137.794 764.607 Q -136.932 767.912 -133.783 772.336 Q -133.884 772.235 -133.985 772.134 "></path>
    <path id="STROKE_09183787-b5bd-45c0-a3f3-4df45d9e4e2f" opacity="1.000" fill="none" stroke="#ffffff" stroke-width="1.600" stroke-opacity="1.000" stroke-linecap="round" stroke-linejoin="round" d="M -145.932 757.150 Q -145.898 756.229 -141.841 755.933 Q -137.784 755.638 -126.898 754.720 "></path>
    <path id="STROKE_080c259a-6382-402a-8225-fd415f3e9c07" opacity="1.000" fill="none" stroke="#ffffff" stroke-width="1.600" stroke-opacity="1.000" stroke-linecap="round" stroke-linejoin="round" d="M -94.905 758.365 Q -94.701 757.978 -94.675 757.094 Q -94.650 756.211 -94.733 754.304 Q -94.817 752.397 -95.076 751.396 Q -95.334 750.395 -95.575 749.695 Q -95.816 748.995 -96.828 748.442 Q -97.499 748.601 -99.255 752.030 Q -101.012 755.459 -101.354 758.791 Q -101.696 762.122 -101.391 763.814 Q -101.086 765.505 -100.379 766.870 Q -99.673 768.235 -99.278 768.573 Q -98.882 768.911 -97.420 768.860 Q -95.957 768.809 -94.756 767.029 Q -93.555 765.248 -92.486 759.869 Q -91.417 754.490 -91.057 748.240 Q -91.146 748.006 -90.964 752.485 Q -90.783 756.963 -90.475 759.856 Q -90.166 762.750 -89.375 764.981 Q -88.583 767.213 -87.870 768.378 Q -87.157 769.542 -83.565 768.084 "></path>
    <path id="STROKE_300ed189-6a28-4b57-9355-2aab77a75902" opacity="1.000" fill="none" stroke="#ffffff" stroke-width="1.600" stroke-opacity="1.000" stroke-linecap="round" stroke-linejoin="round" d="M -76.680 761.807 Q -76.196 761.236 -75.603 758.553 Q -75.009 755.869 -75.318 754.078 Q -75.627 752.287 -76.549 751.489 Q -77.471 750.691 -78.265 750.758 Q -79.058 750.825 -79.791 751.776 Q -80.524 752.727 -80.876 755.939 Q -81.228 759.150 -80.756 761.873 Q -80.283 764.596 -79.817 765.980 Q -79.351 767.365 -78.721 768.304 Q -78.091 769.244 -76.790 769.511 Q -75.489 769.778 -74.465 769.460 Q -73.442 769.141 -72.038 767.905 Q -70.634 766.668 -69.392 764.386 Q -68.150 762.104 -67.632 759.755 Q -67.113 757.405 -66.812 755.888 Q -66.512 754.370 -66.418 753.375 Q -66.323 752.380 -66.272 751.671 Q -66.220 750.962 -66.128 749.897 Q -66.035 748.833 -65.988 747.942 Q -65.940 747.052 -65.980 746.517 Q -66.020 745.982 -66.100 745.311 Q -66.179 744.640 -66.151 742.874 Q -66.267 742.796 -65.804 749.013 Q -65.342 755.230 -65.020 759.786 Q -64.698 764.343 -62.304 770.514 Q -62.606 770.339 -63.866 768.707 Q -65.125 767.075 -65.743 765.786 Q -66.361 764.498 -66.753 763.328 Q -67.144 762.159 -67.355 761.550 Q -67.565 760.941 -67.747 760.508 Q -67.930 760.074 -67.974 759.024 Q -68.019 757.973 -67.944 757.168 Q -67.870 756.364 -67.666 756.343 Q -67.461 756.322 -67.187 755.894 Q -66.913 755.467 -65.892 754.970 Q -64.870 754.473 -63.465 754.023 Q -62.059 753.573 -60.987 753.378 Q -59.914 753.182 -52.280 749.151 Q -51.233 749.410 -51.075 753.327 Q -50.917 757.244 -50.749 760.086 Q -50.581 762.928 -49.962 764.431 Q -49.343 765.934 -49.103 766.590 Q -48.864 767.246 -48.295 767.407 Q -47.726 767.567 -47.347 767.275 Q -46.968 766.982 -46.712 766.464 "></path>
    <path id="STROKE_78982ba1-6085-4209-963b-f0d27533e27b" opacity="1.000" fill="none" stroke="#ffffff" stroke-width="1.600" stroke-opacity="1.000" stroke-linecap="round" stroke-linejoin="round" d="M -45.497 733.458 Q -45.455 733.165 -46.611 734.167 Q -46.408 734.369 -45.902 734.471 "></path>
    <path id="STROKE_331d62a6-77be-4a51-8d79-052d31cff21a" opacity="1.000" fill="none" stroke="#ffffff" stroke-width="1.600" stroke-opacity="1.000" stroke-linecap="round" stroke-linejoin="round" d="M -30.917 758.162 Q -30.857 757.636 -30.479 755.503 Q -30.101 753.370 -30.069 752.363 Q -30.038 751.356 -30.293 750.936 Q -30.549 750.516 -30.716 750.164 Q -30.884 749.811 -30.982 749.656 Q -31.079 749.501 -31.343 749.208 Q -31.606 748.914 -32.718 749.169 Q -33.831 749.424 -34.872 749.945 Q -35.914 750.466 -37.044 752.547 Q -38.174 754.627 -39.029 756.229 Q -39.885 757.830 -39.918 759.959 Q -39.952 762.088 -39.528 763.656 Q -39.105 765.224 -38.188 766.210 Q -37.271 767.196 -35.492 767.327 Q -33.713 767.458 -32.169 766.213 Q -30.626 764.969 -29.372 763.104 Q -28.117 761.239 -28.241 758.917 Q -28.364 756.596 -28.892 754.172 Q -29.420 751.749 -29.298 749.657 "></path>
    <path id="STROKE_08490172-e740-468d-bcaf-1fe2cc04903a" opacity="1.000" fill="none" stroke="#ffffff" stroke-width="1.600" stroke-opacity="1.000" stroke-linecap="round" stroke-linejoin="round" d="M -18.768 750.265 Q -22.054 749.138 -19.781 765.249 Q -19.268 765.221 -19.201 765.400 Q -19.134 765.578 -17.259 760.745 Q -15.385 755.912 -10.668 748.645 Q -10.268 749.015 -10.019 753.414 Q -9.770 757.814 -9.741 760.387 Q -9.711 762.961 -9.340 764.412 Q -8.970 765.864 -8.516 766.915 Q -8.061 767.965 -7.172 768.361 Q -6.283 768.757 -5.804 768.930 Q -5.326 769.104 -2.366 767.274 "></path>
    <circle id="STROKE_a2af459d-4e61-4f69-9f19-6956f9f65fc9" opacity="1.000" fill="#ffffff" stroke="#ffffff" stroke-width="0.1" stroke-opacity="1.000" fill-opacity="1.000" cx="12.011" cy="746.620" r="0.800"></circle>
    <path id="STROKE_0bdb459e-ac67-4678-8d30-7afc5b22947e" opacity="1.000" fill="none" stroke="#ffffff" stroke-width="1.600" stroke-opacity="1.000" stroke-linecap="round" stroke-linejoin="round" d="M 11.201 759.984 Q 12.048 760.277 13.226 759.984 "></path>
    <path id="STROKE_50bfaaa3-b934-492c-b309-e3e6f02a0406" opacity="1.000" fill="none" stroke="#ffffff" stroke-width="1.600" stroke-opacity="1.000" stroke-linecap="round" stroke-linejoin="round" d="M -138.927 792.840 L -103.227 793.628 "></path>
    <path id="STROKE_859f3203-749f-419e-b5ea-f29a4febec02" opacity="1.000" fill="none" stroke="#ffffff" stroke-width="1.600" stroke-opacity="1.000" stroke-linecap="round" stroke-linejoin="round" d="M -130.789 846.915 Q -130.142 847.589 -126.996 847.927 Q -123.851 848.265 -120.716 848.158 Q -117.581 848.051 -115.417 846.995 Q -113.253 845.940 -112.083 845.310 Q -110.913 844.680 -110.488 844.919 Q -110.062 845.158 -109.276 845.352 Q -108.490 845.546 -107.558 844.815 Q -107.558 844.673 -105.983 846.128 Q -105.589 845.997 -104.277 845.078 "></path>
    <path id="STROKE_b1b289ad-7d45-4cb5-9b4d-22207d6bc2cd" opacity="1.000" fill="none" stroke="#ffffff" stroke-width="1.600" stroke-opacity="1.000" stroke-linecap="round" stroke-linejoin="round" d="M -131.052 900.465 Q -130.947 900.530 -127.639 899.354 Q -124.332 898.179 -120.960 897.441 Q -117.588 896.703 -115.911 896.685 Q -114.233 896.667 -113.688 896.271 Q -113.143 895.875 -112.354 895.700 Q -111.565 895.525 -108.739 894.690 "></path>
    <path id="STROKE_78cae37b-16ec-47de-9a34-0a6126a83fc0" opacity="1.000" fill="none" stroke="#ffffff" stroke-width="1.600" stroke-opacity="1.000" stroke-linecap="round" stroke-linejoin="round" d="M -129.214 949.290 Q -130.355 949.294 -130.002 949.290 Q -130.133 949.159 -130.264 948.765 Q -131.054 948.739 -124.661 947.421 Q -118.268 946.103 -114.010 944.875 Q -109.751 943.647 -106.114 944.565 "></path>
    <path id="STROKE_135be4e4-c33b-45c3-b0f8-14616430c6c3" opacity="1.000" fill="none" stroke="#ffffff" stroke-width="1.600" stroke-opacity="1.000" stroke-linecap="round" stroke-linejoin="round" d="M -130.264 998.378 Q -129.858 998.728 -127.805 998.010 Q -125.753 997.292 -123.197 997.362 Q -120.642 997.432 -119.495 997.675 Q -118.349 997.918 -115.737 996.873 Q -113.125 995.829 -111.021 994.646 Q -108.918 993.463 -106.902 996.015 "></path>
    <path id="STROKE_0e431c6a-80f3-4861-aacb-1557fb930138" opacity="1.000" fill="none" stroke="#ffffff" stroke-width="1.600" stroke-opacity="1.000" stroke-linecap="round" stroke-linejoin="round" d="M -97.452 793.890 L -96.139 1048.515 "></path>
    <path id="STROKE_aeca2889-dd36-423a-a54e-6fe6381e01a5" opacity="1.000" fill="none" stroke="#ffffff" stroke-width="1.600" stroke-opacity="1.000" stroke-linecap="round" stroke-linejoin="round" d="M -146.014 795.203 L -144.964 1053.240 "></path>
    <path id="STROKE_a6b7c238-1ef9-43fc-ab79-a1b4e8595d9a" opacity="1.000" fill="none" stroke="#ffffff" stroke-width="1.600" stroke-opacity="1.000" stroke-linecap="round" stroke-linejoin="round" d="M -135.777 1051.403 Q -135.447 1051.492 -135.115 1051.369 Q -134.784 1051.247 -133.756 1051.297 L -132.220 1050.907 Q -131.237 1050.810 -128.053 1051.509 Q -127.519 1051.366 -125.928 1050.996 Q -124.336 1050.627 -121.826 1050.415 Q -119.317 1050.204 -116.931 1050.031 Q -114.546 1049.857 -113.776 1049.863 Q -113.005 1049.868 -111.498 1049.779 Q -109.991 1049.691 -109.421 1049.630 Q -108.852 1049.570 -105.327 1049.303 "></path>
    <path id="STROKE_9db7ad2f-d005-4b20-b63d-2d90d790ffdc" opacity="1.000" fill="none" stroke="#ffffff" stroke-width="1.600" stroke-opacity="1.000" stroke-linecap="round" stroke-linejoin="round" d="M -125.464 922.564 Q -125.385 922.620 -126.374 922.875 Q -127.364 923.129 -127.832 923.459 Q -128.300 923.790 -128.607 923.959 Q -128.914 924.128 -129.072 924.294 Q -129.230 924.460 -129.237 924.446 Q -129.243 924.433 -129.297 924.462 Q -129.351 924.490 -129.571 924.863 Q -129.790 925.236 -130.098 925.803 Q -130.407 926.369 -130.353 926.342 Q -130.353 926.119 -130.353 925.897 Q -129.859 925.955 -125.977 922.913 Q -122.095 919.871 -116.131 912.786 Q -115.894 913.525 -115.626 917.595 Q -115.359 921.666 -115.214 924.335 Q -115.070 927.004 -114.353 929.230 "></path>
    <path id="STROKE_3caf1e87-0d3e-462a-816e-917a4e988b0f" opacity="1.000" fill="none" stroke="#ffffff" stroke-width="1.600" stroke-opacity="1.000" stroke-linecap="round" stroke-linejoin="round" d="M -127.242 975.453 Q -127.576 975.342 -128.020 975.342 Q -128.131 975.564 -128.131 975.675 Q -127.782 975.306 -127.744 975.325 Q -127.706 975.345 -127.785 975.381 Q -127.864 975.418 -127.475 975.119 Q -127.087 974.819 -126.612 974.436 Q -126.137 974.053 -125.819 973.849 Q -125.501 973.646 -124.153 971.946 Q -122.804 970.246 -121.179 969.678 Q -119.554 969.111 -115.909 964.119 Q -115.584 966.634 -115.714 966.302 Q -115.845 965.969 -114.798 979.008 "></path>
    <path id="STROKE_d1496c80-0734-49f3-a05d-841ac42101e9" opacity="1.000" fill="none" stroke="#ffffff" stroke-width="1.600" stroke-opacity="1.000" stroke-linecap="round" stroke-linejoin="round" d="M -129.242 1025.675 Q -129.576 1025.675 -130.353 1026.119 Q -129.952 1025.862 -129.886 1025.801 Q -129.821 1025.741 -129.487 1025.583 Q -129.153 1025.424 -128.486 1025.326 Q -127.819 1025.229 -126.684 1024.629 Q -125.550 1024.030 -124.249 1023.481 Q -122.948 1022.931 -117.576 1017.675 Q -117.173 1017.089 -116.928 1019.585 Q -116.682 1022.081 -116.428 1024.482 Q -116.175 1026.882 -116.064 1027.593 Q -115.954 1028.304 -115.555 1029.474 Q -115.156 1030.644 -114.909 1032.897 Q -114.687 1032.897 -114.353 1032.786 "></path>
    <path id="STROKE_095eaf1f-d05e-4078-8812-a8b135dafd4f" opacity="1.000" fill="none" stroke="#ffffff" stroke-width="1.600" stroke-opacity="1.000" stroke-linecap="round" stroke-linejoin="round" d="M -120.131 816.786 Q -119.519 817.113 -119.678 817.050 Q -119.836 816.987 -119.781 817.005 Q -119.726 817.022 -119.122 817.016 Q -118.518 817.009 -118.526 817.064 Q -118.534 817.119 -118.131 817.230 Q -117.901 816.871 -117.790 817.003 Q -117.679 817.134 -117.357 816.673 Q -117.035 816.211 -116.892 815.591 Q -116.750 814.970 -116.895 814.048 Q -117.040 813.127 -117.355 812.412 Q -117.670 811.698 -118.075 811.106 Q -118.481 810.515 -119.028 809.789 Q -119.575 809.063 -119.556 809.128 Q -119.537 809.193 -119.544 809.180 Q -119.551 809.166 -119.414 809.188 Q -119.277 809.210 -119.965 808.930 Q -120.653 808.651 -121.807 809.213 Q -122.962 809.775 -124.232 812.047 Q -125.501 814.319 -126.261 817.202 Q -127.020 820.085 -127.294 821.701 Q -127.568 823.317 -127.259 824.471 Q -126.950 825.625 -126.200 826.393 Q -125.449 827.161 -123.196 827.272 Q -120.942 827.382 -119.258 827.145 Q -117.574 826.907 -115.967 825.269 Q -114.360 823.630 -113.721 822.627 Q -113.081 821.623 -112.523 819.240 Q -111.966 816.857 -116.465 811.230 Q -116.597 810.967 -116.798 811.897 "></path>
    <path id="STROKE_d91c18b9-6d14-426e-bd0e-57baa8a40f88" opacity="1.000" fill="none" stroke="#ffffff" stroke-width="1.600" stroke-opacity="1.000" stroke-linecap="round" stroke-linejoin="round" d="M -118.798 867.230 Q -118.839 867.307 -118.678 866.800 Q -118.517 866.293 -118.540 866.345 Q -118.563 866.398 -118.581 866.413 Q -118.598 866.429 -118.199 865.850 Q -117.801 865.270 -117.870 865.287 Q -117.939 865.304 -117.945 865.334 Q -117.951 865.365 -117.868 865.218 Q -117.785 865.071 -118.149 863.881 Q -118.513 862.691 -119.280 862.125 Q -120.046 861.558 -121.035 861.346 Q -122.024 861.134 -123.591 862.981 Q -125.158 864.828 -125.910 866.731 Q -126.662 868.635 -126.617 870.765 Q -126.572 872.896 -125.577 874.759 Q -124.583 876.621 -123.771 877.384 Q -122.958 878.147 -122.384 878.641 Q -121.810 879.135 -120.748 878.888 Q -119.685 878.642 -119.169 878.492 Q -118.653 878.343 -117.978 877.997 Q -117.303 877.652 -116.742 876.571 Q -116.181 875.489 -115.679 874.114 Q -115.177 872.740 -115.534 869.477 Q -115.891 866.215 -116.014 864.350 Q -116.137 862.484 -116.808 861.298 Q -117.480 860.112 -118.465 859.453 Q -119.319 859.306 -119.687 863.008 "></path>
  </g>
</svg>