<?xml version="1.0" encoding="UTF-8" standalone="yes"?>
<svg xmlns="http://www.w3.org/2000/svg" xmlns:xlink="http://www.w3.org/1999/xlink" width="1920.000px" height="1080.000px" version="1.1" viewBox="-422.778 499.677 853.333 480.000">
  <!--
	Exported with Concepts: Smarter Sketching
	Version: 2024.11 on Android 13
	https://concepts.app/
	-->
  <title>Flow</title>
  <desc>Drawing exported from Concepts: Smarter Sketching</desc>
  <defs></defs>
  <g id="Pen" opacity="1.000">
    <path id="STROKE_ad626568-3bbc-499e-86a9-c6883a81c0f0" opacity="1.000" fill="none" stroke="#f9f9f1" stroke-width="1.600" stroke-opacity="1.000" stroke-linecap="round" stroke-linejoin="round" d="M -382.033 725.227 Q -382.139 725.695 -382.193 725.707 Q -381.958 725.773 -380.071 723.295 Q -378.185 720.817 -372.279 706.518 Q -372.195 707.664 -372.219 707.416 Q -372.244 707.168 -372.580 709.014 Q -372.917 710.860 -373.081 714.380 Q -373.245 717.901 -373.346 719.877 Q -373.447 721.854 -373.454 722.858 Q -373.461 723.863 -372.909 724.480 Q -372.356 725.098 -371.852 725.259 Q -371.348 725.419 -370.502 724.834 Q -369.656 724.248 -368.991 723.621 Q -368.325 722.993 -367.115 720.640 Q -365.904 718.287 -364.671 714.698 Q -363.437 711.109 -362.866 708.955 Q -362.295 706.801 -361.725 704.919 Q -361.767 704.745 -361.664 708.984 Q -361.562 713.222 -361.601 715.684 Q -361.640 718.146 -361.226 719.676 Q -360.812 721.206 -360.380 721.872 Q -359.947 722.539 -359.505 722.955 Q -359.064 723.372 -358.777 723.489 Q -358.491 723.605 -358.468 723.696 Q -358.446 723.787 -358.391 723.767 Q -358.337 723.747 -358.344 723.758 Q -358.351 723.768 -358.564 723.817 Q -358.776 723.866 -357.407 723.788 "></path>
    <path id="STROKE_81fb9ad6-0fb9-4bc0-a811-57eb42e3d436" opacity="1.000" fill="none" stroke="#f9f9f1" stroke-width="1.600" stroke-opacity="1.000" stroke-linecap="round" stroke-linejoin="round" d="M -350.371 703.639 Q -350.216 704.041 -350.098 708.923 Q -349.980 713.805 -349.713 717.762 Q -349.445 721.719 -348.612 725.227 "></path>
    <path id="STROKE_95c400d8-e90b-4a43-9cdc-c5e0b90294c8" opacity="1.000" fill="none" stroke="#f9f9f1" stroke-width="1.600" stroke-opacity="1.000" stroke-linecap="round" stroke-linejoin="round" d="M -339.977 704.119 Q -340.162 704.268 -339.710 708.668 Q -339.259 713.068 -338.581 716.352 Q -337.903 719.635 -337.258 722.509 "></path>
    <path id="STROKE_90f87cdd-3df5-47eb-b5a7-ae9b9acba392" opacity="1.000" fill="none" stroke="#f9f9f1" stroke-width="1.600" stroke-opacity="1.000" stroke-linecap="round" stroke-linejoin="round" d="M -341.576 707.477 Q -341.526 707.374 -341.943 707.132 Q -342.360 706.890 -342.035 705.328 Q -341.709 703.766 -340.969 702.587 Q -340.229 701.408 -339.476 700.719 Q -338.724 700.030 -338.065 699.720 Q -337.406 699.410 -335.742 699.132 Q -334.078 698.855 -332.869 698.509 Q -331.661 698.163 -330.339 698.951 Q -329.018 699.739 -328.436 700.517 Q -327.853 701.296 -327.882 703.305 Q -327.911 705.314 -329.147 707.157 Q -330.383 709.000 -331.220 709.911 Q -332.056 710.823 -332.341 710.995 Q -332.625 711.166 -333.287 711.163 Q -333.948 711.160 -334.700 710.995 "></path>
    <path id="STROKE_d40bdf1d-2a10-49b5-9f8d-3b592e67d307" opacity="1.000" fill="none" stroke="#f9f9f1" stroke-width="1.600" stroke-opacity="1.000" stroke-linecap="round" stroke-linejoin="round" d="M -312.312 713.234 Q -311.944 713.603 -311.992 713.554 Q -311.914 713.511 -308.489 713.939 Q -305.064 714.367 -299.530 713.827 Q -293.997 713.287 -290.395 712.847 Q -286.794 712.406 -283.528 711.955 "></path>
    <path id="STROKE_185942e0-3dd3-4498-87e3-eb00adde6005" opacity="1.000" fill="none" stroke="#f9f9f1" stroke-width="1.600" stroke-opacity="1.000" stroke-linecap="round" stroke-linejoin="round" d="M -280.170 706.358 Q -280.997 706.373 -279.690 719.151 Q -279.469 719.618 -281.210 706.118 Q -281.466 705.966 -279.159 706.210 Q -276.852 706.454 -275.235 706.506 Q -273.618 706.559 -272.691 707.133 Q -271.764 707.707 -271.295 708.223 Q -270.827 708.739 -270.599 709.959 Q -270.371 711.180 -271.504 712.857 Q -272.636 714.533 -273.513 715.487 Q -274.389 716.440 -275.117 717.047 Q -275.844 717.653 -276.189 717.985 Q -276.533 718.317 -276.744 718.481 Q -276.956 718.645 -277.265 718.875 Q -277.575 719.106 -277.931 719.311 "></path>
    <path id="STROKE_30fadcb3-951b-4af4-945f-acbff35fb7e5" opacity="1.000" fill="none" stroke="#f9f9f1" stroke-width="1.600" stroke-opacity="1.000" stroke-linecap="round" stroke-linejoin="round" d="M -250.587 632.319 L -250.907 795.588 "></path>
    <path id="STROKE_4c043f9c-6c62-41aa-88b2-19ddad6e6fdd" opacity="1.000" fill="none" stroke="#f9f9f1" stroke-width="1.600" stroke-opacity="1.000" stroke-linecap="round" stroke-linejoin="round" d="M -214.927 629.921 L -217.805 804.543 "></path>
    <path id="STROKE_8ac8d2e6-df6d-4a6e-911e-2434992d4b7a" opacity="1.000" fill="none" stroke="#f9f9f1" stroke-width="1.600" stroke-opacity="1.000" stroke-linecap="round" stroke-linejoin="round" d="M -244.670 625.763 Q -244.750 625.843 -244.830 625.923 Q -245.205 626.011 -243.538 626.359 Q -241.871 626.708 -237.837 626.700 Q -233.803 626.692 -231.488 626.748 Q -229.174 626.803 -227.691 626.377 Q -226.208 625.950 -224.296 625.893 Q -222.385 625.835 -220.684 626.403 "></path>
    <path id="STROKE_e5c6472e-863c-44ef-aad8-db784af24a2c" opacity="1.000" fill="none" stroke="#f9f9f1" stroke-width="1.600" stroke-opacity="1.000" stroke-linecap="round" stroke-linejoin="round" d="M -244.830 802.464 Q -244.931 802.497 -244.935 802.504 Q -244.939 802.510 -244.374 802.231 Q -243.809 801.952 -241.379 801.678 Q -238.949 801.405 -237.741 801.290 Q -236.533 801.175 -234.361 800.993 Q -232.189 800.810 -230.011 800.583 Q -227.833 800.355 -226.676 800.195 Q -225.520 800.036 -224.781 799.715 Q -224.042 799.395 -223.402 798.946 "></path>
    <path id="STROKE_d625bbe8-697b-4504-889a-9f1f4391f1e1" opacity="1.000" fill="none" stroke="#f9f9f1" stroke-width="1.600" stroke-opacity="1.000" stroke-linecap="round" stroke-linejoin="round" d="M -282.729 554.963 Q -282.715 555.107 -282.217 560.223 Q -281.720 565.340 -281.491 568.554 Q -281.262 571.768 -280.650 574.312 "></path>
    <path id="STROKE_3a21feaa-f414-4f68-a7d1-d0bd455d9598" opacity="1.000" fill="none" stroke="#f9f9f1" stroke-width="1.600" stroke-opacity="1.000" stroke-linecap="round" stroke-linejoin="round" d="M -275.213 557.841 Q -275.562 558.317 -273.614 573.832 Q -273.461 573.789 -272.953 570.761 Q -272.444 567.733 -272.090 565.466 Q -271.737 563.199 -269.136 560.560 Q -268.434 560.169 -267.977 563.209 Q -267.521 566.249 -267.119 568.131 Q -266.716 570.013 -266.280 571.070 Q -265.844 572.128 -264.979 572.553 "></path>
    <path id="STROKE_03155b45-8d59-4ffe-903b-dae72b0b7d7c" opacity="1.000" fill="none" stroke="#f9f9f1" stroke-width="1.600" stroke-opacity="1.000" stroke-linecap="round" stroke-linejoin="round" d="M -260.661 560.080 Q -260.810 560.677 -260.426 563.104 Q -260.042 565.531 -259.813 567.981 Q -259.585 570.432 -259.485 571.980 Q -259.385 573.528 -258.582 575.431 "></path>
    <circle id="STROKE_dd4770cc-f1e8-4def-99ac-6cc78c338afd" opacity="1.000" fill="#f9f9f1" stroke="#f9f9f1" stroke-width="0.1" stroke-opacity="1.000" fill-opacity="1.000" cx="-260.021" cy="554.003" r="0.800"></circle>
    <path id="STROKE_9f4bd8b3-9c81-445d-b00d-1f32ead0b122" opacity="1.000" fill="none" stroke="#f9f9f1" stroke-width="1.600" stroke-opacity="1.000" stroke-linecap="round" stroke-linejoin="round" d="M -251.706 556.882 Q -251.140 556.487 -250.978 560.295 Q -250.815 564.103 -250.532 566.551 Q -250.248 568.999 -250.105 570.109 Q -249.962 571.220 -249.440 572.140 Q -248.918 573.059 -248.828 574.312 "></path>
    <path id="STROKE_925e572e-2988-4d04-bcb8-8a71c318901f" opacity="1.000" fill="none" stroke="#f9f9f1" stroke-width="1.600" stroke-opacity="1.000" stroke-linecap="round" stroke-linejoin="round" d="M -255.704 562.958 Q -255.815 562.495 -245.630 560.879 "></path>
    <path id="STROKE_a0861bc5-d015-47d3-a8c3-d413e3eb458d" opacity="1.000" fill="none" stroke="#f9f9f1" stroke-width="1.600" stroke-opacity="1.000" stroke-linecap="round" stroke-linejoin="round" d="M -243.551 558.161 Q -243.577 557.596 -242.780 562.551 Q -241.983 567.507 -240.672 572.873 "></path>
    <circle id="STROKE_30f884ed-9730-4728-8626-4077206589ce" opacity="1.000" fill="#f9f9f1" stroke="#f9f9f1" stroke-width="0.1" stroke-opacity="1.000" fill-opacity="1.000" cx="-241.472" cy="550.485" r="0.800"></circle>
    <path id="STROKE_f25939f3-66c5-4c5c-8cc5-38b65ea02d29" opacity="1.000" fill="none" stroke="#f9f9f1" stroke-width="1.600" stroke-opacity="1.000" stroke-linecap="round" stroke-linejoin="round" d="M -229.159 559.280 Q -229.441 559.102 -229.929 558.505 Q -230.417 557.907 -231.199 558.022 Q -231.981 558.137 -232.658 559.739 Q -233.336 561.341 -233.536 561.883 Q -233.737 562.424 -233.952 564.578 Q -234.167 566.732 -233.835 568.508 Q -233.503 570.284 -232.757 571.673 Q -230.799 571.921 -230.278 558.001 Q -230.290 557.490 -230.009 560.918 Q -229.727 564.346 -229.233 566.744 Q -228.739 569.142 -228.347 570.344 Q -227.955 571.545 -227.430 572.209 Q -226.904 572.873 -225.001 572.873 "></path>
    <path id="STROKE_9d13b9e1-930a-4fdc-854a-1abb11c35f44" opacity="1.000" fill="none" stroke="#f9f9f1" stroke-width="1.600" stroke-opacity="1.000" stroke-linecap="round" stroke-linejoin="round" d="M -225.001 571.753 Q -223.997 572.531 -222.316 569.529 Q -220.635 566.527 -219.593 563.628 Q -218.551 560.730 -217.945 558.308 Q -217.339 555.887 -217.006 552.084 Q -217.394 552.192 -217.111 555.530 Q -216.828 558.868 -216.691 561.043 Q -216.554 563.218 -215.854 564.867 Q -215.155 566.516 -214.860 567.417 Q -214.564 568.319 -214.080 568.831 Q -213.595 569.343 -213.220 569.454 Q -212.845 569.566 -212.655 569.490 Q -212.464 569.413 -212.211 569.286 Q -211.958 569.159 -211.569 568.875 "></path>
    <path id="STROKE_d0fd91e4-c5a1-4032-ac9e-e3c15791b3c2" opacity="1.000" fill="none" stroke="#f9f9f1" stroke-width="1.600" stroke-opacity="1.000" stroke-linecap="round" stroke-linejoin="round" d="M -252.186 599.738 Q -251.856 599.260 -251.678 598.524 Q -251.500 597.788 -251.415 597.161 Q -251.330 596.534 -251.445 596.206 Q -251.560 595.879 -251.687 595.641 Q -251.814 595.403 -252.027 595.037 Q -252.240 594.671 -252.375 594.433 Q -252.509 594.194 -252.436 594.171 Q -252.363 594.147 -252.879 593.786 Q -253.394 593.424 -254.129 593.103 Q -254.865 592.782 -255.614 593.302 Q -256.363 593.822 -257.399 596.627 Q -258.435 599.433 -258.023 608.293 Q -257.042 608.789 -256.132 605.442 Q -255.222 602.095 -254.509 600.463 Q -253.796 598.831 -253.421 598.107 Q -253.046 597.383 -252.705 597.133 Q -252.364 596.882 -251.767 596.980 Q -251.171 597.077 -250.366 598.870 Q -249.562 600.662 -248.758 603.711 Q -247.953 606.759 -247.704 610.234 Q -247.455 613.710 -247.446 615.248 Q -247.436 616.787 -247.457 617.645 Q -247.478 618.503 -247.965 619.127 Q -248.453 619.751 -249.165 619.624 Q -249.877 619.496 -250.523 619.089 Q -251.168 618.681 -251.531 617.561 Q -251.894 616.441 -252.289 615.622 Q -252.684 614.803 -251.884 613.526 Q -251.083 612.248 -250.363 611.486 Q -249.642 610.724 -248.668 610.092 "></path>
    <path id="STROKE_54f52582-d920-4a36-a06d-b53264102c08" opacity="1.000" fill="none" stroke="#f9f9f1" stroke-width="1.600" stroke-opacity="1.000" stroke-linecap="round" stroke-linejoin="round" d="M -243.871 593.021 Q -243.801 593.266 -243.241 596.715 Q -242.682 600.163 -242.529 602.460 Q -242.375 604.756 -240.912 606.294 Q -240.248 606.668 -239.322 603.196 Q -238.397 599.724 -237.646 596.803 Q -236.896 593.883 -235.715 591.422 Q -235.567 591.335 -235.199 594.454 Q -234.830 597.573 -234.093 600.195 Q -233.356 602.818 -230.918 605.175 "></path>
    <path id="STROKE_f38f5ed0-9cb2-48bd-95f2-839c13f3b0a8" opacity="1.000" fill="none" stroke="#f9f9f1" stroke-width="1.600" stroke-opacity="1.000" stroke-linecap="round" stroke-linejoin="round" d="M -228.359 595.420 Q -228.235 595.481 -227.720 596.122 Q -227.206 596.762 -227.014 597.012 Q -226.822 597.262 -226.057 597.210 Q -225.292 597.158 -224.847 596.594 Q -224.401 596.031 -224.028 594.981 Q -223.655 593.931 -223.360 593.144 Q -223.064 592.358 -223.722 588.704 Q -224.098 588.263 -225.151 590.533 Q -226.204 592.804 -226.641 595.061 Q -227.078 597.318 -226.863 599.003 Q -226.649 600.688 -226.419 601.597 Q -226.190 602.505 -225.693 602.949 Q -225.196 603.393 -225.021 603.493 Q -224.846 603.593 -224.650 603.620 Q -224.453 603.647 -224.044 603.736 Q -223.634 603.826 -218.765 601.337 "></path>
    <path id="STROKE_751c5f30-3094-46e2-8ffa-64760763ca23" opacity="1.000" fill="none" stroke="#f9f9f1" stroke-width="1.600" stroke-opacity="1.000" stroke-linecap="round" stroke-linejoin="round" d="M -204.692 589.343 Q -205.068 589.475 -205.939 588.773 Q -206.811 588.071 -207.486 587.525 Q -208.162 586.980 -208.926 587.128 Q -209.690 587.276 -210.452 587.659 Q -211.214 588.043 -211.604 588.696 Q -211.994 589.349 -212.132 589.796 Q -212.270 590.243 -212.346 590.533 Q -212.422 590.823 -212.401 591.526 Q -212.381 592.230 -211.761 593.244 Q -211.142 594.258 -210.719 594.977 Q -210.297 595.696 -209.945 597.056 Q -209.592 598.416 -209.581 599.412 Q -209.570 600.409 -209.805 600.950 Q -210.041 601.491 -210.218 601.850 Q -210.396 602.209 -211.968 603.256 Q -212.736 601.973 -209.170 600.217 "></path>
    <path id="STROKE_f05f5f9c-b033-410d-b705-0de9bc596d08" opacity="1.000" fill="none" stroke="#f9f9f1" stroke-width="1.600" stroke-opacity="1.000" stroke-linecap="round" stroke-linejoin="round" d="M -198.936 587.424 Q -199.279 587.081 -199.575 586.785 Q -200.148 586.359 -199.364 589.522 Q -198.581 592.686 -198.251 594.773 Q -197.922 596.861 -197.946 598.612 Q -197.970 600.362 -198.603 601.665 Q -199.236 602.968 -201.334 604.375 Q -201.344 604.679 -201.443 603.979 Q -201.542 603.278 -201.334 601.816 "></path>
    <path id="STROKE_cd69de53-288b-45db-992b-5b9a6493999a" opacity="1.000" fill="none" stroke="#f9f9f1" stroke-width="1.600" stroke-opacity="1.000" stroke-linecap="round" stroke-linejoin="round" d="M -241.312 655.506 Q -241.392 655.586 -241.472 655.666 Q -241.440 656.069 -238.076 656.553 Q -234.712 657.037 -229.239 654.947 L -229.159 655.027 "></path>
    <path id="STROKE_973ea048-c2e4-415b-b134-c7ed041022ff" opacity="1.000" fill="none" stroke="#f9f9f1" stroke-width="1.600" stroke-opacity="1.000" stroke-linecap="round" stroke-linejoin="round" d="M -239.873 691.966 Q -239.578 692.444 -236.250 692.409 Q -232.922 692.374 -228.999 691.646 "></path>
    <path id="STROKE_cbd5d142-c610-4f36-b9ef-90395f1a59cc" opacity="1.000" fill="none" stroke="#f9f9f1" stroke-width="1.600" stroke-opacity="1.000" stroke-linecap="round" stroke-linejoin="round" d="M -240.512 730.984 Q -240.649 731.190 -240.832 731.464 Q -240.902 730.958 -237.204 731.097 Q -233.506 731.236 -229.319 730.345 "></path>
    <path id="STROKE_8bd258c4-13cc-4cad-8928-ce7619d0a4eb" opacity="1.000" fill="none" stroke="#f9f9f1" stroke-width="1.600" stroke-opacity="1.000" stroke-linecap="round" stroke-linejoin="round" d="M -239.233 765.365 Q -238.052 766.281 -234.819 766.720 Q -231.586 767.159 -227.560 765.365 "></path>
    <path id="STROKE_5a8a5b99-0b8d-4104-a7ff-a8017bf0b16c" opacity="1.000" fill="none" stroke="#f9f9f1" stroke-width="1.600" stroke-opacity="1.000" stroke-linecap="round" stroke-linejoin="round" d="M -240.193 642.394 Q -240.273 642.474 -240.352 642.554 Q -239.880 642.914 -230.838 635.837 Q -230.781 635.204 -230.675 637.204 Q -230.568 639.203 -230.583 640.674 Q -230.597 642.146 -229.479 643.353 "></path>
    <path id="STROKE_44ec4ac8-b5fa-48ed-a15d-efb72b3a8469" opacity="1.000" fill="none" stroke="#f9f9f1" stroke-width="1.600" stroke-opacity="1.000" stroke-linecap="round" stroke-linejoin="round" d="M -234.436 674.056 Q -234.650 674.159 -234.176 673.919 Q -233.702 673.680 -233.233 673.021 Q -232.764 672.362 -233.193 671.498 Q -233.621 670.634 -233.913 670.129 Q -234.206 669.624 -234.527 669.218 Q -234.848 668.812 -235.655 668.772 Q -236.462 668.731 -237.159 669.695 Q -237.856 670.658 -238.253 671.457 Q -238.651 672.256 -238.838 673.656 Q -239.026 675.055 -238.644 676.210 Q -238.262 677.366 -237.899 677.762 Q -237.536 678.159 -236.985 678.543 Q -236.434 678.927 -235.632 679.193 Q -234.830 679.458 -233.863 679.528 Q -232.896 679.598 -232.125 679.183 Q -231.355 678.768 -230.610 677.788 Q -229.864 676.808 -229.806 675.539 Q -229.747 674.270 -230.458 673.002 Q -231.170 671.734 -233.316 670.218 "></path>
    <path id="STROKE_d73ccfa0-42eb-4a65-b65a-fcdce9ecdf76" opacity="1.000" fill="none" stroke="#f9f9f1" stroke-width="1.600" stroke-opacity="1.000" stroke-linecap="round" stroke-linejoin="round" d="M -239.393 713.554 Q -239.473 713.634 -239.553 713.714 Q -239.414 713.799 -236.763 712.052 Q -234.112 710.306 -230.278 705.398 Q -230.174 705.426 -230.154 708.096 Q -230.135 710.765 -230.210 712.407 Q -230.285 714.049 -229.798 715.313 "></path>
    <path id="STROKE_f5cc6342-4ab0-4b09-95a5-8aae32cfb320" opacity="1.000" fill="none" stroke="#f9f9f1" stroke-width="1.600" stroke-opacity="1.000" stroke-linecap="round" stroke-linejoin="round" d="M -232.837 746.496 Q -232.292 745.617 -232.480 744.796 Q -232.667 743.975 -232.929 743.401 Q -233.190 742.827 -234.106 742.515 Q -235.022 742.204 -235.556 742.314 Q -236.089 742.424 -236.441 742.515 Q -236.794 742.605 -237.541 743.044 Q -238.288 743.483 -238.671 744.159 Q -239.054 744.836 -239.432 745.470 Q -239.810 746.105 -239.817 747.248 Q -239.824 748.390 -239.324 749.408 Q -238.823 750.426 -238.354 750.953 Q -237.885 751.479 -237.414 751.886 Q -236.943 752.294 -236.203 752.382 Q -235.464 752.469 -235.149 752.519 Q -234.834 752.568 -233.370 751.927 Q -231.907 751.285 -231.413 749.915 Q -230.918 748.544 -230.968 747.334 Q -231.017 746.123 -231.246 745.260 Q -231.474 744.397 -231.922 744.146 Q -232.371 743.895 -232.734 743.767 Q -233.098 743.640 -234.276 744.257 "></path>
    <path id="STROKE_d9df33c7-3246-4214-903c-270b089f6370" opacity="1.000" fill="none" stroke="#f9f9f1" stroke-width="1.600" stroke-opacity="1.000" stroke-linecap="round" stroke-linejoin="round" d="M -240.193 782.475 Q -240.113 782.635 -240.033 782.795 Q -240.472 783.112 -237.660 781.654 Q -234.848 780.195 -232.037 777.678 Q -231.854 777.393 -231.979 778.634 Q -232.104 779.876 -231.903 781.816 Q -231.701 783.756 -231.238 785.354 "></path>
    <path id="STROKE_d9ce706f-bae8-4c42-b2ae-d93e1775c59c" opacity="1.000" fill="none" stroke="#f9f9f1" stroke-width="1.600" stroke-opacity="1.000" stroke-linecap="round" stroke-linejoin="round" d="M -200.278 709.363 L -30.354 711.986 "></path>
    <path id="STROKE_8a7ba2e4-f962-4611-b1c5-ac6aa6c18b96" opacity="1.000" fill="none" stroke="#f9f9f1" stroke-width="1.600" stroke-opacity="1.000" stroke-linecap="round" stroke-linejoin="round" d="M -29.939 707.707 Q -29.808 707.815 -28.973 717.507 Q -29.849 717.054 -30.768 708.535 Q -30.055 708.262 -28.132 708.721 Q -26.209 709.180 -25.213 709.531 Q -24.217 709.882 -23.381 710.580 Q -22.545 711.279 -22.552 712.080 Q -22.558 712.881 -22.756 713.401 Q -22.953 713.921 -23.442 714.424 Q -23.931 714.927 -27.455 717.921 "></path>
    <circle id="STROKE_ae937f62-cafa-4051-913a-58cff4da47d1" opacity="1.000" fill="#f9f9f1" stroke="#f9f9f1" stroke-width="0.1" stroke-opacity="1.000" fill-opacity="1.000" cx="-179.434" cy="624.884" r="0.800"></circle>
    <path id="STROKE_bc21113d-4f2d-4340-8a6d-e195dd3ec1d9" opacity="1.000" fill="none" stroke="#f9f9f1" stroke-width="1.600" stroke-opacity="1.000" stroke-linecap="round" stroke-linejoin="round" d="M -177.087 625.298 Q -177.131 625.342 -176.811 625.022 Q -176.853 624.376 -178.109 624.090 Q -179.365 623.804 -180.151 623.782 Q -180.937 623.759 -181.468 623.959 Q -181.999 624.158 -182.031 625.028 Q -182.063 625.898 -181.931 626.548 Q -181.799 627.198 -180.640 629.066 Q -179.480 630.933 -178.471 632.516 Q -177.463 634.098 -176.942 636.052 Q -176.421 638.005 -176.276 639.518 Q -176.132 641.031 -177.916 643.519 Q -177.825 643.078 -176.535 640.344 "></path>
    <path id="STROKE_973dadd5-bbd0-4b01-9bc0-92c94e9fbd02" opacity="1.000" fill="none" stroke="#f9f9f1" stroke-width="1.600" stroke-opacity="1.000" stroke-linecap="round" stroke-linejoin="round" d="M -174.050 633.304 Q -174.051 633.377 -172.861 633.646 Q -171.671 633.915 -170.551 632.797 Q -169.432 631.679 -168.682 630.841 Q -167.932 630.002 -167.942 629.539 Q -167.953 629.076 -168.053 628.469 Q -168.153 627.862 -168.322 627.438 Q -168.367 627.219 -169.472 628.883 Q -170.576 630.547 -171.043 632.063 Q -171.510 633.579 -171.546 635.146 Q -171.583 636.714 -171.491 638.192 Q -171.399 639.671 -170.603 640.447 Q -169.806 641.223 -169.269 641.484 Q -168.732 641.745 -165.078 640.068 "></path>
    <path id="STROKE_615356c0-b448-4fb3-83d0-5f7f200e3425" opacity="1.000" fill="none" stroke="#f9f9f1" stroke-width="1.600" stroke-opacity="1.000" stroke-linecap="round" stroke-linejoin="round" d="M -163.698 639.240 Q -163.876 638.723 -162.687 634.769 Q -161.499 630.815 -161.351 624.470 Q -161.525 624.620 -161.946 627.739 Q -162.367 630.857 -162.314 633.161 Q -162.261 635.464 -161.849 636.741 Q -161.437 638.017 -160.912 639.068 Q -160.387 640.119 -159.473 640.426 Q -158.558 640.732 -157.933 640.630 Q -157.308 640.527 -156.758 640.320 Q -156.208 640.113 -155.415 639.792 "></path>
    <path id="STROKE_64aab2cc-2d94-4ed5-b80d-a765ddb55b25" opacity="1.000" fill="none" stroke="#f9f9f1" stroke-width="1.600" stroke-opacity="1.000" stroke-linecap="round" stroke-linejoin="round" d="M -153.483 634.547 Q -153.686 634.705 -152.284 633.049 Q -150.883 631.393 -150.515 626.886 Q -151.281 626.948 -151.067 627.024 Q -151.641 627.373 -152.479 629.264 Q -153.317 631.154 -153.199 633.144 Q -153.081 635.133 -152.947 636.443 Q -152.814 637.753 -152.253 638.541 Q -151.693 639.328 -150.629 639.720 Q -149.564 640.112 -146.857 638.136 "></path>
    <path id="STROKE_292bed34-793d-4963-835e-d601979fad0d" opacity="1.000" fill="none" stroke="#f9f9f1" stroke-width="1.600" stroke-opacity="1.000" stroke-linecap="round" stroke-linejoin="round" d="M -141.612 632.614 Q -141.351 632.028 -141.375 631.746 Q -141.399 631.465 -141.459 630.281 Q -141.519 629.097 -142.647 627.783 Q -143.246 627.914 -143.740 629.459 Q -144.234 631.005 -144.295 632.754 Q -144.357 634.502 -144.047 636.000 Q -143.737 637.498 -143.226 638.311 Q -142.715 639.124 -142.088 639.650 Q -141.461 640.176 -140.312 640.043 Q -139.163 639.911 -137.885 638.826 "></path>
    <path id="STROKE_977a5669-2780-4f16-82f7-6cacaab454c7" opacity="1.000" fill="none" stroke="#f9f9f1" stroke-width="1.600" stroke-opacity="1.000" stroke-linecap="round" stroke-linejoin="round" d="M -132.501 622.676 Q -132.378 622.870 -132.240 626.597 Q -132.102 630.323 -132.003 632.594 Q -131.904 634.864 -130.569 637.307 Q -130.638 637.239 -130.707 637.169 "></path>
    <path id="STROKE_4ec52c6e-fe46-407e-8727-7f11966732c7" opacity="1.000" fill="none" stroke="#f9f9f1" stroke-width="1.600" stroke-opacity="1.000" stroke-linecap="round" stroke-linejoin="round" d="M -135.400 629.715 Q -135.005 629.555 -123.805 630.544 "></path>
    <path id="STROKE_97feebaa-6eb0-40a9-b86e-54448578092d" opacity="1.000" fill="none" stroke="#f9f9f1" stroke-width="1.600" stroke-opacity="1.000" stroke-linecap="round" stroke-linejoin="round" d="M -191.719 658.013 Q -191.797 657.939 -191.760 657.899 Q -191.723 657.858 -191.692 657.817 Q -191.661 657.777 -191.283 657.871 Q -190.905 657.966 -190.612 658.337 Q -190.319 658.707 -190.262 659.041 Q -190.204 659.376 -189.797 660.448 Q -189.390 661.521 -189.118 663.110 Q -188.846 664.700 -188.811 665.859 Q -188.776 667.019 -188.571 668.422 Q -188.366 669.826 -186.957 670.851 Q -186.390 670.955 -185.365 667.783 Q -184.341 664.610 -183.781 662.929 Q -183.221 661.249 -182.876 660.486 Q -182.531 659.724 -182.398 659.462 Q -182.264 659.200 -181.756 659.071 Q -181.248 658.942 -181.198 658.835 Q -181.148 658.728 -181.060 658.664 Q -180.972 658.599 -180.977 658.598 Q -180.982 658.598 -181.022 658.612 Q -181.063 658.627 -180.676 658.427 "></path>
    <path id="STROKE_7b337726-1abe-46d1-8cd1-aefd3c35dad6" opacity="1.000" fill="none" stroke="#f9f9f1" stroke-width="1.600" stroke-opacity="1.000" stroke-linecap="round" stroke-linejoin="round" d="M -174.189 658.979 Q -175.124 658.475 -174.879 658.496 Q -175.237 658.023 -175.224 658.082 Q -175.186 658.137 -175.491 657.732 Q -175.797 657.327 -176.496 657.626 Q -177.195 657.926 -177.642 658.691 Q -178.088 659.456 -178.621 660.155 Q -179.153 660.854 -179.041 663.158 Q -178.929 665.462 -178.527 666.996 Q -178.125 668.531 -177.294 669.608 Q -175.777 668.887 -174.327 659.117 Q -174.227 659.338 -174.068 661.752 Q -173.909 664.165 -173.761 665.561 Q -173.612 666.958 -173.359 667.664 Q -173.107 668.369 -172.256 668.918 "></path>
    <path id="STROKE_873cf615-6751-4982-b525-dfe7d86e4b02" opacity="1.000" fill="none" stroke="#f9f9f1" stroke-width="1.600" stroke-opacity="1.000" stroke-linecap="round" stroke-linejoin="round" d="M -166.596 658.289 Q -166.596 658.991 -164.181 667.262 L -164.112 667.262 Q -163.630 666.092 -168.391 657.599 Q -168.801 656.944 -162.041 657.047 "></path>
    <path id="STROKE_cea488e1-f818-4e39-8ad9-1d3e81787fd1" opacity="1.000" fill="none" stroke="#f9f9f1" stroke-width="1.600" stroke-opacity="1.000" stroke-linecap="round" stroke-linejoin="round" d="M -155.139 656.771 Q -154.932 657.109 -154.208 660.331 Q -153.484 663.552 -151.550 666.986 "></path>
    <circle id="STROKE_0aec6329-0e0f-453f-821b-7d5aa6ad1f74" opacity="1.000" fill="#f9f9f1" stroke="#f9f9f1" stroke-width="0.1" stroke-opacity="1.000" fill-opacity="1.000" cx="-154.863" cy="651.111" r="0.800"></circle>
    <path id="STROKE_2631e209-cc25-46b3-be67-ef2c2ed90d3c" opacity="1.000" fill="none" stroke="#f9f9f1" stroke-width="1.600" stroke-opacity="1.000" stroke-linecap="round" stroke-linejoin="round" d="M -142.164 657.323 Q -142.288 657.063 -142.801 656.655 Q -143.313 656.246 -143.738 655.939 Q -144.164 655.633 -144.891 656.200 Q -145.618 656.767 -145.965 657.566 Q -146.312 658.364 -146.594 659.896 Q -146.875 661.429 -146.881 663.115 Q -146.886 664.800 -146.636 665.945 Q -146.385 667.091 -145.546 667.883 Q -144.741 668.242 -143.563 665.671 Q -142.386 663.100 -141.962 661.011 Q -141.538 658.923 -141.612 656.771 Q -141.876 657.074 -141.705 659.503 Q -141.533 661.932 -141.476 663.377 Q -141.419 664.822 -141.047 665.598 Q -140.675 666.373 -140.070 667.059 Q -139.465 667.745 -138.023 667.262 "></path>
    <path id="STROKE_1fc37af0-2447-4e9d-9277-9b3667569fef" opacity="1.000" fill="none" stroke="#f9f9f1" stroke-width="1.600" stroke-opacity="1.000" stroke-linecap="round" stroke-linejoin="round" d="M -135.400 651.525 Q -135.316 652.097 -134.020 663.811 Q -133.515 663.904 -133.076 661.953 Q -132.637 660.003 -132.038 658.918 Q -131.439 657.832 -130.979 657.375 Q -130.518 656.918 -129.934 657.201 Q -129.349 657.484 -128.920 657.831 Q -128.491 658.179 -127.797 659.606 Q -127.103 661.034 -126.948 662.137 Q -126.794 663.241 -126.713 663.968 Q -126.631 664.696 -127.555 665.615 Q -128.480 666.534 -129.419 667.017 Q -130.357 667.500 -130.849 667.464 Q -131.341 667.429 -131.631 667.118 Q -131.922 666.808 -132.033 666.321 Q -132.144 665.835 -132.021 665.241 Q -131.897 664.647 -131.892 664.468 Q -131.886 664.289 -129.602 662.292 "></path>
    <path id="STROKE_cfb8d5cd-e165-46c1-a371-9e39261696d5" opacity="1.000" fill="none" stroke="#f9f9f1" stroke-width="1.600" stroke-opacity="1.000" stroke-linecap="round" stroke-linejoin="round" d="M -123.529 660.084 Q -122.646 660.064 -121.689 657.909 Q -120.732 655.753 -120.295 654.719 Q -119.859 653.685 -119.705 652.490 Q -119.551 651.296 -119.940 650.007 Q -120.249 649.755 -120.967 652.125 Q -121.685 654.495 -121.836 656.192 Q -121.988 657.889 -121.967 658.890 Q -121.946 659.890 -121.813 661.097 Q -121.679 662.304 -121.230 663.374 Q -120.781 664.444 -119.872 664.933 Q -118.964 665.422 -118.430 665.476 Q -117.896 665.530 -117.347 665.174 Q -116.799 664.818 -115.937 664.225 "></path>
    <path id="STROKE_20b71647-e858-48cf-afb6-25cecf7aa73a" opacity="1.000" fill="none" stroke="#f9f9f1" stroke-width="1.600" stroke-opacity="1.000" stroke-linecap="round" stroke-linejoin="round" d="M -113.452 660.774 Q -113.092 660.763 -111.968 659.135 Q -110.845 657.507 -110.308 656.337 Q -109.771 655.167 -109.637 654.171 Q -109.503 653.175 -109.552 652.638 Q -109.602 652.101 -109.694 651.999 Q -109.787 651.898 -109.760 651.825 Q -109.733 651.753 -109.795 651.696 Q -109.858 651.638 -110.318 651.723 Q -110.779 651.807 -110.949 652.189 Q -111.119 652.571 -111.457 652.997 Q -111.794 653.423 -112.305 655.359 Q -112.816 657.294 -113.048 659.104 Q -113.279 660.915 -113.086 662.208 Q -112.893 663.502 -112.298 664.443 Q -111.703 665.384 -110.905 665.915 Q -110.106 666.446 -105.860 665.053 "></path>
    <path id="STROKE_dbb66ea5-7cc7-4921-b115-e0e0f97af3eb" opacity="1.000" fill="none" stroke="#f9f9f1" stroke-width="1.600" stroke-opacity="1.000" stroke-linecap="round" stroke-linejoin="round" d="M -100.615 651.525 Q -100.556 651.426 -101.141 651.622 Q -101.726 651.818 -102.231 652.080 Q -102.736 652.342 -102.903 652.857 Q -103.071 653.373 -102.754 653.995 Q -102.437 654.616 -102.016 655.312 Q -101.594 656.008 -100.415 657.668 Q -99.236 659.328 -98.563 660.621 Q -97.889 661.915 -97.690 662.533 Q -97.492 663.152 -97.925 664.180 Q -98.358 665.207 -102.340 665.398 Q -102.409 665.260 -102.409 665.191 "></path>
    <path id="STROKE_49945bfb-e73f-4b2b-abe3-76de80901207" opacity="1.000" fill="none" stroke="#f9f9f1" stroke-width="1.600" stroke-opacity="1.000" stroke-linecap="round" stroke-linejoin="round" d="M -74.802 648.627 Q -74.412 648.634 -74.003 653.222 Q -73.593 657.811 -73.302 661.330 Q -73.012 664.849 -71.903 667.814 "></path>
    <path id="STROKE_5d1cbc6f-4794-4f59-93bc-77e0106d44f2" opacity="1.000" fill="none" stroke="#f9f9f1" stroke-width="1.600" stroke-opacity="1.000" stroke-linecap="round" stroke-linejoin="round" d="M -77.424 658.151 Q -77.460 658.528 -67.486 657.875 "></path>
    <path id="STROKE_06c93da2-b2d6-4151-976c-0f79f986860f" opacity="1.000" fill="none" stroke="#f9f9f1" stroke-width="1.600" stroke-opacity="1.000" stroke-linecap="round" stroke-linejoin="round" d="M -62.654 655.667 Q -62.889 656.054 -63.746 657.495 Q -64.603 658.936 -64.724 660.404 Q -64.845 661.872 -64.322 662.935 Q -63.799 663.998 -62.447 664.570 Q -61.878 664.457 -61.011 663.438 Q -60.145 662.419 -59.560 661.562 Q -58.976 660.705 -59.228 659.833 Q -59.480 658.962 -60.860 657.737 "></path>
    <path id="STROKE_7ed5e88a-74d5-4b7f-ab2a-2d9cc9fe2a89" opacity="1.000" fill="none" stroke="#f9f9f1" stroke-width="1.600" stroke-opacity="1.000" stroke-linecap="round" stroke-linejoin="round" d="M -160.661 682.584 Q -160.592 682.719 -160.308 686.322 Q -160.025 689.925 -159.965 691.786 Q -159.905 693.646 -159.759 694.776 Q -159.613 695.906 -158.521 697.009 Q -156.919 697.549 -154.449 686.311 Q -153.855 686.695 -153.482 688.872 Q -153.110 691.048 -152.835 692.428 Q -152.559 693.807 -151.971 694.424 Q -151.382 695.041 -150.918 695.156 Q -150.454 695.271 -149.898 695.030 Q -149.341 694.789 -149.013 694.249 Q -148.685 693.708 -148.514 693.213 "></path>
    <path id="STROKE_b51dd848-e17c-4a13-bf7b-3f56255d363d" opacity="1.000" fill="none" stroke="#f9f9f1" stroke-width="1.600" stroke-opacity="1.000" stroke-linecap="round" stroke-linejoin="round" d="M -148.376 682.998 Q -147.600 682.829 -146.443 694.041 Q -146.092 694.325 -145.625 692.024 Q -145.159 689.722 -144.664 688.152 Q -144.169 686.581 -142.923 685.759 Q -142.573 685.726 -142.000 687.757 Q -141.426 689.788 -141.056 690.846 Q -140.686 691.904 -140.452 692.700 Q -140.219 693.496 -138.437 694.317 "></path>
    <path id="STROKE_f7bf7c86-bd92-4cd1-9350-315a2b3de39e" opacity="1.000" fill="none" stroke="#f9f9f1" stroke-width="1.600" stroke-opacity="1.000" stroke-linecap="round" stroke-linejoin="round" d="M -130.017 687.829 Q -130.468 687.116 -130.337 687.267 Q -130.206 687.417 -130.322 686.002 Q -130.439 684.588 -131.259 682.722 Q -131.656 682.669 -132.077 682.773 Q -132.499 682.876 -133.165 684.942 Q -133.830 687.007 -134.398 688.521 Q -134.966 690.034 -133.882 694.455 Q -133.312 694.334 -132.395 690.579 Q -131.478 686.825 -129.879 682.998 Q -129.259 683.069 -129.248 683.091 Q -129.236 683.114 -129.119 683.166 Q -129.003 683.218 -128.904 683.257 Q -128.806 683.296 -128.151 684.151 Q -127.496 685.007 -126.963 686.329 Q -126.430 687.651 -126.391 689.230 Q -126.352 690.810 -126.209 691.694 Q -126.066 692.579 -125.896 693.269 Q -125.726 693.960 -125.161 694.205 Q -124.596 694.450 -123.749 693.819 Q -122.902 693.187 -122.286 691.970 "></path>
    <path id="STROKE_90abbff3-737a-48aa-b9fa-9eb971eea340" opacity="1.000" fill="none" stroke="#f9f9f1" stroke-width="1.600" stroke-opacity="1.000" stroke-linecap="round" stroke-linejoin="round" d="M -116.903 682.584 Q -117.417 682.262 -118.076 682.166 Q -118.736 682.071 -119.550 682.312 Q -120.365 682.553 -120.615 682.851 Q -120.865 683.148 -120.889 683.438 Q -120.913 683.728 -120.888 684.122 Q -120.862 684.517 -120.804 684.889 Q -120.747 685.261 -120.370 685.734 Q -119.993 686.207 -119.225 688.381 Q -118.457 690.555 -119.250 695.007 Q -119.609 694.817 -115.937 689.210 "></path>
    <path id="STROKE_99fb932f-7c71-4237-9f6f-4f4144e193b7" opacity="1.000" fill="none" stroke="#f9f9f1" stroke-width="1.600" stroke-opacity="1.000" stroke-linecap="round" stroke-linejoin="round" d="M -111.243 681.065 Q -111.398 680.831 -111.796 680.375 Q -112.410 680.263 -111.515 683.567 Q -110.619 686.871 -110.200 688.635 Q -109.780 690.400 -109.507 691.417 Q -109.233 692.435 -109.555 692.976 Q -109.876 693.517 -110.414 693.499 Q -110.952 693.482 -111.520 692.868 Q -111.556 692.909 -111.422 692.654 Q -111.287 692.400 -110.969 692.023 Q -110.651 691.646 -110.139 691.280 "></path>
    <path id="STROKE_c4ee5e04-7203-4d26-afe4-e5d062457b85" opacity="1.000" fill="none" stroke="#f9f9f1" stroke-width="1.600" stroke-opacity="1.000" stroke-linecap="round" stroke-linejoin="round" d="M -101.443 681.479 Q -101.693 681.718 -99.924 692.799 Q -99.855 692.799 -99.648 692.799 "></path>
    <circle id="STROKE_9b610925-8d5c-46d0-a304-38136ae70960" opacity="1.000" fill="#f9f9f1" stroke="#f9f9f1" stroke-width="0.1" stroke-opacity="1.000" fill-opacity="1.000" cx="-100.753" cy="677.062" r="0.800"></circle>
    <path id="STROKE_2e09db11-3470-430d-b0a3-880d9e5d3dde" opacity="1.000" fill="none" stroke="#f9f9f1" stroke-width="1.600" stroke-opacity="1.000" stroke-linecap="round" stroke-linejoin="round" d="M -90.814 685.759 Q -90.993 685.789 -90.539 685.790 Q -90.086 685.790 -89.954 684.884 Q -89.822 683.979 -89.917 682.515 Q -90.473 682.054 -92.050 684.275 Q -93.628 686.496 -94.817 690.452 Q -94.635 690.626 -91.021 686.311 Q -90.169 686.209 -89.077 688.920 Q -87.985 691.631 -87.268 694.910 Q -86.551 698.188 -86.140 701.058 Q -85.728 703.927 -85.914 706.533 Q -86.642 706.419 -86.466 706.464 Q -86.758 706.449 -87.271 706.049 Q -87.783 705.648 -88.218 705.031 Q -88.652 704.414 -88.856 703.414 Q -89.060 702.413 -89.080 701.474 Q -89.100 700.535 -88.686 699.755 Q -88.272 698.974 -87.363 697.906 "></path>
    <path id="STROKE_6604c2c5-44a5-4fd0-8b4a-b181685496ba" opacity="1.000" fill="none" stroke="#f9f9f1" stroke-width="1.600" stroke-opacity="1.000" stroke-linecap="round" stroke-linejoin="round" d="M -81.151 682.032 Q -80.903 682.556 -80.945 684.152 Q -80.986 685.748 -79.909 692.523 Q -79.353 692.695 -78.553 690.053 Q -77.754 687.410 -76.044 683.412 Q -75.438 683.231 -74.997 685.261 Q -74.556 687.290 -74.320 688.411 Q -74.084 689.531 -73.529 690.541 Q -72.974 691.550 -71.853 691.740 Q -70.732 691.929 -68.728 689.900 "></path>
    <path id="STROKE_56029abf-76be-4151-8afd-a5f992cef003" opacity="1.000" fill="none" stroke="#f9f9f1" stroke-width="1.600" stroke-opacity="1.000" stroke-linecap="round" stroke-linejoin="round" d="M -250.587 632.319 L -250.907 795.588 "></path>
    <path id="STROKE_4675e8b6-8d62-495f-9844-eebd01df3313" opacity="1.000" fill="none" stroke="#f9f9f1" stroke-width="1.600" stroke-opacity="1.000" stroke-linecap="round" stroke-linejoin="round" d="M -214.927 629.921 L -217.805 804.543 "></path>
    <path id="STROKE_92f288d0-406b-4e80-a670-004055e60479" opacity="1.000" fill="none" stroke="#f9f9f1" stroke-width="1.600" stroke-opacity="1.000" stroke-linecap="round" stroke-linejoin="round" d="M -244.670 625.763 Q -244.750 625.843 -244.830 625.923 Q -245.205 626.011 -243.538 626.359 Q -241.871 626.708 -237.837 626.700 Q -233.803 626.692 -231.488 626.748 Q -229.174 626.803 -227.691 626.377 Q -226.208 625.950 -224.296 625.893 Q -222.385 625.835 -220.684 626.403 "></path>
    <path id="STROKE_278b8b29-8b53-4e0d-844a-4ee6890c1595" opacity="1.000" fill="none" stroke="#f9f9f1" stroke-width="1.600" stroke-opacity="1.000" stroke-linecap="round" stroke-linejoin="round" d="M -244.830 802.464 Q -244.931 802.497 -244.935 802.504 Q -244.939 802.510 -244.374 802.231 Q -243.809 801.952 -241.379 801.678 Q -238.949 801.405 -237.741 801.290 Q -236.533 801.175 -234.361 800.993 Q -232.189 800.810 -230.011 800.583 Q -227.833 800.355 -226.676 800.195 Q -225.520 800.036 -224.781 799.715 Q -224.042 799.395 -223.402 798.946 "></path>
    <path id="STROKE_ce6f993c-0584-4c42-a330-b8874bffca11" opacity="1.000" fill="none" stroke="#f9f9f1" stroke-width="1.600" stroke-opacity="1.000" stroke-linecap="round" stroke-linejoin="round" d="M -241.312 655.506 Q -241.392 655.586 -241.472 655.666 Q -241.440 656.069 -238.076 656.553 Q -234.712 657.037 -229.239 654.947 L -229.159 655.027 "></path>
    <path id="STROKE_fec4050c-a62b-4f9e-a9fe-ae934a0fa520" opacity="1.000" fill="none" stroke="#f9f9f1" stroke-width="1.600" stroke-opacity="1.000" stroke-linecap="round" stroke-linejoin="round" d="M -239.873 691.966 Q -239.578 692.444 -236.250 692.409 Q -232.922 692.374 -228.999 691.646 "></path>
    <path id="STROKE_f2ebd098-8570-4a36-9657-ee4b3cca89ce" opacity="1.000" fill="none" stroke="#f9f9f1" stroke-width="1.600" stroke-opacity="1.000" stroke-linecap="round" stroke-linejoin="round" d="M -240.512 730.984 Q -240.649 731.190 -240.832 731.464 Q -240.902 730.958 -237.204 731.097 Q -233.506 731.236 -229.319 730.345 "></path>
    <path id="STROKE_ca9bf887-5e65-4c6d-9e54-83dcbe027d91" opacity="1.000" fill="none" stroke="#f9f9f1" stroke-width="1.600" stroke-opacity="1.000" stroke-linecap="round" stroke-linejoin="round" d="M -239.233 765.365 Q -238.052 766.281 -234.819 766.720 Q -231.586 767.159 -227.560 765.365 "></path>
    <path id="STROKE_f19ece69-7363-4a78-9c43-03aa2b33d739" opacity="1.000" fill="none" stroke="#f9f9f1" stroke-width="1.600" stroke-opacity="1.000" stroke-linecap="round" stroke-linejoin="round" d="M -240.193 642.394 Q -240.273 642.474 -240.352 642.554 Q -239.880 642.914 -230.838 635.837 Q -230.781 635.204 -230.675 637.204 Q -230.568 639.203 -230.583 640.674 Q -230.597 642.146 -229.479 643.353 "></path>
    <path id="STROKE_a12c53d4-db39-4bad-b30c-f6dd2c0232f3" opacity="1.000" fill="none" stroke="#f9f9f1" stroke-width="1.600" stroke-opacity="1.000" stroke-linecap="round" stroke-linejoin="round" d="M -234.436 674.056 Q -234.650 674.159 -234.176 673.919 Q -233.702 673.680 -233.233 673.021 Q -232.764 672.362 -233.193 671.498 Q -233.621 670.634 -233.913 670.129 Q -234.206 669.624 -234.527 669.218 Q -234.848 668.812 -235.655 668.772 Q -236.462 668.731 -237.159 669.695 Q -237.856 670.658 -238.253 671.457 Q -238.651 672.256 -238.838 673.656 Q -239.026 675.055 -238.644 676.210 Q -238.262 677.366 -237.899 677.762 Q -237.536 678.159 -236.985 678.543 Q -236.434 678.927 -235.632 679.193 Q -234.830 679.458 -233.863 679.528 Q -232.896 679.598 -232.125 679.183 Q -231.355 678.768 -230.610 677.788 Q -229.864 676.808 -229.806 675.539 Q -229.747 674.270 -230.458 673.002 Q -231.170 671.734 -233.316 670.218 "></path>
    <path id="STROKE_18739e00-4402-4b9c-abe4-5dd746fcfc40" opacity="1.000" fill="none" stroke="#f9f9f1" stroke-width="1.600" stroke-opacity="1.000" stroke-linecap="round" stroke-linejoin="round" d="M -239.393 713.554 Q -239.473 713.634 -239.553 713.714 Q -239.414 713.799 -236.763 712.052 Q -234.112 710.306 -230.278 705.398 Q -230.174 705.426 -230.154 708.096 Q -230.135 710.765 -230.210 712.407 Q -230.285 714.049 -229.798 715.313 "></path>
    <path id="STROKE_cf8c5be5-aa43-4f6b-8990-6bd5522e44c9" opacity="1.000" fill="none" stroke="#f9f9f1" stroke-width="1.600" stroke-opacity="1.000" stroke-linecap="round" stroke-linejoin="round" d="M -232.837 746.496 Q -232.292 745.617 -232.480 744.796 Q -232.667 743.975 -232.929 743.401 Q -233.190 742.827 -234.106 742.515 Q -235.022 742.204 -235.556 742.314 Q -236.089 742.424 -236.441 742.515 Q -236.794 742.605 -237.541 743.044 Q -238.288 743.483 -238.671 744.159 Q -239.054 744.836 -239.432 745.470 Q -239.810 746.105 -239.817 747.248 Q -239.824 748.390 -239.324 749.408 Q -238.823 750.426 -238.354 750.953 Q -237.885 751.479 -237.414 751.886 Q -236.943 752.294 -236.203 752.382 Q -235.464 752.469 -235.149 752.519 Q -234.834 752.568 -233.370 751.927 Q -231.907 751.285 -231.413 749.915 Q -230.918 748.544 -230.968 747.334 Q -231.017 746.123 -231.246 745.260 Q -231.474 744.397 -231.922 744.146 Q -232.371 743.895 -232.734 743.767 Q -233.098 743.640 -234.276 744.257 "></path>
    <path id="STROKE_24000e4d-5715-40cf-967b-c3247629067b" opacity="1.000" fill="none" stroke="#f9f9f1" stroke-width="1.600" stroke-opacity="1.000" stroke-linecap="round" stroke-linejoin="round" d="M -240.193 782.475 Q -240.113 782.635 -240.033 782.795 Q -240.472 783.112 -237.660 781.654 Q -234.848 780.195 -232.037 777.678 Q -231.854 777.393 -231.979 778.634 Q -232.104 779.876 -231.903 781.816 Q -231.701 783.756 -231.238 785.354 "></path>
    <path id="STROKE_7062431c-fc62-4bf7-bda2-34f36317442f" opacity="1.000" fill="none" stroke="#f9f9f1" stroke-width="1.600" stroke-opacity="1.000" stroke-linecap="round" stroke-linejoin="round" d="M 2.014 633.070 L 1.695 796.339 "></path>
    <path id="STROKE_c99fcf92-6123-411e-a8ce-baa64efcddc3" opacity="1.000" fill="none" stroke="#f9f9f1" stroke-width="1.600" stroke-opacity="1.000" stroke-linecap="round" stroke-linejoin="round" d="M 37.674 630.671 L 34.796 805.294 "></path>
    <path id="STROKE_43fda2e3-a60a-4e98-bdc5-e961cc5689e1" opacity="1.000" fill="none" stroke="#f9f9f1" stroke-width="1.600" stroke-opacity="1.000" stroke-linecap="round" stroke-linejoin="round" d="M 7.931 626.514 Q 7.851 626.594 7.771 626.674 Q 7.396 626.761 9.063 627.110 Q 10.730 627.459 14.764 627.451 Q 18.798 627.442 21.113 627.498 Q 23.428 627.554 24.911 627.127 Q 26.394 626.701 28.305 626.643 Q 30.216 626.586 31.918 627.153 "></path>
    <path id="STROKE_90a6bfe6-23fd-4f8a-8ab2-4dbfd8bb75d4" opacity="1.000" fill="none" stroke="#f9f9f1" stroke-width="1.600" stroke-opacity="1.000" stroke-linecap="round" stroke-linejoin="round" d="M 7.771 803.215 Q 7.670 803.248 7.666 803.254 Q 7.662 803.261 8.227 802.982 Q 8.792 802.702 11.222 802.429 Q 13.652 802.156 14.860 802.041 Q 16.068 801.926 18.240 801.744 Q 20.412 801.561 22.590 801.333 Q 24.768 801.106 25.925 800.946 Q 27.081 800.787 27.820 800.466 Q 28.559 800.145 29.199 799.697 "></path>
    <path id="STROKE_6a56ea84-bae7-48a1-a777-3d6ec8ce2f53" opacity="1.000" fill="none" stroke="#f9f9f1" stroke-width="1.600" stroke-opacity="1.000" stroke-linecap="round" stroke-linejoin="round" d="M 11.289 656.257 Q 11.209 656.337 11.129 656.417 Q 11.161 656.820 14.525 657.304 Q 17.889 657.787 23.362 655.697 L 23.442 655.777 "></path>
    <path id="STROKE_d85f4a37-8975-48f1-8000-861096e4d5b4" opacity="1.000" fill="none" stroke="#f9f9f1" stroke-width="1.600" stroke-opacity="1.000" stroke-linecap="round" stroke-linejoin="round" d="M 12.728 692.717 Q 13.023 693.194 16.351 693.160 Q 19.679 693.125 23.602 692.397 "></path>
    <path id="STROKE_2aa6de51-da64-4379-ba73-f303ce5de351" opacity="1.000" fill="none" stroke="#f9f9f1" stroke-width="1.600" stroke-opacity="1.000" stroke-linecap="round" stroke-linejoin="round" d="M 12.089 731.735 Q 11.952 731.940 11.769 732.215 Q 11.699 731.708 15.397 731.847 Q 19.095 731.987 23.282 731.095 "></path>
    <path id="STROKE_0e2dc954-ebab-444c-9b09-1d75f5f1b815" opacity="1.000" fill="none" stroke="#f9f9f1" stroke-width="1.600" stroke-opacity="1.000" stroke-linecap="round" stroke-linejoin="round" d="M 13.368 766.116 Q 14.549 767.032 17.782 767.471 Q 21.016 767.909 25.041 766.116 "></path>
    <path id="STROKE_69642afb-c206-4811-aebc-c9c01f5bae46" opacity="1.000" fill="none" stroke="#f9f9f1" stroke-width="1.600" stroke-opacity="1.000" stroke-linecap="round" stroke-linejoin="round" d="M 18.165 674.807 Q 17.951 674.909 18.425 674.670 Q 18.899 674.430 19.368 673.771 Q 19.837 673.113 19.408 672.249 Q 18.980 671.385 18.688 670.880 Q 18.395 670.375 18.074 669.969 Q 17.753 669.563 16.946 669.522 Q 16.139 669.482 15.442 670.445 Q 14.745 671.409 14.348 672.208 Q 13.950 673.007 13.763 674.406 Q 13.575 675.806 13.958 676.961 Q 14.340 678.117 14.702 678.513 Q 15.065 678.910 15.616 679.294 Q 16.168 679.677 16.969 679.943 Q 17.771 680.209 18.738 680.279 Q 19.705 680.349 20.476 679.934 Q 21.246 679.518 21.992 678.539 Q 22.737 677.559 22.795 676.290 Q 22.854 675.021 22.143 673.753 Q 21.431 672.485 19.285 670.969 "></path>
    <path id="STROKE_f979a4bd-7e0e-4ada-8357-e54c58458b96" opacity="1.000" fill="none" stroke="#f9f9f1" stroke-width="1.600" stroke-opacity="1.000" stroke-linecap="round" stroke-linejoin="round" d="M 12.409 783.226 Q 12.488 783.386 12.568 783.546 Q 12.129 783.863 14.941 782.404 Q 17.753 780.946 20.564 778.429 Q 20.747 778.143 20.622 779.385 Q 20.497 780.627 20.698 782.567 Q 20.900 784.507 21.364 786.105 "></path>
    <path id="STROKE_de0c92aa-43ff-480e-83b8-fd3ac232215d" opacity="1.000" fill="none" stroke="#ffb352" stroke-width="1.600" stroke-opacity="1.000" stroke-linecap="round" stroke-linejoin="round" d="M 15.914 636.949 Q 15.412 637.023 15.475 637.096 Q 15.402 636.949 15.329 636.803 Q 15.721 636.822 16.869 638.854 Q 18.016 640.886 19.286 642.164 Q 20.555 643.442 21.254 644.006 Q 21.953 644.570 22.144 644.589 Q 22.334 644.607 22.869 644.636 Q 22.869 644.782 22.796 644.856 "></path>
    <path id="STROKE_69305d89-6cb2-41c4-802e-546021a22d42" opacity="1.000" fill="none" stroke="#ffb352" stroke-width="1.600" stroke-opacity="1.000" stroke-linecap="round" stroke-linejoin="round" d="M 16.061 643.831 Q 16.049 643.777 22.503 636.803 "></path>
    <path id="STROKE_a5a79385-cb5a-43e1-87a0-f247171a436b" opacity="1.000" fill="none" stroke="#ffb352" stroke-width="1.600" stroke-opacity="1.000" stroke-linecap="round" stroke-linejoin="round" d="M 14.450 638.706 Q 14.450 638.779 14.450 638.853 Q 15.211 639.099 15.182 638.999 Q 15.619 639.124 23.089 637.681 "></path>
    <path id="STROKE_139ae136-e72a-48c9-8980-dca75bc26866" opacity="1.000" fill="none" stroke="#ffb352" stroke-width="1.600" stroke-opacity="1.000" stroke-linecap="round" stroke-linejoin="round" d="M 13.132 703.861 Q 12.768 704.441 14.016 706.211 Q 15.264 707.981 16.855 710.181 Q 18.447 712.381 19.561 713.655 Q 20.675 714.928 22.796 716.892 "></path>
    <path id="STROKE_fdd219a4-76fc-49ca-9dc8-8caeb0bfd524" opacity="1.000" fill="none" stroke="#ffb352" stroke-width="1.600" stroke-opacity="1.000" stroke-linecap="round" stroke-linejoin="round" d="M 15.329 714.696 Q 15.414 714.325 21.185 707.961 "></path>
    <path id="STROKE_0c7d4533-2cf6-4ebf-a64d-56560628e4c7" opacity="1.000" fill="none" stroke="#ffb352" stroke-width="1.600" stroke-opacity="1.000" stroke-linecap="round" stroke-linejoin="round" d="M 12.400 710.743 Q 12.838 710.688 21.332 709.571 "></path>
    <path id="STROKE_3914377f-a07f-4150-873c-4f97417e789a" opacity="1.000" fill="none" stroke="#ffb352" stroke-width="1.600" stroke-opacity="1.000" stroke-linecap="round" stroke-linejoin="round" d="M 16.061 746.175 Q 16.231 745.983 18.264 748.738 Q 20.297 751.494 23.967 756.278 "></path>
    <path id="STROKE_36e3c12f-f13d-4938-9ef2-2b8eb0e9bd9d" opacity="1.000" fill="none" stroke="#ffb352" stroke-width="1.600" stroke-opacity="1.000" stroke-linecap="round" stroke-linejoin="round" d="M 15.182 755.692 Q 15.557 755.147 17.370 752.697 Q 19.183 750.248 22.210 748.225 "></path>
    <path id="STROKE_67e1c235-0791-4026-948b-0f15ede29671" opacity="1.000" fill="none" stroke="#ffb352" stroke-width="1.600" stroke-opacity="1.000" stroke-linecap="round" stroke-linejoin="round" d="M 15.914 751.446 Q 16.279 751.384 18.006 751.366 Q 19.734 751.348 21.520 750.699 Q 23.307 750.051 25.138 749.836 "></path>
  </g>
</svg>