<?xml version="1.0" encoding="UTF-8" standalone="yes"?>
<svg xmlns="http://www.w3.org/2000/svg" xmlns:xlink="http://www.w3.org/1999/xlink" width="1920.000px" height="1080.000px" version="1.1" viewBox="-422.778 499.677 853.333 480.000">
  <!--
	Exported with Concepts: Smarter Sketching
	Version: 2024.11 on Android 13
	https://concepts.app/
	-->
  <title>Flow</title>
  <desc>Drawing exported from Concepts: Smarter Sketching</desc>
  <defs></defs>
  <g id="Pen" opacity="1.000">
    <path id="STROKE_ad626568-3bbc-499e-86a9-c6883a81c0f0" opacity="1.000" fill="none" stroke="#f9f9f1" stroke-width="1.600" stroke-opacity="1.000" stroke-linecap="round" stroke-linejoin="round" d="M -382.033 725.227 Q -382.139 725.695 -382.193 725.707 Q -381.958 725.773 -380.071 723.295 Q -378.185 720.817 -372.279 706.518 Q -372.195 707.664 -372.219 707.416 Q -372.244 707.168 -372.580 709.014 Q -372.917 710.860 -373.081 714.380 Q -373.245 717.901 -373.346 719.877 Q -373.447 721.854 -373.454 722.858 Q -373.461 723.863 -372.909 724.480 Q -372.356 725.098 -371.852 725.259 Q -371.348 725.419 -370.502 724.834 Q -369.656 724.248 -368.991 723.621 Q -368.325 722.993 -367.115 720.640 Q -365.904 718.287 -364.671 714.698 Q -363.437 711.109 -362.866 708.955 Q -362.295 706.801 -361.725 704.919 Q -361.767 704.745 -361.664 708.984 Q -361.562 713.222 -361.601 715.684 Q -361.640 718.146 -361.226 719.676 Q -360.812 721.206 -360.380 721.872 Q -359.947 722.539 -359.505 722.955 Q -359.064 723.372 -358.777 723.489 Q -358.491 723.605 -358.468 723.696 Q -358.446 723.787 -358.391 723.767 Q -358.337 723.747 -358.344 723.758 Q -358.351 723.768 -358.564 723.817 Q -358.776 723.866 -357.407 723.788 "></path>
    <path id="STROKE_81fb9ad6-0fb9-4bc0-a811-57eb42e3d436" opacity="1.000" fill="none" stroke="#f9f9f1" stroke-width="1.600" stroke-opacity="1.000" stroke-linecap="round" stroke-linejoin="round" d="M -350.371 703.639 Q -350.216 704.041 -350.098 708.923 Q -349.980 713.805 -349.713 717.762 Q -349.445 721.719 -348.612 725.227 "></path>
    <path id="STROKE_95c400d8-e90b-4a43-9cdc-c5e0b90294c8" opacity="1.000" fill="none" stroke="#f9f9f1" stroke-width="1.600" stroke-opacity="1.000" stroke-linecap="round" stroke-linejoin="round" d="M -339.977 704.119 Q -340.162 704.268 -339.710 708.668 Q -339.259 713.068 -338.581 716.352 Q -337.903 719.635 -337.258 722.509 "></path>
    <path id="STROKE_90f87cdd-3df5-47eb-b5a7-ae9b9acba392" opacity="1.000" fill="none" stroke="#f9f9f1" stroke-width="1.600" stroke-opacity="1.000" stroke-linecap="round" stroke-linejoin="round" d="M -341.576 707.477 Q -341.526 707.374 -341.943 707.132 Q -342.360 706.890 -342.035 705.328 Q -341.709 703.766 -340.969 702.587 Q -340.229 701.408 -339.476 700.719 Q -338.724 700.030 -338.065 699.720 Q -337.406 699.410 -335.742 699.132 Q -334.078 698.855 -332.869 698.509 Q -331.661 698.163 -330.339 698.951 Q -329.018 699.739 -328.436 700.517 Q -327.853 701.296 -327.882 703.305 Q -327.911 705.314 -329.147 707.157 Q -330.383 709.000 -331.220 709.911 Q -332.056 710.823 -332.341 710.995 Q -332.625 711.166 -333.287 711.163 Q -333.948 711.160 -334.700 710.995 "></path>
    <path id="STROKE_d40bdf1d-2a10-49b5-9f8d-3b592e67d307" opacity="1.000" fill="none" stroke="#f9f9f1" stroke-width="1.600" stroke-opacity="1.000" stroke-linecap="round" stroke-linejoin="round" d="M -312.312 713.234 Q -311.944 713.603 -311.992 713.554 Q -311.914 713.511 -308.489 713.939 Q -305.064 714.367 -299.530 713.827 Q -293.997 713.287 -290.395 712.847 Q -286.794 712.406 -283.528 711.955 "></path>
    <path id="STROKE_185942e0-3dd3-4498-87e3-eb00adde6005" opacity="1.000" fill="none" stroke="#f9f9f1" stroke-width="1.600" stroke-opacity="1.000" stroke-linecap="round" stroke-linejoin="round" d="M -280.170 706.358 Q -280.997 706.373 -279.690 719.151 Q -279.469 719.618 -281.210 706.118 Q -281.466 705.966 -279.159 706.210 Q -276.852 706.454 -275.235 706.506 Q -273.618 706.559 -272.691 707.133 Q -271.764 707.707 -271.295 708.223 Q -270.827 708.739 -270.599 709.959 Q -270.371 711.180 -271.504 712.857 Q -272.636 714.533 -273.513 715.487 Q -274.389 716.440 -275.117 717.047 Q -275.844 717.653 -276.189 717.985 Q -276.533 718.317 -276.744 718.481 Q -276.956 718.645 -277.265 718.875 Q -277.575 719.106 -277.931 719.311 "></path>
    <path id="STROKE_30fadcb3-951b-4af4-945f-acbff35fb7e5" opacity="1.000" fill="none" stroke="#f9f9f1" stroke-width="1.600" stroke-opacity="1.000" stroke-linecap="round" stroke-linejoin="round" d="M -250.587 632.319 L -250.907 795.588 "></path>
    <path id="STROKE_4c043f9c-6c62-41aa-88b2-19ddad6e6fdd" opacity="1.000" fill="none" stroke="#f9f9f1" stroke-width="1.600" stroke-opacity="1.000" stroke-linecap="round" stroke-linejoin="round" d="M -214.927 629.921 L -217.805 804.543 "></path>
    <path id="STROKE_8ac8d2e6-df6d-4a6e-911e-2434992d4b7a" opacity="1.000" fill="none" stroke="#f9f9f1" stroke-width="1.600" stroke-opacity="1.000" stroke-linecap="round" stroke-linejoin="round" d="M -244.670 625.763 Q -244.750 625.843 -244.830 625.923 Q -245.205 626.011 -243.538 626.359 Q -241.871 626.708 -237.837 626.700 Q -233.803 626.692 -231.488 626.748 Q -229.174 626.803 -227.691 626.377 Q -226.208 625.950 -224.296 625.893 Q -222.385 625.835 -220.684 626.403 "></path>
    <path id="STROKE_e5c6472e-863c-44ef-aad8-db784af24a2c" opacity="1.000" fill="none" stroke="#f9f9f1" stroke-width="1.600" stroke-opacity="1.000" stroke-linecap="round" stroke-linejoin="round" d="M -244.830 802.464 Q -244.931 802.497 -244.935 802.504 Q -244.939 802.510 -244.374 802.231 Q -243.809 801.952 -241.379 801.678 Q -238.949 801.405 -237.741 801.290 Q -236.533 801.175 -234.361 800.993 Q -232.189 800.810 -230.011 800.583 Q -227.833 800.355 -226.676 800.195 Q -225.520 800.036 -224.781 799.715 Q -224.042 799.395 -223.402 798.946 "></path>
    <path id="STROKE_d625bbe8-697b-4504-889a-9f1f4391f1e1" opacity="1.000" fill="none" stroke="#f9f9f1" stroke-width="1.600" stroke-opacity="1.000" stroke-linecap="round" stroke-linejoin="round" d="M -282.729 554.963 Q -282.715 555.107 -282.217 560.223 Q -281.720 565.340 -281.491 568.554 Q -281.262 571.768 -280.650 574.312 "></path>
    <path id="STROKE_3a21feaa-f414-4f68-a7d1-d0bd455d9598" opacity="1.000" fill="none" stroke="#f9f9f1" stroke-width="1.600" stroke-opacity="1.000" stroke-linecap="round" stroke-linejoin="round" d="M -275.213 557.841 Q -275.562 558.317 -273.614 573.832 Q -273.461 573.789 -272.953 570.761 Q -272.444 567.733 -272.090 565.466 Q -271.737 563.199 -269.136 560.560 Q -268.434 560.169 -267.977 563.209 Q -267.521 566.249 -267.119 568.131 Q -266.716 570.013 -266.280 571.070 Q -265.844 572.128 -264.979 572.553 "></path>
    <path id="STROKE_03155b45-8d59-4ffe-903b-dae72b0b7d7c" opacity="1.000" fill="none" stroke="#f9f9f1" stroke-width="1.600" stroke-opacity="1.000" stroke-linecap="round" stroke-linejoin="round" d="M -260.661 560.080 Q -260.810 560.677 -260.426 563.104 Q -260.042 565.531 -259.813 567.981 Q -259.585 570.432 -259.485 571.980 Q -259.385 573.528 -258.582 575.431 "></path>
    <circle id="STROKE_dd4770cc-f1e8-4def-99ac-6cc78c338afd" opacity="1.000" fill="#f9f9f1" stroke="#f9f9f1" stroke-width="0.1" stroke-opacity="1.000" fill-opacity="1.000" cx="-260.021" cy="554.003" r="0.800"></circle>
    <path id="STROKE_9f4bd8b3-9c81-445d-b00d-1f32ead0b122" opacity="1.000" fill="none" stroke="#f9f9f1" stroke-width="1.600" stroke-opacity="1.000" stroke-linecap="round" stroke-linejoin="round" d="M -251.706 556.882 Q -251.140 556.487 -250.978 560.295 Q -250.815 564.103 -250.532 566.551 Q -250.248 568.999 -250.105 570.109 Q -249.962 571.220 -249.440 572.140 Q -248.918 573.059 -248.828 574.312 "></path>
    <path id="STROKE_925e572e-2988-4d04-bcb8-8a71c318901f" opacity="1.000" fill="none" stroke="#f9f9f1" stroke-width="1.600" stroke-opacity="1.000" stroke-linecap="round" stroke-linejoin="round" d="M -255.704 562.958 Q -255.815 562.495 -245.630 560.879 "></path>
    <path id="STROKE_a0861bc5-d015-47d3-a8c3-d413e3eb458d" opacity="1.000" fill="none" stroke="#f9f9f1" stroke-width="1.600" stroke-opacity="1.000" stroke-linecap="round" stroke-linejoin="round" d="M -243.551 558.161 Q -243.577 557.596 -242.780 562.551 Q -241.983 567.507 -240.672 572.873 "></path>
    <circle id="STROKE_30f884ed-9730-4728-8626-4077206589ce" opacity="1.000" fill="#f9f9f1" stroke="#f9f9f1" stroke-width="0.1" stroke-opacity="1.000" fill-opacity="1.000" cx="-241.472" cy="550.485" r="0.800"></circle>
    <path id="STROKE_f25939f3-66c5-4c5c-8cc5-38b65ea02d29" opacity="1.000" fill="none" stroke="#f9f9f1" stroke-width="1.600" stroke-opacity="1.000" stroke-linecap="round" stroke-linejoin="round" d="M -229.159 559.280 Q -229.441 559.102 -229.929 558.505 Q -230.417 557.907 -231.199 558.022 Q -231.981 558.137 -232.658 559.739 Q -233.336 561.341 -233.536 561.883 Q -233.737 562.424 -233.952 564.578 Q -234.167 566.732 -233.835 568.508 Q -233.503 570.284 -232.757 571.673 Q -230.799 571.921 -230.278 558.001 Q -230.290 557.490 -230.009 560.918 Q -229.727 564.346 -229.233 566.744 Q -228.739 569.142 -228.347 570.344 Q -227.955 571.545 -227.430 572.209 Q -226.904 572.873 -225.001 572.873 "></path>
    <path id="STROKE_9d13b9e1-930a-4fdc-854a-1abb11c35f44" opacity="1.000" fill="none" stroke="#f9f9f1" stroke-width="1.600" stroke-opacity="1.000" stroke-linecap="round" stroke-linejoin="round" d="M -225.001 571.753 Q -223.997 572.531 -222.316 569.529 Q -220.635 566.527 -219.593 563.628 Q -218.551 560.730 -217.945 558.308 Q -217.339 555.887 -217.006 552.084 Q -217.394 552.192 -217.111 555.530 Q -216.828 558.868 -216.691 561.043 Q -216.554 563.218 -215.854 564.867 Q -215.155 566.516 -214.860 567.417 Q -214.564 568.319 -214.080 568.831 Q -213.595 569.343 -213.220 569.454 Q -212.845 569.566 -212.655 569.490 Q -212.464 569.413 -212.211 569.286 Q -211.958 569.159 -211.569 568.875 "></path>
    <path id="STROKE_d0fd91e4-c5a1-4032-ac9e-e3c15791b3c2" opacity="1.000" fill="none" stroke="#f9f9f1" stroke-width="1.600" stroke-opacity="1.000" stroke-linecap="round" stroke-linejoin="round" d="M -252.186 599.738 Q -251.856 599.260 -251.678 598.524 Q -251.500 597.788 -251.415 597.161 Q -251.330 596.534 -251.445 596.206 Q -251.560 595.879 -251.687 595.641 Q -251.814 595.403 -252.027 595.037 Q -252.240 594.671 -252.375 594.433 Q -252.509 594.194 -252.436 594.171 Q -252.363 594.147 -252.879 593.786 Q -253.394 593.424 -254.129 593.103 Q -254.865 592.782 -255.614 593.302 Q -256.363 593.822 -257.399 596.627 Q -258.435 599.433 -258.023 608.293 Q -257.042 608.789 -256.132 605.442 Q -255.222 602.095 -254.509 600.463 Q -253.796 598.831 -253.421 598.107 Q -253.046 597.383 -252.705 597.133 Q -252.364 596.882 -251.767 596.980 Q -251.171 597.077 -250.366 598.870 Q -249.562 600.662 -248.758 603.711 Q -247.953 606.759 -247.704 610.234 Q -247.455 613.710 -247.446 615.248 Q -247.436 616.787 -247.457 617.645 Q -247.478 618.503 -247.965 619.127 Q -248.453 619.751 -249.165 619.624 Q -249.877 619.496 -250.523 619.089 Q -251.168 618.681 -251.531 617.561 Q -251.894 616.441 -252.289 615.622 Q -252.684 614.803 -251.884 613.526 Q -251.083 612.248 -250.363 611.486 Q -249.642 610.724 -248.668 610.092 "></path>
    <path id="STROKE_54f52582-d920-4a36-a06d-b53264102c08" opacity="1.000" fill="none" stroke="#f9f9f1" stroke-width="1.600" stroke-opacity="1.000" stroke-linecap="round" stroke-linejoin="round" d="M -243.871 593.021 Q -243.801 593.266 -243.241 596.715 Q -242.682 600.163 -242.529 602.460 Q -242.375 604.756 -240.912 606.294 Q -240.248 606.668 -239.322 603.196 Q -238.397 599.724 -237.646 596.803 Q -236.896 593.883 -235.715 591.422 Q -235.567 591.335 -235.199 594.454 Q -234.830 597.573 -234.093 600.195 Q -233.356 602.818 -230.918 605.175 "></path>
    <path id="STROKE_f38f5ed0-9cb2-48bd-95f2-839c13f3b0a8" opacity="1.000" fill="none" stroke="#f9f9f1" stroke-width="1.600" stroke-opacity="1.000" stroke-linecap="round" stroke-linejoin="round" d="M -228.359 595.420 Q -228.235 595.481 -227.720 596.122 Q -227.206 596.762 -227.014 597.012 Q -226.822 597.262 -226.057 597.210 Q -225.292 597.158 -224.847 596.594 Q -224.401 596.031 -224.028 594.981 Q -223.655 593.931 -223.360 593.144 Q -223.064 592.358 -223.722 588.704 Q -224.098 588.263 -225.151 590.533 Q -226.204 592.804 -226.641 595.061 Q -227.078 597.318 -226.863 599.003 Q -226.649 600.688 -226.419 601.597 Q -226.190 602.505 -225.693 602.949 Q -225.196 603.393 -225.021 603.493 Q -224.846 603.593 -224.650 603.620 Q -224.453 603.647 -224.044 603.736 Q -223.634 603.826 -218.765 601.337 "></path>
    <path id="STROKE_751c5f30-3094-46e2-8ffa-64760763ca23" opacity="1.000" fill="none" stroke="#f9f9f1" stroke-width="1.600" stroke-opacity="1.000" stroke-linecap="round" stroke-linejoin="round" d="M -204.692 589.343 Q -205.068 589.475 -205.939 588.773 Q -206.811 588.071 -207.486 587.525 Q -208.162 586.980 -208.926 587.128 Q -209.690 587.276 -210.452 587.659 Q -211.214 588.043 -211.604 588.696 Q -211.994 589.349 -212.132 589.796 Q -212.270 590.243 -212.346 590.533 Q -212.422 590.823 -212.401 591.526 Q -212.381 592.230 -211.761 593.244 Q -211.142 594.258 -210.719 594.977 Q -210.297 595.696 -209.945 597.056 Q -209.592 598.416 -209.581 599.412 Q -209.570 600.409 -209.805 600.950 Q -210.041 601.491 -210.218 601.850 Q -210.396 602.209 -211.968 603.256 Q -212.736 601.973 -209.170 600.217 "></path>
    <path id="STROKE_f05f5f9c-b033-410d-b705-0de9bc596d08" opacity="1.000" fill="none" stroke="#f9f9f1" stroke-width="1.600" stroke-opacity="1.000" stroke-linecap="round" stroke-linejoin="round" d="M -198.936 587.424 Q -199.279 587.081 -199.575 586.785 Q -200.148 586.359 -199.364 589.522 Q -198.581 592.686 -198.251 594.773 Q -197.922 596.861 -197.946 598.612 Q -197.970 600.362 -198.603 601.665 Q -199.236 602.968 -201.334 604.375 Q -201.344 604.679 -201.443 603.979 Q -201.542 603.278 -201.334 601.816 "></path>
    <path id="STROKE_cd69de53-288b-45db-992b-5b9a6493999a" opacity="1.000" fill="none" stroke="#f9f9f1" stroke-width="1.600" stroke-opacity="1.000" stroke-linecap="round" stroke-linejoin="round" d="M -241.312 655.506 Q -241.392 655.586 -241.472 655.666 Q -241.440 656.069 -238.076 656.553 Q -234.712 657.037 -229.239 654.947 L -229.159 655.027 "></path>
    <path id="STROKE_973ea048-c2e4-415b-b134-c7ed041022ff" opacity="1.000" fill="none" stroke="#f9f9f1" stroke-width="1.600" stroke-opacity="1.000" stroke-linecap="round" stroke-linejoin="round" d="M -239.873 691.966 Q -239.578 692.444 -236.250 692.409 Q -232.922 692.374 -228.999 691.646 "></path>
    <path id="STROKE_cbd5d142-c610-4f36-b9ef-90395f1a59cc" opacity="1.000" fill="none" stroke="#f9f9f1" stroke-width="1.600" stroke-opacity="1.000" stroke-linecap="round" stroke-linejoin="round" d="M -240.512 730.984 Q -240.649 731.190 -240.832 731.464 Q -240.902 730.958 -237.204 731.097 Q -233.506 731.236 -229.319 730.345 "></path>
    <path id="STROKE_8bd258c4-13cc-4cad-8928-ce7619d0a4eb" opacity="1.000" fill="none" stroke="#f9f9f1" stroke-width="1.600" stroke-opacity="1.000" stroke-linecap="round" stroke-linejoin="round" d="M -239.233 765.365 Q -238.052 766.281 -234.819 766.720 Q -231.586 767.159 -227.560 765.365 "></path>
    <path id="STROKE_5a8a5b99-0b8d-4104-a7ff-a8017bf0b16c" opacity="1.000" fill="none" stroke="#f9f9f1" stroke-width="1.600" stroke-opacity="1.000" stroke-linecap="round" stroke-linejoin="round" d="M -240.193 642.394 Q -240.273 642.474 -240.352 642.554 Q -239.880 642.914 -230.838 635.837 Q -230.781 635.204 -230.675 637.204 Q -230.568 639.203 -230.583 640.674 Q -230.597 642.146 -229.479 643.353 "></path>
    <path id="STROKE_44ec4ac8-b5fa-48ed-a15d-efb72b3a8469" opacity="1.000" fill="none" stroke="#f9f9f1" stroke-width="1.600" stroke-opacity="1.000" stroke-linecap="round" stroke-linejoin="round" d="M -234.436 674.056 Q -234.650 674.159 -234.176 673.919 Q -233.702 673.680 -233.233 673.021 Q -232.764 672.362 -233.193 671.498 Q -233.621 670.634 -233.913 670.129 Q -234.206 669.624 -234.527 669.218 Q -234.848 668.812 -235.655 668.772 Q -236.462 668.731 -237.159 669.695 Q -237.856 670.658 -238.253 671.457 Q -238.651 672.256 -238.838 673.656 Q -239.026 675.055 -238.644 676.210 Q -238.262 677.366 -237.899 677.762 Q -237.536 678.159 -236.985 678.543 Q -236.434 678.927 -235.632 679.193 Q -234.830 679.458 -233.863 679.528 Q -232.896 679.598 -232.125 679.183 Q -231.355 678.768 -230.610 677.788 Q -229.864 676.808 -229.806 675.539 Q -229.747 674.270 -230.458 673.002 Q -231.170 671.734 -233.316 670.218 "></path>
    <path id="STROKE_d73ccfa0-42eb-4a65-b65a-fcdce9ecdf76" opacity="1.000" fill="none" stroke="#f9f9f1" stroke-width="1.600" stroke-opacity="1.000" stroke-linecap="round" stroke-linejoin="round" d="M -239.393 713.554 Q -239.473 713.634 -239.553 713.714 Q -239.414 713.799 -236.763 712.052 Q -234.112 710.306 -230.278 705.398 Q -230.174 705.426 -230.154 708.096 Q -230.135 710.765 -230.210 712.407 Q -230.285 714.049 -229.798 715.313 "></path>
    <path id="STROKE_f5cc6342-4ab0-4b09-95a5-8aae32cfb320" opacity="1.000" fill="none" stroke="#f9f9f1" stroke-width="1.600" stroke-opacity="1.000" stroke-linecap="round" stroke-linejoin="round" d="M -232.837 746.496 Q -232.292 745.617 -232.480 744.796 Q -232.667 743.975 -232.929 743.401 Q -233.190 742.827 -234.106 742.515 Q -235.022 742.204 -235.556 742.314 Q -236.089 742.424 -236.441 742.515 Q -236.794 742.605 -237.541 743.044 Q -238.288 743.483 -238.671 744.159 Q -239.054 744.836 -239.432 745.470 Q -239.810 746.105 -239.817 747.248 Q -239.824 748.390 -239.324 749.408 Q -238.823 750.426 -238.354 750.953 Q -237.885 751.479 -237.414 751.886 Q -236.943 752.294 -236.203 752.382 Q -235.464 752.469 -235.149 752.519 Q -234.834 752.568 -233.370 751.927 Q -231.907 751.285 -231.413 749.915 Q -230.918 748.544 -230.968 747.334 Q -231.017 746.123 -231.246 745.260 Q -231.474 744.397 -231.922 744.146 Q -232.371 743.895 -232.734 743.767 Q -233.098 743.640 -234.276 744.257 "></path>
    <path id="STROKE_d9df33c7-3246-4214-903c-270b089f6370" opacity="1.000" fill="none" stroke="#f9f9f1" stroke-width="1.600" stroke-opacity="1.000" stroke-linecap="round" stroke-linejoin="round" d="M -240.193 782.475 Q -240.113 782.635 -240.033 782.795 Q -240.472 783.112 -237.660 781.654 Q -234.848 780.195 -232.037 777.678 Q -231.854 777.393 -231.979 778.634 Q -232.104 779.876 -231.903 781.816 Q -231.701 783.756 -231.238 785.354 "></path>
    <path id="STROKE_56029abf-76be-4151-8afd-a5f992cef003" opacity="1.000" fill="none" stroke="#f9f9f1" stroke-width="1.600" stroke-opacity="1.000" stroke-linecap="round" stroke-linejoin="round" d="M -250.587 632.319 L -250.907 795.588 "></path>
    <path id="STROKE_4675e8b6-8d62-495f-9844-eebd01df3313" opacity="1.000" fill="none" stroke="#f9f9f1" stroke-width="1.600" stroke-opacity="1.000" stroke-linecap="round" stroke-linejoin="round" d="M -214.927 629.921 L -217.805 804.543 "></path>
    <path id="STROKE_92f288d0-406b-4e80-a670-004055e60479" opacity="1.000" fill="none" stroke="#f9f9f1" stroke-width="1.600" stroke-opacity="1.000" stroke-linecap="round" stroke-linejoin="round" d="M -244.670 625.763 Q -244.750 625.843 -244.830 625.923 Q -245.205 626.011 -243.538 626.359 Q -241.871 626.708 -237.837 626.700 Q -233.803 626.692 -231.488 626.748 Q -229.174 626.803 -227.691 626.377 Q -226.208 625.950 -224.296 625.893 Q -222.385 625.835 -220.684 626.403 "></path>
    <path id="STROKE_278b8b29-8b53-4e0d-844a-4ee6890c1595" opacity="1.000" fill="none" stroke="#f9f9f1" stroke-width="1.600" stroke-opacity="1.000" stroke-linecap="round" stroke-linejoin="round" d="M -244.830 802.464 Q -244.931 802.497 -244.935 802.504 Q -244.939 802.510 -244.374 802.231 Q -243.809 801.952 -241.379 801.678 Q -238.949 801.405 -237.741 801.290 Q -236.533 801.175 -234.361 800.993 Q -232.189 800.810 -230.011 800.583 Q -227.833 800.355 -226.676 800.195 Q -225.520 800.036 -224.781 799.715 Q -224.042 799.395 -223.402 798.946 "></path>
    <path id="STROKE_ce6f993c-0584-4c42-a330-b8874bffca11" opacity="1.000" fill="none" stroke="#f9f9f1" stroke-width="1.600" stroke-opacity="1.000" stroke-linecap="round" stroke-linejoin="round" d="M -241.312 655.506 Q -241.392 655.586 -241.472 655.666 Q -241.440 656.069 -238.076 656.553 Q -234.712 657.037 -229.239 654.947 L -229.159 655.027 "></path>
    <path id="STROKE_fec4050c-a62b-4f9e-a9fe-ae934a0fa520" opacity="1.000" fill="none" stroke="#f9f9f1" stroke-width="1.600" stroke-opacity="1.000" stroke-linecap="round" stroke-linejoin="round" d="M -239.873 691.966 Q -239.578 692.444 -236.250 692.409 Q -232.922 692.374 -228.999 691.646 "></path>
    <path id="STROKE_f2ebd098-8570-4a36-9657-ee4b3cca89ce" opacity="1.000" fill="none" stroke="#f9f9f1" stroke-width="1.600" stroke-opacity="1.000" stroke-linecap="round" stroke-linejoin="round" d="M -240.512 730.984 Q -240.649 731.190 -240.832 731.464 Q -240.902 730.958 -237.204 731.097 Q -233.506 731.236 -229.319 730.345 "></path>
    <path id="STROKE_ca9bf887-5e65-4c6d-9e54-83dcbe027d91" opacity="1.000" fill="none" stroke="#f9f9f1" stroke-width="1.600" stroke-opacity="1.000" stroke-linecap="round" stroke-linejoin="round" d="M -239.233 765.365 Q -238.052 766.281 -234.819 766.720 Q -231.586 767.159 -227.560 765.365 "></path>
    <path id="STROKE_f19ece69-7363-4a78-9c43-03aa2b33d739" opacity="1.000" fill="none" stroke="#f9f9f1" stroke-width="1.600" stroke-opacity="1.000" stroke-linecap="round" stroke-linejoin="round" d="M -240.193 642.394 Q -240.273 642.474 -240.352 642.554 Q -239.880 642.914 -230.838 635.837 Q -230.781 635.204 -230.675 637.204 Q -230.568 639.203 -230.583 640.674 Q -230.597 642.146 -229.479 643.353 "></path>
    <path id="STROKE_a12c53d4-db39-4bad-b30c-f6dd2c0232f3" opacity="1.000" fill="none" stroke="#f9f9f1" stroke-width="1.600" stroke-opacity="1.000" stroke-linecap="round" stroke-linejoin="round" d="M -234.436 674.056 Q -234.650 674.159 -234.176 673.919 Q -233.702 673.680 -233.233 673.021 Q -232.764 672.362 -233.193 671.498 Q -233.621 670.634 -233.913 670.129 Q -234.206 669.624 -234.527 669.218 Q -234.848 668.812 -235.655 668.772 Q -236.462 668.731 -237.159 669.695 Q -237.856 670.658 -238.253 671.457 Q -238.651 672.256 -238.838 673.656 Q -239.026 675.055 -238.644 676.210 Q -238.262 677.366 -237.899 677.762 Q -237.536 678.159 -236.985 678.543 Q -236.434 678.927 -235.632 679.193 Q -234.830 679.458 -233.863 679.528 Q -232.896 679.598 -232.125 679.183 Q -231.355 678.768 -230.610 677.788 Q -229.864 676.808 -229.806 675.539 Q -229.747 674.270 -230.458 673.002 Q -231.170 671.734 -233.316 670.218 "></path>
    <path id="STROKE_18739e00-4402-4b9c-abe4-5dd746fcfc40" opacity="1.000" fill="none" stroke="#f9f9f1" stroke-width="1.600" stroke-opacity="1.000" stroke-linecap="round" stroke-linejoin="round" d="M -239.393 713.554 Q -239.473 713.634 -239.553 713.714 Q -239.414 713.799 -236.763 712.052 Q -234.112 710.306 -230.278 705.398 Q -230.174 705.426 -230.154 708.096 Q -230.135 710.765 -230.210 712.407 Q -230.285 714.049 -229.798 715.313 "></path>
    <path id="STROKE_cf8c5be5-aa43-4f6b-8990-6bd5522e44c9" opacity="1.000" fill="none" stroke="#f9f9f1" stroke-width="1.600" stroke-opacity="1.000" stroke-linecap="round" stroke-linejoin="round" d="M -232.837 746.496 Q -232.292 745.617 -232.480 744.796 Q -232.667 743.975 -232.929 743.401 Q -233.190 742.827 -234.106 742.515 Q -235.022 742.204 -235.556 742.314 Q -236.089 742.424 -236.441 742.515 Q -236.794 742.605 -237.541 743.044 Q -238.288 743.483 -238.671 744.159 Q -239.054 744.836 -239.432 745.470 Q -239.810 746.105 -239.817 747.248 Q -239.824 748.390 -239.324 749.408 Q -238.823 750.426 -238.354 750.953 Q -237.885 751.479 -237.414 751.886 Q -236.943 752.294 -236.203 752.382 Q -235.464 752.469 -235.149 752.519 Q -234.834 752.568 -233.370 751.927 Q -231.907 751.285 -231.413 749.915 Q -230.918 748.544 -230.968 747.334 Q -231.017 746.123 -231.246 745.260 Q -231.474 744.397 -231.922 744.146 Q -232.371 743.895 -232.734 743.767 Q -233.098 743.640 -234.276 744.257 "></path>
    <path id="STROKE_24000e4d-5715-40cf-967b-c3247629067b" opacity="1.000" fill="none" stroke="#f9f9f1" stroke-width="1.600" stroke-opacity="1.000" stroke-linecap="round" stroke-linejoin="round" d="M -240.193 782.475 Q -240.113 782.635 -240.033 782.795 Q -240.472 783.112 -237.660 781.654 Q -234.848 780.195 -232.037 777.678 Q -231.854 777.393 -231.979 778.634 Q -232.104 779.876 -231.903 781.816 Q -231.701 783.756 -231.238 785.354 "></path>
  </g>
</svg>