<?xml version="1.0" encoding="utf-8"?>
<svg xmlns="http://www.w3.org/2000/svg" xmlns:xlink="http://www.w3.org/1999/xlink" version= "1.1" width="700px" height="700px" viewBox="930 432 700 700">
<g id="layer1">
<g style="fill:rgb(254,254,254); fill-opacity:1.0; stroke-linejoin: miter">
<path d="M1822.9978,446.80804C1822.5931,446.80804,1822.1837,446.91998,1821.8177,447.15442Q1788.346,468.59338,1775.896,481.0341L1775.88,481.0341Q1761.0021,493.3234,1728.5072,534.312L1728.4961,534.312Q1718.8887,544.4938,1714.488,547.841L1714.4572,547.86505Q1703.1298,556.80524,1696.3331,556.80524Q1692.8567,556.80524,1690.5656,554.4663C1690.1364,554.02814,1689.5682,553.8083,1688.9998,553.8083C1688.4464,553.8083,1687.8927,554.01654,1687.4662,554.4343C1686.6014,555.2814,1686.5872,556.669,1687.4342,557.5337Q1691.042,561.21686,1696.1826,561.21686Q1704.6051,561.21686,1717.1422,551.3299L1717.1418,551.3299Q1721.86,547.74115,1731.8193,537.177C1731.8623,537.13135,1731.9031,537.0843,1731.942,537.03516Q1764.3368,496.17297,1778.8353,484.2789C1778.8906,484.23352,1778.9437,484.1854,1778.9944,484.1348Q1791.1091,472.029,1824.182,450.84558C1825.2013,450.19272,1825.4983,448.8372,1824.8455,447.8179C1824.427,447.16464,1823.72,446.80804,1822.9978,446.80804 Z"/>
</g>
<g style="fill:rgb(254,254,254); fill-opacity:1.0; stroke-linejoin: miter">
</g>
<g style="fill:rgb(254,254,254); fill-opacity:1.0; stroke-linejoin: miter">
<path d="M1097.6759,753.8182Q1091.8286,753.8182,1087.6267,760.93866L1087.6147,760.93866C1085.0807,763.2266,1083.6306,766.64764,1083.9976,770.3052Q1084.3406,773.7247,1085.7284,776.3296L1085.7285,776.3296Q1086.0022,776.8434,1086.2876,777.3204L1086.2767,777.3204Q1087.6648,781.75256,1090.1497,784.3543L1090.1388,784.3543Q1092.0162,788.6429,1096.1261,790.97754L1096.2185,791.02936Q1099.475,792.83844,1102.5701,792.83844Q1106.4518,792.83844,1110.0798,789.99286C1110.3706,789.76483,1110.65,789.5223,1110.9166,789.2664Q1114.0199,786.28815,1115.5883,782.2407C1115.658,782.06067,1115.7227,781.8799,1115.783,781.6965Q1116.4012,779.8161,1116.6322,777.69324L1116.6323,777.69324Q1117.0575,773.7874,1116.1649,768.7864L1116.1649,768.7862C1116.1371,768.62994,1116.1056,768.4736,1116.071,768.31866Q1115.8691,767.41376,1115.5762,766.5518L1115.564,766.5518Q1115.164,764.3907,1114.1991,762.4493L1114.1991,762.44934C1113.9741,761.9967,1113.7186,761.56,1113.4342,761.14215Q1112.2523,759.4055,1110.8595,758.1514L1110.8595,758.1514Q1106.4265,754.15967,1102.2291,754.15967Q1101.4946,754.15967,1100.7673,754.28186L1100.7673,754.28186Q1099.1681,753.8182,1097.6759,753.8182 Z"/>
</g>
<g style="fill:rgb(254,254,254); fill-opacity:1.0; stroke-linejoin: miter">
</g>
<g style="fill:rgb(254,254,254); fill-opacity:1.0; stroke-linejoin: miter">
</g>
<g style="fill:rgb(254,254,254); fill-opacity:1.0; stroke-linejoin: miter">
<path d="M1188.5571,643.2502C1188.7826,643.3734,1189.0125,643.48883,1189.2461,643.5961L1189.2438,643.5961Q1189.0364,643.503,1188.8358,643.40717L1188.8239,643.40717Q1188.685,643.33057,1188.5452,643.2502 Z M1177.7979,643.44574Q1177.8043,643.65186,1177.8171,643.8558L1177.8282,643.8558L1177.8097,643.44574 Z M1192.5151,621.6986Q1186.7401,621.6986,1182.093,628.4075C1181.9368,628.63306,1181.7888,628.8645,1181.6497,629.101Q1181.0912,630.0504,1180.6208,631.08795L1180.6207,631.08795Q1179.6029,633.3331,1178.9956,636.00085L1178.9967,636.00085L1178.9734,636.09937C1178.9434,636.2336,1178.9158,636.3677,1178.8907,636.50287Q1178.7712,637.1472,1178.6995,637.7765L1178.6877,637.7765Q1178.5735,638.1338,1178.4746,638.48L1178.4746,638.48Q1177.7378,641.05914,1177.7955,643.3642L1177.8059,643.3642L1177.8444,644.21014C1177.8511,644.28357,1177.8585,644.3577,1177.8667,644.431Q1178.8615,653.3709,1187.7859,655.8247C1188.0536,655.8983,1188.3239,655.96185,1188.5963,656.0152Q1189.8014,656.2512,1191.0016,656.2512Q1195.2454,656.2512,1199.427,653.29987L1199.4276,653.29944Q1199.9961,652.8981,1200.5818,652.43115L1200.5817,652.43115C1200.8291,652.2339,1201.0682,652.02606,1201.2979,651.8084Q1205.3196,647.99744,1206.19,642.9951C1206.2065,642.89954,1206.2219,642.80334,1206.2361,642.7074Q1206.7783,639.0215,1205.4086,635.4745L1205.3965,635.4745Q1206.7404,627.41675,1199.1321,623.6771L1199.12,623.6771Q1195.6512,621.6986,1192.5151,621.6986 Z"/>
</g>
<g style="fill:rgb(254,254,254); fill-opacity:1.0; stroke-linejoin: miter">
<path d="M1273.9406,772.8019Q1271.7467,772.8019,1269.572,773.92004L1269.5593,773.92004C1265.4753,774.3396,1261.8069,777.0143,1260.2832,781.0773L1259.6162,782.8559C1258.9609,784.60315,1258.774,786.4113,1258.9926,788.14246L1258.98,788.14246C1258.9642,788.24347,1258.9497,788.34485,1258.9368,788.44617Q1258.5532,791.4394,1259.0398,794.43536C1259.0884,794.7345,1259.1492,795.0312,1259.222,795.3254Q1259.8497,797.85986,1261.2821,799.8419L1261.2695,799.8419Q1263.2618,803.52246,1266.3695,804.9901L1266.3568,804.9901Q1266.434,805.0552,1266.5121,805.11957L1266.5122,805.11957C1268.5828,806.8259,1271.0865,807.6575,1273.5753,807.6575C1276.7811,807.6575,1279.962,806.2777,1282.16,803.61053C1283.7903,801.63226,1284.6221,799.2586,1284.693,796.8804L1284.68,796.8804Q1285.0195,796.0997,1285.3094,795.2527L1285.3094,795.2527Q1285.3938,795.0064,1285.4736,794.75446L1285.4747,794.7509C1285.5134,794.62854,1285.5503,794.5052,1285.5847,794.38153Q1285.6023,794.31866,1285.6177,794.2622L1285.6176,794.2622Q1286.2314,792.0171,1286.495,789.16266L1286.495,789.1625C1286.5111,788.9873,1286.5232,788.8119,1286.531,788.63617Q1286.6958,784.94073,1285.4569,781.5971C1285.3474,781.3016,1285.2253,781.0108,1285.0912,780.72565Q1283.9802,778.36523,1282.1876,776.6887L1282.1859,776.68713Q1278.0298,772.8019,1273.9406,772.8019 Z"/>
</g>
<g style="fill:rgb(254,254,254); fill-opacity:1.0; stroke-linejoin: miter">
<path d="M1321.4213,646.805C1321.3115,646.88824,1321.2035,646.9735,1321.097,647.06067L1321.097,647.06067Q1321.2065,646.9577,1321.3198,646.85895L1321.3066,646.85895Q1321.3342,646.83875,1321.362,646.8188L1321.3489,646.8188Q1321.3784,646.81177,1321.4081,646.805 Z M1327.3015,634.96875Q1325.6909,634.96875,1323.8452,635.32043L1323.845,635.3205C1322.7245,635.534,1321.6436,635.91864,1320.6401,636.461Q1316.5192,638.68835,1313.9697,643.3982L1313.9695,643.39856Q1313.0146,645.1628,1312.2603,647.32446L1312.2604,647.32446C1312.2327,647.40375,1312.2064,647.48175,1312.1805,647.56165Q1311.6364,649.24176,1311.401,651.15L1311.401,651.15063Q1311.2988,651.9798,1311.2538,652.86615L1311.2407,652.86615Q1311.2238,653.0476,1311.2095,653.23096L1311.2096,653.23096C1311.2054,653.2842,1311.2018,653.33496,1311.1984,653.38824Q1311.0631,655.50525,1311.4033,657.3679L1311.3903,657.3679Q1312.5056,664.9928,1318.8325,667.90686C1319.3759,668.1571,1319.9386,668.36316,1320.5151,668.5229Q1322.3655,669.03546,1324.1213,669.03546Q1328.1432,669.03546,1331.6702,666.3467L1331.6569,666.3467Q1332.0643,666.1703,1332.3705,666.0278L1332.3718,666.02716Q1333.1624,665.659,1333.8641,665.22675L1333.8507,665.22675Q1336.0765,663.9173,1337.8978,661.5094L1337.8981,661.5091Q1338.9526,660.11475,1340.3928,657.7104L1340.3928,657.71027C1340.5885,657.3836,1340.7673,657.04694,1340.9285,656.70197Q1342.9755,652.3186,1342.1903,646.90265L1342.1877,646.8852L1342.1843,646.8619L1342.1835,646.8559C1342.1678,646.74994,1342.151,646.64545,1342.1323,646.54Q1340.9515,639.8578,1335.4205,636.81964C1335.1334,636.6619,1334.8397,636.5171,1334.5398,636.3853Q1332.0656,635.29834,1329.6023,635.1673L1329.589,635.1673Q1328.5116,634.96875,1327.3015,634.96875 Z"/>
</g>
<g style="fill:rgb(254,254,254); fill-opacity:1.0; stroke-linejoin: miter">
<path d="M1426.5458,795.3065Q1423.6024,795.3065,1420.592,797.18054L1420.5779,797.18054Q1417.6974,798.7275,1415.8816,801.7757L1415.8674,801.7757Q1414.831,802.3842,1413.8574,803.2187L1413.8545,803.2187L1411.8846,804.8464L1411.8832,804.8464Q1409.9672,806.4168,1408.524,808.8792C1408.3903,809.10754,1408.2644,809.341,1408.1472,809.5783Q1406.6803,812.5492,1406.6072,816.4339L1406.608,816.4339Q1406.4075,821.2594,1408.9088,825.00653C1409.3159,825.6164,1409.7825,826.18463,1410.3015,826.70264Q1414.2782,830.6718,1419.991,830.6718Q1420.873,830.6718,1421.7966,830.57715L1421.8109,830.57715Q1422.0791,830.5886,1422.3501,830.5886Q1425.6282,830.5886,1429.3049,828.91425C1429.5656,828.79553,1429.8215,828.6668,1430.0723,828.5283Q1431.8854,827.5269,1433.4131,826.31537L1433.4131,826.31537Q1436.0138,824.253,1437.7429,821.633L1437.7285,821.633Q1441.3895,816.53906,1440.1332,809.4272L1440.133,809.4267Q1439.9146,808.19037,1439.5397,806.8859L1439.5397,806.8859C1439.5005,806.74945,1439.4584,806.61285,1439.414,806.47797Q1439.3744,806.3579,1439.333,806.23694L1439.333,806.23694Q1437.9913,802.3122,1435.4567,799.75476L1435.4562,799.75476Q1431.0806,795.3065,1426.5458,795.3065 Z"/>
</g>
<g style="fill:rgb(254,254,254); fill-opacity:1.0; stroke-linejoin: miter">
<path d="M1172.8186,976.0053L1172.8186,976.0053Q1172.8171,976.0081,1172.8156,976.0109L1172.8126,976.0109Q1172.8141,976.0081,1172.8156,976.0053 Z M1186.3456,961.8549C1185.5653,961.8549,1184.785,961.9371,1184.018,962.1013Q1177.792,963.4345,1174.5273,969.4969C1174.4563,969.6289,1174.3873,969.7632,1174.3217,969.89795Q1173.8981,970.7671,1173.5946,971.64L1173.5829,971.64C1171.4111,973.2508,1169.8179,975.65326,1169.2809,978.5206Q1168.482,982.78595,1169.6184,985.98157L1169.6067,985.98157Q1169.2131,990.8482,1170.8011,995.6149C1170.8492,995.7593,1170.9001,995.9022,1170.9541,996.0445Q1171.6108,997.77545,1172.5386,999.21045L1172.5386,999.21045Q1176.8982,1005.9542,1182.7654,1005.9542Q1186.6224,1005.9542,1191.131,1003.03986L1191.1311,1003.0398C1191.6558,1002.7007,1192.1509,1002.3179,1192.6112,1001.89557Q1194.3497,1000.30066,1195.7058,997.8627L1195.7058,997.8627Q1196.8187,995.86206,1197.9569,992.7848L1197.9568,992.7848C1198.116,992.3546,1198.2484,991.91486,1198.3531,991.4683Q1198.7107,989.94507,1198.8739,988.393L1198.8619,988.393Q1198.9984,987.958,1199.1123,987.49854L1199.1127,987.49664Q1199.519,985.8553,1200.4407,980.71606L1200.4407,980.7161C1200.4761,980.51855,1200.506,980.321,1200.5306,980.1218Q1200.6226,979.3805,1200.6693,978.7421L1200.6696,978.7398Q1200.7836,977.1773,1200.6381,975.8405L1200.6371,975.8405Q1199.4362,964.36426,1188.6327,962.0928C1187.8785,961.9342,1187.112,961.8549,1186.3456,961.8549 Z"/>
</g>
<g style="fill:rgb(254,254,254); fill-opacity:1.0; stroke-linejoin: miter">
<path d="M1458.1781,667.55286Q1456.1276,667.55286,1453.7322,668.18097L1453.7319,668.181C1453.5237,668.23566,1453.317,668.2963,1453.1123,668.3629Q1451.5184,668.8815,1450.1741,669.6616L1450.1597,669.6616Q1444.8282,669.683,1440.098,675.5505L1440.098,675.5505Q1439.9814,675.69507,1439.8657,675.84357L1439.8657,675.84357C1439.5955,676.19037,1439.3458,676.5531,1439.1187,676.92944Q1438.3453,678.21,1437.762,679.5164L1437.762,679.51654Q1436.5289,682.27795,1436.1556,685.1175L1436.1556,685.11786C1436.0897,685.6195,1436.0581,686.1251,1436.061,686.6311Q1436.0665,687.57306,1436.1324,688.4294L1436.1324,688.4285Q1436.6869,695.63617,1441.7616,699.13074L1441.8638,699.20026Q1445.345,701.5409,1449.2649,701.5409Q1452.4656,701.5409,1455.9586,699.9804L1455.9448,699.9804Q1457.5922,699.29,1459.0682,698.2141L1459.0537,698.2141C1460.9485,697.7783,1462.7533,696.83954,1464.2567,695.3937C1465.8403,693.8706,1466.8749,691.9913,1467.3552,690.0029L1467.3406,690.0029Q1469.7094,685.936,1469.5522,680.6533C1469.5343,680.05194,1469.4678,679.45294,1469.3529,678.86237Q1469.2386,678.2749,1469.093,677.71924L1469.0928,677.7185Q1466.427,667.55286,1458.1781,667.55286 Z"/>
</g>
<g style="fill:rgb(254,254,254); fill-opacity:1.0; stroke-linejoin: miter">
</g>
<g style="fill:rgb(254,254,254); fill-opacity:1.0; stroke-linejoin: miter">
</g>
<g style="fill:rgb(254,254,254); fill-opacity:1.0; stroke-linejoin: miter">
<path d="M1332.3854,536.30176Q1332.3652,536.3259,1332.345,536.3499L1332.3317,536.3499Q1331.7024,536.7714,1331.0864,537.1062L1331.0864,537.1062L1331.0981,537.05475L1331.0848,537.05475C1331.1467,537.00824,1331.208,536.961,1331.269,536.91315L1331.2556,536.91315C1331.6355,536.73267,1332.0083,536.52893,1332.3721,536.30176 Z M1331.0657,537.07904L1331.0562,537.12976L1331.0428,537.12976Q1330.9331,537.1889,1330.8239,537.24524L1330.8239,537.24524C1330.9006,537.19086,1330.9769,537.13544,1331.0524,537.07904 Z M1322.7356,537.329C1323.9447,537.7621,1325.2206,537.983,1326.5024,537.983C1326.747,537.983,1326.9916,537.9749,1327.2361,537.9588L1327.2493,537.9588Q1326.7716,538.2025,1326.299,538.3945L1326.299,538.3945Q1324.4386,538.3362,1322.7223,537.329 Z M1321.9828,539.0271C1322.06,539.0443,1322.1373,539.06067,1322.2146,539.07623L1322.1914,539.07623Q1322.0809,539.0529,1321.9696,539.0271 Z M1327.6163,514.89514Q1325.8917,514.89514,1324.0763,515.56824L1324.0763,515.56824Q1323.8542,515.5557,1323.631,515.5557Q1320.0616,515.5557,1316.1743,518.75006L1316.1584,518.7631C1316.017,518.8798,1315.8783,519.00006,1315.7428,519.1236Q1312.262,522.2968,1310.6553,527.1664L1310.6548,527.16785Q1310.3152,528.1976,1310.0636,529.2983L1310.0619,529.3058L1309.2577,532.8354C1309.1967,533.10315,1309.1458,533.37244,1309.1047,533.644Q1308.6044,536.9554,1309.525,540.30743L1309.5248,540.30743Q1310.7852,544.97925,1314.1101,547.65985L1314.0969,547.65985Q1317.7123,550.8258,1321.467,550.8258Q1325.5538,550.8258,1329.8058,547.07526L1329.7925,547.07526Q1332.9222,544.6035,1334.8546,540.79144L1334.8412,540.79144Q1334.851,540.7813,1334.8607,540.7711L1334.8593,540.7711Q1336.9468,538.7117,1338.3131,535.58374L1338.3135,535.58307Q1338.7617,534.55676,1339.1552,533.372L1339.1792,533.2891L1339.1823,533.2891L1339.3809,532.59564L1339.3807,532.59564L1339.3898,532.56464L1339.39,532.56366L1339.397,532.56366Q1340.9673,526.7124,1337.2462,521.11096L1337.2362,521.09576L1337.236,521.0954L1337.2358,521.0954C1337.177,521.007,1337.1174,520.92053,1337.0559,520.8337Q1336.9476,520.6809,1336.8394,520.53644L1336.8359,520.53186Q1332.6069,514.89514,1327.6163,514.89514 Z"/>
</g>
<g style="fill:rgb(254,254,254); fill-opacity:1.0; stroke-linejoin: miter">
<path d="M1372.854,924.01733L1372.854,924.01733L1373.2986,923.12805C1376.0442,917.63696,1382.7212,915.41125,1388.2124,918.15674C1393.7034,920.90234,1395.9292,927.57935,1393.1836,933.07043L1393.1836,933.07043L1392.739,933.9597C1389.9934,939.4508,1383.3164,941.6765,1377.8252,938.931C1372.3342,936.18555,1370.1084,929.5084,1372.854,924.01733 Z"/>
</g>
<g style="fill:rgb(254,254,254); fill-opacity:1.0; stroke-linejoin: miter">
<path d="M1055.3164,924.5036Q1047.1233,924.5036,1042.9078,933.06946L1042.9078,933.06946Q1042.3489,934.20496,1041.8595,935.5287L1041.8593,935.52924C1041.7987,935.693,1041.7416,935.8593,1041.6888,936.02576Q1040.4513,939.93097,1040.2527,943.2246L1040.2526,943.22485Q1040.0442,946.6824,1040.9484,949.6625L1040.9562,949.68823Q1043.9888,959.5974,1054.764,959.5974Q1054.7861,959.5974,1054.8081,959.59735C1055.7335,959.59564,1056.6548,959.47833,1057.5511,959.2482Q1063.2114,957.7952,1067.2017,952.82635L1067.2018,952.82635Q1067.4755,952.48566,1067.7417,952.1264L1067.7424,952.1255C1068.0398,951.7242,1068.3097,951.30334,1068.5504,950.8658Q1069.709,948.7598,1070.1218,946.4091C1070.1844,946.0528,1070.2295,945.6936,1070.2571,945.3329L1070.2571,945.3329Q1070.3014,944.83795,1070.5706,943.494L1070.5673,943.494Q1070.9159,941.9029,1070.8522,940.0355L1070.852,940.034L1070.8435,940.034L1070.8306,939.5512L1070.8307,939.5512C1070.8031,939.034,1070.7395,938.5192,1070.6401,938.01086Q1069.6584,932.9875,1066.0413,929.7387L1066.0306,929.7387Q1063.5619,925.81506,1057.5027,924.6924C1056.9542,924.59076,1056.3987,924.5305,1055.8411,924.51227Q1055.5767,924.5036,1055.3164,924.5036 Z"/>
</g>
<g style="fill:rgb(254,254,254); fill-opacity:1.0; stroke-linejoin: miter">
</g>
<g style="fill:rgb(254,254,254); fill-opacity:1.0; stroke-linejoin: miter">
<path d="M1376.0724,925.98346C1375.6239,926.8113,1375.2908,927.6763,1375.0695,928.5581L1375.0642,928.5581Q1375.3064,927.3193,1376.0586,925.98346 Z M1378.6771,910.6039C1378.1571,910.6039,1377.6373,910.6404,1377.1217,910.71326Q1372.2623,911.4001,1368.3651,915.01117C1367.9093,915.43353,1367.4897,915.8934,1367.1107,916.38586Q1365.4758,918.51044,1364.7042,920.7345L1364.6906,920.7345Q1363.3762,923.51904,1363.1455,926.28766L1363.1318,926.28766Q1362.301,929.73346,1363.3348,933.26154L1363.3213,933.26154Q1363.5751,934.64136,1364.0432,935.83374L1364.0809,935.92865Q1364.2081,936.2441,1364.3398,936.54504L1364.3405,936.5463Q1367.0453,942.7254,1371.6311,944.87933L1371.6173,944.87933C1373.7172,947.33655,1376.8156,948.7781,1380.071,948.7781C1381.2191,948.7781,1382.3867,948.5988,1383.537,948.22156C1386.949,947.1026,1389.4525,944.48975,1390.5603,941.3461L1390.5464,941.3461C1392.2906,940.53595,1393.8474,939.2622,1395.0154,937.5622Q1401.5729,928.01794,1393.0298,918.7139C1392.7483,918.4074,1392.4498,918.1169,1392.1359,917.8438Q1390.648,916.55,1389.1105,915.72003L1389.0966,915.72003Q1385.2626,911.13885,1379.6487,910.6464C1379.3253,910.61804,1379.0012,910.6039,1378.6771,910.6039 Z"/>
</g>
<g style="fill:rgb(254,254,254); fill-opacity:1.0; stroke-linejoin: miter">
<path d="M1513.9172,494.56018Q1513.9086,494.56436,1513.8998,494.5685L1513.8846,494.5685Q1513.7668,494.57916,1513.6503,494.58792L1513.6351,494.58792Q1513.4563,494.59262,1513.2743,494.59262Q1513.0349,494.59262,1512.79,494.5845L1512.8052,494.5845C1512.9059,494.58725,1513.0066,494.58862,1513.1073,494.58862C1513.3726,494.58862,1513.6376,494.57913,1513.9021,494.56018 Z M1513.6826,472.3138Q1513.0941,472.3138,1512.4808,472.36365L1512.4658,472.36365Q1510.3002,472.4484,1508.4255,473.24973L1508.4105,473.24973Q1507.8619,473.34314,1507.2931,473.465C1507.0474,473.51764,1506.8032,473.57864,1506.5616,473.64783Q1502.1249,474.9182,1498.7499,478.777C1498.5709,478.98166,1498.399,479.19318,1498.2356,479.4104Q1494.7782,484.00397,1494.7251,489.9483C1494.7225,490.23813,1494.7313,490.52817,1494.7513,490.81732Q1495.2512,498.01944,1500.0856,501.4438L1500.0706,501.4438Q1500.5914,501.9771,1501.1764,502.48486L1501.1764,502.48483C1501.2587,502.55627,1501.3428,502.62714,1501.4271,502.69614Q1505.5189,506.0417,1509.5735,506.0417Q1513.7916,506.0417,1517.9696,502.42072L1517.9696,502.42072Q1520.3354,500.37497,1522.001,498.0354L1522.0012,498.03503Q1523.1559,496.4129,1523.9642,494.6648L1523.9641,494.6648C1524.0813,494.41132,1524.189,494.15353,1524.2867,493.89197Q1524.5854,493.093,1524.8203,492.28583L1524.8207,492.28436Q1525.4077,490.26572,1525.5936,488.2389L1525.5784,488.2389C1525.6647,487.65204,1525.7028,487.0639,1525.6947,486.47974L1525.6794,486.47974Q1525.6901,484.6745,1525.3835,482.8628L1525.3835,482.8628C1525.2302,481.95667,1524.9652,481.07306,1524.5944,480.23218Q1521.1025,472.3138,1513.6826,472.3138 Z"/>
</g>
<g style="fill:rgb(254,254,254); fill-opacity:1.0; stroke-linejoin: miter">
<path d="M1368.7383,521.15186Q1368.4751,521.42096,1368.1304,521.52496L1368.1304,521.52496C1368.3524,521.4422,1368.5546,521.3149,1368.7246,521.15186 Z M1471.0044,497.34198C1470.9413,497.34198,1470.8776,497.34543,1470.8134,497.35245Q1467.4996,497.7155,1465.2085,498.37064L1465.1938,498.37064L1462.6364,498.56152C1462.5598,498.56723,1462.4836,498.57803,1462.4086,498.5938L1453.8469,500.39368L1453.8324,500.39368Q1450.6304,500.48178,1448.0829,501.1103C1448.0272,501.12402,1447.9724,501.14047,1447.9185,501.15964Q1444.065,502.52682,1439.101,503.6452C1439.0133,503.66495,1438.9272,503.69153,1438.8436,503.7246L1428.0355,508.00415L1428.0355,508.00415L1421.0874,508.91763C1421.0261,508.9257,1420.9652,508.93704,1420.9052,508.9516L1413.903,510.6481L1413.8888,510.6481Q1408.6284,511.11743,1406.924,511.48734L1406.9099,511.48734Q1404.5845,511.84717,1400.7378,513.2518L1400.7238,513.2518Q1396.9556,513.4021,1394.2467,513.86993L1394.1866,513.88135L1381.8273,516.46686L1381.7418,516.48706Q1381.1493,516.6427,1379.197,516.6427Q1378.2043,516.6427,1376.8601,516.6025C1376.8428,516.6019,1376.8254,516.6017,1376.8081,516.6017C1376.7339,516.6017,1376.6597,516.60645,1376.5859,516.616Q1373.4739,517.0183,1369.9506,517.92914L1369.9369,517.92914Q1367.8909,518.0515,1367.3423,518.1527L1367.3422,518.1527Q1367.1749,518.18353,1367.0245,518.233L1367.0109,518.233Q1361.4207,519.32043,1355.2794,522.42896C1354.4249,522.86145,1354.0828,523.9048,1354.5153,524.7593C1354.8207,525.36273,1355.4308,525.7106,1356.0638,525.7106C1356.3271,525.7106,1356.5945,525.6504,1356.8456,525.5233Q1362.653,522.5838,1367.8457,521.60425C1367.9149,521.5912,1367.9828,521.57404,1368.0492,521.553L1368.0355,521.553Q1368.4839,521.48785,1370.3275,521.38025C1370.4414,521.3736,1370.5542,521.3558,1370.6646,521.32697Q1373.9872,520.45935,1376.8934,520.07355L1376.9072,520.07355Q1378.0328,520.1055,1378.9583,520.1055Q1381.5139,520.1055,1382.542,519.86163L1382.5375,519.86163L1394.8969,517.2761L1394.9033,517.2761Q1397.4673,516.83984,1401.1425,516.70654C1401.3263,516.6999,1401.5079,516.664,1401.6804,516.6003Q1405.4606,515.20416,1407.5214,514.9025C1407.5623,514.89655,1407.6029,514.88916,1407.6432,514.88025Q1409.1395,514.5508,1414.3467,514.0893C1414.4326,514.08167,1414.5181,514.0676,1414.6019,514.0473L1421.6312,512.3442L1428.7004,511.41476C1428.8418,511.39618,1428.9802,511.36026,1429.1128,511.30777L1439.9762,507.00635L1439.9618,507.00635Q1444.9941,505.8677,1448.9622,504.46918L1448.9478,504.46918Q1451.184,503.9224,1454.0901,503.85648C1454.1968,503.85406,1454.3031,503.8418,1454.4076,503.81982L1463.0094,502.0115L1463.0094,502.0115L1465.6527,501.8142C1465.7758,501.80502,1465.8976,501.7827,1466.016,501.74768Q1468.0571,501.14337,1471.191,500.80002C1472.1431,500.6957,1472.8302,499.83942,1472.726,498.8874C1472.6288,497.99954,1471.8774,497.34198,1471.0044,497.34198 Z"/>
</g>
<g style="fill:rgb(254,254,254); fill-opacity:1.0; stroke-linejoin: miter">
<path d="M1505.4607,517.12854C1505.096,517.12854,1504.7283,517.24316,1504.415,517.4803Q1502.9362,518.60016,1502.347,521.0203L1502.3368,521.06525L1499.969,532.05646L1493.831,554.21466L1486.7391,573.90753L1486.7313,573.90753Q1484.7328,578.2065,1482.028,585.35266L1482.0074,585.4098L1482.005,585.417L1482.005,585.417Q1473.1215,611.255,1472.482,615.8621L1472.4673,615.8621L1470.1034,620.8297C1469.6919,621.6945,1470.0593,622.7292,1470.9241,623.1407C1471.1646,623.2551,1471.4182,623.3093,1471.668,623.3093C1472.3162,623.3093,1472.938,622.9442,1473.235,622.31995L1475.7407,617.05426C1475.8282,616.8703,1475.8828,616.67236,1475.9016,616.46954Q1476.2369,612.8605,1485.2872,586.53754L1485.2897,586.5304L1485.2921,586.5232L1485.2932,586.5232Q1487.9847,579.4158,1489.9415,575.2293C1489.964,575.18134,1489.9841,575.1324,1490.0021,575.0826L1497.1163,555.3276C1497.1311,555.28656,1497.1444,555.24506,1497.156,555.203L1503.3247,532.9339L1503.3488,532.8361L1505.7272,521.7956L1505.728,521.7956Q1506.0232,520.61285,1506.5088,520.2452C1507.2723,519.667,1507.4225,518.57935,1506.8444,517.81586C1506.5034,517.36554,1505.9851,517.12854,1505.4607,517.12854 Z"/>
</g>
<g style="fill:rgb(254,254,254); fill-opacity:1.0; stroke-linejoin: miter">
<path d="M1333.3025,582.69476Q1333.124,583.57776,1332.279,583.8284L1332.279,583.8284C1332.768,583.6273,1333.1443,583.2095,1333.2892,582.69476 Z M1329.9302,582.6164C1330.0782,583.25696,1330.5798,583.7584,1331.2141,583.9105L1331.2141,583.9105Q1330.0931,583.7775,1329.9169,582.6164 Z M1330.0507,560.703C1329.8368,560.703,1329.6193,560.7428,1329.4086,560.8269C1328.519,561.1818,1328.0857,562.1906,1328.4406,563.08014Q1328.8489,564.1036,1329.0419,565.78485L1329.0426,565.7916Q1329.1246,566.48267,1329.1653,567.1713L1329.17,567.2334Q1329.1992,567.54,1329.2229,569.30475L1329.2245,569.3609Q1329.2429,569.763,1329.2798,570.1529L1329.283,570.1827Q1329.3745,570.99994,1329.4269,571.27893L1329.4269,571.27893Q1329.4423,571.36115,1329.4591,571.4288L1329.4584,571.4288Q1329.842,573.21063,1329.8901,573.8658L1329.8906,573.8718L1329.8909,573.875L1329.894,573.91174Q1330.0494,575.4914,1330.0394,576.58435L1330.0409,576.67474L1330.0409,576.67474Q1330.046,576.8789,1330.0232,578.0231L1330.0228,578.0231Q1329.8942,581.1624,1329.8859,582.1686L1329.8821,582.1686Q1329.8684,582.6305,1329.8705,589.0329L1329.8705,589.0329Q1329.8649,589.57947,1329.8494,590.0882L1329.8492,590.0882Q1329.8027,591.2814,1329.7839,591.47833L1329.784,591.47833L1329.7817,591.5018L1329.5814,593.68243L1329.578,593.7259Q1329.5472,594.18835,1329.5413,594.64166L1329.5411,594.6735Q1329.5463,595.65375,1329.5753,595.9808L1329.5753,595.9808Q1329.5818,596.05365,1329.5907,596.1179L1329.5898,596.1179Q1329.7855,597.9396,1329.7827,598.2789L1329.7826,598.29315L1329.7826,598.2998L1329.7839,598.36774Q1329.8141,599.13617,1329.7839,599.9481L1329.7838,599.9481Q1329.6057,603.92944,1329.0197,604.87994C1328.517,605.6951,1328.7704,606.7635,1329.5856,607.2662C1329.8693,607.4411,1330.1836,607.5245,1330.494,607.5245C1331.0758,607.5245,1331.644,607.23175,1331.9718,606.70026Q1333.0315,604.9816,1333.2493,600.0896L1333.2498,600.0768Q1333.2834,599.1677,1333.2521,598.2998L1333.2509,598.2998L1333.2509,598.29315L1333.2509,598.29315Q1333.2524,597.73553,1333.0323,595.69324L1333.0299,595.674L1333.0299,595.674Q1333.0138,595.4925,1333.0094,594.65533L1333.0098,594.65533Q1333.0148,594.3281,1333.0356,593.9997L1333.035,593.9997L1333.2354,591.81903L1333.2355,591.81903Q1333.236,591.81323,1333.2366,591.80756L1333.2366,591.80756Q1333.2645,591.51416,1333.3154,590.2087L1333.3159,590.19415Q1333.3329,589.6406,1333.3386,589.0493L1333.3387,589.0318Q1333.3369,583.569,1333.3456,582.5052L1333.331,582.5052C1333.3455,582.417,1333.3533,582.3265,1333.3538,582.2343Q1333.3593,581.3085,1333.4896,578.12866L1333.4907,578.09216Q1333.5157,576.83405,1333.5072,576.5584L1333.5067,576.54626L1333.5079,576.54626Q1333.5144,575.30237,1333.3496,573.6119L1333.3491,573.6119Q1333.2827,572.7066,1332.837,570.64435L1332.8358,570.6393L1332.8356,570.6393Q1332.8073,570.4884,1332.7328,569.82635L1332.7327,569.82635Q1332.7062,569.54645,1332.6918,569.25824L1332.6907,569.25824Q1332.6666,567.47095,1332.6279,566.9671L1332.6274,566.9671Q1332.5809,566.1771,1332.4875,565.38934L1332.4874,565.38934Q1332.2417,563.2486,1331.6617,561.795C1331.391,561.1162,1330.7394,560.703,1330.0507,560.703 Z"/>
</g>
<g style="fill:rgb(254,254,254); fill-opacity:1.0; stroke-linejoin: miter">
<path d="M1258.8177,642.98517Q1259.0403,643.13477,1259.2051,643.3731L1259.1979,643.3731C1259.0883,643.22327,1258.9556,643.0924,1258.8052,642.98517 Z M1234.8353,637.1664Q1233.1742,637.1664,1231.1954,637.2194L1231.0978,637.2248Q1227.2935,637.54205,1225.5936,638.8917C1224.8436,639.48724,1224.7184,640.578,1225.314,641.32806C1225.6564,641.7592,1226.1624,641.9839,1226.6732,641.9839C1227.051,641.9839,1227.4315,641.86096,1227.7504,641.6078Q1228.6194,640.9177,1231.3326,640.6855L1231.3203,640.6855Q1233.2856,640.6331,1234.9052,640.6331Q1238.9401,640.6331,1240.8285,640.9582L1240.9006,640.96906Q1244.9099,641.4868,1248.1165,642.4511L1248.1257,642.45386Q1250.1737,643.0574,1251.0807,643.42523L1251.0704,643.42523Q1255.0795,645.3998,1257.1663,646.0192L1257.1537,646.0192Q1257.2278,646.0529,1257.3066,646.08276Q1258.3412,646.47406,1266.2864,648.26495L1266.2737,648.26495Q1266.3551,648.28876,1266.4435,648.30884L1266.4434,648.30884Q1267.4384,648.5352,1272.7002,648.8116L1272.79,648.81396L1272.79,648.81396L1272.778,648.8138L1272.7653,648.8138Q1273.05,648.8201,1273.3318,648.8201Q1274.1996,648.8201,1275.0392,648.76013L1275.0881,648.7559L1279.4513,648.3194L1279.4386,648.3194Q1279.4852,648.31824,1279.5338,648.31824Q1280.3262,648.31824,1281.655,648.6125C1281.7812,648.64044,1281.9073,648.6539,1282.0315,648.6539C1282.827,648.6539,1283.544,648.1031,1283.723,647.29425C1283.93,646.3592,1283.3398,645.4333,1282.4048,645.22626Q1280.7067,644.8503,1279.5214,644.8503Q1279.4019,644.8503,1279.2877,644.85406L1279.173,644.86176L1274.7429,645.305L1274.7317,645.305Q1274.0447,645.352,1273.3322,645.352Q1273.1053,645.352,1272.8759,645.3472L1272.863,645.3472Q1268.0935,645.09644,1267.2692,644.9388L1267.2595,644.9388C1267.2026,644.91956,1267.1448,644.9033,1267.086,644.8901Q1259.7832,643.2443,1258.648,642.8783L1258.6354,642.8783C1258.5201,642.81476,1258.397,642.764,1258.268,642.72766Q1256.4598,642.2188,1252.5004,640.2635C1252.4624,640.24475,1252.4236,640.2273,1252.3844,640.21136Q1251.3212,639.7801,1249.1152,639.1298L1249.1152,639.1298Q1245.6699,638.0937,1241.4285,637.5402L1241.4169,637.5402Q1239.2448,637.1664,1234.8353,637.1664 Z"/>
</g>
<g style="fill:rgb(254,254,254); fill-opacity:1.0; stroke-linejoin: miter">
<path d="M1179.5392,662.52625C1179.1333,662.52625,1178.7256,662.66797,1178.3965,662.95667Q1172.4154,668.2025,1171.4445,668.73883L1171.4327,668.73883C1171.1644,668.8492,1170.9269,669.02563,1170.7429,669.25336L1167.0446,673.8343C1166.9785,673.91614,1166.9199,674.0038,1166.8698,674.0962L1161.0587,684.80005L1161.0471,684.80005Q1158.4586,687.6095,1157.288,689.78314C1157.2635,689.8285,1157.2407,689.87555,1157.2205,689.9229Q1155.2444,694.5391,1153.9707,696.46954L1153.9624,696.4821L1149.1489,703.9169L1149.1375,703.9169Q1144.6954,709.0689,1141.2229,714.3337C1141.167,714.41833,1141.1188,714.50775,1141.0786,714.6009L1134.5707,729.66925L1125.3912,743.50165L1125.3453,743.5749Q1124.5751,744.87164,1124.2361,745.88806L1124.2094,745.9757Q1124.0076,746.70764,1123.9548,747.09216L1123.9547,747.09296Q1123.7712,748.4363,1124.825,749.0379L1124.825,749.0379Q1125.3331,749.3283,1125.7882,749.3283Q1126.6185,749.3283,1127.2722,748.36145L1127.2722,748.36145Q1127.3629,748.22736,1127.4663,748.04645C1127.7046,747.62946,1127.7509,747.15515,1127.6328,746.72595L1127.6215,746.72595Q1127.8448,746.1667,1128.2838,745.4194L1128.2811,745.4194L1137.5459,731.4584C1137.6029,731.3725,1137.652,731.2817,1137.6929,731.1871L1144.18,716.1669L1144.1686,716.1669Q1147.5474,711.0557,1151.8855,706.04114C1151.9379,705.9806,1151.9862,705.91626,1152.0297,705.84906L1156.8738,698.367L1156.8738,698.367Q1158.2963,696.20624,1160.349,691.42755L1160.3414,691.42755Q1161.3403,689.57263,1163.7643,686.97034C1163.8639,686.8634,1163.9497,686.74426,1164.0194,686.6158L1169.8427,675.8895L1173.193,671.73956L1173.1813,671.73956Q1174.6104,670.89056,1180.6833,665.5641C1181.4033,664.93256,1181.4751,663.837,1180.8436,663.11694C1180.5009,662.7261,1180.0212,662.52625,1179.5392,662.52625 Z"/>
</g>
<g style="fill:rgb(254,254,254); fill-opacity:1.0; stroke-linejoin: miter">
<path d="M1092.8354,815.92694C1092.1458,815.92694,1091.4935,816.34125,1091.2234,817.02124Q1089.9395,820.2531,1089.2783,823.74963C1089.2678,823.80493,1089.2601,823.8601,1089.2551,823.91614L1088.1024,836.7091L1088.0969,836.7091Q1087.2688,841.5798,1086.476,848.6014L1086.4758,848.6014Q1086.2367,850.48804,1084.9615,855.34357C1084.9459,855.4029,1084.9335,855.46326,1084.9243,855.5239Q1084.2314,860.09033,1084.0828,860.64716L1084.081,860.64716C1084.0726,860.67365,1084.0648,860.7004,1084.0576,860.7273Q1083.0704,864.4246,1082.2747,868.1064L1082.2661,868.1064Q1079.8992,875.5025,1078.6635,881.3694L1078.658,881.3694Q1076.4755,888.79724,1075.0278,892.7518C1074.9677,892.91614,1074.9327,893.0887,1074.9241,893.2651L1074.9221,893.2651Q1074.7439,894.5994,1071.3813,906.3344C1071.1176,907.25507,1071.65,908.2153,1072.5707,908.47906C1072.7302,908.5248,1072.891,908.5466,1073.0492,908.5466C1073.8033,908.5466,1074.4973,908.0508,1074.7153,907.28973Q1078.0156,895.77246,1078.3453,893.8073L1078.3346,893.8073Q1079.8214,889.72107,1082.0243,882.21515C1082.037,882.17206,1082.048,882.1282,1082.0573,882.0842Q1083.27,876.3266,1085.6207,869.00275C1085.638,868.949,1085.6526,868.8944,1085.6646,868.8392Q1086.4261,865.31604,1087.3672,861.7766L1087.3594,861.7766Q1087.3992,861.6701,1087.4331,861.5438L1087.4336,861.5422Q1087.6278,860.8152,1088.3259,856.22455L1088.316,856.22455Q1089.6564,851.1209,1089.9198,849.0108L1089.9222,848.99054Q1090.7153,841.96783,1091.5387,837.1573C1091.5465,837.1119,1091.5524,837.0662,1091.5565,837.0204L1092.7092,824.2274L1092.7179,824.2274Q1093.3157,821.1481,1094.4465,818.30176C1094.8002,817.4117,1094.3652,816.4035,1093.4752,816.0499C1093.2651,815.9665,1093.0486,815.92694,1092.8354,815.92694 Z"/>
</g>
<g style="fill:rgb(254,254,254); fill-opacity:1.0; stroke-linejoin: miter">
<path d="M1232.1385,874.2795L1232.1385,874.2795C1232.2402,874.4987,1232.3862,874.69336,1232.5659,874.8517L1232.5659,874.8517Q1232.2743,874.6208,1232.1262,874.2795 Z M1234.7103,874.9771Q1234.3481,875.2879,1233.849,875.2879Q1233.7969,875.2879,1233.7432,875.28455L1233.7308,875.28455C1234.0795,875.2809,1234.416,875.1718,1234.698,874.9771 Z M1208.5353,934.74097Q1209.038,934.74097,1209.4454,935.1328L1209.4454,935.1328C1209.1508,934.92395,1208.798,934.813,1208.4398,934.813C1208.1368,934.813,1207.8301,934.89246,1207.5515,935.0593L1207.5515,935.0593Q1208.0822,934.74097,1208.5353,934.74097 Z M1259.7992,820.1513C1259.2285,820.1513,1258.6697,820.4328,1258.3384,820.9487Q1253.9209,827.82935,1247.522,845.01135L1247.5095,845.01135L1232.4009,872.33826L1232.3885,872.33826Q1232.2236,872.5292,1232.0781,872.78217L1232.0781,872.78217Q1230.9727,874.7037,1221.9369,900.235L1221.9265,900.235L1209.6174,926.12573C1209.5883,926.187,1209.5626,926.2503,1209.5409,926.3146Q1206.7346,934.6097,1206.6083,936.15796L1206.6084,936.15796Q1206.5479,936.8978,1206.871,937.43335L1206.871,937.43335Q1207.4443,938.3843,1208.2582,938.3843Q1208.7527,938.3843,1209.336,938.0331L1209.337,938.03253C1210.005,937.6298,1210.3041,936.84814,1210.125,936.1289L1210.1129,936.1289Q1210.4332,934.50903,1212.7625,927.61487L1212.7498,927.61487L1225.1378,901.5581C1225.1636,901.50397,1225.1864,901.4486,1225.2064,901.3921Q1233.6256,877.60284,1234.9495,874.77795L1234.9371,874.77795C1235.0505,874.66486,1235.1494,874.5347,1235.2297,874.38947L1250.6453,846.50745C1250.6869,846.4322,1250.7228,846.35394,1250.7528,846.2734Q1257.034,829.3997,1261.2568,822.8225C1261.7743,822.0166,1261.5404,820.94385,1260.7345,820.4264C1260.4446,820.24023,1260.12,820.1513,1259.7992,820.1513 Z"/>
</g>
<g style="fill:rgb(254,254,254); fill-opacity:1.0; stroke-linejoin: miter">
<path d="M1318.1981,690.75287Q1317.9384,690.75287,1317.681,690.79095L1317.6808,690.791Q1317.5118,690.81604,1317.3463,690.8575L1317.3461,690.85754Q1315.1824,691.39954,1313.9675,694.5649L1313.9673,694.5649Q1313.2793,696.28986,1311.9572,700.4619L1311.9441,700.4619Q1309.6152,705.1585,1307.6442,711.0553L1307.6409,711.0553Q1306.0115,715.0938,1304.0902,718.4933C1304.0604,718.54596,1304.0334,718.60016,1304.0093,718.6557L1299.1263,729.8993C1299.109,729.9393,1299.093,729.9801,1299.0787,730.0213Q1295.7113,739.72015,1292.9225,749.5535L1292.9092,749.5535Q1291.1401,753.7991,1289.949,757.2954L1289.949,757.2954L1289.948,757.2981C1289.6392,758.20465,1290.1237,759.18994,1291.0303,759.4988C1291.2164,759.5622,1291.406,759.59216,1291.5922,759.59216C1292.3126,759.59216,1292.9832,759.14374,1293.2191,758.4499L1293.2201,758.4472L1293.2319,758.4138Q1294.413,754.947,1296.1907,750.6956C1296.2174,750.6317,1296.2402,750.56647,1296.2592,750.4998Q1299.003,740.82434,1302.3127,731.2809L1302.3075,731.2809L1307.1904,720.0373L1307.2009,720.0373Q1309.2053,716.4638,1310.8978,712.2516L1310.9335,712.1548Q1312.8678,706.3682,1315.1434,701.8177C1315.184,701.7366,1315.2183,701.65204,1315.2456,701.56555Q1316.551,697.4433,1317.1964,695.83057L1317.2053,695.8077Q1317.774,694.3261,1318.1886,694.22186L1318.1886,694.22186Q1318.1943,694.221,1318.2014,694.221Q1318.2516,694.221,1318.365,694.2645L1318.365,694.2645Q1318.3998,694.27795,1318.4376,694.29517C1318.6709,694.40155,1318.9154,694.45197,1319.1561,694.45197C1319.8145,694.45197,1320.444,694.07513,1320.735,693.437C1321.1324,692.5656,1320.7482,691.53705,1319.8768,691.13965Q1319.7427,691.0784,1319.608,691.02673L1319.6074,691.0265Q1318.8943,690.75287,1318.1981,690.75287 Z"/>
</g>
<g style="fill:rgb(254,254,254); fill-opacity:1.0; stroke-linejoin: miter">
<path d="M1188.4984,868.4316C1187.8148,868.5738,1187.2742,869.11865,1187.147,869.8174L1187.147,869.8174Q1187.29,868.5877,1188.4866,868.4316 Z M1189.2416,868.4364Q1190.3525,868.6057,1190.559,869.8174L1190.5586,869.8174C1190.4316,869.1213,1189.8982,868.5849,1189.2297,868.4364 Z M1199.7723,669.19556C1199.6334,669.19556,1199.4922,669.21234,1199.3513,669.2475C1198.4221,669.4793,1197.8567,670.4205,1198.0885,671.34973Q1198.393,672.5704,1198.3389,672.9992L1198.3386,672.9992Q1197.8408,676.49963,1197.6642,679.3461L1197.6614,679.40674L1197.6611,679.4158L1197.6611,679.4185Q1197.3667,690.9894,1197.0604,692.2398L1197.0596,692.2434L1197.0596,692.2434C1197.0157,692.41156,1196.9974,692.5851,1197.0054,692.75867Q1197.2233,697.58484,1197.1166,699.3057C1197.1107,699.3997,1197.1127,699.49445,1197.1224,699.5913L1197.1143,699.5913Q1197.0841,700.3488,1196.6282,704.2627C1196.6144,704.38153,1196.6128,704.5013,1196.6237,704.6204L1197.0647,709.4718L1197.0527,709.4718Q1196.8755,712.9868,1196.913,719.4801L1196.9095,719.4801Q1196.4335,727.7182,1196.4121,730.96436L1196.4014,730.96436L1195.7268,736.6947L1195.7227,736.6947Q1195.706,736.80524,1195.6981,736.92535L1195.6981,736.92535Q1195.6487,737.6765,1195.9185,740.5811L1195.9065,740.5811Q1195.3992,744.7536,1195.7048,750.1156L1195.6929,750.1156Q1194.8262,753.7404,1194.5258,759.95984C1194.5227,760.0237,1194.5231,760.08746,1194.5271,760.1513Q1194.625,761.7238,1193.868,770.94354L1193.8629,771.035L1193.5042,783.351L1192.6947,796.87256L1192.6932,796.87256Q1191.8988,804.8273,1190.808,811.7342C1190.8007,811.7803,1190.7953,811.82684,1190.7917,811.87335L1190.1824,819.89355L1190.1705,819.89355Q1188.9966,825.337,1188.0723,834.7326L1188.0667,834.8071Q1187.5964,843.35474,1187.2422,845.2217C1187.2222,845.3272,1187.2119,845.4346,1187.2118,845.542Q1187.2065,848.65985,1186.782,852.73193C1186.7708,852.8393,1186.7697,852.9474,1186.7786,853.055Q1186.9636,855.288,1186.9331,861.5738L1186.9354,861.6704L1187.1401,865.69L1187.1382,865.69Q1187.1537,869.4146,1187.1344,869.9462L1187.1284,869.9462L1184.9668,890.31323C1184.9586,890.3908,1184.9554,890.4689,1184.9578,890.5469Q1185.0327,893.1126,1184.3065,903.5671L1184.3032,903.6343L1183.871,917.7763L1183.8707,917.8731L1183.975,921.99976L1183.968,921.99976Q1183.7683,925.1224,1183.8103,926.8628L1183.8103,926.8628L1183.9406,932.3593L1183.9348,932.3593Q1183.8418,933.6836,1183.0217,935.9597C1182.697,936.8608,1183.1644,937.8544,1184.0654,938.179C1184.2595,938.24896,1184.458,938.28217,1184.6532,938.28217C1185.3635,938.28217,1186.0299,937.8423,1186.2847,937.1354Q1187.3203,934.2611,1187.4065,932.3989L1187.4083,932.3187L1187.4083,932.31824L1187.4078,932.27716L1187.2776,926.7799L1187.2776,926.7792Q1187.2383,925.15106,1187.4387,922.0736L1187.4403,922.0454L1187.4406,922.0404L1187.4406,922.0404C1187.4426,921.9977,1187.4431,921.9549,1187.442,921.9121L1187.339,917.8341L1187.7698,903.74023L1187.7711,903.74023Q1188.4767,893.5692,1188.4293,890.66077L1188.4175,890.66077L1190.5771,870.3123L1190.5856,870.3123Q1190.5917,870.24774,1190.5955,870.1805L1190.5953,870.1805Q1190.6234,869.6724,1190.6061,865.5944L1190.6038,865.5136L1190.399,861.494L1190.4019,861.494Q1190.4298,855.4359,1190.2528,853.0002L1190.241,853.0002Q1190.6598,848.95026,1190.6792,845.7723L1190.6672,845.7723Q1191.0557,843.59125,1191.5254,835.0722L1191.5239,835.0722Q1192.4458,825.7008,1193.6025,820.4324C1193.62,820.35315,1193.6318,820.2727,1193.638,820.19183L1194.25,812.13605L1194.2557,812.13605Q1195.3528,805.1599,1196.1512,797.1482L1196.1566,797.07983L1196.9678,783.52924L1196.9702,783.4761L1197.3297,771.1359L1197.332,771.1359Q1198.0646,762.1999,1197.9973,760.1272L1197.9899,760.1272Q1198.2863,753.9898,1199.1299,750.66284C1199.1737,750.4898,1199.1906,750.31116,1199.1799,750.13293Q1198.8604,744.79865,1199.3776,740.77454C1199.3939,740.6476,1199.3961,740.5189,1199.3842,740.3915Q1199.1265,737.64453,1199.1588,737.1532L1199.1588,737.153L1199.1641,737.153C1199.1667,737.13544,1199.1691,737.11786,1199.1711,737.1002L1199.8683,731.1785C1199.8757,731.11487,1199.8798,731.0513,1199.8801,730.9872Q1199.9011,727.81055,1200.3783,719.5704L1200.3812,719.4601Q1200.3431,712.86975,1200.5269,709.4474C1200.5314,709.3641,1200.5298,709.28046,1200.5222,709.1974L1200.099,704.5433L1200.087,704.5433Q1200.5765,700.3311,1200.5846,699.52045L1200.5782,699.52045Q1200.6932,697.66705,1200.4819,692.8694L1200.4698,692.8694Q1200.84,690.8311,1201.1282,679.5068L1201.1282,679.5095L1201.1284,679.5005L1201.1294,679.5005Q1201.2998,676.80524,1201.7761,673.4608L1201.7798,673.4334Q1201.9152,672.361,1201.4535,670.5104C1201.2568,669.72205,1200.5497,669.19556,1199.7723,669.19556 Z"/>
</g>
<g style="fill:rgb(254,254,254); fill-opacity:1.0; stroke-linejoin: miter">
<path d="M1701.387,780.1476L1701.387,780.1476L1701.8317,779.2583C1702.26,778.4017,1703.3015,778.05444,1704.1582,778.4828C1705.0149,778.9111,1705.362,779.9527,1704.9337,780.8093L1704.9337,780.8093L1704.489,781.6986C1704.0608,782.5552,1703.0192,782.9024,1702.1626,782.4741C1701.3059,782.0458,1700.9587,781.00415,1701.387,780.1476 Z"/>
</g>
<g style="fill:rgb(254,254,254); fill-opacity:1.0; stroke-linejoin: miter">
<path d="M1440.1007,716.32745C1439.4421,716.32745,1438.8125,716.7046,1438.5216,717.34296Q1437.6392,719.27966,1437.1792,721.4878L1437.1788,721.4878Q1435.4945,728.7744,1435.0331,732.13995L1435.0331,732.13995Q1434.5895,735.18787,1434.3228,737.8748L1434.3201,737.9035Q1433.5769,746.91296,1433.4518,747.6506L1433.4509,747.6506C1433.4442,747.6838,1433.4384,747.7171,1433.4335,747.7507L1431.8168,758.8886L1431.8137,758.8886Q1431.8055,758.9349,1431.7985,758.9836L1431.7983,758.9845Q1431.6986,759.67523,1431.6467,762.9182L1431.6455,762.9182Q1431.599,763.76575,1431.5101,764.5223L1431.5073,764.5223Q1431.0106,767.35345,1430.8158,769.2399L1430.8049,769.2399Q1430.7067,769.6535,1430.5452,769.97626C1430.1168,770.8328,1430.4637,771.87445,1431.3203,772.30286C1431.5693,772.4274,1431.834,772.4864,1432.0947,772.4864C1432.7307,772.4864,1433.3431,772.1352,1433.647,771.52765Q1434.0308,770.7602,1434.2247,769.8386L1434.2231,769.8386L1434.2412,769.75806C1434.2518,769.70465,1434.2601,769.65027,1434.2657,769.5961Q1434.4513,767.7989,1434.9402,765.0256L1434.9547,764.9268Q1435.0598,764.03217,1435.1123,763.0374L1435.1145,762.97375Q1435.1578,760.2699,1435.2168,759.60754L1435.202,759.60754C1435.2224,759.53503,1435.238,759.4613,1435.2489,759.3868L1436.8656,748.24884L1436.868,748.24884Q1436.8694,748.241,1436.8707,748.2331L1436.8712,748.2308Q1437.021,747.3481,1437.7743,738.21735L1437.7739,738.21735Q1438.0334,735.6023,1438.467,732.6255L1438.4691,732.61115Q1438.9105,729.3922,1440.5663,722.2321L1440.5745,722.19507Q1440.9556,720.3657,1441.6776,718.78094C1442.0747,717.9094,1441.6901,716.88104,1440.8186,716.48395C1440.5854,716.37775,1440.3412,716.32745,1440.1007,716.32745 Z"/>
</g>
<g style="fill:rgb(254,254,254); fill-opacity:1.0; stroke-linejoin: miter">
<path d="M1280.8937,560.9254Q1280.5055,560.9254,1280.089,561.0485L1280.0889,561.0485Q1278.2413,561.5948,1273.8789,565.80347C1273.8018,565.8779,1273.7314,565.95953,1273.6693,566.04694Q1269.1047,572.47015,1266.8708,574.8099L1266.8611,574.8099L1254.8552,585.3886C1254.7883,585.4475,1254.7262,585.51154,1254.6692,585.58L1248.2228,593.3211L1240.1705,600.7349C1239.466,601.3836,1239.4207,602.4806,1240.0693,603.1852C1240.4113,603.5565,1240.8776,603.7447,1241.3455,603.7447C1241.7654,603.7447,1242.1864,603.59314,1242.5197,603.2863L1250.6564,595.7947C1250.7126,595.74286,1250.7654,595.68744,1250.8143,595.62866L1257.2483,587.9026L1269.2716,577.3085C1269.309,577.2755,1269.345,577.24097,1269.3794,577.2049Q1271.7555,574.7163,1276.3749,568.2269L1276.362,568.2269Q1279.9554,564.76697,1281.0187,564.39185L1281.0059,564.39185C1281.8959,564.3478,1282.6189,563.6285,1282.6511,562.7217C1282.6852,561.7646,1281.937,560.96106,1280.9799,560.92694Q1280.9369,560.9254,1280.8937,560.9254 Z"/>
</g>
<g style="fill:rgb(254,254,254); fill-opacity:1.0; stroke-linejoin: miter">
<path d="M1365.43,886.6933L1365.43,886.6933Q1365.43,886.69336,1365.43,886.69336L1365.43,886.6933 Z M1339.1676,690.5384C1338.5732,690.5384,1337.9944,690.8442,1337.6713,691.39355C1337.2501,692.10956,1337.4017,693.00415,1337.9883,693.54596L1337.9749,693.54596Q1338.6213,694.8822,1339.5995,702.0891L1339.5983,702.0891Q1342.5813,732.9427,1347.0149,765.0441L1347.0099,765.0441Q1347.1777,766.8968,1350.7347,781.3919L1350.7242,781.3919Q1352.3712,793.82196,1355.295,807.1477L1355.2931,807.1477Q1356.2491,812.76733,1356.8112,819.7077C1356.8198,819.8144,1356.8383,819.91986,1356.8663,820.02313Q1357.7228,823.1701,1357.8054,824.12286L1357.8102,824.17L1359.3115,837.3047C1359.3192,837.37146,1359.3307,837.43774,1359.3461,837.50323Q1361.3529,846.07086,1361.6046,848.0537L1361.6049,848.05566L1364.5939,871.387C1364.6022,871.4519,1364.6141,871.51624,1364.63,871.5809L1364.6299,871.5809Q1364.8135,872.4544,1364.8145,878.38007C1364.8145,878.481,1364.8234,878.58203,1364.841,878.68146Q1365.5455,882.66943,1365.5961,883.5326L1365.5824,883.5326C1365.5125,883.5434,1365.4424,883.5586,1365.3724,883.57837C1364.4509,883.83905,1363.9152,884.7975,1364.1759,885.719Q1364.6637,887.4434,1365.0847,888.149L1365.0848,888.1491Q1365.7439,889.2534,1366.8503,889.25507L1366.8499,889.25507Q1366.8522,889.25507,1366.8544,889.25507Q1368.2764,889.25507,1368.7484,887.7016L1368.7484,887.70154Q1369.0609,886.67303,1369.0676,883.73035L1369.0671,883.73035Q1369.0682,883.68945,1369.0682,883.64526L1369.0682,883.644Q1369.0675,882.6946,1368.2964,878.30597L1368.2827,878.30597Q1368.2803,872.30493,1368.0388,870.94635L1368.034,870.94635L1365.045,847.615L1365.045,847.615Q1364.7733,845.47754,1362.7693,836.91077L1362.7573,836.91077L1361.256,823.77606L1361.2565,823.77606Q1361.1382,822.5408,1360.2744,819.3398L1360.2607,819.3398Q1359.6833,812.24774,1358.6982,806.48395L1358.6827,806.4044Q1355.7684,793.1219,1354.1381,780.752C1354.1298,780.689,1354.118,780.6271,1354.1029,780.56537Q1350.5842,766.22723,1350.4674,764.7778L1350.4666,764.7778C1350.4653,764.70807,1350.46,764.6387,1350.4504,764.56964Q1346.0221,732.5057,1343.044,701.6891L1343.0363,701.6227Q1341.917,693.3756,1340.8947,691.6587L1340.8945,691.6585Q1340.5453,691.07214,1340.0453,690.7781L1340.0452,690.7781C1339.769,690.61566,1339.4663,690.5384,1339.1676,690.5384 Z"/>
</g>
<g style="fill:rgb(254,254,254); fill-opacity:1.0; stroke-linejoin: miter">
<path d="M1332.5703,943.3108Q1332.0543,943.3108,1331.3934,943.4676L1331.3933,943.4676C1331.3518,943.4774,1331.3108,943.48883,1331.2701,943.5017L1327.1885,944.79443L1327.1885,944.79443L1312.2557,948.0988C1312.2047,948.1101,1312.1537,948.1238,1312.1039,948.13965Q1308.4241,949.31213,1298.7738,953.453L1298.7607,953.453Q1293.8711,954.63245,1292.2766,955.3429L1292.213,955.3728L1287.8226,957.5463L1287.8097,957.5463Q1284.932,958.60016,1278.3922,960.42883L1278.3785,960.43274L1278.3785,960.43274C1278.115,960.5076,1277.8729,960.6439,1277.6722,960.8305L1277.6722,960.8305Q1276.3901,961.97345,1264.562,966.2572L1264.5493,966.2572L1257.4766,968.2293C1257.3959,968.2518,1257.3169,968.28015,1257.2404,968.314L1245.9803,973.29785L1245.9679,973.29785Q1240.9865,974.72003,1239.3402,975.41077L1239.33,975.41077Q1236.8488,976.28357,1231.7833,978.8469L1231.7833,978.8469C1231.71,978.8376,1231.636,978.8329,1231.562,978.8329C1231.1774,978.8329,1230.7903,978.9602,1230.4685,979.22186Q1230.2875,979.36914,1230.1592,979.492L1230.159,979.4921Q1228.8572,980.7389,1229.8987,982.0162L1229.8987,982.0162Q1230.4359,982.6753,1231.234,982.6753Q1231.5735,982.6753,1231.9601,982.556L1231.9602,982.556Q1232.2487,982.4671,1232.7075,982.26465L1232.7955,982.22284Q1238.1956,979.4684,1240.5753,978.6496L1240.682,978.6089Q1242.1608,977.9884,1247.0693,976.5903C1247.1466,976.56824,1247.2227,976.5407,1247.2961,976.5082L1258.529,971.5364L1258.529,971.5364L1265.5989,969.56506C1265.6409,969.55334,1265.6826,969.54004,1265.7236,969.52515Q1277.209,965.366,1279.6339,963.6863L1279.6211,963.6863Q1286.2233,961.8344,1289.1501,960.7485C1289.2069,960.7274,1289.2622,960.7036,1289.3164,960.67676L1293.7518,958.48096L1293.7567,958.48096Q1295.1368,957.88965,1299.7439,956.7837C1299.8395,956.76074,1299.933,956.7297,1300.0233,956.6909Q1309.4785,952.6313,1313.0549,951.4769L1313.0417,951.4769L1328.0131,948.164C1328.0632,948.1529,1328.1129,948.1395,1328.162,948.124L1331.377,947.1058L1331.3903,947.1058C1331.5438,947.4131,1331.7899,947.678,1332.1147,947.8541C1332.3773,947.9965,1332.6605,948.0641,1332.9397,948.0641C1333.5554,948.0641,1334.1516,947.7354,1334.4657,947.15607Q1334.6934,946.7362,1334.8116,946.3619L1334.8116,946.36194Q1335.0424,945.63214,1334.8894,944.987L1334.8893,944.98663Q1334.4943,943.3218,1332.5898,943.31085L1332.59,943.31085Q1332.5802,943.3108,1332.5703,943.3108 Z"/>
</g>
<g style="fill:rgb(254,254,254); fill-opacity:1.0; stroke-linejoin: miter">
<path d="M1047.5385,993.9502C1046.9023,993.9502,1046.29,994.30145,1045.9862,994.909Q1045.4047,996.0718,1045.2214,997.6598C1045.2153,997.7127,1045.2117,997.7657,1045.2104,997.8189Q1044.9366,1009.80524,1043.9431,1015.2259L1043.9429,1015.2259L1040.8441,1030.6918L1040.8107,1031.0288L1040.828,1030.8307L1040.8176,1030.8307Q1040.6216,1031.771,1039.3798,1035.603C1039.3535,1035.6842,1039.3331,1035.7672,1039.3191,1035.8514Q1038.7008,1039.5461,1038.4894,1040.1321L1038.489,1040.1321L1038.488,1040.1345Q1035.4302,1047.7587,1034.964,1050.2625L1034.9536,1050.2625L1031.3104,1057.6089C1030.8849,1058.4669,1031.2356,1059.5073,1032.0936,1059.9329C1032.3412,1060.0557,1032.6039,1060.1138,1032.8627,1060.1138C1033.5009,1060.1138,1034.1149,1059.7601,1034.4176,1059.1497L1038.1901,1051.5425C1038.2714,1051.3787,1038.326,1051.2031,1038.3524,1051.0221Q1038.634,1049.0894,1041.6969,1041.4507L1041.6967,1041.4507Q1041.7251,1041.3828,1041.7511,1041.311L1041.7516,1041.3096Q1042.0619,1040.45,1042.7073,1036.6173L1042.6968,1036.6173Q1044.0421,1032.4628,1044.2451,1031.3732L1044.2448,1031.3732L1047.3491,1015.8792L1047.3545,1015.85114Q1048.3907,1010.1967,1048.6741,998.05725L1048.6667,998.05725Q1048.7799,997.0764,1049.088,996.4604C1049.5164,995.6038,1049.1693,994.56213,1048.3127,994.1337C1048.0637,994.0092,1047.7991,993.9502,1047.5385,993.9502 Z"/>
</g>
<g style="fill:rgb(254,254,254); fill-opacity:1.0; stroke-linejoin: miter">
<path d="M1106.2218,963.82043C1106.1698,964.2959,1106.3169,964.7786,1106.6351,965.14545L1106.6351,965.14545Q1106.0656,964.6539,1106.2107,963.82043 Z M1095.0592,956.8227C1094.9199,956.8227,1094.7783,956.8396,1094.6371,956.87494C1093.708,957.10736,1093.1433,958.04895,1093.3757,958.97784Q1093.544,959.6506,1093.9995,960.2106L1093.9996,960.2107Q1094.6075,960.9578,1095.7041,961.4544C1095.7654,961.4822,1095.8285,961.50635,1095.8926,961.5268Q1105.2677,964.51666,1106.7443,965.24945L1106.7332,965.24945C1106.7998,965.3146,1106.8726,965.375,1106.9512,965.43005Q1117.7418,972.9851,1119.955,973.8812L1119.9572,973.88214Q1127.6024,976.9653,1135.5552,979.28644L1135.5438,979.28644L1144.7483,983.89606C1144.9976,984.0209,1145.2625,984.08,1145.5234,984.08C1146.1592,984.08,1146.7712,983.7291,1147.0753,983.122C1147.5042,982.2657,1147.1576,981.2238,1146.3013,980.795L1136.9404,976.10706C1136.8468,976.0602,1136.749,976.0218,1136.6486,975.99255Q1128.7991,973.70807,1121.2566,970.6665L1121.2565,970.6665Q1119.4395,969.93085,1109.2877,962.83203L1109.2766,962.83203Q1109.0369,962.56885,1108.663,962.3467L1108.6627,962.34656Q1107.2638,961.51556,1097.0846,958.2667L1097.0736,958.2667Q1096.8331,958.15314,1096.7316,958.0643L1096.7206,958.0643C1096.4995,957.31665,1095.8121,956.8227,1095.0592,956.8227 Z"/>
</g>
<g style="fill:rgb(254,254,254); fill-opacity:1.0; stroke-linejoin: miter">
<path d="M988.77124,757.2833C988.26715,757.38116,987.84607,757.695,987.6009,758.1199L987.6009,758.1199Q987.8877,757.42596,988.76135,757.2833 Z M1035.7587,758.3339Q1035.7736,758.3339,1035.7886,758.3341L1035.7782,758.3341C1035.0342,758.3342,1034.3918,758.80554,1034.1486,759.47614L1034.1461,759.47614Q1034.4012,758.3339,1035.7587,758.3339 Z M999.66754,758.03595C998.9633,758.2721,998.4858,758.93414,998.4858,759.6787L998.47626,759.6787Q998.3587,758.42194,999.6576,758.03595 Z M987.76337,760.0859C987.97174,760.3393,988.2501,760.5318,988.56726,760.635L988.56726,760.635Q988.0299,760.49335,987.7535,760.0859 Z M998.7259,760.5604L998.7259,760.5604C998.9596,760.9565,999.3463,761.2516,999.8069,761.36414L999.80457,761.36414Q999.0507,761.22815,998.7157,760.5604 Z M1034.2112,760.81L1034.2112,760.81C1034.4121,761.23395,1034.7814,761.56805,1035.2426,761.7175L1035.2426,761.7175Q1034.4496,761.5107,1034.2008,760.81 Z M1045.204,763.5181C1044.9589,763.7607,1044.7986,764.06433,1044.7297,764.3866L1044.7297,764.3866Q1044.7473,763.92224,1045.1935,763.5181 Z M1045.1171,765.3605L1045.1171,765.36053Q1045.1171,765.36053,1045.117,765.3605 Z M977.71515,756.4863Q977.5836,756.4863,977.45886,756.49896L977.4491,756.49896Q976.32245,756.55786,975.08154,757.09467C975.0428,757.11145,975.00464,757.12964,974.9672,757.1492L970.99713,759.22284C970.9774,759.23315,970.9579,759.24384,970.9386,759.2549L970.9289,759.2549Q970.46906,759.4331,968.55444,760.0037L968.52325,760.01337Q968.4482,760.0373,968.37006,760.06683L968.3702,760.06683Q967.75824,760.2981,966.23413,761.213L966.2245,761.213Q963.6947,761.9625,962.7064,762.6769C961.93024,763.2379,961.7558,764.3219,962.31683,765.0981C962.6559,765.5672,963.186,765.81647,963.7237,765.81647C964.0757,765.81647,964.43097,765.70966,964.73804,765.4877Q965.283,765.09375,967.4268,764.47485C967.57336,764.43256,967.7136,764.3711,967.84406,764.2921Q969.1708,763.4888,969.5552,763.32745L969.54504,763.32745Q971.84247,762.6427,972.39154,762.40265Q972.5061,762.3526,972.607,762.29694L972.60284,762.29694L976.46857,760.2778L976.4586,760.2778Q977.1503,759.9785,977.6642,759.961C977.677,759.9606,977.6898,759.95996,977.70264,759.9593L977.71246,759.9593Q978.09985,760.0259,979.2058,760.506L979.34796,760.5604L979.3481,760.5604C979.35425,760.5625,979.3604,760.5645,979.3666,760.56647Q979.4225,760.5844,979.48145,760.60095L979.48285,760.6014Q979.97076,760.7378,980.927,760.8284L980.9901,760.83325Q981.64435,760.8713,982.0985,760.8713Q982.33057,760.8713,982.5104,760.8613L982.50055,760.8613L982.4239,760.8635L982.54486,760.85925Q984.52484,760.71844,985.37573,760.7085L985.3679,760.7085Q987.0981,760.702,988.03064,760.702Q988.6124,760.702,988.8838,760.7045L988.8739,760.7045C988.94867,760.7145,989.02484,760.71954,989.1021,760.71954C989.11993,760.71954,989.1378,760.7193,989.15576,760.71875L989.16565,760.71875Q989.7763,760.7384,993.9607,761.28925L993.982,761.29193Q993.9982,761.2939,994.0061,761.29474L994.0065,761.29474Q994.3037,761.32794,995.2197,761.36426L995.21924,761.36426L995.2237,761.36444L995.2979,761.36584Q996.1395,761.36414,996.8332,761.36414Q999.3586,761.36414,999.92255,761.38654L999.91254,761.38654C999.9576,761.3946,1000.0032,761.40094,1000.0494,761.4055L1005.50714,761.9449C1005.5588,761.95,1005.6103,761.9527,1005.6622,761.9532Q1005.7084,761.9536,1005.75476,761.9536Q1006.4419,761.9536,1007.16644,761.863L1007.28735,761.8435Q1009.0163,761.5019,1009.59436,761.5019Q1009.6286,761.5019,1009.6588,761.5031C1009.68176,761.504,1009.7048,761.50446,1009.7277,761.50446C1009.77985,761.50446,1009.8319,761.50214,1009.8838,761.49744L1009.8737,761.49744Q1009.89044,761.4971,1009.91003,761.4971Q1010.4497,761.4971,1013.12976,761.78033L1013.2441,761.78864Q1013.90186,761.8144,1014.37585,761.8144Q1014.77563,761.8144,1015.0446,761.7961L1015.0392,761.7961Q1015.7807,761.75934,1016.5655,761.64984L1016.6487,761.63617Q1019.083,761.1748,1020.25726,761.093L1020.2568,761.093L1025.0111,760.77466L1025.0009,760.77466Q1025.4512,760.7613,1025.8076,760.7613Q1026.4285,760.7613,1026.7648,760.80176L1026.787,760.8031L1026.7767,760.8031C1026.8186,760.80786,1026.8604,760.81104,1026.9026,760.81274Q1027.4319,760.8341,1030.8732,761.37286L1030.8732,761.37286L1030.8789,761.3738C1030.9216,761.3805,1030.9645,761.38556,1031.0076,761.38904Q1034.6992,761.6874,1035.4124,761.7609L1035.4021,761.7609C1035.4457,761.7706,1035.4899,761.7786,1035.5348,761.78503Q1037.1831,762.0193,1038.2648,762.32434L1038.2544,762.32434Q1043.341,764.19403,1044.7318,765.0723L1044.7214,765.0723C1044.7673,765.3158,1044.8666,765.55316,1045.0216,765.7671C1045.3608,766.235,1045.8901,766.4835,1046.427,766.4835C1046.7798,766.4835,1047.1359,766.3762,1047.4432,766.1533Q1049.0988,764.9533,1047.8683,763.2559L1047.8682,763.25586Q1047.7274,763.06177,1047.5382,762.87726L1047.5382,762.8773Q1046.1552,761.52875,1039.3528,759.0331C1039.312,759.0181,1039.2706,759.0047,1039.2289,758.99286Q1038.0175,758.64905,1036.3105,758.3933L1036.3002,758.3933Q1036.1588,758.3589,1036.0016,758.3379L1036.0007,758.33777Q1035.5327,758.2756,1031.374,757.93915L1031.3636,757.93915Q1027.9932,757.412,1027.1448,757.3532L1027.1345,757.3532Q1026.6074,757.2938,1025.7781,757.2938Q1025.3679,757.2938,1024.884,757.30835L1024.8201,757.31146L1020.0251,757.63257L1020.02106,757.6328Q1018.64685,757.728,1016.0197,758.2254L1016.0096,758.2254Q1015.419,758.3048,1014.8677,758.3321L1014.8216,758.335Q1014.6613,758.3472,1014.3853,758.3472Q1014.01996,758.3472,1013.452,758.3258L1013.4419,758.3258Q1010.63275,758.0297,1009.85706,758.0297Q1009.80927,758.0297,1009.7692,758.0308L1009.7688,758.0308Q1009.72095,758.03217,1009.6756,758.03485L1009.6756,758.03485Q1009.6575,758.03467,1009.63904,758.03467Q1008.6831,758.03467,1006.6634,758.4315L1006.6533,758.4315Q1006.1937,758.4847,1005.76685,758.4854L1005.76685,758.4854L1000.6123,757.976L1000.6023,757.976Q1000.45166,757.94586,1000.2848,757.9334L1000.2843,757.9334Q999.78424,757.89624,996.63745,757.89624Q996.0316,757.89624,995.32776,757.89764L995.32776,757.89764Q994.611,757.869,994.4181,757.85077L994.4133,757.85077Q990.65216,757.3556,989.532,757.2687L989.5221,757.2687Q989.37946,757.2486,989.2223,757.2425L989.2216,757.2425Q989.01086,757.2344,987.9072,757.2344Q986.95996,757.2344,985.355,757.24036L985.34186,757.2404Q984.3888,757.2512,982.2989,757.3998L982.29266,757.3998Q982.20557,757.40375,982.0901,757.40375Q981.77466,757.40375,981.24713,757.374L981.2373,757.374Q980.70776,757.3234,980.49005,757.27856L980.4802,757.27856Q978.90985,756.6056,978.06555,756.5074L978.0657,756.5074Q977.8848,756.4863,977.71515,756.4863 Z"/>
</g>
<g style="fill:rgb(254,254,254); fill-opacity:1.0; stroke-linejoin: miter">
<path d="M1150.0072,618.9072C1149.2554,619.7539,1148.3883,620.4701,1147.441,621.04175L1147.4525,621.04175L1147.7866,621.0638L1147.7866,621.0638Q1148.9387,620.1874,1150.0187,618.9072 Z"/>
</g>
<g style="fill:rgb(254,254,254); fill-opacity:1.0; stroke-linejoin: miter">
<path d="M1366.0659,654.07806C1365.6832,654.07806,1365.2981,654.2041,1364.9773,654.46326Q1363.0408,656.0275,1364.6105,658.017L1364.6105,658.017Q1364.625,658.03546,1364.6384,658.052L1364.6383,658.052Q1365.2715,658.8334,1366.7054,659.6173L1366.6918,659.6173Q1366.8755,659.7511,1367.1008,659.8597L1367.1012,659.85986Q1367.9446,660.266,1370.8776,660.922L1370.8639,660.922Q1374.0231,663.3145,1379.2882,665.0321L1379.3256,665.04376Q1385.0837,666.77954,1387.6882,667.9501C1387.7948,667.998,1387.9059,668.035,1388.0199,668.0605L1401.7656,671.14L1408.5446,673.40094L1419.4066,677.6514C1419.4595,677.6721,1419.5133,677.6902,1419.5679,677.70557L1427.9425,680.0674L1427.9282,680.0674Q1428.5468,680.30396,1428.833,680.49603L1428.8187,680.49603C1428.7245,681.24396,1429.1293,681.99426,1429.8567,682.306C1430.0795,682.4015,1430.311,682.44666,1430.539,682.44666C1431.2117,682.44666,1431.8518,682.0528,1432.1337,681.39526Q1432.1641,681.3245,1432.1898,681.25507L1432.1897,681.25507Q1432.7644,679.709,1431.6602,678.4065L1431.6603,678.4065Q1430.8529,677.45416,1429.032,676.7771C1428.988,676.76074,1428.9435,676.74615,1428.8983,676.73346L1420.5913,674.3907L1409.7672,670.155L1409.684,670.1249L1402.7797,667.82214C1402.724,667.8036,1402.6674,667.78784,1402.6101,667.775L1388.9747,664.7202L1388.9608,664.7202Q1386.1537,663.4811,1380.3652,661.73486L1380.3639,661.73486Q1375.4138,660.12006,1372.6947,657.9529C1372.4872,657.7875,1372.2445,657.67194,1371.9854,657.6151Q1369.4033,657.0488,1368.7262,656.7863L1368.7124,656.7863C1368.6351,656.7263,1368.5526,656.6727,1368.4657,656.62634Q1368.0406,656.3995,1367.7661,656.2199L1367.7524,656.2199C1367.8745,655.7139,1367.7682,655.1588,1367.4159,654.7226C1367.0732,654.2984,1366.5718,654.07806,1366.0659,654.07806 Z"/>
</g>
<g style="fill:rgb(254,254,254); fill-opacity:1.0; stroke-linejoin: miter">
<path d="M1386.5223,979.49945C1386.4135,979.49945,1386.303,979.50977,1386.1921,979.5311C1385.2517,979.7124,1384.6364,980.6217,1384.8176,981.56213L1387.6488,996.2477L1387.6486,996.2477Q1387.9913,998.21893,1388.4017,1003.71716C1388.4053,1003.76385,1388.4105,1003.8099,1388.4177,1003.85614L1389.303,1009.51434L1389.3008,1009.51434Q1390.1602,1017.6823,1391.0966,1023.3146L1391.0955,1023.3146Q1391.3822,1025.5208,1391.6715,1029.1222C1391.6761,1029.1799,1391.6836,1029.2373,1391.694,1029.2943Q1392.4053,1033.1968,1392.6019,1036.5731C1392.6082,1036.6791,1392.6241,1036.7845,1392.6495,1036.8876Q1393.66,1040.9851,1394.4187,1047.0051C1394.428,1047.0784,1394.4418,1047.1506,1394.4602,1047.2222Q1394.985,1049.253,1395.0299,1049.6453L1395.0275,1049.6453C1395.0281,1049.6577,1395.0288,1049.6703,1395.0297,1049.6827Q1395.1685,1051.6459,1395.6519,1054.5853L1395.6378,1054.5853Q1395.6761,1059.4275,1395.7389,1060.0934L1395.7389,1060.0934Q1395.7528,1060.2412,1395.7792,1060.3759L1395.7651,1060.3759Q1395.8617,1061.8236,1396.2983,1064.6746L1396.2974,1064.6746Q1396.3347,1065.0105,1396.3472,1065.745C1396.3633,1066.6926,1397.1362,1067.4498,1398.0803,1067.4498C1398.0903,1067.4498,1398.1003,1067.4497,1398.1104,1067.4496C1399.068,1067.4333,1399.8312,1066.644,1399.815,1065.6864Q1399.7985,1064.7125,1399.7328,1064.1941L1399.7266,1064.1494Q1399.2733,1061.1901,1399.2135,1059.9325C1399.175,1059.1229,1398.5825,1058.4547,1397.7972,1058.3097L1397.8112,1058.3097Q1399.0209,1058.5013,1399.1799,1059.6649L1399.1844,1059.6649Q1399.1387,1058.8722,1399.1041,1054.334C1399.1034,1054.244,1399.0958,1054.1538,1399.0812,1054.0651Q1398.6423,1051.4033,1398.5038,1049.6349L1398.492,1049.6349Q1398.4995,1049.459,1398.4755,1049.25L1398.4755,1049.25Q1398.4065,1048.6492,1397.874,1046.5715L1397.8596,1046.5715Q1397.0968,1040.5182,1396.0734,1036.2891L1396.0594,1036.2891Q1395.8512,1032.8114,1395.1372,1028.8446L1395.1285,1028.8446Q1394.8285,1025.1085,1394.5265,1022.8048L1394.5177,1022.7457Q1393.5936,1017.1876,1392.7408,1009.0652L1392.7295,1008.9782L1391.8442,1003.32L1391.8499,1003.32Q1391.4294,997.72253,1391.0594,995.6191L1391.0543,995.5912L1388.2231,980.90564C1388.0632,980.07605,1387.3368,979.49945,1386.5223,979.49945 Z"/>
</g>
<g style="fill:rgb(254,254,254); fill-opacity:1.0; stroke-linejoin: miter">
<path d="M1420.5187,854.91693Q1420.3335,854.9827,1420.1234,854.9827Q1419.9519,854.9827,1419.7637,854.93884L1419.778,854.93884C1419.8811,854.9577,1419.9855,854.96704,1420.0895,854.96704C1420.2294,854.96704,1420.3688,854.95013,1420.5044,854.91693 Z M1419.9702,851.4543Q1419.1456,851.4543,1418.4291,852.26416L1418.4291,852.26416Q1417.2842,853.55804,1414.364,860.5905C1414.3373,860.65485,1414.3146,860.7207,1414.2958,860.7878Q1413.0736,865.15063,1411.2676,870.3895L1411.2676,870.3895L1411.2659,870.3943C1411.2505,870.43884,1411.237,870.4838,1411.2253,870.5295Q1410.127,874.82104,1407.8921,885.34515L1407.8832,885.39087L1407.883,885.39087L1407.8816,885.3987Q1407.7708,885.97736,1406.569,888.6471L1406.569,888.6471L1406.5681,888.6489L1406.5673,888.6508C1406.5195,888.7567,1406.4828,888.86707,1406.4572,888.98035Q1405.9733,891.12103,1405.7996,891.53156L1405.8003,891.53156L1405.7864,891.5961L1405.7723,891.5961C1405.7631,891.6195,1405.7542,891.64307,1405.7458,891.66693L1405.7458,891.66693Q1405.6163,892.02515,1404.5625,894.2629L1404.5464,894.29816Q1404.5018,894.3987,1404.4626,894.50653L1404.4626,894.50653Q1404.1753,895.2978,1404.129,896.75244L1404.129,896.75244L1404.129,896.7525L1404.129,896.7525C1404.0985,897.7097,1404.8499,898.5104,1405.8071,898.54083C1405.8259,898.54144,1405.8446,898.54175,1405.8633,898.54175C1406.7955,898.54175,1407.5657,897.8012,1407.5956,896.86273Q1407.6218,896.0363,1407.7064,895.7404L1407.7002,895.7404Q1408.7814,893.4444,1408.9937,892.88324L1408.9934,892.88324Q1409.2736,892.2213,1409.7866,889.97955L1409.7726,889.97955Q1411.0933,887.0373,1411.285,886.0656L1411.2847,886.0656Q1413.471,875.76996,1414.5519,871.5199L1414.5464,871.5199Q1416.3451,866.3025,1417.58,861.9206L1417.5671,861.9206Q1419.9875,856.09186,1420.8489,854.7997L1420.8346,854.7997C1421.0801,854.6834,1421.3018,854.50757,1421.4764,854.2755C1422.0524,853.51025,1421.8988,852.42303,1421.1335,851.84717Q1420.9465,851.7065,1420.7308,851.6169L1420.731,851.6169Q1420.3397,851.4543,1419.9702,851.4543 Z"/>
</g>
<g style="fill:rgb(254,254,254); fill-opacity:1.0; stroke-linejoin: miter">
<path d="M1462.5527,832.6014C1462.1832,832.6014,1461.8108,832.719,1461.4955,832.96204C1460.7369,833.54663,1460.5958,834.6355,1461.1884,835.4043L1461.1884,835.4043Q1471.9319,849.3457,1472.6204,850.66785L1472.6168,850.66785C1472.6359,850.7121,1472.6567,850.75555,1472.6794,850.79803Q1491.3263,885.7458,1504.0771,902.66486L1504.0621,902.66486Q1506.0636,906.4975,1516.3488,916.0651L1516.3336,916.0651Q1522.6229,923.89813,1523.1686,924.7581L1523.1534,924.7581Q1525.201,929.93195,1534.8667,943.0508L1534.8513,943.0508Q1538.4436,950.52075,1540.0295,952.7398L1540.0142,952.7398C1540.0721,952.9803,1540.1827,953.21216,1540.3479,953.41785Q1540.7024,953.8593,1540.9177,954.07477L1540.9177,954.07477Q1541.5542,954.7119,1542.2451,954.7119Q1542.6633,954.7119,1543.1014,954.4784L1543.1027,954.4778Q1544.5226,953.7195,1543.85,952.10986L1543.85,952.10986Q1543.7567,951.88666,1543.5713,951.5396L1543.5713,951.5396C1543.4342,951.28296,1543.2358,951.067,1542.9963,950.9092L1542.981,950.9092Q1541.943,949.8115,1537.8784,941.3428C1537.8314,941.2449,1537.7754,941.15155,1537.7109,941.06415Q1528.0773,927.9951,1526.3153,923.3193C1526.2957,923.26715,1526.2733,923.2154,1526.2488,923.1654Q1526.1996,923.06537,1526.1299,922.9524L1526.1292,922.95123Q1525.5188,921.96375,1518.914,913.7394C1518.8615,913.674,1518.8042,913.61237,1518.7428,913.5553Q1508.5938,904.1174,1507.076,900.93915C1507.026,900.8343,1506.9655,900.7346,1506.8955,900.6419Q1494.3171,883.97144,1475.8059,849.29034L1475.8014,849.29034Q1475.7566,849.1813,1475.6965,849.06604L1475.6965,849.06604Q1474.8663,847.4717,1463.9319,833.28265L1463.924,833.27246L1463.9196,833.26685L1463.9196,833.26685C1463.578,832.8302,1463.0681,832.6014,1462.5527,832.6014 Z"/>
</g>
<g style="fill:rgb(254,254,254); fill-opacity:1.0; stroke-linejoin: miter">
<path d="M1320.6675,481.365C1320.0181,481.55087,1319.5276,482.10416,1319.4297,482.78247L1319.4266,482.78247Q1319.537,481.63016,1320.6543,481.365 Z M1321.2917,481.2912Q1322.6495,481.2912,1322.8619,482.78247L1322.8619,482.78247C1322.7378,481.92795,1322.0042,481.29797,1321.1472,481.29797C1321.1287,481.29797,1321.1101,481.29828,1321.0914,481.29886L1321.0914,481.29886Q1321.1946,481.2912,1321.2917,481.2912 Z M1323.3792,447.98663C1322.5468,447.98663,1321.812,448.5878,1321.6707,449.43604Q1321.5133,450.38013,1321.4087,451.42578L1321.4054,451.46292L1321.0104,456.50217L1321.0098,456.50217Q1320.4545,461.76227,1320.4266,462.30463L1320.4247,462.30463Q1320.2382,464.2434,1319.4983,475.15848L1319.4983,475.15848Q1319.497,475.17764,1319.4949,475.20898L1319.4937,475.231Q1319.4342,476.34174,1319.4255,477.5508L1319.4254,477.56454Q1319.4291,482.5761,1319.4164,482.94138L1319.4141,482.94138C1319.4131,482.96182,1319.4124,482.98236,1319.412,483.003Q1319.3906,484.27576,1319.2399,486.7476L1319.2397,486.7476L1319.2372,486.79782Q1319.2089,487.54373,1319.203,488.266L1319.203,488.266Q1319.1764,490.17044,1319.4475,491.80167C1319.5885,492.65018,1320.3235,493.2517,1321.1561,493.2517C1321.2506,493.2517,1321.3463,493.24396,1321.4425,493.22797C1322.3872,493.07095,1323.0259,492.17776,1322.8689,491.233Q1322.6478,489.90323,1322.6709,488.30493L1322.671,488.29395Q1322.6763,487.63605,1322.7017,486.9587L1322.7015,486.9587Q1322.857,484.40942,1322.8798,483.06393L1322.8824,483.06393L1322.8824,483.0616Q1322.8973,482.63235,1322.8937,477.57578L1322.8936,477.57578Q1322.9015,476.47635,1322.9539,475.4709L1322.9534,475.4709Q1322.9534,475.4709,1322.9586,475.39304L1322.9585,475.39304Q1323.7114,464.28616,1323.8839,462.56644L1323.8903,462.48206Q1323.9133,462.0306,1324.4636,456.8198L1324.4679,456.77322L1324.8629,451.73398L1324.8634,451.73398Q1324.9556,450.8239,1325.0918,450.0061C1325.2493,449.06137,1324.611,448.1679,1323.6663,448.0105C1323.5698,447.99442,1323.4739,447.98663,1323.3792,447.98663 Z"/>
</g>
<g style="fill:rgb(254,254,254); fill-opacity:1.0; stroke-linejoin: miter">
<path d="M1575.507,449.9038C1575.0884,449.9038,1574.6687,450.0544,1574.3358,450.35947Q1572.5533,451.99292,1570.7466,453.964L1570.6736,454.04904Q1565.9918,459.871,1563.1786,462.58386C1563.1288,462.6319,1563.082,462.68274,1563.0383,462.73636Q1561.7301,464.34088,1556.0745,468.59256C1556.0281,468.62747,1555.9834,468.66467,1555.9407,468.70407L1551.2748,473.00836L1551.2728,473.00836Q1549.9756,474.13483,1546.963,478.28583L1546.9475,478.28583Q1546.2678,478.99094,1545.8556,479.40842L1545.8402,479.40842C1545.6309,479.5125,1545.4392,479.66092,1545.2802,479.85223Q1545.0774,480.09598,1544.975,480.2361L1544.975,480.23618Q1543.9534,481.63394,1545.2201,482.68213L1545.22,482.68213Q1545.7655,483.1337,1546.3217,483.1337Q1546.9246,483.1337,1547.5402,482.60297L1547.5405,482.60266Q1547.9286,482.26794,1549.5923,480.53955C1549.648,480.48178,1549.6996,480.41995,1549.7467,480.35504Q1552.6022,476.41785,1553.564,475.61243L1553.6263,475.55756L1558.2922,471.25327L1558.3066,471.25327Q1563.9425,467.00772,1565.5985,465.08038L1565.586,465.08038Q1568.5354,462.23615,1573.3077,456.3075L1573.3032,456.3075Q1575.0074,454.4483,1576.6791,452.9164C1577.3851,452.26935,1577.433,451.1724,1576.7859,450.4663C1576.4438,450.0931,1575.9762,449.9038,1575.507,449.9038 Z"/>
</g>
<g style="fill:rgb(254,254,254); fill-opacity:1.0; stroke-linejoin: miter">
<path d="M1572.238,591.9143C1571.8326,591.9143,1571.4254,592.05566,1571.0964,592.3437L1561.9194,600.37823C1561.8162,600.4686,1561.7239,600.5711,1561.6448,600.6832Q1554.701,610.5251,1553.421,611.4464L1553.4185,611.4464C1553.2804,611.53064,1553.1547,611.63385,1553.045,611.75305Q1547.999,617.24036,1539.3936,623.8101C1539.3058,623.87714,1539.2246,623.9524,1539.1511,624.03485Q1519.969,645.56274,1516.0376,647.7549C1515.8533,647.85767,1515.6893,647.9932,1515.5537,648.15485L1506.6661,658.7469L1506.6649,658.7469Q1505.9016,659.6109,1504.7412,661.70416C1504.2769,662.5418,1504.5793,663.5972,1505.417,664.0616C1505.6833,664.2092,1505.9718,664.27936,1506.2562,664.27936C1506.8661,664.27936,1507.4578,663.957,1507.7744,663.3857Q1508.7748,661.58124,1509.2777,661.0279L1509.3229,660.97614L1518.0059,650.62787L1517.9907,650.62787Q1522.7062,647.6951,1541.5972,626.50287L1541.5818,626.50287Q1550.2467,619.8798,1555.4497,614.26135L1555.4469,614.26135Q1557.1824,613.0124,1564.3342,602.8874L1564.3185,602.8874L1573.3811,594.95306C1574.1017,594.3222,1574.1743,593.2267,1573.5435,592.5061C1573.2007,592.1145,1572.7206,591.9143,1572.238,591.9143 Z"/>
</g>
</g>
</svg>