<?xml version="1.0" encoding="UTF-8" standalone="yes"?>
<svg xmlns="http://www.w3.org/2000/svg" xmlns:xlink="http://www.w3.org/1999/xlink" width="384.222pt" height="449.543pt" version="1.1" viewBox="-270.530 441.167 384.222 449.543">
  <!--
	Exported with Concepts: Smarter Sketching
	Version: 2024.11 on Android 13
	https://concepts.app/
	-->
  <title>Hamming Distance</title>
  <desc>Drawing exported from Concepts: Smarter Sketching</desc>
  <defs></defs>
  <g id="Pen" opacity="1.000">
    <path id="STROKE_c5f0314a-48e7-4c21-9a35-e7b1fa999f95" opacity="1.000" fill="none" stroke="#ffffff" stroke-width="1.600" stroke-opacity="1.000" stroke-linecap="round" stroke-linejoin="round" d="M -264.264 630.426 Q -264.481 631.570 -263.790 627.111 Q -263.664 626.905 -263.398 632.654 Q -263.133 638.403 -262.755 643.478 Q -262.378 648.554 -261.826 660.287 Q -261.274 672.019 -261.185 678.089 Q -261.097 684.158 -260.961 688.009 Q -260.826 691.859 -260.923 695.012 Q -261.019 698.164 -260.776 710.733 Q -260.532 723.301 -260.423 730.731 Q -260.314 738.160 -260.066 746.497 Q -259.818 754.835 -259.511 762.399 Q -259.205 769.963 -259.025 777.981 Q -258.846 785.999 -258.795 790.334 Q -258.743 794.669 -258.819 797.330 Q -258.894 799.992 -259.074 801.626 Q -259.253 803.261 -259.196 812.988 Q -259.140 822.716 -259.281 827.910 Q -259.422 833.105 -259.198 840.023 Q -258.973 846.942 -259.121 850.823 Q -259.269 854.704 -258.885 858.536 Q -258.502 862.369 -257.870 877.813 "></path>
    <path id="STROKE_6ad5a458-cad4-41ea-aed7-f5437e89a17f" opacity="1.000" fill="none" stroke="#ffffff" stroke-width="1.600" stroke-opacity="1.000" stroke-linecap="round" stroke-linejoin="round" d="M -258.107 623.796 Q -258.047 623.947 -258.001 624.535 Q -257.956 625.123 -258.009 625.086 Q -258.063 625.049 -258.107 625.217 Q -257.404 623.609 -250.885 627.348 Q -250.759 626.758 -245.480 626.397 Q -240.201 626.037 -237.265 625.939 Q -234.328 625.842 -230.515 625.817 Q -226.701 625.793 -224.943 625.685 Q -223.185 625.576 -221.794 625.403 Q -220.404 625.230 -217.538 624.559 Q -214.673 623.888 -200.093 626.874 "></path>
    <path id="STROKE_6e0b572d-ad69-4ca2-a3f5-83a5b40e9c57" opacity="1.000" fill="none" stroke="#ffffff" stroke-width="1.600" stroke-opacity="1.000" stroke-linecap="round" stroke-linejoin="round" d="M -198.199 625.217 Q -198.353 626.198 -198.659 640.108 Q -198.965 654.018 -199.445 661.891 Q -199.925 669.764 -199.983 673.361 Q -200.040 676.958 -200.865 683.602 Q -201.690 690.247 -202.306 696.280 Q -202.922 702.312 -203.269 708.451 Q -203.615 714.590 -204.055 722.606 Q -204.494 730.623 -204.626 734.790 Q -204.758 738.957 -204.802 741.381 Q -204.846 743.804 -205.071 745.859 Q -205.296 747.913 -205.437 758.327 Q -205.579 768.740 -205.687 774.197 Q -205.794 779.654 -205.523 783.989 Q -205.251 788.323 -204.797 804.326 Q -204.343 820.328 -203.994 829.600 Q -203.646 838.872 -203.325 844.176 Q -203.005 849.479 -202.436 854.346 Q -201.868 859.212 -201.581 862.346 Q -201.293 865.480 -199.620 879.944 "></path>
    <path id="STROKE_5f3456fa-21f4-4e7f-bbc8-782ecb1315fc" opacity="1.000" fill="none" stroke="#ffffff" stroke-width="1.600" stroke-opacity="1.000" stroke-linecap="round" stroke-linejoin="round" d="M -254.792 884.443 Q -253.083 883.462 -253.423 883.451 Q -253.764 883.440 -246.952 882.894 Q -240.140 882.348 -235.936 882.031 Q -231.731 881.714 -227.541 880.928 Q -223.350 880.142 -218.307 879.750 Q -213.263 879.359 -210.875 878.967 Q -208.486 878.576 -207.380 878.569 Q -206.274 878.562 -205.303 878.287 "></path>
    <path id="STROKE_a746ae88-05ad-4e2c-b787-98bddd720cd0" opacity="1.000" fill="none" stroke="#ffffff" stroke-width="1.600" stroke-opacity="1.000" stroke-linecap="round" stroke-linejoin="round" d="M -248.162 678.199 Q -248.017 678.041 -241.493 677.486 Q -234.968 676.930 -219.510 675.120 "></path>
    <path id="STROKE_a241f174-8bc0-4fc0-88d3-236555efa436" opacity="1.000" fill="none" stroke="#ffffff" stroke-width="1.600" stroke-opacity="1.000" stroke-linecap="round" stroke-linejoin="round" d="M -242.242 726.504 Q -242.242 727.137 -242.242 727.688 Q -242.317 726.950 -239.262 727.219 Q -236.207 727.488 -232.107 726.402 Q -228.007 725.316 -222.352 722.242 "></path>
    <path id="STROKE_387df447-5b4c-4a29-85be-1e4d7b82c37d" opacity="1.000" fill="none" stroke="#ffffff" stroke-width="1.600" stroke-opacity="1.000" stroke-linecap="round" stroke-linejoin="round" d="M -241.295 774.336 Q -240.738 774.579 -237.110 775.629 Q -233.483 776.679 -228.611 776.280 Q -223.739 775.881 -217.853 775.756 "></path>
    <path id="STROKE_852e6734-b1f6-4088-b9d2-e6431b2b4194" opacity="1.000" fill="none" stroke="#ffffff" stroke-width="1.600" stroke-opacity="1.000" stroke-linecap="round" stroke-linejoin="round" d="M -242.242 824.535 Q -242.129 824.092 -233.258 823.575 Q -224.387 823.059 -214.538 821.694 "></path>
    <path id="STROKE_61ad272e-17bf-4810-9802-7c0b254827d3" opacity="1.000" fill="none" stroke="#ffffff" stroke-width="1.600" stroke-opacity="1.000" stroke-linecap="round" stroke-linejoin="round" d="M -241.295 650.494 Q -240.779 651.023 -240.585 651.086 L -240.585 650.968 Q -240.821 651.086 -241.295 651.441 Q -239.860 651.232 -236.533 649.018 Q -233.205 646.803 -228.271 639.602 Q -228.309 639.288 -228.347 643.351 Q -228.385 647.413 -228.254 649.630 Q -228.123 651.846 -227.842 653.570 Q -227.561 655.294 -227.561 656.651 "></path>
    <path id="STROKE_9c7847ad-5816-424e-833d-365ddebbf7c4" opacity="1.000" fill="none" stroke="#ffffff" stroke-width="1.600" stroke-opacity="1.000" stroke-linecap="round" stroke-linejoin="round" d="M -230.876 696.195 Q -230.982 696.658 -230.355 694.760 Q -229.728 692.861 -233.836 689.565 Q -233.338 689.223 -235.063 690.484 Q -236.788 691.745 -237.005 694.651 Q -237.223 697.556 -236.669 700.497 Q -236.115 703.438 -234.881 705.271 Q -233.647 707.103 -232.401 707.977 Q -231.155 708.851 -229.931 708.191 Q -228.706 707.530 -227.412 705.837 Q -226.118 704.144 -225.562 702.172 Q -225.007 700.201 -225.102 698.403 Q -225.196 696.606 -226.636 694.690 Q -228.075 692.774 -230.876 690.985 "></path>
    <path id="STROKE_f230842c-7f05-430d-84ba-835c28685799" opacity="1.000" fill="none" stroke="#ffffff" stroke-width="1.600" stroke-opacity="1.000" stroke-linecap="round" stroke-linejoin="round" d="M -240.111 751.604 Q -238.989 751.819 -237.221 750.357 Q -235.454 748.895 -234.874 747.807 Q -234.295 746.720 -232.746 744.123 Q -231.197 741.525 -229.692 739.054 Q -229.502 739.148 -229.735 744.259 Q -229.967 749.369 -227.916 755.866 Q -227.679 755.866 -227.324 755.866 "></path>
    <path id="STROKE_0caacdf2-c06b-4b81-abf5-e12130eefffe" opacity="1.000" fill="none" stroke="#ffffff" stroke-width="1.600" stroke-opacity="1.000" stroke-linecap="round" stroke-linejoin="round" d="M -229.455 794.936 Q -229.158 793.717 -229.654 791.483 Q -230.150 789.249 -232.297 787.951 Q -233.890 788.507 -235.016 791.917 Q -236.143 795.327 -236.314 797.997 Q -236.485 800.666 -236.115 802.276 Q -235.746 803.885 -234.653 804.582 Q -233.559 805.279 -232.051 805.082 Q -230.543 804.885 -229.468 804.337 Q -228.394 803.790 -227.341 802.019 Q -226.289 800.247 -225.900 798.953 Q -225.512 797.659 -225.664 795.687 Q -225.817 793.715 -230.166 790.674 Q -230.284 790.793 -230.403 790.911 "></path>
    <path id="STROKE_f2439895-a795-437c-a0e4-f736bb92d2a5" opacity="1.000" fill="none" stroke="#ffffff" stroke-width="1.600" stroke-opacity="1.000" stroke-linecap="round" stroke-linejoin="round" d="M -239.401 853.187 Q -239.663 853.179 -238.122 852.622 Q -236.581 852.065 -234.677 851.363 Q -232.774 850.660 -227.798 843.242 Q -228.317 842.757 -228.165 848.857 Q -228.012 854.956 -226.732 861.593 Q -226.496 861.593 -226.377 861.475 "></path>
    <path id="STROKE_b0bd1ade-3512-4c29-b328-99f86ca5e413" opacity="1.000" fill="none" stroke="#ffffff" stroke-width="1.600" stroke-opacity="1.000" stroke-linecap="round" stroke-linejoin="round" d="M 41.364 454.022 Q 41.147 455.166 41.838 450.707 Q 41.964 450.501 42.229 456.250 Q 42.495 461.998 42.872 467.074 Q 43.250 472.150 43.802 483.882 Q 44.354 495.615 44.443 501.684 Q 44.531 507.754 44.666 511.605 Q 44.801 515.455 44.705 518.607 Q 44.608 521.760 44.852 534.328 Q 45.096 546.897 45.205 554.326 Q 45.314 561.755 45.562 570.093 Q 45.810 578.431 46.116 585.995 Q 46.423 593.558 46.602 601.576 Q 46.782 609.594 46.833 613.929 Q 46.884 618.265 46.809 620.926 Q 46.733 623.588 46.554 625.222 Q 46.375 626.856 46.431 636.584 Q 46.488 646.312 46.347 651.506 Q 46.205 656.700 46.430 663.619 Q 46.654 670.538 46.507 674.419 Q 46.359 678.300 46.742 682.132 Q 47.126 685.964 47.757 701.409 "></path>
    <path id="STROKE_214b6ad2-689d-4bad-ba0c-0105b8c41266" opacity="1.000" fill="none" stroke="#ffffff" stroke-width="1.600" stroke-opacity="1.000" stroke-linecap="round" stroke-linejoin="round" d="M 47.521 447.392 Q 47.581 447.542 47.626 448.130 Q 47.672 448.719 47.618 448.682 Q 47.565 448.645 47.521 448.812 Q 48.224 447.205 54.743 450.944 Q 54.869 450.354 60.148 449.993 Q 65.426 449.632 68.363 449.535 Q 71.300 449.438 75.113 449.413 Q 78.926 449.388 80.685 449.280 Q 82.443 449.172 83.833 448.999 Q 85.223 448.826 88.089 448.155 Q 90.955 447.484 105.534 450.470 "></path>
    <path id="STROKE_3d81fe66-770d-46d2-b5af-6c0cc0e4b77b" opacity="1.000" fill="none" stroke="#ffffff" stroke-width="1.600" stroke-opacity="1.000" stroke-linecap="round" stroke-linejoin="round" d="M 107.429 448.812 Q 107.274 449.794 106.968 463.704 Q 106.662 477.613 106.182 485.487 Q 105.702 493.360 105.645 496.957 Q 105.587 500.554 104.763 507.198 Q 103.938 513.842 103.322 519.875 Q 102.706 525.908 102.359 532.047 Q 102.012 538.185 101.573 546.202 Q 101.133 554.218 101.002 558.386 Q 100.870 562.553 100.826 564.976 Q 100.781 567.400 100.557 569.454 Q 100.332 571.509 100.190 581.922 Q 100.048 592.336 99.941 597.793 Q 99.833 603.250 100.105 607.584 Q 100.376 611.918 100.830 627.921 Q 101.284 643.924 101.633 653.196 Q 101.982 662.468 102.302 667.772 Q 102.622 673.075 103.191 677.941 Q 103.760 682.808 104.047 685.942 Q 104.334 689.076 106.008 703.540 "></path>
    <path id="STROKE_9ef205e2-d621-4c89-a321-1d89cf255b86" opacity="1.000" fill="none" stroke="#ffffff" stroke-width="1.600" stroke-opacity="1.000" stroke-linecap="round" stroke-linejoin="round" d="M 50.836 708.039 Q 52.545 707.058 52.204 707.047 Q 51.864 707.036 58.676 706.490 Q 65.487 705.943 69.692 705.627 Q 73.896 705.310 78.087 704.524 Q 82.278 703.738 87.321 703.346 Q 92.364 702.954 94.753 702.563 Q 97.141 702.172 98.247 702.165 Q 99.353 702.158 100.325 701.882 "></path>
    <path id="STROKE_8fefa737-61d7-43ed-9e67-bb5b998dfbd4" opacity="1.000" fill="none" stroke="#ffffff" stroke-width="1.600" stroke-opacity="1.000" stroke-linecap="round" stroke-linejoin="round" d="M 57.466 501.794 Q 57.610 501.636 64.135 501.081 Q 70.660 500.526 86.117 498.716 "></path>
    <path id="STROKE_e7d5d3ae-ad12-4cbf-9475-fb1db61e2160" opacity="1.000" fill="none" stroke="#ffffff" stroke-width="1.600" stroke-opacity="1.000" stroke-linecap="round" stroke-linejoin="round" d="M 63.385 550.100 Q 63.385 550.732 63.385 551.284 Q 63.310 550.545 66.366 550.814 Q 69.421 551.083 73.521 549.997 Q 77.621 548.911 83.276 545.837 "></path>
    <path id="STROKE_5af330ae-791b-4342-b4c7-ddc9150aabad" opacity="1.000" fill="none" stroke="#ffffff" stroke-width="1.600" stroke-opacity="1.000" stroke-linecap="round" stroke-linejoin="round" d="M 64.333 597.931 Q 64.890 598.174 68.517 599.225 Q 72.145 600.275 77.017 599.876 Q 81.889 599.477 87.775 599.352 "></path>
    <path id="STROKE_8e135823-0bfc-4096-871a-b004a300a96c" opacity="1.000" fill="none" stroke="#ffffff" stroke-width="1.600" stroke-opacity="1.000" stroke-linecap="round" stroke-linejoin="round" d="M 63.385 648.131 Q 63.499 647.687 72.370 647.171 Q 81.241 646.655 91.090 645.289 "></path>
    <path id="STROKE_583b3b6a-8ef3-48c3-a660-723e1120dd6b" opacity="1.000" fill="none" stroke="#ffffff" stroke-width="1.600" stroke-opacity="1.000" stroke-linecap="round" stroke-linejoin="round" d="M 64.333 474.090 Q 64.848 474.619 65.043 474.682 L 65.043 474.563 Q 64.806 474.682 64.333 475.037 Q 65.767 474.828 69.095 472.613 Q 72.423 470.398 77.356 463.198 Q 77.318 462.884 77.280 466.946 Q 77.242 471.009 77.373 473.225 Q 77.504 475.442 77.786 477.166 Q 78.067 478.889 78.067 480.246 "></path>
    <path id="STROKE_5bd1c4c8-7432-497b-b23f-0804d8e7c52c" opacity="1.000" fill="none" stroke="#ffffff" stroke-width="1.600" stroke-opacity="1.000" stroke-linecap="round" stroke-linejoin="round" d="M 74.751 519.790 Q 74.646 520.254 75.273 518.355 Q 75.900 516.457 71.792 513.160 Q 72.290 512.818 70.565 514.080 Q 68.840 515.341 68.622 518.246 Q 68.405 521.152 68.959 524.093 Q 69.512 527.034 70.746 528.866 Q 71.980 530.699 73.226 531.573 Q 74.473 532.447 75.697 531.786 Q 76.921 531.126 78.216 529.433 Q 79.510 527.739 80.065 525.768 Q 80.621 523.796 80.526 521.999 Q 80.431 520.202 78.992 518.286 Q 77.552 516.370 74.751 514.581 "></path>
    <path id="STROKE_699e6339-0965-493c-b6b4-2734c29ccf07" opacity="1.000" fill="none" stroke="#ffffff" stroke-width="1.600" stroke-opacity="1.000" stroke-linecap="round" stroke-linejoin="round" d="M 66.227 676.783 Q 65.965 676.775 67.506 676.218 Q 69.047 675.660 70.950 674.958 Q 72.854 674.256 77.830 666.837 Q 77.310 666.352 77.463 672.452 Q 77.615 678.552 78.895 685.189 Q 79.132 685.189 79.250 685.070 "></path>
    <path id="STROKE_bb910dce-f56f-4d04-98e7-ac3b0beda733" opacity="1.000" fill="none" stroke="#ffffff" stroke-width="1.600" stroke-opacity="1.000" stroke-linecap="round" stroke-linejoin="round" d="M -181.624 736.212 L 11.361 576.379 "></path>
    <path id="STROKE_639ae495-c330-487d-abb6-2326fff42c38" opacity="1.000" fill="none" stroke="#ffffff" stroke-width="1.600" stroke-opacity="1.000" stroke-linecap="round" stroke-linejoin="round" d="M -149.183 645.048 Q -149.722 644.533 -149.657 644.338 Q -148.324 645.055 -148.528 645.074 Q -148.732 645.093 -145.314 650.614 Q -141.896 656.135 -138.954 660.311 Q -136.012 664.488 -132.845 667.069 Q -131.755 667.301 -133.959 661.790 Q -136.162 656.279 -137.475 650.975 Q -138.789 645.670 -139.233 642.671 Q -139.678 639.673 -139.750 637.944 Q -139.823 636.215 -139.281 635.507 Q -138.740 634.800 -138.278 634.929 Q -137.815 635.059 -137.604 635.364 Q -137.393 635.669 -137.213 635.613 Q -137.033 635.556 -134.686 639.512 Q -132.339 643.469 -130.467 648.670 Q -128.594 653.872 -127.092 657.436 Q -125.590 660.999 -122.838 663.732 Q -120.086 666.465 -118.487 668.378 Q -116.888 670.291 -114.330 670.390 Q -111.773 670.490 -110.293 670.378 Q -108.813 670.266 -107.750 669.661 Q -106.686 669.056 -105.614 668.727 "></path>
    <path id="STROKE_b928e355-fe2c-47b3-a318-2b9d2cc0ce3a" opacity="1.000" fill="none" stroke="#ffffff" stroke-width="1.600" stroke-opacity="1.000" stroke-linecap="round" stroke-linejoin="round" d="M -119.111 622.553 Q -119.232 622.830 -110.823 615.923 "></path>
    <path id="STROKE_7032f603-0763-41cf-a78c-755909c7638d" opacity="1.000" fill="none" stroke="#ffffff" stroke-width="1.600" stroke-opacity="1.000" stroke-linecap="round" stroke-linejoin="round" d="M -114.849 629.657 Q -115.330 630.073 -112.634 627.607 Q -109.938 625.141 -108.307 622.480 Q -106.676 619.819 -105.377 617.580 "></path>
    <path id="STROKE_18947629-c835-453e-bacc-2dfe350eeeb3" opacity="1.000" fill="none" stroke="#ffffff" stroke-width="1.600" stroke-opacity="1.000" stroke-linecap="round" stroke-linejoin="round" d="M -92.590 592.244 Q -92.502 592.112 -92.770 589.908 Q -93.038 587.705 -91.762 585.495 Q -92.483 585.446 -89.541 587.664 Q -86.598 589.881 -84.484 596.671 Q -82.370 603.460 -80.988 614.502 Q -81.312 613.844 -80.988 608.109 Q -81.256 608.181 -79.498 609.574 Q -77.740 610.968 -76.004 611.463 Q -74.268 611.958 -73.424 611.980 Q -72.580 612.001 -71.503 610.645 Q -70.426 609.288 -69.889 607.302 Q -69.351 605.317 -69.385 603.610 "></path>
    <path id="STROKE_ce7bf545-2167-4d08-9452-d1095a216815" opacity="1.000" fill="none" stroke="#ffb352" stroke-width="1.600" stroke-opacity="1.000" stroke-linecap="round" stroke-linejoin="round" d="M 77.662 566.729 Q 77.780 566.848 77.899 566.966 Q 77.761 567.546 78.095 566.580 Q 78.430 565.615 77.928 564.403 Q 77.427 563.192 77.030 562.118 Q 76.632 561.045 75.888 560.603 Q 75.144 560.161 74.351 560.140 Q 73.558 560.119 73.282 560.216 Q 73.006 560.313 71.898 560.877 Q 70.790 561.442 70.199 562.288 Q 69.609 563.135 68.968 563.755 Q 68.328 564.375 67.629 567.871 Q 66.930 571.367 67.126 573.681 Q 67.321 575.995 67.669 577.271 Q 68.017 578.548 69.356 579.824 Q 70.695 581.101 71.542 581.475 Q 72.389 581.848 74.130 581.661 Q 75.872 581.474 77.743 580.196 Q 79.614 578.919 80.730 576.469 Q 81.846 574.020 82.239 571.752 Q 82.631 569.485 78.372 565.309 "></path>
    <path id="STROKE_10767d0e-dcf5-42dc-ad79-f284564355e8" opacity="1.000" fill="none" stroke="#ffb352" stroke-width="1.600" stroke-opacity="1.000" stroke-linecap="round" stroke-linejoin="round" d="M 66.533 624.684 Q 66.542 624.603 69.378 622.042 Q 72.214 619.481 74.528 617.536 Q 76.843 615.590 78.061 614.443 Q 79.279 613.295 80.030 612.371 Q 80.001 613.150 79.414 616.902 Q 78.827 620.654 78.981 623.599 Q 79.134 626.543 80.385 628.946 Q 81.258 629.040 81.214 629.183 Q 81.759 629.729 81.687 629.657 "></path>
  </g>
</svg>