<?xml version="1.0" encoding="UTF-8" standalone="yes"?>
<svg xmlns="http://www.w3.org/2000/svg" xmlns:xlink="http://www.w3.org/1999/xlink" width="75.067pt" height="269.610pt" version="1.1" viewBox="-268.766 619.336 75.067 269.610">
  <!--
	Exported with Concepts: Smarter Sketching
	Version: 2024.11 on Android 13
	https://concepts.app/
	-->
  <title>Hamming Distance</title>
  <desc>Drawing exported from Concepts: Smarter Sketching</desc>
  <defs></defs>
  <g id="Pen" opacity="1.000">
    <path id="STROKE_c5f0314a-48e7-4c21-9a35-e7b1fa999f95" opacity="1.000" fill="none" stroke="#ffffff" stroke-width="1.600" stroke-opacity="1.000" stroke-linecap="round" stroke-linejoin="round" d="M -264.264 630.426 Q -264.481 631.570 -263.790 627.111 Q -263.664 626.905 -263.398 632.654 Q -263.133 638.403 -262.755 643.478 Q -262.378 648.554 -261.826 660.287 Q -261.274 672.019 -261.185 678.089 Q -261.097 684.158 -260.961 688.009 Q -260.826 691.859 -260.923 695.012 Q -261.019 698.164 -260.776 710.733 Q -260.532 723.301 -260.423 730.731 Q -260.314 738.160 -260.066 746.497 Q -259.818 754.835 -259.511 762.399 Q -259.205 769.963 -259.025 777.981 Q -258.846 785.999 -258.795 790.334 Q -258.743 794.669 -258.819 797.330 Q -258.894 799.992 -259.074 801.626 Q -259.253 803.261 -259.196 812.988 Q -259.140 822.716 -259.281 827.910 Q -259.422 833.105 -259.198 840.023 Q -258.973 846.942 -259.121 850.823 Q -259.269 854.704 -258.885 858.536 Q -258.502 862.369 -257.870 877.813 "></path>
    <path id="STROKE_6ad5a458-cad4-41ea-aed7-f5437e89a17f" opacity="1.000" fill="none" stroke="#ffffff" stroke-width="1.600" stroke-opacity="1.000" stroke-linecap="round" stroke-linejoin="round" d="M -258.107 623.796 Q -258.047 623.947 -258.001 624.535 Q -257.956 625.123 -258.009 625.086 Q -258.063 625.049 -258.107 625.217 Q -257.404 623.609 -250.885 627.348 Q -250.759 626.758 -245.480 626.397 Q -240.201 626.037 -237.265 625.939 Q -234.328 625.842 -230.515 625.817 Q -226.701 625.793 -224.943 625.685 Q -223.185 625.576 -221.794 625.403 Q -220.404 625.230 -217.538 624.559 Q -214.673 623.888 -200.093 626.874 "></path>
    <path id="STROKE_6e0b572d-ad69-4ca2-a3f5-83a5b40e9c57" opacity="1.000" fill="none" stroke="#ffffff" stroke-width="1.600" stroke-opacity="1.000" stroke-linecap="round" stroke-linejoin="round" d="M -198.199 625.217 Q -198.353 626.198 -198.659 640.108 Q -198.965 654.018 -199.445 661.891 Q -199.925 669.764 -199.983 673.361 Q -200.040 676.958 -200.865 683.602 Q -201.690 690.247 -202.306 696.280 Q -202.922 702.312 -203.269 708.451 Q -203.615 714.590 -204.055 722.606 Q -204.494 730.623 -204.626 734.790 Q -204.758 738.957 -204.802 741.381 Q -204.846 743.804 -205.071 745.859 Q -205.296 747.913 -205.437 758.327 Q -205.579 768.740 -205.687 774.197 Q -205.794 779.654 -205.523 783.989 Q -205.251 788.323 -204.797 804.326 Q -204.343 820.328 -203.994 829.600 Q -203.646 838.872 -203.325 844.176 Q -203.005 849.479 -202.436 854.346 Q -201.868 859.212 -201.581 862.346 Q -201.293 865.480 -199.620 879.944 "></path>
    <path id="STROKE_5f3456fa-21f4-4e7f-bbc8-782ecb1315fc" opacity="1.000" fill="none" stroke="#ffffff" stroke-width="1.600" stroke-opacity="1.000" stroke-linecap="round" stroke-linejoin="round" d="M -254.792 884.443 Q -253.083 883.462 -253.423 883.451 Q -253.764 883.440 -246.952 882.894 Q -240.140 882.348 -235.936 882.031 Q -231.731 881.714 -227.541 880.928 Q -223.350 880.142 -218.307 879.750 Q -213.263 879.359 -210.875 878.967 Q -208.486 878.576 -207.380 878.569 Q -206.274 878.562 -205.303 878.287 "></path>
    <path id="STROKE_a746ae88-05ad-4e2c-b787-98bddd720cd0" opacity="1.000" fill="none" stroke="#ffffff" stroke-width="1.600" stroke-opacity="1.000" stroke-linecap="round" stroke-linejoin="round" d="M -248.162 678.199 Q -248.017 678.041 -241.493 677.486 Q -234.968 676.930 -219.510 675.120 "></path>
    <path id="STROKE_a241f174-8bc0-4fc0-88d3-236555efa436" opacity="1.000" fill="none" stroke="#ffffff" stroke-width="1.600" stroke-opacity="1.000" stroke-linecap="round" stroke-linejoin="round" d="M -242.242 726.504 Q -242.242 727.137 -242.242 727.688 Q -242.317 726.950 -239.262 727.219 Q -236.207 727.488 -232.107 726.402 Q -228.007 725.316 -222.352 722.242 "></path>
    <path id="STROKE_387df447-5b4c-4a29-85be-1e4d7b82c37d" opacity="1.000" fill="none" stroke="#ffffff" stroke-width="1.600" stroke-opacity="1.000" stroke-linecap="round" stroke-linejoin="round" d="M -241.295 774.336 Q -240.738 774.579 -237.110 775.629 Q -233.483 776.679 -228.611 776.280 Q -223.739 775.881 -217.853 775.756 "></path>
    <path id="STROKE_852e6734-b1f6-4088-b9d2-e6431b2b4194" opacity="1.000" fill="none" stroke="#ffffff" stroke-width="1.600" stroke-opacity="1.000" stroke-linecap="round" stroke-linejoin="round" d="M -242.242 824.535 Q -242.129 824.092 -233.258 823.575 Q -224.387 823.059 -214.538 821.694 "></path>
    <path id="STROKE_61ad272e-17bf-4810-9802-7c0b254827d3" opacity="1.000" fill="none" stroke="#ffffff" stroke-width="1.600" stroke-opacity="1.000" stroke-linecap="round" stroke-linejoin="round" d="M -241.295 650.494 Q -240.779 651.023 -240.585 651.086 L -240.585 650.968 Q -240.821 651.086 -241.295 651.441 Q -239.860 651.232 -236.533 649.018 Q -233.205 646.803 -228.271 639.602 Q -228.309 639.288 -228.347 643.351 Q -228.385 647.413 -228.254 649.630 Q -228.123 651.846 -227.842 653.570 Q -227.561 655.294 -227.561 656.651 "></path>
    <path id="STROKE_9c7847ad-5816-424e-833d-365ddebbf7c4" opacity="1.000" fill="none" stroke="#ffffff" stroke-width="1.600" stroke-opacity="1.000" stroke-linecap="round" stroke-linejoin="round" d="M -230.876 696.195 Q -230.982 696.658 -230.355 694.760 Q -229.728 692.861 -233.836 689.565 Q -233.338 689.223 -235.063 690.484 Q -236.788 691.745 -237.005 694.651 Q -237.223 697.556 -236.669 700.497 Q -236.115 703.438 -234.881 705.271 Q -233.647 707.103 -232.401 707.977 Q -231.155 708.851 -229.931 708.191 Q -228.706 707.530 -227.412 705.837 Q -226.118 704.144 -225.562 702.172 Q -225.007 700.201 -225.102 698.403 Q -225.196 696.606 -226.636 694.690 Q -228.075 692.774 -230.876 690.985 "></path>
    <path id="STROKE_f230842c-7f05-430d-84ba-835c28685799" opacity="1.000" fill="none" stroke="#ffffff" stroke-width="1.600" stroke-opacity="1.000" stroke-linecap="round" stroke-linejoin="round" d="M -240.111 751.604 Q -238.989 751.819 -237.221 750.357 Q -235.454 748.895 -234.874 747.807 Q -234.295 746.720 -232.746 744.123 Q -231.197 741.525 -229.692 739.054 Q -229.502 739.148 -229.735 744.259 Q -229.967 749.369 -227.916 755.866 Q -227.679 755.866 -227.324 755.866 "></path>
    <path id="STROKE_0caacdf2-c06b-4b81-abf5-e12130eefffe" opacity="1.000" fill="none" stroke="#ffffff" stroke-width="1.600" stroke-opacity="1.000" stroke-linecap="round" stroke-linejoin="round" d="M -229.455 794.936 Q -229.158 793.717 -229.654 791.483 Q -230.150 789.249 -232.297 787.951 Q -233.890 788.507 -235.016 791.917 Q -236.143 795.327 -236.314 797.997 Q -236.485 800.666 -236.115 802.276 Q -235.746 803.885 -234.653 804.582 Q -233.559 805.279 -232.051 805.082 Q -230.543 804.885 -229.468 804.337 Q -228.394 803.790 -227.341 802.019 Q -226.289 800.247 -225.900 798.953 Q -225.512 797.659 -225.664 795.687 Q -225.817 793.715 -230.166 790.674 Q -230.284 790.793 -230.403 790.911 "></path>
    <path id="STROKE_f2439895-a795-437c-a0e4-f736bb92d2a5" opacity="1.000" fill="none" stroke="#ffffff" stroke-width="1.600" stroke-opacity="1.000" stroke-linecap="round" stroke-linejoin="round" d="M -239.401 853.187 Q -239.663 853.179 -238.122 852.622 Q -236.581 852.065 -234.677 851.363 Q -232.774 850.660 -227.798 843.242 Q -228.317 842.757 -228.165 848.857 Q -228.012 854.956 -226.732 861.593 Q -226.496 861.593 -226.377 861.475 "></path>
  </g>
</svg>