<?xml version="1.0" encoding="UTF-8" standalone="yes"?>
<svg xmlns="http://www.w3.org/2000/svg" xmlns:xlink="http://www.w3.org/1999/xlink" width="521.670pt" height="648.324pt" version="1.1" viewBox="-272.478 439.218 521.670 648.324">
  <!--
	Exported with Concepts: Smarter Sketching
	Version: 2024.11 on Android 13
	https://concepts.app/
	-->
  <title>Hamming Distance</title>
  <desc>Drawing exported from Concepts: Smarter Sketching</desc>
  <defs></defs>
  <g id="Pen" opacity="1.000">
    <path id="STROKE_c5f0314a-48e7-4c21-9a35-e7b1fa999f95" opacity="1.000" fill="none" stroke="#ffffff" stroke-width="1.600" stroke-opacity="1.000" stroke-linecap="round" stroke-linejoin="round" d="M -264.264 630.426 Q -264.481 631.570 -263.790 627.111 Q -263.664 626.905 -263.398 632.654 Q -263.133 638.403 -262.755 643.478 Q -262.378 648.554 -261.826 660.287 Q -261.274 672.019 -261.185 678.089 Q -261.097 684.158 -260.961 688.009 Q -260.826 691.859 -260.923 695.012 Q -261.019 698.164 -260.776 710.733 Q -260.532 723.301 -260.423 730.731 Q -260.314 738.160 -260.066 746.497 Q -259.818 754.835 -259.511 762.399 Q -259.205 769.963 -259.025 777.981 Q -258.846 785.999 -258.795 790.334 Q -258.743 794.669 -258.819 797.330 Q -258.894 799.992 -259.074 801.626 Q -259.253 803.261 -259.196 812.988 Q -259.140 822.716 -259.281 827.910 Q -259.422 833.105 -259.198 840.023 Q -258.973 846.942 -259.121 850.823 Q -259.269 854.704 -258.885 858.536 Q -258.502 862.369 -257.870 877.813 "></path>
    <path id="STROKE_6ad5a458-cad4-41ea-aed7-f5437e89a17f" opacity="1.000" fill="none" stroke="#ffffff" stroke-width="1.600" stroke-opacity="1.000" stroke-linecap="round" stroke-linejoin="round" d="M -258.107 623.796 Q -258.047 623.947 -258.001 624.535 Q -257.956 625.123 -258.009 625.086 Q -258.063 625.049 -258.107 625.217 Q -257.404 623.609 -250.885 627.348 Q -250.759 626.758 -245.480 626.397 Q -240.201 626.037 -237.265 625.939 Q -234.328 625.842 -230.515 625.817 Q -226.701 625.793 -224.943 625.685 Q -223.185 625.576 -221.794 625.403 Q -220.404 625.230 -217.538 624.559 Q -214.673 623.888 -200.093 626.874 "></path>
    <path id="STROKE_6e0b572d-ad69-4ca2-a3f5-83a5b40e9c57" opacity="1.000" fill="none" stroke="#ffffff" stroke-width="1.600" stroke-opacity="1.000" stroke-linecap="round" stroke-linejoin="round" d="M -198.199 625.217 Q -198.353 626.198 -198.659 640.108 Q -198.965 654.018 -199.445 661.891 Q -199.925 669.764 -199.983 673.361 Q -200.040 676.958 -200.865 683.602 Q -201.690 690.247 -202.306 696.280 Q -202.922 702.312 -203.269 708.451 Q -203.615 714.590 -204.055 722.606 Q -204.494 730.623 -204.626 734.790 Q -204.758 738.957 -204.802 741.381 Q -204.846 743.804 -205.071 745.859 Q -205.296 747.913 -205.437 758.327 Q -205.579 768.740 -205.687 774.197 Q -205.794 779.654 -205.523 783.989 Q -205.251 788.323 -204.797 804.326 Q -204.343 820.328 -203.994 829.600 Q -203.646 838.872 -203.325 844.176 Q -203.005 849.479 -202.436 854.346 Q -201.868 859.212 -201.581 862.346 Q -201.293 865.480 -199.620 879.944 "></path>
    <path id="STROKE_5f3456fa-21f4-4e7f-bbc8-782ecb1315fc" opacity="1.000" fill="none" stroke="#ffffff" stroke-width="1.600" stroke-opacity="1.000" stroke-linecap="round" stroke-linejoin="round" d="M -254.792 884.443 Q -253.083 883.462 -253.423 883.451 Q -253.764 883.440 -246.952 882.894 Q -240.140 882.348 -235.936 882.031 Q -231.731 881.714 -227.541 880.928 Q -223.350 880.142 -218.307 879.750 Q -213.263 879.359 -210.875 878.967 Q -208.486 878.576 -207.380 878.569 Q -206.274 878.562 -205.303 878.287 "></path>
    <path id="STROKE_a746ae88-05ad-4e2c-b787-98bddd720cd0" opacity="1.000" fill="none" stroke="#ffffff" stroke-width="1.600" stroke-opacity="1.000" stroke-linecap="round" stroke-linejoin="round" d="M -248.162 678.199 Q -248.017 678.041 -241.493 677.486 Q -234.968 676.930 -219.510 675.120 "></path>
    <path id="STROKE_a241f174-8bc0-4fc0-88d3-236555efa436" opacity="1.000" fill="none" stroke="#ffffff" stroke-width="1.600" stroke-opacity="1.000" stroke-linecap="round" stroke-linejoin="round" d="M -242.242 726.504 Q -242.242 727.137 -242.242 727.688 Q -242.317 726.950 -239.262 727.219 Q -236.207 727.488 -232.107 726.402 Q -228.007 725.316 -222.352 722.242 "></path>
    <path id="STROKE_387df447-5b4c-4a29-85be-1e4d7b82c37d" opacity="1.000" fill="none" stroke="#ffffff" stroke-width="1.600" stroke-opacity="1.000" stroke-linecap="round" stroke-linejoin="round" d="M -241.295 774.336 Q -240.738 774.579 -237.110 775.629 Q -233.483 776.679 -228.611 776.280 Q -223.739 775.881 -217.853 775.756 "></path>
    <path id="STROKE_852e6734-b1f6-4088-b9d2-e6431b2b4194" opacity="1.000" fill="none" stroke="#ffffff" stroke-width="1.600" stroke-opacity="1.000" stroke-linecap="round" stroke-linejoin="round" d="M -242.242 824.535 Q -242.129 824.092 -233.258 823.575 Q -224.387 823.059 -214.538 821.694 "></path>
    <path id="STROKE_61ad272e-17bf-4810-9802-7c0b254827d3" opacity="1.000" fill="none" stroke="#ffffff" stroke-width="1.600" stroke-opacity="1.000" stroke-linecap="round" stroke-linejoin="round" d="M -241.295 650.494 Q -240.779 651.023 -240.585 651.086 L -240.585 650.968 Q -240.821 651.086 -241.295 651.441 Q -239.860 651.232 -236.533 649.018 Q -233.205 646.803 -228.271 639.602 Q -228.309 639.288 -228.347 643.351 Q -228.385 647.413 -228.254 649.630 Q -228.123 651.846 -227.842 653.570 Q -227.561 655.294 -227.561 656.651 "></path>
    <path id="STROKE_9c7847ad-5816-424e-833d-365ddebbf7c4" opacity="1.000" fill="none" stroke="#ffffff" stroke-width="1.600" stroke-opacity="1.000" stroke-linecap="round" stroke-linejoin="round" d="M -230.876 696.195 Q -230.982 696.658 -230.355 694.760 Q -229.728 692.861 -233.836 689.565 Q -233.338 689.223 -235.063 690.484 Q -236.788 691.745 -237.005 694.651 Q -237.223 697.556 -236.669 700.497 Q -236.115 703.438 -234.881 705.271 Q -233.647 707.103 -232.401 707.977 Q -231.155 708.851 -229.931 708.191 Q -228.706 707.530 -227.412 705.837 Q -226.118 704.144 -225.562 702.172 Q -225.007 700.201 -225.102 698.403 Q -225.196 696.606 -226.636 694.690 Q -228.075 692.774 -230.876 690.985 "></path>
    <path id="STROKE_f230842c-7f05-430d-84ba-835c28685799" opacity="1.000" fill="none" stroke="#ffffff" stroke-width="1.600" stroke-opacity="1.000" stroke-linecap="round" stroke-linejoin="round" d="M -240.111 751.604 Q -238.989 751.819 -237.221 750.357 Q -235.454 748.895 -234.874 747.807 Q -234.295 746.720 -232.746 744.123 Q -231.197 741.525 -229.692 739.054 Q -229.502 739.148 -229.735 744.259 Q -229.967 749.369 -227.916 755.866 Q -227.679 755.866 -227.324 755.866 "></path>
    <path id="STROKE_0caacdf2-c06b-4b81-abf5-e12130eefffe" opacity="1.000" fill="none" stroke="#ffffff" stroke-width="1.600" stroke-opacity="1.000" stroke-linecap="round" stroke-linejoin="round" d="M -229.455 794.936 Q -229.158 793.717 -229.654 791.483 Q -230.150 789.249 -232.297 787.951 Q -233.890 788.507 -235.016 791.917 Q -236.143 795.327 -236.314 797.997 Q -236.485 800.666 -236.115 802.276 Q -235.746 803.885 -234.653 804.582 Q -233.559 805.279 -232.051 805.082 Q -230.543 804.885 -229.468 804.337 Q -228.394 803.790 -227.341 802.019 Q -226.289 800.247 -225.900 798.953 Q -225.512 797.659 -225.664 795.687 Q -225.817 793.715 -230.166 790.674 Q -230.284 790.793 -230.403 790.911 "></path>
    <path id="STROKE_f2439895-a795-437c-a0e4-f736bb92d2a5" opacity="1.000" fill="none" stroke="#ffffff" stroke-width="1.600" stroke-opacity="1.000" stroke-linecap="round" stroke-linejoin="round" d="M -239.401 853.187 Q -239.663 853.179 -238.122 852.622 Q -236.581 852.065 -234.677 851.363 Q -232.774 850.660 -227.798 843.242 Q -228.317 842.757 -228.165 848.857 Q -228.012 854.956 -226.732 861.593 Q -226.496 861.593 -226.377 861.475 "></path>
    <path id="STROKE_b0bd1ade-3512-4c29-b328-99f86ca5e413" opacity="1.000" fill="none" stroke="#ffffff" stroke-width="1.600" stroke-opacity="1.000" stroke-linecap="round" stroke-linejoin="round" d="M 41.364 454.022 Q 41.147 455.166 41.838 450.707 Q 41.964 450.501 42.229 456.250 Q 42.495 461.998 42.872 467.074 Q 43.250 472.150 43.802 483.882 Q 44.354 495.615 44.443 501.684 Q 44.531 507.754 44.666 511.605 Q 44.801 515.455 44.705 518.607 Q 44.608 521.760 44.852 534.328 Q 45.096 546.897 45.205 554.326 Q 45.314 561.755 45.562 570.093 Q 45.810 578.431 46.116 585.995 Q 46.423 593.558 46.602 601.576 Q 46.782 609.594 46.833 613.929 Q 46.884 618.265 46.809 620.926 Q 46.733 623.588 46.554 625.222 Q 46.375 626.856 46.431 636.584 Q 46.488 646.312 46.347 651.506 Q 46.205 656.700 46.430 663.619 Q 46.654 670.538 46.507 674.419 Q 46.359 678.300 46.742 682.132 Q 47.126 685.964 47.757 701.409 "></path>
    <path id="STROKE_214b6ad2-689d-4bad-ba0c-0105b8c41266" opacity="1.000" fill="none" stroke="#ffffff" stroke-width="1.600" stroke-opacity="1.000" stroke-linecap="round" stroke-linejoin="round" d="M 47.521 447.392 Q 47.581 447.542 47.626 448.130 Q 47.672 448.719 47.618 448.682 Q 47.565 448.645 47.521 448.812 Q 48.224 447.205 54.743 450.944 Q 54.869 450.354 60.148 449.993 Q 65.426 449.632 68.363 449.535 Q 71.300 449.438 75.113 449.413 Q 78.926 449.388 80.685 449.280 Q 82.443 449.172 83.833 448.999 Q 85.223 448.826 88.089 448.155 Q 90.955 447.484 105.534 450.470 "></path>
    <path id="STROKE_3d81fe66-770d-46d2-b5af-6c0cc0e4b77b" opacity="1.000" fill="none" stroke="#ffffff" stroke-width="1.600" stroke-opacity="1.000" stroke-linecap="round" stroke-linejoin="round" d="M 107.429 448.812 Q 107.274 449.794 106.968 463.704 Q 106.662 477.613 106.182 485.487 Q 105.702 493.360 105.645 496.957 Q 105.587 500.554 104.763 507.198 Q 103.938 513.842 103.322 519.875 Q 102.706 525.908 102.359 532.047 Q 102.012 538.185 101.573 546.202 Q 101.133 554.218 101.002 558.386 Q 100.870 562.553 100.826 564.976 Q 100.781 567.400 100.557 569.454 Q 100.332 571.509 100.190 581.922 Q 100.048 592.336 99.941 597.793 Q 99.833 603.250 100.105 607.584 Q 100.376 611.918 100.830 627.921 Q 101.284 643.924 101.633 653.196 Q 101.982 662.468 102.302 667.772 Q 102.622 673.075 103.191 677.941 Q 103.760 682.808 104.047 685.942 Q 104.334 689.076 106.008 703.540 "></path>
    <path id="STROKE_9ef205e2-d621-4c89-a321-1d89cf255b86" opacity="1.000" fill="none" stroke="#ffffff" stroke-width="1.600" stroke-opacity="1.000" stroke-linecap="round" stroke-linejoin="round" d="M 50.836 708.039 Q 52.545 707.058 52.204 707.047 Q 51.864 707.036 58.676 706.490 Q 65.487 705.943 69.692 705.627 Q 73.896 705.310 78.087 704.524 Q 82.278 703.738 87.321 703.346 Q 92.364 702.954 94.753 702.563 Q 97.141 702.172 98.247 702.165 Q 99.353 702.158 100.325 701.882 "></path>
    <path id="STROKE_8fefa737-61d7-43ed-9e67-bb5b998dfbd4" opacity="1.000" fill="none" stroke="#ffffff" stroke-width="1.600" stroke-opacity="1.000" stroke-linecap="round" stroke-linejoin="round" d="M 57.466 501.794 Q 57.610 501.636 64.135 501.081 Q 70.660 500.526 86.117 498.716 "></path>
    <path id="STROKE_e7d5d3ae-ad12-4cbf-9475-fb1db61e2160" opacity="1.000" fill="none" stroke="#ffffff" stroke-width="1.600" stroke-opacity="1.000" stroke-linecap="round" stroke-linejoin="round" d="M 63.385 550.100 Q 63.385 550.732 63.385 551.284 Q 63.310 550.545 66.366 550.814 Q 69.421 551.083 73.521 549.997 Q 77.621 548.911 83.276 545.837 "></path>
    <path id="STROKE_5af330ae-791b-4342-b4c7-ddc9150aabad" opacity="1.000" fill="none" stroke="#ffffff" stroke-width="1.600" stroke-opacity="1.000" stroke-linecap="round" stroke-linejoin="round" d="M 64.333 597.931 Q 64.890 598.174 68.517 599.225 Q 72.145 600.275 77.017 599.876 Q 81.889 599.477 87.775 599.352 "></path>
    <path id="STROKE_8e135823-0bfc-4096-871a-b004a300a96c" opacity="1.000" fill="none" stroke="#ffffff" stroke-width="1.600" stroke-opacity="1.000" stroke-linecap="round" stroke-linejoin="round" d="M 63.385 648.131 Q 63.499 647.687 72.370 647.171 Q 81.241 646.655 91.090 645.289 "></path>
    <path id="STROKE_583b3b6a-8ef3-48c3-a660-723e1120dd6b" opacity="1.000" fill="none" stroke="#ffffff" stroke-width="1.600" stroke-opacity="1.000" stroke-linecap="round" stroke-linejoin="round" d="M 64.333 474.090 Q 64.848 474.619 65.043 474.682 L 65.043 474.563 Q 64.806 474.682 64.333 475.037 Q 65.767 474.828 69.095 472.613 Q 72.423 470.398 77.356 463.198 Q 77.318 462.884 77.280 466.946 Q 77.242 471.009 77.373 473.225 Q 77.504 475.442 77.786 477.166 Q 78.067 478.889 78.067 480.246 "></path>
    <path id="STROKE_5bd1c4c8-7432-497b-b23f-0804d8e7c52c" opacity="1.000" fill="none" stroke="#ffffff" stroke-width="1.600" stroke-opacity="1.000" stroke-linecap="round" stroke-linejoin="round" d="M 74.751 519.790 Q 74.646 520.254 75.273 518.355 Q 75.900 516.457 71.792 513.160 Q 72.290 512.818 70.565 514.080 Q 68.840 515.341 68.622 518.246 Q 68.405 521.152 68.959 524.093 Q 69.512 527.034 70.746 528.866 Q 71.980 530.699 73.226 531.573 Q 74.473 532.447 75.697 531.786 Q 76.921 531.126 78.216 529.433 Q 79.510 527.739 80.065 525.768 Q 80.621 523.796 80.526 521.999 Q 80.431 520.202 78.992 518.286 Q 77.552 516.370 74.751 514.581 "></path>
    <path id="STROKE_699e6339-0965-493c-b6b4-2734c29ccf07" opacity="1.000" fill="none" stroke="#ffffff" stroke-width="1.600" stroke-opacity="1.000" stroke-linecap="round" stroke-linejoin="round" d="M 66.227 676.783 Q 65.965 676.775 67.506 676.218 Q 69.047 675.660 70.950 674.958 Q 72.854 674.256 77.830 666.837 Q 77.310 666.352 77.463 672.452 Q 77.615 678.552 78.895 685.189 Q 79.132 685.189 79.250 685.070 "></path>
    <path id="STROKE_bce7b3ec-7870-4eb9-b60f-695ea007ab67" opacity="1.000" fill="none" stroke="#ffffff" stroke-width="1.600" stroke-opacity="1.000" stroke-linecap="round" stroke-linejoin="round" d="M 174.914 825.310 Q 174.697 826.453 175.387 821.995 Q 175.514 821.789 175.779 827.537 Q 176.044 833.286 176.422 838.362 Q 176.800 843.438 177.352 855.170 Q 177.904 866.903 177.992 872.972 Q 178.081 879.042 178.216 882.892 Q 178.351 886.743 178.255 889.895 Q 178.158 893.047 178.402 905.616 Q 178.646 918.185 178.755 925.614 Q 178.864 933.043 179.112 941.381 Q 179.360 949.718 179.666 957.282 Q 179.973 964.846 180.152 972.864 Q 180.332 980.882 180.383 985.217 Q 180.434 989.552 180.359 992.214 Q 180.283 994.875 180.104 996.510 Q 179.925 998.144 179.981 1007.872 Q 180.038 1017.599 179.897 1022.794 Q 179.755 1027.988 179.980 1034.907 Q 180.204 1041.826 180.056 1045.707 Q 179.909 1049.587 180.292 1053.420 Q 180.676 1057.252 181.307 1072.697 "></path>
    <path id="STROKE_0f7e4e86-a718-4260-9138-25c9b4b2aa90" opacity="1.000" fill="none" stroke="#ffffff" stroke-width="1.600" stroke-opacity="1.000" stroke-linecap="round" stroke-linejoin="round" d="M 181.070 818.679 Q 181.131 818.830 181.176 819.418 Q 181.222 820.006 181.168 819.969 Q 181.115 819.933 181.070 820.100 Q 181.774 818.493 188.293 822.231 Q 188.419 821.642 193.698 821.281 Q 198.976 820.920 201.913 820.823 Q 204.849 820.726 208.663 820.701 Q 212.476 820.676 214.235 820.568 Q 215.993 820.460 217.383 820.287 Q 218.773 820.113 221.639 819.442 Q 224.505 818.771 239.084 821.758 "></path>
    <path id="STROKE_83113b23-5159-4350-8cbd-64f66f49be2b" opacity="1.000" fill="none" stroke="#ffffff" stroke-width="1.600" stroke-opacity="1.000" stroke-linecap="round" stroke-linejoin="round" d="M 240.978 820.100 Q 240.824 821.082 240.518 834.991 Q 240.212 848.901 239.732 856.774 Q 239.252 864.647 239.195 868.244 Q 239.137 871.841 238.312 878.486 Q 237.488 885.130 236.872 891.163 Q 236.256 897.196 235.909 903.334 Q 235.562 909.473 235.123 917.490 Q 234.683 925.506 234.551 929.673 Q 234.420 933.840 234.376 936.264 Q 234.331 938.688 234.107 940.742 Q 233.882 942.797 233.740 953.210 Q 233.598 963.623 233.491 969.081 Q 233.383 974.538 233.655 978.872 Q 233.926 983.206 234.380 999.209 Q 234.834 1015.212 235.183 1024.484 Q 235.532 1033.756 235.852 1039.059 Q 236.172 1044.363 236.741 1049.229 Q 237.310 1054.095 237.597 1057.229 Q 237.884 1060.363 239.558 1074.828 "></path>
    <path id="STROKE_4408dc49-8f5c-4a42-a569-60e2bb2b8225" opacity="1.000" fill="none" stroke="#ffffff" stroke-width="1.600" stroke-opacity="1.000" stroke-linecap="round" stroke-linejoin="round" d="M 184.385 1079.327 Q 186.095 1078.346 185.754 1078.334 Q 185.414 1078.323 192.225 1077.777 Q 199.037 1077.231 203.242 1076.914 Q 207.446 1076.598 211.637 1075.812 Q 215.828 1075.025 220.871 1074.634 Q 225.914 1074.242 228.303 1073.851 Q 230.691 1073.459 231.797 1073.452 Q 232.903 1073.445 233.875 1073.170 "></path>
    <path id="STROKE_fef7e728-cb49-44c4-acbe-f7afcf6e35bb" opacity="1.000" fill="none" stroke="#ffffff" stroke-width="1.600" stroke-opacity="1.000" stroke-linecap="round" stroke-linejoin="round" d="M 191.016 873.082 Q 191.160 872.924 197.685 872.369 Q 204.209 871.814 219.667 870.004 "></path>
    <path id="STROKE_9a90311a-4aaa-4ece-b0a1-03587ab5cc28" opacity="1.000" fill="none" stroke="#ffffff" stroke-width="1.600" stroke-opacity="1.000" stroke-linecap="round" stroke-linejoin="round" d="M 196.935 921.387 Q 196.935 922.020 196.935 922.571 Q 196.860 921.833 199.915 922.102 Q 202.971 922.371 207.071 921.285 Q 211.170 920.199 216.826 917.125 "></path>
    <path id="STROKE_01dfa228-79f0-4dc6-9f34-11eef591c686" opacity="1.000" fill="none" stroke="#ffffff" stroke-width="1.600" stroke-opacity="1.000" stroke-linecap="round" stroke-linejoin="round" d="M 197.883 969.219 Q 198.440 969.462 202.067 970.512 Q 205.695 971.563 210.567 971.164 Q 215.438 970.764 221.325 970.640 "></path>
    <path id="STROKE_b581388e-868f-4ab0-bd9c-dfbf4667058f" opacity="1.000" fill="none" stroke="#ffffff" stroke-width="1.600" stroke-opacity="1.000" stroke-linecap="round" stroke-linejoin="round" d="M 196.935 1019.419 Q 197.049 1018.975 205.920 1018.459 Q 214.791 1017.943 224.640 1016.577 "></path>
    <path id="STROKE_ff4b4e75-8e5b-45e8-872a-6218e5a0795e" opacity="1.000" fill="none" stroke="#ffffff" stroke-width="1.600" stroke-opacity="1.000" stroke-linecap="round" stroke-linejoin="round" d="M 208.301 891.078 Q 208.196 891.542 208.823 889.643 Q 209.449 887.745 205.341 884.448 Q 205.840 884.106 204.115 885.367 Q 202.389 886.628 202.172 889.534 Q 201.955 892.440 202.508 895.381 Q 203.062 898.321 204.296 900.154 Q 205.530 901.987 206.776 902.861 Q 208.022 903.735 209.247 903.074 Q 210.471 902.414 211.766 900.720 Q 213.060 899.027 213.615 897.056 Q 214.170 895.084 214.076 893.287 Q 213.981 891.490 212.542 889.574 Q 211.102 887.657 208.301 885.869 "></path>
    <path id="STROKE_df41e211-1503-42e7-aff0-d4e00a3c4400" opacity="1.000" fill="none" stroke="#ffffff" stroke-width="1.600" stroke-opacity="1.000" stroke-linecap="round" stroke-linejoin="round" d="M 199.777 1048.070 Q 199.515 1048.062 201.056 1047.505 Q 202.597 1046.948 204.500 1046.246 Q 206.404 1045.544 211.380 1038.125 Q 210.860 1037.640 211.013 1043.740 Q 211.165 1049.840 212.445 1056.476 Q 212.682 1056.476 212.800 1056.358 "></path>
    <path id="STROKE_bb910dce-f56f-4d04-98e7-ac3b0beda733" opacity="1.000" fill="none" stroke="#ffffff" stroke-width="1.600" stroke-opacity="1.000" stroke-linecap="round" stroke-linejoin="round" d="M -181.624 736.212 L 11.361 576.379 "></path>
    <path id="STROKE_639ae495-c330-487d-abb6-2326fff42c38" opacity="1.000" fill="none" stroke="#ffffff" stroke-width="1.600" stroke-opacity="1.000" stroke-linecap="round" stroke-linejoin="round" d="M -149.183 645.048 Q -149.722 644.533 -149.657 644.338 Q -148.324 645.055 -148.528 645.074 Q -148.732 645.093 -145.314 650.614 Q -141.896 656.135 -138.954 660.311 Q -136.012 664.488 -132.845 667.069 Q -131.755 667.301 -133.959 661.790 Q -136.162 656.279 -137.475 650.975 Q -138.789 645.670 -139.233 642.671 Q -139.678 639.673 -139.750 637.944 Q -139.823 636.215 -139.281 635.507 Q -138.740 634.800 -138.278 634.929 Q -137.815 635.059 -137.604 635.364 Q -137.393 635.669 -137.213 635.613 Q -137.033 635.556 -134.686 639.512 Q -132.339 643.469 -130.467 648.670 Q -128.594 653.872 -127.092 657.436 Q -125.590 660.999 -122.838 663.732 Q -120.086 666.465 -118.487 668.378 Q -116.888 670.291 -114.330 670.390 Q -111.773 670.490 -110.293 670.378 Q -108.813 670.266 -107.750 669.661 Q -106.686 669.056 -105.614 668.727 "></path>
    <path id="STROKE_b928e355-fe2c-47b3-a318-2b9d2cc0ce3a" opacity="1.000" fill="none" stroke="#ffffff" stroke-width="1.600" stroke-opacity="1.000" stroke-linecap="round" stroke-linejoin="round" d="M -119.111 622.553 Q -119.232 622.830 -110.823 615.923 "></path>
    <path id="STROKE_7032f603-0763-41cf-a78c-755909c7638d" opacity="1.000" fill="none" stroke="#ffffff" stroke-width="1.600" stroke-opacity="1.000" stroke-linecap="round" stroke-linejoin="round" d="M -114.849 629.657 Q -115.330 630.073 -112.634 627.607 Q -109.938 625.141 -108.307 622.480 Q -106.676 619.819 -105.377 617.580 "></path>
    <path id="STROKE_18947629-c835-453e-bacc-2dfe350eeeb3" opacity="1.000" fill="none" stroke="#ffffff" stroke-width="1.600" stroke-opacity="1.000" stroke-linecap="round" stroke-linejoin="round" d="M -92.590 592.244 Q -92.502 592.112 -92.770 589.908 Q -93.038 587.705 -91.762 585.495 Q -92.483 585.446 -89.541 587.664 Q -86.598 589.881 -84.484 596.671 Q -82.370 603.460 -80.988 614.502 Q -81.312 613.844 -80.988 608.109 Q -81.256 608.181 -79.498 609.574 Q -77.740 610.968 -76.004 611.463 Q -74.268 611.958 -73.424 611.980 Q -72.580 612.001 -71.503 610.645 Q -70.426 609.288 -69.889 607.302 Q -69.351 605.317 -69.385 603.610 "></path>
    <path id="STROKE_87f8a4bc-6312-4d54-a84f-f65eadddcc26" opacity="1.000" fill="none" stroke="#ffffff" stroke-width="1.600" stroke-opacity="1.000" stroke-linecap="round" stroke-linejoin="round" d="M -156.287 820.747 L 135.676 961.163 "></path>
    <path id="STROKE_bf6acfa7-dbf0-4c0f-aacd-91a9c14bea00" opacity="1.000" fill="none" stroke="#ffffff" stroke-width="1.600" stroke-opacity="1.000" stroke-linecap="round" stroke-linejoin="round" d="M -2.847 836.138 Q -2.501 835.435 -2.136 834.954 Q -2.774 835.650 -6.382 844.290 Q -9.990 852.929 -13.147 862.303 Q -11.957 862.742 -9.441 858.959 Q -6.925 855.175 -3.937 852.010 Q -0.948 848.845 6.033 843.834 Q 7.034 844.236 3.841 848.768 Q 0.649 853.299 -1.842 857.870 Q -4.334 862.441 -5.997 867.020 Q -7.661 871.600 -8.784 874.668 Q -9.906 877.735 -10.640 880.491 Q -11.373 883.247 -11.738 885.531 Q -12.102 887.816 -11.677 889.101 Q -11.253 890.385 -10.584 891.713 Q -9.914 893.041 -9.049 893.140 Q -8.183 893.239 -7.401 893.276 Q -6.619 893.313 -5.451 893.441 "></path>
    <path id="STROKE_fd280fb3-b0f4-4ab7-bab0-9cb7caaf48ee" opacity="1.000" fill="none" stroke="#ffffff" stroke-width="1.600" stroke-opacity="1.000" stroke-linecap="round" stroke-linejoin="round" d="M 24.858 851.766 Q 22.612 850.829 34.329 855.081 "></path>
    <path id="STROKE_0d2ebd14-9f9b-437d-875e-362bcd4c0c3a" opacity="1.000" fill="none" stroke="#ffffff" stroke-width="1.600" stroke-opacity="1.000" stroke-linecap="round" stroke-linejoin="round" d="M 17.517 861.948 Q 17.315 861.680 20.807 863.207 Q 24.300 864.734 30.777 864.553 "></path>
    <path id="STROKE_da5682df-a1ea-4973-a51e-41ca12419aea" opacity="1.000" fill="none" stroke="#ffffff" stroke-width="1.600" stroke-opacity="1.000" stroke-linecap="round" stroke-linejoin="round" d="M 57.772 857.212 Q 57.998 856.845 59.160 856.129 Q 60.322 855.414 61.671 855.593 Q 63.020 855.773 63.188 857.449 Q 63.355 859.125 61.643 861.727 Q 59.931 864.329 58.347 866.099 Q 56.764 867.869 56.222 868.884 Q 55.680 869.900 55.227 870.426 Q 54.773 870.952 55.841 872.458 Q 56.910 873.965 58.938 874.920 Q 60.966 875.875 62.268 876.926 Q 63.569 877.976 63.772 879.414 Q 63.976 880.852 63.201 881.879 Q 62.425 882.907 61.335 884.046 Q 60.245 885.184 57.249 885.820 Q 54.253 886.455 51.141 886.101 Q 51.141 885.783 51.141 885.391 "></path>
    <path id="STROKE_ce7bf545-2167-4d08-9452-d1095a216815" opacity="1.000" fill="none" stroke="#ffb352" stroke-width="1.600" stroke-opacity="1.000" stroke-linecap="round" stroke-linejoin="round" d="M 77.662 566.729 Q 77.780 566.848 77.899 566.966 Q 77.761 567.546 78.095 566.580 Q 78.430 565.615 77.928 564.403 Q 77.427 563.192 77.030 562.118 Q 76.632 561.045 75.888 560.603 Q 75.144 560.161 74.351 560.140 Q 73.558 560.119 73.282 560.216 Q 73.006 560.313 71.898 560.877 Q 70.790 561.442 70.199 562.288 Q 69.609 563.135 68.968 563.755 Q 68.328 564.375 67.629 567.871 Q 66.930 571.367 67.126 573.681 Q 67.321 575.995 67.669 577.271 Q 68.017 578.548 69.356 579.824 Q 70.695 581.101 71.542 581.475 Q 72.389 581.848 74.130 581.661 Q 75.872 581.474 77.743 580.196 Q 79.614 578.919 80.730 576.469 Q 81.846 574.020 82.239 571.752 Q 82.631 569.485 78.372 565.309 "></path>
    <path id="STROKE_10767d0e-dcf5-42dc-ad79-f284564355e8" opacity="1.000" fill="none" stroke="#ffb352" stroke-width="1.600" stroke-opacity="1.000" stroke-linecap="round" stroke-linejoin="round" d="M 66.533 624.684 Q 66.542 624.603 69.378 622.042 Q 72.214 619.481 74.528 617.536 Q 76.843 615.590 78.061 614.443 Q 79.279 613.295 80.030 612.371 Q 80.001 613.150 79.414 616.902 Q 78.827 620.654 78.981 623.599 Q 79.134 626.543 80.385 628.946 Q 81.258 629.040 81.214 629.183 Q 81.759 629.729 81.687 629.657 "></path>
    <path id="STROKE_6cfa3cb2-0c20-4a53-b3f2-cc025e40ddfa" opacity="1.000" fill="none" stroke="#ffb352" stroke-width="1.600" stroke-opacity="1.000" stroke-linecap="round" stroke-linejoin="round" d="M 208.002 836.994 Q 208.548 837.267 208.392 835.987 Q 208.236 834.706 207.814 833.587 Q 207.391 832.468 207.152 832.281 Q 206.914 832.095 206.997 832.237 Q 207.079 832.379 206.502 831.537 Q 205.924 830.695 204.497 831.679 Q 203.070 832.662 202.618 833.500 Q 202.166 834.338 201.947 835.141 Q 201.728 835.944 201.189 838.719 Q 200.651 841.493 201.062 843.876 Q 201.474 846.259 202.239 847.345 Q 203.005 848.430 203.469 848.875 Q 203.933 849.320 204.309 849.601 Q 204.685 849.883 206.576 849.765 Q 208.466 849.647 209.711 847.240 Q 210.955 844.834 211.431 843.407 Q 211.906 841.980 211.890 841.034 Q 211.875 840.089 211.233 838.639 Q 210.590 837.189 208.960 834.598 "></path>
    <path id="STROKE_50e4e22d-632d-40d1-9433-dd0aeb23ab5f" opacity="1.000" fill="none" stroke="#ffb352" stroke-width="1.600" stroke-opacity="1.000" stroke-linecap="round" stroke-linejoin="round" d="M 209.200 937.363 Q 209.790 936.782 207.403 931.135 Q 205.518 931.264 204.207 934.691 Q 202.896 938.117 202.738 940.776 Q 202.579 943.435 202.733 944.765 Q 202.886 946.094 203.430 946.869 Q 203.974 947.644 204.949 948.390 Q 205.925 949.135 206.466 949.702 Q 207.007 950.269 207.983 950.251 Q 208.959 950.233 210.234 949.301 Q 211.510 948.369 213.203 946.834 Q 214.897 945.299 215.224 942.674 Q 215.551 940.049 215.379 938.657 Q 215.207 937.264 214.288 936.149 Q 213.369 935.034 209.439 933.290 "></path>
    <path id="STROKE_5f3b825c-4336-4e30-81af-76a06702bab6" opacity="1.000" fill="none" stroke="#ffb352" stroke-width="1.600" stroke-opacity="1.000" stroke-linecap="round" stroke-linejoin="round" d="M 196.983 995.572 Q 197.141 995.411 197.618 995.026 Q 198.096 994.640 198.497 994.396 Q 198.899 994.151 198.850 994.025 Q 198.802 993.898 200.132 993.565 Q 201.461 993.232 203.537 991.360 Q 205.612 989.487 208.361 986.469 Q 208.801 986.261 208.731 990.551 Q 208.660 994.841 210.397 999.644 "></path>
  </g>
</svg>