<?xml version="1.0" encoding="utf-8"?>
<svg xmlns="http://www.w3.org/2000/svg" xmlns:xlink="http://www.w3.org/1999/xlink" version= "1.1" width="700px" height="700px" viewBox="930 432 700 700">
<g id="layer1">
<g style="fill:rgb(254,254,254); fill-opacity:1.0; stroke-linejoin: miter">
<path d="M1822.9978,446.80804C1822.5931,446.80804,1822.1837,446.91998,1821.8177,447.15442Q1788.346,468.59338,1775.896,481.0341L1775.88,481.0341Q1761.0021,493.3234,1728.5072,534.312L1728.4961,534.312Q1718.8887,544.4938,1714.488,547.841L1714.4572,547.86505Q1703.1298,556.80524,1696.3331,556.80524Q1692.8567,556.80524,1690.5656,554.4663C1690.1364,554.02814,1689.5682,553.8083,1688.9998,553.8083C1688.4464,553.8083,1687.8927,554.01654,1687.4662,554.4343C1686.6014,555.2814,1686.5872,556.669,1687.4342,557.5337Q1691.042,561.21686,1696.1826,561.21686Q1704.6051,561.21686,1717.1422,551.3299L1717.1418,551.3299Q1721.86,547.74115,1731.8193,537.177C1731.8623,537.13135,1731.9031,537.0843,1731.942,537.03516Q1764.3368,496.17297,1778.8353,484.2789C1778.8906,484.23352,1778.9437,484.1854,1778.9944,484.1348Q1791.1091,472.029,1824.182,450.84558C1825.2013,450.19272,1825.4983,448.8372,1824.8455,447.8179C1824.427,447.16464,1823.72,446.80804,1822.9978,446.80804 Z"/>
</g>
<g style="fill:rgb(254,254,254); fill-opacity:1.0; stroke-linejoin: miter">
</g>
<g style="fill:rgb(254,254,254); fill-opacity:1.0; stroke-linejoin: miter">
</g>
<g style="fill:rgb(254,254,254); fill-opacity:1.0; stroke-linejoin: miter">
</g>
<g style="fill:rgb(254,254,254); fill-opacity:1.0; stroke-linejoin: miter">
</g>
<g style="fill:rgb(254,254,254); fill-opacity:1.0; stroke-linejoin: miter">
</g>
<g style="fill:rgb(254,254,254); fill-opacity:1.0; stroke-linejoin: miter">
</g>
<g style="fill:rgb(254,254,254); fill-opacity:1.0; stroke-linejoin: miter">
</g>
<g style="fill:rgb(254,254,254); fill-opacity:1.0; stroke-linejoin: miter">
</g>
<g style="fill:rgb(254,254,254); fill-opacity:1.0; stroke-linejoin: miter">
</g>
<g style="fill:rgb(254,254,254); fill-opacity:1.0; stroke-linejoin: miter">
</g>
<g style="fill:rgb(254,254,254); fill-opacity:1.0; stroke-linejoin: miter">
</g>
<g style="fill:rgb(254,254,254); fill-opacity:1.0; stroke-linejoin: miter">
</g>
<g style="fill:rgb(254,254,254); fill-opacity:1.0; stroke-linejoin: miter">
</g>
<g style="fill:rgb(254,254,254); fill-opacity:1.0; stroke-linejoin: miter">
</g>
<g style="fill:rgb(254,254,254); fill-opacity:1.0; stroke-linejoin: miter">
</g>
<g style="fill:rgb(254,254,254); fill-opacity:1.0; stroke-linejoin: miter">
</g>
<g style="fill:rgb(254,254,254); fill-opacity:1.0; stroke-linejoin: miter">
</g>
<g style="fill:rgb(254,254,254); fill-opacity:1.0; stroke-linejoin: miter">
</g>
<g style="fill:rgb(254,254,254); fill-opacity:1.0; stroke-linejoin: miter">
</g>
<g style="fill:rgb(254,254,254); fill-opacity:1.0; stroke-linejoin: miter">
</g>
<g style="fill:rgb(254,254,254); fill-opacity:1.0; stroke-linejoin: miter">
</g>
<g style="fill:rgb(254,254,254); fill-opacity:1.0; stroke-linejoin: miter">
</g>
<g style="fill:rgb(254,254,254); fill-opacity:1.0; stroke-linejoin: miter">
</g>
<g style="fill:rgb(254,254,254); fill-opacity:1.0; stroke-linejoin: miter">
</g>
<g style="fill:rgb(254,254,254); fill-opacity:1.0; stroke-linejoin: miter">
</g>
<g style="fill:rgb(254,254,254); fill-opacity:1.0; stroke-linejoin: miter">
</g>
<g style="fill:rgb(254,254,254); fill-opacity:1.0; stroke-linejoin: miter">
</g>
<g style="fill:rgb(254,254,254); fill-opacity:1.0; stroke-linejoin: miter">
</g>
<g style="fill:rgb(254,254,254); fill-opacity:1.0; stroke-linejoin: miter">
<path d="M1701.387,780.1476L1701.387,780.1476L1701.8317,779.2583C1702.26,778.4017,1703.3015,778.05444,1704.1582,778.4828C1705.0149,778.9111,1705.362,779.9527,1704.9337,780.8093L1704.9337,780.8093L1704.489,781.6986C1704.0608,782.5552,1703.0192,782.9024,1702.1626,782.4741C1701.3059,782.0458,1700.9587,781.00415,1701.387,780.1476 Z"/>
</g>
<g style="fill:rgb(254,254,254); fill-opacity:1.0; stroke-linejoin: miter">
</g>
<g style="fill:rgb(254,254,254); fill-opacity:1.0; stroke-linejoin: miter">
</g>
<g style="fill:rgb(254,254,254); fill-opacity:1.0; stroke-linejoin: miter">
</g>
<g style="fill:rgb(254,254,254); fill-opacity:1.0; stroke-linejoin: miter">
</g>
<g style="fill:rgb(254,254,254); fill-opacity:1.0; stroke-linejoin: miter">
</g>
<g style="fill:rgb(254,254,254); fill-opacity:1.0; stroke-linejoin: miter">
</g>
<g style="fill:rgb(254,254,254); fill-opacity:1.0; stroke-linejoin: miter">
</g>
<g style="fill:rgb(254,254,254); fill-opacity:1.0; stroke-linejoin: miter">
</g>
<g style="fill:rgb(254,254,254); fill-opacity:1.0; stroke-linejoin: miter">
</g>
<g style="fill:rgb(254,254,254); fill-opacity:1.0; stroke-linejoin: miter">
</g>
<g style="fill:rgb(254,254,254); fill-opacity:1.0; stroke-linejoin: miter">
</g>
<g style="fill:rgb(254,254,254); fill-opacity:1.0; stroke-linejoin: miter">
</g>
<g style="fill:rgb(254,254,254); fill-opacity:1.0; stroke-linejoin: miter">
</g>
<g style="fill:rgb(254,254,254); fill-opacity:1.0; stroke-linejoin: miter">
</g>
<g style="fill:rgb(254,254,254); fill-opacity:1.0; stroke-linejoin: miter">
</g>
<g style="fill:rgb(254,254,254); fill-opacity:1.0; stroke-linejoin: miter">
</g>
<g style="fill:rgb(254,254,254); fill-opacity:1.0; stroke-linejoin: miter">
</g>
<g style="fill:rgb(254,254,254); fill-opacity:1.0; stroke-linejoin: miter">
</g>
<g style="fill:rgb(254,254,254); fill-opacity:1.0; stroke-linejoin: miter">
<path d="M1419.3502,490.08298Q1440.3706,490.08298,1465.7473,499.8131L1465.7441,499.8131Q1513.6464,520.75104,1552.2357,572.2452L1552.2201,572.2452Q1564.9916,599.07916,1562.6166,641.1828L1562.6094,641.1828Q1559.0516,662.5749,1548.7156,702.67114L1548.7001,702.67114Q1529.0084,744.47534,1475.0297,815.9981C1474.9884,816.05273,1474.9518,816.1109,1474.9202,816.17163Q1458.8936,847.0017,1432.2711,923.02094L1432.2568,923.02094L1410.1478,955.3998L1410.1461,955.3998Q1355.2251,1028.0914,1229.121,1028.0914Q1226.5454,1028.0914,1223.9402,1028.061L1223.9332,1028.061Q1188.0532,1026.788,1163.5089,1013.4082L1163.4973,1013.4082Q1135.5459,988.69055,1072.2474,971.26135L1072.2367,971.26135L1050.3342,955.0141L1050.3237,955.0141Q1020.3181,893.31866,1033.4441,840.4214C1033.4586,840.3629,1033.4689,840.30347,1033.4746,840.24347Q1038.947,783.5687,1089.4998,717.23364L1089.4954,717.23364Q1101.1985,704.08545,1117.1792,690.8219L1117.168,690.8219L1207.9578,633.8925C1208.0253,633.8502,1208.0883,633.8015,1208.1464,633.74695Q1230.4888,612.75653,1237.5153,601.52045C1237.5696,601.43365,1237.6127,601.3406,1237.6438,601.24304Q1255.4116,545.66864,1269.8328,537.9726C1269.9291,537.92114,1270.0182,537.85706,1270.0977,537.7821Q1285.0237,523.69525,1302.0027,523.69525Q1302.931,523.69525,1303.8655,523.73737L1303.8524,523.73737Q1302.8513,528.54987,1303.6194,530.0877L1303.6194,530.0877Q1303.6366,530.1224,1303.657,530.1599L1303.6576,530.1611Q1304.2247,531.2053,1305.2672,531.2053Q1305.5424,531.2053,1305.8507,531.13257Q1306.2178,531.04596,1306.6096,530.8332L1306.6914,530.78467L1322.3127,520.66705L1322.326,520.66705Q1322.3658,520.6674,1322.4065,520.6674Q1329.0663,520.6674,1361.3562,510.35287C1361.4491,510.3232,1361.5381,510.2826,1361.6213,510.2319Q1392.9436,491.16287,1400.0016,491.16287Q1401.016,491.16287,1401.5292,491.55685C1401.7457,491.7231,1402.0093,491.81104,1402.2776,491.81104C1402.3625,491.81104,1402.4479,491.80225,1402.5323,491.78433Q1410.5604,490.08298,1419.3502,490.08298 Z M1419.3473,487.625Q1410.5465,487.625,1402.4713,489.2859L1402.4713,489.2859Q1401.7183,488.9622,1400.5813,488.9622Q1391.8467,488.9622,1360.4535,508.065L1360.4398,508.065Q1328.6508,518.2145,1322.5287,518.2145Q1322.2794,518.2145,1322.0728,518.19763C1322.0394,518.19495,1322.0062,518.19354,1321.9729,518.19354C1321.7366,518.19354,1321.5044,518.26184,1321.3048,518.39105L1305.7031,528.496L1305.7031,528.496Q1305.5931,527.27496,1306.3256,523.92145L1306.3386,523.92145Q1308.037,524.0973,1309.7554,524.4099C1309.8297,524.42346,1309.9038,524.43,1309.9768,524.43C1310.5593,524.43,1311.0767,524.0141,1311.1846,523.42065C1311.306,522.7528,1310.8632,522.113,1310.1953,521.99146Q1306.0168,521.2313,1301.9547,521.2313Q1284.1101,521.2313,1268.5103,535.9003L1268.4976,535.9003Q1253.284,544.28955,1235.3372,600.3861L1235.3248,600.3861Q1228.4135,611.327,1206.5264,631.8961L1206.5144,631.8961L1115.8392,688.7536C1115.7933,688.7824,1115.7494,688.8143,1115.7076,688.8489Q1099.5211,702.27277,1087.6592,715.59924L1087.5999,715.67126Q1036.58,782.5922,1031.0299,839.98596L1031.0195,839.98596Q1017.7344,893.79486,1048.2395,956.3488C1048.3259,956.526,1048.4536,956.67975,1048.6119,956.7972L1070.9503,973.3678C1071.0724,973.4584,1071.2103,973.5255,1071.3569,973.5658Q1134.3875,990.8893,1161.9524,1015.32355C1162.0212,1015.3846,1162.0968,1015.43774,1162.1775,1015.48193Q1187.2776,1029.2223,1223.8595,1030.5181L1223.8885,1030.5188Q1226.5204,1030.5496,1229.1222,1030.5496Q1356.4906,1030.5496,1412.1438,956.83344L1412.1779,956.786L1434.4077,924.2302C1434.4684,924.14136,1434.5172,924.04486,1434.5527,923.9433Q1461.0774,848.19244,1477.0214,817.45935L1477.0066,817.45935Q1531.2413,745.5953,1551.008,703.5397C1551.0408,703.4702,1551.0668,703.398,1551.0859,703.32367Q1561.489,662.97107,1565.0563,641.453C1565.0635,641.4093,1565.0685,641.3654,1565.0709,641.3212Q1567.4889,598.4573,1554.3582,571.018C1554.3234,570.9452,1554.2815,570.87616,1554.2332,570.8116Q1515.2239,518.74,1466.6793,497.53915L1466.6274,497.51788Q1440.8263,487.625,1419.3473,487.625 Z"/>
</g>
<g style="fill:rgb(254,254,254); fill-opacity:1.0; stroke-linejoin: miter">
</g>
<g style="fill:rgb(254,254,254); fill-opacity:1.0; stroke-linejoin: miter">
<path d="M1310.3679,806.0032L1310.3456,806.00336Q1309.0303,806.097,1308.0614,806.68463L1307.5734,807.01044Q1307.0988,807.36755,1306.6771,807.84973Q1306.2556,808.33185,1305.8871,808.9391Q1304.4806,809.37506,1303.5059,810.3778L1303.0406,810.9146Q1302.6007,811.4869,1302.2623,812.2008Q1301.9337,812.8741,1301.667,813.8518Q1301.5056,814.6394,1301.4279,815.37006Q1301.3065,817.14685,1301.3826,817.4339Q1301.4778,818.7244,1301.9075,819.78723Q1301.8436,822.19446,1302.2639,822.9927Q1303.331,825.61975,1306.5824,825.85284Q1307.3508,825.8449,1308.1188,825.48926Q1309.138,825.7159,1310.7003,825.2333Q1310.8851,825.1714,1311.0736,825.03656Q1311.673,824.63214,1311.837,824.47626Q1312.2476,824.365,1313.3943,823.65137Q1314.2992,823.0191,1314.9731,822.11Q1315.7719,820.91296,1315.8412,820.5905Q1316.522,820.3733,1317.0416,819.97614Q1317.1967,819.90497,1317.7305,819.2792Q1318.163,818.9634,1318.5513,817.0231Q1318.9713,814.90875,1318.4681,813.4664Q1318.2913,812.8631,1317.8306,812.4301Q1317.1509,811.7306,1316.7188,811.5253L1316.5831,811.35675Q1316.3419,810.25653,1315.9058,809.38116L1315.4209,808.56195Q1313.869,806.27496,1310.3679,806.0032"/>
</g>
<g style="fill:rgb(30,160,25); fill-opacity:1.0; stroke-linejoin: miter">
<path d="M1317.0486,714.69244Q1317.0076,714.69244,1316.97,714.6943L1316.9701,714.6943Q1315.9702,714.74335,1315.5881,715.5213L1315.5872,715.5231Q1315.5079,715.68494,1315.4722,715.86304C1315.3384,716.5285,1315.7693,717.17645,1316.4348,717.3103C1316.5166,717.3268,1316.5981,717.33466,1316.6785,717.33466C1316.9065,717.33466,1317.125,717.2709,1317.3129,717.1572L1317.326,717.1572Q1322.5378,717.6508,1377.8384,744.742L1377.8247,744.742Q1384.8329,749.3874,1395.8232,764.50604C1395.8928,764.6018,1395.976,764.687,1396.07,764.75903Q1399.7664,767.5909,1403.5951,787.83435L1403.5903,787.83435Q1405.9044,811.10736,1400.776,831.14496L1400.7584,831.2242Q1394.9567,862.30927,1371.4633,889.81885C1371.4132,889.8774,1371.3689,889.9406,1371.3307,890.00745Q1367.4844,896.74133,1335.2291,913.80255L1335.226,913.80255Q1321.4258,920.27313,1302.9933,920.27313Q1284.9677,920.27313,1262.5117,914.08496C1262.4502,914.068,1262.3873,914.05585,1262.3239,914.04865Q1243.3145,911.8901,1222.357,888.63477L1222.3467,888.63477Q1210.1586,871.59766,1209.6965,835.11414L1209.7037,835.11414Q1214.3401,786.9063,1227.7201,767.91895L1227.7201,767.91895L1242.4878,747.2708L1242.4753,747.2708Q1263.7454,729.29663,1271.5496,727.1976C1271.6146,727.18005,1271.6781,727.1573,1271.7394,727.1294Q1288.246,719.61774,1299.2368,719.61774Q1308.8408,719.61774,1314.2332,725.3533C1314.475,725.61053,1314.8015,725.7404,1315.1289,725.7404C1315.4308,725.7404,1315.7333,725.6299,1315.9706,725.4068C1316.4651,724.94183,1316.4891,724.164,1316.0242,723.66943Q1309.9143,717.1707,1299.2799,717.1707Q1287.7122,717.1707,1270.7909,724.86035L1270.7781,724.86035Q1262.3889,727.2152,1240.8026,745.46594C1240.725,745.5316,1240.6556,745.60675,1240.5964,745.6895L1225.7206,766.4889L1225.7158,766.4957Q1211.9377,786.04047,1207.244,835.01245C1207.2397,835.0565,1207.2379,835.101,1207.2385,835.14526Q1207.7103,872.4004,1220.3474,890.06506C1220.374,890.1022,1220.4027,890.13794,1220.4332,890.1719Q1242.0269,914.17773,1261.9723,916.48267L1261.9597,916.48267Q1284.6654,922.72845,1302.9949,922.72845Q1322.0176,922.72845,1336.3268,916.00134L1336.3785,915.9755Q1368.9126,898.7668,1373.372,891.3853L1373.3583,891.3853Q1397.2258,863.4242,1403.1602,831.75446L1403.1573,831.75446Q1408.4054,811.24927,1406.0258,787.4835L1406.0104,787.37756Q1402.0911,766.6549,1397.7511,762.95825L1397.737,762.95825Q1386.4514,747.45074,1379.0686,742.61786C1379.026,742.59,1378.9818,742.5648,1378.9362,742.5424Q1322.0873,714.69244,1317.0486,714.69244 Z"/>
</g>
</g>
</svg>