<?xml version="1.0" encoding="utf-8"?>
<svg xmlns="http://www.w3.org/2000/svg" xmlns:xlink="http://www.w3.org/1999/xlink" version= "1.1" width="700px" height="700px" viewBox="930 432 700 700">
<rect x="930" y="432" width="700" height="700" fill="rgb(0,0,0)"/>
<g id="layer1">
<g style="fill:rgb(255,255,255); fill-opacity:1.0; stroke-linejoin: miter">
<path d="M1824.182,450.84558L1824.182,450.84558Q1791.1091,472.029,1778.9944,484.1348C1778.9437,484.1854,1778.8906,484.23352,1778.8353,484.2789L1778.8353,484.2789Q1764.3368,496.17297,1731.942,537.03516C1731.9031,537.0843,1731.8623,537.13135,1731.8193,537.177L1731.8193,537.177Q1721.86,547.74115,1717.1418,551.3299L1717.1727,551.30585Q1696.9602,567.25867,1687.4342,557.5337C1686.5872,556.669,1686.6014,555.2814,1687.4662,554.4343C1688.3309,553.5873,1689.7185,553.6016,1690.5656,554.4663L1690.5656,554.4663Q1697.3359,561.37805,1714.4572,547.86505L1714.488,547.841Q1718.9193,544.4705,1728.6299,534.17017L1728.5072,534.312Q1761.194,493.08142,1776.055,480.88998L1775.896,481.0341Q1788.346,468.59338,1821.8177,447.15442C1822.837,446.50156,1824.1926,446.7986,1824.8455,447.8179C1825.4983,448.8372,1825.2013,450.19272,1824.182,450.84558 Z"/>
</g>
<g style="fill:rgb(255,255,255); fill-opacity:1.0; stroke-linejoin: miter">
</g>
<g style="fill:rgb(255,255,255); fill-opacity:1.0; stroke-linejoin: miter">
</g>
<g style="fill:rgb(255,255,255); fill-opacity:1.0; stroke-linejoin: miter">
</g>
<g style="fill:rgb(255,255,255); fill-opacity:1.0; stroke-linejoin: miter">
</g>
<g style="fill:rgb(255,255,255); fill-opacity:1.0; stroke-linejoin: miter">
</g>
<g style="fill:rgb(255,255,255); fill-opacity:1.0; stroke-linejoin: miter">
</g>
<g style="fill:rgb(255,255,255); fill-opacity:1.0; stroke-linejoin: miter">
</g>
<g style="fill:rgb(255,255,255); fill-opacity:1.0; stroke-linejoin: miter">
</g>
<g style="fill:rgb(255,255,255); fill-opacity:1.0; stroke-linejoin: miter">
</g>
<g style="fill:rgb(255,255,255); fill-opacity:1.0; stroke-linejoin: miter">
</g>
<g style="fill:rgb(255,255,255); fill-opacity:1.0; stroke-linejoin: miter">
</g>
<g style="fill:rgb(255,255,255); fill-opacity:1.0; stroke-linejoin: miter">
</g>
<g style="fill:rgb(255,255,255); fill-opacity:1.0; stroke-linejoin: miter">
</g>
<g style="fill:rgb(255,255,255); fill-opacity:1.0; stroke-linejoin: miter">
</g>
<g style="fill:rgb(255,255,255); fill-opacity:1.0; stroke-linejoin: miter">
</g>
<g style="fill:rgb(255,255,255); fill-opacity:1.0; stroke-linejoin: miter">
</g>
<g style="fill:rgb(255,255,255); fill-opacity:1.0; stroke-linejoin: miter">
</g>
<g style="fill:rgb(255,255,255); fill-opacity:1.0; stroke-linejoin: miter">
</g>
<g style="fill:rgb(255,255,255); fill-opacity:1.0; stroke-linejoin: miter">
</g>
<g style="fill:rgb(255,255,255); fill-opacity:1.0; stroke-linejoin: miter">
</g>
<g style="fill:rgb(255,255,255); fill-opacity:1.0; stroke-linejoin: miter">
</g>
<g style="fill:rgb(255,255,255); fill-opacity:1.0; stroke-linejoin: miter">
</g>
<g style="fill:rgb(255,255,255); fill-opacity:1.0; stroke-linejoin: miter">
</g>
<g style="fill:rgb(255,255,255); fill-opacity:1.0; stroke-linejoin: miter">
</g>
<g style="fill:rgb(255,255,255); fill-opacity:1.0; stroke-linejoin: miter">
</g>
<g style="fill:rgb(255,255,255); fill-opacity:1.0; stroke-linejoin: miter">
</g>
<g style="fill:rgb(255,255,255); fill-opacity:1.0; stroke-linejoin: miter">
</g>
<g style="fill:rgb(255,255,255); fill-opacity:1.0; stroke-linejoin: miter">
</g>
<g style="fill:rgb(255,255,255); fill-opacity:1.0; stroke-linejoin: miter">
<path d="M1701.387,780.1475L1701.387,780.1475L1701.8317,779.25824C1702.26,778.4017,1703.3018,778.0545,1704.1583,778.48285C1705.0149,778.9112,1705.362,779.9528,1704.9337,780.8094L1704.9337,780.8094L1704.489,781.69867C1704.0607,782.55524,1703.0189,782.9024,1702.1624,782.47406C1701.3058,782.0457,1700.9586,781.0041,1701.387,780.1475 Z"/>
</g>
<g style="fill:rgb(255,255,255); fill-opacity:1.0; stroke-linejoin: miter">
</g>
<g style="fill:rgb(255,255,255); fill-opacity:1.0; stroke-linejoin: miter">
</g>
<g style="fill:rgb(255,255,255); fill-opacity:1.0; stroke-linejoin: miter">
</g>
<g style="fill:rgb(255,255,255); fill-opacity:1.0; stroke-linejoin: miter">
</g>
<g style="fill:rgb(255,255,255); fill-opacity:1.0; stroke-linejoin: miter">
</g>
<g style="fill:rgb(255,255,255); fill-opacity:1.0; stroke-linejoin: miter">
</g>
<g style="fill:rgb(255,255,255); fill-opacity:1.0; stroke-linejoin: miter">
</g>
<g style="fill:rgb(255,255,255); fill-opacity:1.0; stroke-linejoin: miter">
</g>
<g style="fill:rgb(255,255,255); fill-opacity:1.0; stroke-linejoin: miter">
</g>
<g style="fill:rgb(255,255,255); fill-opacity:1.0; stroke-linejoin: miter">
</g>
<g style="fill:rgb(255,255,255); fill-opacity:1.0; stroke-linejoin: miter">
</g>
<g style="fill:rgb(255,255,255); fill-opacity:1.0; stroke-linejoin: miter">
</g>
<g style="fill:rgb(255,255,255); fill-opacity:1.0; stroke-linejoin: miter">
</g>
<g style="fill:rgb(255,255,255); fill-opacity:1.0; stroke-linejoin: miter">
</g>
<g style="fill:rgb(255,255,255); fill-opacity:1.0; stroke-linejoin: miter">
</g>
<g style="fill:rgb(255,255,255); fill-opacity:1.0; stroke-linejoin: miter">
</g>
<g style="fill:rgb(255,255,255); fill-opacity:1.0; stroke-linejoin: miter">
</g>
<g style="fill:rgb(255,255,255); fill-opacity:1.0; stroke-linejoin: miter">
</g>
<g style="fill:rgb(254,254,254); fill-opacity:1.0; stroke-linejoin: miter">
<path d="M1419.3502,490.08298L1424.0752,490.2031Q1461.0035,493.90173,1486.5742,510.6284Q1538.6907,548.03455,1552.2357,572.2451Q1562.1316,588.713,1563.2937,633.652Q1563.6798,643.3068,1548.7156,702.67114Q1516.9119,762.8983,1474.9365,816.1415Q1458.6953,847.7206,1432.2712,923.02094Q1408.5889,959.4118,1399.1895,968.746Q1372.3486,997.1255,1336.6221,1010.34436Q1287.7605,1025.5815,1274.0464,1025.2272Q1250.8164,1028.0619,1223.9332,1028.062Q1192.973,1025.9333,1178.372,1020.2368L1163.4973,1013.4092Q1147.4954,1000.1506,1131.6694,992.87695Q1102.0017,979.13385,1072.2368,971.2623L1050.3237,955.01514Q1032.5427,918.4541,1029.9078,884.98334Q1027.4946,850.6225,1042.1318,801.38696Q1061.1848,752.08014,1089.4999,717.23364Q1095.142,709.9172,1117.168,690.8229L1207.9746,633.88184L1217.3198,624.8996Q1232.8768,609.00037,1236.7644,602.84174Q1255.4326,545.8718,1269.893,537.49524Q1278.4598,529.993,1288.8123,525.81805Q1298.7443,523.14075,1303.8655,523.73737Q1302.0026,532.0044,1306.0151,531.0878L1322.3127,520.66705Q1324.3628,521.90967,1361.4703,510.31018Q1387.5166,494.82495,1394.2776,492.48434L1419.3502,490.08298 M1419.3473,487.625L1417.4005,487.6455Q1401.1604,488.3616,1393.3655,490.20493Q1377.2257,497.70877,1360.4536,508.065Q1324.1282,519.4947,1321.4602,518.30566L1305.7031,528.496L1306.3254,523.92145Q1312.4711,525.7199,1310.3574,522.03235Q1302.8658,519.81323,1288.0835,523.454Q1277.2063,527.81464,1268.4642,535.5043Q1252.8914,545.28784,1235.3373,600.3861Q1227.9447,610.9044,1218.032,620.7728L1206.5264,631.8961L1115.7719,688.7991Q1093.3633,708.182,1087.5999,715.67126Q1059.0243,750.8154,1039.7821,800.6649Q1010.8078,891.89136,1048.3988,956.59546L1071.1107,973.46875Q1114.8888,986.95386,1123.2458,991.3739L1142.4834,1001.4532Q1153.7852,1008.08386,1162.1376,1015.45917Q1167.149,1018.20374,1172.545,1020.4266Q1193.4192,1029.7078,1229.1222,1030.5496Q1254.2815,1030.5494,1276.6425,1027.6732Q1330.0964,1017.9658,1337.4293,1012.57275Q1372.678,999.1621,1401.0481,970.3634Q1410.5776,960.88745,1434.5127,924.0431Q1461.0352,848.5385,1477.0066,817.4603Q1547.1477,720.8348,1551.0457,703.45154Q1566.148,643.6497,1565.7563,633.6958Q1564.5854,587.90753,1554.2793,570.8777Q1539.7183,552.39844,1524.9653,538.021Q1510.2124,523.6435,1495.268,513.36774L1480.2756,504.11746Q1450.1947,487.6677,1419.3473,487.625 Z"/>
</g>
<g style="fill:rgb(255,255,255); fill-opacity:1.0; stroke-linejoin: miter">
</g>
<g style="fill:rgb(254,254,254); fill-opacity:1.0; stroke-linejoin: miter">
<path d="M1310.3678,806.0032L1310.3379,806.0035L1310.0283,806.03033Q1309.6747,807.5529,1308.6854,809.13135L1308.0239,810.09686Q1307.3312,811.00836,1306.5149,811.7039L1305.6676,812.34546Q1304.7892,812.93274,1303.7871,813.3044Q1302.7852,813.67584,1301.6589,813.8312Q1301.3407,815.7814,1301.3708,816.0865Q1301.3348,816.78864,1301.3824,817.43396Q1301.4778,818.7244,1301.9073,819.78723Q1301.8435,822.1946,1302.2639,822.9927Q1303.331,825.6198,1306.5824,825.85284Q1307.3475,825.8458,1308.1187,825.48926Q1309.1381,825.7158,1310.7003,825.2333Q1310.8851,825.17126,1311.0735,825.0367Q1311.6714,824.63245,1311.8369,824.4782Q1312.2478,824.36395,1313.3939,823.6515Q1314.2986,823.01935,1314.9727,822.11053Q1315.7711,820.9134,1315.8413,820.5924Q1316.7574,820.3928,1317.7305,819.2793Q1317.8955,819.09375,1318.1578,818.54065Q1318.3949,817.7934,1318.5997,816.8383Q1317.7443,815.7529,1317.2206,814.4862Q1316.5262,812.8186,1316.4626,810.8676L1316.1476,809.9223Q1315.7885,809.0277,1315.2539,808.3356Q1313.6987,806.2614,1310.3678,806.0032 Z"/>
</g>
<g style="fill:rgb(255,255,255); fill-opacity:1.0; stroke-linejoin: miter">
</g>
<g style="fill:rgb(255,255,255); fill-opacity:1.0; stroke-linejoin: miter">
</g>
<g style="fill:rgb(255,255,255); fill-opacity:1.0; stroke-linejoin: miter">
</g>
<g style="fill:rgb(255,255,255); fill-opacity:1.0; stroke-linejoin: miter">
</g>
<g style="fill:rgb(255,255,255); fill-opacity:1.0; stroke-linejoin: miter">
</g>
<g style="fill:rgb(255,255,255); fill-opacity:1.0; stroke-linejoin: miter">
</g>
<g style="fill:rgb(255,255,255); fill-opacity:1.0; stroke-linejoin: miter">
</g>
<g style="fill:rgb(28,151,23); fill-opacity:1.0; stroke-linejoin: miter">
</g>
<g style="fill:rgb(255,255,255); fill-opacity:1.0; stroke-linejoin: miter">
</g>
<g style="fill:rgb(255,255,255); fill-opacity:1.0; stroke-linejoin: miter">
</g>
<g style="fill:rgb(28,151,23); fill-opacity:1.0; stroke-linejoin: miter">
</g>
<g style="fill:rgb(255,255,255); fill-opacity:1.0; stroke-linejoin: miter">
</g>
<g style="fill:rgb(255,255,255); fill-opacity:1.0; stroke-linejoin: miter">
</g>
<g style="fill:rgb(255,255,255); fill-opacity:1.0; stroke-linejoin: miter">
</g>
<g style="fill:rgb(254,254,254); fill-opacity:1.0; stroke-linejoin: miter">
</g>
<g style="fill:rgb(254,254,254); fill-opacity:1.0; stroke-linejoin: miter">
</g>
<g style="fill:rgb(255,255,255); fill-opacity:1.0; stroke-linejoin: miter">
</g>
<g style="fill:rgb(255,255,255); fill-opacity:1.0; stroke-linejoin: miter">
</g>
<g style="fill:rgb(254,254,254); fill-opacity:1.0; stroke-linejoin: miter">
</g>
<g style="fill:rgb(255,255,255); fill-opacity:1.0; stroke-linejoin: miter">
</g>
<g style="fill:rgb(255,255,255); fill-opacity:1.0; stroke-linejoin: miter">
</g>
<g style="fill:rgb(255,255,255); fill-opacity:1.0; stroke-linejoin: miter">
</g>
<g style="fill:rgb(255,255,255); fill-opacity:1.0; stroke-linejoin: miter">
</g>
<g style="fill:rgb(254,254,254); fill-opacity:1.0; stroke-linejoin: miter">
<path d="M1328.0529,807.5305Q1327.7698,807.72833,1327.4847,807.94977L1327.503,807.95074C1327.6896,807.81366,1327.8802,807.6845,1328.0751,807.56226L1328.0883,807.56323C1328.0809,807.5517,1328.0735,807.5411,1328.0662,807.5305 Z"/>
</g>
<g style="fill:rgb(254,254,254); fill-opacity:1.0; stroke-linejoin: miter">
<path d="M1329.9504,790.2118L1329.9501,790.2111Q1329.8104,789.9915,1329.7051,789.7085L1329.7056,789.7098Q1329.5848,789.38617,1329.4788,788.894L1329.4656,788.8262Q1329.422,788.5772,1329.4012,788.3131L1329.3961,788.2082Q1329.3767,787.1786,1329.3376,786.9307L1329.3298,786.87537L1329.3296,786.8734L1329.328,786.8603Q1329.2649,786.32263,1329.0541,785.4399L1329.038,785.36566Q1328.892,784.6116,1328.5433,784.1328C1327.9713,783.34717,1328.1443,782.2466,1328.9299,781.6745C1329.7156,781.1024,1330.8163,781.2755,1331.3883,782.06116L1331.3883,782.06116Q1332.1984,783.1737,1332.4933,784.6966L1332.4772,784.6224Q1332.7361,785.70654,1332.8234,786.45L1332.8218,786.4369L1332.822,786.43884L1332.8142,786.3835Q1332.8909,786.8707,1332.9149,788.14166L1332.9098,788.03674Q1332.9176,788.1353,1332.9324,788.2201L1332.9192,788.1523Q1332.9716,788.3951,1333.0032,788.4799L1333.0037,788.4812Q1332.9796,788.4167,1332.9196,788.3222C1333.4412,789.1413,1333.1998,790.229,1332.38,790.751C1331.5602,791.27295,1330.4724,791.03156,1329.9504,790.2118 Z"/>
</g>
<g style="fill:rgb(254,254,254); fill-opacity:1.0; stroke-linejoin: miter">
<path d="M1330.3516,766.82715Q1330.33,766.82715,1330.3082,766.82764C1330.169,766.8306,1330.0305,766.85016,1329.5597,767.0127L1329.5597,767.0137L1329.8602,766.8992L1329.8469,766.90015Q1329.1178,767.1049,1328.6782,767.6201L1328.6782,767.6211Q1328.5552,767.6031,1328.4296,767.6031Q1328.2106,767.6031,1327.9834,767.6548L1327.9701,767.65576Q1327.1069,767.78827,1326.4347,768.5527L1326.4343,768.55304Q1326.1472,768.87964,1325.8922,769.33545L1325.8922,769.33527C1325.8256,769.4543,1325.773,769.5809,1325.7356,769.71204Q1324.9044,772.6262,1324.7224,773.0587L1324.7175,773.0597C1324.416,773.6631,1324.491,774.3875,1324.8984,774.91626L1324.8853,774.91724Q1324.8651,774.9772,1324.8488,775.0374L1324.8354,775.0384L1323.4293,775.83624C1322.6848,776.2592,1322.3529,777.1567,1322.643,777.96234C1322.8975,778.6692,1323.5658,779.1253,1324.3002,779.1253C1324.4027,779.1253,1324.5065,779.1164,1324.6106,779.0981L1324.6107,779.09906Q1324.6107,779.0981,1324.6119,779.09784L1324.6222,779.096Q1325.1621,778.99786,1326.0546,778.63794L1326.0413,778.6389C1326.4951,778.6353,1326.9462,778.4578,1327.2869,778.1123L1327.2869,778.1133Q1327.3387,778.0611,1327.4756,777.9796L1327.47,777.9806L1328.3947,777.5129L1328.3813,777.51385Q1329.332,777.14905,1329.7506,776.9457L1329.7373,776.94666Q1330.0479,776.8197,1330.4736,776.5713L1330.4603,776.57227Q1330.556,776.53625,1330.6538,776.4998L1330.7223,776.4726Q1331.5275,776.13336,1331.9954,775.8331L1332.0688,775.7833Q1332.4237,775.5295,1332.736,775.31213L1332.7465,775.3131C1332.8392,775.28894,1332.9298,775.25824,1333.0176,775.22034Q1333.6442,774.94965,1334.0563,774.4467L1334.043,774.4477Q1334.1417,774.3864,1334.2306,774.3346C1335.0702,773.8452,1335.3541,772.7678,1334.8647,771.92816C1334.7762,771.77637,1334.6686,771.64276,1334.5465,771.52856L1334.5332,771.52954Q1334.4691,771.3309,1334.3805,771.1349C1334.3561,771.0808,1334.3286,771.02765,1334.3047,770.98645L1334.3042,770.9856L1334.2983,770.9754Q1332.7108,768.23975,1331.8577,767.46594Q1331.1534,766.82715,1330.3516,766.82715 Z"/>
</g>
<g style="fill:rgb(254,254,254); fill-opacity:1.0; stroke-linejoin: miter">
<path d="M1315.9233,750.0738Q1315.1454,750.0738,1314.3147,750.6301L1314.3146,750.6302Q1314.127,750.75586,1313.9436,750.91394L1313.9304,750.9149Q1313.839,750.96783,1313.7478,751.0285L1313.7478,751.0295Q1312.7681,751.6804,1311.9941,753.1723L1311.9941,753.17236C1311.9591,753.23987,1311.9286,753.3093,1311.9026,753.3808Q1311.16,755.4209,1311.4417,757.8637L1311.4454,757.89355L1311.454,757.89453Q1311.1534,759.3753,1311.4929,761.1073C1311.5063,761.1756,1311.5238,761.2435,1311.5452,761.30975Q1312.0211,762.7832,1313.2269,763.48956L1313.2589,763.5078Q1314.1555,764.0082,1315.1173,764.0082Q1315.1752,764.0082,1315.2333,764.00635L1315.2463,764.0073Q1315.4673,764.27435,1315.7227,764.51733L1315.7869,764.5755Q1316.1904,764.92316,1316.64,765.1376L1316.6401,765.13763Q1317.3315,765.4673,1318.0712,765.4673Q1318.3372,765.4673,1318.6093,765.4247L1318.6095,765.4246Q1319.7356,765.24817,1320.8259,764.33466L1320.9109,764.25854Q1321.6656,763.53796,1322.1366,762.7761L1322.1233,762.7771Q1323.2937,762.26074,1324.112,761.28754C1324.1425,761.25146,1324.1715,761.2139,1324.1989,761.1755Q1325.3947,759.4958,1325.2391,757.7108C1325.2332,757.64246,1325.2233,757.5746,1325.2094,757.5074Q1324.8702,755.8662,1323.6112,754.195L1323.6,754.18036Q1323.4341,753.9649,1323.2655,753.77014L1323.2522,753.7711Q1322.385,751.19977,1319.9736,750.6055C1319.932,750.5953,1319.8899,750.58655,1319.8477,750.57935Q1319.3649,750.49725,1318.9171,750.49725Q1318.1804,750.49725,1317.539,750.7196L1317.539,750.7206Q1316.7617,750.0738,1315.9233,750.0738 Z"/>
</g>
<g style="fill:rgb(254,254,254); fill-opacity:1.0; stroke-linejoin: miter">
<path d="M1307.6798,763.6734C1307.6844,763.67426,1307.6891,763.6751,1307.6938,763.67596L1307.6799,763.67694Q1307.6733,763.6747,1307.6667,763.6734 Z"/>
</g>
<g style="fill:rgb(254,254,254); fill-opacity:1.0; stroke-linejoin: miter">
<path d="M1307.8324,760.14246Q1307.051,760.14246,1306.3163,760.7612C1306.2428,760.8231,1306.1746,760.89087,1306.1122,760.9639Q1305.5667,761.60223,1305.3724,761.7605L1305.3599,761.7615Q1304.3972,762.4131,1304.0732,762.6928Q1303.9388,762.8089,1303.8389,762.9204L1303.7866,762.9814Q1303.3801,763.4788,1303.013,763.85815C1302.988,763.8571,1302.9633,763.85657,1302.9384,763.85657C1302.3728,763.85657,1301.8174,764.1288,1301.4774,764.6332Q1301.2064,765.0354,1301.0635,765.32135Q1300.2609,766.92633,1301.6016,767.82983Q1302.0808,768.15295,1302.6025,768.15295Q1303.1443,768.15295,1303.7317,767.8045L1303.7319,767.8043Q1303.9178,767.694,1304.1456,767.5268L1304.1451,767.5278Q1305.2147,766.7693,1306.3975,765.3472L1306.3844,765.3482Q1306.5315,765.2237,1307.0344,764.8782L1307.0475,764.87915Q1307.0801,765.1343,1307.116,765.4253C1307.1241,765.49164,1307.136,765.5571,1307.1516,765.62213Q1307.2128,765.8763,1307.2932,766.12506C1307.3068,766.1669,1307.322,766.2085,1307.3386,766.2492Q1307.6533,767.01965,1307.7092,767.20886L1307.6998,767.20984C1307.7034,767.22504,1307.7072,767.24115,1307.7112,767.25726Q1307.7122,767.2614,1307.7122,767.2614L1307.7123,767.2624Q1307.7635,767.48816,1307.662,768.1337C1307.5109,769.09375,1308.1664,769.99457,1309.1265,770.14575C1309.2192,770.16034,1309.3114,770.1674,1309.4023,770.1674C1310.2535,770.1674,1311.0021,769.5485,1311.1385,768.6812Q1311.3188,767.5368,1311.1886,766.7143L1311.1754,766.7153Q1311.1678,766.589,1311.144,766.4598L1311.139,766.46075Q1311.1323,766.4309,1311.1274,766.4113L1311.1346,766.4123Q1311.1143,766.31274,1311.0845,766.2119L1311.0842,766.21094Q1310.9803,765.8599,1310.6102,764.9518L1310.6035,764.95276Q1310.3354,762.7812,1310.1813,762.19275Q1310.1372,762.0245,1310.0804,761.883L1310.0801,761.884Q1309.9854,761.64246,1309.8809,761.4454L1309.8806,761.445Q1309.3967,760.53253,1308.5834,760.27673L1308.5703,760.2777Q1308.1963,760.14246,1307.8324,760.14246 Z"/>
</g>
<g style="fill:rgb(254,254,254); fill-opacity:1.0; stroke-linejoin: miter">
<path d="M1318.3328,832.1779L1318.3328,832.178Q1318.2288,832.2908,1318.1272,832.38605L1318.1276,832.3857Q1316.9514,833.48944,1315.7052,832.83167L1316.2894,833.0191Q1315.7885,832.951,1315.345,832.6605C1315.244,832.5944,1315.1501,832.51807,1315.0648,832.43274L1315.0648,832.43274Q1314.8253,832.1932,1314.7354,832.12415L1314.7356,832.12427Q1315.0708,832.3816,1315.6107,832.3822C1315.3787,832.38196,1315.149,832.33575,1314.9349,832.2464L1314.9349,832.2464Q1315.209,832.3608,1315.4978,832.29584L1315.6505,832.2542Q1315.23,832.3894,1314.7134,833.0484C1314.678,833.0935,1314.6403,833.13715,1314.6006,833.1786L1314.6006,833.1786Q1313.8126,834.00305,1314.333,836.35583L1314.2733,836.14764Q1314.8,837.6327,1315.5186,838.60944C1315.5524,838.6554,1315.5839,838.70294,1315.613,838.75195L1315.613,838.75195Q1315.507,838.5737,1315.3856,838.51605L1315.3856,838.5161Q1315.4519,838.5476,1315.6259,838.57526L1315.6652,838.5819Q1315.56,838.56274,1315.4944,838.58435L1315.4943,838.58435Q1315.5582,838.5633,1315.6875,838.4661L1315.5967,838.53925Q1316.6937,837.59424,1317.474,836.29034L1317.4142,836.39874Q1317.6631,835.9073,1317.685,835.70966L1317.6853,835.7075Q1317.6849,835.71094,1317.6847,835.7146L1317.6929,835.622Q1317.9535,833.353,1317.8563,832.8169L1317.8563,832.8167Q1317.8651,832.86505,1317.8947,832.9416C1317.8711,832.88055,1317.8508,832.8178,1317.8342,832.7545L1317.8341,832.75433Q1317.7776,832.5393,1317.7328,832.4614L1317.733,832.4618Q1317.7587,832.50616,1317.8226,832.5676L1317.8304,832.57513L1316.4159,831.2341C1315.7106,830.5654,1315.6809,829.4516,1316.3496,828.74634C1317.0183,828.0411,1318.132,828.01135,1318.8373,828.68L1318.8373,828.68L1320.2518,830.02106L1320.2596,830.02856Q1320.5575,830.3145,1320.7823,830.7046L1320.7826,830.70496Q1321.0623,831.1904,1321.2382,831.8604L1321.1776,831.67316Q1321.2682,831.90765,1321.3192,832.189L1321.3192,832.18884Q1321.5094,833.2372,1321.1892,836.02374L1321.1974,835.93115Q1321.1923,836.01404,1321.1826,836.1001L1321.1829,836.09796Q1321.0906,836.9295,1320.5538,837.9891C1320.5352,838.0258,1320.5153,838.0621,1320.494,838.0975L1320.494,838.0975Q1319.4218,839.8894,1317.8936,841.20575L1317.8027,841.2789Q1317.2089,841.7255,1316.5931,841.92786L1316.593,841.92786Q1315.8088,842.18555,1315.034,842.0443L1315.0734,842.05096Q1314.3987,841.9437,1313.8746,841.6946L1313.8746,841.69464Q1313.0302,841.2932,1312.5891,840.55237L1312.6836,840.6949Q1311.657,839.2993,1310.9564,837.32416C1310.9323,837.256,1310.9124,837.1866,1310.8967,837.11597L1310.8967,837.11597Q1309.9706,832.9291,1312.0564,830.7468L1311.9436,830.877Q1313.1257,829.36914,1314.5734,828.90375C1314.6237,828.8876,1314.6746,828.8737,1314.7261,828.8621L1314.7261,828.8621Q1315.5303,828.68134,1316.2904,828.9986L1315.6146,828.8628Q1316.2676,828.8635,1316.8787,829.33264L1316.8789,829.33276Q1317.1508,829.54156,1317.5533,829.9441L1317.2732,829.7163Q1317.0511,829.57086,1316.7638,829.5318C1316.968,829.5596,1317.1658,829.62305,1317.348,829.71924L1317.348,829.71924Q1316.3738,829.205,1315.7191,829.8194L1315.7195,829.81903Q1315.728,829.81104,1315.7451,829.7925C1316.4038,829.078,1317.5171,829.0327,1318.2317,829.6914C1318.9463,830.3501,1318.9915,831.4634,1318.3328,832.1779 Z"/>
</g>
<g style="fill:rgb(255,255,255); fill-opacity:1.0; stroke-linejoin: miter">
</g>
<g style="fill:rgb(255,255,255); fill-opacity:1.0; stroke-linejoin: miter">
<path d="M1309.0564,808.49304Q1308.0793,810.28094,1306.766,811.4823L1306.779,811.4833Q1313.2982,813.3607,1316.9684,813.806L1316.9684,813.807C1316.7593,813.1714,1316.6143,812.514,1316.5374,811.84344L1316.5374,811.84296Q1316.44,810.9927,1316.4192,810.2042L1316.4324,810.2052Q1313.6233,809.76953,1309.0696,808.49304 Z"/>
</g>
<g style="fill:rgb(52,244,44); fill-opacity:1.0; stroke-linejoin: miter">
</g>
<g style="fill:rgb(255,255,255); fill-opacity:1.0; stroke-linejoin: miter">
</g>
<g style="fill:rgb(255,255,255); fill-opacity:1.0; stroke-linejoin: miter">
</g>
<g style="fill:rgb(255,255,255); fill-opacity:1.0; stroke-linejoin: miter">
</g>
<g style="fill:rgb(255,255,255); fill-opacity:1.0; stroke-linejoin: miter">
</g>
<g style="fill:rgb(255,255,255); fill-opacity:1.0; stroke-linejoin: miter">
</g>
<g style="fill:rgb(255,255,255); fill-opacity:1.0; stroke-linejoin: miter">
</g>
<g style="fill:rgb(255,255,255); fill-opacity:1.0; stroke-linejoin: miter">
</g>
<g style="fill:rgb(255,255,255); fill-opacity:1.0; stroke-linejoin: miter">
</g>
<g style="fill:rgb(255,255,255); fill-opacity:1.0; stroke-linejoin: miter">
</g>
<g style="fill:rgb(255,255,255); fill-opacity:1.0; stroke-linejoin: miter">
</g>
<g style="fill:rgb(255,255,255); fill-opacity:1.0; stroke-linejoin: miter">
<path d="M1311.1566,813.61127L1311.1566,813.61127L1311.0442,813.8308L1311.0481,813.82324Q1309.41,817.06067,1308.413,818.134C1308.3668,818.18365,1308.3176,818.23083,1308.266,818.27484L1308.266,818.27484Q1306.4421,819.8315,1304.8329,817.99603L1304.7565,817.9028Q1303.9215,816.80743,1304.4714,815.38275L1304.4717,815.38214Q1304.5248,815.24475,1304.5914,815.1061L1304.5605,815.1738Q1304.5895,815.10645,1304.6229,815.0371L1304.624,815.0349Q1305.0281,814.1998,1306.1633,813.09314L1306.0848,813.1748Q1306.1604,813.091,1306.2505,813.0058L1306.2494,813.00684Q1306.8035,812.4819,1308.6543,811.31915C1309.4772,810.8022,1310.5634,811.05023,1311.0803,811.87317C1311.5973,812.6961,1311.3492,813.7823,1310.5264,814.29926L1310.5264,814.29926Q1308.9714,815.27606,1308.67,815.56165L1308.669,815.5627Q1308.6802,815.55206,1308.6986,815.5316L1308.6201,815.6133Q1307.9268,816.2892,1307.792,816.56775L1307.7931,816.56555Q1307.7936,816.5646,1307.7942,816.5631L1307.7633,816.63086Q1307.757,816.64404,1307.7544,816.6507L1307.7546,816.6501Q1307.9135,816.2387,1307.5555,815.7692L1307.4791,815.67596Q1306.7988,814.9001,1305.9813,815.59784L1305.8344,815.7387Q1306.4935,815.02905,1307.9077,812.23425L1307.9116,812.2267L1308.024,812.00714C1308.467,811.1421,1309.5275,810.7999,1310.3925,811.2429C1311.2574,811.6859,1311.5996,812.7462,1311.1566,813.61127 Z"/>
</g>
<g style="fill:rgb(255,255,255); fill-opacity:1.0; stroke-linejoin: miter">
<path d="M1304.6818,813.60986L1304.6818,813.60986L1305.1641,812.9153C1305.7184,812.117,1306.815,811.9192,1307.6132,812.4735C1308.4114,813.02783,1308.6093,814.1243,1308.0549,814.9226L1308.0549,814.9226L1307.5726,815.6172C1307.0183,816.41547,1305.9218,816.6133,1305.1235,816.05896C1304.3253,815.50464,1304.1274,814.40814,1304.6818,813.60986 Z"/>
</g>
<g style="fill:rgb(255,255,255); fill-opacity:1.0; stroke-linejoin: miter">
<path d="M1317.2074,812.1941L1317.2058,812.23706L1317.2054,812.23804L1317.2072,812.1941 Z M1307.8499,805.8899Q1307.4028,805.8899,1306.9283,806.0465L1306.9282,806.0475Q1306.6128,806.1506,1306.2717,806.3325L1306.2587,806.3335Q1305.9797,806.40594,1305.6907,806.5382L1305.6852,806.5392Q1305.2208,806.73804,1304.8837,807.1226L1304.8707,807.1236Q1304.5128,807.32556,1304.2135,807.6613L1304.2134,807.6623Q1303.7737,808.1437,1303.4481,808.7075L1303.435,808.7085C1303.3314,808.79974,1303.2393,808.9039,1303.1602,809.01776Q1302.2871,810.2744,1302.2549,812.4849C1302.2543,812.5296,1302.2554,812.57367,1302.258,812.6183Q1302.3398,813.9521,1302.5552,814.78644L1302.5421,814.7874Q1302.5436,814.9008,1302.5452,815.01855L1302.5472,815.0844Q1302.5605,815.34503,1302.5972,815.5672L1302.5972,815.5682Q1302.804,816.82446,1303.7982,817.278L1303.7982,817.279C1304.0125,817.37573,1304.2441,817.42944,1304.4795,817.43604Q1304.5197,817.43713,1304.5592,817.43713Q1305.2937,817.43713,1305.8584,817.0522L1305.8715,817.05316Q1305.9042,817.05316,1305.9371,817.05316Q1306.5366,817.05316,1307.1832,816.72687L1307.1832,816.7268Q1307.4288,816.60284,1307.6903,816.41833L1307.7035,816.4193C1308.0338,816.75726,1308.4882,816.9497,1308.9633,816.9497C1309.0011,816.9497,1309.0391,816.9485,1309.0771,816.946L1309.0902,816.94696Q1309.047,817.4289,1309.1306,817.9363L1309.1428,818.0022Q1309.3524,819.0291,1309.7944,819.7106L1309.7944,819.71155Q1310.1841,820.3112,1310.7144,820.6441L1310.7012,820.6451Q1310.6748,822.8662,1313.0366,823.1544L1313.0369,823.1554Q1313.1188,823.1644,1313.202,823.1707L1313.2024,823.1717C1313.2465,823.174,1313.2906,823.17566,1313.3347,823.17566C1313.4397,823.17566,1313.5446,823.16626,1313.6478,823.14764L1313.661,823.1486Q1313.7493,823.1582,1313.8405,823.1582Q1314.3375,823.1582,1314.9221,822.8441L1315.0131,822.79175Q1316.5544,821.84125,1316.9617,819.90186C1316.9778,819.8253,1316.9886,819.748,1316.9944,819.67Q1317.0433,819.00824,1316.9386,818.4354L1316.9254,818.4364Q1316.9363,818.41364,1316.9469,818.39154L1316.9469,818.3916Q1316.9578,818.369,1316.9685,818.3459L1316.9553,818.34686Q1317.0134,818.26855,1317.0695,818.1858L1317.0695,818.1857Q1317.6764,817.2893,1317.9309,815.65295L1317.9349,815.62585Q1318.1425,814.14014,1317.943,813.2413L1317.943,813.24097Q1317.7559,812.39813,1317.2296,811.89465L1317.2164,811.8956Q1317.2161,811.8677,1317.2153,811.841L1317.2152,811.8389Q1317.2106,811.68353,1317.1925,811.53656L1317.1925,811.5372Q1316.925,809.35565,1314.9147,809.35565Q1314.6769,809.35565,1314.4147,809.3862L1314.4015,809.3872Q1313.9666,809.4272,1313.5999,809.6467L1313.5999,809.6477Q1313.3369,809.3344,1313.0284,809.0111L1312.9758,808.9583Q1312.7891,808.7784,1312.5732,808.64667L1312.5732,808.64764Q1312.4216,808.5541,1312.2697,808.48566L1312.2566,808.48663Q1311.9631,808.05,1311.5105,807.7122Q1311.1755,807.4623,1310.7594,807.2763L1310.7463,807.2773Q1309.8329,806.1376,1308.3457,805.93713L1308.3326,805.9381Q1308.0955,805.8899,1307.8499,805.8899 Z"/>
</g>
<g style="fill:rgb(255,255,255); fill-opacity:1.0; stroke-linejoin: miter">
<path d="M1324.4755,807.3962L1324.482,807.3898Q1324.4906,807.3815,1324.4994,807.373L1324.4949,807.3774Q1325.1012,806.78955,1326.9346,805.71576L1326.7341,805.85254Q1327.0099,805.635,1327.0919,805.54816L1327.0924,805.54767Q1327.0707,805.5707,1327.038,805.6155C1327.064,805.57983,1327.0908,805.5457,1327.1194,805.51215L1327.1194,805.51215Q1328.5638,803.81573,1328.936,803.1933C1328.9628,803.14856,1328.9915,803.1051,1329.0221,803.0629L1329.202,802.8521L1329.2023,802.85187L1329.0299,803.05237Q1329.0273,803.05585,1329.0303,803.0518L1329.0219,803.0634Q1329.167,802.8603,1329.3531,802.15924C1329.6025,801.2199,1330.566,800.6606,1331.5054,800.9099C1332.4447,801.15924,1333.0042,802.12286,1332.7548,803.0622L1332.7548,803.0622Q1332.4038,804.3846,1331.8849,805.1103L1331.8765,805.1219Q1331.8726,805.12726,1331.8632,805.14L1331.6908,805.3405L1331.6906,805.34076L1331.9565,804.9996Q1331.4335,805.8742,1329.7991,807.79376L1329.8805,807.6904Q1329.7811,807.82654,1329.6505,807.9648L1329.651,807.9643Q1329.3925,808.23816,1328.9136,808.61584C1328.85,808.666,1328.7831,808.7117,1328.7131,808.7526L1328.7131,808.7526Q1327.2462,809.6118,1326.9446,809.90424L1326.9401,809.9086Q1326.9391,809.90955,1326.9381,809.9105C1326.2522,810.58594,1325.1381,810.5773,1324.4562,809.8847C1323.7743,809.19214,1323.783,808.078,1324.4755,807.3962 Z"/>
</g>
<g style="fill:rgb(255,255,255); fill-opacity:1.0; stroke-linejoin: miter">
</g>
<g style="fill:rgb(255,255,255); fill-opacity:1.0; stroke-linejoin: miter">
</g>
<g style="fill:rgb(255,255,255); fill-opacity:1.0; stroke-linejoin: miter">
</g>
<g style="fill:rgb(255,255,255); fill-opacity:1.0; stroke-linejoin: miter">
</g>
<g style="fill:rgb(255,255,255); fill-opacity:1.0; stroke-linejoin: miter">
</g>
<g style="fill:rgb(255,255,255); fill-opacity:1.0; stroke-linejoin: miter">
</g>
<g style="fill:rgb(255,255,255); fill-opacity:1.0; stroke-linejoin: miter">
</g>
<g style="fill:rgb(255,255,255); fill-opacity:1.0; stroke-linejoin: miter">
</g>
<g style="fill:rgb(255,255,255); fill-opacity:1.0; stroke-linejoin: miter">
</g>
<g style="fill:rgb(255,255,255); fill-opacity:1.0; stroke-linejoin: miter">
</g>
<g style="fill:rgb(255,255,255); fill-opacity:1.0; stroke-linejoin: miter">
</g>
<g style="fill:rgb(255,255,255); fill-opacity:1.0; stroke-linejoin: miter">
</g>
<g style="fill:rgb(255,255,255); fill-opacity:1.0; stroke-linejoin: miter">
</g>
<g style="fill:rgb(255,255,255); fill-opacity:1.0; stroke-linejoin: miter">
</g>
<g style="fill:rgb(255,255,255); fill-opacity:1.0; stroke-linejoin: miter">
</g>
<g style="fill:rgb(255,255,255); fill-opacity:1.0; stroke-linejoin: miter">
</g>
<g style="fill:rgb(255,255,255); fill-opacity:1.0; stroke-linejoin: miter">
</g>
<g style="fill:rgb(255,255,255); fill-opacity:1.0; stroke-linejoin: miter">
</g>
<g style="fill:rgb(255,255,255); fill-opacity:1.0; stroke-linejoin: miter">
</g>
<g style="fill:rgb(0,0,0); fill-opacity:1.0; stroke-linejoin: miter">
<path d="M1179.6162,682.9094L1179.6154,682.9308L1179.6152,682.9308L1179.6162,682.9094 Z M1169.9377,712.5307L1169.9377,712.5307C1170.2412,713.44714,1170.9471,714.1561,1171.8251,714.4795L1171.8134,714.4795Q1171.8152,714.55585,1171.8171,714.63275L1171.8171,714.63275Q1170.4014,714.2952,1169.9261,712.5307 Z M1176.5092,679.25684Q1173.5316,679.25684,1173.3722,682.6365L1173.3722,682.6365L1173.1412,686.592L1173.1295,686.592Q1171.5323,694.1819,1169.795,711.2294L1169.785,711.2294Q1169.7814,711.2583,1169.7781,711.28754L1169.7782,711.28754Q1169.6354,712.5474,1168.8375,727.34143L1168.8436,727.34143L1168.8379,727.43256L1168.8297,727.43256L1168.8296,727.4348L1168.835,727.4348L1168.833,727.5097L1168.8259,727.5097Q1168.7888,728.38226,1168.8728,731.8167L1168.8662,731.8167Q1168.7667,734.2637,1168.7815,734.88184L1168.7795,734.88184Q1168.7755,735.6902,1168.887,738.06287C1168.9656,739.73694,1170.3475,741.0414,1172.006,741.0414C1172.0554,741.0414,1172.1051,741.0402,1172.155,741.0379C1172.343,741.02905,1172.5262,741.00385,1172.7035,740.9636L1172.7152,740.9636Q1172.7263,742.02057,1172.7367,743.14606L1172.7368,743.16144Q1172.7506,744.13824,1172.7207,745.4686L1172.7206,745.4686Q1172.3484,756.0406,1171.7089,759.8454C1171.69,759.95795,1171.6771,760.0717,1171.6707,760.18567L1171.6705,760.18567Q1171.5397,761.8736,1168.1726,774.58954C1167.7308,776.25793,1168.7251,777.9686,1170.3936,778.4104C1170.6616,778.4814,1170.9307,778.51526,1171.1956,778.51526C1172.5789,778.51526,1173.8435,777.5898,1174.2144,776.1894Q1177.57,763.51697,1177.8805,760.88153L1177.8724,760.88153Q1178.5813,756.66486,1178.968,745.6486L1178.9692,745.6094Q1179.0016,744.1741,1178.9866,743.0883L1178.9865,743.0883Q1178.9084,734.64813,1178.7957,730.02893L1178.7954,730.0223Q1178.7496,728.2993,1178.6658,726.5301L1178.6635,726.48615L1178.6625,726.4703L1178.6621,726.4641Q1178.2164,719.4492,1178.1106,716.0973L1178.1106,716.0973L1178.1105,716.08997Q1177.9463,710.6426,1178.002,707.5192L1178.0022,707.5019Q1178.0459,703.9395,1178.2639,700.8271L1178.2698,700.71356Q1178.3032,699.7156,1178.9844,693.669C1178.9907,693.61304,1178.9955,693.55756,1178.9988,693.5013L1179.3542,687.40985L1179.3425,687.40985Q1179.5936,686.2755,1179.8389,685.41394C1179.8658,685.31915,1179.8882,685.2236,1179.9061,685.12665Q1180.2517,683.25745,1179.618,681.3942C1179.3986,680.7488,1178.9739,680.1929,1178.4089,679.81116Q1177.6559,679.3023,1176.7557,679.26245L1176.756,679.26245Q1176.6302,679.25684,1176.5092,679.25684 Z"/>
</g>
<g style="fill:rgb(247,24,21); fill-opacity:1.0; stroke-linejoin: miter">
<path d="M1388.5703,766.9186Q1388.7844,766.9186,1389.0303,766.97095L1389.0303,766.971C1388.9108,766.94556,1388.7906,766.93317,1388.6719,766.93317C1388.3391,766.93317,1388.0159,767.03015,1387.7406,767.2076L1387.7406,767.2076Q1388.0675,766.9186,1388.5703,766.9186 Z M1234.1866,787.4469L1234.1866,787.4469Q1234.1866,787.44696,1234.1866,787.44696L1234.1866,787.4469 Z M1404.0244,843.8738Q1404.2743,843.8738,1404.5741,843.99036L1404.5723,843.99036C1404.3792,843.91876,1404.1769,843.8832,1403.9749,843.8832C1403.9376,843.8832,1403.9004,843.88434,1403.8632,843.8868L1403.8632,843.8868Q1403.941,843.8738,1404.0244,843.8738 Z M1324.8846,725.06903Q1328.1592,725.06903,1330.278,725.61957L1330.2766,725.61957Q1342.577,729.0932,1351.5745,732.5454L1351.561,732.5454Q1383.7021,763.7878,1386.9745,768.49475L1386.9607,768.49475C1386.9202,768.9369,1387.0514,769.3887,1387.347,769.7466Q1399.4121,784.35345,1404.7946,806.1062L1404.7805,806.1062Q1405.171,839.0764,1403.3751,843.99646L1403.3611,843.99646C1403.2906,844.0234,1403.2217,844.05505,1403.1545,844.0915C1402.6915,844.3429,1402.3695,844.7928,1402.2806,845.3121Q1400.8312,853.7843,1384.3699,881.74164L1384.356,881.74164Q1365.2377,902.3901,1346.4491,906.1509C1346.2815,906.18445,1346.1199,906.2428,1345.9695,906.32404Q1341.2639,908.8664,1315.562,909.538L1315.562,909.538L1292.5612,907.7101L1292.5482,907.7101Q1261.3286,901.80225,1251.1604,885.14545C1251.1338,885.1018,1251.105,885.0592,1251.0746,885.01807Q1248.4153,881.4274,1234.6926,848.1431L1234.6803,848.1431L1230.604,827.22174L1230.5918,827.22174Q1229.1932,800.7885,1234.1058,787.8212C1234.1536,787.69543,1234.186,787.5649,1234.2032,787.43243L1234.1908,787.43243Q1234.9373,784.90686,1251.7892,759.2107L1251.7767,759.2107L1266.6763,745.3773L1266.6636,745.3773Q1281.581,735.75366,1304.1655,728.5725L1304.1715,728.5706Q1306.231,727.9075,1307.6915,727.9075Q1310.2476,727.9075,1310.9697,729.93823C1311.2201,730.6422,1311.8823,731.0815,1312.5891,731.0815C1312.7803,731.0815,1312.9746,731.0494,1313.165,730.9817C1314.0594,730.66364,1314.5266,729.6807,1314.2085,728.7864Q1313.665,727.2581,1312.738,726.2643L1312.725,726.2643Q1320.0596,725.06903,1324.8846,725.06903 Z M1324.8978,721.64514Q1318.8396,721.64514,1309.4945,723.3321C1308.8773,723.44354,1308.397,723.87164,1308.1907,724.41876L1308.1907,724.41876Q1308.0787,724.4162,1307.965,724.4162Q1305.8579,724.4162,1303.1178,725.2985L1303.1178,725.2985Q1280.0352,732.63873,1264.713,742.5449C1264.6292,742.5992,1264.55,742.6607,1264.4768,742.7287L1249.3168,756.8039C1249.2151,756.8983,1249.1252,757.00476,1249.0491,757.1208Q1231.7286,783.5255,1230.8805,786.5061L1230.8805,786.50604Q1230.8262,786.6971,1230.8008,786.8779L1230.7885,786.8779Q1225.7336,800.5275,1227.1609,827.4369C1227.1652,827.5168,1227.1749,827.596,1227.1902,827.67456L1231.328,848.91205C1231.3497,849.0238,1231.3826,849.1331,1231.4259,849.23834Q1245.3909,883.1195,1248.3121,887.06396L1248.3044,887.06396Q1259.3198,904.9407,1291.9923,911.10333C1292.0526,911.11475,1292.1134,911.12286,1292.1747,911.12775L1315.3799,912.972C1315.4253,912.9756,1315.4707,912.9774,1315.5162,912.9774C1315.531,912.9774,1315.5459,912.9772,1315.5608,912.9768Q1341.5721,912.30133,1347.3501,909.4784L1347.3367,909.4784Q1367.1931,905.41034,1387.0448,883.8971C1387.1276,883.8074,1387.2007,883.70905,1387.2626,883.6039Q1403.1595,856.6172,1405.4443,846.9818L1405.4303,846.9818Q1405.7946,846.6937,1406.1107,846.20776L1406.1107,846.2078Q1406.2942,845.9257,1406.4503,845.56323L1406.4504,845.563Q1408.633,840.4916,1408.2147,805.8063C1408.2131,805.6747,1408.1965,805.54376,1408.165,805.416Q1402.7411,783.3917,1390.6372,768.34247L1390.6233,768.34247Q1390.5847,767.9501,1390.391,767.5364L1390.3909,767.5361Q1388.6304,763.7777,1353.6957,729.8265C1353.5297,729.66516,1353.3328,729.539,1353.1168,729.4556Q1343.8627,725.88306,1331.1771,722.30194L1331.1425,722.29254Q1328.6509,721.64514,1324.8978,721.64514 Z"/>
</g>
<g style="fill:rgb(34,247,21); fill-opacity:1.0; stroke-linejoin: miter">
<path d="M1321.4207,716.024Q1331.3043,716.024,1336.7031,724.3134L1336.7688,724.4073Q1338.508,726.72406,1338.8188,727.7878C1338.8765,727.985,1338.9686,728.1689,1339.0896,728.33154L1339.0762,728.33154Q1339.5494,729.57605,1341.0183,736.7489C1341.0459,736.8838,1341.0896,737.01495,1341.1486,737.1394L1345.1631,745.6218L1345.2115,745.71643Q1346.9783,748.9207,1348.254,763.1772C1348.2583,763.2247,1348.2645,763.27234,1348.2727,763.3193Q1349.8683,772.4684,1348.4237,799.0593L1348.4209,799.0593L1347.6761,805.7875L1347.6626,805.7875Q1345.0443,815.5842,1343.7418,828.39746L1343.7284,828.39746L1341.1343,839.2876L1341.1147,839.38104Q1338.8661,851.8611,1324.1053,857.0513C1324.0657,857.06525,1324.0267,857.08057,1323.9882,857.0974Q1322.0989,857.92175,1319.9115,857.92175Q1311.4912,857.92175,1298.6526,845.7063L1298.6489,845.7063Q1297.0177,843.974,1295.4985,836.2118L1295.487,836.2118Q1294.3958,822.14215,1292.4344,813.34454L1292.4215,813.34454Q1291.9541,802.3987,1291.2981,799.4789L1291.2852,799.4789L1291.9163,771.799L1291.9164,771.72186Q1291.715,762.6001,1295.3032,743.01874L1295.302,743.01874Q1297.8854,731.40967,1301.0328,727.2938L1301.07,727.2433Q1308.0834,717.34265,1310.3146,717.34265Q1310.4435,717.34265,1310.5565,717.37573C1310.7178,717.4229,1310.8802,717.44543,1311.0402,717.44543C1311.7358,717.44543,1312.3807,717.01965,1312.6407,716.3509L1312.6539,716.3509C1312.9762,716.7436,1313.4631,716.9804,1313.9823,716.9804C1314.1157,716.9804,1314.2513,716.9648,1314.3868,716.93207Q1318.1494,716.024,1321.4207,716.024 Z M1321.5867,712.5598Q1317.8512,712.5598,1313.5804,713.5905C1313.0088,713.72845,1312.5736,714.13727,1312.3779,714.64777L1312.3779,714.64777C1312.1654,714.3834,1311.8726,714.1792,1311.5223,714.07666Q1311.1067,713.95496,1310.6521,713.95496Q1306.2706,713.95496,1298.265,725.2562L1298.2637,725.2562Q1294.6798,729.9891,1291.9465,742.27203L1291.9337,742.3353Q1288.27,762.311,1288.4796,771.7978L1288.478,771.7978L1287.8446,799.57916C1287.8408,799.7444,1287.8608,799.90936,1287.9042,800.06885Q1288.5116,802.3052,1288.9907,813.57324C1288.9951,813.6763,1289.0087,813.7784,1289.0314,813.87897Q1290.9739,822.4773,1292.0598,836.47766C1292.0648,836.5427,1292.0736,836.6075,1292.086,836.6715Q1293.8121,845.58405,1296.1462,848.06287L1296.2118,848.1287Q1310.0834,861.3502,1319.9796,861.3502Q1322.7765,861.3502,1325.2559,860.2942L1325.2457,860.2942Q1341.8403,854.4591,1344.4808,840.0841L1344.4783,840.0841L1347.1222,828.9847C1347.1398,828.91077,1347.1525,828.83575,1347.1602,828.76013Q1348.4486,816.0759,1351.0391,806.4687C1351.0619,806.38403,1351.0782,806.2974,1351.0879,806.2103L1351.8483,799.3417L1351.8561,799.24585Q1353.311,772.46277,1351.6836,762.8708L1351.6779,762.8708Q1350.3539,748.0755,1348.273,744.15125L1348.2703,744.15125L1344.368,735.90607L1344.3546,735.90607Q1342.7463,728.0684,1342.1462,726.7674L1342.1461,726.7674Q1342.1045,726.67725,1342.0588,726.5939L1342.0454,726.5939Q1341.4996,724.9993,1339.5881,722.43744L1339.5835,722.43744Q1333.1503,712.5598,1321.5867,712.5598 Z"/>
</g>
</g>
</svg>