<?xml version="1.0" encoding="utf-8"?>
<svg xmlns="http://www.w3.org/2000/svg" xmlns:xlink="http://www.w3.org/1999/xlink" version= "1.1" width="2560px" height="1564px" viewBox="0 0 2560 1564">
<g id="layer1">
<g style="fill:rgb(255,255,255); fill-opacity:1.0; stroke-linejoin: miter">
<path d="M1824.182,450.84558L1824.182,450.84558Q1791.1091,472.029,1778.9944,484.1348C1778.9437,484.1854,1778.8906,484.23352,1778.8353,484.2789L1778.8353,484.2789Q1764.3368,496.17297,1731.942,537.03516C1731.9031,537.0843,1731.8623,537.13135,1731.8193,537.177L1731.8193,537.177Q1721.86,547.74115,1717.1418,551.3299L1717.1727,551.30585Q1696.9602,567.25867,1687.4342,557.5337C1686.5872,556.669,1686.6014,555.2814,1687.4662,554.4343C1688.3309,553.5873,1689.7185,553.6016,1690.5656,554.4663L1690.5656,554.4663Q1697.3359,561.37805,1714.4572,547.86505L1714.488,547.841Q1718.9193,544.4705,1728.6299,534.17017L1728.5072,534.312Q1761.194,493.08142,1776.055,480.88998L1775.896,481.0341Q1788.346,468.59338,1821.8177,447.15442C1822.837,446.50156,1824.1926,446.7986,1824.8455,447.8179C1825.4983,448.8372,1825.2013,450.19272,1824.182,450.84558 Z"/>
</g>
<g style="fill:rgb(255,255,255); fill-opacity:1.0; stroke-linejoin: miter">
</g>
<g style="fill:rgb(255,255,255); fill-opacity:1.0; stroke-linejoin: miter">
</g>
<g style="fill:rgb(255,255,255); fill-opacity:1.0; stroke-linejoin: miter">
</g>
<g style="fill:rgb(255,255,255); fill-opacity:1.0; stroke-linejoin: miter">
</g>
<g style="fill:rgb(255,255,255); fill-opacity:1.0; stroke-linejoin: miter">
</g>
<g style="fill:rgb(255,255,255); fill-opacity:1.0; stroke-linejoin: miter">
</g>
<g style="fill:rgb(255,255,255); fill-opacity:1.0; stroke-linejoin: miter">
</g>
<g style="fill:rgb(255,255,255); fill-opacity:1.0; stroke-linejoin: miter">
</g>
<g style="fill:rgb(255,255,255); fill-opacity:1.0; stroke-linejoin: miter">
</g>
<g style="fill:rgb(255,255,255); fill-opacity:1.0; stroke-linejoin: miter">
</g>
<g style="fill:rgb(255,255,255); fill-opacity:1.0; stroke-linejoin: miter">
</g>
<g style="fill:rgb(255,255,255); fill-opacity:1.0; stroke-linejoin: miter">
</g>
<g style="fill:rgb(255,255,255); fill-opacity:1.0; stroke-linejoin: miter">
</g>
<g style="fill:rgb(255,255,255); fill-opacity:1.0; stroke-linejoin: miter">
</g>
<g style="fill:rgb(255,255,255); fill-opacity:1.0; stroke-linejoin: miter">
</g>
<g style="fill:rgb(255,255,255); fill-opacity:1.0; stroke-linejoin: miter">
</g>
<g style="fill:rgb(255,255,255); fill-opacity:1.0; stroke-linejoin: miter">
</g>
<g style="fill:rgb(255,255,255); fill-opacity:1.0; stroke-linejoin: miter">
</g>
<g style="fill:rgb(255,255,255); fill-opacity:1.0; stroke-linejoin: miter">
</g>
<g style="fill:rgb(255,255,255); fill-opacity:1.0; stroke-linejoin: miter">
</g>
<g style="fill:rgb(255,255,255); fill-opacity:1.0; stroke-linejoin: miter">
</g>
<g style="fill:rgb(255,255,255); fill-opacity:1.0; stroke-linejoin: miter">
</g>
<g style="fill:rgb(255,255,255); fill-opacity:1.0; stroke-linejoin: miter">
</g>
<g style="fill:rgb(255,255,255); fill-opacity:1.0; stroke-linejoin: miter">
</g>
<g style="fill:rgb(255,255,255); fill-opacity:1.0; stroke-linejoin: miter">
</g>
<g style="fill:rgb(255,255,255); fill-opacity:1.0; stroke-linejoin: miter">
</g>
<g style="fill:rgb(255,255,255); fill-opacity:1.0; stroke-linejoin: miter">
</g>
<g style="fill:rgb(255,255,255); fill-opacity:1.0; stroke-linejoin: miter">
</g>
<g style="fill:rgb(255,255,255); fill-opacity:1.0; stroke-linejoin: miter">
<path d="M1701.387,780.1475L1701.387,780.1475L1701.8317,779.25824C1702.26,778.4017,1703.3018,778.0545,1704.1583,778.48285C1705.0149,778.9112,1705.362,779.9528,1704.9337,780.8094L1704.9337,780.8094L1704.489,781.69867C1704.0607,782.55524,1703.0189,782.9024,1702.1624,782.47406C1701.3058,782.0457,1700.9586,781.0041,1701.387,780.1475 Z"/>
</g>
<g style="fill:rgb(255,255,255); fill-opacity:1.0; stroke-linejoin: miter">
</g>
<g style="fill:rgb(255,255,255); fill-opacity:1.0; stroke-linejoin: miter">
</g>
<g style="fill:rgb(255,255,255); fill-opacity:1.0; stroke-linejoin: miter">
</g>
<g style="fill:rgb(255,255,255); fill-opacity:1.0; stroke-linejoin: miter">
</g>
<g style="fill:rgb(255,255,255); fill-opacity:1.0; stroke-linejoin: miter">
</g>
<g style="fill:rgb(255,255,255); fill-opacity:1.0; stroke-linejoin: miter">
</g>
<g style="fill:rgb(255,255,255); fill-opacity:1.0; stroke-linejoin: miter">
</g>
<g style="fill:rgb(255,255,255); fill-opacity:1.0; stroke-linejoin: miter">
</g>
<g style="fill:rgb(255,255,255); fill-opacity:1.0; stroke-linejoin: miter">
</g>
<g style="fill:rgb(255,255,255); fill-opacity:1.0; stroke-linejoin: miter">
</g>
<g style="fill:rgb(255,255,255); fill-opacity:1.0; stroke-linejoin: miter">
</g>
<g style="fill:rgb(255,255,255); fill-opacity:1.0; stroke-linejoin: miter">
</g>
<g style="fill:rgb(255,255,255); fill-opacity:1.0; stroke-linejoin: miter">
</g>
<g style="fill:rgb(255,255,255); fill-opacity:1.0; stroke-linejoin: miter">
</g>
<g style="fill:rgb(255,255,255); fill-opacity:1.0; stroke-linejoin: miter">
</g>
<g style="fill:rgb(255,255,255); fill-opacity:1.0; stroke-linejoin: miter">
</g>
<g style="fill:rgb(255,255,255); fill-opacity:1.0; stroke-linejoin: miter">
</g>
<g style="fill:rgb(255,255,255); fill-opacity:1.0; stroke-linejoin: miter">
</g>
<g style="fill:rgb(254,254,254); fill-opacity:1.0; stroke-linejoin: miter">
<path d="M1419.3502,490.08298L1424.0752,490.2031Q1461.0035,493.90173,1486.5742,510.6284Q1538.6907,548.03455,1552.2357,572.2451Q1562.1316,588.713,1563.2937,633.652Q1563.6798,643.3068,1548.7156,702.67114Q1516.9119,762.8983,1474.9365,816.1415Q1458.6953,847.7206,1432.2712,923.02094Q1408.5889,959.4118,1399.1895,968.746Q1372.3486,997.1255,1336.6221,1010.34436Q1287.7605,1025.5815,1274.0464,1025.2272Q1250.8164,1028.0619,1223.9332,1028.062Q1192.973,1025.9333,1178.372,1020.2368L1163.4973,1013.4092Q1147.4954,1000.1506,1131.6694,992.87695Q1102.0017,979.13385,1072.2368,971.2623L1050.3237,955.01514Q1032.5427,918.4541,1029.9078,884.98334Q1027.4946,850.6225,1042.1318,801.38696Q1061.1848,752.08014,1089.4999,717.23364Q1095.142,709.9172,1117.168,690.8229L1207.9746,633.88184L1217.3198,624.8996Q1232.8768,609.00037,1236.7644,602.84174Q1255.4326,545.8718,1269.893,537.49524Q1278.4598,529.993,1288.8123,525.81805Q1298.7443,523.14075,1303.8655,523.73737Q1302.0026,532.0044,1306.0151,531.0878L1322.3127,520.66705Q1324.3628,521.90967,1361.4703,510.31018Q1387.5166,494.82495,1394.2776,492.48434L1419.3502,490.08298 M1419.3473,487.625L1417.4005,487.6455Q1401.1604,488.3616,1393.3655,490.20493Q1377.2257,497.70877,1360.4536,508.065Q1324.1282,519.4947,1321.4602,518.30566L1305.7031,528.496L1306.3254,523.92145Q1312.4711,525.7199,1310.3574,522.03235Q1302.8658,519.81323,1288.0835,523.454Q1277.2063,527.81464,1268.4642,535.5043Q1252.8914,545.28784,1235.3373,600.3861Q1227.9447,610.9044,1218.032,620.7728L1206.5264,631.8961L1115.7719,688.7991Q1093.3633,708.182,1087.5999,715.67126Q1059.0243,750.8154,1039.7821,800.6649Q1010.8078,891.89136,1048.3988,956.59546L1071.1107,973.46875Q1114.8888,986.95386,1123.2458,991.3739L1142.4834,1001.4532Q1153.7852,1008.08386,1162.1376,1015.45917Q1167.149,1018.20374,1172.545,1020.4266Q1193.4192,1029.7078,1229.1222,1030.5496Q1254.2815,1030.5494,1276.6425,1027.6732Q1330.0964,1017.9658,1337.4293,1012.57275Q1372.678,999.1621,1401.0481,970.3634Q1410.5776,960.88745,1434.5127,924.0431Q1461.0352,848.5385,1477.0066,817.4603Q1547.1477,720.8348,1551.0457,703.45154Q1566.148,643.6497,1565.7563,633.6958Q1564.5854,587.90753,1554.2793,570.8777Q1539.7183,552.39844,1524.9653,538.021Q1510.2124,523.6435,1495.268,513.36774L1480.2756,504.11746Q1450.1947,487.6677,1419.3473,487.625 Z"/>
</g>
<g style="fill:rgb(255,255,255); fill-opacity:1.0; stroke-linejoin: miter">
</g>
<g style="fill:rgb(254,254,254); fill-opacity:1.0; stroke-linejoin: miter">
<path d="M1310.3678,806.0032L1310.3379,806.0035L1310.0283,806.03033Q1309.6747,807.5529,1308.6854,809.13135L1308.0239,810.09686Q1307.3312,811.00836,1306.5149,811.7039L1305.6676,812.34546Q1304.7892,812.93274,1303.7871,813.3044Q1302.7852,813.67584,1301.6589,813.8312Q1301.3407,815.7814,1301.3708,816.0865Q1301.3348,816.78864,1301.3824,817.43396Q1301.4778,818.7244,1301.9073,819.78723Q1301.8435,822.1946,1302.2639,822.9927Q1303.331,825.6198,1306.5824,825.85284Q1307.3475,825.8458,1308.1187,825.48926Q1309.1381,825.7158,1310.7003,825.2333Q1310.8851,825.17126,1311.0735,825.0367Q1311.6714,824.63245,1311.8369,824.4782Q1312.2478,824.36395,1313.3939,823.6515Q1314.2986,823.01935,1314.9727,822.11053Q1315.7711,820.9134,1315.8413,820.5924Q1316.7574,820.3928,1317.7305,819.2793Q1317.8955,819.09375,1318.1578,818.54065Q1318.3949,817.7934,1318.5997,816.8383Q1317.7443,815.7529,1317.2206,814.4862Q1316.5262,812.8186,1316.4626,810.8676L1316.1476,809.9223Q1315.7885,809.0277,1315.2539,808.3356Q1313.6987,806.2614,1310.3678,806.0032 Z"/>
</g>
<g style="fill:rgb(255,255,255); fill-opacity:1.0; stroke-linejoin: miter">
</g>
<g style="fill:rgb(255,255,255); fill-opacity:1.0; stroke-linejoin: miter">
</g>
<g style="fill:rgb(255,255,255); fill-opacity:1.0; stroke-linejoin: miter">
</g>
<g style="fill:rgb(255,255,255); fill-opacity:1.0; stroke-linejoin: miter">
</g>
<g style="fill:rgb(255,255,255); fill-opacity:1.0; stroke-linejoin: miter">
</g>
<g style="fill:rgb(255,255,255); fill-opacity:1.0; stroke-linejoin: miter">
</g>
<g style="fill:rgb(255,255,255); fill-opacity:1.0; stroke-linejoin: miter">
</g>
<g style="fill:rgb(28,151,23); fill-opacity:1.0; stroke-linejoin: miter">
</g>
<g style="fill:rgb(255,255,255); fill-opacity:1.0; stroke-linejoin: miter">
</g>
<g style="fill:rgb(255,255,255); fill-opacity:1.0; stroke-linejoin: miter">
</g>
<g style="fill:rgb(28,151,23); fill-opacity:1.0; stroke-linejoin: miter">
</g>
<g style="fill:rgb(255,255,255); fill-opacity:1.0; stroke-linejoin: miter">
</g>
<g style="fill:rgb(255,255,255); fill-opacity:1.0; stroke-linejoin: miter">
</g>
<g style="fill:rgb(255,255,255); fill-opacity:1.0; stroke-linejoin: miter">
</g>
<g style="fill:rgb(254,254,254); fill-opacity:1.0; stroke-linejoin: miter">
<path d="M1339.6566,738.8799L1339.6553,738.88086L1339.6549,738.87994L1339.6548,738.8809L1339.6572,738.8804L1339.6597,738.8809Q1339.6592,738.8806,1339.6589,738.8805L1339.6582,738.8801L1339.6578,738.88007L1339.6573,738.88L1339.6572,738.87994L1339.6567,738.8799L1339.6566,738.88086 Z"/>
</g>
<g style="fill:rgb(254,254,254); fill-opacity:1.0; stroke-linejoin: miter">
<path d="M1339.6572,738.8808L1339.7139,738.9004Q1339.8058,738.932,1340.1035,739.03687Q1340.1866,739.0658,1340.1886,739.069L1340.2047,739.04956L1340.2765,738.9691L1340.289,738.9701L1340.285,738.96924Q1340.281,738.9685,1340.2772,738.96826Q1340.2809,738.9687,1340.2847,738.96924L1340.2233,738.95905L1340.1508,738.9476Q1340.0067,738.9255,1339.9207,738.9132Q1339.7344,738.8876,1339.7002,738.884L1339.6707,738.8808L1339.6572,738.8818 Z"/>
</g>
<g style="fill:rgb(255,255,255); fill-opacity:1.0; stroke-linejoin: miter">
</g>
<g style="fill:rgb(255,255,255); fill-opacity:1.0; stroke-linejoin: miter">
</g>
<g style="fill:rgb(254,254,254); fill-opacity:1.0; stroke-linejoin: miter">
</g>
<g style="fill:rgb(255,255,255); fill-opacity:1.0; stroke-linejoin: miter">
</g>
<g style="fill:rgb(255,255,255); fill-opacity:1.0; stroke-linejoin: miter">
</g>
<g style="fill:rgb(255,255,255); fill-opacity:1.0; stroke-linejoin: miter">
</g>
<g style="fill:rgb(255,255,255); fill-opacity:1.0; stroke-linejoin: miter">
</g>
<g style="fill:rgb(254,254,254); fill-opacity:1.0; stroke-linejoin: miter">
<path d="M1328.0529,807.5305Q1327.7698,807.72833,1327.4847,807.94977L1327.503,807.95074C1327.6896,807.81366,1327.8802,807.6845,1328.0751,807.56226L1328.0883,807.56323C1328.0809,807.5517,1328.0735,807.5411,1328.0662,807.5305 Z"/>
</g>
<g style="fill:rgb(254,254,254); fill-opacity:1.0; stroke-linejoin: miter">
<path d="M1329.9504,790.2118L1329.9501,790.2111Q1329.8104,789.9915,1329.7051,789.7085L1329.7056,789.7098Q1329.5848,789.38617,1329.4788,788.894L1329.4656,788.8262Q1329.422,788.5772,1329.4012,788.3131L1329.3961,788.2082Q1329.3767,787.1786,1329.3376,786.9307L1329.3298,786.87537L1329.3296,786.8734L1329.328,786.8603Q1329.2649,786.32263,1329.0541,785.4399L1329.038,785.36566Q1328.892,784.6116,1328.5433,784.1328C1327.9713,783.34717,1328.1443,782.2466,1328.9299,781.6745C1329.7156,781.1024,1330.8163,781.2755,1331.3883,782.06116L1331.3883,782.06116Q1332.1984,783.1737,1332.4933,784.6966L1332.4772,784.6224Q1332.7361,785.70654,1332.8234,786.45L1332.8218,786.4369L1332.822,786.43884L1332.8142,786.3835Q1332.8909,786.8707,1332.9149,788.14166L1332.9098,788.03674Q1332.9176,788.1353,1332.9324,788.2201L1332.9192,788.1523Q1332.9716,788.3951,1333.0032,788.4799L1333.0037,788.4812Q1332.9796,788.4167,1332.9196,788.3222C1333.4412,789.1413,1333.1998,790.229,1332.38,790.751C1331.5602,791.27295,1330.4724,791.03156,1329.9504,790.2118 Z"/>
</g>
<g style="fill:rgb(254,254,254); fill-opacity:1.0; stroke-linejoin: miter">
<path d="M1330.3516,766.82715Q1330.33,766.82715,1330.3082,766.82764C1330.169,766.8306,1330.0305,766.85016,1329.5597,767.0127L1329.5597,767.0137L1329.8602,766.8992L1329.8469,766.90015Q1329.1178,767.1049,1328.6782,767.6201L1328.6782,767.6211Q1328.5552,767.6031,1328.4296,767.6031Q1328.2106,767.6031,1327.9834,767.6548L1327.9701,767.65576Q1327.1069,767.78827,1326.4347,768.5527L1326.4343,768.55304Q1326.1472,768.87964,1325.8922,769.33545L1325.8922,769.33527C1325.8256,769.4543,1325.773,769.5809,1325.7356,769.71204Q1324.9044,772.6262,1324.7224,773.0587L1324.7175,773.0597C1324.416,773.6631,1324.491,774.3875,1324.8984,774.91626L1324.8853,774.91724Q1324.8651,774.9772,1324.8488,775.0374L1324.8354,775.0384L1323.4293,775.83624C1322.6848,776.2592,1322.3529,777.1567,1322.643,777.96234C1322.8975,778.6692,1323.5658,779.1253,1324.3002,779.1253C1324.4027,779.1253,1324.5065,779.1164,1324.6106,779.0981L1324.6107,779.09906Q1324.6107,779.0981,1324.6119,779.09784L1324.6222,779.096Q1325.1621,778.99786,1326.0546,778.63794L1326.0413,778.6389C1326.4951,778.6353,1326.9462,778.4578,1327.2869,778.1123L1327.2869,778.1133Q1327.3387,778.0611,1327.4756,777.9796L1327.47,777.9806L1328.3947,777.5129L1328.3813,777.51385Q1329.332,777.14905,1329.7506,776.9457L1329.7373,776.94666Q1330.0479,776.8197,1330.4736,776.5713L1330.4603,776.57227Q1330.556,776.53625,1330.6538,776.4998L1330.7223,776.4726Q1331.5275,776.13336,1331.9954,775.8331L1332.0688,775.7833Q1332.4237,775.5295,1332.736,775.31213L1332.7465,775.3131C1332.8392,775.28894,1332.9298,775.25824,1333.0176,775.22034Q1333.6442,774.94965,1334.0563,774.4467L1334.043,774.4477Q1334.1417,774.3864,1334.2306,774.3346C1335.0702,773.8452,1335.3541,772.7678,1334.8647,771.92816C1334.7762,771.77637,1334.6686,771.64276,1334.5465,771.52856L1334.5332,771.52954Q1334.4691,771.3309,1334.3805,771.1349C1334.3561,771.0808,1334.3286,771.02765,1334.3047,770.98645L1334.3042,770.9856L1334.2983,770.9754Q1332.7108,768.23975,1331.8577,767.46594Q1331.1534,766.82715,1330.3516,766.82715 Z"/>
</g>
<g style="fill:rgb(254,254,254); fill-opacity:1.0; stroke-linejoin: miter">
<path d="M1315.9233,750.0738Q1315.1454,750.0738,1314.3147,750.6301L1314.3146,750.6302Q1314.127,750.75586,1313.9436,750.91394L1313.9304,750.9149Q1313.839,750.96783,1313.7478,751.0285L1313.7478,751.0295Q1312.7681,751.6804,1311.9941,753.1723L1311.9941,753.17236C1311.9591,753.23987,1311.9286,753.3093,1311.9026,753.3808Q1311.16,755.4209,1311.4417,757.8637L1311.4454,757.89355L1311.454,757.89453Q1311.1534,759.3753,1311.4929,761.1073C1311.5063,761.1756,1311.5238,761.2435,1311.5452,761.30975Q1312.0211,762.7832,1313.2269,763.48956L1313.2589,763.5078Q1314.1555,764.0082,1315.1173,764.0082Q1315.1752,764.0082,1315.2333,764.00635L1315.2463,764.0073Q1315.4673,764.27435,1315.7227,764.51733L1315.7869,764.5755Q1316.1904,764.92316,1316.64,765.1376L1316.6401,765.13763Q1317.3315,765.4673,1318.0712,765.4673Q1318.3372,765.4673,1318.6093,765.4247L1318.6095,765.4246Q1319.7356,765.24817,1320.8259,764.33466L1320.9109,764.25854Q1321.6656,763.53796,1322.1366,762.7761L1322.1233,762.7771Q1323.2937,762.26074,1324.112,761.28754C1324.1425,761.25146,1324.1715,761.2139,1324.1989,761.1755Q1325.3947,759.4958,1325.2391,757.7108C1325.2332,757.64246,1325.2233,757.5746,1325.2094,757.5074Q1324.8702,755.8662,1323.6112,754.195L1323.6,754.18036Q1323.4341,753.9649,1323.2655,753.77014L1323.2522,753.7711Q1322.385,751.19977,1319.9736,750.6055C1319.932,750.5953,1319.8899,750.58655,1319.8477,750.57935Q1319.3649,750.49725,1318.9171,750.49725Q1318.1804,750.49725,1317.539,750.7196L1317.539,750.7206Q1316.7617,750.0738,1315.9233,750.0738 Z"/>
</g>
<g style="fill:rgb(254,254,254); fill-opacity:1.0; stroke-linejoin: miter">
<path d="M1307.6798,763.6734C1307.6844,763.67426,1307.6891,763.6751,1307.6938,763.67596L1307.6799,763.67694Q1307.6733,763.6747,1307.6667,763.6734 Z"/>
</g>
<g style="fill:rgb(254,254,254); fill-opacity:1.0; stroke-linejoin: miter">
<path d="M1307.8324,760.14246Q1307.051,760.14246,1306.3163,760.7612C1306.2428,760.8231,1306.1746,760.89087,1306.1122,760.9639Q1305.5667,761.60223,1305.3724,761.7605L1305.3599,761.7615Q1304.3972,762.4131,1304.0732,762.6928Q1303.9388,762.8089,1303.8389,762.9204L1303.7866,762.9814Q1303.3801,763.4788,1303.013,763.85815C1302.988,763.8571,1302.9633,763.85657,1302.9384,763.85657C1302.3728,763.85657,1301.8174,764.1288,1301.4774,764.6332Q1301.2064,765.0354,1301.0635,765.32135Q1300.2609,766.92633,1301.6016,767.82983Q1302.0808,768.15295,1302.6025,768.15295Q1303.1443,768.15295,1303.7317,767.8045L1303.7319,767.8043Q1303.9178,767.694,1304.1456,767.5268L1304.1451,767.5278Q1305.2147,766.7693,1306.3975,765.3472L1306.3844,765.3482Q1306.5315,765.2237,1307.0344,764.8782L1307.0475,764.87915Q1307.0801,765.1343,1307.116,765.4253C1307.1241,765.49164,1307.136,765.5571,1307.1516,765.62213Q1307.2128,765.8763,1307.2932,766.12506C1307.3068,766.1669,1307.322,766.2085,1307.3386,766.2492Q1307.6533,767.01965,1307.7092,767.20886L1307.6998,767.20984C1307.7034,767.22504,1307.7072,767.24115,1307.7112,767.25726Q1307.7122,767.2614,1307.7122,767.2614L1307.7123,767.2624Q1307.7635,767.48816,1307.662,768.1337C1307.5109,769.09375,1308.1664,769.99457,1309.1265,770.14575C1309.2192,770.16034,1309.3114,770.1674,1309.4023,770.1674C1310.2535,770.1674,1311.0021,769.5485,1311.1385,768.6812Q1311.3188,767.5368,1311.1886,766.7143L1311.1754,766.7153Q1311.1678,766.589,1311.144,766.4598L1311.139,766.46075Q1311.1323,766.4309,1311.1274,766.4113L1311.1346,766.4123Q1311.1143,766.31274,1311.0845,766.2119L1311.0842,766.21094Q1310.9803,765.8599,1310.6102,764.9518L1310.6035,764.95276Q1310.3354,762.7812,1310.1813,762.19275Q1310.1372,762.0245,1310.0804,761.883L1310.0801,761.884Q1309.9854,761.64246,1309.8809,761.4454L1309.8806,761.445Q1309.3967,760.53253,1308.5834,760.27673L1308.5703,760.2777Q1308.1963,760.14246,1307.8324,760.14246 Z"/>
</g>
<g style="fill:rgb(254,254,254); fill-opacity:1.0; stroke-linejoin: miter">
<path d="M1318.3328,832.1779L1318.3328,832.178Q1318.2288,832.2908,1318.1272,832.38605L1318.1276,832.3857Q1316.9514,833.48944,1315.7052,832.83167L1316.2894,833.0191Q1315.7885,832.951,1315.345,832.6605C1315.244,832.5944,1315.1501,832.51807,1315.0648,832.43274L1315.0648,832.43274Q1314.8253,832.1932,1314.7354,832.12415L1314.7356,832.12427Q1315.0708,832.3816,1315.6107,832.3822C1315.3787,832.38196,1315.149,832.33575,1314.9349,832.2464L1314.9349,832.2464Q1315.209,832.3608,1315.4978,832.29584L1315.6505,832.2542Q1315.23,832.3894,1314.7134,833.0484C1314.678,833.0935,1314.6403,833.13715,1314.6006,833.1786L1314.6006,833.1786Q1313.8126,834.00305,1314.333,836.35583L1314.2733,836.14764Q1314.8,837.6327,1315.5186,838.60944C1315.5524,838.6554,1315.5839,838.70294,1315.613,838.75195L1315.613,838.75195Q1315.507,838.5737,1315.3856,838.51605L1315.3856,838.5161Q1315.4519,838.5476,1315.6259,838.57526L1315.6652,838.5819Q1315.56,838.56274,1315.4944,838.58435L1315.4943,838.58435Q1315.5582,838.5633,1315.6875,838.4661L1315.5967,838.53925Q1316.6937,837.59424,1317.474,836.29034L1317.4142,836.39874Q1317.6631,835.9073,1317.685,835.70966L1317.6853,835.7075Q1317.6849,835.71094,1317.6847,835.7146L1317.6929,835.622Q1317.9535,833.353,1317.8563,832.8169L1317.8563,832.8167Q1317.8651,832.86505,1317.8947,832.9416C1317.8711,832.88055,1317.8508,832.8178,1317.8342,832.7545L1317.8341,832.75433Q1317.7776,832.5393,1317.7328,832.4614L1317.733,832.4618Q1317.7587,832.50616,1317.8226,832.5676L1317.8304,832.57513L1316.4159,831.2341C1315.7106,830.5654,1315.6809,829.4516,1316.3496,828.74634C1317.0183,828.0411,1318.132,828.01135,1318.8373,828.68L1318.8373,828.68L1320.2518,830.02106L1320.2596,830.02856Q1320.5575,830.3145,1320.7823,830.7046L1320.7826,830.70496Q1321.0623,831.1904,1321.2382,831.8604L1321.1776,831.67316Q1321.2682,831.90765,1321.3192,832.189L1321.3192,832.18884Q1321.5094,833.2372,1321.1892,836.02374L1321.1974,835.93115Q1321.1923,836.01404,1321.1826,836.1001L1321.1829,836.09796Q1321.0906,836.9295,1320.5538,837.9891C1320.5352,838.0258,1320.5153,838.0621,1320.494,838.0975L1320.494,838.0975Q1319.4218,839.8894,1317.8936,841.20575L1317.8027,841.2789Q1317.2089,841.7255,1316.5931,841.92786L1316.593,841.92786Q1315.8088,842.18555,1315.034,842.0443L1315.0734,842.05096Q1314.3987,841.9437,1313.8746,841.6946L1313.8746,841.69464Q1313.0302,841.2932,1312.5891,840.55237L1312.6836,840.6949Q1311.657,839.2993,1310.9564,837.32416C1310.9323,837.256,1310.9124,837.1866,1310.8967,837.11597L1310.8967,837.11597Q1309.9706,832.9291,1312.0564,830.7468L1311.9436,830.877Q1313.1257,829.36914,1314.5734,828.90375C1314.6237,828.8876,1314.6746,828.8737,1314.7261,828.8621L1314.7261,828.8621Q1315.5303,828.68134,1316.2904,828.9986L1315.6146,828.8628Q1316.2676,828.8635,1316.8787,829.33264L1316.8789,829.33276Q1317.1508,829.54156,1317.5533,829.9441L1317.2732,829.7163Q1317.0511,829.57086,1316.7638,829.5318C1316.968,829.5596,1317.1658,829.62305,1317.348,829.71924L1317.348,829.71924Q1316.3738,829.205,1315.7191,829.8194L1315.7195,829.81903Q1315.728,829.81104,1315.7451,829.7925C1316.4038,829.078,1317.5171,829.0327,1318.2317,829.6914C1318.9463,830.3501,1318.9915,831.4634,1318.3328,832.1779 Z"/>
</g>
<g style="fill:rgb(255,255,255); fill-opacity:1.0; stroke-linejoin: miter">
</g>
<g style="fill:rgb(255,255,255); fill-opacity:1.0; stroke-linejoin: miter">
<path d="M1309.0564,808.49304Q1308.0793,810.28094,1306.766,811.4823L1306.779,811.4833Q1313.2982,813.3607,1316.9684,813.806L1316.9684,813.807C1316.7593,813.1714,1316.6143,812.514,1316.5374,811.84344L1316.5374,811.84296Q1316.44,810.9927,1316.4192,810.2042L1316.4324,810.2052Q1313.6233,809.76953,1309.0696,808.49304 Z"/>
</g>
<g style="fill:rgb(52,244,44); fill-opacity:1.0; stroke-linejoin: miter">
</g>
<g style="fill:rgb(255,255,255); fill-opacity:1.0; stroke-linejoin: miter">
<path d="M1358.3881,703.2158L1358.3741,703.2159Q1358.0718,703.2002,1357.5499,703.3746Q1356.7366,703.1403,1355.9094,703.33545Q1354.7343,703.5868,1353.6179,704.4982Q1351.2955,706.85376,1351.1975,709.6578Q1351.1884,710.6064,1351.6469,711.59894Q1351.9879,712.34033,1352.7427,712.9202Q1353.0098,713.5983,1353.4917,714.04736Q1353.7561,714.3119,1354.1602,714.57007Q1354.1083,714.5324,1354.2125,714.6492L1354.599,715.0581L1354.9875,715.41235Q1355.4049,715.76245,1355.9214,716.0649Q1357.1364,716.63293,1358.0646,716.56946Q1358.6387,716.549,1359.2732,716.39496L1359.9232,716.15155L1360.5021,715.7995L1361.01,715.3388L1361.4468,714.7694Q1362.0812,713.74634,1362.3308,712.4099Q1362.4895,711.78796,1362.5688,710.1372Q1362.5552,708.981,1362.451,708.56287Q1361.9196,706.34863,1361.4714,705.81256Q1361.0867,705.18854,1360.5253,704.75525Q1360.3289,704.30963,1359.8811,703.86005Q1359.4379,703.5039,1359.2821,703.4442Q1358.8173,703.2362,1358.3881,703.2158 Z"/>
</g>
<g style="fill:rgb(255,255,255); fill-opacity:1.0; stroke-linejoin: miter">
<path d="M1367.8542,710.164Q1365.9608,710.164,1365.3798,712.0542L1365.3024,712.56964L1365.3456,712.23553L1365.3319,712.2365Q1364.9296,713.91534,1365.8242,715.2691C1366.1626,715.7812,1366.7228,716.0588,1367.294,716.0588C1367.4518,716.0588,1367.6105,716.0376,1367.7656,715.99426L1367.7793,715.99524Q1367.5842,716.89545,1367.3011,718.311L1367.2986,718.31195Q1367.1562,718.84503,1366.8304,719.5833L1366.83,719.5843Q1366.5092,720.29474,1366.7808,721.1311C1366.8357,721.30035,1366.9161,721.4604,1367.019,721.6056Q1367.5085,722.29584,1368.3687,722.4065C1368.4432,722.4161,1368.5183,722.4209,1368.5933,722.4209C1368.6908,722.4209,1368.7882,722.4128,1368.8846,722.3966Q1369.0784,722.3641,1369.1846,722.35364L1369.1984,722.3546Q1369.3794,722.4024,1369.8131,722.6194L1369.8115,722.62036Q1370.2166,722.8258,1370.7115,722.8258Q1370.9297,722.8258,1371.1653,722.7857L1371.1663,722.7855Q1371.3118,722.7607,1371.4792,722.71936C1371.6837,722.6689,1371.8774,722.58215,1372.0513,722.46326Q1373.6984,721.33636,1373.8951,719.0811C1373.9796,718.1129,1373.2632,717.2596,1372.295,717.1751C1372.243,717.1706,1372.1913,717.16833,1372.1401,717.16833C1371.7311,717.16833,1371.3496,717.3102,1371.0472,717.5505Q1371.1632,716.9918,1371.2546,716.5745L1371.2722,716.4904Q1371.4904,715.2942,1371.2776,714.22955L1371.2709,714.1979Q1371.1168,713.495,1370.9731,712.96875L1370.9868,712.9697C1370.4998,712.3097,1370.0975,711.59357,1369.7886,710.8374L1369.8022,710.8384Q1369.0311,710.16675,1368.0808,710.16675Q1368.0498,710.16675,1368.0186,710.1675Q1367.9352,710.164,1367.8542,710.164 Z"/>
</g>
<g style="fill:rgb(255,255,255); fill-opacity:1.0; stroke-linejoin: miter">
<path d="M1320.0219,739.95465L1320.0219,739.95465Q1319.9031,738.8866,1319.9983,737.94946L1320.0068,737.87964Q1320.1018,737.2112,1320.2258,735.6975C1320.2295,735.65265,1320.2349,735.60846,1320.242,735.564L1320.242,735.564Q1320.3298,735.01294,1320.5225,734.46954C1320.5411,734.41675,1320.5623,734.365,1320.5859,734.3142L1320.5859,734.3142Q1321.3842,732.6012,1321.6401,731.92017L1321.6655,731.8565L1321.6665,731.8542L1321.6833,731.8157Q1321.8678,731.4053,1322.1215,730.9447L1322.1285,730.932Q1322.9741,729.4262,1323.8312,728.38885C1324.4502,727.63965,1325.5592,727.53406,1326.3085,728.153C1327.0577,728.772,1327.1633,729.8811,1326.5443,730.6303L1326.5443,730.6303Q1325.8887,731.424,1325.1971,732.6553L1325.2042,732.6426Q1325.0187,732.9795,1324.8933,733.2584L1324.9102,733.2199L1324.9092,733.2222L1324.9346,733.15857Q1324.6312,733.96545,1323.7761,735.80066L1323.8396,735.6453Q1323.7544,735.88574,1323.7173,736.11835L1323.7334,735.98486Q1323.6008,737.604,1323.4912,738.3749L1323.4998,738.30505Q1323.4424,738.87036,1323.5197,739.56573C1323.6271,740.5316,1322.9312,741.40173,1321.9652,741.5091C1320.9993,741.61646,1320.1293,740.92053,1320.0219,739.95465 Z"/>
</g>
<g style="fill:rgb(255,255,255); fill-opacity:1.0; stroke-linejoin: miter">
<path d="M1330.7772,721.98236L1330.7772,721.98236Q1331.0416,721.718,1331.3242,721.3224L1331.2723,721.39923Q1333.2166,718.34924,1334.2847,717.07916L1333.8718,718.2118L1333.8718,718.2117L1334.1656,717.2381Q1334.369,716.9319,1334.6547,716.66693L1334.6545,716.66705Q1335.5607,715.8264,1337.4276,715.3495C1338.3693,715.10895,1339.3275,715.67725,1339.5681,716.6189C1339.8087,717.56055,1339.2404,718.51886,1338.2987,718.7594L1338.2987,718.7594Q1337.2985,719.0149,1337.0483,719.247L1337.0482,719.24713Q1337.069,719.2279,1337.0973,719.18524L1337.3911,718.2117L1337.3911,718.2118C1337.0608,719.2403,1337.0209,719.29376,1336.9783,719.3444L1336.9783,719.3444Q1336.0591,720.4374,1334.2401,723.29095L1334.1882,723.3678Q1333.736,724.0011,1333.2655,724.4714C1332.5781,725.15845,1331.464,725.15826,1330.7769,724.47095C1330.0897,723.7836,1330.0898,722.66943,1330.7772,721.98236 Z"/>
</g>
<g style="fill:rgb(255,255,255); fill-opacity:1.0; stroke-linejoin: miter">
<path d="M1345.7427,710.2345L1345.7427,710.2345Q1345.9266,710.9699,1345.9863,711.7818L1345.991,711.8909Q1346.0126,713.8067,1346.1666,715.0335L1342.6709,715.43976Q1342.6172,714.9369,1342.5122,714.49255L1342.5183,714.51794Q1342.4254,714.1492,1342.1786,713.5286C1342.1515,713.4606,1342.1288,713.3908,1342.1104,713.3199L1342.1104,713.3199Q1342.0209,712.9746,1342.0137,712.64746L1342.0371,712.8974Q1341.7595,711.22705,1343.4368,710.4537L1343.2749,710.53876Q1343.8618,710.1901,1344.6644,710.23285L1344.6642,710.23285Q1345.7275,710.28937,1347.9233,711.17773C1347.9869,711.2034,1348.049,711.23285,1348.109,711.2658L1348.1089,711.26575Q1348.5283,711.4956,1348.8573,711.79504L1348.8569,711.79474Q1349.8186,712.6696,1349.9174,713.96277L1349.8809,713.7167Q1350.0126,714.3118,1349.8335,714.98737L1349.8335,714.98737Q1349.5852,715.92444,1348.6082,717.29803C1348.5801,717.33746,1348.5507,717.3754,1348.5195,717.4124L1348.5195,717.4124Q1347.4525,718.678,1346.8265,719.1294L1346.8268,719.1292Q1345.4443,720.12665,1344.2959,719.15845L1344.2983,719.16046Q1344.2444,719.1151,1344.1931,719.06494L1344.2177,719.08856Q1343.3981,718.3166,1343.434,717.11224L1343.4365,717.2722Q1343.3712,716.205,1343.4454,714.3667L1343.4441,714.44666Q1343.4421,714.04956,1343.3989,713.7172L1343.4031,713.74725Q1343.3462,713.3617,1343.3054,713.2349L1343.3057,713.23566Q1343.6292,714.23883,1344.8704,714.1889L1346.232,713.45276Q1346.3407,713.30054,1346.3733,713.1872L1346.3734,713.18646Q1346.3323,713.32983,1346.3054,713.7508L1346.309,713.6389L1346.309,713.6394L1346.302,713.7964Q1346.3022,713.7943,1346.3021,713.7952L1346.302,713.7974Q1346.2845,714.04456,1346.3793,714.9328L1346.3771,714.91284Q1346.3921,715.03986,1346.3921,715.1946L1346.3921,715.19617Q1346.392,715.3897,1346.367,715.7681C1346.3629,715.8294,1346.3556,715.89026,1346.3452,715.95074L1346.3452,715.95074L1345.99,718.01434C1345.8251,718.9721,1344.9152,719.61487,1343.9574,719.45C1342.9996,719.28516,1342.3568,718.37506,1342.5217,717.4173L1342.5217,717.4173L1342.877,715.3537L1342.8552,715.5363Q1342.8727,715.27106,1342.8728,715.193L1342.8728,715.1946Q1342.8728,715.2486,1342.882,715.32605L1342.8798,715.3061Q1342.7518,714.1068,1342.7913,713.54926L1342.7911,713.55145Q1342.7935,713.5172,1342.7966,713.4824L1342.7897,713.6394L1342.7897,713.6389L1342.7932,713.52704Q1342.8442,712.7252,1342.9908,712.2149L1342.991,712.2142Q1343.1251,711.7478,1343.3673,711.40845C1343.6833,710.9657,1344.1859,710.69415,1344.729,710.6723L1344.729,710.6723Q1346.1584,710.6148,1346.6553,712.1556L1346.6555,712.1563Q1346.7854,712.5596,1346.8848,713.23395L1346.8889,713.264Q1346.9602,713.81335,1346.9634,714.42883L1346.962,714.5088Q1346.8949,716.17035,1346.9492,717.0571C1346.9525,717.1104,1346.9534,717.16376,1346.9518,717.2171L1346.9518,717.2171Q1346.963,716.83966,1346.6307,716.5267L1346.6553,716.5503Q1346.6099,716.50586,1346.562,716.46564L1346.5645,716.46765Q1345.6128,715.66534,1344.7677,716.2751L1344.768,716.2749Q1345.0416,716.0775,1345.8289,715.14386L1345.7402,715.25824Q1346.3469,714.40515,1346.4316,714.08575L1346.4316,714.08575Q1346.3915,714.2371,1346.4446,714.4769C1346.4268,714.39624,1346.4144,714.3136,1346.4081,714.23083L1346.4081,714.23083Q1346.4158,714.33185,1346.4885,714.398L1346.4882,714.3977Q1346.469,714.38025,1346.4177,714.3522L1346.6033,714.4402Q1344.9531,713.7725,1344.4774,713.74725L1344.4772,713.74725Q1344.7412,713.7613,1345.0723,713.56464C1345.0195,713.5959,1344.9656,713.62427,1344.9104,713.6497L1344.9104,713.6497Q1345.6714,713.2988,1345.5088,712.3204C1345.5226,712.403,1345.5304,712.4866,1345.5322,712.5703L1345.5322,712.5703Q1345.5304,712.48816,1345.5171,712.4367L1345.4489,712.22797Q1345.7816,713.0647,1345.9312,713.6581L1345.9373,713.6835Q1346.0933,714.344,1346.1704,715.06586C1346.273,716.0259,1345.5829,716.8893,1344.6238,717.00073C1343.6647,717.1122,1342.795,716.43005,1342.6747,715.4721L1342.6747,715.4721Q1342.4955,714.0455,1342.4717,711.9306L1342.4763,712.03973Q1342.4388,711.5291,1342.3286,711.08875C1342.0928,710.14594,1342.6658,709.1904,1343.6085,708.9545C1344.5513,708.7186,1345.5068,709.2917,1345.7427,710.2345 Z"/>
</g>
<g style="fill:rgb(255,255,255); fill-opacity:1.0; stroke-linejoin: miter">
<path d="M1311.1566,813.61127L1311.1566,813.61127L1311.0442,813.8308L1311.0481,813.82324Q1309.41,817.06067,1308.413,818.134C1308.3668,818.18365,1308.3176,818.23083,1308.266,818.27484L1308.266,818.27484Q1306.4421,819.8315,1304.8329,817.99603L1304.7565,817.9028Q1303.9215,816.80743,1304.4714,815.38275L1304.4717,815.38214Q1304.5248,815.24475,1304.5914,815.1061L1304.5605,815.1738Q1304.5895,815.10645,1304.6229,815.0371L1304.624,815.0349Q1305.0281,814.1998,1306.1633,813.09314L1306.0848,813.1748Q1306.1604,813.091,1306.2505,813.0058L1306.2494,813.00684Q1306.8035,812.4819,1308.6543,811.31915C1309.4772,810.8022,1310.5634,811.05023,1311.0803,811.87317C1311.5973,812.6961,1311.3492,813.7823,1310.5264,814.29926L1310.5264,814.29926Q1308.9714,815.27606,1308.67,815.56165L1308.669,815.5627Q1308.6802,815.55206,1308.6986,815.5316L1308.6201,815.6133Q1307.9268,816.2892,1307.792,816.56775L1307.7931,816.56555Q1307.7936,816.5646,1307.7942,816.5631L1307.7633,816.63086Q1307.757,816.64404,1307.7544,816.6507L1307.7546,816.6501Q1307.9135,816.2387,1307.5555,815.7692L1307.4791,815.67596Q1306.7988,814.9001,1305.9813,815.59784L1305.8344,815.7387Q1306.4935,815.02905,1307.9077,812.23425L1307.9116,812.2267L1308.024,812.00714C1308.467,811.1421,1309.5275,810.7999,1310.3925,811.2429C1311.2574,811.6859,1311.5996,812.7462,1311.1566,813.61127 Z"/>
</g>
<g style="fill:rgb(255,255,255); fill-opacity:1.0; stroke-linejoin: miter">
<path d="M1304.6818,813.60986L1304.6818,813.60986L1305.1641,812.9153C1305.7184,812.117,1306.815,811.9192,1307.6132,812.4735C1308.4114,813.02783,1308.6093,814.1243,1308.0549,814.9226L1308.0549,814.9226L1307.5726,815.6172C1307.0183,816.41547,1305.9218,816.6133,1305.1235,816.05896C1304.3253,815.50464,1304.1274,814.40814,1304.6818,813.60986 Z"/>
</g>
<g style="fill:rgb(255,255,255); fill-opacity:1.0; stroke-linejoin: miter">
<path d="M1317.2074,812.1941L1317.2058,812.23706L1317.2054,812.23804L1317.2072,812.1941 Z M1307.8499,805.8899Q1307.4028,805.8899,1306.9283,806.0465L1306.9282,806.0475Q1306.6128,806.1506,1306.2717,806.3325L1306.2587,806.3335Q1305.9797,806.40594,1305.6907,806.5382L1305.6852,806.5392Q1305.2208,806.73804,1304.8837,807.1226L1304.8707,807.1236Q1304.5128,807.32556,1304.2135,807.6613L1304.2134,807.6623Q1303.7737,808.1437,1303.4481,808.7075L1303.435,808.7085C1303.3314,808.79974,1303.2393,808.9039,1303.1602,809.01776Q1302.2871,810.2744,1302.2549,812.4849C1302.2543,812.5296,1302.2554,812.57367,1302.258,812.6183Q1302.3398,813.9521,1302.5552,814.78644L1302.5421,814.7874Q1302.5436,814.9008,1302.5452,815.01855L1302.5472,815.0844Q1302.5605,815.34503,1302.5972,815.5672L1302.5972,815.5682Q1302.804,816.82446,1303.7982,817.278L1303.7982,817.279C1304.0125,817.37573,1304.2441,817.42944,1304.4795,817.43604Q1304.5197,817.43713,1304.5592,817.43713Q1305.2937,817.43713,1305.8584,817.0522L1305.8715,817.05316Q1305.9042,817.05316,1305.9371,817.05316Q1306.5366,817.05316,1307.1832,816.72687L1307.1832,816.7268Q1307.4288,816.60284,1307.6903,816.41833L1307.7035,816.4193C1308.0338,816.75726,1308.4882,816.9497,1308.9633,816.9497C1309.0011,816.9497,1309.0391,816.9485,1309.0771,816.946L1309.0902,816.94696Q1309.047,817.4289,1309.1306,817.9363L1309.1428,818.0022Q1309.3524,819.0291,1309.7944,819.7106L1309.7944,819.71155Q1310.1841,820.3112,1310.7144,820.6441L1310.7012,820.6451Q1310.6748,822.8662,1313.0366,823.1544L1313.0369,823.1554Q1313.1188,823.1644,1313.202,823.1707L1313.2024,823.1717C1313.2465,823.174,1313.2906,823.17566,1313.3347,823.17566C1313.4397,823.17566,1313.5446,823.16626,1313.6478,823.14764L1313.661,823.1486Q1313.7493,823.1582,1313.8405,823.1582Q1314.3375,823.1582,1314.9221,822.8441L1315.0131,822.79175Q1316.5544,821.84125,1316.9617,819.90186C1316.9778,819.8253,1316.9886,819.748,1316.9944,819.67Q1317.0433,819.00824,1316.9386,818.4354L1316.9254,818.4364Q1316.9363,818.41364,1316.9469,818.39154L1316.9469,818.3916Q1316.9578,818.369,1316.9685,818.3459L1316.9553,818.34686Q1317.0134,818.26855,1317.0695,818.1858L1317.0695,818.1857Q1317.6764,817.2893,1317.9309,815.65295L1317.9349,815.62585Q1318.1425,814.14014,1317.943,813.2413L1317.943,813.24097Q1317.7559,812.39813,1317.2296,811.89465L1317.2164,811.8956Q1317.2161,811.8677,1317.2153,811.841L1317.2152,811.8389Q1317.2106,811.68353,1317.1925,811.53656L1317.1925,811.5372Q1316.925,809.35565,1314.9147,809.35565Q1314.6769,809.35565,1314.4147,809.3862L1314.4015,809.3872Q1313.9666,809.4272,1313.5999,809.6467L1313.5999,809.6477Q1313.3369,809.3344,1313.0284,809.0111L1312.9758,808.9583Q1312.7891,808.7784,1312.5732,808.64667L1312.5732,808.64764Q1312.4216,808.5541,1312.2697,808.48566L1312.2566,808.48663Q1311.9631,808.05,1311.5105,807.7122Q1311.1755,807.4623,1310.7594,807.2763L1310.7463,807.2773Q1309.8329,806.1376,1308.3457,805.93713L1308.3326,805.9381Q1308.0955,805.8899,1307.8499,805.8899 Z"/>
</g>
<g style="fill:rgb(255,255,255); fill-opacity:1.0; stroke-linejoin: miter">
<path d="M1324.4755,807.3962L1324.482,807.3898Q1324.4906,807.3815,1324.4994,807.373L1324.4949,807.3774Q1325.1012,806.78955,1326.9346,805.71576L1326.7341,805.85254Q1327.0099,805.635,1327.0919,805.54816L1327.0924,805.54767Q1327.0707,805.5707,1327.038,805.6155C1327.064,805.57983,1327.0908,805.5457,1327.1194,805.51215L1327.1194,805.51215Q1328.5638,803.81573,1328.936,803.1933C1328.9628,803.14856,1328.9915,803.1051,1329.0221,803.0629L1329.202,802.8521L1329.2023,802.85187L1329.0299,803.05237Q1329.0273,803.05585,1329.0303,803.0518L1329.0219,803.0634Q1329.167,802.8603,1329.3531,802.15924C1329.6025,801.2199,1330.566,800.6606,1331.5054,800.9099C1332.4447,801.15924,1333.0042,802.12286,1332.7548,803.0622L1332.7548,803.0622Q1332.4038,804.3846,1331.8849,805.1103L1331.8765,805.1219Q1331.8726,805.12726,1331.8632,805.14L1331.6908,805.3405L1331.6906,805.34076L1331.9565,804.9996Q1331.4335,805.8742,1329.7991,807.79376L1329.8805,807.6904Q1329.7811,807.82654,1329.6505,807.9648L1329.651,807.9643Q1329.3925,808.23816,1328.9136,808.61584C1328.85,808.666,1328.7831,808.7117,1328.7131,808.7526L1328.7131,808.7526Q1327.2462,809.6118,1326.9446,809.90424L1326.9401,809.9086Q1326.9391,809.90955,1326.9381,809.9105C1326.2522,810.58594,1325.1381,810.5773,1324.4562,809.8847C1323.7743,809.19214,1323.783,808.078,1324.4755,807.3962 Z"/>
</g>
<g style="fill:rgb(255,255,255); fill-opacity:1.0; stroke-linejoin: miter">
<path d="M1365.4115,695.87146L1365.4115,695.8714Q1366.0548,695.63025,1366.2231,695.4553L1366.222,695.4565Q1366.2222,695.4563,1366.2212,695.45746L1366.7501,695.0518L1366.7504,695.0517L1366.2737,695.40106Q1366.2334,695.4427,1366.2164,695.47034L1366.2167,695.4699Q1366.3425,695.2643,1366.4539,694.5859C1366.4648,694.51874,1366.4797,694.4525,1366.4984,694.3871L1366.4307,694.8708L1366.4307,694.87067L1366.5,694.38116Q1366.4767,694.4617,1366.4662,694.5227L1366.4657,694.52576Q1366.4988,694.33124,1366.6388,693.1173L1366.6538,693.0145Q1366.8829,691.71014,1366.9019,691.44385L1366.9022,691.4394Q1366.9019,691.44507,1366.9014,691.45496L1366.902,691.44006L1366.9027,691.42615L1366.9022,691.4368Q1366.9697,689.9873,1367.0338,689.1649L1367.0312,689.20355Q1367.0491,688.8844,1367.0411,688.59985L1367.0414,688.60565Q1367.0178,687.8506,1366.775,686.9006L1366.8077,687.01294Q1366.7955,686.9758,1366.7231,686.9104C1366.0021,686.25885,1365.9457,685.1461,1366.5972,684.42505C1367.2487,683.704,1368.3615,683.6475,1369.0825,684.2991L1369.0825,684.2991Q1369.849,684.9916,1370.1522,685.917L1370.1849,686.02936Q1370.5232,687.3534,1370.559,688.49567L1370.5592,688.50146Q1370.5713,688.9331,1370.5452,689.39996L1370.5426,689.4386Q1370.4827,690.20654,1370.4178,691.6004L1370.4174,691.6111L1370.4166,691.625L1370.4172,691.6101Q1370.4153,691.6532,1370.412,691.69855L1370.4124,691.6941Q1370.3805,692.1403,1370.1201,693.6233L1370.1351,693.5205Q1369.9846,694.82587,1369.9352,695.1162L1369.9347,695.11926Q1369.9117,695.2527,1369.8806,695.36017L1369.95,694.87067L1369.95,694.8708L1369.9268,695.1557Q1369.7039,696.5143,1369.2184,697.3073L1369.2186,697.3069Q1369.0322,697.6115,1368.801,697.85016L1368.3243,698.1995L1368.3241,698.19965L1368.853,697.794Q1368.8076,697.8452,1368.7601,697.8946L1368.759,697.89575Q1368.0372,698.64575,1366.6469,699.16693C1365.7368,699.508,1364.7227,699.04694,1364.3815,698.1369C1364.0403,697.22687,1364.5015,696.2126,1365.4115,695.87146 Z"/>
</g>
<g style="fill:rgb(255,255,255); fill-opacity:1.0; stroke-linejoin: miter">
<path d="M1364.5304,674.32117C1364.7965,674.9318,1365.3926,675.3501,1366.0767,675.3761C1366.0992,675.37695,1366.1217,675.3774,1366.144,675.3774C1366.1648,675.3774,1366.1854,675.377,1366.206,675.3763L1366.2197,675.37726Q1366.1028,675.3862,1365.9932,675.3862Q1364.8601,675.3862,1364.5167,674.32117 Z"/>
</g>
<g style="fill:rgb(255,255,255); fill-opacity:1.0; stroke-linejoin: miter">
<path d="M1362.8962,664.9618C1362.3502,664.9618,1361.812,665.215,1361.468,665.6915C1360.8992,666.4795,1361.0768,667.5794,1361.8647,668.14825Q1362.2258,668.40894,1362.3303,668.52484L1362.3167,668.5258L1363.1245,669.93945L1363.121,669.9404Q1363.175,670.0555,1363.2264,670.2012L1363.2238,670.20215L1363.6661,671.7064L1363.6776,671.74384Q1363.9436,672.5797,1364.3075,673.5788L1364.3069,673.5798Q1364.3783,673.796,1364.429,674.0139L1364.4293,674.01544C1364.4451,674.0833,1364.4646,674.1495,1364.4878,674.2138L1364.4741,674.2148Q1364.5442,674.6502,1364.7184,675.95624L1364.7118,675.9572Q1364.7216,676.2453,1364.696,676.4235L1364.6959,676.4245C1364.558,677.38556,1365.2258,678.2772,1366.1879,678.4152C1366.2738,678.42755,1366.3591,678.4334,1366.4434,678.4334C1367.3027,678.4334,1368.0494,677.8201,1368.1298,677.15674L1368.13,677.1559L1368.1799,676.92145Q1368.2606,676.3569,1368.2196,675.6252C1368.217,675.5804,1368.2129,675.5355,1368.2069,675.491Q1367.9701,673.71515,1367.8914,673.3333L1367.8912,673.333Q1367.879,673.2736,1367.8651,673.21655L1367.8569,673.2175Q1367.7633,672.814,1367.6282,672.4137L1367.6144,672.3742Q1367.2832,671.4652,1367.0433,670.71423L1367.0428,670.7152L1366.5745,669.1203L1366.5458,669.0316Q1366.3992,668.61554,1366.2175,668.2622L1366.1807,668.1941L1365.3086,666.66705L1365.3087,666.668Q1365.1674,666.4167,1364.9495,666.174L1364.9492,666.1738Q1364.593,665.77734,1363.9248,665.29486C1363.6133,665.07,1363.253,664.9618,1362.8962,664.9618 Z M1367.638,674.5686Q1367.2909,675.1624,1366.5773,675.32324C1367.0083,675.21356,1367.3835,674.94354,1367.6243,674.5686 Z"/>
</g>
<g style="fill:rgb(255,255,255); fill-opacity:1.0; stroke-linejoin: miter">
<path d="M1356.3164,659.7741L1356.1284,658.98267L1356.1284,658.9824L1356.3164,659.77386Q1356.0023,659.15,1355.1642,656.7923L1355.1755,656.8232Q1355.131,656.7049,1354.9452,656.4227L1354.9585,656.4426Q1354.126,655.21497,1353.872,654.9629L1353.871,654.962Q1353.8722,654.9632,1353.8772,654.96783L1353.8014,654.8931Q1353.2478,654.3132,1352.3201,653.719C1351.5017,653.1948,1351.2632,652.10645,1351.7874,651.2881C1352.3115,650.4697,1353.3999,650.2312,1354.2183,650.7554L1354.2183,650.7554Q1355.5017,651.57745,1356.347,652.46295L1356.2712,652.38824Q1356.3119,652.42596,1356.3517,652.4655L1356.3507,652.4646Q1356.8474,652.9574,1357.8713,654.4674L1357.8846,654.4873Q1358.286,655.09686,1358.469,655.5827L1358.4803,655.6136Q1359.2448,657.76416,1359.4597,658.191L1359.6477,658.9824L1359.6477,658.98267C1359.8969,659.05927,1359.5475,660.1173,1358.6794,660.5544C1357.8114,660.99146,1356.7535,660.64215,1356.3164,659.7741 Z"/>
</g>
<g style="fill:rgb(255,255,255); fill-opacity:1.0; stroke-linejoin: miter">
<path d="M1345.0363,648.1063L1345.0363,648.1063Q1345.1648,647.3496,1345.3097,646.794L1345.3407,646.68866Q1345.927,644.90485,1345.9946,644.5497L1345.9945,644.55035Q1345.9557,644.75464,1346.0001,645.02704C1345.9722,644.8559,1345.9696,644.6817,1345.9927,644.5098L1345.9927,644.5098Q1346.2533,642.5662,1346.3629,640.3192C1346.3662,640.2514,1346.3734,640.18414,1346.3845,640.1172L1346.3744,640.1867L1346.3746,640.18475L1346.3848,640.1151Q1346.5529,639.1012,1346.7411,638.5909L1346.7408,638.59143Q1346.9678,637.9755,1347.3881,637.62225C1347.4225,637.5933,1347.4581,637.5657,1347.4946,637.5395L1347.4946,637.5394Q1348.6682,636.6977,1350.0829,637.5123L1350.0826,637.5122Q1350.2616,637.6152,1350.4432,637.7478L1350.5292,637.8147L1352.8458,639.73615C1352.9192,639.797,1352.9875,639.86365,1353.05,639.93555L1353.05,639.93555Q1354.1691,641.2217,1356.2462,643.30756L1356.2351,643.2965Q1356.9928,644.0439,1357.0514,645.0928C1357.0612,645.2668,1357.0449,645.44135,1357.0034,645.6106L1357.0034,645.6106Q1356.6697,646.9699,1355.3726,647.3132C1355.3153,647.3283,1355.2577,647.3405,1355.1992,647.34985L1355.1992,647.34985Q1353.3787,647.63983,1352.4475,648.1434L1352.3975,648.16943L1352.3958,648.1703L1352.4016,648.16736Q1349.8268,649.4668,1349.369,649.9648L1349.3687,649.96515Q1349.4127,649.9173,1349.4646,649.8216C1349.1184,650.4595,1348.4161,650.81946,1347.6962,650.72797C1346.9762,650.6365,1346.3862,650.1123,1346.2106,649.4081L1346.2107,649.4085Q1346.0332,648.6975,1346.4204,647.92114L1346.4203,647.9213Q1346.9652,646.8284,1349.9855,643.4052L1351.0566,646.31146Q1348.8418,645.99567,1349.1366,643.92645L1349.1365,643.92664Q1349.1768,643.64355,1349.2914,643.3622L1349.2755,643.4024Q1350.3009,640.6965,1350.8623,639.8938L1350.8617,639.8946Q1350.9557,639.76,1351.0529,639.6481L1350.8567,639.92377Q1351.6411,638.56067,1353.1609,638.9362L1351.0245,640.2472Q1351.4252,638.5188,1353.1478,638.9136L1353.1448,638.91284Q1353.9279,639.0908,1354.3773,639.8813L1354.3778,639.8821Q1354.5317,640.1531,1354.7842,640.72864C1355.1746,641.6186,1354.7697,642.65656,1353.8796,643.047C1352.9896,643.43744,1351.9517,643.0324,1351.5613,642.14246L1351.5613,642.14246Q1351.3816,641.7329,1351.3175,641.62L1351.318,641.6208Q1351.6354,642.17896,1352.3647,642.3447L1352.3617,642.344Q1354.0609,642.7334,1354.453,641.0419C1354.3488,641.49725,1354.0631,641.8957,1353.6611,642.14307C1353.2592,642.39044,1352.7748,642.46606,1352.3167,642.35284L1352.3167,642.35284Q1353.3696,642.61304,1353.907,641.67926C1353.8506,641.7772,1353.7849,641.8696,1353.7108,641.95496L1353.7108,641.95496Q1353.735,641.9271,1353.747,641.91L1353.7463,641.91077Q1353.4366,642.3537,1352.5665,644.6496L1352.5507,644.6898Q1352.6001,644.5685,1352.6208,644.4226L1352.6207,644.4228Q1352.8223,643.00824,1351.5535,642.82733C1352.1937,642.9186,1352.7324,643.3538,1352.9562,643.96075C1353.1799,644.5677,1353.0526,645.2485,1352.6246,645.7336L1352.6246,645.7336Q1349.9093,648.8112,1349.57,649.49176L1349.5698,649.49194Q1349.7625,649.1057,1349.6252,648.5561L1346.3713,648.143Q1346.5272,647.85565,1346.7783,647.5827L1346.778,647.58307Q1347.6693,646.6134,1350.8159,645.0254L1350.8218,645.02246L1350.8235,645.0216L1350.7734,645.04767Q1352.2327,644.2586,1354.6455,643.87427L1354.4722,643.91095Q1353.7498,644.1021,1353.5854,644.77136L1353.5375,645.2892Q1353.5546,645.59576,1353.7637,645.802L1353.7526,645.79095Q1351.5897,643.61914,1350.3948,642.2456L1350.599,642.445L1348.2823,640.52356L1348.3683,640.59045Q1348.3402,640.57,1348.327,640.5624L1348.3268,640.56226Q1348.877,640.8791,1349.5459,640.3993L1349.6525,640.31647Q1349.9473,640.06866,1350.0433,639.808L1350.0431,639.80853Q1349.9703,640.006,1349.8567,640.6909L1349.8668,640.6213L1349.8666,640.6232L1349.878,640.4907Q1349.7611,642.8886,1349.481,644.9776L1349.4735,644.4604Q1349.5292,644.80164,1349.452,645.2076L1349.4519,645.20825Q1349.3416,645.7874,1348.6842,647.78754L1348.7152,647.6822Q1348.6089,648.08984,1348.506,648.6957C1348.3433,649.6538,1347.4346,650.2986,1346.4764,650.13586C1345.5183,649.97314,1344.8735,649.06445,1345.0363,648.1063 Z"/>
</g>
<g style="fill:rgb(255,255,255); fill-opacity:1.0; stroke-linejoin: miter">
</g>
<g style="fill:rgb(255,255,255); fill-opacity:1.0; stroke-linejoin: miter">
</g>
<g style="fill:rgb(255,255,255); fill-opacity:1.0; stroke-linejoin: miter">
</g>
<g style="fill:rgb(255,255,255); fill-opacity:1.0; stroke-linejoin: miter">
</g>
<g style="fill:rgb(255,255,255); fill-opacity:1.0; stroke-linejoin: miter">
</g>
<g style="fill:rgb(255,255,255); fill-opacity:1.0; stroke-linejoin: miter">
<path d="M1363.643,627.1489L1363.643,627.1489Q1363.8849,627.0219,1364.4246,626.54L1364.5198,626.46075Q1364.5017,626.47473,1364.4913,626.48376L1364.4897,626.48517Q1364.7673,626.2429,1366.1019,624.7523L1366.1721,624.67847Q1366.6237,624.2294,1367.0834,623.9397L1367.152,623.8986Q1368.7036,623.0167,1369.9854,622.4487L1369.9113,622.48364L1369.9117,622.4834L1369.9347,622.47217Q1370.6233,622.14026,1372.2401,621.64764L1372.0002,621.74036Q1373.38,621.0874,1373.8345,620.93317L1373.8342,620.9332Q1374.0637,620.8553,1374.2632,620.82745C1375.2257,620.6931,1376.1149,621.36444,1376.2493,622.32697C1376.3837,623.2895,1375.7123,624.1787,1374.7498,624.31305L1374.7498,624.31305Q1374.8801,624.29486,1374.9658,624.26575L1374.9656,624.2658Q1374.7025,624.3551,1373.5056,624.9215C1373.428,624.95825,1373.3479,624.9892,1373.2657,625.0142L1373.2657,625.0142Q1371.9077,625.428,1371.4628,625.64246L1371.4857,625.6312L1371.4852,625.6315L1371.4111,625.6664Q1370.2898,626.1633,1368.891,626.9583L1368.9596,626.91724Q1368.8292,626.9994,1368.6538,627.1738L1368.724,627.1Q1367.2454,628.75134,1366.804,629.13666L1366.8024,629.13806Q1366.7354,629.1964,1366.6736,629.2442L1366.7688,629.165Q1365.9052,629.93634,1365.2787,630.26514C1364.4182,630.7168,1363.3544,630.3854,1362.9027,629.52484C1362.451,628.6643,1362.7825,627.6006,1363.643,627.1489 Z"/>
</g>
<g style="fill:rgb(255,255,255); fill-opacity:1.0; stroke-linejoin: miter">
<path d="M1386.5859,617.85706L1386.5859,617.85706Q1386.8694,617.795,1387.1823,617.6614L1387.0813,617.7083L1388.8688,616.8076L1388.831,616.8272Q1388.9968,616.7386,1389.1979,616.66565L1389.1973,616.66583Q1389.4642,616.56885,1389.8463,616.4815L1389.9108,616.4681Q1390.1101,616.4303,1390.3134,616.41077L1390.3883,616.4052Q1390.717,616.38776,1391.0717,616.35254L1391.2456,616.34393L1391.2461,616.34393L1391.1,616.35004Q1391.0947,616.35046,1391.0929,616.35065L1391.0956,616.3504Q1391.2094,616.3398,1391.8282,616.25934L1391.7875,616.2651Q1391.8517,616.2552,1391.9286,616.24786L1391.9265,616.2481Q1392.063,616.2349,1392.3704,616.21814L1392.4663,616.2155L1392.4666,616.2155L1392.3059,616.22284Q1392.3684,616.2171,1392.4446,616.21436L1392.4448,616.21436Q1392.5817,616.2094,1392.8894,616.2113L1392.9551,616.2129L1392.9607,616.21313L1392.9531,616.2128Q1393.8552,616.24817,1395.1445,616.27924C1396.1161,616.3026,1396.8848,617.1092,1396.8613,618.0808C1396.8379,619.0524,1396.0314,619.82104,1395.0598,619.79767L1395.0598,619.79767Q1393.7463,619.766,1392.8154,619.72955L1392.8079,619.72925L1392.8022,619.729L1392.8679,619.7306Q1392.6346,619.7292,1392.5715,619.73145L1392.5718,619.73145Q1392.594,619.73065,1392.6272,619.7276L1392.4666,619.7349L1392.4663,619.7349L1392.5623,619.7323Q1392.3267,619.7452,1392.2646,619.75116L1392.2626,619.7514Q1392.287,619.7491,1392.3226,619.7436L1392.2819,619.7493Q1391.5992,619.8381,1391.4225,619.85455L1391.4252,619.8543Q1391.4092,619.85583,1391.3922,619.85724L1391.2461,619.86334L1391.2456,619.86334L1391.4196,619.85474Q1390.9863,619.89777,1390.5748,619.9196L1390.6498,619.91406Q1390.6064,619.9182,1390.5663,619.92584L1390.6307,619.9124Q1390.4613,619.9512,1390.3989,619.9738L1390.3983,619.974Q1390.4338,619.9611,1390.4902,619.93097L1390.4525,619.95056L1388.665,620.85126L1388.5641,620.8982Q1387.9465,621.1618,1387.3391,621.2949C1386.3898,621.5029,1385.4517,620.902,1385.2437,619.95264C1385.0356,619.0033,1385.6366,618.06506,1386.5859,617.85706 Z"/>
</g>
<g style="fill:rgb(255,255,255); fill-opacity:1.0; stroke-linejoin: miter">
<path d="M1404.5697,616.1608L1404.5697,616.1608Q1405.3698,615.6243,1406.4174,615.44995L1406.4669,615.44244L1407.3557,615.3204L1407.3141,615.3266Q1407.3099,615.3273,1407.314,615.3266L1407.3104,615.3272Q1408.7981,615.07605,1409.1718,615.0386L1409.1272,615.04364Q1409.698,614.9716,1410.6305,614.92224L1410.559,614.9275Q1410.8638,614.89886,1410.9369,614.88885L1410.9381,614.8887Q1410.902,614.8936,1410.8513,614.9044L1410.9684,614.88354Q1411.0712,614.8688,1411.1562,614.8518L1411.0636,614.8729Q1411.4805,614.7662,1411.7201,614.7269L1411.7191,614.72705Q1411.8058,614.7128,1411.8855,614.7044L1411.846,614.709Q1412.4529,614.63116,1413.0367,614.7464C1413.9902,614.9346,1414.6105,615.86005,1414.4224,616.8135C1414.2343,617.7669,1413.3088,618.3873,1412.3553,618.19916L1412.3553,618.19916Q1412.333,618.19476,1412.2935,618.1998L1412.2539,618.2044Q1412.278,618.20184,1412.2904,618.1998L1412.2894,618.19995Q1412.2029,618.2142,1411.9364,618.28235L1411.8438,618.30347Q1411.6671,618.3386,1411.4696,618.36707L1411.5867,618.3462Q1411.5092,618.36273,1411.413,618.37585L1411.4142,618.3757Q1411.2644,618.3962,1410.8881,618.4315L1410.8165,618.43677Q1410.011,618.47943,1409.5679,618.53534L1409.5233,618.5404Q1409.2671,618.56616,1407.8961,618.79755L1407.8926,618.79816Q1407.8885,618.7988,1407.8761,618.80084L1407.8345,618.80707L1406.9457,618.92914L1406.9952,618.92163Q1406.6979,618.9711,1406.5299,619.0838C1405.7228,619.6251,1404.6296,619.40955,1404.0884,618.6024C1403.5471,617.7953,1403.7626,616.70215,1404.5697,616.1608 Z"/>
</g>
<g style="fill:rgb(255,255,255); fill-opacity:1.0; stroke-linejoin: miter">
<path d="M1342.4226,629.257L1342.4226,629.257L1342.95,628.55493C1343.5336,627.77783,1344.6366,627.6211,1345.4137,628.2048C1346.1908,628.78845,1346.3475,629.8915,1345.7639,630.6686L1345.7639,630.6686L1345.2366,631.37067C1344.653,632.14777,1343.5499,632.3045,1342.7728,631.7208C1341.9957,631.13715,1341.839,630.0341,1342.4226,629.257 Z"/>
</g>
<g style="fill:rgb(255,255,255); fill-opacity:1.0; stroke-linejoin: miter">
<path d="M1355.366,629.1675L1355.366,629.1675L1355.1641,629.6279C1354.7738,630.518,1353.7358,630.9231,1352.8458,630.53284C1351.9558,630.1426,1351.5507,629.1047,1351.9409,628.2146L1351.9409,628.2146L1352.1428,627.75415C1352.5331,626.8641,1353.571,626.459,1354.461,626.84924C1355.3511,627.2395,1355.7562,628.2774,1355.366,629.1675 Z"/>
</g>
<g style="fill:rgb(255,255,255); fill-opacity:1.0; stroke-linejoin: miter">
<path d="M1421.2146,609.55365C1420.9911,609.55365,1420.7639,609.5965,1420.5444,609.687C1419.646,610.0575,1419.218,611.0862,1419.5885,611.9846Q1419.6804,612.2076,1419.7621,612.41797L1419.7479,612.41895Q1419.5992,612.81775,1419.6097,613.36597L1419.6097,613.36694L1419.6099,613.37573C1419.6149,613.60767,1419.6656,613.8365,1419.7594,614.0487Q1420.0596,614.72845,1420.1017,615.34515L1420.1124,615.4535Q1420.5935,619.1341,1420.7218,620.594L1420.7076,620.595L1420.7646,621.65594C1420.7965,622.24866,1421.1194,622.76074,1421.5912,623.05524L1421.577,623.0562Q1421.5662,623.11884,1421.5577,623.1816L1421.5577,623.1819Q1421.4828,623.74176,1421.5974,624.24567C1421.6494,624.4741,1421.7465,624.69,1421.8834,624.88116Q1422.4974,625.7372,1423.2611,625.7372Q1423.8181,625.7372,1424.455,625.28156L1424.455,625.28253Q1424.6313,625.15533,1424.794,624.9818L1424.8514,624.91736L1426.3965,623.0965L1426.4454,623.03613Q1426.9863,622.33844,1427.2035,621.6325L1427.2036,621.63196L1427.1942,621.63293L1427.2423,621.48047L1427.246,621.48145Q1427.3439,621.1273,1427.3806,620.8201Q1427.4398,620.32526,1427.3665,619.91815L1427.3522,619.9191Q1427.8955,619.1929,1428.256,618.5732L1428.2908,618.51056Q1428.6936,617.7481,1428.8182,617.1079L1428.8182,617.1077Q1428.916,616.6052,1428.8536,616.1493L1428.8423,616.15027Q1428.7885,615.42316,1428.2931,614.7562L1428.2931,614.75616Q1427.4128,613.571,1424.4847,612.0906L1424.4828,612.09155Q1423.8093,611.72345,1423.2003,611.5252L1423.1862,611.5262Q1423.0305,611.0996,1422.8422,610.64294C1422.5621,609.9639,1421.9061,609.55365,1421.2146,609.55365 Z"/>
</g>
<g style="fill:rgb(255,255,255); fill-opacity:1.0; stroke-linejoin: miter">
<path d="M1441.3043,610.3977Q1440.4457,610.3977,1439.5402,610.6821L1439.5328,610.6831Q1439.2042,610.7725,1438.9022,610.9079L1438.8878,610.9089Q1437.9142,610.9768,1437.0732,611.511L1437.071,611.51196Q1436.489,611.8541,1436.1375,612.1721L1436.1372,612.17236Q1435.7343,612.53687,1435.5315,612.95496L1435.5216,612.95593Q1435.4196,613.1394,1435.3389,613.353L1435.3389,613.354Q1435.1282,613.91125,1435.0205,614.81165L1435.0193,614.8126Q1434.6743,617.0722,1435.8077,619.68085L1435.8477,619.76654L1435.8478,619.7675C1435.9366,619.9446,1436.0553,620.10645,1436.1987,620.2451Q1436.4436,620.4818,1436.7076,620.66156L1436.7076,620.66254Q1437.5366,621.2258,1438.4082,621.2258Q1438.8848,621.2258,1439.3741,621.05707L1439.3885,621.05804Q1439.871,621.275,1440.4133,621.275Q1440.9401,621.275,1441.5234,621.0694L1441.5233,621.0704Q1441.7726,620.98157,1442.0219,620.8516L1442.0074,620.8526Q1443.2822,620.3081,1443.9493,619.56036L1443.9496,619.5601Q1443.955,619.5541,1443.9603,619.54803L1443.9459,619.549Q1444.1785,619.3333,1444.374,619.0263L1444.374,619.0264Q1444.8076,618.34607,1445.4291,616.5263L1445.4624,616.41736Q1446.28,613.39667,1444.3466,611.572L1444.2593,611.49493Q1443.5238,610.88763,1442.8253,610.6348L1442.8252,610.6358Q1442.5258,610.5264,1442.2286,610.48004L1442.2146,610.481Q1441.7662,610.3977,1441.3043,610.3977 Z"/>
</g>
<g style="fill:rgb(0,0,0); fill-opacity:1.0; stroke-linejoin: miter">
<path d="M1795.4283,490.55914L1792.5846,497.49118Q1792.7205,496.22934,1792.9165,494.21893L1792.8986,494.21988Q1794.9753,491.1458,1795.4283,490.55914 M1786.9199,533.90436L1786.9199,533.90466L1786.9199,533.90466L1786.9199,533.9046L1786.9199,533.90454L1786.9199,533.90454L1786.9199,533.9045L1786.9198,533.9044L1786.9198,533.9044L1786.9198,533.90436L1786.9199,533.90436 M1740.6918,543.8166L1740.6918,543.81757 M1689.8464,619.9999L1689.8464,620.00085 M1747.1844,693.99304L1746.442,695.80835L1740.6246,710.15094Q1721.415,742.3111,1705.8406,766.9282Q1712.8077,751.5421,1719.4531,737.97363Q1722.7758,731.1894,1726.018,724.8596L1729.24,718.64343Q1732.4506,712.54047,1735.546,706.8937Q1743.656,697.3209,1747.1844,693.99304 M1844.8949,387.98773L1844.3737,388.0068Q1840.9255,388.48505,1839.3445,390.65274L1793.8763,447.45892Q1788.4934,444.17233,1775.1543,452.99734Q1779.5804,446.55545,1775.1971,442.3566Q1770.4202,438.2833,1765.1163,442.61356Q1753.6481,457.71918,1713.9584,497.4876Q1674.1194,552.06934,1673.251,562.55914Q1672.2981,569.2671,1679.8481,572.79584Q1684.6063,573.7916,1689.8578,570.91724Q1693.0312,575.7056,1696.8556,575.1854Q1700.557,575.02094,1706.083,570.34753Q1704.692,570.8422,1686.4114,620.5776Q1683.9283,629.36774,1689.6488,632.266Q1697.2048,636.0403,1704.5021,624.2931L1721.4606,582.2134Q1727.5416,567.6928,1733.6334,554.526Q1738.0261,555.55597,1740.6779,553.6099L1751.7041,542.229Q1742.1388,574.6903,1746.5293,591.48114Q1749.4065,602.7716,1758.3533,607.35486Q1771.6471,612.33997,1773.6221,609.0103Q1778.1038,604.9948,1776.0103,600.2544Q1775.26,596.5583,1765.3154,594.4928L1761.8586,590.7563Q1759.1498,585.9693,1759.4323,576.9803Q1759.3916,567.4004,1765.2251,546.6072L1772.7776,529.7888Q1772.335,540.5488,1776.3086,542.78613Q1783.0142,546.7235,1788.4211,540.94403Q1789.9797,539.6272,1794.4884,530.0111L1811.8495,487.96274Q1817.1218,488.46246,1821.1243,483.6078L1859.2147,430.75192Q1859.6432,445.43854,1850.9862,465.77405Q1843.4557,483.83835,1816.8846,534.2088Q1789.2078,594.0126,1755.7424,673.2981Q1744.7775,673.0829,1723.73,698.9648Q1696.9979,748.67004,1676.9532,797.75366Q1672.203,812.03546,1683.7388,814.28784Q1686.0134,814.1542,1688.9933,811.49475Q1696.7206,804.1858,1706.245,792.05164Q1711.725,796.85046,1716.8126,792.2589L1755.5922,716.5757Q1748.035,786.4271,1726.2126,861.6072Q1726.5217,869.3896,1733.2513,869.70264Q1738.3259,869.4636,1740.0825,864.53265Q1753.1998,818.20544,1761.1965,776.60095Q1773.7161,716.00146,1768.3527,691.42114L1773.4532,680.4343Q1773.5084,675.86523,1770.8319,674.0429Q1790.1106,627.3794,1829.6246,540.4851Q1857.339,487.5167,1861.8828,476.3269Q1869.2253,459.28333,1870.7607,451.8789Q1878.9384,414.3462,1862.4263,413.72418Q1857.1381,413.06348,1848.1665,421.67236L1826.9137,451.2396Q1836.0522,425.3594,1846.852,411.47275Q1848.3877,406.91547,1847.3137,404.66653L1851.6849,397.1686Q1852.3806,388.47638,1844.8949,387.98773"/>
</g>
<g style="fill:rgb(0,0,0); fill-opacity:1.0; stroke-linejoin: miter">
<path d="M1384.2008,612.4133L1384.2008,612.41364Q1384.2136,612.4273,1384.2393,612.455L1384.2225,612.4553L1384.1869,612.4133L1384.2008,612.4133 M1443.4918,631.7786L1443.1815,632.9052L1442.8402,633.97076L1442.4681,634.9754L1442.0651,635.919L1441.6311,636.8017L1441.1663,637.62335L1440.6704,638.3841L1440.1438,639.0838L1439.5862,639.7229Q1439.3387,639.6943,1438.9756,639.6311L1439.0437,639.35803Q1439.2322,638.6949,1439.4171,638.216L1439.4027,638.2163Q1441.9746,633.9876,1443.4918,631.7786 M1354.7627,662.4882L1354.767,662.6107Q1354.7848,663.09875,1354.8148,663.56305L1354.4991,662.8665L1354.4857,662.8668L1354.7491,662.4882L1354.7627,662.4882 M1369.1478,663.93616L1369.1478,663.9364 M1361.2305,681.7689L1361.2305,681.76917L1361.1711,682.0586L1361.1241,682.34906L1361.0894,682.6404L1361.0667,682.932L1361.056,683.22375L1361.0574,683.51514L1361.0706,683.8057L1361.0957,684.09534L1361.1327,684.3834L1361.1813,684.6697L1361.2416,684.95374L1361.3135,685.2355L1361.1943,684.8933L1361.1023,684.54034L1361.0374,684.17664L1360.9995,683.8022L1360.9888,683.417L1361.0051,683.02106L1361.0486,682.61444L1361.1191,682.197L1361.2168,681.7689L1361.2305,681.7689 M1432.9492,588.5113L1432.5979,588.5148Q1424.9578,588.36035,1413.3103,598.6854Q1409.2635,587.67847,1401.7085,590.4042Q1397.969,591.5605,1393.4856,599.8864Q1387.5586,599.6024,1384.6467,601.69025Q1382.4197,602.5213,1373.2458,613.0928Q1369.4979,607.2673,1363.5466,609.34656L1356.7638,613.60034Q1350.1711,621.45013,1346.6753,627.0136Q1344.4669,624.4003,1340.621,624.8012Q1336.0912,625.883,1334.7379,629.26935Q1332.422,632.30115,1335.8447,648.9751Q1327.5023,665.725,1326.4454,665.93756Q1325.1434,668.9373,1326.9237,672.6306Q1329.9014,677.25867,1334.5664,675.6926Q1337.6902,675.55457,1341.735,669.1202Q1343.5883,673.2528,1346.2655,675.4715Q1360.8639,684.88055,1361.6034,686.0408Q1364.8734,690.2677,1364.6503,694.5641Q1356.3458,693.94507,1354.7969,698.1306Q1347.7489,697.5502,1344.752,698.88257Q1338.159,702.229,1330.339,711.0776Q1327.2568,711.6519,1325.3529,713.1058Q1310.2568,727.4578,1314.2598,735.8249Q1317.5961,745.1168,1325.2039,742.1073Q1328.0095,741.0498,1329.8928,738.56555Q1335.03,728.34454,1337.6875,724.8253Q1347.5629,725.5699,1347.239,724.95074Q1350.7732,724.47235,1357.799,720.6367Q1362.2512,730.17303,1367.5968,734.7972Q1377.3773,744.417,1379.4541,742.8573Q1381.212,742.77747,1382.125,742.33685Q1383.7236,741.62854,1384.543,740.69684Q1387.5693,740.4166,1389.2549,738.90875Q1392.2498,736.22217,1391.7275,732.3281Q1391.1528,730.0704,1390.7373,729.6869Q1389.932,728.4046,1388.7299,727.59796Q1388.4658,725.84314,1387.3475,724.3586L1380.2646,716.84125Q1379.6243,713.8286,1375.4901,706.7396Q1380.2764,701.29224,1378.2844,688.9042Q1377.0527,683.2032,1373.9226,678.66986Q1372.4415,676.3654,1368.6409,673.53125Q1375.6422,669.85913,1383.7163,652.8166Q1390.2262,653.35925,1399.0286,648.12854Q1402.9094,652.9577,1408.8914,651.54224Q1412.7397,651.34644,1420.1448,637.04193Q1422.3752,637.9254,1424.9967,637.12146Q1423.6447,645.82227,1428.8892,650.1963Q1433.0499,654.25073,1443.2308,653.92456Q1450.5651,651.76105,1455.7422,640.0365Q1459.9106,631.4568,1457.4835,617.5405Q1464.7615,614.81396,1462.3832,607.59143Q1460.8484,604.5181,1457.5701,603.68677Q1455.2638,602.8096,1449.9974,605.27515Q1447.9678,604.4719,1445.3817,604.34326Q1446.4316,588.89124,1432.9492,588.5113"/>
</g>
<g style="fill:rgb(196,28,13); fill-opacity:1.0; stroke-linejoin: miter">
<path d="M1382.211,866.4601Q1383.2795,866.58514,1383.5043,867.889L1383.5042,867.889C1383.3962,867.2629,1382.9652,866.7406,1382.371,866.51587C1382.3137,866.4942,1382.2557,866.4756,1382.1973,866.4601 Z M1286.0552,886.62384Q1286.2289,886.62384,1286.4056,886.67175L1286.4056,886.67175C1286.3287,886.66174,1286.2516,886.6568,1286.1747,886.6568C1285.705,886.6568,1285.244,886.8415,1284.9009,887.1874L1284.9009,887.1874Q1285.4596,886.62384,1286.0552,886.62384 Z M1334.4575,725.10077Q1326.0905,725.10077,1320.5991,728.3515C1319.7466,728.8562,1319.4646,729.9564,1319.9692,730.80896C1320.3042,731.37476,1320.9015,731.6893,1321.5146,731.6893C1321.8253,731.6893,1322.14,731.6085,1322.4268,731.4388Q1327.0886,728.679,1334.4348,728.679Q1339.9651,728.679,1347.0165,730.24304L1347.003,730.24304Q1361.9172,734.6465,1378.8844,753.43646L1378.8706,753.43646Q1395.7435,783.58417,1397.3988,797.87C1397.4044,797.918,1397.4119,797.96576,1397.4213,798.0132Q1400.942,815.7266,1393.151,843.5013L1393.137,843.5013Q1382.7789,863.93854,1380.873,866.62897L1380.8593,866.62897C1380.7734,866.67706,1380.6909,866.7326,1380.6128,866.7954L1363.4838,880.5601L1363.4838,880.5601Q1355.6428,886.8437,1323.2562,895.00037L1323.207,895.0135Q1321.616,895.46265,1319.3654,895.46265Q1309.4679,895.46265,1286.8168,886.7758C1286.7285,886.742,1286.6387,886.71545,1286.5481,886.69617L1286.5353,886.69617Q1285.0804,885.8555,1277.6285,879.70447L1277.6157,879.70447Q1277.5887,879.62036,1277.5562,879.5351L1277.556,879.53503Q1276.4769,876.7089,1263.4739,864.4919L1263.4644,864.4919Q1238.7206,836.93677,1259.3569,780.098L1259.3444,780.098L1271.5775,760.6894L1289.2103,745.0471L1289.1975,745.0471Q1305.4224,736.08765,1315.8363,736.08765Q1317.5869,736.08765,1319.1735,736.3409C1319.2692,736.35614,1319.3644,736.3636,1319.4584,736.3636C1320.3245,736.3636,1321.0867,735.73474,1321.2275,734.8522C1321.3837,733.87384,1320.7172,732.95416,1319.7389,732.79803Q1317.9014,732.50476,1315.8882,732.50476Q1304.4424,732.50476,1287.3207,741.9854C1287.2054,742.04926,1287.0977,742.12537,1286.9991,742.21277L1269.0056,758.175C1268.8789,758.28735,1268.7688,758.4172,1268.6785,758.5604L1256.2366,778.30023C1256.1686,778.4081,1256.1124,778.5229,1256.0687,778.6427Q1234.5632,837.6769,1260.7949,866.88885C1260.829,866.92676,1260.8646,866.96326,1260.9017,866.9981Q1273.0719,878.42505,1274.1523,880.69403L1274.1396,880.69403C1274.1577,881.19495,1274.3855,881.67834,1274.7891,882.01215Q1283.536,889.2472,1285.1389,890.0138L1285.1392,890.01385Q1285.5292,890.2003,1285.8849,890.2557L1285.8721,890.2557Q1308.7836,899.0121,1319.5581,899.0121Q1322.2156,899.0121,1324.1348,898.4794L1324.1324,898.4794Q1357.2803,890.1309,1365.7294,883.3581L1365.7311,883.35675L1382.4146,869.9501L1382.4008,869.9501Q1382.9088,869.7734,1383.3335,869.29724L1383.3336,869.2972Q1385.0819,867.3366,1396.448,844.90424C1396.5007,844.8001,1396.5432,844.6912,1396.5748,844.57886Q1404.604,816.01465,1400.9683,797.45703L1400.9625,797.45703Q1399.2186,782.4061,1381.8794,751.4668C1381.8142,751.35046,1381.7363,751.2418,1381.6471,751.14276Q1363.8885,731.4399,1347.9124,726.77094L1347.7977,726.7415Q1340.4019,725.10077,1334.4575,725.10077 Z"/>
</g>
<g style="fill:rgb(30,202,31); fill-opacity:1.0; stroke-linejoin: miter">
<path d="M1321.9153,706.6656Q1330.0302,708.5151,1333.771,711.64014C1334.0941,711.91003,1334.5013,712.0573,1334.9211,712.0573L1334.9183,712.0573Q1338.5033,713.04626,1349.6158,739.07947L1349.6052,739.07947Q1355.5475,758.4915,1354.7122,761.0712L1354.7094,761.0712C1354.6167,761.26764,1354.5604,761.47943,1354.5435,761.69635L1351.0338,806.5295L1351.0338,806.5295L1348.2178,819.12537L1348.2141,819.12537Q1346.595,824.6452,1339.8367,837.43646L1339.8197,837.46936Q1339.111,838.8803,1337.7804,840.11804L1337.7336,840.1631L1337.7319,840.1631Q1325.5452,851.4788,1314.5641,851.76514L1314.5641,851.76514Q1299.4353,851.4105,1291.1807,827.7843C1291.0745,827.48047,1290.8889,827.21173,1290.6445,827.00543L1290.6317,827.00543Q1288.0378,823.81445,1284.605,782.13196L1284.5925,782.13196Q1285.4523,757.9206,1286.8356,752.6843C1286.8518,752.6229,1286.8647,752.56036,1286.8744,752.4976Q1288.0481,744.8318,1300.0634,722.667L1300.0868,722.6223Q1303.0344,716.7994,1309.1674,713.8208C1310.0585,713.388,1310.4302,712.3147,1309.9973,711.4235C1309.8165,711.0513,1309.5239,710.7697,1309.1796,710.59955L1309.1926,710.59955C1309.2806,710.6128,1309.3699,710.61957,1309.4596,710.61957C1309.7194,710.61957,1309.9833,710.56287,1310.2332,710.4432Q1317.9413,706.7517,1321.9021,706.6656 Z M1322.0905,703.07587Q1317.3105,703.07587,1308.6836,707.20746C1307.79,707.6354,1307.4127,708.7066,1307.8406,709.6001C1308.0219,709.97876,1308.3187,710.2648,1308.6687,710.43604L1308.6687,710.43604C1308.5743,710.4208,1308.4786,710.41296,1308.3823,710.41296C1308.1194,710.41296,1307.8524,710.47107,1307.6,710.5936Q1300.3794,714.1004,1296.8859,721.00195L1296.8851,721.00195Q1284.595,743.6797,1283.328,751.95465L1283.319,751.95465Q1281.8668,757.78973,1281.0071,782.00464C1281.0046,782.07477,1281.0062,782.1453,1281.012,782.2153Q1284.55,825.2476,1287.8617,829.2854L1287.8619,829.2857Q1287.9094,829.34357,1287.9581,829.398L1287.9453,829.398Q1297.0271,854.97894,1314.5281,855.35284L1314.6099,855.3527Q1326.991,855.05304,1340.2233,842.7455L1340.27,842.70044L1340.2705,842.69995L1340.272,842.69995Q1342.026,841.0546,1343.0092,839.1125L1343.0088,839.1125Q1350.0048,825.8712,1351.6921,820.01324L1351.719,819.9081L1354.5627,807.188C1354.5813,807.1052,1354.5939,807.02124,1354.6005,806.93665L1358.0944,762.3053L1358.0808,762.3053Q1358.1041,762.24194,1358.1254,762.17645L1358.1252,762.17645Q1359.3127,758.5091,1352.9807,737.8496C1352.9622,737.789,1352.9403,737.7293,1352.9154,737.671Q1341.0658,709.91125,1335.7726,708.57245L1335.7725,708.57245Q1335.7175,708.5586,1335.6628,708.5466L1335.6495,708.5466Q1331.1958,705.07153,1322.4995,703.11945C1322.3716,703.0907,1322.2407,703.0761,1322.1096,703.07587Q1322.1001,703.07587,1322.0905,703.07587 Z"/>
</g>
</g>
</svg>