<?xml version="1.0" encoding="utf-8"?>
<svg xmlns="http://www.w3.org/2000/svg" xmlns:xlink="http://www.w3.org/1999/xlink" version= "1.1" width="700px" height="700px" viewBox="930 432 700 700">
<g id="layer1">
<g style="fill:rgb(254,254,254); fill-opacity:1.0; stroke-linejoin: miter">
<path d="M1822.9978,446.80804C1822.5931,446.80804,1822.1837,446.91998,1821.8177,447.15442Q1788.346,468.59338,1775.896,481.0341L1775.88,481.0341Q1761.0021,493.3234,1728.5072,534.312L1728.4961,534.312Q1718.8887,544.4938,1714.488,547.841L1714.4572,547.86505Q1703.1298,556.80524,1696.3331,556.80524Q1692.8567,556.80524,1690.5656,554.4663C1690.1364,554.02814,1689.5682,553.8083,1688.9998,553.8083C1688.4464,553.8083,1687.8927,554.01654,1687.4662,554.4343C1686.6014,555.2814,1686.5872,556.669,1687.4342,557.5337Q1691.042,561.21686,1696.1826,561.21686Q1704.6051,561.21686,1717.1422,551.3299L1717.1418,551.3299Q1721.86,547.74115,1731.8193,537.177C1731.8623,537.13135,1731.9031,537.0843,1731.942,537.03516Q1764.3368,496.17297,1778.8353,484.2789C1778.8906,484.23352,1778.9437,484.1854,1778.9944,484.1348Q1791.1091,472.029,1824.182,450.84558C1825.2013,450.19272,1825.4983,448.8372,1824.8455,447.8179C1824.427,447.16464,1823.72,446.80804,1822.9978,446.80804 Z"/>
</g>
<g style="fill:rgb(254,254,254); fill-opacity:1.0; stroke-linejoin: miter">
</g>
<g style="fill:rgb(254,254,254); fill-opacity:1.0; stroke-linejoin: miter">
</g>
<g style="fill:rgb(254,254,254); fill-opacity:1.0; stroke-linejoin: miter">
</g>
<g style="fill:rgb(254,254,254); fill-opacity:1.0; stroke-linejoin: miter">
</g>
<g style="fill:rgb(254,254,254); fill-opacity:1.0; stroke-linejoin: miter">
</g>
<g style="fill:rgb(254,254,254); fill-opacity:1.0; stroke-linejoin: miter">
</g>
<g style="fill:rgb(254,254,254); fill-opacity:1.0; stroke-linejoin: miter">
</g>
<g style="fill:rgb(254,254,254); fill-opacity:1.0; stroke-linejoin: miter">
</g>
<g style="fill:rgb(254,254,254); fill-opacity:1.0; stroke-linejoin: miter">
</g>
<g style="fill:rgb(254,254,254); fill-opacity:1.0; stroke-linejoin: miter">
</g>
<g style="fill:rgb(254,254,254); fill-opacity:1.0; stroke-linejoin: miter">
</g>
<g style="fill:rgb(254,254,254); fill-opacity:1.0; stroke-linejoin: miter">
</g>
<g style="fill:rgb(254,254,254); fill-opacity:1.0; stroke-linejoin: miter">
</g>
<g style="fill:rgb(254,254,254); fill-opacity:1.0; stroke-linejoin: miter">
</g>
<g style="fill:rgb(254,254,254); fill-opacity:1.0; stroke-linejoin: miter">
</g>
<g style="fill:rgb(254,254,254); fill-opacity:1.0; stroke-linejoin: miter">
</g>
<g style="fill:rgb(254,254,254); fill-opacity:1.0; stroke-linejoin: miter">
</g>
<g style="fill:rgb(254,254,254); fill-opacity:1.0; stroke-linejoin: miter">
</g>
<g style="fill:rgb(254,254,254); fill-opacity:1.0; stroke-linejoin: miter">
</g>
<g style="fill:rgb(254,254,254); fill-opacity:1.0; stroke-linejoin: miter">
</g>
<g style="fill:rgb(254,254,254); fill-opacity:1.0; stroke-linejoin: miter">
</g>
<g style="fill:rgb(254,254,254); fill-opacity:1.0; stroke-linejoin: miter">
</g>
<g style="fill:rgb(254,254,254); fill-opacity:1.0; stroke-linejoin: miter">
</g>
<g style="fill:rgb(254,254,254); fill-opacity:1.0; stroke-linejoin: miter">
</g>
<g style="fill:rgb(254,254,254); fill-opacity:1.0; stroke-linejoin: miter">
</g>
<g style="fill:rgb(254,254,254); fill-opacity:1.0; stroke-linejoin: miter">
</g>
<g style="fill:rgb(254,254,254); fill-opacity:1.0; stroke-linejoin: miter">
</g>
<g style="fill:rgb(254,254,254); fill-opacity:1.0; stroke-linejoin: miter">
</g>
<g style="fill:rgb(254,254,254); fill-opacity:1.0; stroke-linejoin: miter">
<path d="M1701.387,780.1476L1701.387,780.1476L1701.8317,779.2583C1702.26,778.4017,1703.3015,778.05444,1704.1582,778.4828C1705.0149,778.9111,1705.362,779.9527,1704.9337,780.8093L1704.9337,780.8093L1704.489,781.6986C1704.0608,782.5552,1703.0192,782.9024,1702.1626,782.4741C1701.3059,782.0458,1700.9587,781.00415,1701.387,780.1476 Z"/>
</g>
<g style="fill:rgb(254,254,254); fill-opacity:1.0; stroke-linejoin: miter">
</g>
<g style="fill:rgb(254,254,254); fill-opacity:1.0; stroke-linejoin: miter">
</g>
<g style="fill:rgb(254,254,254); fill-opacity:1.0; stroke-linejoin: miter">
</g>
<g style="fill:rgb(254,254,254); fill-opacity:1.0; stroke-linejoin: miter">
</g>
<g style="fill:rgb(254,254,254); fill-opacity:1.0; stroke-linejoin: miter">
</g>
<g style="fill:rgb(254,254,254); fill-opacity:1.0; stroke-linejoin: miter">
</g>
<g style="fill:rgb(254,254,254); fill-opacity:1.0; stroke-linejoin: miter">
</g>
<g style="fill:rgb(254,254,254); fill-opacity:1.0; stroke-linejoin: miter">
</g>
<g style="fill:rgb(254,254,254); fill-opacity:1.0; stroke-linejoin: miter">
</g>
<g style="fill:rgb(254,254,254); fill-opacity:1.0; stroke-linejoin: miter">
</g>
<g style="fill:rgb(254,254,254); fill-opacity:1.0; stroke-linejoin: miter">
</g>
<g style="fill:rgb(254,254,254); fill-opacity:1.0; stroke-linejoin: miter">
</g>
<g style="fill:rgb(254,254,254); fill-opacity:1.0; stroke-linejoin: miter">
</g>
<g style="fill:rgb(254,254,254); fill-opacity:1.0; stroke-linejoin: miter">
</g>
<g style="fill:rgb(254,254,254); fill-opacity:1.0; stroke-linejoin: miter">
</g>
<g style="fill:rgb(254,254,254); fill-opacity:1.0; stroke-linejoin: miter">
</g>
<g style="fill:rgb(254,254,254); fill-opacity:1.0; stroke-linejoin: miter">
</g>
<g style="fill:rgb(254,254,254); fill-opacity:1.0; stroke-linejoin: miter">
</g>
<g style="fill:rgb(254,254,254); fill-opacity:1.0; stroke-linejoin: miter">
<path d="M1419.3502,490.08298Q1440.3706,490.08298,1465.7473,499.8131L1465.7441,499.8131Q1513.6464,520.75104,1552.2357,572.2452L1552.2201,572.2452Q1564.9916,599.07916,1562.6166,641.1828L1562.6094,641.1828Q1559.0516,662.5749,1548.7156,702.67114L1548.7001,702.67114Q1529.0084,744.47534,1475.0297,815.9981C1474.9884,816.05273,1474.9518,816.1109,1474.9202,816.17163Q1458.8936,847.0017,1432.2711,923.02094L1432.2568,923.02094L1410.1478,955.3998L1410.1461,955.3998Q1355.2251,1028.0914,1229.121,1028.0914Q1226.5454,1028.0914,1223.9402,1028.061L1223.9332,1028.061Q1188.0532,1026.788,1163.5089,1013.4082L1163.4973,1013.4082Q1135.5459,988.69055,1072.2474,971.26135L1072.2367,971.26135L1050.3342,955.0141L1050.3237,955.0141Q1020.3181,893.31866,1033.4441,840.4214C1033.4586,840.3629,1033.4689,840.30347,1033.4746,840.24347Q1038.947,783.5687,1089.4998,717.23364L1089.4954,717.23364Q1101.1985,704.08545,1117.1792,690.8219L1117.168,690.8219L1207.9578,633.8925C1208.0253,633.8502,1208.0883,633.8015,1208.1464,633.74695Q1230.4888,612.75653,1237.5153,601.52045C1237.5696,601.43365,1237.6127,601.3406,1237.6438,601.24304Q1255.4116,545.66864,1269.8328,537.9726C1269.9291,537.92114,1270.0182,537.85706,1270.0977,537.7821Q1285.0237,523.69525,1302.0027,523.69525Q1302.931,523.69525,1303.8655,523.73737L1303.8524,523.73737Q1302.8513,528.54987,1303.6194,530.0877L1303.6194,530.0877Q1303.6366,530.1224,1303.657,530.1599L1303.6576,530.1611Q1304.2247,531.2053,1305.2672,531.2053Q1305.5424,531.2053,1305.8507,531.13257Q1306.2178,531.04596,1306.6096,530.8332L1306.6914,530.78467L1322.3127,520.66705L1322.326,520.66705Q1322.3658,520.6674,1322.4065,520.6674Q1329.0663,520.6674,1361.3562,510.35287C1361.4491,510.3232,1361.5381,510.2826,1361.6213,510.2319Q1392.9436,491.16287,1400.0016,491.16287Q1401.016,491.16287,1401.5292,491.55685C1401.7457,491.7231,1402.0093,491.81104,1402.2776,491.81104C1402.3625,491.81104,1402.4479,491.80225,1402.5323,491.78433Q1410.5604,490.08298,1419.3502,490.08298 Z M1419.3473,487.625Q1410.5465,487.625,1402.4713,489.2859L1402.4713,489.2859Q1401.7183,488.9622,1400.5813,488.9622Q1391.8467,488.9622,1360.4535,508.065L1360.4398,508.065Q1328.6508,518.2145,1322.5287,518.2145Q1322.2794,518.2145,1322.0728,518.19763C1322.0394,518.19495,1322.0062,518.19354,1321.9729,518.19354C1321.7366,518.19354,1321.5044,518.26184,1321.3048,518.39105L1305.7031,528.496L1305.7031,528.496Q1305.5931,527.27496,1306.3256,523.92145L1306.3386,523.92145Q1308.037,524.0973,1309.7554,524.4099C1309.8297,524.42346,1309.9038,524.43,1309.9768,524.43C1310.5593,524.43,1311.0767,524.0141,1311.1846,523.42065C1311.306,522.7528,1310.8632,522.113,1310.1953,521.99146Q1306.0168,521.2313,1301.9547,521.2313Q1284.1101,521.2313,1268.5103,535.9003L1268.4976,535.9003Q1253.284,544.28955,1235.3372,600.3861L1235.3248,600.3861Q1228.4135,611.327,1206.5264,631.8961L1206.5144,631.8961L1115.8392,688.7536C1115.7933,688.7824,1115.7494,688.8143,1115.7076,688.8489Q1099.5211,702.27277,1087.6592,715.59924L1087.5999,715.67126Q1036.58,782.5922,1031.0299,839.98596L1031.0195,839.98596Q1017.7344,893.79486,1048.2395,956.3488C1048.3259,956.526,1048.4536,956.67975,1048.6119,956.7972L1070.9503,973.3678C1071.0724,973.4584,1071.2103,973.5255,1071.3569,973.5658Q1134.3875,990.8893,1161.9524,1015.32355C1162.0212,1015.3846,1162.0968,1015.43774,1162.1775,1015.48193Q1187.2776,1029.2223,1223.8595,1030.5181L1223.8885,1030.5188Q1226.5204,1030.5496,1229.1222,1030.5496Q1356.4906,1030.5496,1412.1438,956.83344L1412.1779,956.786L1434.4077,924.2302C1434.4684,924.14136,1434.5172,924.04486,1434.5527,923.9433Q1461.0774,848.19244,1477.0214,817.45935L1477.0066,817.45935Q1531.2413,745.5953,1551.008,703.5397C1551.0408,703.4702,1551.0668,703.398,1551.0859,703.32367Q1561.489,662.97107,1565.0563,641.453C1565.0635,641.4093,1565.0685,641.3654,1565.0709,641.3212Q1567.4889,598.4573,1554.3582,571.018C1554.3234,570.9452,1554.2815,570.87616,1554.2332,570.8116Q1515.2239,518.74,1466.6793,497.53915L1466.6274,497.51788Q1440.8263,487.625,1419.3473,487.625 Z"/>
</g>
<g style="fill:rgb(254,254,254); fill-opacity:1.0; stroke-linejoin: miter">
</g>
<g style="fill:rgb(254,254,254); fill-opacity:1.0; stroke-linejoin: miter">
<path d="M1310.3679,806.0032L1310.3456,806.00336Q1309.0303,806.097,1308.0614,806.68463L1307.5734,807.01044Q1307.0988,807.36755,1306.6771,807.84973Q1306.2556,808.33185,1305.8871,808.9391Q1304.4806,809.37506,1303.5059,810.3778L1303.0406,810.9146Q1302.6007,811.4869,1302.2623,812.2008Q1301.9337,812.8741,1301.667,813.8518Q1301.5056,814.6394,1301.4279,815.37006Q1301.3065,817.14685,1301.3826,817.4339Q1301.4778,818.7244,1301.9075,819.78723Q1301.8436,822.19446,1302.2639,822.9927Q1303.331,825.61975,1306.5824,825.85284Q1307.3508,825.8449,1308.1188,825.48926Q1309.138,825.7159,1310.7003,825.2333Q1310.8851,825.1714,1311.0736,825.03656Q1311.673,824.63214,1311.837,824.47626Q1312.2476,824.365,1313.3943,823.65137Q1314.2992,823.0191,1314.9731,822.11Q1315.7719,820.91296,1315.8412,820.5905Q1316.522,820.3733,1317.0416,819.97614Q1317.1967,819.90497,1317.7305,819.2792Q1318.163,818.9634,1318.5513,817.0231Q1318.9713,814.90875,1318.4681,813.4664Q1318.2913,812.8631,1317.8306,812.4301Q1317.1509,811.7306,1316.7188,811.5253L1316.5831,811.35675Q1316.3419,810.25653,1315.9058,809.38116L1315.4209,808.56195Q1313.869,806.27496,1310.3679,806.0032"/>
</g>
<g style="fill:rgb(30,160,25); fill-opacity:1.0; stroke-linejoin: miter">
</g>
<g style="fill:rgb(28,151,23); fill-opacity:1.0; stroke-linejoin: miter">
</g>
<g style="fill:rgb(28,151,23); fill-opacity:1.0; stroke-linejoin: miter">
</g>
<g style="fill:rgb(28,151,23); fill-opacity:1.0; stroke-linejoin: miter">
<path d="M1311.6238,778.33344C1311.6182,778.42163,1311.6328,778.5124,1311.6704,778.59906C1311.7648,778.81683,1311.9773,778.947,1312.2004,778.947C1312.2083,778.947,1312.2162,778.94684,1312.224,778.94653L1312.2372,778.94653Q1312.0333,778.73206,1311.8335,778.5145L1311.8466,778.5145Q1311.7427,778.425,1311.6368,778.33344 Z"/>
</g>
<g style="fill:rgb(28,151,23); fill-opacity:1.0; stroke-linejoin: miter">
</g>
<g style="fill:rgb(28,151,23); fill-opacity:1.0; stroke-linejoin: miter">
<path d="M1256.7665,776.7807Q1267.059,776.7807,1274.2896,779.0456C1274.3895,779.0769,1274.4937,779.0929,1274.5984,779.0929C1274.6079,779.0929,1274.6174,779.0927,1274.627,779.09247L1310.1229,778.1141L1310.1361,778.1141Q1317.1522,779.2509,1320.6443,779.2509Q1321.0632,779.2509,1321.4314,779.23456L1321.4446,779.23456L1330.1044,782.84607L1330.1703,782.871Q1331.2106,783.2237,1332.0546,783.2237Q1332.4982,783.2237,1332.8876,783.1262C1332.9747,783.1044,1333.0566,783.0721,1333.1321,783.03094L1333.1454,783.03094Q1340.5374,790.31854,1342.6532,818.13837L1342.6443,818.13837Q1341.6727,835.5909,1331.0706,845.4248L1331.0573,845.4248L1315.3842,849.7394L1315.3842,849.7394L1299.8368,850.3036C1299.7903,850.3053,1299.7439,850.31006,1299.6981,850.318L1283.958,853.03973C1283.9075,853.04846,1283.8575,853.061,1283.8088,853.07715L1283.7959,853.07715Q1283.4404,853.13666,1282.168,853.13666Q1281.1108,853.13666,1279.4207,853.0956C1279.4122,853.0954,1279.4039,853.0953,1279.3955,853.0953C1279.3552,853.0953,1279.3151,853.0976,1279.275,853.1023L1261.2411,855.2199L1261.2068,855.22455Q1260.4698,855.3362,1257.2274,855.3362Q1255.8368,855.3362,1253.9856,855.3157L1253.973,855.3157L1234.656,851.5544L1234.5465,851.53906L1223.0712,850.55817L1223.059,850.55817Q1221.4047,850.27606,1214.4996,847.9275C1214.3967,847.8925,1214.2891,847.8739,1214.1804,847.8725Q1210.4471,847.82336,1204.2532,846.2462L1204.2219,846.2388Q1194.6315,844.1118,1191.4879,839.19L1191.4868,839.19Q1174.1506,809.3565,1177.0452,806.1939C1177.1694,806.0581,1177.2552,805.8915,1177.2936,805.71136Q1178.4323,800.36487,1204.8889,788.5845L1204.8768,788.5845L1230.454,780.06696L1230.454,780.06696L1252.9515,776.8549L1252.939,776.8549Q1254.903,776.7807,1256.7665,776.7807 Z M1256.7593,774.7138Q1254.8418,774.7138,1252.8239,774.7908L1252.7172,774.8004L1230.0696,778.0339C1230.0083,778.0426,1229.9479,778.0568,1229.8892,778.0764L1204.2238,786.6233L1204.1301,786.6596Q1177.0862,798.69385,1175.324,805.06805L1175.3123,805.06805Q1172.1228,809.98083,1189.6997,840.2286L1189.72,840.2621Q1193.312,845.93646,1203.7744,848.25684L1203.7725,848.25684Q1210.061,849.856,1214.0005,849.9368L1213.9883,849.9368Q1220.975,852.3098,1222.7485,852.60205L1222.8286,852.61206L1234.3156,853.59393L1234.3156,853.59393L1253.6693,857.36237C1253.7306,857.37427,1253.7927,857.3806,1253.8551,857.38135Q1255.6671,857.4019,1257.066,857.4019Q1260.572,857.4019,1261.4846,857.2729L1261.482,857.2729L1279.4417,855.164L1279.4543,855.164Q1280.9064,855.1986,1281.9377,855.1986Q1283.7687,855.1986,1284.2745,855.0896L1284.2749,855.08954Q1284.3123,855.0815,1284.3477,855.0723L1284.3348,855.0723L1299.9818,852.3667L1299.9818,852.3667L1315.5797,851.80066C1315.6598,851.7977,1315.7393,851.7855,1315.8165,851.7643L1331.8666,847.34595C1332.0242,847.30255,1332.1693,847.2225,1332.2899,847.1121Q1343.7246,836.6525,1344.7158,818.1152C1344.7181,818.0708,1344.7177,818.02594,1344.7142,817.9816Q1342.1566,784.35297,1331.4318,779.3096C1331.2896,779.24274,1331.1399,779.21106,1330.9927,779.21106C1330.6046,779.21106,1330.2327,779.43066,1330.0566,779.80505C1329.9397,780.0536,1329.9304,780.32513,1330.0099,780.56696L1330.0099,780.56696L1322.0212,777.23535C1321.895,777.1827,1321.7598,777.15576,1321.6235,777.15576C1321.6017,777.15576,1321.5797,777.15643,1321.5579,777.15784Q1321.1306,777.185,1320.6163,777.185Q1317.3016,777.185,1310.3693,776.0578C1310.3143,776.0489,1310.2588,776.04443,1310.2032,776.04443C1310.1938,776.04443,1310.1843,776.04456,1310.1749,776.0448L1274.7415,777.0215L1274.7415,777.0215Q1267.2588,774.7138,1256.7593,774.7138 Z"/>
</g>
</g>
</svg>