<?xml version="1.0" encoding="utf-8"?>
<svg xmlns="http://www.w3.org/2000/svg" xmlns:xlink="http://www.w3.org/1999/xlink" version= "1.1" width="700px" height="700px" viewBox="930 432 700 700">
<g id="layer1">
<g style="fill:rgb(255,255,255); fill-opacity:1.0; stroke-linejoin: miter">
<path d="M1824.182,450.84558L1824.182,450.84558Q1791.1091,472.029,1778.9944,484.1348C1778.9437,484.1854,1778.8906,484.23352,1778.8353,484.2789L1778.8353,484.2789Q1764.3368,496.17297,1731.942,537.03516C1731.9031,537.0843,1731.8623,537.13135,1731.8193,537.177L1731.8193,537.177Q1721.86,547.74115,1717.1418,551.3299L1717.1727,551.30585Q1696.9602,567.25867,1687.4342,557.5337C1686.5872,556.669,1686.6014,555.2814,1687.4662,554.4343C1688.3309,553.5873,1689.7185,553.6016,1690.5656,554.4663L1690.5656,554.4663Q1697.3359,561.37805,1714.4572,547.86505L1714.488,547.841Q1718.9193,544.4705,1728.6299,534.17017L1728.5072,534.312Q1761.194,493.08142,1776.055,480.88998L1775.896,481.0341Q1788.346,468.59338,1821.8177,447.15442C1822.837,446.50156,1824.1926,446.7986,1824.8455,447.8179C1825.4983,448.8372,1825.2013,450.19272,1824.182,450.84558 Z"/>
</g>
<g style="fill:rgb(255,255,255); fill-opacity:1.0; stroke-linejoin: miter">
</g>
<g style="fill:rgb(255,255,255); fill-opacity:1.0; stroke-linejoin: miter">
</g>
<g style="fill:rgb(255,255,255); fill-opacity:1.0; stroke-linejoin: miter">
</g>
<g style="fill:rgb(255,255,255); fill-opacity:1.0; stroke-linejoin: miter">
</g>
<g style="fill:rgb(255,255,255); fill-opacity:1.0; stroke-linejoin: miter">
</g>
<g style="fill:rgb(255,255,255); fill-opacity:1.0; stroke-linejoin: miter">
</g>
<g style="fill:rgb(255,255,255); fill-opacity:1.0; stroke-linejoin: miter">
</g>
<g style="fill:rgb(255,255,255); fill-opacity:1.0; stroke-linejoin: miter">
</g>
<g style="fill:rgb(255,255,255); fill-opacity:1.0; stroke-linejoin: miter">
</g>
<g style="fill:rgb(255,255,255); fill-opacity:1.0; stroke-linejoin: miter">
</g>
<g style="fill:rgb(255,255,255); fill-opacity:1.0; stroke-linejoin: miter">
</g>
<g style="fill:rgb(255,255,255); fill-opacity:1.0; stroke-linejoin: miter">
</g>
<g style="fill:rgb(255,255,255); fill-opacity:1.0; stroke-linejoin: miter">
</g>
<g style="fill:rgb(255,255,255); fill-opacity:1.0; stroke-linejoin: miter">
</g>
<g style="fill:rgb(255,255,255); fill-opacity:1.0; stroke-linejoin: miter">
</g>
<g style="fill:rgb(255,255,255); fill-opacity:1.0; stroke-linejoin: miter">
</g>
<g style="fill:rgb(255,255,255); fill-opacity:1.0; stroke-linejoin: miter">
</g>
<g style="fill:rgb(255,255,255); fill-opacity:1.0; stroke-linejoin: miter">
</g>
<g style="fill:rgb(255,255,255); fill-opacity:1.0; stroke-linejoin: miter">
</g>
<g style="fill:rgb(255,255,255); fill-opacity:1.0; stroke-linejoin: miter">
</g>
<g style="fill:rgb(255,255,255); fill-opacity:1.0; stroke-linejoin: miter">
</g>
<g style="fill:rgb(255,255,255); fill-opacity:1.0; stroke-linejoin: miter">
</g>
<g style="fill:rgb(255,255,255); fill-opacity:1.0; stroke-linejoin: miter">
</g>
<g style="fill:rgb(255,255,255); fill-opacity:1.0; stroke-linejoin: miter">
</g>
<g style="fill:rgb(255,255,255); fill-opacity:1.0; stroke-linejoin: miter">
</g>
<g style="fill:rgb(255,255,255); fill-opacity:1.0; stroke-linejoin: miter">
</g>
<g style="fill:rgb(255,255,255); fill-opacity:1.0; stroke-linejoin: miter">
</g>
<g style="fill:rgb(255,255,255); fill-opacity:1.0; stroke-linejoin: miter">
</g>
<g style="fill:rgb(255,255,255); fill-opacity:1.0; stroke-linejoin: miter">
<path d="M1701.387,780.1475L1701.387,780.1475L1701.8317,779.25824C1702.26,778.4017,1703.3018,778.0545,1704.1583,778.48285C1705.0149,778.9112,1705.362,779.9528,1704.9337,780.8094L1704.9337,780.8094L1704.489,781.69867C1704.0607,782.55524,1703.0189,782.9024,1702.1624,782.47406C1701.3058,782.0457,1700.9586,781.0041,1701.387,780.1475 Z"/>
</g>
<g style="fill:rgb(255,255,255); fill-opacity:1.0; stroke-linejoin: miter">
</g>
<g style="fill:rgb(255,255,255); fill-opacity:1.0; stroke-linejoin: miter">
</g>
<g style="fill:rgb(255,255,255); fill-opacity:1.0; stroke-linejoin: miter">
</g>
<g style="fill:rgb(255,255,255); fill-opacity:1.0; stroke-linejoin: miter">
</g>
<g style="fill:rgb(255,255,255); fill-opacity:1.0; stroke-linejoin: miter">
</g>
<g style="fill:rgb(255,255,255); fill-opacity:1.0; stroke-linejoin: miter">
</g>
<g style="fill:rgb(255,255,255); fill-opacity:1.0; stroke-linejoin: miter">
</g>
<g style="fill:rgb(255,255,255); fill-opacity:1.0; stroke-linejoin: miter">
</g>
<g style="fill:rgb(255,255,255); fill-opacity:1.0; stroke-linejoin: miter">
</g>
<g style="fill:rgb(255,255,255); fill-opacity:1.0; stroke-linejoin: miter">
</g>
<g style="fill:rgb(255,255,255); fill-opacity:1.0; stroke-linejoin: miter">
</g>
<g style="fill:rgb(255,255,255); fill-opacity:1.0; stroke-linejoin: miter">
</g>
<g style="fill:rgb(255,255,255); fill-opacity:1.0; stroke-linejoin: miter">
</g>
<g style="fill:rgb(255,255,255); fill-opacity:1.0; stroke-linejoin: miter">
</g>
<g style="fill:rgb(255,255,255); fill-opacity:1.0; stroke-linejoin: miter">
</g>
<g style="fill:rgb(255,255,255); fill-opacity:1.0; stroke-linejoin: miter">
</g>
<g style="fill:rgb(255,255,255); fill-opacity:1.0; stroke-linejoin: miter">
</g>
<g style="fill:rgb(255,255,255); fill-opacity:1.0; stroke-linejoin: miter">
</g>
<g style="fill:rgb(254,254,254); fill-opacity:1.0; stroke-linejoin: miter">
<path d="M1419.3502,490.08298L1424.0752,490.2031Q1461.0035,493.90173,1486.5742,510.6284Q1538.6907,548.03455,1552.2357,572.2451Q1562.1316,588.713,1563.2937,633.652Q1563.6798,643.3068,1548.7156,702.67114Q1516.9119,762.8983,1474.9365,816.1415Q1458.6953,847.7206,1432.2712,923.02094Q1408.5889,959.4118,1399.1895,968.746Q1372.3486,997.1255,1336.6221,1010.34436Q1287.7605,1025.5815,1274.0464,1025.2272Q1250.8164,1028.0619,1223.9332,1028.062Q1192.973,1025.9333,1178.372,1020.2368L1163.4973,1013.4092Q1147.4954,1000.1506,1131.6694,992.87695Q1102.0017,979.13385,1072.2368,971.2623L1050.3237,955.01514Q1032.5427,918.4541,1029.9078,884.98334Q1027.4946,850.6225,1042.1318,801.38696Q1061.1848,752.08014,1089.4999,717.23364Q1095.142,709.9172,1117.168,690.8229L1207.9746,633.88184L1217.3198,624.8996Q1232.8768,609.00037,1236.7644,602.84174Q1255.4326,545.8718,1269.893,537.49524Q1278.4598,529.993,1288.8123,525.81805Q1298.7443,523.14075,1303.8655,523.73737Q1302.0026,532.0044,1306.0151,531.0878L1322.3127,520.66705Q1324.3628,521.90967,1361.4703,510.31018Q1387.5166,494.82495,1394.2776,492.48434L1419.3502,490.08298 M1419.3473,487.625L1417.4005,487.6455Q1401.1604,488.3616,1393.3655,490.20493Q1377.2257,497.70877,1360.4536,508.065Q1324.1282,519.4947,1321.4602,518.30566L1305.7031,528.496L1306.3254,523.92145Q1312.4711,525.7199,1310.3574,522.03235Q1302.8658,519.81323,1288.0835,523.454Q1277.2063,527.81464,1268.4642,535.5043Q1252.8914,545.28784,1235.3373,600.3861Q1227.9447,610.9044,1218.032,620.7728L1206.5264,631.8961L1115.7719,688.7991Q1093.3633,708.182,1087.5999,715.67126Q1059.0243,750.8154,1039.7821,800.6649Q1010.8078,891.89136,1048.3988,956.59546L1071.1107,973.46875Q1114.8888,986.95386,1123.2458,991.3739L1142.4834,1001.4532Q1153.7852,1008.08386,1162.1376,1015.45917Q1167.149,1018.20374,1172.545,1020.4266Q1193.4192,1029.7078,1229.1222,1030.5496Q1254.2815,1030.5494,1276.6425,1027.6732Q1330.0964,1017.9658,1337.4293,1012.57275Q1372.678,999.1621,1401.0481,970.3634Q1410.5776,960.88745,1434.5127,924.0431Q1461.0352,848.5385,1477.0066,817.4603Q1547.1477,720.8348,1551.0457,703.45154Q1566.148,643.6497,1565.7563,633.6958Q1564.5854,587.90753,1554.2793,570.8777Q1539.7183,552.39844,1524.9653,538.021Q1510.2124,523.6435,1495.268,513.36774L1480.2756,504.11746Q1450.1947,487.6677,1419.3473,487.625 Z"/>
</g>
<g style="fill:rgb(255,255,255); fill-opacity:1.0; stroke-linejoin: miter">
</g>
<g style="fill:rgb(254,254,254); fill-opacity:1.0; stroke-linejoin: miter">
<path d="M1310.3678,806.0032L1310.3379,806.0035L1310.0283,806.03033Q1309.6747,807.5529,1308.6854,809.13135L1308.0239,810.09686Q1307.3312,811.00836,1306.5149,811.7039L1305.6676,812.34546Q1304.7892,812.93274,1303.7871,813.3044Q1302.7852,813.67584,1301.6589,813.8312Q1301.3407,815.7814,1301.3708,816.0865Q1301.3348,816.78864,1301.3824,817.43396Q1301.4778,818.7244,1301.9073,819.78723Q1301.8435,822.1946,1302.2639,822.9927Q1303.331,825.6198,1306.5824,825.85284Q1307.3475,825.8458,1308.1187,825.48926Q1309.1381,825.7158,1310.7003,825.2333Q1310.8851,825.17126,1311.0735,825.0367Q1311.6714,824.63245,1311.8369,824.4782Q1312.2478,824.36395,1313.3939,823.6515Q1314.2986,823.01935,1314.9727,822.11053Q1315.7711,820.9134,1315.8413,820.5924Q1316.7574,820.3928,1317.7305,819.2793Q1317.8955,819.09375,1318.1578,818.54065Q1318.3949,817.7934,1318.5997,816.8383Q1317.7443,815.7529,1317.2206,814.4862Q1316.5262,812.8186,1316.4626,810.8676L1316.1476,809.9223Q1315.7885,809.0277,1315.2539,808.3356Q1313.6987,806.2614,1310.3678,806.0032 Z"/>
</g>
<g style="fill:rgb(255,255,255); fill-opacity:1.0; stroke-linejoin: miter">
</g>
<g style="fill:rgb(255,255,255); fill-opacity:1.0; stroke-linejoin: miter">
</g>
<g style="fill:rgb(255,255,255); fill-opacity:1.0; stroke-linejoin: miter">
</g>
<g style="fill:rgb(255,255,255); fill-opacity:1.0; stroke-linejoin: miter">
</g>
<g style="fill:rgb(255,255,255); fill-opacity:1.0; stroke-linejoin: miter">
</g>
<g style="fill:rgb(255,255,255); fill-opacity:1.0; stroke-linejoin: miter">
</g>
<g style="fill:rgb(255,255,255); fill-opacity:1.0; stroke-linejoin: miter">
</g>
<g style="fill:rgb(28,151,23); fill-opacity:1.0; stroke-linejoin: miter">
</g>
<g style="fill:rgb(255,255,255); fill-opacity:1.0; stroke-linejoin: miter">
</g>
<g style="fill:rgb(255,255,255); fill-opacity:1.0; stroke-linejoin: miter">
</g>
<g style="fill:rgb(28,151,23); fill-opacity:1.0; stroke-linejoin: miter">
</g>
<g style="fill:rgb(255,255,255); fill-opacity:1.0; stroke-linejoin: miter">
</g>
<g style="fill:rgb(255,255,255); fill-opacity:1.0; stroke-linejoin: miter">
</g>
<g style="fill:rgb(255,255,255); fill-opacity:1.0; stroke-linejoin: miter">
</g>
<g style="fill:rgb(254,254,254); fill-opacity:1.0; stroke-linejoin: miter">
<path d="M1339.6566,738.8799L1339.6553,738.88086L1339.6549,738.87994L1339.6548,738.8809L1339.6572,738.8804L1339.6597,738.8809Q1339.6592,738.8806,1339.6589,738.8805L1339.6582,738.8801L1339.6578,738.88007L1339.6573,738.88L1339.6572,738.87994L1339.6567,738.8799L1339.6566,738.88086"/>
</g>
<g style="fill:rgb(254,254,254); fill-opacity:1.0; stroke-linejoin: miter">
<path d="M1339.6572,738.8808L1339.7139,738.9004Q1339.8058,738.932,1340.1035,739.03687Q1340.1866,739.0658,1340.1886,739.069L1340.2047,739.04956L1340.2765,738.9691L1340.289,738.9701L1340.285,738.96924Q1340.281,738.9685,1340.2772,738.96826Q1340.2809,738.9687,1340.2847,738.96924L1340.2233,738.95905L1340.1508,738.9476Q1340.0067,738.9255,1339.9207,738.9132Q1339.7344,738.8876,1339.7002,738.884L1339.6707,738.8808L1339.6572,738.8818 Z"/>
</g>
<g style="fill:rgb(255,255,255); fill-opacity:1.0; stroke-linejoin: miter">
</g>
<g style="fill:rgb(255,255,255); fill-opacity:1.0; stroke-linejoin: miter">
</g>
<g style="fill:rgb(254,254,254); fill-opacity:1.0; stroke-linejoin: miter">
</g>
<g style="fill:rgb(255,255,255); fill-opacity:1.0; stroke-linejoin: miter">
</g>
<g style="fill:rgb(255,255,255); fill-opacity:1.0; stroke-linejoin: miter">
</g>
<g style="fill:rgb(255,255,255); fill-opacity:1.0; stroke-linejoin: miter">
</g>
<g style="fill:rgb(255,255,255); fill-opacity:1.0; stroke-linejoin: miter">
</g>
<g style="fill:rgb(254,254,254); fill-opacity:1.0; stroke-linejoin: miter">
<path d="M1328.0529,807.5305Q1327.7698,807.72833,1327.4847,807.94977L1327.503,807.94977C1327.6896,807.81366,1327.8802,807.6845,1328.0751,807.56226L1328.0883,807.56226C1328.0809,807.5517,1328.0735,807.5411,1328.0662,807.5305 Z"/>
</g>
<g style="fill:rgb(254,254,254); fill-opacity:1.0; stroke-linejoin: miter">
<path d="M1329.9644,781.3372C1329.6051,781.3372,1329.2426,781.44684,1328.9299,781.6745C1328.1443,782.2466,1327.9713,783.34717,1328.5433,784.1328Q1328.892,784.6116,1329.038,785.36566L1329.0541,785.4399Q1329.2649,786.32263,1329.328,786.8603L1329.3296,786.8734L1329.3298,786.87537L1329.3376,786.9307Q1329.3767,787.1786,1329.3961,788.2082L1329.4012,788.3131Q1329.422,788.5772,1329.4656,788.8262L1329.4788,788.894Q1329.5848,789.38617,1329.7056,789.7098L1329.7056,789.7098Q1329.8108,789.992,1329.9501,790.2111L1329.9504,790.2118C1330.2859,790.7386,1330.855,791.02655,1331.4365,791.02655C1331.7599,791.02655,1332.087,790.9375,1332.38,790.751C1333.1482,790.26184,1333.4084,789.27606,1333.009,788.4799L1333.0032,788.4799Q1332.9762,788.40753,1332.9341,788.2201L1332.9324,788.2201Q1332.9258,788.18225,1332.9205,788.14166L1332.9149,788.14166Q1332.8922,786.9399,1332.8224,786.43884L1332.822,786.43884L1332.8218,786.4369L1332.8218,786.4369Q1332.7368,785.72266,1332.4948,784.6966L1332.4933,784.6966Q1332.1984,783.1737,1331.3883,782.06116C1331.044,781.58813,1330.5079,781.3372,1329.9644,781.3372 Z"/>
</g>
<g style="fill:rgb(254,254,254); fill-opacity:1.0; stroke-linejoin: miter">
<path d="M1330.3516,766.82715L1330.3082,766.82764Q1330.0645,766.8295,1329.5598,767.0127L1329.8602,766.8992L1329.8469,766.8992Q1329.4543,767.02686,1329.3931,767.07074Q1328.9713,767.2767,1328.6782,767.6201Q1327.9808,767.5505,1327.2406,767.8981Q1326.3259,768.44403,1325.8448,769.4259Q1324.6287,773.51154,1324.5613,773.5296Q1324.5037,773.8548,1324.5654,774.1762Q1324.7133,774.7278,1324.8984,774.91626L1324.8488,775.0374L1323.4293,775.83624Q1323.2429,775.9426,1323.0924,776.08466Q1322.635,776.52637,1322.5525,777.14703Q1322.4984,778.06213,1323.0226,778.578Q1323.5272,779.11017,1324.3259,779.1251Q1324.5664,779.1227,1324.8795,779.0394Q1325.5372,778.8589,1326.0413,778.63794Q1326.385,778.63574,1326.7065,778.5037Q1326.9673,778.38135,1327.0123,778.33984Q1327.4207,777.98987,1327.47,777.9797L1328.3947,777.5129L1328.3813,777.5129Q1328.9521,777.29785,1329.5383,777.044Q1330.2366,776.72815,1330.4603,776.5713Q1330.8075,776.4558,1331.5128,776.10767Q1331.8663,775.95636,1332.736,775.31213Q1333.1743,775.19165,1333.5322,774.93384Q1333.9375,774.62726,1334.043,774.4467Q1334.5345,774.1552,1334.6031,774.04474Q1334.7654,773.8782,1334.877,773.6798Q1335.1014,773.27734,1335.1044,772.81647Q1335.0542,772.2485,1334.9711,772.1426Q1334.7878,771.7294,1334.5332,771.52856Q1334.4215,771.19214,1334.2983,770.9754Q1333.5928,769.7595,1333.0323,768.9312Q1331.7081,766.78455,1330.3516,766.82715"/>
</g>
<g style="fill:rgb(254,254,254); fill-opacity:1.0; stroke-linejoin: miter">
<path d="M1315.9233,750.0738L1315.7499,750.0807Q1314.8265,750.10046,1313.3226,751.35974Q1312.4432,752.1984,1311.923,753.3275Q1311.588,754.065,1311.3937,755.77185Q1311.3103,756.76306,1311.4541,757.89355Q1311.3206,758.55206,1311.3134,759.2601Q1311.3062,759.9681,1311.4254,760.72546Q1311.6906,762.38934,1312.968,763.3231Q1314.0305,764.0428,1315.2463,764.00635Q1315.9167,764.8403,1316.7944,765.2068Q1317.3545,765.4683,1318.1897,765.46515Q1319.448,765.3654,1320.3396,764.7042Q1320.866,764.349,1321.2324,763.9362Q1321.9044,763.20264,1322.1234,762.7761Q1323.1637,762.318,1323.9259,761.4981Q1325.4133,759.76984,1325.2273,757.60864Q1324.9744,756.3626,1324.3484,755.3058Q1323.959,754.594,1323.2523,753.77014L1323.0405,753.2233Q1322.8097,752.7009,1322.5026,752.2761Q1322.1956,751.8513,1321.8121,751.52405Q1321.0454,750.8696,1319.9738,750.6055Q1318.7529,750.3374,1317.5391,750.71954Q1316.5819,750.00604,1315.9233,750.0738"/>
</g>
<g style="fill:rgb(254,254,254); fill-opacity:1.0; stroke-linejoin: miter">
<path d="M1307.6798,763.6734C1307.6844,763.67426,1307.6891,763.6751,1307.6938,763.67596L1307.6799,763.67694Q1307.6733,763.6747,1307.6667,763.6734 Z"/>
</g>
<g style="fill:rgb(254,254,254); fill-opacity:1.0; stroke-linejoin: miter">
<path d="M1307.8324,760.14246Q1307.051,760.14246,1306.3163,760.7612C1306.2428,760.8231,1306.1746,760.89087,1306.1122,760.9639Q1305.5667,761.60223,1305.3724,761.7605L1305.3599,761.7615Q1304.3972,762.4131,1304.0732,762.6928Q1303.9388,762.8089,1303.8389,762.9204L1303.7866,762.9814Q1303.3801,763.4788,1303.013,763.85815C1302.988,763.8571,1302.9633,763.85657,1302.9384,763.85657C1302.3728,763.85657,1301.8174,764.1288,1301.4774,764.6332Q1301.2064,765.0354,1301.0635,765.32135Q1300.2609,766.92633,1301.6016,767.82983Q1302.0808,768.15295,1302.6025,768.15295Q1303.1443,768.15295,1303.7317,767.8045L1303.7319,767.8043Q1303.9178,767.694,1304.1456,767.5268L1304.1451,767.5278Q1305.2147,766.7693,1306.3975,765.3472L1306.3844,765.3482Q1306.5315,765.2237,1307.0344,764.8782L1307.0475,764.87915Q1307.0801,765.1343,1307.116,765.4253C1307.1241,765.49164,1307.136,765.5571,1307.1516,765.62213Q1307.2128,765.8763,1307.2932,766.12506C1307.3068,766.1669,1307.322,766.2085,1307.3386,766.2492Q1307.6533,767.01965,1307.7092,767.20886L1307.6998,767.20984C1307.7034,767.22504,1307.7072,767.24115,1307.7112,767.25726Q1307.7122,767.2614,1307.7122,767.2614L1307.7123,767.2624Q1307.7635,767.48816,1307.662,768.1337C1307.5109,769.09375,1308.1664,769.99457,1309.1265,770.14575C1309.2192,770.16034,1309.3114,770.1674,1309.4023,770.1674C1310.2535,770.1674,1311.0021,769.5485,1311.1385,768.6812Q1311.3188,767.5368,1311.1886,766.7143L1311.1754,766.7153Q1311.1678,766.589,1311.144,766.4598L1311.139,766.46075Q1311.1323,766.4309,1311.1274,766.4113L1311.1346,766.4123Q1311.1143,766.31274,1311.0845,766.2119L1311.0842,766.21094Q1310.9803,765.8599,1310.6102,764.9518L1310.6035,764.95276Q1310.3354,762.7812,1310.1813,762.19275Q1310.1372,762.0245,1310.0804,761.883L1310.0801,761.884Q1309.9854,761.64246,1309.8809,761.4454L1309.8806,761.445Q1309.3967,760.53253,1308.5834,760.27673L1308.5703,760.2777Q1308.1963,760.14246,1307.8324,760.14246 Z"/>
</g>
<g style="fill:rgb(254,254,254); fill-opacity:1.0; stroke-linejoin: miter">
<path d="M1315.4197,832.3716L1315.4197,832.3716C1315.4827,832.37854,1315.546,832.3821,1315.6095,832.3822L1315.6095,832.3822Q1315.5099,832.382,1315.4172,832.3731L1315.404,832.3731Q1315.4053,832.3724,1315.4065,832.3716 Z M1315.3856,838.51605Q1315.3857,838.51605,1315.3857,838.5161L1315.3856,838.5161L1315.3856,838.51605 Z M1315.1895,832.54596C1315.2391,832.587,1315.291,832.6252,1315.345,832.6605Q1315.6665,832.87115,1316.0184,832.96484L1316.0052,832.96484Q1316.3179,833.0773,1316.6261,833.0773Q1317.2189,833.0773,1317.7952,832.66144L1317.8083,832.66144Q1317.8209,832.70416,1317.8341,832.75433L1317.8342,832.7545C1317.8478,832.80634,1317.8639,832.85785,1317.8822,832.9083L1317.869,832.9083Q1317.9337,833.5253,1317.6929,835.622L1317.6853,835.7075L1317.6853,835.7075L1317.685,835.70966Q1317.6631,835.9073,1317.4142,836.39874L1317.4082,836.39874Q1316.6487,837.6324,1315.599,838.53723L1315.5858,838.53723Q1315.5641,838.55096,1315.5454,838.56116L1315.5454,838.56116Q1315.514,838.55505,1315.4877,838.54877L1315.4745,838.54877Q1314.8297,837.6509,1314.3419,836.33685L1314.3289,836.33685Q1313.8158,833.9997,1314.6006,833.1786C1314.6403,833.13715,1314.678,833.0935,1314.7134,833.0484Q1314.9553,832.73975,1315.1763,832.54596 Z M1317.627,828.1973C1317.1609,828.1973,1316.6957,828.3814,1316.3496,828.74634C1316.2869,828.81256,1316.2302,828.8824,1316.1797,828.95514L1316.1797,828.95514Q1315.7489,828.7965,1315.3041,828.7965Q1315.018,828.7965,1314.7261,828.8621C1314.6746,828.8737,1314.6237,828.8876,1314.5734,828.90375Q1313.1257,829.36914,1311.9436,830.877L1311.9363,830.877Q1309.9978,833.0523,1310.8967,837.11597C1310.9124,837.1866,1310.9323,837.256,1310.9564,837.32416Q1311.657,839.2993,1312.6836,840.6949L1312.6798,840.6949Q1313.1133,841.3327,1313.8746,841.69464L1313.8746,841.6946Q1314.3987,841.9437,1315.0734,842.05096L1315.0719,842.05096Q1315.3274,842.0943,1315.5839,842.0943Q1316.0864,842.0943,1316.593,841.92786L1316.5931,841.92786Q1317.2089,841.7255,1317.8027,841.2789L1317.8936,841.20575Q1319.4218,839.8894,1320.494,838.0975C1320.5153,838.0621,1320.5352,838.0258,1320.5538,837.9891Q1321.0898,836.93085,1321.1826,836.1001L1321.1826,836.1001Q1321.1869,836.0616,1321.1903,836.02374L1321.1892,836.02374Q1321.5094,833.2374,1321.3192,832.189L1321.3192,832.189Q1321.2878,832.01587,1321.2415,831.8604L1321.2382,831.8604Q1321.0623,831.1904,1320.7826,830.70496L1320.7823,830.7046Q1320.5575,830.3145,1320.2596,830.02856L1320.2518,830.02106L1318.8373,828.68C1318.497,828.35736,1318.0615,828.1973,1317.627,828.1973 Z"/>
</g>
<g style="fill:rgb(255,255,255); fill-opacity:1.0; stroke-linejoin: miter">
</g>
<g style="fill:rgb(255,255,255); fill-opacity:1.0; stroke-linejoin: miter">
<path d="M1309.0564,808.49304Q1308.0793,810.28094,1306.766,811.4823L1306.779,811.4823Q1313.2982,813.3607,1316.9684,813.806L1316.9684,813.806C1316.7593,813.1714,1316.6143,812.514,1316.5374,811.84344L1316.5374,811.84296Q1316.44,810.9927,1316.4192,810.2042L1316.4324,810.2042Q1313.6233,809.76953,1309.0696,808.49304 Z"/>
</g>
<g style="fill:rgb(52,244,44); fill-opacity:1.0; stroke-linejoin: miter">
</g>
<g style="fill:rgb(255,255,255); fill-opacity:1.0; stroke-linejoin: miter">
<path d="M1358.3881,703.2158L1358.3741,703.2159Q1358.0718,703.2002,1357.5499,703.3746Q1356.7366,703.1403,1355.9094,703.33545Q1354.7343,703.5868,1353.6179,704.4982Q1351.2955,706.85376,1351.1975,709.6578Q1351.1884,710.6064,1351.6469,711.59894Q1351.9879,712.34033,1352.7427,712.9202Q1353.0098,713.5983,1353.4917,714.04736Q1353.7561,714.3119,1354.1602,714.57007Q1354.1083,714.5324,1354.2125,714.6492L1354.599,715.0581L1354.9875,715.41235Q1355.4049,715.76245,1355.9214,716.0649Q1357.1364,716.63293,1358.0646,716.56946Q1358.6387,716.549,1359.2732,716.39496L1359.9232,716.15155L1360.5021,715.7995L1361.01,715.3388L1361.4468,714.7694Q1362.0812,713.74634,1362.3308,712.4099Q1362.4895,711.78796,1362.5688,710.1372Q1362.5552,708.981,1362.451,708.56287Q1361.9196,706.34863,1361.4714,705.81256Q1361.0867,705.18854,1360.5253,704.75525Q1360.3289,704.30963,1359.8811,703.86005Q1359.4379,703.5039,1359.2821,703.4442Q1358.8173,703.2362,1358.3881,703.2158 Z"/>
</g>
<g style="fill:rgb(255,255,255); fill-opacity:1.0; stroke-linejoin: miter">
<path d="M1367.8542,710.164Q1365.9608,710.164,1365.3798,712.0542L1365.3024,712.56964L1365.3456,712.23553L1365.3319,712.23553Q1364.9296,713.91534,1365.8242,715.2691C1366.1626,715.7812,1366.7228,716.0588,1367.294,716.0588C1367.4518,716.0588,1367.6105,716.0376,1367.7656,715.99426L1367.7793,715.99426Q1367.5842,716.89545,1367.3011,718.311L1367.2986,718.311Q1367.1562,718.84503,1366.8304,719.5833L1366.83,719.5833Q1366.5092,720.29474,1366.7808,721.1311C1366.8357,721.30035,1366.9161,721.4604,1367.019,721.6056Q1367.5085,722.29584,1368.3687,722.4065C1368.4432,722.4161,1368.5183,722.4209,1368.5933,722.4209C1368.6908,722.4209,1368.7882,722.4128,1368.8846,722.3966Q1369.0784,722.3641,1369.1846,722.35364L1369.1984,722.35364Q1369.3794,722.4024,1369.8131,722.6194L1369.8115,722.6194Q1370.2166,722.8258,1370.7115,722.8258Q1370.9297,722.8258,1371.1653,722.7857L1371.1663,722.7855Q1371.3118,722.7607,1371.4792,722.71936C1371.6837,722.6689,1371.8774,722.58215,1372.0513,722.46326Q1373.6984,721.33636,1373.8951,719.0811C1373.9796,718.1129,1373.2632,717.2596,1372.295,717.1751C1372.243,717.1706,1372.1913,717.16833,1372.1401,717.16833C1371.7311,717.16833,1371.3496,717.3102,1371.0472,717.5505Q1371.1632,716.9918,1371.2546,716.5745L1371.2722,716.4904Q1371.4904,715.2942,1371.2776,714.22955L1371.2709,714.1979Q1371.1168,713.495,1370.9731,712.96875L1370.9868,712.96875C1370.4998,712.3097,1370.0975,711.59357,1369.7886,710.8374L1369.8022,710.8374Q1369.0311,710.16675,1368.0808,710.16675Q1368.0498,710.16675,1368.0186,710.1675Q1367.9352,710.164,1367.8542,710.164 Z"/>
</g>
<g style="fill:rgb(255,255,255); fill-opacity:1.0; stroke-linejoin: miter">
<path d="M1325.1887,727.7499C1324.682,727.7499,1324.1792,727.96765,1323.8312,728.38885Q1322.9741,729.4262,1322.1285,730.932L1322.1215,730.9447Q1321.8678,731.4053,1321.6833,731.8157L1321.6665,731.8542L1321.6655,731.8565L1321.6401,731.92017Q1321.3842,732.6012,1320.5859,734.3142C1320.5623,734.365,1320.5411,734.41675,1320.5225,734.46954Q1320.3298,735.01294,1320.242,735.564C1320.2349,735.60846,1320.2295,735.65265,1320.2258,735.6975Q1320.1018,737.2112,1320.0068,737.87964L1319.9983,737.94946Q1319.9031,738.8866,1320.0219,739.95465C1320.122,740.8545,1320.8839,741.52,1321.7687,741.52C1321.8336,741.52,1321.8992,741.5164,1321.9652,741.5091C1322.9312,741.40173,1323.6271,740.5316,1323.5197,739.56573Q1323.4471,738.913,1323.4933,738.3749L1323.4912,738.3749Q1323.5963,737.6361,1323.7224,736.11835L1323.7173,736.11835Q1323.7423,735.9613,1323.7893,735.80066L1323.7761,735.80066Q1324.5983,734.03613,1324.9104,733.2222L1324.9092,733.2222L1324.9102,733.2199L1324.9108,733.2199Q1325.0289,732.96173,1325.1973,732.6553L1325.1971,732.6553Q1325.8887,731.424,1326.5443,730.6303C1327.1633,729.8811,1327.0577,728.772,1326.3085,728.153C1325.9805,727.882,1325.5834,727.7499,1325.1887,727.7499 Z"/>
</g>
<g style="fill:rgb(255,255,255); fill-opacity:1.0; stroke-linejoin: miter">
<path d="M1337.8644,715.2943C1337.7202,715.2943,1337.5737,715.31213,1337.4276,715.3495Q1335.5607,715.8264,1334.6545,716.66705L1334.6545,716.66705Q1334.369,716.93195,1334.1656,717.2381L1334.1532,717.2381Q1333.0999,718.53235,1331.2723,721.39923L1331.2686,721.39923Q1331.0155,721.74414,1330.7772,721.98236C1330.0898,722.66943,1330.0897,723.7836,1330.7769,724.47095C1331.1205,724.8147,1331.5709,724.9866,1332.0214,724.9866C1332.4717,724.9866,1332.9219,724.8148,1333.2655,724.4714Q1333.736,724.0011,1334.1882,723.3678L1334.2401,723.29095Q1336.0591,720.4374,1336.9783,719.3444C1337.0115,719.30493,1337.0431,719.2637,1337.2122,718.7594L1337.2258,718.7594L1337.0973,719.18524Q1337.0696,719.2269,1337.0492,719.2463L1337.0492,719.2463Q1337.3,719.01447,1338.2987,718.7594C1339.2404,718.51886,1339.8087,717.56055,1339.5681,716.6189C1339.3649,715.82336,1338.6494,715.2943,1337.8644,715.2943 Z"/>
</g>
<g style="fill:rgb(255,255,255); fill-opacity:1.0; stroke-linejoin: miter">
<path d="M1344.037,708.9015C1343.8956,708.9015,1343.752,708.91864,1343.6085,708.9545C1342.6658,709.1904,1342.0928,710.14594,1342.3286,711.08875Q1342.3522,711.18286,1342.3724,711.2802L1342.359,711.2802Q1341.8783,711.94214,1342.0371,712.8974L1342.0309,712.8974Q1342.0547,713.10516,1342.1104,713.3199C1342.1288,713.3908,1342.1515,713.4606,1342.1786,713.5286Q1342.4254,714.1492,1342.5183,714.51794L1342.5182,714.51794Q1342.6188,714.95123,1342.6709,715.43976L1342.6707,715.43976Q1342.6726,715.456,1342.6747,715.4721C1342.6946,715.63025,1342.7349,715.7809,1342.7926,715.9217L1342.7792,715.9217L1342.5217,717.4173C1342.3568,718.37506,1342.9996,719.28516,1343.9574,719.45C1344.0583,719.4674,1344.1588,719.4758,1344.2579,719.4758C1344.3993,719.4758,1344.5377,719.45874,1344.6711,719.4263L1344.6846,719.4263Q1345.0719,719.6354,1345.484,719.6354Q1346.1251,719.6354,1346.8265,719.1294L1346.8265,719.1294Q1347.4525,718.678,1348.5195,717.4124C1348.5507,717.3754,1348.5801,717.33746,1348.6082,717.29803Q1349.5852,715.92444,1349.8335,714.98737Q1349.9761,714.4496,1349.9216,713.96277L1349.9174,713.96277Q1349.8186,712.66986,1348.8573,711.79504L1348.8573,711.79504Q1348.5283,711.49567,1348.109,711.2658L1348.109,711.2658C1348.049,711.23285,1347.9869,711.2034,1347.9233,711.17773Q1346.6835,710.67615,1345.8047,710.43976L1345.7913,710.43976Q1345.7682,710.33636,1345.7427,710.2345C1345.5427,709.43506,1344.8253,708.9015,1344.037,708.9015 Z"/>
</g>
<g style="fill:rgb(255,255,255); fill-opacity:1.0; stroke-linejoin: miter">
<path d="M1307.7931,816.56555L1307.793,816.56586L1307.7816,816.56586Q1307.7816,816.56573,1307.7816,816.56555 Z M1309.5918,811.04913C1309.2052,811.04913,1308.8269,811.17694,1308.5193,811.4125L1308.5062,811.4125Q1306.781,812.5032,1306.2494,813.00684L1306.2494,813.00684Q1306.1599,813.0915,1306.0848,813.1748L1306.0802,813.1748Q1305.0131,814.2308,1304.624,815.0349L1304.6229,815.0371Q1304.5895,815.10645,1304.5605,815.1738L1304.5597,815.1738Q1304.5118,815.2783,1304.4717,815.38214L1304.4714,815.38275Q1303.9215,816.80743,1304.7565,817.9028L1304.8329,817.99603Q1305.7036,818.9892,1306.6372,818.9892Q1307.4291,818.9892,1308.266,818.27484C1308.3176,818.23083,1308.3668,818.18365,1308.413,818.134Q1309.4088,817.06195,1311.0443,813.8308L1311.0442,813.8308L1311.0657,813.7889L1311.0525,813.7889C1311.091,813.73157,1311.1257,813.67224,1311.1569,813.61127L1311.1566,813.61127C1311.5996,812.7462,1311.2574,811.6859,1310.3925,811.2429C1310.1357,811.11145,1309.8617,811.04913,1309.5918,811.04913 Z"/>
</g>
<g style="fill:rgb(255,255,255); fill-opacity:1.0; stroke-linejoin: miter">
<path d="M1304.6818,813.6099L1304.6818,813.6099L1305.1641,812.9153C1305.7184,812.11694,1306.8148,811.9192,1307.6132,812.47345C1308.4114,813.0277,1308.6093,814.12415,1308.0549,814.9225L1308.0549,814.9225L1307.5726,815.6171C1307.0184,816.4154,1305.9219,816.6132,1305.1237,816.05896C1304.3253,815.50464,1304.1274,814.4082,1304.6818,813.6099 Z"/>
</g>
<g style="fill:rgb(255,255,255); fill-opacity:1.0; stroke-linejoin: miter">
<path d="M1317.2074,812.1941L1317.2065,812.2156L1317.2058,812.237Q1317.2056,812.237,1317.2054,812.23706Q1317.2063,812.2156,1317.2072,812.1941L1317.2074,812.1941 M1307.8499,805.8899L1307.7502,805.89185Q1307.3854,805.89526,1306.8579,806.0706Q1305.3372,806.63257,1305.2085,806.81726L1304.4911,807.3891Q1304.2573,807.59735,1304.1171,807.76953L1303.1603,809.01776Q1302.9662,809.297,1302.8137,809.62335Q1302.2053,811.1803,1302.2549,812.48486Q1302.3093,813.7748,1302.5553,814.78644Q1302.5259,815.04224,1302.582,815.46655Q1302.6508,815.8969,1302.728,816.0863Q1303.2745,817.31915,1304.304,817.4223Q1304.7737,817.45636,1305.03,817.39435Q1305.482,817.3088,1305.8584,817.0521Q1306.1738,817.0718,1306.6178,816.95245Q1307.2123,816.7684,1307.6904,816.41833Q1308.3851,817.0234,1309.0902,816.94604Q1308.9926,817.8812,1309.4475,819.03656Q1309.8682,820.0883,1310.7144,820.6441Q1310.6829,821.6317,1311.1495,822.2373Q1311.9546,823.1553,1313.361,823.1755Q1314.4122,823.2087,1315.0131,822.79175Q1316.0406,822.1581,1316.5642,821.0849Q1317.2191,819.81274,1316.9254,818.4355Q1317.6505,817.4412,1317.9309,815.65295Q1318.1927,814.0443,1317.8431,812.8831Q1317.5558,812.1471,1317.2164,811.89465Q1317.2047,811.04865,1316.8206,810.3252Q1316.6321,810.002,1316.3574,809.78656Q1315.8082,809.35565,1314.9147,809.35565Q1313.9811,809.3656,1313.5999,809.64667L1312.934,808.9189Q1312.6465,808.65076,1312.2566,808.48566Q1311.9485,808.059,1311.7039,807.8671Q1311.3313,807.5336,1310.7463,807.2763Q1310.3403,806.7702,1309.821,806.44946Q1309.1212,805.9754,1307.8499,805.8899"/>
</g>
<g style="fill:rgb(255,255,255); fill-opacity:1.0; stroke-linejoin: miter">
<path d="M1331.0527,800.8506C1330.2743,800.8506,1329.5624,801.37115,1329.3531,802.15924Q1329.1721,802.84094,1329.0299,803.0518L1329.0304,803.0518L1329.1973,802.85767L1329.0221,803.0629C1328.9915,803.1051,1328.9628,803.14856,1328.936,803.1933Q1328.5638,803.81573,1327.1194,805.51215C1327.0931,805.54297,1327.0684,805.5743,1327.0443,805.6068L1327.0311,805.6068Q1326.9468,805.6832,1326.788,805.8099L1326.7747,805.8099Q1325.0743,806.81555,1324.4949,807.3774L1324.4949,807.3774Q1324.4884,807.3836,1324.482,807.3898L1324.4755,807.3962C1323.783,808.078,1323.7743,809.19214,1324.4562,809.8847C1324.8014,810.23535,1325.2574,810.4107,1325.7126,810.4107C1326.1565,810.4107,1326.5995,810.24396,1326.9381,809.9105Q1326.9391,809.90955,1326.9401,809.9086L1326.9446,809.90424Q1327.2462,809.6118,1328.7131,808.7526C1328.7831,808.7117,1328.85,808.666,1328.9136,808.61584Q1329.3921,808.2385,1329.6505,807.9648L1329.6505,807.9648Q1329.7317,807.87885,1329.8008,807.79376L1329.7991,807.79376Q1331.362,805.9581,1331.9087,805.07806L1331.9076,805.07806Q1332.4115,804.35547,1332.7548,803.0622C1333.0042,802.12286,1332.4447,801.15924,1331.5054,800.9099C1331.3541,800.86975,1331.2023,800.8506,1331.0527,800.8506 Z"/>
</g>
<g style="fill:rgb(255,255,255); fill-opacity:1.0; stroke-linejoin: miter">
<path d="M1366.48,694.5227L1366.4323,694.85986L1366.4794,694.5227 Z M1366.7484,695.0531L1366.2301,695.45056L1366.2301,695.45056Q1366.2467,695.42896,1366.2737,695.40106L1366.7484,695.0531 Z M1367.9034,683.84503C1367.4231,683.84503,1366.9446,684.0406,1366.5972,684.42505C1365.9457,685.1461,1366.0021,686.25885,1366.7231,686.9104Q1366.7955,686.9758,1366.8077,687.01294L1366.8031,687.01294Q1367.0192,687.8955,1367.0414,688.60565L1367.0413,688.60565Q1367.049,688.88763,1367.0312,689.20355L1367.0309,689.20355Q1366.9681,690.02106,1366.9022,691.4368L1366.9021,691.4368L1366.902,691.44006L1366.9022,691.44006Q1366.9019,691.4456,1366.9014,691.45496L1366.901,691.45496Q1366.8783,691.7363,1366.6538,693.0145L1366.6388,693.1173Q1366.4988,694.33124,1366.4657,694.52576L1366.4648,694.52576C1366.4608,694.5457,1366.4572,694.56573,1366.4539,694.5859Q1366.3425,695.2643,1366.2167,695.4699L1366.2084,695.4699Q1366.0282,695.6402,1365.4115,695.8714L1365.4115,695.87146C1364.5015,696.2126,1364.0403,697.22687,1364.3815,698.1369C1364.6464,698.84344,1365.3169,699.27936,1366.0294,699.27936C1366.2346,699.27936,1366.4434,699.2432,1366.6469,699.16693Q1368.0372,698.64575,1368.759,697.89575L1368.7601,697.8946Q1368.7672,697.8872,1368.7743,697.8798L1368.7606,697.8798L1368.801,697.85016Q1369.0321,697.6117,1369.2184,697.3073L1369.2184,697.3073Q1369.6667,696.57495,1369.8911,695.36017L1369.8806,695.36017Q1369.9117,695.2527,1369.9347,695.11926L1369.9352,695.1162Q1369.9827,694.83746,1370.1233,693.6233L1370.1201,693.6233Q1370.3792,692.1477,1370.412,691.69855L1370.412,691.69855Q1370.4153,691.6537,1370.4172,691.6111L1370.4174,691.6111L1370.4178,691.6004Q1370.4827,690.20654,1370.5426,689.4386L1370.5452,689.39996Q1370.5713,688.9331,1370.5592,688.50146L1370.559,688.49567Q1370.5232,687.3534,1370.1849,686.02936L1370.1522,685.917Q1369.849,684.9916,1369.0825,684.2991C1368.746,683.99493,1368.324,683.84503,1367.9034,683.84503 Z"/>
</g>
<g style="fill:rgb(255,255,255); fill-opacity:1.0; stroke-linejoin: miter">
<path d="M1364.5304,674.32117C1364.7965,674.9318,1365.3926,675.3501,1366.0767,675.3761C1366.0992,675.37695,1366.1217,675.3774,1366.144,675.3774C1366.1648,675.3774,1366.1854,675.377,1366.206,675.3763L1366.2197,675.37726Q1366.1028,675.3862,1365.9932,675.3862Q1364.8601,675.3862,1364.5167,674.32117 Z"/>
</g>
<g style="fill:rgb(255,255,255); fill-opacity:1.0; stroke-linejoin: miter">
<path d="M1362.8962,664.9618C1362.3502,664.9618,1361.812,665.215,1361.468,665.6915C1360.8992,666.4795,1361.0768,667.5794,1361.8647,668.14825Q1362.2258,668.40894,1362.3303,668.52484L1362.3167,668.5258L1363.1245,669.93945L1363.121,669.9404Q1363.175,670.0555,1363.2264,670.2012L1363.2238,670.20215L1363.6661,671.7064L1363.6776,671.74384Q1363.9436,672.5797,1364.3075,673.5788L1364.3069,673.5798Q1364.3783,673.796,1364.429,674.0139L1364.4293,674.01544C1364.4451,674.0833,1364.4646,674.1495,1364.4878,674.2138L1364.4741,674.2148Q1364.5442,674.6502,1364.7184,675.95624L1364.7118,675.9572Q1364.7216,676.2453,1364.696,676.4235L1364.6959,676.4245C1364.558,677.38556,1365.2258,678.2772,1366.1879,678.4152C1366.2738,678.42755,1366.3591,678.4334,1366.4434,678.4334C1367.3027,678.4334,1368.0494,677.8201,1368.1298,677.15674L1368.13,677.1559L1368.1799,676.92145Q1368.2606,676.3569,1368.2196,675.6252C1368.217,675.5804,1368.2129,675.5355,1368.2069,675.491Q1367.9701,673.71515,1367.8914,673.3333L1367.8912,673.333Q1367.879,673.2736,1367.8651,673.21655L1367.8569,673.2175Q1367.7633,672.814,1367.6282,672.4137L1367.6144,672.3742Q1367.2832,671.4652,1367.0433,670.71423L1367.0428,670.7152L1366.5745,669.1203L1366.5458,669.0316Q1366.3992,668.61554,1366.2175,668.2622L1366.1807,668.1941L1365.3086,666.66705L1365.3087,666.668Q1365.1674,666.4167,1364.9495,666.174L1364.9492,666.1738Q1364.593,665.77734,1363.9248,665.29486C1363.6133,665.07,1363.253,664.9618,1362.8962,664.9618 Z M1367.638,674.5686Q1367.2909,675.1624,1366.5773,675.32324C1367.0083,675.21356,1367.3835,674.94354,1367.6243,674.5686 Z"/>
</g>
<g style="fill:rgb(255,255,255); fill-opacity:1.0; stroke-linejoin: miter">
<path d="M1353.2709,650.4773C1352.691,650.4773,1352.1233,650.7636,1351.7874,651.2881C1351.2632,652.10645,1351.5017,653.1948,1352.3201,653.719Q1353.2478,654.3132,1353.8014,654.8931L1353.8712,654.962L1353.871,654.962L1353.872,654.9629Q1354.126,655.21497,1354.9585,656.4426L1354.9583,656.4426Q1355.1326,656.7091,1355.1755,656.8232L1355.1752,656.8232Q1356.0044,659.1541,1356.3164,659.77386L1356.3164,659.77386L1356.3164,659.7741C1356.6257,660.3883,1357.2457,660.7428,1357.8894,660.7428C1358.1555,660.7428,1358.4255,660.6822,1358.6794,660.5544C1359.5475,660.1173,1359.8969,659.05927,1359.6477,658.98267L1359.6477,658.9824L1359.4597,658.191Q1359.2448,657.76416,1358.4803,655.6136L1358.469,655.5827Q1358.286,655.09686,1357.8846,654.4873L1357.8713,654.4674Q1356.8484,652.9588,1356.3517,652.4655L1356.3517,652.4655Q1356.3503,652.46423,1356.3491,652.46295L1356.347,652.46295Q1355.5017,651.57745,1354.2183,650.7554C1353.9244,650.56714,1353.5957,650.4773,1353.2709,650.4773 Z"/>
</g>
<g style="fill:rgb(255,255,255); fill-opacity:1.0; stroke-linejoin: miter">
<path d="M1354.3646,641.35046L1354.3646,641.35046Q1354.3615,641.3595,1354.3583,641.36847L1354.3583,641.36847Q1354.3497,641.35944,1354.3412,641.35046 Z M1349.8143,641.7942L1349.8984,641.86395L1349.8849,641.86395Q1349.8317,641.99133,1349.7766,642.12573L1349.7766,642.12573Q1349.7892,641.96075,1349.8008,641.7942 Z M1348.7496,637.1117Q1348.0911,637.1117,1347.4946,637.5394L1347.4946,637.5395C1347.4581,637.5657,1347.4225,637.5933,1347.3881,637.62225Q1346.9678,637.9755,1346.7408,638.59143L1346.7408,638.59143Q1346.5527,639.10175,1346.3848,640.1151L1346.3746,640.18475L1346.3746,640.18475C1346.369,640.2294,1346.3651,640.2742,1346.3629,640.3192Q1346.2533,642.5662,1345.9927,644.5098C1345.9851,644.5664,1345.9802,644.6233,1345.9783,644.6802L1345.9647,644.6802Q1345.8433,645.1595,1345.3407,646.68866L1345.3097,646.794Q1345.1648,647.3496,1345.0363,648.1063C1344.8735,649.06445,1345.5183,649.97314,1346.4764,650.13586C1346.524,650.1439,1346.5715,650.15,1346.6188,650.1542L1346.6052,650.1542C1346.882,650.46405,1347.2659,650.6733,1347.6962,650.72797C1347.7706,650.7374,1347.8448,650.74207,1347.9185,650.74207C1348.5023,650.74207,1349.0508,650.4512,1349.3779,649.9648L1349.369,649.9648Q1349.8264,649.4672,1352.3975,648.16943L1352.3975,648.16943L1352.4475,648.1434Q1353.3787,647.63983,1355.1992,647.34985C1355.2577,647.3405,1355.3153,647.3283,1355.3726,647.3132Q1356.6697,646.9699,1357.0034,645.6106C1357.0449,645.44135,1357.0612,645.2668,1357.0514,645.0928Q1356.9933,644.05164,1356.2462,643.30756L1356.2462,643.30756Q1355.5013,642.5595,1354.8796,641.9143L1354.8661,641.9143C1354.9735,641.53516,1354.9548,641.11774,1354.7842,640.72864Q1354.5317,640.1531,1354.3778,639.8821L1354.3773,639.8813Q1353.9288,639.09247,1353.148,638.9136L1353.1478,638.9136Q1352.8275,638.84015,1352.553,638.84015Q1352.1956,638.84015,1351.9155,638.96454L1351.9155,638.96454L1350.5292,637.8147L1350.4432,637.7478Q1350.2617,637.61523,1350.0829,637.5123L1350.0829,637.5123Q1349.3871,637.1117,1348.7496,637.1117 Z"/>
</g>
<g style="fill:rgb(255,255,255); fill-opacity:1.0; stroke-linejoin: miter">
</g>
<g style="fill:rgb(255,255,255); fill-opacity:1.0; stroke-linejoin: miter">
</g>
<g style="fill:rgb(255,255,255); fill-opacity:1.0; stroke-linejoin: miter">
</g>
<g style="fill:rgb(255,255,255); fill-opacity:1.0; stroke-linejoin: miter">
</g>
<g style="fill:rgb(255,255,255); fill-opacity:1.0; stroke-linejoin: miter">
</g>
<g style="fill:rgb(255,255,255); fill-opacity:1.0; stroke-linejoin: miter">
<path d="M1374.5087,620.81036C1374.4276,620.81036,1374.3457,620.8159,1374.2632,620.82745Q1374.0637,620.8553,1373.8342,620.9332L1373.8344,620.9332Q1373.3948,621.08246,1372.0903,621.69775L1372.0767,621.69775Q1370.588,622.1573,1369.9347,622.47217L1369.9326,622.47217Q1368.6718,623.0348,1367.152,623.8986L1367.0834,623.9397Q1366.6237,624.2294,1366.1721,624.67847L1366.1019,624.7523Q1364.7673,626.2429,1364.4897,626.48517L1364.4905,626.48517L1364.4246,626.54Q1363.8849,627.0219,1363.643,627.1489C1362.7825,627.6006,1362.451,628.6643,1362.9027,629.52484C1363.2174,630.1244,1363.8292,630.4671,1364.4624,630.4671C1364.738,630.4671,1365.0177,630.4021,1365.2787,630.26514Q1365.8724,629.9535,1366.6794,629.2442L1366.6736,629.2442Q1366.7354,629.1964,1366.8024,629.13806L1366.804,629.13666Q1367.2354,628.76,1368.6578,627.1738L1368.6538,627.1738Q1368.7903,627.03815,1368.8994,626.9583L1368.891,626.9583Q1370.2898,626.1633,1371.4111,625.6664L1371.4852,625.6315L1371.4857,625.6312L1371.4865,625.6312Q1371.9429,625.4173,1373.2657,625.0142C1373.3479,624.9892,1373.428,624.95825,1373.5056,624.9215Q1374.5961,624.40546,1374.9114,624.28546L1374.9001,624.28546C1375.7811,624.0843,1376.3766,623.2385,1376.2493,622.32697C1376.1263,621.44696,1375.3726,620.81036,1374.5087,620.81036 Z"/>
</g>
<g style="fill:rgb(255,255,255); fill-opacity:1.0; stroke-linejoin: miter">
<path d="M1392.7322,616.21075Q1392.5438,616.21075,1392.4448,616.21436L1392.4446,616.21436Q1392.3744,616.21686,1392.3159,616.2219L1392.302,616.2219Q1392.0472,616.23645,1391.9265,616.2481L1391.926,616.2481Q1391.8506,616.2554,1391.7875,616.2651L1391.784,616.2651Q1391.2151,616.33887,1391.0995,616.35004L1391.1,616.35004L1391.2429,616.34406L1391.0717,616.35254Q1390.717,616.38776,1390.3883,616.4052L1390.3134,616.41077Q1390.1101,616.4303,1389.9108,616.4681L1389.8463,616.4815Q1389.4642,616.56885,1389.1973,616.66583L1389.1974,616.66583Q1388.9966,616.7387,1388.831,616.8272L1388.8298,616.8272L1387.0813,617.7083L1387.0676,617.7083Q1386.817,617.80646,1386.5859,617.85706C1385.6366,618.06506,1385.0356,619.0033,1385.2437,619.95264C1385.4238,620.7751,1386.1521,621.33606,1386.9608,621.33606C1387.0856,621.33606,1387.2123,621.3227,1387.3391,621.2949Q1387.9465,621.1618,1388.5641,620.8982L1388.665,620.85126L1390.4064,619.9738L1390.3989,619.9738Q1390.4501,619.95526,1390.5732,619.92584L1390.5663,619.92584Q1390.589,619.9215,1390.6127,619.91833L1390.5988,619.91833Q1390.9868,619.89716,1391.3942,619.85724L1391.3922,619.85724Q1391.4078,619.85596,1391.4226,619.85455L1391.4225,619.85455Q1391.5974,619.83826,1392.2678,619.75116L1392.2646,619.75116Q1392.3248,619.74536,1392.5483,619.73303L1392.5344,619.73303L1392.4669,619.7349L1392.4669,619.7349L1392.598,619.72894L1392.6119,619.72894Q1392.5902,619.7307,1392.5741,619.7314L1392.5741,619.7314Q1392.6138,619.73004,1392.7141,619.73004Q1392.7733,619.73004,1392.8539,619.7305L1392.84,619.7305Q1393.7635,619.7664,1395.0598,619.79767C1395.0742,619.79803,1395.0886,619.7982,1395.1029,619.7982C1396.0552,619.7982,1396.8383,619.038,1396.8613,618.0808C1396.8848,617.1092,1396.1161,616.3026,1395.1445,616.27924Q1393.8563,616.24817,1392.9547,616.2129L1392.9551,616.2129L1392.8894,616.2113Q1392.8042,616.21075,1392.7322,616.21075 Z"/>
</g>
<g style="fill:rgb(255,255,255); fill-opacity:1.0; stroke-linejoin: miter">
<path d="M1412.3315,614.6776Q1412.0906,614.6776,1411.846,614.709L1411.8452,614.709Q1411.784,614.7164,1411.7191,614.72705L1411.7194,614.72705Q1411.4858,614.7654,1411.0842,614.8677L1411.0702,614.8677Q1411.0216,614.8759,1410.9684,614.88354L1410.9396,614.8887L1410.9381,614.8887L1410.9369,614.88885Q1410.8657,614.8986,1410.575,614.92596L1410.5608,614.92596Q1409.6765,614.9743,1409.1272,615.04364L1409.1246,615.04364Q1408.7118,615.09064,1407.3104,615.3272L1407.3059,615.3272L1406.4669,615.44244L1406.4174,615.44995Q1405.3698,615.6243,1404.5697,616.1608C1403.7626,616.70215,1403.5471,617.7953,1404.0884,618.6024C1404.4279,619.10864,1404.9845,619.3822,1405.5515,619.3822C1405.8884,619.3822,1406.229,619.2856,1406.5299,619.0838Q1406.6857,618.9793,1406.9528,618.92914L1406.9457,618.92914L1407.8345,618.80707L1407.8761,618.80084Q1407.8885,618.7988,1407.8926,618.79816L1407.8961,618.79755Q1409.2671,618.56616,1409.5233,618.5404L1409.5679,618.53534Q1410.011,618.47943,1410.8165,618.43677L1410.8881,618.4315Q1411.2627,618.39636,1411.4128,618.37585L1411.413,618.37585Q1411.4438,618.37164,1411.4729,618.36707L1411.4696,618.36707Q1411.6671,618.3386,1411.8438,618.30347L1411.9364,618.28235Q1412.1692,618.2228,1412.2646,618.2044L1412.2539,618.2044L1412.2935,618.1998Q1412.3146,618.19714,1412.3309,618.19714Q1412.345,618.19714,1412.3553,618.19916C1412.4703,618.22186,1412.585,618.2328,1412.698,618.2328C1413.5214,618.2328,1414.257,617.6519,1414.4224,616.8135C1414.6105,615.86005,1413.9902,614.9346,1413.0367,614.7464Q1412.6882,614.6776,1412.3315,614.6776 Z"/>
</g>
<g style="fill:rgb(255,255,255); fill-opacity:1.0; stroke-linejoin: miter">
<path d="M1342.4226,629.2571L1342.4226,629.2571L1342.95,628.555C1343.5336,627.7779,1344.6366,627.6211,1345.4137,628.2047C1346.1908,628.7883,1346.3477,629.8914,1345.7639,630.6685L1345.7639,630.6685L1345.2367,631.3706C1344.6531,632.1477,1343.5499,632.3045,1342.7728,631.7209C1341.9957,631.1372,1341.8389,630.0342,1342.4226,629.2571 Z"/>
</g>
<g style="fill:rgb(255,255,255); fill-opacity:1.0; stroke-linejoin: miter">
<path d="M1355.3661,629.16724L1355.3661,629.16724L1355.1642,629.6277C1354.774,630.5178,1353.7362,630.9231,1352.8462,630.53296C1351.956,630.1428,1351.5508,629.105,1351.9409,628.21484L1351.9409,628.21484L1352.1427,627.7544C1352.5328,626.86426,1353.5707,626.459,1354.4608,626.8491C1355.3508,627.23926,1355.7562,628.2771,1355.3661,629.16724 Z"/>
</g>
<g style="fill:rgb(255,255,255); fill-opacity:1.0; stroke-linejoin: miter">
<path d="M1421.2147,609.55365L1421.1587,609.55457Q1420.5516,609.59174,1420.136,609.92346Q1419.7666,610.2147,1419.5906,610.6378Q1419.4146,611.0609,1419.4683,611.5282L1419.5123,611.75775L1419.7621,612.41797Q1419.5717,612.8325,1419.6222,613.5489Q1419.6431,613.72144,1419.6973,613.88666Q1419.924,614.4318,1419.9753,614.64044Q1420.0671,614.9998,1420.0703,615.06793Q1420.4542,618.10004,1420.597,619.374L1420.7218,620.594L1420.7078,620.59406L1420.7646,621.65594Q1420.7545,621.7351,1420.841,622.0832Q1420.9625,622.59814,1421.5912,623.05524Q1421.3912,624.0939,1421.8501,624.8329Q1422.362,625.66095,1423.2611,625.7372Q1423.8553,625.76117,1424.6467,625.1267L1426.3965,623.0965Q1426.7103,622.69586,1426.8623,622.4143Q1427.5646,621.03827,1427.3522,619.91815Q1429.085,617.6802,1428.8538,616.1493Q1428.8168,615.0698,1427.4788,613.9332Q1426.7842,613.36273,1425.685,612.73395Q1423.6464,611.5996,1423.1863,611.52527Q1422.7113,610.1657,1422.4495,610.0587Q1421.9314,609.56415,1421.2147,609.55365"/>
</g>
<g style="fill:rgb(255,255,255); fill-opacity:1.0; stroke-linejoin: miter">
<path d="M1441.3043,610.3977L1441.1129,610.40125Q1440.8276,610.39594,1440.1387,610.5241Q1439.2557,610.7331,1438.9022,610.9079Q1438.5487,610.905,1437.847,611.12805Q1437.4475,611.2172,1436.3052,612.02954Q1435.6621,612.5433,1435.3759,613.2595Q1435.1049,613.8689,1434.9609,615.3183Q1434.9208,615.8292,1434.9536,616.35736Q1435.0996,617.69275,1435.2164,617.9804Q1435.6362,619.38025,1435.8077,619.68085Q1435.9244,619.9505,1436.1292,620.1739Q1436.8993,620.9159,1437.6418,621.1144Q1438.5133,621.36176,1439.3885,621.05707Q1439.9852,621.2979,1440.4133,621.275Q1440.8816,621.275,1441.3945,621.11255Q1441.6312,621.0614,1442.5441,620.6Q1443.0505,620.33826,1443.4371,620.0362Q1443.6304,619.88513,1443.7936,619.724L1444.1454,619.339Q1444.4983,619.0267,1445.1622,617.2788Q1445.2744,616.98517,1445.4624,616.41736Q1445.644,615.7461,1445.69,615.1339Q1445.8274,613.2973,1444.7423,611.99225Q1443.252,610.3344,1441.3043,610.3977"/>
</g>
<g style="fill:rgb(49,224,42); fill-opacity:1.0; stroke-linejoin: miter">
<path d="M1341.423,817.1068C1341.4792,817.6417,1341.7794,818.12933,1342.2465,818.4184L1342.2465,818.4184Q1341.3998,817.97437,1341.4095,817.1068 Z M1344.1011,818.4261Q1343.6991,818.69183,1343.2406,818.69183Q1343.1301,818.69183,1343.0164,818.6764L1343.0298,818.6764C1343.0774,818.6803,1343.1251,818.6822,1343.1727,818.6822C1343.4926,818.6822,1343.8097,818.5951,1344.0875,818.4261 Z M1282.5681,829.74615L1282.5681,829.74615Q1282.058,830.2917,1281.48,830.2917Q1281.2042,830.2917,1280.913,830.1675L1280.9258,830.1675C1281.0675,830.203,1281.211,830.22034,1281.3534,830.22034C1281.7961,830.22034,1282.2272,830.0529,1282.5553,829.74615 Z M1318.5743,731.6966Q1316.1151,731.6966,1313.9857,733.26373C1313.203,733.8397,1313.0354,734.9412,1313.6115,735.72394C1313.9564,736.1926,1314.4896,736.44073,1315.0302,736.44073C1315.3922,736.44073,1315.7576,736.3293,1316.0717,736.0982Q1317.198,735.2692,1318.5924,735.2692Q1321.9379,735.2692,1326.8258,740.0415L1326.823,740.0415Q1334.179,747.95355,1337.9286,755.63043L1337.9237,755.63043Q1340.9403,763.1439,1341.9387,767.29926L1341.9338,767.29926L1344.2793,781.7036L1344.2786,781.7036Q1344.8848,786.23364,1344.1782,800.39935L1344.1761,800.39935L1343.5284,806.94006L1343.515,806.94006Q1342.3103,810.8509,1341.4331,816.6597C1341.4207,816.7425,1341.4141,816.8252,1341.4133,816.90717L1341.4,816.90717Q1340.9916,818.3119,1338.3551,825.5409L1338.3517,825.5409Q1332.9037,837.8202,1325.7112,847.6831L1325.7089,847.6831Q1319.84,855.0089,1311.8066,860.3288L1311.8,860.3288Q1308.5735,862.17584,1303.6306,862.4948L1303.5309,862.5041Q1302.7377,862.6008,1301.9788,862.6008Q1297.1543,862.6008,1293.7162,858.69226C1293.6798,858.6508,1293.6412,858.61096,1293.6011,858.5732Q1293.0104,858.0171,1292.1288,856.3543L1292.1282,856.3543L1285.876,843.75433L1285.863,843.75433Q1283.9781,829.8277,1283.1938,827.96954Q1283.1477,827.8601,1283.0955,827.75977L1283.0826,827.75977Q1282.653,818.3432,1283.0747,813.34186L1283.0808,813.221Q1283.255,801.86505,1288.494,782.3368L1288.4812,782.3368L1291.5527,774.72174L1291.593,774.6113L1298.2393,754.32526L1301.7241,747.7146L1301.711,747.7146Q1308.2186,740.76953,1310.263,737.39655L1310.2499,737.39655Q1310.8098,736.77045,1311.6681,736.55286L1311.6682,736.55286L1311.6719,736.55194C1312.6143,736.3142,1313.1854,735.3576,1312.9478,734.4153C1312.7465,733.617,1312.029,733.085,1311.2438,733.085C1311.102,733.085,1310.9581,733.10236,1310.8147,733.13855L1310.8142,733.1387L1310.8104,733.13965Q1308.8202,733.6419,1307.5194,735.1733C1307.4531,735.2513,1307.3938,735.335,1307.342,735.4234Q1305.5532,738.4788,1299.0118,745.4479C1298.9038,745.5629,1298.8119,745.692,1298.7383,745.8316L1295.0566,752.81573C1295.0105,752.90326,1294.9718,752.99445,1294.941,753.08844L1288.267,773.4595L1285.2158,781.02374C1285.1893,781.08936,1285.1669,781.1565,1285.1484,781.22485Q1279.7437,801.31586,1279.5618,813.16705L1279.5579,813.16705Q1279.1183,818.5552,1279.5961,828.5446C1279.6167,828.97516,1279.793,829.3716,1280.0764,829.6709L1280.0636,829.6709Q1280.717,831.94214,1282.4093,844.4768C1282.4349,844.667,1282.4916,844.8517,1282.5769,845.02356L1288.9756,857.91864L1288.9958,857.9582Q1290.1648,860.172,1291.1887,861.1358L1291.1792,861.1358Q1295.6416,866.12555,1301.905,866.12555Q1302.8762,866.12555,1303.8907,866.00555L1303.8777,866.00555Q1309.7067,865.62585,1313.6652,863.3158L1313.7498,863.2631Q1322.278,857.6155,1328.5077,849.8184L1328.5547,849.75684Q1335.9976,839.55066,1341.6127,826.86865L1341.6526,826.77057L1341.6572,826.7581L1341.6615,826.7467Q1344.6589,818.52795,1344.8998,817.4264L1344.8999,817.42554Q1344.9591,817.1542,1344.9679,816.91327L1344.9545,816.91327Q1345.8043,811.37933,1346.9463,807.75854C1346.9828,807.64276,1347.0072,807.52344,1347.0192,807.40265L1347.6869,800.6604L1347.6934,800.57465Q1348.4198,786.01196,1347.7596,781.1825L1347.7529,781.13806L1345.3866,766.6054C1345.3796,766.5623,1345.3711,766.51953,1345.3608,766.4771Q1344.2947,762.0396,1341.1423,754.20154C1341.1266,754.16223,1341.1095,754.12396,1341.091,754.0859Q1337.0972,745.9093,1329.3428,737.5831L1329.2843,737.5233Q1323.3163,731.6966,1318.5743,731.6966 Z"/>
</g>
<g style="fill:rgb(49,224,42); fill-opacity:1.0; stroke-linejoin: miter">
<path d="M1290.606,766.1389Q1291.0807,766.3265,1291.2937,766.692L1291.2937,766.692C1291.113,766.453,1290.8724,766.2609,1290.5931,766.1389 Z M1370.3392,685.5108Q1368.7432,685.5108,1367.4154,685.69635L1367.4124,685.69635L1347.2037,688.1244C1347.1404,688.132,1347.0775,688.14307,1347.0153,688.15753L1333.6313,691.2689L1333.5155,691.30005Q1332.1078,691.7303,1330.8174,692.34827L1330.8174,692.34827C1330.7268,692.1284,1330.59,691.9235,1330.4072,691.74854C1330.0663,691.42206,1329.628,691.2598,1329.1906,691.2598C1328.7274,691.2598,1328.2649,691.4416,1327.9193,691.80255Q1327.8495,691.8754,1327.7849,691.94574L1327.7845,691.94617Q1326.7985,693.0198,1326.5079,694.0362L1326.5078,694.0363Q1325.9941,695.8339,1327.3688,697.09656L1327.3687,697.09656C1327.7039,697.4045,1328.131,697.5603,1328.5593,697.5603C1328.9392,697.5603,1329.3201,697.4378,1329.6388,697.1901Q1331.7755,695.5299,1334.4486,694.69525L1334.4353,694.69525L1347.7186,691.60724L1347.7186,691.60724L1367.8689,689.1862L1367.9025,689.1818Q1369.0295,689.0243,1370.4003,689.0243Q1376.3904,689.0243,1387.0323,692.0324L1387.1367,692.0585Q1388.5255,692.3607,1389.6771,692.82227Q1399.258,696.6619,1392.5659,713.36035C1392.4799,713.575,1392.4371,713.8044,1392.4398,714.0356L1392.4358,714.0356Q1392.165,715.86743,1385.5305,724.1986L1385.5243,724.1986L1372.4056,738.42554L1367.4215,742.1243L1367.4078,742.1243Q1362.7423,744.41266,1354.6324,750.2543L1354.6189,750.2543Q1350.2009,751.64056,1347.996,753.1851C1347.9358,753.2273,1347.8782,753.2733,1347.8237,753.3227L1341.0056,759.5035L1331.3063,764.8381C1331.2316,764.87915,1331.1602,764.92554,1331.0922,764.977Q1321.5513,772.20026,1319.783,772.86456C1319.6844,772.9016,1319.5895,772.9473,1319.4991,773.00134Q1307.1593,780.3763,1299.4875,780.3763Q1297.3005,780.3763,1295.4928,779.7769L1295.4097,779.75165Q1291.2316,778.59186,1291.6475,767.82C1291.6597,767.5024,1291.5869,767.201,1291.4493,766.9379L1291.4365,766.9379Q1291.3678,763.8518,1296.3495,742.08435L1296.3365,742.08435L1300.5634,732.9568L1300.5503,732.9568Q1303.8237,730.09515,1314.7781,710.3004L1314.7694,710.3004Q1319.3374,703.6056,1327.2155,701.29486C1328.1481,701.0213,1328.6824,700.0436,1328.4088,699.111C1328.1837,698.3438,1327.4822,697.8462,1326.7211,697.8462C1326.5571,697.8462,1326.3903,697.86926,1326.225,697.9178Q1317.1392,700.58276,1311.8622,708.3168C1311.8313,708.36194,1311.8025,708.40906,1311.776,708.4569Q1300.5099,728.82587,1298.2573,730.2948L1298.2571,730.2948C1297.952,730.47626,1297.7089,730.7457,1297.5596,731.06793L1293.0911,740.71747C1293.0397,740.82855,1292.9999,740.9447,1292.9725,741.064Q1287.5725,764.6393,1287.9629,767.63135L1287.9629,767.6314Q1288.011,767.9997,1288.1234,768.2969L1288.1106,768.2969Q1287.7639,781.2817,1294.4683,783.14276L1294.4622,783.14276Q1296.729,783.8795,1299.4083,783.8795Q1308.1089,783.8795,1321.1575,776.1101L1321.1442,776.1101Q1323.5121,775.124,1333.0786,767.88715L1333.0653,767.88715L1342.8826,762.48773C1343.0028,762.42163,1343.1149,762.3417,1343.2164,762.2496L1350.059,756.04663L1350.0454,756.04663Q1351.8744,754.7787,1355.9558,753.5243C1356.1396,753.4678,1356.313,753.3815,1356.469,753.26886Q1364.6556,747.3572,1369.1287,745.201C1369.2286,745.1528,1369.3241,745.0951,1369.4132,745.02893L1374.6359,741.15314C1374.7242,741.0876,1374.8063,741.0138,1374.8809,740.9329L1388.2008,726.4877C1388.2296,726.4565,1388.2572,726.4242,1388.2837,726.391Q1395.5277,717.29425,1395.9287,714.464L1395.9148,714.464Q1403.768,694.67773,1390.9865,689.5554Q1389.6124,689.0048,1388.0035,688.6457L1387.9896,688.6457Q1376.8992,685.5108,1370.3392,685.5108 Z"/>
</g>
<g style="fill:rgb(49,224,42); fill-opacity:1.0; stroke-linejoin: miter">
<path d="M1357.0212,608.5953C1356.4341,608.5953,1355.8602,608.88904,1355.5266,609.4238C1355.0122,610.24835,1355.2635,611.3338,1356.0881,611.8482Q1361.187,615.02924,1362.672,617.5875L1362.7034,617.6396L1368.2281,626.4427L1368.2145,626.4427Q1369.7638,631.24664,1372.1924,635.2952L1372.1787,635.2952L1373.5563,639.84L1373.5426,639.84Q1374.3938,647.01434,1375.6732,649.6286L1375.6595,649.6286L1378.1749,667.76495L1378.1697,667.76495Q1379.3433,687.2841,1378.9738,691.92126L1378.9722,691.94226L1377.6589,711.3437L1377.6498,711.3437Q1375.5675,723.52966,1375.1678,724.67L1375.166,724.67C1375.1619,724.6799,1375.1578,724.6898,1375.1538,724.6998Q1374.0638,727.4423,1371.2279,729.3757C1371.1311,729.44165,1371.0411,729.51715,1370.9594,729.601Q1370.7404,729.8255,1370.5189,730.0374L1370.5189,730.0375Q1367.2734,733.143,1363.5697,733.143Q1358.1298,733.143,1351.7012,726.44354L1351.6997,726.44354Q1348.4783,722.8353,1347.7532,720.06476C1347.7374,720.0046,1347.7185,719.9457,1347.6965,719.8875Q1346.816,717.5607,1346.2036,714.50476C1346.1832,714.4031,1346.1539,714.30334,1346.116,714.2068L1338.9752,696.04016L1336.7137,685.63055L1336.7137,685.63055Q1334.9033,677.0959,1335.0659,672.0812L1335.0668,672.0345L1335.1487,658.17554L1335.8019,648.7275L1335.7885,648.7275Q1337.0198,646.06476,1336.7756,644.0333L1336.7622,644.0333L1338.7444,636.36285L1338.7311,636.36285Q1343.0197,626.3396,1343.6355,622.1695L1343.6221,622.1695L1345.3853,618.5491L1345.415,618.4847Q1346.4196,616.19147,1349.0345,616.19147Q1349.7452,616.19147,1350.5748,616.36084C1350.6936,616.3851,1350.812,616.3967,1350.9287,616.3967C1351.7476,616.3967,1352.4808,615.82214,1352.6509,614.9887C1352.8452,614.0365,1352.231,613.107,1351.2787,612.9126Q1349.9596,612.6433,1348.8069,612.6433Q1344.1316,612.6433,1342.1914,617.0726L1342.1898,617.0726L1340.3519,620.84644C1340.2651,621.02454,1340.2091,621.21594,1340.1862,621.4127Q1339.7671,625.00073,1335.4768,635.02185C1335.4418,635.10364,1335.413,635.1879,1335.3907,635.2741L1333.2704,643.4791C1333.2015,643.7455,1333.196,644.02435,1333.2545,644.2932Q1333.4951,645.40015,1332.4886,647.4729C1332.3901,647.67566,1332.3315,647.8954,1332.316,648.12024L1331.6339,657.98816L1331.6298,658.0991L1331.5475,672.01373L1331.5469,672.01373Q1331.38,677.4471,1333.2709,686.3609L1333.2727,686.3693L1335.566,696.9254C1335.586,697.0175,1335.6135,697.10785,1335.648,697.19556L1342.8121,715.42175L1342.7987,715.42175Q1343.4556,718.62396,1344.405,721.1331L1344.3964,721.1331Q1345.3813,724.6508,1349.0745,728.7874L1349.1157,728.83203Q1356.7853,736.8472,1363.5541,736.8472Q1368.4928,736.8472,1372.952,732.5803L1372.952,732.5804Q1373.1393,732.4013,1373.3257,732.2138L1373.312,732.2138Q1376.8921,729.7369,1378.3716,726.13025L1378.3662,726.13025Q1378.4319,725.9975,1378.4891,725.8339L1378.4891,725.8339Q1378.9899,724.405,1381.1493,711.7587C1381.1593,711.7001,1381.1664,711.6407,1381.1704,711.58136L1382.4836,692.17993L1382.4838,692.17993Q1382.8699,687.26056,1381.6744,667.41736C1381.6716,667.3717,1381.6672,667.3267,1381.661,667.28143L1379.0992,648.8109C1379.0697,648.59766,1379.0011,648.3917,1378.8972,648.2032Q1377.8357,646.27747,1377.0112,639.2016C1376.9991,639.0977,1376.9777,638.9949,1376.9474,638.89484L1375.4694,634.01874C1375.4268,633.878,1375.3665,633.74316,1375.2903,633.6174Q1372.9542,629.7614,1371.4868,625.1207C1371.4418,624.9784,1371.3788,624.8423,1371.2994,624.7158L1365.6843,615.76874L1365.6853,615.76874Q1363.7458,612.4774,1357.9509,608.86224C1357.6611,608.6815,1357.3392,608.5953,1357.0212,608.5953 Z"/>
</g>
<g style="fill:rgb(49,224,42); fill-opacity:1.0; stroke-linejoin: miter">
<path d="M1421.2832,597.07385Q1426.1366,597.07385,1428.2494,597.3609L1428.3271,597.36975Q1440.217,598.44965,1441.4388,598.8131L1441.4329,598.8131L1452.298,603.0327L1452.2834,603.0327Q1465.4988,612.3896,1455.1377,628.60815L1455.1327,628.60815Q1450.44,634.94006,1441.6672,638.9537L1441.6528,638.9537Q1434.2477,641.5299,1426.6733,643.35236L1426.659,643.35236Q1413.2404,645.5115,1407.8018,647.76965L1407.7877,647.76965L1391.9319,650.9422L1368.2826,654.29956L1368.2689,654.29956Q1367.2931,654.3522,1366.3638,654.3522Q1361.9979,654.3522,1358.659,653.19073C1358.4851,653.13025,1358.3027,653.0974,1358.1187,653.09344L1343.7863,652.78656L1343.7728,652.78656Q1341.0433,652.1539,1338.8439,651.2646C1338.7163,651.213,1338.5831,651.1766,1338.447,651.156L1328.8317,649.70404L1328.8184,649.70404Q1325.1215,647.7326,1322.9601,643.08405C1322.9313,643.02203,1322.8987,642.9614,1322.8628,642.9032Q1318.2148,635.35565,1331.0579,616.4487C1331.1332,616.3379,1331.1941,616.2215,1331.2411,616.1017L1331.2278,616.1017Q1333.2292,614.3854,1347.3265,606.6829L1347.3754,606.6552Q1350.9681,604.54065,1355.831,603.2115L1355.827,603.2115L1374.8911,598.7208L1374.8911,598.7208L1379.2501,598.108C1379.2914,598.1022,1379.3323,598.095,1379.3729,598.08624Q1380.8131,597.77844,1383.557,597.77844Q1387.5768,597.77844,1394.3945,598.4391C1394.4523,598.4447,1394.5095,598.44745,1394.5664,598.44745C1395.0314,598.44745,1395.4614,598.2639,1395.7797,597.9601L1395.7657,597.9601Q1412.7552,597.07385,1421.2832,597.07385 Z M1421.2559,593.5628Q1411.7881,593.5628,1392.6577,594.60114C1392.4822,594.61066,1392.3141,594.64557,1392.1569,594.70215L1392.1569,594.70215Q1387.0342,594.2707,1383.5914,594.2707Q1380.4188,594.2707,1378.6729,594.6371L1378.659,594.6371L1374.321,595.24695C1374.2678,595.25446,1374.215,595.26434,1374.1626,595.2767L1355.0201,599.7858L1354.9617,599.80066Q1349.6093,601.2566,1345.5902,603.62213L1345.5884,603.62213Q1330.1252,612.0724,1328.4307,613.9146L1328.4307,613.9146Q1327.95,614.437,1327.8225,614.9702L1327.8093,614.9702Q1314.0942,635.3761,1319.866,644.74866L1319.8536,644.74866Q1322.5903,650.511,1327.4706,652.9693C1327.6368,653.05304,1327.8154,653.1099,1327.9995,653.1377L1337.7417,654.6088L1337.7283,654.6088Q1340.1802,655.579,1343.1628,656.2575C1343.2786,656.2838,1343.3969,656.29834,1343.5155,656.3009L1357.7861,656.6065L1357.7726,656.6065Q1361.574,657.8714,1366.3674,657.8714Q1367.4406,657.8714,1368.5632,657.80804C1368.6128,657.80524,1368.6622,657.80035,1368.7114,657.7934L1392.4758,654.4197L1392.5737,654.40295L1408.6779,651.1807C1408.7953,651.1572,1408.91,651.12177,1409.0203,651.07495Q1414.0472,648.94073,1427.3269,646.80963C1427.3713,646.8025,1427.4156,646.79364,1427.4594,646.78314Q1435.2928,644.9004,1442.9502,642.2285C1443.0017,642.2106,1443.052,642.19037,1443.1016,642.1677Q1452.7926,637.7413,1458.039,630.59705L1458.1035,630.5028Q1470.359,611.3188,1454.1062,600.01245C1453.9917,599.9328,1453.8684,599.8671,1453.7384,599.81665L1442.6355,595.5047L1442.5769,595.48315Q1442.512,595.4606,1442.4432,595.44006L1442.4423,595.4398Q1440.8888,594.9777,1428.7163,593.87115L1428.7054,593.87115Q1426.4155,593.5628,1421.2559,593.5628 Z"/>
</g>
</g>
</svg>