<?xml version="1.0" encoding="utf-8"?>
<svg xmlns="http://www.w3.org/2000/svg" xmlns:xlink="http://www.w3.org/1999/xlink" version= "1.1" width="700px" height="700px" viewBox="930 432 700 700">
<g id="layer1">
<g style="fill:rgb(254,254,254); fill-opacity:1.0; stroke-linejoin: miter">
</g>
<g style="fill:rgb(254,254,254); fill-opacity:1.0; stroke-linejoin: miter">
</g>
<g style="fill:rgb(254,254,254); fill-opacity:1.0; stroke-linejoin: miter">
</g>
<g style="fill:rgb(254,254,254); fill-opacity:1.0; stroke-linejoin: miter">
<path d="M1288.907,611.54114Q1288.907,611.54114,1288.907,611.5412L1288.907,611.5412L1288.907,611.54114 Z M1289.3336,611.80884L1289.3336,611.80884C1289.4897,611.8521,1289.6515,611.87427,1289.8145,611.87427C1289.8768,611.87427,1289.9393,611.87103,1290.0018,611.8645L1290.0148,611.8645Q1289.8867,611.88116,1289.7687,611.88116Q1289.5231,611.88116,1289.3207,611.80884 Z M1272.3373,603.2781Q1269.6434,603.2781,1266.8367,603.7118C1266.766,603.7227,1266.6962,603.7378,1266.6272,603.7571Q1259.374,605.78394,1255.6946,611.6254C1255.6453,611.7037,1255.602,611.78577,1255.5653,611.87067Q1251.7308,620.74316,1251.5314,635.9486C1251.53,636.0509,1251.5374,636.1529,1251.5533,636.25397L1252.5635,642.62775L1252.5635,642.62775Q1252.7119,643.5806,1253.532,645.1467L1253.5251,645.1467Q1255.1898,649.0119,1259.7421,650.5727L1259.7295,650.5727Q1263.7272,652.392,1267.8951,652.392Q1273.0964,652.392,1278.5629,649.55865C1278.6321,649.52277,1278.699,649.4824,1278.759,649.4405L1278.7622,649.4383L1278.7661,649.4356Q1284.0831,645.73376,1285.0325,644.5516L1285.0326,644.5515Q1285.0759,644.4975,1285.1157,644.44354L1285.1029,644.44354Q1288.2483,641.5563,1292.233,634.801L1292.233,634.801Q1297.0857,626.67224,1295.2406,616.2947C1295.216,616.1562,1295.1752,616.02106,1295.1191,615.8921Q1292.6653,610.2476,1291.4934,609.0371L1291.4934,609.03705Q1291.0693,608.599,1290.6035,608.4103L1290.5906,608.4103Q1288.1888,606.68384,1286.2549,606.68384Q1284.621,606.68384,1283.3209,607.916C1282.5994,608.59985,1282.5688,609.7391,1283.2527,610.46063C1283.6067,610.8341,1284.0825,611.02246,1284.5594,611.02246C1285.0039,611.02246,1285.4491,610.8588,1285.7972,610.52893Q1286.0084,610.32886,1286.3456,610.32886Q1287.1652,610.32886,1288.7295,611.51056C1288.8333,611.589,1288.9443,611.6552,1289.0605,611.7088L1289.0476,611.7088Q1289.8086,612.71826,1291.7533,617.1797L1291.7404,617.1797Q1293.2474,626.0784,1289.142,632.9557L1289.1371,632.964Q1285.3364,639.40857,1282.5503,641.8984C1282.3975,642.0349,1282.2695,642.1962,1282.1714,642.37524L1282.1586,642.37524Q1281.3794,643.2277,1276.7686,646.4398L1276.7559,646.4398Q1272.1854,648.77277,1267.8875,648.77277Q1264.4126,648.77277,1261.1158,647.2479C1261.0583,647.2214,1260.9993,647.1977,1260.9393,647.1773Q1257.8154,646.11597,1256.7911,643.6268C1256.7701,643.5757,1256.7468,643.52576,1256.7212,643.4768Q1256.1757,642.4349,1256.1207,642.07477L1256.1191,642.0643L1255.1447,635.91516L1255.1321,635.91516Q1255.3285,621.65295,1258.7896,613.48694L1258.777,613.48694Q1261.6873,608.9132,1267.4791,607.25726L1267.4664,607.25726Q1269.9576,606.8781,1272.3376,606.8781Q1273.7979,606.8781,1275.2163,607.0209C1275.2762,607.0269,1275.3364,607.02997,1275.3966,607.02997C1275.4126,607.02997,1275.4285,607.0297,1275.4445,607.0293L1275.4572,607.0293Q1276.2449,607.1893,1278.8467,608.9098L1278.8467,608.90985C1279.1522,609.11194,1279.497,609.2086,1279.8378,609.2086C1280.4218,609.2086,1280.9946,608.9248,1281.341,608.4012C1281.8893,607.57196,1281.6615,606.45526,1280.8323,605.907Q1277.5079,603.7088,1275.9792,603.4662L1275.9794,603.4662Q1275.7241,603.42566,1275.485,603.42566Q1275.4646,603.42566,1275.4443,603.4259L1275.4443,603.4259Q1273.91,603.2781,1272.3373,603.2781 Z"/>
</g>
<g style="fill:rgb(254,254,254); fill-opacity:1.0; stroke-linejoin: miter">
<path d="M1274.7971,715.50903Q1276.9568,715.50903,1280.5618,716.0471L1280.5555,716.0471Q1281.6373,716.2503,1282.5374,716.6038L1282.5245,716.6038C1282.7356,716.85834,1283.0192,717.05774,1283.357,717.1667L1284.0789,717.39935L1284.066,717.39935Q1284.6447,717.7916,1285.1089,718.27844L1285.1049,718.27844Q1287.0217,720.54987,1286.6138,721.75696C1286.2955,722.6987,1286.8009,723.7202,1287.7427,724.0385C1287.9337,724.1031,1288.128,724.1337,1288.3192,724.1337C1289.07,724.1337,1289.7705,723.6603,1290.0242,722.90955Q1290.602,721.19934,1289.899,719.2797L1289.912,719.2797L1291.414,719.7639L1291.414,719.7639Q1291.7439,719.871,1292.0392,720.09064L1292.0262,720.09064Q1293.9551,722.045,1295.0034,725.1716C1295.0452,725.29626,1295.1006,725.416,1295.1685,725.5286Q1296.815,728.2603,1296.436,737.4986L1296.4242,737.4986L1295.4985,743.4147L1295.4856,743.4147Q1294.0785,747.3294,1293.758,747.90027L1293.7567,747.90027Q1287.3718,757.90265,1278.5305,758.6653C1278.4413,758.673,1278.3529,758.6873,1278.2657,758.7082Q1277.0458,759.00055,1275.8826,759.00055Q1270.7473,759.00055,1266.7207,753.3017L1266.6515,753.21014Q1265.6095,751.9186,1262.1553,742.637C1262.1321,742.5748,1262.1056,742.51404,1262.0758,742.45496L1262.0631,742.45496Q1261.84,741.6525,1261.822,737.69824L1261.8221,737.69824Q1261.7997,730.67365,1263.0973,726.4445L1263.0933,726.4445Q1264.9432,721.61426,1266.0085,720.2482L1266.008,720.2482Q1268.4196,717.3193,1272.3015,715.8384L1272.3247,715.82935Q1273.1307,715.50903,1274.7971,715.50903 Z M1274.8896,711.9377Q1272.3696,711.9377,1270.9951,712.4839L1270.9946,712.4839Q1266.2385,714.30457,1263.2288,717.96L1263.2083,717.9854Q1261.7969,719.7645,1259.7314,725.1569L1259.6947,725.2626Q1258.1976,730.04083,1258.222,737.7097L1258.2222,737.7121Q1258.2428,742.27484,1258.6294,743.5381L1258.6294,743.5381Q1258.7283,743.86145,1258.8787,744.12024L1258.8661,744.12024Q1262.4559,753.7432,1263.8497,755.47064L1263.8455,755.47064Q1268.9435,762.6248,1275.7328,762.6248Q1277.3033,762.6248,1278.9644,762.242L1278.9515,762.242Q1289.5161,761.2736,1296.8279,749.77985L1296.8564,749.7334Q1296.8759,749.7006,1296.8973,749.66235L1296.8975,749.66235Q1297.3741,748.8131,1298.9547,744.4057C1298.993,744.29877,1299.0211,744.18854,1299.0387,744.07635L1300.0128,737.85065C1300.0234,737.7829,1300.0302,737.71466,1300.033,737.6462Q1300.4426,727.6598,1298.391,723.9126L1298.3779,723.9126Q1297.028,719.95935,1294.4427,717.4163L1294.4426,717.4163L1294.2681,717.263Q1293.463,716.643,1292.5201,716.3381L1292.5184,716.3375L1285.631,714.1173L1285.6182,714.1173Q1283.7151,712.9671,1281.1527,712.49646L1281.0933,712.4866Q1277.4159,711.9377,1274.8896,711.9377 Z"/>
</g>
<g style="fill:rgb(254,254,254); fill-opacity:1.0; stroke-linejoin: miter">
<path d="M1279.5406,842.0361L1279.5406,842.0361Q1279.3136,842.7393,1278.676,842.95966L1278.676,842.95966C1279.0272,842.78156,1279.3156,842.4904,1279.4888,842.12463C1279.5027,842.0954,1279.5156,842.06586,1279.5278,842.0361 Z M1300.6262,884.56274Q1301.5227,884.56274,1302.0336,885.6579L1302.0336,885.6579C1301.8057,885.16956,1301.371,884.80896,1300.8489,884.67523C1300.7015,884.6375,1300.5515,884.61896,1300.4025,884.61896C1300.3066,884.61896,1300.2112,884.6266,1300.1171,884.6417L1300.1171,884.6417Q1300.3855,884.56274,1300.6262,884.56274 Z M1278.3856,839.4477Q1278.0905,839.4477,1277.9052,839.4656L1277.9049,839.4656Q1277.4724,839.50726,1277.1407,839.63885L1277.1279,839.63885Q1269.9967,840.6566,1268.2383,842.5972L1268.2256,842.5972Q1264.3004,845.07684,1261.2449,856.5471L1261.2251,856.6292Q1259.8217,863.1054,1262.0442,872.8739L1262.0502,872.89954Q1264.3715,882.4527,1266.8894,886.09143L1266.8948,886.09906Q1270.7379,891.59235,1276.196,893.3741L1276.313,893.40796Q1281.6567,894.7604,1285.3392,894.7604Q1287.1202,894.7604,1288.5126,894.44403C1288.5808,894.4285,1288.6481,894.4091,1288.7141,894.38574Q1295.9689,891.8194,1301.1398,888.10785L1301.1267,888.10785Q1301.1869,888.08246,1301.2483,888.0539L1301.2487,888.0537Q1301.4825,887.9447,1301.7256,887.7577L1301.7258,887.7575Q1302.7954,886.9341,1307.4891,881.3903L1307.494,881.3845Q1308.2598,880.4723,1308.8014,879.1078C1308.8168,879.06915,1308.8304,879.0307,1308.8431,878.9911Q1311.3359,871.182,1310.9122,865.2021C1310.9077,865.1382,1310.8997,865.0742,1310.8883,865.01117Q1309.1244,855.1876,1306.9525,851.991L1306.9479,851.991Q1302.9911,845.4033,1296.6097,843.3789C1296.4287,843.3215,1296.2452,843.2942,1296.065,843.2942C1295.3014,843.2942,1294.5928,843.7838,1294.3496,844.55035C1294.049,845.4979,1294.5735,846.5098,1295.5211,846.8104Q1300.6056,848.42334,1303.8617,853.84467C1303.8849,853.8833,1303.9099,853.9215,1303.9359,853.9583Q1305.691,856.43616,1307.3451,865.6474L1307.3337,865.6474Q1307.655,870.8753,1305.4137,877.89636L1305.4081,877.89636Q1305.1005,878.63666,1304.7367,879.06995L1304.7367,879.06995Q1300.6638,883.88025,1299.6823,884.775L1299.6692,884.775C1299.553,884.82684,1299.4415,884.89136,1299.337,884.9681Q1294.5281,888.49927,1287.598,890.96185L1287.5852,890.96185Q1286.5923,891.16925,1285.3042,891.16925Q1282.1771,891.16925,1277.3104,889.9468L1277.2977,889.9468Q1272.9961,888.5363,1269.8499,884.04297L1269.8499,884.04297Q1267.7151,880.958,1265.5547,872.0752L1265.5544,872.0752Q1263.5242,863.151,1264.7258,857.47375L1264.7236,857.47375Q1267.519,846.9797,1270.2593,845.5769C1270.5204,845.44324,1270.7448,845.24786,1270.913,845.00793L1270.9117,845.00793Q1271.8129,843.98615,1278.1024,843.1381C1278.2378,843.1199,1278.369,843.08655,1278.4941,843.0396L1278.4813,843.0396Q1278.4955,843.03955,1278.5103,843.03955Q1279.6766,843.03955,1284.1831,843.52515L1284.1703,843.52515Q1286.5797,843.9659,1288.1616,845.54193C1288.2762,845.6561,1288.4053,845.7539,1288.5452,845.8331L1288.5322,845.8331Q1289.041,846.4668,1290.1346,849.0856L1290.1346,849.0856L1290.1349,849.08636C1290.4233,849.7771,1291.0922,850.1933,1291.7966,850.1933C1292.0278,850.1933,1292.2628,850.1485,1292.4895,850.05383C1293.4069,849.6708,1293.84,848.61664,1293.5266,847.8983L1293.5264,847.89746L1293.4567,847.69836Q1292.0148,844.2455,1291.0416,843.24097L1291.0415,843.2409Q1290.8022,842.9939,1290.5431,842.8238L1290.5302,842.8238Q1288.1659,840.56866,1284.7162,839.96564L1284.5992,839.94916Q1279.95,839.4477,1278.3856,839.4477 Z"/>
</g>
<g style="fill:rgb(254,254,254); fill-opacity:1.0; stroke-linejoin: miter">
</g>
<g style="fill:rgb(254,254,254); fill-opacity:1.0; stroke-linejoin: miter">
<path d="M1150.4214,682.6143C1150.508,682.6287,1150.5955,682.6367,1150.683,682.6383L1150.6715,682.6383Q1150.6669,682.63837,1150.6621,682.63837Q1150.5417,682.63837,1150.4099,682.6143 Z M1179.3978,707.68695Q1179.8948,707.68695,1180.4768,708.05084L1180.4768,708.05084C1180.1809,707.866,1179.8512,707.7775,1179.5251,707.7775C1179.0472,707.7775,1178.5771,707.96765,1178.2323,708.3233L1178.2323,708.3233Q1178.7406,707.68695,1179.3978,707.68695 Z M1177.731,709.741C1177.7677,710.1427,1177.9386,710.5302,1178.2318,710.8316L1178.2213,710.8316Q1177.7052,710.34467,1177.7192,709.741 Z M1153.557,678.7546Q1151.6112,678.7546,1150.4701,679.03937L1150.4585,679.03937Q1150.126,679.06946,1149.7705,679.1998L1149.7704,679.1999Q1148.4963,679.66724,1144.6918,682.54785L1144.6577,682.57434Q1142.6311,684.1867,1141.1859,689.0584C1141.173,689.10205,1141.1616,689.1466,1141.152,689.1911Q1139.9313,694.8556,1139.2538,696.9663C1139.236,697.02185,1139.2208,697.0779,1139.2085,697.1349Q1138.6475,699.72186,1139.0988,705.9085L1139.0984,705.9085Q1139.1685,707.0945,1140.3943,710.6668L1140.3829,710.6668Q1140.6995,714.12805,1141.2501,715.3009L1141.2505,715.3015Q1141.3047,715.4168,1141.3643,715.5221L1141.3528,715.5221Q1143.7805,722.6836,1147.2744,725.2775L1147.2676,725.2775Q1151.0332,728.48035,1157.8584,729.7459C1157.9651,729.7657,1158.0734,729.77576,1158.1819,729.77606Q1158.2877,729.7763,1158.3923,729.7763Q1165.531,729.7763,1167.4819,728.52106L1167.482,728.52106Q1167.8456,728.2871,1168.1083,727.99585L1168.0966,727.99585Q1169.671,727.018,1171.0415,725.4764L1171.0414,725.4764Q1177.175,718.6935,1178.3728,716.21545L1178.3698,716.21545Q1180.9202,711.4955,1181.2468,710.3212Q1181.2825,710.1932,1181.3063,710.0703L1181.2944,710.0703Q1181.3286,709.9712,1181.3568,709.8638L1181.3568,709.8638Q1181.65,708.7466,1182.1782,702.2737C1182.1823,702.224,1182.1843,702.17377,1182.1842,702.1239Q1182.1686,693.7062,1176.7292,686.24677L1176.7281,686.24677Q1172.9689,680.7271,1166.4965,680.53796C1166.4785,680.5374,1166.4607,680.5372,1166.4429,680.5372C1165.4731,680.5372,1164.6731,681.30884,1164.6445,682.2846C1164.6155,683.2783,1165.3976,684.1074,1166.3912,684.1365Q1171.0275,684.2719,1173.7526,688.27325L1173.7878,688.3231Q1178.5707,694.8576,1178.5841,702.1306L1178.5779,702.1306Q1178.119,707.73267,1177.905,708.8143L1177.8933,708.8143C1177.7823,709.05035,1177.7268,709.3025,1177.7236,709.5535L1177.7118,709.5535Q1177.3201,710.5852,1175.2025,714.504L1175.1488,714.6119Q1174.2675,716.5414,1168.3712,723.0618L1168.3597,723.07465Q1167.2382,724.339,1165.9861,725.0642C1165.771,725.1888,1165.5851,725.35596,1165.439,725.5543L1165.4274,725.5543Q1164.2003,726.17645,1158.4688,726.17645Q1158.4182,726.17645,1158.3673,726.1764L1158.3557,726.1764Q1152.5205,725.0671,1149.5262,722.47205C1149.4921,722.44244,1149.4567,722.41394,1149.4204,722.387Q1146.7797,720.4265,1144.6885,714.1469C1144.6445,714.01514,1144.5856,713.8889,1144.5128,713.7709L1144.5089,713.7709Q1144.2097,713.1337,1143.9458,710.0887C1143.933,709.9414,1143.9021,709.7964,1143.8539,709.6567Q1142.7871,706.5673,1142.699,705.77783L1142.6941,705.77783L1142.6941,705.7776L1142.6893,705.64667Q1142.2921,700.1997,1142.6927,698.0664L1142.6815,698.0664Q1143.4052,695.81177,1144.6426,690.0822L1144.6373,690.0822Q1145.744,686.3516,1146.8663,685.41797L1146.8649,685.41797Q1149.9996,683.04456,1150.8868,682.6316L1150.8754,682.6316C1151.0028,682.6203,1151.1294,682.5954,1151.2529,682.5568Q1151.9501,682.3392,1153.4473,682.3392Q1155.0411,682.3392,1157.5417,682.5858L1157.5311,682.5858Q1158.929,682.79,1159.5117,683.64984C1159.5654,683.7291,1159.6252,683.8038,1159.6909,683.87354Q1159.9437,684.14215,1159.6505,684.59485C1159.1101,685.4292,1159.3484,686.5437,1160.1827,687.08417C1160.4851,687.28,1160.8243,687.37366,1161.1597,687.37366C1161.7495,687.37366,1162.3274,687.084,1162.672,686.552Q1164.4331,683.8331,1162.4664,681.5763L1162.4548,681.5763Q1160.958,679.41693,1157.9601,679.0108L1157.8953,679.0032Q1155.375,678.7546,1153.557,678.7546 Z"/>
</g>
<g style="fill:rgb(254,254,254); fill-opacity:1.0; stroke-linejoin: miter">
<path d="M1178.5116,787.3427Q1177.7412,787.3427,1177.0323,787.57886C1176.8889,787.62665,1176.7521,787.69226,1176.6251,787.77423Q1175.0079,788.8179,1174.4766,788.8983L1174.4745,788.8983C1173.4916,788.9931,1172.7676,789.8631,1172.8546,790.8485C1172.9374,791.7848,1173.723,792.49,1174.6455,792.49C1174.6986,792.49,1174.7522,792.4877,1174.8062,792.4829Q1174.9103,792.4737,1175.0155,792.45776L1175.0154,792.45776Q1176.2384,792.2727,1178.3267,790.9588L1178.3148,790.9588Q1178.4095,790.94293,1178.5156,790.94293Q1178.5593,790.94293,1178.6051,790.9456L1178.5933,790.9456Q1180.7484,791.31244,1182.4381,792.95935L1182.4263,792.95935L1186.1453,797.6006L1187.8828,801.0463L1187.8821,801.0463Q1188.134,801.58295,1188.2582,802.09357L1188.2576,802.09357L1189.6702,808.5796L1189.6583,808.5796Q1190.0278,813.75165,1185.857,824.7462C1185.8253,824.8298,1185.7999,824.9155,1185.781,825.00287Q1185.0336,828.44653,1178.6268,832.90125L1178.566,832.9454Q1175.6307,835.17365,1172.1921,835.17365Q1171.5421,835.17365,1170.874,835.094C1170.8267,835.0883,1170.7789,835.08453,1170.7312,835.0827Q1165.4203,834.87555,1161.3342,833.00214L1161.3225,833.00214Q1158.4803,831.2401,1156.5455,828.0312L1156.534,828.0312Q1154.5647,823.46045,1153.797,819.2952L1153.7855,819.2952Q1153.551,800.4266,1158.1653,794.39136C1158.1947,794.3529,1158.2228,794.3129,1158.249,794.2722Q1159.8026,791.8584,1163.7289,791.8584Q1163.7648,791.8584,1163.8009,791.8586C1163.8042,791.8586,1163.8076,791.8586,1163.8109,791.8586C1163.9058,791.8586,1164.0006,791.8511,1164.0942,791.8362Q1164.4669,791.7768,1164.8185,791.7768Q1167.212,791.7768,1168.6267,794.52997C1168.9458,795.15094,1169.5759,795.5077,1170.2292,795.5077C1170.5061,795.5077,1170.7871,795.4436,1171.0504,795.30835C1171.9347,794.854,1172.2832,793.7689,1171.8289,792.8847Q1169.4015,788.16064,1164.9874,788.16064Q1164.3523,788.16064,1163.676,788.2584L1163.6643,788.2584Q1157.8247,788.27936,1155.2217,792.324L1155.2155,792.324Q1149.9276,799.4112,1150.1869,819.42316C1150.1881,819.5209,1150.1973,819.6181,1150.2144,819.71436Q1151.0465,824.4036,1153.2445,829.49457C1153.2742,829.56323,1153.3082,829.6302,1153.3462,829.69464Q1155.7793,833.82526,1159.493,836.10333C1159.5508,836.1388,1159.6102,836.17084,1159.6716,836.1995Q1164.4437,838.4315,1170.5388,838.6779L1170.5271,838.6779Q1171.3907,838.7765,1172.2311,838.7765Q1176.8043,838.7765,1180.6844,835.85693L1180.682,835.85693Q1188.0742,830.71704,1189.2465,825.9927L1189.2345,825.9927Q1193.7646,814.04144,1193.2286,808.06683C1193.2219,807.99225,1193.2106,807.9178,1193.1946,807.8446L1191.766,801.2853L1191.7562,801.2431Q1191.5398,800.35297,1191.1149,799.4614L1191.0972,799.4255L1189.2748,795.8114C1189.2184,795.6996,1189.1505,795.594,1189.0723,795.4963L1185.1243,790.56934C1185.0795,790.5134,1185.0314,790.46014,1184.9802,790.41Q1182.4309,787.9089,1179.0776,787.377C1179.0338,787.37006,1178.9897,787.36475,1178.9456,787.361Q1178.7262,787.3427,1178.5116,787.3427 Z"/>
</g>
<g style="fill:rgb(254,254,254); fill-opacity:1.0; stroke-linejoin: miter">
<path d="M1250.188,639.15894C1249.9954,639.15894,1249.7993,639.1901,1249.6068,639.2558Q1247.3273,640.0332,1246.2836,640.97064C1246.1749,641.0682,1246.0785,641.17865,1245.9966,641.29944Q1244.8916,642.9287,1240.8833,646.508L1240.8708,646.508Q1236.4728,648.3431,1228.5759,653.8744L1228.5195,653.9155Q1226.2104,655.6702,1216.6821,666.2444C1216.596,666.34,1216.5203,666.44464,1216.4564,666.55634L1216.4442,666.55634Q1214.7103,668.51874,1195.6234,681.0335L1195.6115,681.0335Q1195.5101,681.09045,1195.4071,681.1592L1195.4071,681.1592Q1194.0665,682.05334,1189.0511,687.9441L1189.0513,687.9441C1188.4069,688.70105,1188.4979,689.83704,1189.2549,690.4815C1189.5936,690.76996,1190.0083,690.911,1190.4209,690.911C1190.9302,690.911,1191.4363,690.69604,1191.7924,690.27783Q1196.3563,684.91724,1197.3518,684.1911L1197.3416,684.1911C1197.4169,684.1555,1197.4896,684.1147,1197.5593,684.06903Q1217.5375,670.97076,1219.3231,668.72424L1219.3232,668.72406Q1219.372,668.66284,1219.4159,668.6019L1219.4037,668.6019Q1228.5441,658.46,1230.6443,656.823L1230.6414,656.823Q1238.4894,651.32587,1242.525,649.7211C1242.7196,649.64374,1242.8992,649.5331,1243.0557,649.394Q1247.3259,645.59906,1248.8043,643.56433L1248.7919,643.56433Q1249.3339,643.1525,1250.7689,642.66315C1251.7098,642.3422,1252.2125,641.31934,1251.8916,640.3784C1251.6364,639.63007,1250.937,639.15894,1250.188,639.15894 Z"/>
</g>
<g style="fill:rgb(254,254,254); fill-opacity:1.0; stroke-linejoin: miter">
<path d="M1260.66,663.4782C1259.8402,663.4782,1259.099,664.04193,1258.9073,664.87494Q1258.4795,666.7345,1250.2588,678.8633C1250.2098,678.93555,1250.166,679.01135,1250.128,679.08997L1235.3213,709.7294L1235.3213,709.7294L1217.2167,740.0468C1217.1771,740.113,1217.142,740.1816,1217.1112,740.2522L1207.9812,761.25854L1207.9691,761.25854Q1202.5099,770.72723,1201.1804,774.10583L1201.1683,774.10583L1191.9954,788.42865C1191.4592,789.2658,1191.7031,790.3791,1192.5403,790.9152C1192.8408,791.1077,1193.1771,791.19965,1193.5094,791.19965C1194.1025,791.19965,1194.6832,790.90674,1195.0269,790.3702L1204.3275,775.8481C1204.3934,775.7451,1204.4489,775.63574,1204.4926,775.5216Q1205.677,772.43176,1211.1875,762.88403C1211.2216,762.825,1211.2523,762.7642,1211.2794,762.7017L1220.3671,741.79285L1238.4531,711.50635C1238.4802,711.46094,1238.5054,711.41437,1238.5284,711.3667L1253.2815,680.83856L1253.2689,680.83856Q1261.8379,668.193,1262.4156,665.6822C1262.6385,664.7134,1262.0339,663.7473,1261.0652,663.5244C1260.9294,663.49316,1260.7936,663.4782,1260.66,663.4782 Z"/>
</g>
<g style="fill:rgb(254,254,254); fill-opacity:1.0; stroke-linejoin: miter">
<path d="M1192.187,716.1127C1191.6052,716.1127,1191.0344,716.39417,1190.6875,716.91455C1190.1361,717.74176,1190.3599,718.8593,1191.1887,719.4118L1191.1881,719.4118Q1191.8456,719.89307,1194.511,723.209L1194.4991,723.209Q1200.7545,733.99097,1210.1809,745.77625L1210.1688,745.77625L1217.221,758.6779L1217.2087,758.6779Q1217.285,758.88293,1217.4047,759.09L1217.4047,759.09Q1218.1896,760.4493,1224.1189,766.57574L1224.1067,766.57574L1234.4487,783.70245C1234.475,783.7458,1234.5029,783.788,1234.5327,783.82904L1251.0027,806.5293L1251.0018,806.5293Q1260.4476,820.30615,1263.5708,827.52014C1263.6328,827.6634,1263.7133,827.798,1263.8099,827.9205L1264.9926,829.4182L1264.98,829.4182C1264.7756,830.1591,1265.0648,830.9772,1265.7462,831.4129Q1266.8695,832.13104,1267.3569,832.3488L1267.3573,832.349Q1267.852,832.5699,1268.2964,832.5699Q1268.905,832.5699,1269.4192,832.15533L1269.4192,832.15533Q1270.8473,831.00476,1269.6327,829.48535L1269.6327,829.48535L1266.808,825.90814L1266.7953,825.90814Q1263.4929,818.3774,1253.9441,804.45416L1253.9165,804.41516L1237.4915,781.7769L1227.0626,764.5064C1226.9924,764.39014,1226.9092,764.2821,1226.8147,764.1846Q1221.4337,758.6293,1220.6089,757.4255L1220.5967,757.4255C1220.5612,757.30914,1220.5137,757.1961,1220.4547,757.0882L1213.2261,743.8635C1213.1758,743.7715,1213.1174,743.68384,1213.0519,743.602Q1203.679,731.89307,1197.5155,721.23413C1197.4696,721.15485,1197.418,721.0794,1197.3606,721.008Q1194.3373,717.244,1193.2845,716.4851L1193.2845,716.4851Q1193.233,716.448,1193.1836,716.41504L1193.1836,716.41504C1192.8768,716.2105,1192.53,716.1127,1192.187,716.1127 Z"/>
</g>
<g style="fill:rgb(254,254,254); fill-opacity:1.0; stroke-linejoin: miter">
<path d="M1206.2634,796.4583C1206.1216,796.50775,1205.9852,796.57513,1205.8582,796.6599L1205.8582,796.6599Q1206.0377,796.53076,1206.2513,796.4583 Z M1207.142,796.3788L1207.142,796.3788Q1208.6053,796.51465,1208.6548,798.0228L1208.6512,798.0228C1208.6014,797.35925,1208.1874,796.7716,1207.5685,796.5049C1207.426,796.4435,1207.2787,796.4017,1207.1299,796.3788 Z M1249.1367,745.35406C1248.698,745.35406,1248.2583,745.5134,1247.9116,745.83563Q1245.8724,747.73096,1245.0814,748.7101L1245.0812,748.7101L1236.3375,759.1971L1217.1351,779.70087C1217.0435,779.79877,1216.9629,779.90674,1216.8951,780.0226Q1215.4299,782.5279,1213.024,785.0942C1212.9307,785.1937,1212.849,785.3036,1212.7805,785.42163L1207.9407,793.7586L1207.9297,793.7586Q1206.0786,796.3235,1205.6652,796.8191L1205.6531,796.8191C1205.6368,796.83374,1205.6207,796.8487,1205.605,796.86395Q1205.0355,797.4146,1204.6567,797.7691L1204.6447,797.7691C1204.3044,797.87305,1203.9916,798.0787,1203.7556,798.37994Q1203.5931,798.58734,1203.4932,798.73596L1203.4932,798.73596Q1202.4742,800.2514,1203.8125,801.29944L1203.813,801.29974Q1204.3495,801.7196,1204.9141,801.7196Q1205.5087,801.7196,1206.1345,801.2539L1206.1351,801.2535Q1206.5806,800.92175,1207.9243,799.62866L1207.9122,799.62866Q1208.1075,799.48926,1208.285,799.29224L1208.2852,799.2921Q1208.7505,798.77527,1210.9573,795.71515C1210.992,795.66705,1211.0242,795.61725,1211.054,795.566L1215.7715,787.4397L1215.7594,787.4397Q1218.2682,784.74304,1219.8768,782.0529L1219.8646,782.0529L1239.0,761.6207L1239.0686,761.543L1247.864,750.99396L1247.8817,750.9724Q1248.5109,750.1936,1250.3625,748.4726C1251.0907,747.7958,1251.1323,746.6568,1250.4556,745.92865C1250.101,745.5471,1249.6195,745.35406,1249.1367,745.35406 Z"/>
</g>
<g style="fill:rgb(254,254,254); fill-opacity:1.0; stroke-linejoin: miter">
</g>
<g style="fill:rgb(254,254,254); fill-opacity:1.0; stroke-linejoin: miter">
</g>
<g style="fill:rgb(254,254,254); fill-opacity:1.0; stroke-linejoin: miter">
</g>
<g style="fill:rgb(254,254,254); fill-opacity:1.0; stroke-linejoin: miter">
<path d="M1238.838,847.5608L1238.838,847.5608Q1239.1641,847.9665,1239.167,848.5968L1239.1669,848.5968C1239.163,848.2189,1239.0406,847.85815,1238.8256,847.5608 Z M1203.3143,823.0638C1202.8698,823.0638,1202.4244,823.2275,1202.0763,823.55743C1201.3549,824.24133,1201.3242,825.3806,1202.0082,826.1021Q1207.0864,831.4593,1211.5664,834.2241L1211.5653,834.2241Q1215.1823,836.58466,1216.6292,837.3155L1216.6991,837.34894Q1223.7606,840.54156,1226.9502,842.5924L1226.9595,842.5983Q1229.0792,843.9431,1230.2896,844.89954L1230.2773,844.89954Q1234.2761,848.7916,1236.2451,850.0387L1236.2328,850.0387Q1236.3153,850.1124,1236.4081,850.18256L1236.408,850.18256Q1237.488,850.99945,1245.7584,855.22845L1245.746,855.22845Q1250.7927,858.66583,1251.6531,859.4833C1252.0013,859.81415,1252.4474,859.9783,1252.8926,859.9783C1253.3687,859.9783,1253.8439,859.7905,1254.1978,859.4181C1254.8824,858.6974,1254.8533,857.5581,1254.1326,856.8734Q1253.0485,855.84344,1247.6409,852.1634C1247.5789,852.1212,1247.5143,852.0829,1247.4475,852.04877Q1239.9008,848.19055,1238.7079,847.401L1238.6956,847.401C1238.5781,847.2725,1238.4412,847.1601,1238.2874,847.0686Q1236.6661,846.104,1232.671,842.2056C1232.6263,842.162,1232.5796,842.121,1232.5306,842.0822Q1231.1747,841.0095,1228.8972,839.56433L1228.8972,839.56433Q1225.5023,837.38153,1218.2562,834.1021L1218.2522,834.1021Q1216.9757,833.45734,1213.4958,831.1852L1213.457,831.1605Q1209.3767,828.6423,1204.621,823.6254C1204.267,823.2521,1203.7911,823.0638,1203.3143,823.0638 Z"/>
</g>
<g style="fill:rgb(254,254,254); fill-opacity:1.0; stroke-linejoin: miter">
<path d="M1192.7291,694.01575C1192.6326,694.01575,1192.5348,694.02356,1192.4364,694.0396Q1192.3799,694.0489,1192.3264,694.05927L1192.3265,694.05927Q1190.144,694.4829,1190.466,696.45605L1190.466,696.4564Q1190.5813,697.16254,1191.1725,697.76575L1191.1727,697.766Q1191.3215,697.9178,1191.5085,698.07227C1191.5613,698.11584,1191.6165,698.1564,1191.6738,698.19366Q1195.4993,700.681,1197.4583,702.2861L1197.4529,702.2861Q1197.4929,702.3216,1197.536,702.35724L1197.536,702.35724Q1198.5885,703.2283,1205.787,707.11005C1205.9165,707.1799,1206.0542,707.23364,1206.1968,707.26996Q1210.5105,708.3694,1212.2733,709.30334C1212.3743,709.3568,1212.48,709.4005,1212.5892,709.43396Q1213.4883,709.7091,1217.2363,712.19086L1217.2767,712.21686Q1218.068,712.711,1220.282,713.5712L1220.2817,713.5712Q1222.8995,714.60504,1229.7555,716.3076L1229.7433,716.3076L1236.2389,718.687C1236.3315,718.72095,1236.4268,718.7472,1236.5248,718.7657L1236.5123,718.7657Q1237.5956,719.0972,1244.5023,722.6476C1244.7656,722.7829,1245.0468,722.84705,1245.3237,722.84705C1245.9768,722.84705,1246.6069,722.4904,1246.926,721.86957C1247.3805,720.9854,1247.0322,719.90027,1246.1481,719.4458Q1238.787,715.6619,1237.4398,715.28644L1237.4398,715.28644Q1237.4288,715.2834,1237.418,715.2804L1237.4056,715.2804L1230.8647,712.88446C1230.8038,712.8622,1230.742,712.84326,1230.6791,712.82764Q1223.998,711.17004,1221.5961,710.21967L1221.5857,710.21564Q1219.7642,709.5079,1219.2263,709.1893L1219.2239,709.1893Q1215.3584,706.6297,1213.871,706.07007L1213.8589,706.07007Q1211.7634,704.9882,1207.3251,703.8428L1207.313,703.8428Q1200.8802,700.3711,1199.9064,699.6425L1199.893,699.6425C1199.8446,699.59247,1199.7936,699.5455,1199.7397,699.5014Q1197.873,697.972,1194.5391,695.76746L1194.5271,695.76746C1194.5249,695.6876,1194.5172,695.60693,1194.504,695.52594C1194.3599,694.64307,1193.5963,694.01575,1192.7291,694.01575 Z"/>
</g>
<g style="fill:rgb(254,254,254); fill-opacity:1.0; stroke-linejoin: miter">
<path d="M1389.675,672.98505C1389.7686,673.46344,1390.0546,673.8924,1390.4799,674.16125C1390.5481,674.20435,1390.6184,674.24243,1390.6904,674.2756L1390.6904,674.2756Q1389.7229,673.8921,1389.6611,672.98505 Z M1392.0012,674.3551Q1391.743,674.4425,1391.4727,674.4425Q1391.4119,674.4425,1391.3503,674.4381L1391.3643,674.4381C1391.39,674.4392,1391.4159,674.43976,1391.4417,674.43976C1391.6257,674.43976,1391.8099,674.41156,1391.9873,674.3551 Z M1369.0243,656.1428Q1371.3553,656.1428,1374.5253,657.01685L1374.517,657.01685Q1378.1241,658.2353,1379.0536,660.871C1379.3143,661.6105,1380.0092,662.0729,1380.7511,662.0729C1380.9497,662.0729,1381.1517,662.03973,1381.3497,661.9699C1382.2635,661.64764,1382.754,660.66266,1382.472,659.7448L1382.4858,659.7448C1382.785,660.2732,1383.3425,660.632,1383.979,660.6576L1383.9652,660.6576Q1385.1089,661.1585,1388.1417,665.5085L1388.1393,665.5085Q1388.8029,666.6048,1389.5303,670.38574L1389.5486,670.46985Q1389.7734,671.397,1389.6536,672.43207L1389.6416,672.63904L1389.6416,672.63904C1389.6416,672.6928,1389.6439,672.74634,1389.6487,672.7994L1389.6348,672.7994Q1389.3676,674.0741,1387.6511,679.90576L1387.6372,679.90576L1384.9712,685.11743L1384.9573,685.11743Q1381.7728,689.66876,1378.9373,691.0045L1378.9235,691.0045Q1374.0193,692.5047,1372.6785,692.696L1372.6785,692.696C1372.58,692.6671,1372.4779,692.6463,1372.3729,692.6344Q1365.9834,691.9107,1364.9133,690.7968C1364.8551,690.7362,1364.7926,690.6796,1364.7264,690.62775Q1361.8038,688.3343,1360.6237,684.76294L1360.623,684.76294Q1358.7533,678.5601,1358.7305,672.7008L1358.7323,672.7008Q1358.9733,666.76154,1359.5382,665.70966L1359.5376,665.70966C1359.5748,665.6501,1359.6089,665.58813,1359.6389,665.5246Q1363.2257,657.9445,1364.7317,657.1278L1364.718,657.1278C1364.9442,657.1018,1365.1637,657.0331,1365.365,656.92487Q1366.8193,656.1428,1369.0243,656.1428 Z M1372.8479,692.7496Q1373.8705,692.9332,1373.965,694.28455L1373.965,694.28455C1373.9113,693.58673,1373.4613,692.9982,1372.8341,692.7496 Z M1369.0295,652.5538Q1366.0908,652.5538,1363.9458,653.60736L1363.9321,653.60736Q1363.5977,653.68176,1363.2651,653.8372Q1360.5961,655.0848,1356.3848,663.9848L1356.3782,663.9848Q1355.4059,665.7875,1355.132,672.6359L1355.1306,672.71484Q1355.1554,679.0981,1357.1763,685.802L1357.1888,685.84204Q1358.7054,690.47906,1362.504,693.4599L1362.4915,693.4599Q1364.5239,695.3019,1371.3926,696.1438L1371.3789,696.1438Q1371.8073,696.3219,1372.4169,696.3219Q1372.4753,696.3219,1372.5354,696.32025L1372.5359,696.32025Q1372.6034,696.31836,1372.6744,696.3139L1372.6742,696.3139Q1374.2012,696.218,1380.1364,694.3982C1380.2113,694.3752,1380.2849,694.3472,1380.3562,694.31464Q1384.1797,692.5689,1388.037,686.99457C1388.0822,686.92926,1388.1232,686.8608,1388.1593,686.7901L1390.9515,681.3317C1391.0026,681.23206,1391.0441,681.1278,1391.0757,681.02045Q1393.0978,674.1541,1393.2458,673.039L1393.246,673.03864Q1393.2805,672.7782,1393.2738,672.5474L1393.2599,672.5474Q1393.3857,671.0793,1393.067,669.70557L1393.0654,669.70557Q1392.1877,665.14374,1391.1313,663.50415L1391.0948,663.44965Q1387.3301,658.0496,1385.1377,657.25104L1385.1376,657.251Q1384.6079,657.05804,1384.0948,657.05804Q1384.0333,657.05804,1383.9719,657.06085C1382.9789,657.10583,1382.2102,657.9473,1382.2551,658.9404C1382.2607,659.0641,1382.2787,659.18427,1382.3077,659.2998L1382.3077,659.2998Q1380.6875,655.26605,1375.5691,653.5727L1375.482,653.5464Q1371.882,652.5538,1369.0295,652.5538 Z"/>
</g>
<g style="fill:rgb(254,254,254); fill-opacity:1.0; stroke-linejoin: miter">
<path d="M1379.0559,782.69275Q1378.611,783.3122,1377.9052,783.3122L1377.8899,783.3122C1378.3402,783.2573,1378.7509,783.0346,1379.0421,782.69275 Z M1369.5278,805.8259Q1369.0745,806.5859,1368.2848,806.5859Q1367.9672,806.5859,1367.5952,806.463L1367.609,806.463C1367.7664,806.5065,1367.9274,806.52783,1368.0876,806.52783C1368.4872,806.52783,1368.8821,806.3949,1369.2052,806.13904C1369.322,806.0465,1369.4254,805.94116,1369.5142,805.8259 Z M1387.0726,782.9728Q1387.1814,782.9728,1387.2949,782.9759L1387.281,782.9759Q1393.3486,784.5192,1393.8683,785.7945L1393.8666,785.7945C1393.9014,785.95764,1393.9587,786.1152,1394.0369,786.2626Q1397.074,791.9891,1397.5248,795.56134L1397.5181,795.56134Q1397.6774,799.71094,1397.5806,800.4561L1397.5667,800.4561C1397.5569,800.4902,1397.5481,800.52454,1397.5404,800.5592Q1396.3833,805.747,1395.8656,807.57434L1395.8546,807.61487Q1395.0306,810.80566,1393.8988,812.2831L1393.8938,812.2831Q1390.6805,815.9518,1389.6449,816.58203L1389.631,816.58203C1389.5521,816.5904,1389.4738,816.604,1389.3962,816.62286L1383.7227,818.00226L1383.7227,818.00226L1382.2972,817.5616C1382.1245,817.50824,1381.9453,817.4813,1381.7656,817.4813C1381.6783,817.4813,1381.591,817.4877,1381.504,817.5004Q1380.7833,817.6063,1380.171,817.6063Q1379.1787,817.6063,1378.4711,817.3282C1378.424,817.3097,1378.376,817.2931,1378.3275,817.2786Q1376.1216,816.6201,1374.8469,815.35376C1374.7957,815.3028,1374.7413,815.255,1374.6843,815.2106Q1373.1715,814.03235,1371.5763,810.03937L1371.5743,810.03937Q1370.1613,805.962,1369.8943,804.89044L1369.8806,804.89044C1369.893,804.75464,1369.8899,804.6163,1369.8705,804.47797Q1369.3032,800.43054,1369.2572,795.0633L1369.2584,795.0633Q1369.4087,789.9926,1370.8938,787.4163L1370.8923,787.4163Q1373.2712,783.653,1377.6934,783.32825L1377.7072,783.32825Q1378.573,783.6111,1381.4083,784.8281L1381.3945,784.8281C1381.6444,785.198,1382.0315,785.4761,1382.5022,785.57874C1382.6315,785.60693,1382.7605,785.6205,1382.8876,785.6205C1382.9613,785.6205,1383.0344,785.6159,1383.1067,785.607L1383.1205,785.607Q1385.457,787.5282,1385.9006,788.3144L1385.8867,788.3144C1385.8765,789.06866,1386.3447,789.77795,1387.0964,790.039C1387.2919,790.1069,1387.4911,790.1391,1387.687,790.1391C1388.4321,790.1391,1389.129,789.6727,1389.3875,788.92883Q1389.6973,788.03613,1389.2787,787.0391L1389.2786,787.03894Q1388.6644,785.5767,1385.7736,783.1332L1385.7596,783.1332Q1386.293,782.9728,1387.0726,782.9728 Z M1387.0194,779.3716Q1383.6373,779.3716,1382.1356,781.2272L1382.1356,781.2272Q1379.0854,779.9387,1378.2832,779.75226L1378.2834,779.75226Q1377.932,779.67053,1377.6274,779.67053Q1377.279,779.67053,1376.9921,779.77747L1376.9783,779.77747Q1371.0775,780.3858,1367.8494,785.49274L1367.8186,785.54315Q1365.8275,788.9342,1365.658,795.0287L1365.6573,795.0942Q1365.7039,800.5194,1366.2677,804.7044L1366.254,804.7044Q1366.2437,804.9449,1366.2855,805.2078L1366.2856,805.2078Q1366.4517,806.2518,1368.1727,811.2182L1368.2006,811.293Q1370.1688,816.25024,1372.4634,818.0439L1372.4497,818.0439Q1374.3367,819.84424,1377.2977,820.7282L1377.2842,820.7282Q1378.5745,821.2049,1380.1783,821.2049Q1380.861,821.2049,1381.6003,821.1185L1381.6141,821.1185L1383.1338,821.5883C1383.3068,821.6418,1383.486,821.6686,1383.6653,821.6686C1383.808,821.6686,1383.9508,821.6516,1384.0907,821.6176L1389.9822,820.18524L1389.9683,820.18524Q1390.4922,820.1732,1391.0485,819.91034Q1392.6824,819.1383,1396.6829,814.56244L1396.7567,814.4723Q1398.325,812.4251,1399.3297,808.55554L1399.3292,808.55554Q1399.862,806.6743,1400.9987,801.5913L1400.9846,801.5913Q1401.0891,801.33356,1401.1357,801.0262L1401.1357,801.0262Q1401.2932,799.9887,1401.1093,795.2659C1401.1072,795.2138,1401.1031,795.1624,1401.0966,795.11066Q1400.5739,790.96844,1397.3488,784.82495L1397.3348,784.82495Q1397.2805,784.6286,1397.2023,784.4364L1397.2023,784.4362Q1395.987,781.4534,1387.9744,779.4379C1387.857,779.40845,1387.7373,779.3908,1387.6165,779.3854Q1387.3109,779.3716,1387.0194,779.3716 Z"/>
</g>
<g style="fill:rgb(254,254,254); fill-opacity:1.0; stroke-linejoin: miter">
<path d="M1317.6666,646.17737Q1317.1172,646.7259,1316.5364,646.7259Q1316.1132,646.7259,1315.6732,646.43463L1315.6864,646.43463C1315.9365,646.55676,1316.2062,646.61646,1316.4742,646.61646C1316.8993,646.61646,1317.3203,646.4665,1317.6534,646.17737 Z M1307.2913,635.6812C1306.5911,635.6812,1305.9253,636.09235,1305.634,636.7774C1305.2451,637.69226,1305.6714,638.7492,1306.5863,639.1382Q1308.7739,640.06824,1309.6229,640.73004L1309.6097,640.73004Q1313.3517,644.8283,1315.4432,646.2913C1315.4657,646.307,1315.4883,646.3221,1315.5112,646.3366L1315.498,646.3366Q1316.3557,647.30725,1320.2085,652.69214L1320.211,652.69214L1320.2886,652.796Q1321.6482,654.431,1324.8864,657.3698L1324.8864,657.3698Q1326.5161,658.8619,1328.7079,660.32513L1328.7833,660.37286Q1338.5376,666.2068,1339.6062,667.28394C1339.6799,667.3582,1339.7598,667.42584,1339.8452,667.4862Q1341.0745,668.3549,1346.1783,673.6366L1346.2434,673.70056Q1346.7445,674.16907,1347.4781,675.6466C1347.7926,676.2798,1348.4297,676.6465,1349.0917,676.6465C1349.3606,676.6465,1349.6337,676.586,1349.8909,676.45825C1350.7812,676.0161,1351.1447,674.9359,1350.7025,674.04553Q1349.7141,672.05524,1348.7692,671.135L1348.7672,671.135Q1343.7346,665.9271,1342.1082,664.683L1342.0947,664.683Q1340.5511,663.21844,1330.711,657.331L1330.7067,657.331Q1328.7404,656.01825,1327.312,654.70966L1327.3058,654.7039Q1324.3619,652.0323,1323.1433,650.5974L1323.1362,650.5974Q1318.7716,644.497,1317.8971,643.6358L1317.8971,643.6358Q1317.8169,643.5568,1317.7412,643.4922L1317.7412,643.4922Q1317.4904,643.2782,1317.2472,643.143L1317.234,643.143Q1315.4465,641.7961,1312.1404,638.16223C1312.0791,638.09485,1312.013,638.0324,1311.9421,637.9751Q1310.7174,636.9827,1307.9948,635.8252C1307.7649,635.7275,1307.5261,635.6812,1307.2913,635.6812 Z"/>
</g>
<g style="fill:rgb(254,254,254); fill-opacity:1.0; stroke-linejoin: miter">
<path d="M1312.8522,716.39954Q1312.8522,716.3996,1312.8522,716.39966L1312.8522,716.39954 Z M1347.063,678.69293C1346.6161,678.69293,1346.1685,678.85834,1345.8198,679.1914Q1342.0946,682.75055,1335.5546,691.04596L1335.5413,691.04596Q1331.3851,695.0668,1328.3195,698.6571L1328.3055,698.6571Q1323.0938,703.59644,1313.7778,709.4811C1313.6299,709.5745,1313.4963,709.689,1313.3815,709.82104Q1310.02,713.6826,1309.4767,715.1481L1309.4767,715.14795Q1309.2985,715.62866,1309.2966,716.0694L1309.2965,716.07025C1309.293,717.06433,1310.0961,717.8731,1311.0902,717.87665C1311.0924,717.87665,1311.0946,717.87665,1311.0968,717.87665C1311.9845,717.87665,1312.723,717.2336,1312.8699,716.3873L1312.8568,716.3873Q1313.177,715.5546,1315.9088,712.4012L1315.8956,712.4012Q1325.5009,706.3161,1330.9318,701.12744C1330.9758,701.0854,1331.0177,701.0411,1331.0573,700.99475Q1334.0638,697.4734,1338.1854,693.4968C1338.2441,693.4401,1338.2988,693.3798,1338.3494,693.3157Q1344.7555,685.18713,1348.3066,681.79443C1349.0254,681.1077,1349.0515,679.9683,1348.3647,679.2495C1348.0111,678.87933,1347.5374,678.69293,1347.063,678.69293 Z"/>
</g>
<g style="fill:rgb(254,254,254); fill-opacity:1.0; stroke-linejoin: miter">
<path d="M1311.1511,665.2657C1311.393,665.3824,1311.66,665.44464,1311.933,665.44464C1311.9961,665.44464,1312.0594,665.44135,1312.1228,665.43463L1312.136,665.43463Q1311.994,665.4537,1311.8624,665.4537Q1311.4492,665.4537,1311.138,665.2657 Z M1298.9623,643.72375C1298.3115,643.72375,1297.6832,644.0779,1297.3629,644.69556Q1295.8274,647.6567,1298.5343,651.86255C1298.567,651.9133,1298.602,651.9622,1298.6396,652.00946L1302.0438,656.28546C1302.1451,656.4128,1302.2633,656.52576,1302.395,656.62134Q1307.256,660.1477,1310.4637,664.68384C1310.6049,664.88336,1310.7819,665.048,1310.9817,665.1724L1310.9685,665.1724Q1312.2404,666.834,1318.1042,678.563C1318.1719,678.6982,1318.2562,678.82434,1318.3553,678.9385Q1326.0754,687.8259,1329.0729,692.9224C1329.1073,692.98083,1329.1447,693.0371,1329.1854,693.0913Q1331.4026,696.0413,1336.5492,707.5353C1336.5936,707.6345,1336.647,707.72943,1336.7085,707.81903Q1342.3865,716.0826,1347.1483,724.3172L1347.1349,724.3172Q1349.2805,730.81915,1355.3346,740.49835L1355.3912,740.5834Q1359.3181,746.1342,1363.8826,751.2804L1363.869,751.2804L1374.2018,768.6926C1374.5381,769.25946,1375.137,769.57434,1375.7515,769.57434C1376.0638,769.57434,1376.3802,769.493,1376.6683,769.322C1377.5232,768.8147,1377.805,767.7104,1377.2977,766.85547L1366.8497,749.24915C1366.7913,749.1506,1366.7235,749.05786,1366.6473,748.97217Q1362.2087,743.97675,1358.3904,738.5893L1358.3868,738.5893Q1352.4585,729.1109,1350.4839,722.9752C1350.4448,722.85376,1350.393,722.7369,1350.3291,722.6264Q1345.5265,714.3107,1339.8068,705.9715L1339.7933,705.9715Q1334.6458,694.4838,1332.188,691.09735L1332.1759,691.09735Q1329.0466,685.7767,1321.2538,676.7858L1321.2406,676.7858Q1314.9166,664.1451,1313.5062,662.5985L1313.5063,662.5985Q1313.359,662.43695,1313.2048,662.30975L1313.1918,662.30975Q1309.7721,657.5771,1304.7405,653.87646L1304.7274,653.87646L1301.456,649.7673L1301.468,649.7673Q1300.0007,647.42883,1300.5587,646.3528C1301.0164,645.4703,1300.672,644.38385,1299.7894,643.9262C1299.5245,643.7889,1299.2413,643.72375,1298.9623,643.72375 Z"/>
</g>
<g style="fill:rgb(254,254,254); fill-opacity:1.0; stroke-linejoin: miter">
<path d="M1357.6292,793.49963C1356.6934,793.49963,1355.9033,794.2234,1355.8356,795.1713Q1355.7666,796.1354,1355.6276,796.4813L1355.614,796.4813Q1354.2646,797.7259,1350.9935,802.447L1350.98,802.447Q1348.2291,805.0062,1334.9747,821.3877L1334.9636,821.3877L1322.3857,834.2585L1322.3854,834.2585Q1320.403,836.22815,1320.0996,838.79376C1319.9829,839.781,1320.6886,840.6759,1321.6758,840.79266C1321.7476,840.80115,1321.8188,840.8053,1321.8894,840.8053C1322.7891,840.8053,1323.5667,840.13196,1323.6748,839.2165Q1323.8318,837.8889,1324.9375,836.79767L1324.9604,836.7746L1337.6614,823.77795C1337.7007,823.7378,1337.7379,823.6958,1337.7733,823.6521Q1351.4268,806.7774,1353.5396,804.98627C1353.66,804.88416,1353.7665,804.7667,1353.8917,804.5835L1353.8937,804.58044L1353.895,804.58044Q1357.2318,799.75726,1358.057,799.1226L1358.0568,799.1226C1358.1613,799.0471,1358.2573,798.9607,1358.3435,798.86456Q1358.5864,798.5935,1358.772,798.24536L1358.7719,798.24536Q1359.2952,797.2637,1359.4264,795.42804C1359.4973,794.43646,1358.7509,793.57513,1357.7593,793.5043C1357.7156,793.50116,1357.6722,793.49963,1357.6292,793.49963 Z"/>
</g>
<g style="fill:rgb(254,254,254); fill-opacity:1.0; stroke-linejoin: miter">
<path d="M1314.2347,743.0473Q1314.2106,743.0473,1314.1865,743.04755C1313.1925,743.0573,1312.3945,743.8711,1312.4043,744.8652C1312.4141,745.8532,1313.218,746.64746,1314.2039,746.64746C1314.2098,746.64746,1314.216,746.64746,1314.2219,746.6474Q1314.2317,746.6473,1314.2416,746.6473Q1316.0316,746.6473,1319.5728,749.8179L1319.5652,749.8179Q1324.8099,755.3159,1333.1993,765.98395L1333.2524,766.0483Q1334.855,767.9025,1342.2622,775.372L1342.2561,775.372Q1344.3113,777.7213,1349.7354,780.01807L1349.7218,780.01807Q1350.4629,780.5601,1351.5295,781.69403L1351.5791,781.7447Q1352.9916,783.1324,1352.7222,784.13116C1352.4634,785.091,1353.0316,786.0789,1353.9915,786.33777C1354.1484,786.38007,1354.3062,786.4003,1354.4613,786.4003C1355.2549,786.4003,1355.9816,785.8714,1356.198,785.06854Q1357.0078,782.06555,1354.1533,779.22736L1354.1516,779.22736Q1352.6998,777.6841,1351.5895,776.9308C1351.4907,776.86383,1351.3857,776.8068,1351.2758,776.7607Q1346.4075,774.71704,1344.9177,772.94586C1344.886,772.9082,1344.853,772.8721,1344.8184,772.8371Q1337.6278,765.58606,1336.032,763.7586L1336.0292,763.7586Q1327.4584,752.85974,1322.074,747.2325C1322.0419,747.199,1322.0087,747.1668,1321.9741,747.13586Q1317.4077,743.0473,1314.2347,743.0473 Z"/>
</g>
<g style="fill:rgb(254,254,254); fill-opacity:1.0; stroke-linejoin: miter">
<path d="M1365.4675,703.7847C1364.9113,703.7847,1364.3627,704.0418,1364.0104,704.5261Q1361.3942,708.1233,1358.3732,714.53314C1358.3329,714.6186,1358.2993,714.70715,1358.273,714.79785Q1357.0562,718.98126,1344.4293,743.23816L1344.4232,743.23816L1334.0647,759.903C1334.0103,759.99054,1333.9635,760.0826,1333.9248,760.1781Q1329.8026,770.365,1322.0208,785.68744C1321.9847,785.7583,1321.9535,785.8315,1321.9271,785.9065L1318.4644,795.77405L1318.4512,795.77405Q1312.3901,807.62787,1309.403,817.05804L1309.3899,817.05804L1302.3927,830.5249C1301.9343,831.40704,1302.2778,832.4937,1303.16,832.9521C1303.4253,833.0899,1303.7089,833.1552,1303.9884,833.1552C1304.6388,833.1552,1305.2667,832.80164,1305.5873,832.1847L1312.69,818.51483C1312.7379,818.4224,1312.7778,818.3261,1312.8092,818.2268Q1315.7291,808.97687,1321.753,797.2243C1321.7904,797.1515,1321.8226,797.0765,1321.8497,796.99927L1325.255,787.2952L1325.2418,787.2952Q1333.0074,772.00336,1337.1786,761.73413L1337.1652,761.73413L1347.5547,745.01953C1347.5789,744.9807,1347.6016,744.9409,1347.6227,744.9004Q1360.1055,720.9203,1361.6597,716.03284L1361.646,716.03284Q1364.5125,709.95624,1366.9218,706.64355C1367.5065,705.8396,1367.3287,704.71387,1366.5248,704.12915C1366.2052,703.89667,1365.8347,703.7847,1365.4675,703.7847 Z"/>
</g>
<g style="fill:rgb(254,254,254); fill-opacity:1.0; stroke-linejoin: miter">
<path d="M1488.4287,681.33203C1488.6074,681.6422,1488.874,681.89,1489.19,682.04675L1489.19,682.04675Q1488.6713,681.8192,1488.4138,681.33105 Z M1491.4337,681.52856Q1490.9773,682.3002,1490.0109,682.23694Q1489.9932,682.2358,1489.9753,682.2344L1489.9604,682.2334C1490.0049,682.2341,1490.0497,682.23303,1490.0946,682.2304C1490.6327,682.1987,1491.1088,681.9313,1491.4181,681.5275 Z M1472.6892,665.00354Q1474.004,665.08966,1475.201,665.41547L1475.1863,665.4145Q1476.462,665.91956,1478.0294,667.6293L1478.0146,667.6283C1478.0005,667.6848,1477.989,667.74255,1477.9802,667.8014C1477.8927,668.3878,1478.0984,668.9503,1478.4873,669.33997L1478.4727,669.339C1478.1002,669.9413,1478.1049,670.7335,1478.5461,671.3425Q1478.6276,671.4551,1478.7123,671.5565L1478.7122,671.5565Q1479.519,672.522,1480.3931,672.5791Q1481.095,672.62506,1481.8401,672.0852L1481.8402,672.0852Q1482.2969,671.75464,1482.6124,671.18713L1482.6122,671.18713Q1482.6837,671.0586,1482.7493,670.9157C1482.7961,670.8135,1482.8333,670.70734,1482.8605,670.59814L1482.8752,670.5991Q1484.2148,671.0496,1484.7831,671.6398L1484.7683,671.6388Q1487.5645,675.9556,1488.194,679.59875C1488.204,679.65625,1488.2167,679.7129,1488.2319,679.7691L1488.2256,679.7687Q1488.2305,679.8468,1488.223,679.97217L1488.2084,679.9712Q1487.846,681.04016,1486.2925,688.14124L1486.2777,688.14026L1483.8971,692.3694L1483.8883,692.36884Q1483.6178,692.7425,1483.3235,692.93225L1483.2976,692.9492Q1479.8606,695.24963,1475.6616,695.74725L1475.6471,695.7463Q1472.7513,695.78906,1470.2788,695.6273Q1466.6647,695.3909,1463.9546,694.7175L1463.94,694.71655Q1462.6243,694.2838,1459.7877,690.8938L1459.7732,690.8929Q1458.63,688.67145,1457.9661,684.4282L1457.9602,684.42786Q1457.0026,671.54004,1463.4542,666.76263L1463.4397,666.76166Q1468.6267,664.73785,1472.6892,665.00354 Z M1472.9272,661.41144Q1467.9856,661.08826,1461.9406,663.48285C1461.8064,663.536,1461.6791,663.6052,1461.5614,663.6887Q1453.248,669.5916,1454.3702,684.6946C1454.3738,684.7416,1454.3789,684.7878,1454.3861,684.8343Q1455.1631,689.8979,1456.6555,692.69946C1456.7128,692.807,1456.7809,692.9084,1456.8585,693.0021Q1460.5038,697.3986,1462.8586,698.15045L1462.9641,698.1806Q1466.0237,698.9557,1470.0535,699.21924Q1472.7242,699.39404,1475.8213,699.3441C1475.8801,699.34314,1475.9387,699.33936,1475.9972,699.3327Q1481.0918,698.7492,1485.2744,695.9578L1485.274,695.9578Q1486.2421,695.3339,1486.9637,694.2503C1486.9888,694.21295,1487.0121,694.1746,1487.034,694.13556L1489.5719,689.6275C1489.6597,689.4715,1489.7238,689.3034,1489.762,689.1286Q1491.1758,682.6562,1491.5419,681.3694L1491.5271,681.3684C1491.6602,681.14954,1491.7484,680.8996,1491.7781,680.631Q1491.8694,679.8029,1491.785,679.2132L1491.785,679.2135Q1491.7684,679.09674,1491.7448,678.98584L1491.7412,678.9856Q1490.9717,674.53217,1487.6649,669.4896C1487.6139,669.4117,1487.5565,669.3377,1487.4939,669.26855Q1485.8953,667.50287,1481.9126,666.6305L1481.898,666.6295Q1478.9983,662.97455,1476.3351,662.0C1476.289,661.98315,1476.242,661.96814,1476.1948,661.9552Q1474.6262,661.5227,1472.9272,661.41144 Z"/>
</g>
<g style="fill:rgb(254,254,254); fill-opacity:1.0; stroke-linejoin: miter">
<path d="M1476.2573,785.0568Q1474.8644,784.9657,1473.6511,785.41016C1473.6107,785.425,1473.5707,785.4413,1473.5314,785.4589Q1467.7444,788.0649,1466.1442,789.0371L1466.1294,789.0362Q1461.6638,791.223,1459.3477,796.8326L1459.3451,796.83875Q1455.6667,805.8404,1455.8652,808.21277L1455.8654,808.21277Q1455.8893,808.50104,1455.9581,808.75745L1455.9436,808.75653Q1456.0453,812.15216,1457.6964,816.776C1457.7408,816.9007,1457.7988,817.01984,1457.8695,817.1317Q1460.1449,820.73517,1462.3518,822.25446C1462.4601,822.32886,1462.576,822.39124,1462.6978,822.44055Q1464.3002,823.0882,1467.0743,825.0635C1467.1469,825.1151,1467.2231,825.1614,1467.3025,825.2018Q1468.5789,825.8506,1470.1279,826.10187L1470.1667,826.1076Q1473.3423,826.5523,1475.8353,826.71533Q1482.025,827.1203,1484.0083,825.7902L1483.9934,825.78925Q1488.0828,824.0868,1489.9528,820.9604C1489.9905,820.89746,1490.0242,820.8321,1490.054,820.7651Q1493.1611,813.7467,1493.6582,809.33966L1493.6489,809.33905Q1494.6824,804.4633,1493.1183,798.3942L1493.1035,798.39325Q1493.0972,798.1692,1493.054,797.9301L1493.0538,797.92975Q1492.7273,796.125,1489.2114,790.84247C1488.8883,790.3568,1488.3698,790.07886,1487.8291,790.0434C1487.4487,790.0185,1487.0575,790.11383,1486.7156,790.3413C1485.8881,790.8921,1485.6637,792.0095,1486.2145,792.8371Q1489.3175,797.4993,1489.5111,798.5703L1489.4996,798.5695C1489.5009,798.72125,1489.5214,798.87256,1489.5607,799.0198Q1491.0076,804.4381,1490.1273,808.5927C1490.1138,808.6563,1490.1039,808.72003,1490.0973,808.7847Q1489.706,812.652,1486.7733,819.28235L1486.7584,819.2814Q1485.4495,821.3201,1482.463,822.5259C1482.2842,822.598,1482.1183,822.6984,1481.9713,822.8233L1481.9707,822.82324Q1481.0352,823.4987,1476.9207,823.2297Q1474.408,823.06525,1470.7102,822.54865L1470.7045,822.5483Q1469.8042,822.4022,1469.0841,822.0658L1469.0693,822.0648Q1466.1929,820.0253,1464.2828,819.2015L1464.2681,819.2005Q1462.7809,818.1161,1461.0513,815.4261L1461.0367,815.4251Q1459.5576,811.2367,1459.5372,808.39276C1459.5361,808.2277,1459.5123,808.0641,1459.4667,807.9063L1459.452,807.90533Q1459.3346,806.38226,1462.675,798.2064L1462.675,798.2064Q1464.5029,793.77966,1467.833,792.2115C1467.8916,792.1839,1467.9486,792.15314,1468.0039,792.1194Q1469.3851,791.2763,1474.8999,788.79114L1474.89,788.79047Q1475.3875,788.60815,1476.0287,788.6501Q1476.3578,788.67163,1476.725,788.7522L1476.7194,788.75183Q1481.0359,789.86414,1480.898,793.8242C1480.8641,794.79895,1481.6117,795.6196,1482.5784,795.68286C1482.5969,795.684,1482.6156,795.68494,1482.6342,795.6856C1483.6278,795.7204,1484.4613,794.94305,1484.4958,793.9495Q1484.7357,787.0626,1477.5515,785.2489L1477.497,785.236Q1476.8604,785.09625,1476.2573,785.0568 Z"/>
</g>
<g style="fill:rgb(254,254,254); fill-opacity:1.0; stroke-linejoin: miter">
<path d="M1410.082,694.05884C1409.7861,694.0395,1409.4812,694.0932,1409.1942,694.22943C1408.2961,694.6558,1407.9138,695.7295,1408.3401,696.62744L1414.389,709.3683L1414.4166,709.4239Q1414.4491,709.48663,1414.4883,709.55426L1414.4891,709.5559Q1415.0295,710.4852,1418.9243,715.2274C1418.9812,715.2967,1419.043,715.3615,1419.1095,715.4216Q1427.2318,722.74915,1430.2428,727.272L1430.2352,727.2715L1433.4308,733.07684C1433.4764,733.1598,1433.5286,733.23914,1433.5868,733.3139Q1442.9556,745.3596,1445.8438,750.5221L1445.8396,750.52185L1452.0204,763.42926L1452.0498,763.48804Q1453.4148,766.09,1460.2345,772.6313L1460.22,772.6303C1460.2279,772.88574,1460.2908,773.1434,1460.414,773.3863C1460.7123,773.9747,1461.2898,774.32855,1461.9036,774.3687C1462.2147,774.3891,1462.5353,774.32874,1462.8335,774.1775Q1463.125,774.0296,1463.3547,773.81213L1463.3558,773.81116Q1464.7064,772.5305,1463.483,770.8472L1463.483,770.8472Q1463.3258,770.631,1463.1119,770.40515L1463.0482,770.3412Q1456.4514,764.0429,1455.2693,761.8746L1455.2671,761.87445L1449.0378,748.8658L1448.9854,748.76434Q1445.9852,743.402,1436.563,731.27686L1436.5487,731.27594L1433.3179,725.4064C1433.2935,725.3622,1433.2673,725.3189,1433.2394,725.27686Q1430.0079,720.42255,1421.6733,712.886L1421.6593,712.8851Q1418.1799,708.64777,1417.6498,707.8248L1417.6411,707.8242L1411.592,695.0834C1411.3019,694.47235,1410.7122,694.1001,1410.082,694.05884 Z"/>
</g>
<g style="fill:rgb(254,254,254); fill-opacity:1.0; stroke-linejoin: miter">
<path d="M1454.2354,707.47406L1454.2354,707.4741L1454.2354,707.4741Q1454.2354,707.4741,1454.2354,707.47406 Z M1427.3187,747.86615C1427.3794,748.37305,1427.6542,748.8502,1428.1112,749.15344Q1427.2977,748.6138,1427.3044,747.8652 Z M1457.6848,702.1661C1456.9105,702.1155,1456.1628,702.5736,1455.8799,703.3386Q1454.5197,707.017,1454.0974,707.6236L1454.09,707.6231C1454.0726,707.6431,1454.0557,707.66345,1454.0392,707.6842L1442.7437,721.91547C1442.6981,721.97296,1442.6559,722.0331,1442.6178,722.09576L1427.5702,746.71454C1427.3878,747.0129,1427.3025,747.34406,1427.306,747.67065L1427.2919,747.66974Q1426.2913,750.2809,1415.6569,767.93445C1415.6211,767.994,1415.5886,768.0556,1415.5599,768.1189Q1412.1493,775.6285,1408.1724,782.81146L1408.172,782.81146Q1405.3523,787.72656,1406.0559,790.16956L1406.0559,790.16956Q1406.1742,790.57965,1406.3809,790.93475L1406.3811,790.935C1406.6943,791.47253,1407.2432,791.7876,1407.8206,791.8254C1408.1658,791.8479,1408.5211,791.7715,1408.8424,791.58417C1409.6846,791.09344,1409.9803,790.0244,1409.5201,789.17346L1409.5153,789.17316Q1409.2323,788.191,1411.308,784.5804L1411.3221,784.5552Q1415.3191,777.3353,1418.7535,769.793L1418.7408,769.7922Q1430.1473,750.8565,1430.8323,748.4251L1430.8323,748.4251Q1430.8613,748.322,1430.8829,748.2225L1430.8687,748.22156L1445.6321,724.06726L1456.8591,709.92224L1456.8654,709.92267Q1456.961,709.8111,1457.0522,709.6803L1457.0527,709.6797Q1457.737,708.69617,1459.2566,704.58716C1459.6012,703.6547,1459.1248,702.6194,1458.1923,702.27454C1458.025,702.2127,1457.8542,702.1772,1457.6848,702.1661 Z"/>
</g>
<g style="fill:rgb(254,254,254); fill-opacity:1.0; stroke-linejoin: miter">
<path d="M1441.3312,674.5313Q1441.208,674.52325,1441.0846,674.5192L1441.0719,674.5189L1437.6937,674.43176L1437.6929,674.43176Q1437.3593,674.4206,1436.2607,674.34875Q1435.6807,674.3108,1434.8873,674.2559L1434.884,674.2557Q1434.8591,674.25366,1434.8329,674.25195Q1434.8231,674.2513,1434.8132,674.25073L1434.811,674.25055Q1434.5052,674.23267,1433.5187,674.2451L1433.5127,674.2447Q1432.8137,674.24536,1429.5432,674.55975L1429.5337,674.55914L1426.156,674.759L1426.1173,674.7616Q1425.1063,674.8434,1424.1803,674.9702L1424.1313,674.9776L1418.67,675.8794C1418.6254,675.8868,1418.5812,675.8959,1418.5372,675.9066L1414.5757,676.872L1414.5615,676.8711Q1413.8,676.99054,1413.5603,676.9902L1413.5603,676.9902C1413.549,676.9892,1413.5375,676.9884,1413.5261,676.9877C1412.566,676.9248,1411.7201,677.6319,1411.6195,678.59705C1411.5164,679.5858,1412.2343,680.47095,1413.2222,680.57416Q1413.2747,680.57965,1413.3298,680.58325Q1413.4058,680.5882,1413.4866,680.5896L1413.487,680.58954Q1414.0537,680.59894,1415.252,680.4066C1415.2991,680.3991,1415.3463,680.38947,1415.3928,680.3782L1419.3235,679.4202L1424.7177,678.5294L1424.7214,678.52966Q1425.5076,678.4235,1426.3718,678.35284L1426.3685,678.3526L1429.8218,678.1483L1429.8878,678.1432Q1433.0438,677.8397,1433.5062,677.84454L1433.5084,677.84454L1433.5079,677.84454L1433.564,677.84467Q1434.4017,677.83417,1434.5914,677.84393L1434.6058,677.84485L1434.6196,677.84595Q1435.3936,677.8995,1435.9772,677.9377Q1437.2069,678.0181,1437.5908,678.0303L1437.6011,678.0306L1440.9791,678.1177L1440.9825,678.1179Q1441.0397,678.12,1441.0967,678.1237Q1441.2334,678.1326,1441.3701,678.15106L1441.4331,678.15826Q1442.3054,678.24414,1444.0831,679.22363C1444.3219,679.3552,1444.5778,679.4269,1444.833,679.44354C1445.5082,679.48773,1446.1802,679.1476,1446.5282,678.51575C1447.008,677.645,1446.6912,676.5503,1445.8204,676.07056Q1443.453,674.76605,1441.8632,674.584L1441.849,674.583Q1441.5903,674.5483,1441.3312,674.5313 Z"/>
</g>
<g style="fill:rgb(254,254,254); fill-opacity:1.0; stroke-linejoin: miter">
<path d="M1428.5961,801.34686C1428.3894,801.4168,1428.1976,801.52356,1428.0297,801.66144L1428.0201,801.6608Q1428.2753,801.4397,1428.5818,801.34595 Z M1419.5627,802.57306L1419.5627,802.57306C1419.2854,802.7606,1419.0634,803.0236,1418.9255,803.33514C1418.7568,803.7165,1418.7268,804.1422,1418.8358,804.53973L1418.8358,804.53973Q1418.4478,803.1671,1419.5485,802.57214 Z M1441.3033,799.2609C1440.8451,799.231,1440.3755,799.3753,1440.0022,799.7012Q1439.4786,800.15814,1439.2135,800.2911L1439.1991,800.2901Q1437.374,800.19147,1436.2675,800.31274L1436.266,800.3126Q1431.9674,800.7131,1428.8505,801.28107C1428.815,801.2875,1428.7797,801.29504,1428.7448,801.30365L1428.7305,801.30273Q1428.0763,801.3627,1424.9835,801.4622L1424.8857,801.4681Q1423.5465,801.5842,1422.1583,801.83356L1422.1206,801.84076Q1420.5825,802.1509,1419.9736,802.3658L1419.8744,802.4042L1419.8744,802.4042C1419.7932,802.43823,1419.7151,802.4781,1419.6406,802.52313L1419.6265,802.5222Q1418.4282,802.959,1410.7847,805.14996C1409.8291,805.42395,1409.2762,806.4206,1409.5505,807.37646C1409.7656,808.127,1410.4266,808.6289,1411.1632,808.67706C1411.3646,808.69025,1411.5715,808.6695,1411.7767,808.6107Q1420.1746,806.2035,1421.1655,805.78485L1421.1655,805.78485Q1421.2351,805.75543,1421.3007,805.72437L1421.2865,805.72345Q1421.7073,805.59717,1422.7959,805.3769L1422.7944,805.37683Q1423.9841,805.1632,1425.1245,805.06085L1425.1104,805.0599Q1428.663,804.9456,1429.3053,804.8604L1429.305,804.8604Q1429.423,804.84485,1429.5336,804.81934L1429.5192,804.81836Q1432.4854,804.2796,1436.6301,803.89435L1436.6595,803.89136Q1437.5308,803.79584,1439.2095,803.89667L1439.27,803.8993Q1439.7902,803.9129,1440.3367,803.71893L1440.3368,803.7189Q1441.2423,803.3974,1442.3698,802.41315C1443.1189,801.75946,1443.1957,800.62225,1442.5417,799.8733C1442.2139,799.49774,1441.7645,799.29114,1441.3033,799.2609 Z"/>
</g>
</g>
</svg>