<?xml version="1.0" encoding="UTF-8" standalone="yes"?>
<svg xmlns="http://www.w3.org/2000/svg" xmlns:xlink="http://www.w3.org/1999/xlink" width="388.871pt" height="328.058pt" version="1.1" viewBox="-179.915 604.626 388.871 328.058">
  <!--
	Exported with Concepts: Smarter Sketching
	Version: 2024.11 on Android 13
	https://concepts.app/
	-->
  <title>NNS Network</title>
  <desc>Drawing exported from Concepts: Smarter Sketching</desc>
  <defs></defs>
  <g id="Pen" opacity="1.000">
    <path id="STROKE_19d16763-1bac-461a-b9ea-036007732e5d" opacity="1.000" fill="none" stroke="#f9f9f1" stroke-width="2.515" stroke-opacity="1.000" stroke-linecap="round" stroke-linejoin="round" d="M -119.377 637.529 Q -119.376 637.828 -119.382 638.128 Q -119.389 638.427 -119.401 638.727 Q -119.414 639.026 -119.434 639.325 Q -119.454 639.624 -119.480 639.922 Q -119.506 640.221 -119.539 640.519 Q -119.572 640.816 -119.612 641.113 Q -119.652 641.410 -119.699 641.706 Q -119.745 642.002 -119.798 642.297 Q -119.852 642.592 -119.911 642.886 Q -119.971 643.179 -120.038 643.471 Q -120.104 643.763 -120.177 644.054 Q -120.250 644.345 -120.330 644.634 Q -120.410 644.922 -120.496 645.209 Q -120.582 645.496 -120.674 645.781 Q -120.767 646.066 -120.866 646.349 Q -120.965 646.632 -121.070 646.912 Q -121.176 647.193 -121.287 647.471 Q -121.399 647.749 -121.517 648.024 Q -121.635 648.300 -121.759 648.572 Q -121.883 648.845 -122.013 649.115 Q -122.144 649.385 -122.280 649.652 Q -122.416 649.918 -122.559 650.182 Q -122.701 650.446 -122.849 650.706 Q -122.997 650.967 -123.151 651.224 Q -123.306 651.480 -123.465 651.734 Q -123.625 651.987 -123.791 652.237 Q -123.956 652.487 -124.127 652.733 Q -124.299 652.979 -124.475 653.221 Q -124.652 653.463 -124.834 653.701 Q -125.016 653.939 -125.203 654.172 Q -125.391 654.406 -125.584 654.636 Q -125.776 654.865 -125.974 655.090 Q -126.172 655.315 -126.375 655.536 Q -126.577 655.756 -126.785 655.972 Q -126.993 656.188 -127.205 656.399 Q -127.418 656.610 -127.635 656.817 Q -127.853 657.023 -128.074 657.224 Q -128.296 657.426 -128.523 657.622 Q -128.749 657.818 -128.980 658.009 Q -129.211 658.200 -129.446 658.386 Q -129.681 658.572 -129.920 658.753 Q -130.159 658.933 -130.402 659.108 Q -130.645 659.283 -130.893 659.453 Q -131.140 659.622 -131.390 659.786 Q -131.641 659.950 -131.896 660.108 Q -132.150 660.266 -132.408 660.418 Q -132.666 660.571 -132.928 660.717 Q -133.189 660.864 -133.454 661.004 Q -133.718 661.145 -133.986 661.279 Q -134.254 661.414 -134.524 661.542 Q -134.795 661.671 -135.069 661.793 Q -135.342 661.915 -135.618 662.031 Q -135.895 662.147 -136.173 662.257 Q -136.452 662.367 -136.733 662.471 Q -137.015 662.574 -137.298 662.671 Q -137.581 662.768 -137.867 662.859 Q -138.153 662.950 -138.440 663.034 Q -138.728 663.118 -139.017 663.196 Q -139.306 663.273 -139.598 663.344 Q -139.889 663.415 -140.181 663.480 Q -140.474 663.544 -140.768 663.602 Q -141.062 663.660 -141.357 663.711 Q -141.652 663.763 -141.948 663.807 Q -142.245 663.852 -142.542 663.890 Q -142.839 663.927 -143.137 663.959 Q -143.435 663.990 -143.734 664.014 Q -144.032 664.038 -144.332 664.056 Q -144.631 664.074 -144.930 664.084 Q -145.230 664.095 -145.529 664.099 Q -145.829 664.103 -146.128 664.101 Q -146.428 664.098 -146.727 664.089 Q -147.027 664.079 -147.326 664.063 Q -147.625 664.047 -147.924 664.024 Q -148.223 664.001 -148.521 663.971 Q -148.819 663.941 -149.116 663.905 Q -149.414 663.868 -149.710 663.825 Q -150.007 663.782 -150.302 663.732 Q -150.598 663.682 -150.892 663.626 Q -151.186 663.569 -151.479 663.506 Q -151.772 663.443 -152.063 663.373 Q -152.355 663.303 -152.644 663.227 Q -152.934 663.151 -153.222 663.068 Q -153.510 662.985 -153.796 662.895 Q -154.082 662.806 -154.366 662.710 Q -154.650 662.615 -154.932 662.512 Q -155.213 662.410 -155.492 662.302 Q -155.772 662.193 -156.048 662.078 Q -156.325 661.963 -156.599 661.842 Q -156.873 661.721 -157.145 661.594 Q -157.416 661.467 -157.684 661.334 Q -157.953 661.200 -158.218 661.061 Q -158.483 660.922 -158.745 660.776 Q -159.007 660.631 -159.266 660.480 Q -159.525 660.329 -159.780 660.172 Q -160.035 660.015 -160.287 659.852 Q -160.538 659.690 -160.786 659.521 Q -161.034 659.353 -161.278 659.179 Q -161.522 659.005 -161.762 658.826 Q -162.002 658.646 -162.238 658.461 Q -162.474 658.277 -162.705 658.087 Q -162.937 657.897 -163.164 657.701 Q -163.392 657.506 -163.614 657.306 Q -163.837 657.106 -164.055 656.900 Q -164.274 656.695 -164.487 656.485 Q -164.701 656.275 -164.909 656.060 Q -165.118 655.845 -165.322 655.625 Q -165.526 655.406 -165.725 655.181 Q -165.924 654.957 -166.117 654.729 Q -166.311 654.500 -166.499 654.267 Q -166.688 654.034 -166.871 653.797 Q -167.054 653.560 -167.232 653.319 Q -167.410 653.078 -167.582 652.832 Q -167.754 652.587 -167.921 652.338 Q -168.088 652.089 -168.249 651.837 Q -168.410 651.584 -168.565 651.328 Q -168.720 651.071 -168.870 650.812 Q -169.019 650.552 -169.163 650.289 Q -169.306 650.026 -169.444 649.760 Q -169.581 649.494 -169.713 649.224 Q -169.844 648.955 -169.969 648.683 Q -170.095 648.411 -170.214 648.136 Q -170.333 647.861 -170.446 647.584 Q -170.559 647.306 -170.666 647.026 Q -170.772 646.746 -170.873 646.464 Q -170.973 646.181 -171.067 645.897 Q -171.161 645.612 -171.248 645.326 Q -171.336 645.039 -171.417 644.751 Q -171.497 644.462 -171.572 644.172 Q -171.646 643.882 -171.714 643.590 Q -171.782 643.298 -171.843 643.005 Q -171.904 642.711 -171.959 642.417 Q -172.013 642.122 -172.061 641.826 Q -172.109 641.531 -172.150 641.234 Q -172.192 640.937 -172.226 640.639 Q -172.261 640.342 -172.288 640.043 Q -172.316 639.745 -172.337 639.446 Q -172.358 639.147 -172.372 638.848 Q -172.386 638.549 -172.394 638.249 Q -172.401 637.950 -172.402 637.650 Q -172.403 637.350 -172.397 637.051 Q -172.391 636.751 -172.378 636.452 Q -172.365 636.153 -172.345 635.854 Q -172.326 635.555 -172.299 635.256 Q -172.273 634.958 -172.240 634.660 Q -172.207 634.362 -172.167 634.065 Q -172.127 633.768 -172.080 633.472 Q -172.034 633.176 -171.981 632.881 Q -171.928 632.587 -171.868 632.293 Q -171.808 631.999 -171.741 631.707 Q -171.675 631.415 -171.602 631.125 Q -171.529 630.834 -171.449 630.545 Q -171.370 630.256 -171.283 629.969 Q -171.197 629.682 -171.105 629.397 Q -171.012 629.112 -170.913 628.830 Q -170.814 628.547 -170.709 628.266 Q -170.603 627.986 -170.492 627.708 Q -170.380 627.430 -170.262 627.154 Q -170.144 626.879 -170.020 626.606 Q -169.896 626.333 -169.766 626.064 Q -169.635 625.794 -169.499 625.527 Q -169.363 625.260 -169.221 624.996 Q -169.078 624.733 -168.930 624.472 Q -168.782 624.212 -168.628 623.955 Q -168.474 623.698 -168.314 623.445 Q -168.154 623.191 -167.988 622.942 Q -167.823 622.692 -167.652 622.446 Q -167.481 622.200 -167.304 621.958 Q -167.127 621.716 -166.945 621.478 Q -166.763 621.240 -166.576 621.006 Q -166.388 620.772 -166.196 620.543 Q -166.003 620.313 -165.805 620.088 Q -165.607 619.863 -165.405 619.643 Q -165.202 619.422 -164.994 619.206 Q -164.786 618.990 -164.574 618.779 Q -164.361 618.568 -164.144 618.362 Q -163.927 618.156 -163.705 617.954 Q -163.483 617.753 -163.256 617.557 Q -163.030 617.360 -162.799 617.169 Q -162.568 616.978 -162.333 616.792 Q -162.098 616.606 -161.859 616.426 Q -161.620 616.245 -161.377 616.070 Q -161.134 615.895 -160.887 615.726 Q -160.639 615.556 -160.389 615.393 Q -160.138 615.229 -159.883 615.071 Q -159.629 614.912 -159.371 614.760 Q -159.113 614.608 -158.851 614.461 Q -158.590 614.315 -158.325 614.174 Q -158.061 614.034 -157.793 613.899 Q -157.525 613.765 -157.255 613.636 Q -156.984 613.508 -156.710 613.385 Q -156.437 613.263 -156.161 613.147 Q -155.884 613.031 -155.606 612.921 Q -155.327 612.811 -155.046 612.708 Q -154.764 612.604 -154.481 612.507 Q -154.198 612.410 -153.912 612.320 Q -153.626 612.229 -153.339 612.145 Q -153.051 612.061 -152.762 611.983 Q -152.473 611.905 -152.181 611.834 Q -151.890 611.763 -151.598 611.699 Q -151.305 611.634 -151.011 611.576 Q -150.717 611.518 -150.422 611.467 Q -150.127 611.416 -149.831 611.371 Q -149.534 611.327 -149.237 611.289 Q -148.940 611.251 -148.642 611.220 Q -148.344 611.189 -148.045 611.165 Q -147.746 611.140 -147.447 611.123 Q -147.148 611.105 -146.849 611.094 Q -146.549 611.083 -146.250 611.079 Q -145.950 611.075 -145.651 611.078 Q -145.351 611.081 -145.051 611.090 Q -144.752 611.099 -144.453 611.116 Q -144.154 611.132 -143.855 611.155 Q -143.556 611.178 -143.258 611.208 Q -142.960 611.237 -142.662 611.274 Q -142.365 611.310 -142.069 611.354 Q -141.772 611.397 -141.477 611.447 Q -141.181 611.496 -140.887 611.553 Q -140.593 611.610 -140.300 611.673 Q -140.007 611.736 -139.716 611.806 Q -139.424 611.875 -139.134 611.952 Q -138.845 612.028 -138.557 612.111 Q -138.269 612.194 -137.983 612.283 Q -137.697 612.373 -137.413 612.468 Q -137.129 612.564 -136.847 612.666 Q -136.566 612.769 -136.286 612.877 Q -136.007 612.986 -135.730 613.100 Q -135.454 613.215 -135.180 613.336 Q -134.905 613.457 -134.634 613.584 Q -134.363 613.712 -134.095 613.845 Q -133.826 613.978 -133.561 614.118 Q -133.296 614.257 -133.034 614.402 Q -132.772 614.548 -132.513 614.699 Q -132.254 614.850 -131.999 615.007 Q -131.744 615.164 -131.492 615.327 Q -131.241 615.489 -130.993 615.658 Q -130.745 615.826 -130.501 616.000 Q -130.257 616.174 -130.017 616.353 Q -129.777 616.533 -129.541 616.717 Q -129.305 616.902 -129.073 617.092 Q -128.842 617.282 -128.615 617.477 Q -128.387 617.673 -128.164 617.873 Q -127.942 618.073 -127.723 618.279 Q -127.505 618.484 -127.292 618.694 Q -127.078 618.904 -126.869 619.119 Q -126.661 619.334 -126.457 619.554 Q -126.253 619.773 -126.054 619.997 Q -125.855 620.222 -125.662 620.450 Q -125.468 620.679 -125.279 620.912 Q -125.091 621.145 -124.908 621.382 Q -124.725 621.619 -124.547 621.860 Q -124.369 622.101 -124.197 622.346 Q -124.025 622.592 -123.858 622.841 Q -123.691 623.090 -123.530 623.342 Q -123.369 623.595 -123.214 623.851 Q -123.059 624.108 -122.909 624.367 Q -122.760 624.627 -122.616 624.890 Q -122.473 625.153 -122.335 625.419 Q -122.198 625.685 -122.066 625.955 Q -121.935 626.224 -121.809 626.496 Q -121.684 626.768 -121.565 627.043 Q -121.446 627.318 -121.333 627.595 Q -121.220 627.873 -121.113 628.153 Q -121.007 628.433 -120.906 628.715 Q -120.806 628.998 -120.712 629.282 Q -120.618 629.567 -120.531 629.853 Q -120.443 630.140 -120.362 630.428 Q -120.281 630.717 -120.207 631.007 Q -120.133 631.297 -120.065 631.589 Q -119.997 631.881 -119.936 632.174 Q -119.875 632.468 -119.820 632.762 Q -119.766 633.057 -119.718 633.353 Q -119.670 633.648 -119.629 633.945 Q -119.587 634.242 -119.553 634.540 Q -119.519 634.837 -119.491 635.136 Q -119.463 635.434 -119.442 635.733 Q -119.421 636.032 -119.407 636.331 Q -119.393 636.630 -119.385 636.930 Q -119.378 637.229 -119.377 637.529 Z"></path>
    <path id="STROKE_5a7823e9-7106-4c70-93b1-656c8e0b3495" opacity="1.000" fill="none" stroke="#f9f9f1" stroke-width="2.515" stroke-opacity="1.000" stroke-linecap="round" stroke-linejoin="round" d="M -120.440 767.888 Q -120.440 768.187 -120.448 768.486 Q -120.455 768.786 -120.469 769.085 Q -120.483 769.385 -120.504 769.683 Q -120.525 769.982 -120.552 770.281 Q -120.580 770.579 -120.614 770.877 Q -120.649 771.174 -120.690 771.471 Q -120.731 771.768 -120.778 772.064 Q -120.826 772.360 -120.880 772.654 Q -120.935 772.949 -120.996 773.242 Q -121.057 773.536 -121.125 773.827 Q -121.192 774.119 -121.266 774.410 Q -121.341 774.700 -121.421 774.988 Q -121.502 775.277 -121.589 775.564 Q -121.677 775.850 -121.770 776.135 Q -121.864 776.419 -121.964 776.702 Q -122.064 776.984 -122.171 777.264 Q -122.277 777.544 -122.390 777.822 Q -122.503 778.099 -122.622 778.374 Q -122.741 778.649 -122.866 778.922 Q -122.992 779.194 -123.123 779.463 Q -123.254 779.732 -123.392 779.999 Q -123.529 780.265 -123.672 780.528 Q -123.816 780.791 -123.965 781.051 Q -124.114 781.311 -124.269 781.567 Q -124.425 781.823 -124.585 782.076 Q -124.746 782.329 -124.913 782.578 Q -125.079 782.827 -125.251 783.072 Q -125.424 783.318 -125.601 783.559 Q -125.779 783.800 -125.962 784.037 Q -126.145 784.275 -126.333 784.508 Q -126.522 784.741 -126.715 784.969 Q -126.909 785.198 -127.107 785.422 Q -127.306 785.647 -127.510 785.866 Q -127.714 786.086 -127.922 786.301 Q -128.131 786.516 -128.344 786.726 Q -128.558 786.937 -128.776 787.142 Q -128.994 787.348 -129.217 787.548 Q -129.439 787.748 -129.666 787.944 Q -129.894 788.139 -130.125 788.329 Q -130.357 788.519 -130.593 788.704 Q -130.828 788.889 -131.068 789.069 Q -131.308 789.248 -131.552 789.422 Q -131.796 789.596 -132.044 789.765 Q -132.291 789.933 -132.543 790.096 Q -132.794 790.259 -133.050 790.416 Q -133.305 790.573 -133.563 790.725 Q -133.822 790.876 -134.084 791.021 Q -134.346 791.167 -134.611 791.306 Q -134.876 791.446 -135.144 791.579 Q -135.413 791.713 -135.684 791.840 Q -135.955 791.967 -136.229 792.088 Q -136.503 792.210 -136.780 792.325 Q -137.057 792.440 -137.336 792.548 Q -137.615 792.657 -137.897 792.759 Q -138.178 792.862 -138.462 792.958 Q -138.746 793.053 -139.032 793.143 Q -139.318 793.232 -139.606 793.316 Q -139.894 793.399 -140.183 793.475 Q -140.473 793.552 -140.764 793.621 Q -141.056 793.691 -141.348 793.755 Q -141.641 793.818 -141.936 793.875 Q -142.230 793.931 -142.525 793.982 Q -142.821 794.032 -143.117 794.075 Q -143.414 794.118 -143.711 794.155 Q -144.008 794.192 -144.306 794.221 Q -144.605 794.251 -144.903 794.274 Q -145.202 794.298 -145.501 794.314 Q -145.800 794.330 -146.100 794.340 Q -146.399 794.350 -146.699 794.353 Q -146.998 794.355 -147.298 794.352 Q -147.598 794.348 -147.897 794.337 Q -148.197 794.326 -148.496 794.309 Q -148.795 794.291 -149.093 794.267 Q -149.392 794.243 -149.690 794.212 Q -149.988 794.181 -150.285 794.143 Q -150.583 794.106 -150.879 794.061 Q -151.175 794.017 -151.470 793.966 Q -151.766 793.915 -152.060 793.857 Q -152.354 793.799 -152.646 793.735 Q -152.939 793.671 -153.230 793.600 Q -153.521 793.529 -153.811 793.451 Q -154.100 793.374 -154.388 793.290 Q -154.675 793.206 -154.961 793.115 Q -155.246 793.025 -155.530 792.928 Q -155.813 792.831 -156.095 792.728 Q -156.376 792.624 -156.655 792.515 Q -156.934 792.405 -157.210 792.289 Q -157.486 792.173 -157.760 792.051 Q -158.033 791.929 -158.304 791.801 Q -158.575 791.672 -158.843 791.538 Q -159.111 791.404 -159.375 791.263 Q -159.640 791.123 -159.901 790.976 Q -160.163 790.830 -160.421 790.678 Q -160.679 790.526 -160.934 790.368 Q -161.188 790.210 -161.439 790.046 Q -161.690 789.882 -161.937 789.713 Q -162.184 789.544 -162.428 789.369 Q -162.671 789.194 -162.910 789.013 Q -163.150 788.833 -163.385 788.647 Q -163.620 788.462 -163.851 788.271 Q -164.082 788.080 -164.308 787.884 Q -164.535 787.687 -164.757 787.486 Q -164.979 787.285 -165.196 787.079 Q -165.413 786.873 -165.626 786.662 Q -165.839 786.451 -166.047 786.235 Q -166.254 786.019 -166.457 785.799 Q -166.660 785.578 -166.858 785.353 Q -167.056 785.128 -167.249 784.899 Q -167.442 784.669 -167.629 784.436 Q -167.817 784.202 -167.999 783.964 Q -168.181 783.726 -168.358 783.484 Q -168.535 783.243 -168.706 782.997 Q -168.877 782.751 -169.043 782.501 Q -169.209 782.252 -169.369 781.998 Q -169.529 781.745 -169.683 781.488 Q -169.837 781.231 -169.986 780.971 Q -170.134 780.711 -170.276 780.447 Q -170.419 780.183 -170.555 779.917 Q -170.692 779.650 -170.822 779.380 Q -170.953 779.110 -171.077 778.838 Q -171.201 778.565 -171.319 778.290 Q -171.437 778.014 -171.549 777.736 Q -171.661 777.458 -171.766 777.178 Q -171.872 776.898 -171.971 776.615 Q -172.070 776.332 -172.163 776.047 Q -172.256 775.762 -172.342 775.475 Q -172.428 775.188 -172.508 774.900 Q -172.588 774.611 -172.661 774.320 Q -172.734 774.030 -172.801 773.738 Q -172.868 773.446 -172.928 773.152 Q -172.988 772.858 -173.041 772.564 Q -173.094 772.269 -173.141 771.973 Q -173.188 771.677 -173.228 771.380 Q -173.268 771.083 -173.301 770.785 Q -173.334 770.487 -173.361 770.189 Q -173.387 769.891 -173.407 769.592 Q -173.427 769.293 -173.440 768.993 Q -173.453 768.694 -173.459 768.394 Q -173.465 768.095 -173.465 767.795 Q -173.464 767.496 -173.457 767.196 Q -173.450 766.896 -173.436 766.597 Q -173.422 766.298 -173.401 765.999 Q -173.380 765.700 -173.352 765.402 Q -173.325 765.103 -173.291 764.806 Q -173.256 764.508 -173.215 764.211 Q -173.174 763.914 -173.126 763.619 Q -173.079 763.323 -173.024 763.028 Q -172.970 762.734 -172.909 762.440 Q -172.848 762.147 -172.780 761.855 Q -172.713 761.563 -172.638 761.273 Q -172.564 760.983 -172.483 760.694 Q -172.403 760.406 -172.315 760.119 Q -172.228 759.832 -172.134 759.548 Q -172.041 759.263 -171.940 758.981 Q -171.840 758.698 -171.734 758.418 Q -171.627 758.138 -171.515 757.861 Q -171.402 757.583 -171.283 757.308 Q -171.164 757.033 -171.038 756.761 Q -170.913 756.489 -170.782 756.219 Q -170.651 755.950 -170.513 755.684 Q -170.376 755.418 -170.232 755.154 Q -170.089 754.891 -169.940 754.632 Q -169.790 754.372 -169.635 754.115 Q -169.480 753.859 -169.319 753.606 Q -169.158 753.354 -168.992 753.104 Q -168.825 752.855 -168.653 752.610 Q -168.481 752.365 -168.304 752.124 Q -168.126 751.882 -167.943 751.645 Q -167.760 751.408 -167.571 751.175 Q -167.383 750.942 -167.190 750.713 Q -166.996 750.484 -166.797 750.260 Q -166.599 750.036 -166.395 749.816 Q -166.191 749.596 -165.983 749.381 Q -165.774 749.166 -165.561 748.956 Q -165.347 748.746 -165.129 748.540 Q -164.911 748.335 -164.688 748.135 Q -164.465 747.934 -164.238 747.739 Q -164.011 747.543 -163.780 747.353 Q -163.548 747.163 -163.312 746.978 Q -163.076 746.793 -162.837 746.614 Q -162.597 746.434 -162.353 746.260 Q -162.109 746.086 -161.861 745.918 Q -161.613 745.749 -161.362 745.586 Q -161.110 745.423 -160.855 745.266 Q -160.600 745.109 -160.341 744.958 Q -160.083 744.807 -159.821 744.661 Q -159.559 744.516 -159.294 744.376 Q -159.029 744.237 -158.760 744.103 Q -158.492 743.970 -158.221 743.843 Q -157.950 743.715 -157.676 743.594 Q -157.402 743.473 -157.125 743.358 Q -156.848 743.243 -156.569 743.134 Q -156.290 743.026 -156.008 742.923 Q -155.727 742.821 -155.443 742.725 Q -155.159 742.629 -154.873 742.539 Q -154.587 742.450 -154.299 742.367 Q -154.011 742.284 -153.721 742.207 Q -153.432 742.131 -153.140 742.061 Q -152.849 741.991 -152.556 741.928 Q -152.263 741.864 -151.969 741.808 Q -151.675 741.751 -151.379 741.701 Q -151.084 741.651 -150.788 741.608 Q -150.491 741.564 -150.194 741.528 Q -149.896 741.491 -149.598 741.461 Q -149.300 741.431 -149.001 741.408 Q -148.703 741.385 -148.403 741.368 Q -148.104 741.352 -147.805 741.342 Q -147.505 741.333 -147.206 741.330 Q -146.906 741.327 -146.607 741.331 Q -146.307 741.335 -146.007 741.346 Q -145.708 741.356 -145.409 741.374 Q -145.110 741.391 -144.811 741.415 Q -144.513 741.440 -144.215 741.470 Q -143.916 741.501 -143.619 741.539 Q -143.322 741.577 -143.026 741.621 Q -142.729 741.665 -142.434 741.717 Q -142.139 741.768 -141.845 741.825 Q -141.551 741.883 -141.258 741.947 Q -140.966 742.012 -140.674 742.083 Q -140.383 742.154 -140.094 742.231 Q -139.805 742.309 -139.517 742.393 Q -139.229 742.477 -138.944 742.567 Q -138.658 742.658 -138.375 742.755 Q -138.091 742.852 -137.810 742.955 Q -137.529 743.058 -137.250 743.168 Q -136.971 743.278 -136.695 743.393 Q -136.418 743.509 -136.145 743.632 Q -135.871 743.754 -135.600 743.882 Q -135.330 744.010 -135.062 744.145 Q -134.794 744.279 -134.529 744.419 Q -134.265 744.560 -134.003 744.706 Q -133.742 744.853 -133.484 745.005 Q -133.225 745.157 -132.971 745.315 Q -132.716 745.473 -132.465 745.637 Q -132.214 745.800 -131.967 745.970 Q -131.720 746.139 -131.477 746.314 Q -131.234 746.489 -130.994 746.669 Q -130.755 746.850 -130.520 747.035 Q -130.285 747.221 -130.054 747.412 Q -129.823 747.603 -129.596 747.799 Q -129.370 747.995 -129.148 748.197 Q -128.926 748.398 -128.709 748.604 Q -128.491 748.810 -128.278 749.021 Q -128.066 749.232 -127.858 749.448 Q -127.650 749.664 -127.447 749.884 Q -127.244 750.105 -127.046 750.330 Q -126.848 750.555 -126.656 750.784 Q -126.463 751.013 -126.275 751.247 Q -126.088 751.481 -125.905 751.719 Q -125.723 751.956 -125.546 752.198 Q -125.370 752.440 -125.198 752.686 Q -125.027 752.932 -124.861 753.182 Q -124.696 753.431 -124.536 753.685 Q -124.376 753.938 -124.222 754.195 Q -124.067 754.452 -123.919 754.712 Q -123.771 754.972 -123.628 755.236 Q -123.486 755.499 -123.349 755.766 Q -123.213 756.033 -123.082 756.303 Q -122.952 756.572 -122.828 756.845 Q -122.703 757.118 -122.585 757.393 Q -122.467 757.668 -122.355 757.946 Q -122.244 758.224 -122.138 758.505 Q -122.033 758.785 -121.933 759.068 Q -121.834 759.351 -121.742 759.636 Q -121.649 759.921 -121.563 760.208 Q -121.476 760.495 -121.397 760.783 Q -121.317 761.072 -121.244 761.363 Q -121.170 761.653 -121.104 761.945 Q -121.037 762.237 -120.977 762.531 Q -120.917 762.825 -120.864 763.119 Q -120.810 763.414 -120.764 763.710 Q -120.717 764.006 -120.677 764.303 Q -120.637 764.600 -120.604 764.898 Q -120.570 765.196 -120.544 765.494 Q -120.517 765.792 -120.498 766.091 Q -120.478 766.390 -120.465 766.690 Q -120.452 766.989 -120.446 767.289 Q -120.439 767.588 -120.440 767.888 Z"></path>
    <path id="STROKE_afd38442-ac34-4ee3-af07-8dcaf9edf2f7" opacity="1.000" fill="none" stroke="#f9f9f1" stroke-width="2.515" stroke-opacity="1.000" stroke-linecap="round" stroke-linejoin="round" d="M -120.024 895.439 Q -120.024 895.738 -120.031 896.038 Q -120.038 896.337 -120.052 896.637 Q -120.066 896.936 -120.086 897.235 Q -120.107 897.534 -120.134 897.832 Q -120.161 898.130 -120.195 898.428 Q -120.229 898.726 -120.270 899.023 Q -120.311 899.320 -120.358 899.615 Q -120.406 899.911 -120.460 900.206 Q -120.514 900.501 -120.575 900.794 Q -120.635 901.087 -120.703 901.379 Q -120.770 901.671 -120.844 901.962 Q -120.918 902.252 -120.999 902.541 Q -121.079 902.829 -121.166 903.116 Q -121.253 903.403 -121.347 903.687 Q -121.440 903.972 -121.540 904.254 Q -121.640 904.537 -121.746 904.817 Q -121.852 905.097 -121.965 905.375 Q -122.077 905.653 -122.196 905.928 Q -122.315 906.203 -122.440 906.475 Q -122.565 906.747 -122.696 907.017 Q -122.827 907.286 -122.964 907.553 Q -123.101 907.819 -123.245 908.082 Q -123.388 908.346 -123.537 908.605 Q -123.686 908.865 -123.841 909.122 Q -123.995 909.378 -124.156 909.631 Q -124.317 909.884 -124.483 910.133 Q -124.649 910.383 -124.821 910.628 Q -124.993 910.873 -125.171 911.115 Q -125.348 911.356 -125.531 911.594 Q -125.714 911.831 -125.902 912.064 Q -126.090 912.297 -126.283 912.526 Q -126.477 912.755 -126.675 912.980 Q -126.874 913.204 -127.077 913.424 Q -127.281 913.644 -127.489 913.859 Q -127.697 914.075 -127.911 914.285 Q -128.124 914.495 -128.342 914.701 Q -128.560 914.907 -128.782 915.107 Q -129.005 915.308 -129.232 915.504 Q -129.459 915.699 -129.690 915.890 Q -129.921 916.080 -130.157 916.265 Q -130.393 916.450 -130.632 916.630 Q -130.872 916.810 -131.116 916.984 Q -131.360 917.158 -131.607 917.327 Q -131.855 917.496 -132.106 917.659 Q -132.358 917.822 -132.613 917.979 Q -132.867 918.136 -133.126 918.288 Q -133.384 918.440 -133.646 918.585 Q -133.908 918.731 -134.173 918.871 Q -134.438 919.010 -134.706 919.144 Q -134.974 919.278 -135.246 919.405 Q -135.517 919.533 -135.791 919.654 Q -136.064 919.776 -136.341 919.891 Q -136.618 920.006 -136.897 920.115 Q -137.176 920.224 -137.457 920.327 Q -137.739 920.429 -138.023 920.526 Q -138.306 920.622 -138.592 920.711 Q -138.878 920.801 -139.166 920.885 Q -139.454 920.968 -139.743 921.045 Q -140.033 921.121 -140.324 921.192 Q -140.616 921.262 -140.908 921.325 Q -141.201 921.389 -141.495 921.446 Q -141.789 921.503 -142.085 921.553 Q -142.380 921.604 -142.677 921.647 Q -142.973 921.691 -143.270 921.728 Q -143.568 921.765 -143.866 921.795 Q -144.164 921.825 -144.463 921.848 Q -144.761 921.872 -145.060 921.889 Q -145.360 921.905 -145.659 921.915 Q -145.959 921.925 -146.258 921.928 Q -146.558 921.931 -146.857 921.928 Q -147.157 921.924 -147.456 921.914 Q -147.756 921.903 -148.055 921.886 Q -148.354 921.869 -148.653 921.845 Q -148.951 921.821 -149.249 921.790 Q -149.548 921.760 -149.845 921.722 Q -150.142 921.685 -150.438 921.641 Q -150.735 921.597 -151.030 921.546 Q -151.325 921.495 -151.619 921.438 Q -151.914 921.380 -152.206 921.316 Q -152.499 921.252 -152.790 921.182 Q -153.081 921.111 -153.371 921.034 Q -153.660 920.956 -153.948 920.873 Q -154.236 920.789 -154.521 920.699 Q -154.807 920.608 -155.091 920.512 Q -155.374 920.415 -155.656 920.312 Q -155.937 920.209 -156.216 920.099 Q -156.495 919.990 -156.771 919.874 Q -157.048 919.759 -157.321 919.637 Q -157.595 919.515 -157.866 919.387 Q -158.137 919.259 -158.405 919.125 Q -158.673 918.991 -158.937 918.851 Q -159.202 918.710 -159.464 918.564 Q -159.725 918.418 -159.984 918.266 Q -160.242 918.114 -160.497 917.956 Q -160.751 917.799 -161.002 917.635 Q -161.254 917.472 -161.501 917.303 Q -161.748 917.134 -161.992 916.959 Q -162.235 916.784 -162.475 916.604 Q -162.714 916.424 -162.949 916.238 Q -163.185 916.053 -163.416 915.862 Q -163.647 915.671 -163.873 915.476 Q -164.100 915.280 -164.322 915.079 Q -164.544 914.878 -164.762 914.672 Q -164.980 914.466 -165.193 914.255 Q -165.405 914.044 -165.613 913.828 Q -165.822 913.613 -166.025 913.393 Q -166.228 913.172 -166.426 912.948 Q -166.624 912.723 -166.817 912.494 Q -167.010 912.264 -167.198 912.031 Q -167.386 911.797 -167.568 911.560 Q -167.750 911.322 -167.927 911.080 Q -168.104 910.839 -168.276 910.593 Q -168.447 910.347 -168.613 910.098 Q -168.779 909.848 -168.939 909.595 Q -169.100 909.342 -169.254 909.085 Q -169.409 908.828 -169.557 908.568 Q -169.706 908.308 -169.849 908.045 Q -169.991 907.781 -170.128 907.514 Q -170.265 907.248 -170.395 906.978 Q -170.526 906.709 -170.651 906.436 Q -170.775 906.164 -170.893 905.888 Q -171.012 905.613 -171.124 905.335 Q -171.236 905.057 -171.342 904.777 Q -171.447 904.497 -171.547 904.214 Q -171.646 903.931 -171.739 903.646 Q -171.832 903.362 -171.919 903.075 Q -172.005 902.788 -172.085 902.499 Q -172.165 902.211 -172.239 901.920 Q -172.312 901.630 -172.379 901.338 Q -172.446 901.045 -172.507 900.752 Q -172.567 900.458 -172.620 900.164 Q -172.674 899.869 -172.721 899.573 Q -172.768 899.277 -172.808 898.980 Q -172.849 898.683 -172.882 898.385 Q -172.916 898.088 -172.942 897.789 Q -172.969 897.491 -172.989 897.192 Q -173.009 896.893 -173.023 896.594 Q -173.036 896.294 -173.043 895.995 Q -173.049 895.695 -173.049 895.396 Q -173.049 895.096 -173.042 894.796 Q -173.035 894.497 -173.021 894.198 Q -173.007 893.898 -172.986 893.599 Q -172.966 893.300 -172.939 893.002 Q -172.911 892.704 -172.877 892.406 Q -172.843 892.108 -172.803 891.812 Q -172.762 891.515 -172.714 891.219 Q -172.667 890.923 -172.613 890.628 Q -172.559 890.334 -172.498 890.040 Q -172.437 889.747 -172.370 889.455 Q -172.302 889.163 -172.228 888.873 Q -172.154 888.582 -172.074 888.294 Q -171.993 888.005 -171.906 887.718 Q -171.819 887.432 -171.726 887.147 Q -171.632 886.862 -171.533 886.580 Q -171.433 886.297 -171.327 886.017 Q -171.220 885.737 -171.108 885.459 Q -170.995 885.182 -170.876 884.906 Q -170.758 884.631 -170.633 884.359 Q -170.508 884.087 -170.377 883.817 Q -170.246 883.548 -170.108 883.282 Q -169.971 883.015 -169.828 882.752 Q -169.685 882.489 -169.536 882.229 Q -169.387 881.969 -169.232 881.712 Q -169.077 881.456 -168.917 881.203 Q -168.756 880.950 -168.590 880.701 Q -168.423 880.452 -168.251 880.206 Q -168.079 879.961 -167.902 879.719 Q -167.725 879.478 -167.542 879.240 Q -167.359 879.003 -167.171 878.770 Q -166.983 878.537 -166.789 878.308 Q -166.596 878.079 -166.398 877.854 Q -166.199 877.630 -165.996 877.410 Q -165.792 877.190 -165.584 876.975 Q -165.375 876.760 -165.162 876.549 Q -164.949 876.339 -164.731 876.133 Q -164.513 875.927 -164.290 875.727 Q -164.068 875.526 -163.841 875.331 Q -163.614 875.135 -163.383 874.945 Q -163.151 874.754 -162.916 874.569 Q -162.680 874.384 -162.440 874.204 Q -162.200 874.025 -161.957 873.850 Q -161.713 873.676 -161.465 873.507 Q -161.218 873.339 -160.966 873.176 Q -160.715 873.012 -160.460 872.855 Q -160.205 872.698 -159.947 872.546 Q -159.688 872.395 -159.426 872.249 Q -159.165 872.103 -158.899 871.964 Q -158.634 871.824 -158.366 871.690 Q -158.098 871.556 -157.827 871.429 Q -157.556 871.301 -157.282 871.180 Q -157.008 871.058 -156.732 870.943 Q -156.455 870.828 -156.176 870.719 Q -155.897 870.610 -155.615 870.508 Q -155.334 870.405 -155.050 870.309 Q -154.766 870.212 -154.480 870.123 Q -154.194 870.033 -153.907 869.950 Q -153.619 869.866 -153.329 869.790 Q -153.040 869.713 -152.748 869.643 Q -152.457 869.572 -152.164 869.509 Q -151.871 869.445 -151.577 869.388 Q -151.283 869.331 -150.988 869.281 Q -150.692 869.231 -150.396 869.187 Q -150.099 869.143 -149.802 869.106 Q -149.505 869.070 -149.207 869.039 Q -148.909 869.009 -148.610 868.986 Q -148.311 868.962 -148.012 868.946 Q -147.713 868.929 -147.413 868.919 Q -147.114 868.909 -146.814 868.906 Q -146.515 868.903 -146.215 868.906 Q -145.915 868.910 -145.616 868.921 Q -145.317 868.931 -145.017 868.948 Q -144.718 868.965 -144.420 868.989 Q -144.121 869.013 -143.823 869.044 Q -143.525 869.074 -143.228 869.112 Q -142.930 869.149 -142.634 869.193 Q -142.338 869.237 -142.042 869.288 Q -141.747 869.339 -141.453 869.396 Q -141.159 869.454 -140.866 869.518 Q -140.573 869.582 -140.282 869.653 Q -139.991 869.723 -139.702 869.801 Q -139.412 869.878 -139.124 869.962 Q -138.837 870.045 -138.551 870.136 Q -138.265 870.226 -137.982 870.323 Q -137.698 870.419 -137.417 870.522 Q -137.135 870.625 -136.857 870.735 Q -136.578 870.844 -136.301 870.960 Q -136.025 871.076 -135.751 871.197 Q -135.477 871.319 -135.206 871.447 Q -134.936 871.575 -134.668 871.709 Q -134.400 871.844 -134.135 871.984 Q -133.870 872.124 -133.608 872.270 Q -133.347 872.416 -133.089 872.568 Q -132.830 872.720 -132.576 872.878 Q -132.321 873.036 -132.070 873.199 Q -131.819 873.363 -131.571 873.532 Q -131.324 873.701 -131.081 873.875 Q -130.837 874.050 -130.598 874.230 Q -130.358 874.410 -130.123 874.596 Q -129.888 874.781 -129.657 874.972 Q -129.426 875.163 -129.199 875.359 Q -128.972 875.555 -128.750 875.756 Q -128.528 875.957 -128.310 876.163 Q -128.093 876.369 -127.880 876.580 Q -127.667 876.790 -127.459 877.006 Q -127.251 877.222 -127.048 877.442 Q -126.845 877.662 -126.646 877.887 Q -126.448 878.112 -126.255 878.341 Q -126.062 878.570 -125.875 878.804 Q -125.687 879.037 -125.504 879.275 Q -125.322 879.513 -125.145 879.754 Q -124.968 879.996 -124.796 880.242 Q -124.625 880.487 -124.459 880.737 Q -124.293 880.986 -124.133 881.240 Q -123.973 881.493 -123.818 881.750 Q -123.664 882.006 -123.515 882.266 Q -123.367 882.527 -123.224 882.790 Q -123.081 883.054 -122.944 883.320 Q -122.808 883.587 -122.677 883.856 Q -122.546 884.126 -122.422 884.399 Q -122.297 884.671 -122.179 884.946 Q -122.061 885.222 -121.949 885.500 Q -121.837 885.777 -121.731 886.058 Q -121.625 886.338 -121.526 886.621 Q -121.426 886.903 -121.333 887.188 Q -121.240 887.473 -121.154 887.760 Q -121.067 888.047 -120.987 888.335 Q -120.907 888.624 -120.834 888.915 Q -120.760 889.205 -120.693 889.497 Q -120.626 889.789 -120.566 890.083 Q -120.506 890.376 -120.452 890.671 Q -120.398 890.966 -120.351 891.262 Q -120.304 891.558 -120.264 891.855 Q -120.224 892.151 -120.190 892.449 Q -120.157 892.747 -120.130 893.045 Q -120.103 893.344 -120.083 893.643 Q -120.063 893.942 -120.050 894.241 Q -120.037 894.540 -120.030 894.840 Q -120.024 895.140 -120.024 895.439 Z"></path>
    <path id="STROKE_091dc2b1-d4ac-4b40-a133-4a3e8e898795" opacity="1.000" fill="none" stroke="#f9f9f1" stroke-width="2.515" stroke-opacity="1.000" stroke-linecap="round" stroke-linejoin="round" d="M 40.347 641.833 Q 40.348 642.132 40.342 642.432 Q 40.335 642.731 40.323 643.030 Q 40.310 643.330 40.290 643.629 Q 40.271 643.928 40.244 644.226 Q 40.218 644.525 40.185 644.822 Q 40.152 645.120 40.112 645.417 Q 40.072 645.714 40.025 646.010 Q 39.979 646.306 39.926 646.601 Q 39.872 646.896 39.813 647.189 Q 39.753 647.483 39.686 647.775 Q 39.620 648.067 39.547 648.358 Q 39.474 648.648 39.394 648.937 Q 39.314 649.226 39.228 649.513 Q 39.142 649.800 39.050 650.085 Q 38.957 650.370 38.858 650.653 Q 38.759 650.936 38.654 651.216 Q 38.548 651.497 38.437 651.775 Q 38.325 652.053 38.207 652.328 Q 38.089 652.604 37.965 652.876 Q 37.841 653.149 37.711 653.419 Q 37.580 653.689 37.444 653.955 Q 37.308 654.222 37.165 654.486 Q 37.023 654.750 36.875 655.010 Q 36.727 655.270 36.573 655.527 Q 36.419 655.784 36.259 656.038 Q 36.099 656.291 35.933 656.541 Q 35.768 656.791 35.597 657.037 Q 35.425 657.283 35.249 657.525 Q 35.072 657.767 34.890 658.005 Q 34.708 658.242 34.521 658.476 Q 34.333 658.710 34.141 658.939 Q 33.948 659.169 33.750 659.394 Q 33.552 659.619 33.350 659.840 Q 33.147 660.060 32.939 660.276 Q 32.731 660.492 32.519 660.703 Q 32.306 660.914 32.089 661.121 Q 31.871 661.327 31.650 661.528 Q 31.428 661.730 31.201 661.926 Q 30.975 662.122 30.744 662.313 Q 30.513 662.504 30.278 662.690 Q 30.043 662.876 29.804 663.056 Q 29.565 663.237 29.322 663.412 Q 29.079 663.587 28.832 663.756 Q 28.584 663.926 28.334 664.090 Q 28.083 664.254 27.828 664.412 Q 27.574 664.570 27.316 664.722 Q 27.058 664.875 26.796 665.021 Q 26.535 665.168 26.270 665.308 Q 26.006 665.449 25.738 665.583 Q 25.470 665.718 25.200 665.846 Q 24.929 665.975 24.655 666.097 Q 24.382 666.219 24.106 666.335 Q 23.829 666.451 23.551 666.561 Q 23.272 666.671 22.991 666.774 Q 22.710 666.878 22.426 666.975 Q 22.143 667.072 21.857 667.163 Q 21.571 667.253 21.284 667.338 Q 20.996 667.422 20.707 667.499 Q 20.418 667.577 20.127 667.648 Q 19.835 667.719 19.543 667.784 Q 19.250 667.848 18.956 667.906 Q 18.662 667.964 18.367 668.015 Q 18.072 668.067 17.776 668.111 Q 17.479 668.156 17.182 668.193 Q 16.885 668.231 16.587 668.262 Q 16.289 668.294 15.990 668.318 Q 15.692 668.342 15.392 668.360 Q 15.093 668.377 14.794 668.388 Q 14.495 668.399 14.195 668.403 Q 13.895 668.407 13.596 668.405 Q 13.296 668.402 12.997 668.392 Q 12.697 668.383 12.398 668.367 Q 12.099 668.350 11.800 668.328 Q 11.501 668.305 11.203 668.275 Q 10.905 668.245 10.608 668.208 Q 10.310 668.172 10.014 668.129 Q 9.717 668.086 9.422 668.036 Q 9.126 667.986 8.832 667.929 Q 8.538 667.873 8.245 667.810 Q 7.952 667.747 7.661 667.677 Q 7.369 667.607 7.080 667.531 Q 6.790 667.454 6.502 667.371 Q 6.214 667.289 5.928 667.199 Q 5.642 667.110 5.358 667.014 Q 5.074 666.918 4.793 666.816 Q 4.511 666.714 4.232 666.605 Q 3.952 666.497 3.676 666.382 Q 3.399 666.267 3.125 666.146 Q 2.851 666.025 2.579 665.898 Q 2.308 665.771 2.040 665.638 Q 1.771 665.504 1.506 665.365 Q 1.241 665.226 0.979 665.080 Q 0.717 664.935 0.458 664.784 Q 0.199 664.633 -0.056 664.476 Q -0.311 664.319 -0.563 664.156 Q -0.814 663.993 -1.062 663.825 Q -1.310 663.657 -1.554 663.483 Q -1.798 663.309 -2.038 663.129 Q -2.278 662.950 -2.514 662.765 Q -2.750 662.581 -2.981 662.391 Q -3.213 662.201 -3.440 662.005 Q -3.667 661.810 -3.890 661.610 Q -4.113 661.409 -4.331 661.204 Q -4.550 660.999 -4.763 660.789 Q -4.977 660.578 -5.185 660.364 Q -5.394 660.149 -5.598 659.929 Q -5.802 659.709 -6.001 659.485 Q -6.199 659.261 -6.393 659.032 Q -6.587 658.804 -6.775 658.571 Q -6.964 658.338 -7.147 658.101 Q -7.330 657.864 -7.508 657.623 Q -7.686 657.381 -7.858 657.136 Q -8.030 656.891 -8.197 656.642 Q -8.364 656.393 -8.525 656.140 Q -8.686 655.888 -8.841 655.631 Q -8.996 655.375 -9.146 655.116 Q -9.295 654.856 -9.438 654.593 Q -9.582 654.330 -9.720 654.064 Q -9.857 653.797 -9.989 653.528 Q -10.120 653.259 -10.245 652.987 Q -10.371 652.715 -10.490 652.440 Q -10.609 652.165 -10.722 651.887 Q -10.835 651.610 -10.942 651.330 Q -11.048 651.050 -11.149 650.768 Q -11.249 650.485 -11.343 650.201 Q -11.437 649.916 -11.524 649.630 Q -11.612 649.343 -11.693 649.055 Q -11.773 648.766 -11.848 648.476 Q -11.922 648.186 -11.990 647.894 Q -12.058 647.602 -12.119 647.309 Q -12.180 647.015 -12.235 646.721 Q -12.289 646.426 -12.337 646.130 Q -12.385 645.834 -12.426 645.538 Q -12.468 645.241 -12.502 644.943 Q -12.536 644.646 -12.564 644.347 Q -12.592 644.049 -12.613 643.750 Q -12.634 643.451 -12.648 643.152 Q -12.662 642.853 -12.670 642.553 Q -12.677 642.254 -12.678 641.954 Q -12.679 641.654 -12.673 641.355 Q -12.666 641.055 -12.654 640.756 Q -12.641 640.456 -12.621 640.157 Q -12.602 639.859 -12.575 639.560 Q -12.549 639.262 -12.516 638.964 Q -12.483 638.666 -12.443 638.369 Q -12.403 638.072 -12.356 637.776 Q -12.310 637.480 -12.257 637.185 Q -12.203 636.890 -12.144 636.597 Q -12.084 636.303 -12.017 636.011 Q -11.951 635.719 -11.878 635.428 Q -11.805 635.138 -11.725 634.849 Q -11.645 634.560 -11.559 634.273 Q -11.473 633.986 -11.381 633.701 Q -11.288 633.416 -11.189 633.133 Q -11.090 632.851 -10.985 632.570 Q -10.879 632.290 -10.768 632.012 Q -10.656 631.734 -10.538 631.458 Q -10.420 631.183 -10.296 630.910 Q -10.172 630.637 -10.042 630.367 Q -9.911 630.098 -9.775 629.831 Q -9.639 629.564 -9.496 629.300 Q -9.354 629.037 -9.206 628.776 Q -9.058 628.516 -8.904 628.259 Q -8.750 628.002 -8.590 627.748 Q -8.430 627.495 -8.264 627.245 Q -8.099 626.996 -7.928 626.750 Q -7.756 626.504 -7.580 626.262 Q -7.403 626.020 -7.221 625.782 Q -7.039 625.544 -6.852 625.310 Q -6.664 625.076 -6.472 624.847 Q -6.279 624.617 -6.081 624.392 Q -5.883 624.167 -5.681 623.947 Q -5.478 623.726 -5.270 623.510 Q -5.062 623.294 -4.850 623.083 Q -4.637 622.872 -4.420 622.666 Q -4.202 622.459 -3.981 622.258 Q -3.759 622.057 -3.532 621.860 Q -3.306 621.664 -3.075 621.473 Q -2.844 621.282 -2.609 621.096 Q -2.374 620.910 -2.135 620.730 Q -1.896 620.549 -1.653 620.374 Q -1.410 620.199 -1.162 620.030 Q -0.915 619.860 -0.665 619.696 Q -0.414 619.533 -0.159 619.374 Q 0.095 619.216 0.353 619.064 Q 0.611 618.912 0.873 618.765 Q 1.134 618.619 1.399 618.478 Q 1.663 618.338 1.931 618.203 Q 2.199 618.068 2.469 617.940 Q 2.740 617.812 3.014 617.689 Q 3.287 617.567 3.563 617.451 Q 3.840 617.335 4.118 617.225 Q 4.397 617.115 4.678 617.012 Q 4.960 616.908 5.243 616.811 Q 5.527 616.714 5.812 616.623 Q 6.098 616.533 6.385 616.449 Q 6.673 616.364 6.962 616.287 Q 7.252 616.209 7.543 616.138 Q 7.834 616.067 8.126 616.002 Q 8.419 615.938 8.713 615.880 Q 9.007 615.822 9.302 615.771 Q 9.597 615.720 9.894 615.675 Q 10.190 615.631 10.487 615.593 Q 10.784 615.555 11.082 615.524 Q 11.380 615.493 11.679 615.468 Q 11.978 615.444 12.277 615.426 Q 12.576 615.409 12.875 615.398 Q 13.175 615.387 13.474 615.383 Q 13.774 615.379 14.073 615.382 Q 14.373 615.384 14.673 615.394 Q 14.972 615.403 15.271 615.420 Q 15.570 615.436 15.869 615.459 Q 16.168 615.482 16.466 615.511 Q 16.764 615.541 17.062 615.578 Q 17.359 615.614 17.655 615.657 Q 17.952 615.701 18.247 615.750 Q 18.543 615.800 18.837 615.857 Q 19.131 615.913 19.424 615.977 Q 19.717 616.040 20.009 616.109 Q 20.300 616.179 20.590 616.256 Q 20.879 616.332 21.167 616.415 Q 21.455 616.498 21.741 616.587 Q 22.027 616.676 22.311 616.772 Q 22.595 616.868 22.877 616.970 Q 23.158 617.072 23.438 617.181 Q 23.717 617.289 23.994 617.404 Q 24.270 617.519 24.545 617.640 Q 24.819 617.761 25.090 617.888 Q 25.361 618.016 25.630 618.149 Q 25.898 618.282 26.163 618.421 Q 26.428 618.561 26.690 618.706 Q 26.952 618.851 27.211 619.003 Q 27.470 619.154 27.725 619.311 Q 27.980 619.468 28.232 619.630 Q 28.483 619.793 28.731 619.961 Q 28.979 620.130 29.223 620.304 Q 29.467 620.478 29.707 620.657 Q 29.947 620.836 30.183 621.021 Q 30.419 621.206 30.651 621.396 Q 30.882 621.586 31.110 621.781 Q 31.337 621.976 31.560 622.177 Q 31.782 622.377 32.001 622.582 Q 32.219 622.788 32.432 622.998 Q 32.646 623.208 32.855 623.423 Q 33.063 623.638 33.267 623.858 Q 33.471 624.077 33.670 624.301 Q 33.869 624.526 34.062 624.754 Q 34.256 624.983 34.445 625.216 Q 34.633 625.449 34.816 625.686 Q 34.999 625.923 35.177 626.164 Q 35.355 626.405 35.527 626.650 Q 35.699 626.896 35.866 627.144 Q 36.033 627.393 36.194 627.646 Q 36.355 627.899 36.510 628.155 Q 36.665 628.411 36.815 628.671 Q 36.964 628.931 37.108 629.194 Q 37.251 629.457 37.389 629.723 Q 37.526 629.989 37.658 630.258 Q 37.789 630.528 37.915 630.800 Q 38.040 631.072 38.159 631.347 Q 38.278 631.622 38.391 631.899 Q 38.504 632.177 38.611 632.457 Q 38.718 632.737 38.818 633.019 Q 38.918 633.302 39.012 633.586 Q 39.106 633.871 39.193 634.157 Q 39.281 634.444 39.362 634.732 Q 39.443 635.021 39.517 635.311 Q 39.591 635.601 39.659 635.893 Q 39.727 636.185 39.788 636.478 Q 39.849 636.772 39.904 637.066 Q 39.958 637.361 40.006 637.657 Q 40.054 637.952 40.095 638.249 Q 40.137 638.546 40.171 638.844 Q 40.206 639.141 40.233 639.440 Q 40.261 639.738 40.282 640.037 Q 40.303 640.336 40.317 640.635 Q 40.331 640.934 40.339 641.234 Q 40.346 641.533 40.347 641.833 Z"></path>
    <path id="STROKE_798c5680-2f6e-4753-b8da-39a78bf7c331" opacity="1.000" fill="none" stroke="#f9f9f1" stroke-width="2.515" stroke-opacity="1.000" stroke-linecap="round" stroke-linejoin="round" d="M 39.284 772.191 Q 39.284 772.491 39.276 772.790 Q 39.269 773.090 39.255 773.389 Q 39.241 773.688 39.220 773.987 Q 39.199 774.286 39.172 774.585 Q 39.144 774.883 39.110 775.181 Q 39.076 775.478 39.035 775.775 Q 38.994 776.072 38.946 776.368 Q 38.898 776.663 38.844 776.958 Q 38.789 777.253 38.728 777.546 Q 38.667 777.839 38.600 778.131 Q 38.532 778.423 38.458 778.713 Q 38.383 779.004 38.303 779.292 Q 38.222 779.581 38.135 779.867 Q 38.047 780.154 37.954 780.439 Q 37.860 780.723 37.760 781.006 Q 37.660 781.288 37.553 781.568 Q 37.447 781.848 37.334 782.126 Q 37.221 782.403 37.102 782.678 Q 36.983 782.953 36.858 783.225 Q 36.733 783.498 36.601 783.767 Q 36.470 784.036 36.332 784.302 Q 36.195 784.569 36.052 784.832 Q 35.908 785.095 35.759 785.355 Q 35.610 785.614 35.455 785.871 Q 35.300 786.127 35.139 786.380 Q 34.978 786.633 34.811 786.882 Q 34.645 787.131 34.473 787.376 Q 34.300 787.621 34.123 787.863 Q 33.945 788.104 33.762 788.341 Q 33.579 788.578 33.391 788.811 Q 33.202 789.044 33.009 789.273 Q 32.815 789.502 32.617 789.726 Q 32.418 789.950 32.214 790.170 Q 32.010 790.390 31.802 790.605 Q 31.593 790.820 31.380 791.030 Q 31.166 791.240 30.948 791.446 Q 30.730 791.651 30.507 791.852 Q 30.285 792.052 30.058 792.248 Q 29.830 792.443 29.599 792.633 Q 29.367 792.823 29.132 793.008 Q 28.896 793.193 28.656 793.372 Q 28.416 793.552 28.172 793.726 Q 27.928 793.900 27.680 794.069 Q 27.433 794.237 27.181 794.400 Q 26.930 794.563 26.675 794.720 Q 26.419 794.877 26.161 795.028 Q 25.902 795.180 25.640 795.325 Q 25.378 795.471 25.113 795.610 Q 24.848 795.749 24.580 795.883 Q 24.311 796.016 24.040 796.144 Q 23.769 796.271 23.495 796.392 Q 23.221 796.513 22.944 796.628 Q 22.668 796.743 22.388 796.852 Q 22.109 796.961 21.827 797.063 Q 21.546 797.165 21.262 797.261 Q 20.978 797.357 20.692 797.447 Q 20.406 797.536 20.118 797.619 Q 19.831 797.702 19.541 797.779 Q 19.251 797.855 18.960 797.925 Q 18.668 797.995 18.376 798.059 Q 18.083 798.122 17.789 798.179 Q 17.494 798.235 17.199 798.285 Q 16.904 798.335 16.607 798.379 Q 16.311 798.422 16.013 798.459 Q 15.716 798.495 15.418 798.525 Q 15.120 798.555 14.821 798.578 Q 14.522 798.601 14.223 798.618 Q 13.924 798.634 13.624 798.644 Q 13.325 798.653 13.025 798.656 Q 12.726 798.659 12.426 798.655 Q 12.126 798.651 11.827 798.641 Q 11.528 798.630 11.228 798.613 Q 10.929 798.595 10.631 798.571 Q 10.332 798.547 10.034 798.516 Q 9.736 798.485 9.439 798.447 Q 9.141 798.410 8.845 798.365 Q 8.549 798.321 8.254 798.270 Q 7.958 798.219 7.664 798.161 Q 7.370 798.103 7.078 798.039 Q 6.785 797.975 6.494 797.904 Q 6.203 797.833 5.913 797.755 Q 5.624 797.678 5.336 797.594 Q 5.049 797.510 4.763 797.419 Q 4.478 797.329 4.194 797.232 Q 3.911 797.135 3.629 797.031 Q 3.348 796.928 3.069 796.818 Q 2.790 796.709 2.514 796.593 Q 2.238 796.477 1.964 796.355 Q 1.691 796.233 1.420 796.104 Q 1.149 795.976 0.881 795.842 Q 0.613 795.707 0.349 795.567 Q 0.084 795.427 -0.177 795.280 Q -0.439 795.134 -0.697 794.982 Q -0.955 794.829 -1.210 794.671 Q -1.464 794.513 -1.715 794.350 Q -1.966 794.186 -2.213 794.017 Q -2.460 793.847 -2.704 793.672 Q -2.947 793.497 -3.186 793.317 Q -3.425 793.137 -3.661 792.951 Q -3.896 792.765 -4.127 792.574 Q -4.357 792.383 -4.584 792.187 Q -4.810 791.991 -5.032 791.790 Q -5.255 791.589 -5.472 791.383 Q -5.689 791.176 -5.902 790.965 Q -6.115 790.754 -6.323 790.539 Q -6.530 790.323 -6.733 790.102 Q -6.936 789.882 -7.134 789.657 Q -7.332 789.432 -7.525 789.203 Q -7.718 788.973 -7.905 788.740 Q -8.093 788.506 -8.275 788.268 Q -8.457 788.030 -8.634 787.788 Q -8.811 787.546 -8.982 787.301 Q -9.153 787.055 -9.319 786.805 Q -9.485 786.555 -9.645 786.302 Q -9.805 786.049 -9.959 785.792 Q -10.113 785.535 -10.261 785.275 Q -10.410 785.014 -10.552 784.751 Q -10.695 784.487 -10.831 784.220 Q -10.968 783.954 -11.098 783.684 Q -11.229 783.414 -11.353 783.142 Q -11.477 782.869 -11.595 782.594 Q -11.713 782.318 -11.825 782.040 Q -11.937 781.762 -12.042 781.482 Q -12.148 781.201 -12.247 780.919 Q -12.346 780.636 -12.439 780.351 Q -12.532 780.066 -12.618 779.779 Q -12.704 779.492 -12.784 779.203 Q -12.864 778.915 -12.937 778.624 Q -13.010 778.334 -13.077 778.041 Q -13.143 777.749 -13.204 777.456 Q -13.264 777.162 -13.317 776.867 Q -13.370 776.573 -13.417 776.277 Q -13.464 775.981 -13.504 775.684 Q -13.544 775.387 -13.577 775.089 Q -13.610 774.791 -13.637 774.493 Q -13.663 774.194 -13.683 773.895 Q -13.703 773.596 -13.716 773.297 Q -13.729 772.998 -13.735 772.698 Q -13.741 772.399 -13.741 772.099 Q -13.740 771.799 -13.733 771.500 Q -13.726 771.200 -13.712 770.901 Q -13.698 770.602 -13.677 770.303 Q -13.656 770.004 -13.628 769.706 Q -13.601 769.407 -13.567 769.109 Q -13.532 768.812 -13.491 768.515 Q -13.450 768.218 -13.402 767.922 Q -13.355 767.627 -13.300 767.332 Q -13.246 767.037 -13.185 766.744 Q -13.124 766.451 -13.056 766.159 Q -12.989 765.867 -12.914 765.577 Q -12.840 765.286 -12.759 764.998 Q -12.679 764.709 -12.591 764.423 Q -12.504 764.136 -12.410 763.851 Q -12.317 763.567 -12.216 763.284 Q -12.116 763.002 -12.010 762.722 Q -11.903 762.442 -11.791 762.164 Q -11.678 761.887 -11.559 761.612 Q -11.440 761.337 -11.314 761.065 Q -11.189 760.792 -11.058 760.523 Q -10.927 760.254 -10.789 759.988 Q -10.652 759.721 -10.508 759.458 Q -10.365 759.195 -10.216 758.935 Q -10.066 758.676 -9.911 758.419 Q -9.756 758.163 -9.595 757.910 Q -9.434 757.657 -9.268 757.408 Q -9.101 757.159 -8.929 756.914 Q -8.757 756.669 -8.579 756.427 Q -8.402 756.186 -8.219 755.949 Q -8.036 755.712 -7.847 755.479 Q -7.659 755.246 -7.466 755.017 Q -7.272 754.788 -7.073 754.564 Q -6.875 754.340 -6.671 754.120 Q -6.467 753.900 -6.259 753.685 Q -6.050 753.470 -5.837 753.260 Q -5.623 753.049 -5.405 752.844 Q -5.187 752.639 -4.964 752.438 Q -4.741 752.238 -4.514 752.042 Q -4.287 751.847 -4.056 751.657 Q -3.824 751.467 -3.588 751.282 Q -3.352 751.097 -3.113 750.917 Q -2.873 750.738 -2.629 750.564 Q -2.385 750.390 -2.137 750.221 Q -1.889 750.053 -1.638 749.890 Q -1.386 749.727 -1.131 749.570 Q -0.876 749.413 -0.617 749.262 Q -0.359 749.110 -0.097 748.965 Q 0.165 748.820 0.430 748.680 Q 0.695 748.541 0.964 748.407 Q 1.232 748.274 1.503 748.146 Q 1.774 748.019 2.048 747.898 Q 2.323 747.777 2.599 747.662 Q 2.876 747.547 3.155 747.438 Q 3.434 747.329 3.716 747.227 Q 3.998 747.125 4.281 747.029 Q 4.565 746.933 4.851 746.843 Q 5.137 746.754 5.425 746.671 Q 5.713 746.588 6.003 746.511 Q 6.292 746.435 6.584 746.365 Q 6.875 746.295 7.168 746.231 Q 7.461 746.168 7.755 746.111 Q 8.049 746.055 8.345 746.005 Q 8.640 745.955 8.936 745.911 Q 9.233 745.868 9.530 745.831 Q 9.828 745.795 10.126 745.765 Q 10.424 745.735 10.723 745.712 Q 11.021 745.689 11.321 745.672 Q 11.620 745.656 11.919 745.646 Q 12.219 745.637 12.518 745.634 Q 12.818 745.631 13.118 745.635 Q 13.417 745.639 13.717 745.649 Q 14.016 745.660 14.315 745.677 Q 14.614 745.695 14.913 745.719 Q 15.212 745.743 15.510 745.774 Q 15.808 745.805 16.105 745.843 Q 16.402 745.880 16.698 745.925 Q 16.995 745.969 17.290 746.020 Q 17.585 746.071 17.879 746.129 Q 18.173 746.187 18.466 746.251 Q 18.758 746.316 19.050 746.386 Q 19.341 746.457 19.630 746.535 Q 19.920 746.612 20.207 746.696 Q 20.495 746.781 20.780 746.871 Q 21.066 746.962 21.350 747.058 Q 21.633 747.155 21.914 747.259 Q 22.196 747.362 22.474 747.472 Q 22.753 747.581 23.029 747.697 Q 23.306 747.813 23.579 747.935 Q 23.853 748.057 24.124 748.186 Q 24.395 748.314 24.662 748.448 Q 24.930 748.583 25.195 748.723 Q 25.460 748.864 25.721 749.010 Q 25.982 749.156 26.241 749.309 Q 26.499 749.461 26.753 749.619 Q 27.008 749.777 27.259 749.940 Q 27.510 750.104 27.757 750.274 Q 28.004 750.443 28.247 750.618 Q 28.491 750.793 28.730 750.973 Q 28.969 751.153 29.204 751.339 Q 29.439 751.525 29.670 751.716 Q 29.901 751.907 30.128 752.103 Q 30.354 752.299 30.576 752.500 Q 30.798 752.701 31.016 752.908 Q 31.233 753.114 31.446 753.325 Q 31.658 753.536 31.866 753.752 Q 32.074 753.967 32.277 754.188 Q 32.480 754.408 32.678 754.633 Q 32.876 754.858 33.069 755.088 Q 33.261 755.317 33.449 755.551 Q 33.636 755.784 33.819 756.022 Q 34.001 756.260 34.178 756.502 Q 34.354 756.744 34.526 756.990 Q 34.697 757.236 34.863 757.485 Q 35.028 757.735 35.188 757.988 Q 35.348 758.242 35.502 758.499 Q 35.657 758.755 35.805 759.016 Q 35.953 759.276 36.096 759.540 Q 36.238 759.803 36.375 760.070 Q 36.511 760.337 36.642 760.606 Q 36.772 760.876 36.896 761.149 Q 37.021 761.422 37.139 761.697 Q 37.257 761.972 37.369 762.250 Q 37.480 762.528 37.586 762.809 Q 37.691 763.089 37.791 763.372 Q 37.890 763.655 37.982 763.939 Q 38.075 764.224 38.161 764.511 Q 38.248 764.798 38.327 765.087 Q 38.407 765.376 38.480 765.666 Q 38.554 765.957 38.620 766.249 Q 38.687 766.541 38.747 766.835 Q 38.807 767.128 38.860 767.423 Q 38.914 767.718 38.960 768.014 Q 39.007 768.310 39.047 768.607 Q 39.087 768.904 39.120 769.202 Q 39.154 769.499 39.180 769.798 Q 39.207 770.096 39.226 770.395 Q 39.246 770.694 39.259 770.994 Q 39.272 771.293 39.278 771.592 Q 39.285 771.892 39.284 772.191 Z"></path>
    <path id="STROKE_383f433c-4549-4cc7-ba59-78184883568d" opacity="1.000" fill="none" stroke="#f9f9f1" stroke-width="2.515" stroke-opacity="1.000" stroke-linecap="round" stroke-linejoin="round" d="M 39.700 899.743 Q 39.700 900.042 39.693 900.342 Q 39.686 900.641 39.672 900.940 Q 39.658 901.240 39.638 901.539 Q 39.617 901.838 39.590 902.136 Q 39.563 902.434 39.529 902.732 Q 39.495 903.030 39.454 903.326 Q 39.413 903.623 39.366 903.919 Q 39.318 904.215 39.264 904.510 Q 39.210 904.804 39.149 905.098 Q 39.089 905.391 39.021 905.683 Q 38.954 905.975 38.880 906.265 Q 38.806 906.556 38.725 906.844 Q 38.645 907.133 38.558 907.420 Q 38.471 907.706 38.377 907.991 Q 38.284 908.276 38.184 908.558 Q 38.084 908.841 37.978 909.121 Q 37.872 909.401 37.759 909.679 Q 37.647 909.956 37.528 910.231 Q 37.409 910.507 37.284 910.779 Q 37.159 911.051 37.028 911.321 Q 36.897 911.590 36.760 911.856 Q 36.623 912.123 36.480 912.386 Q 36.336 912.649 36.187 912.909 Q 36.038 913.169 35.883 913.426 Q 35.729 913.682 35.568 913.935 Q 35.407 914.188 35.241 914.437 Q 35.075 914.686 34.903 914.932 Q 34.731 915.177 34.554 915.419 Q 34.376 915.660 34.193 915.897 Q 34.010 916.135 33.822 916.368 Q 33.634 916.601 33.441 916.830 Q 33.247 917.059 33.049 917.283 Q 32.851 917.508 32.647 917.728 Q 32.444 917.948 32.235 918.163 Q 32.027 918.378 31.813 918.589 Q 31.600 918.799 31.382 919.005 Q 31.164 919.211 30.942 919.411 Q 30.719 919.612 30.492 919.807 Q 30.265 920.003 30.034 920.193 Q 29.803 920.384 29.567 920.569 Q 29.331 920.754 29.092 920.934 Q 28.852 921.113 28.608 921.288 Q 28.364 921.462 28.117 921.631 Q 27.869 921.799 27.618 921.962 Q 27.367 922.125 27.112 922.283 Q 26.857 922.440 26.598 922.592 Q 26.340 922.743 26.078 922.889 Q 25.816 923.035 25.551 923.174 Q 25.286 923.314 25.018 923.448 Q 24.750 923.581 24.479 923.709 Q 24.207 923.837 23.934 923.958 Q 23.660 924.080 23.383 924.195 Q 23.106 924.310 22.827 924.419 Q 22.548 924.528 22.267 924.630 Q 21.985 924.733 21.701 924.829 Q 21.418 924.925 21.132 925.015 Q 20.846 925.105 20.558 925.188 Q 20.270 925.272 19.981 925.348 Q 19.691 925.425 19.400 925.495 Q 19.109 925.566 18.816 925.629 Q 18.523 925.693 18.229 925.750 Q 17.935 925.807 17.639 925.857 Q 17.344 925.907 17.047 925.951 Q 16.751 925.995 16.454 926.031 Q 16.156 926.068 15.858 926.099 Q 15.560 926.129 15.261 926.152 Q 14.963 926.176 14.664 926.192 Q 14.364 926.209 14.065 926.219 Q 13.766 926.229 13.466 926.232 Q 13.166 926.235 12.867 926.231 Q 12.567 926.228 12.268 926.217 Q 11.968 926.207 11.669 926.190 Q 11.370 926.173 11.071 926.149 Q 10.773 926.125 10.475 926.094 Q 10.177 926.064 9.879 926.026 Q 9.582 925.989 9.286 925.945 Q 8.989 925.901 8.694 925.850 Q 8.399 925.799 8.105 925.742 Q 7.811 925.684 7.518 925.620 Q 7.225 925.556 6.934 925.485 Q 6.643 925.415 6.353 925.337 Q 6.064 925.260 5.776 925.176 Q 5.489 925.093 5.203 925.002 Q 4.917 924.912 4.633 924.815 Q 4.350 924.719 4.069 924.616 Q 3.787 924.513 3.508 924.403 Q 3.229 924.294 2.953 924.178 Q 2.677 924.063 2.403 923.941 Q 2.129 923.819 1.858 923.691 Q 1.587 923.563 1.319 923.429 Q 1.051 923.294 0.787 923.154 Q 0.522 923.014 0.260 922.868 Q -0.001 922.722 -0.260 922.570 Q -0.518 922.418 -0.773 922.260 Q -1.027 922.102 -1.278 921.939 Q -1.529 921.776 -1.777 921.606 Q -2.024 921.437 -2.268 921.263 Q -2.511 921.088 -2.750 920.908 Q -2.990 920.728 -3.225 920.542 Q -3.460 920.357 -3.692 920.166 Q -3.923 919.975 -4.149 919.779 Q -4.376 919.583 -4.598 919.382 Q -4.820 919.181 -5.038 918.975 Q -5.256 918.769 -5.468 918.559 Q -5.681 918.348 -5.889 918.132 Q -6.097 917.917 -6.301 917.696 Q -6.504 917.476 -6.702 917.251 Q -6.900 917.027 -7.093 916.797 Q -7.286 916.568 -7.474 916.335 Q -7.661 916.101 -7.844 915.863 Q -8.026 915.626 -8.203 915.384 Q -8.380 915.142 -8.552 914.897 Q -8.723 914.651 -8.889 914.401 Q -9.055 914.152 -9.215 913.899 Q -9.376 913.646 -9.530 913.389 Q -9.685 913.132 -9.833 912.872 Q -9.982 912.612 -10.124 912.348 Q -10.267 912.085 -10.404 911.818 Q -10.541 911.552 -10.671 911.282 Q -10.802 911.012 -10.926 910.740 Q -11.051 910.467 -11.169 910.192 Q -11.288 909.917 -11.400 909.639 Q -11.512 909.361 -11.618 909.081 Q -11.723 908.800 -11.823 908.518 Q -11.922 908.235 -12.015 907.950 Q -12.108 907.665 -12.195 907.379 Q -12.281 907.092 -12.361 906.803 Q -12.441 906.514 -12.515 906.224 Q -12.588 905.933 -12.655 905.641 Q -12.722 905.349 -12.782 905.056 Q -12.843 904.762 -12.896 904.467 Q -12.950 904.173 -12.997 903.877 Q -13.044 903.581 -13.084 903.284 Q -13.124 902.987 -13.158 902.689 Q -13.192 902.392 -13.218 902.093 Q -13.245 901.795 -13.265 901.496 Q -13.285 901.197 -13.299 900.897 Q -13.312 900.598 -13.318 900.299 Q -13.325 899.999 -13.325 899.699 Q -13.324 899.400 -13.317 899.100 Q -13.310 898.801 -13.297 898.501 Q -13.283 898.202 -13.262 897.903 Q -13.242 897.604 -13.215 897.306 Q -13.187 897.008 -13.153 896.710 Q -13.119 896.412 -13.078 896.115 Q -13.038 895.818 -12.990 895.523 Q -12.943 895.227 -12.889 894.932 Q -12.835 894.637 -12.774 894.344 Q -12.713 894.051 -12.646 893.759 Q -12.578 893.467 -12.504 893.176 Q -12.430 892.886 -12.350 892.597 Q -12.269 892.309 -12.182 892.022 Q -12.095 891.735 -12.002 891.451 Q -11.908 891.166 -11.809 890.884 Q -11.709 890.601 -11.602 890.321 Q -11.496 890.041 -11.384 889.763 Q -11.271 889.485 -11.152 889.210 Q -11.034 888.935 -10.909 888.663 Q -10.784 888.391 -10.653 888.121 Q -10.521 887.852 -10.384 887.585 Q -10.247 887.319 -10.104 887.056 Q -9.961 886.792 -9.812 886.533 Q -9.663 886.273 -9.508 886.016 Q -9.353 885.760 -9.192 885.507 Q -9.032 885.254 -8.865 885.005 Q -8.699 884.755 -8.527 884.510 Q -8.355 884.265 -8.178 884.023 Q -8.001 883.782 -7.818 883.544 Q -7.635 883.307 -7.447 883.074 Q -7.259 882.840 -7.065 882.612 Q -6.872 882.383 -6.673 882.158 Q -6.475 881.934 -6.271 881.714 Q -6.068 881.494 -5.860 881.279 Q -5.651 881.063 -5.438 880.853 Q -5.225 880.642 -5.007 880.437 Q -4.789 880.231 -4.566 880.031 Q -4.344 879.830 -4.117 879.634 Q -3.890 879.439 -3.658 879.248 Q -3.427 879.058 -3.191 878.873 Q -2.956 878.688 -2.716 878.508 Q -2.476 878.328 -2.233 878.154 Q -1.989 877.980 -1.741 877.811 Q -1.494 877.642 -1.242 877.479 Q -0.991 877.316 -0.736 877.159 Q -0.481 877.002 -0.223 876.850 Q 0.036 876.698 0.298 876.553 Q 0.560 876.407 0.825 876.267 Q 1.090 876.128 1.358 875.994 Q 1.626 875.860 1.897 875.733 Q 2.168 875.605 2.442 875.484 Q 2.716 875.362 2.993 875.247 Q 3.269 875.132 3.548 875.023 Q 3.827 874.914 4.109 874.811 Q 4.390 874.709 4.674 874.612 Q 4.958 874.516 5.244 874.426 Q 5.530 874.337 5.817 874.253 Q 6.105 874.170 6.395 874.093 Q 6.685 874.017 6.976 873.946 Q 7.267 873.876 7.560 873.813 Q 7.853 873.749 8.147 873.692 Q 8.441 873.635 8.736 873.585 Q 9.032 873.534 9.328 873.491 Q 9.625 873.447 9.922 873.410 Q 10.219 873.373 10.517 873.343 Q 10.816 873.313 11.114 873.290 Q 11.413 873.266 11.712 873.249 Q 12.011 873.233 12.311 873.223 Q 12.610 873.213 12.910 873.210 Q 13.209 873.207 13.509 873.210 Q 13.809 873.214 14.108 873.224 Q 14.408 873.235 14.707 873.252 Q 15.006 873.269 15.304 873.293 Q 15.603 873.317 15.901 873.348 Q 16.199 873.378 16.497 873.416 Q 16.794 873.453 17.090 873.497 Q 17.387 873.541 17.682 873.592 Q 17.977 873.643 18.271 873.700 Q 18.565 873.758 18.858 873.822 Q 19.151 873.886 19.442 873.957 Q 19.733 874.027 20.022 874.104 Q 20.312 874.182 20.600 874.265 Q 20.887 874.349 21.173 874.439 Q 21.459 874.530 21.742 874.626 Q 22.026 874.723 22.307 874.826 Q 22.589 874.929 22.868 875.039 Q 23.147 875.148 23.423 875.264 Q 23.699 875.379 23.973 875.501 Q 24.247 875.623 24.518 875.751 Q 24.789 875.879 25.056 876.013 Q 25.324 876.147 25.589 876.288 Q 25.854 876.428 26.116 876.574 Q 26.377 876.720 26.635 876.872 Q 26.894 877.024 27.148 877.182 Q 27.403 877.339 27.654 877.503 Q 27.905 877.666 28.153 877.836 Q 28.400 878.005 28.643 878.179 Q 28.887 878.354 29.126 878.534 Q 29.366 878.714 29.601 878.900 Q 29.836 879.085 30.067 879.276 Q 30.298 879.467 30.525 879.663 Q 30.752 879.859 30.974 880.060 Q 31.196 880.261 31.414 880.467 Q 31.631 880.673 31.844 880.883 Q 32.057 881.094 32.265 881.310 Q 32.473 881.525 32.676 881.746 Q 32.880 881.966 33.078 882.191 Q 33.276 882.416 33.469 882.645 Q 33.662 882.874 33.850 883.107 Q 34.037 883.341 34.220 883.579 Q 34.402 883.816 34.579 884.058 Q 34.756 884.300 34.928 884.545 Q 35.099 884.791 35.265 885.041 Q 35.431 885.290 35.591 885.543 Q 35.751 885.797 35.906 886.053 Q 36.060 886.310 36.209 886.570 Q 36.358 886.830 36.500 887.094 Q 36.643 887.357 36.780 887.624 Q 36.916 887.891 37.047 888.160 Q 37.178 888.430 37.302 888.702 Q 37.427 888.975 37.545 889.250 Q 37.663 889.525 37.775 889.803 Q 37.888 890.081 37.993 890.361 Q 38.099 890.642 38.199 890.924 Q 38.298 891.207 38.391 891.492 Q 38.484 891.777 38.570 892.064 Q 38.657 892.350 38.737 892.639 Q 38.817 892.928 38.891 893.218 Q 38.964 893.509 39.031 893.801 Q 39.098 894.093 39.158 894.387 Q 39.218 894.680 39.272 894.975 Q 39.326 895.270 39.373 895.566 Q 39.420 895.861 39.460 896.158 Q 39.500 896.455 39.534 896.753 Q 39.567 897.051 39.594 897.349 Q 39.621 897.648 39.641 897.947 Q 39.661 898.245 39.674 898.545 Q 39.688 898.844 39.694 899.144 Q 39.701 899.443 39.700 899.743 Z"></path>
    <path id="STROKE_dfa8e5ae-9e7c-4038-8aea-6d6a2c87bb78" opacity="1.000" fill="none" stroke="#f9f9f1" stroke-width="2.515" stroke-opacity="1.000" stroke-linecap="round" stroke-linejoin="round" d="M 202.505 770.828 Q 202.506 771.128 202.500 771.427 Q 202.494 771.727 202.481 772.026 Q 202.468 772.325 202.449 772.624 Q 202.429 772.923 202.403 773.222 Q 202.376 773.520 202.343 773.818 Q 202.310 774.116 202.270 774.413 Q 202.230 774.710 202.184 775.006 Q 202.137 775.302 202.084 775.597 Q 202.031 775.891 201.971 776.185 Q 201.911 776.479 201.845 776.771 Q 201.778 777.063 201.705 777.354 Q 201.632 777.644 201.552 777.933 Q 201.473 778.222 201.387 778.509 Q 201.301 778.796 201.208 779.081 Q 201.115 779.366 201.016 779.648 Q 200.917 779.931 200.812 780.212 Q 200.707 780.492 200.595 780.770 Q 200.483 781.048 200.365 781.324 Q 200.248 781.599 200.123 781.872 Q 199.999 782.145 199.869 782.414 Q 199.739 782.684 199.602 782.951 Q 199.466 783.218 199.324 783.482 Q 199.182 783.745 199.033 784.006 Q 198.885 784.266 198.731 784.523 Q 198.577 784.780 198.417 785.033 Q 198.257 785.287 198.092 785.536 Q 197.926 785.786 197.755 786.032 Q 197.584 786.278 197.407 786.520 Q 197.231 786.762 197.048 787.000 Q 196.866 787.238 196.679 787.472 Q 196.492 787.706 196.299 787.935 Q 196.106 788.165 195.908 788.390 Q 195.711 788.615 195.508 788.835 Q 195.305 789.056 195.097 789.272 Q 194.890 789.488 194.677 789.699 Q 194.464 789.910 194.247 790.116 Q 194.030 790.323 193.808 790.524 Q 193.586 790.725 193.360 790.921 Q 193.133 791.118 192.902 791.309 Q 192.672 791.500 192.437 791.686 Q 192.202 791.872 191.962 792.052 Q 191.723 792.232 191.480 792.407 Q 191.237 792.583 190.990 792.752 Q 190.743 792.922 190.492 793.085 Q 190.241 793.249 189.987 793.407 Q 189.732 793.565 189.474 793.718 Q 189.216 793.870 188.955 794.017 Q 188.693 794.163 188.429 794.304 Q 188.164 794.444 187.896 794.579 Q 187.629 794.713 187.358 794.842 Q 187.087 794.970 186.814 795.093 Q 186.540 795.215 186.264 795.331 Q 185.988 795.447 185.709 795.557 Q 185.430 795.667 185.149 795.770 Q 184.868 795.873 184.584 795.971 Q 184.301 796.068 184.015 796.158 Q 183.730 796.249 183.442 796.333 Q 183.155 796.417 182.865 796.495 Q 182.576 796.573 182.285 796.644 Q 181.994 796.715 181.701 796.779 Q 181.409 796.844 181.115 796.902 Q 180.821 796.960 180.525 797.011 Q 180.230 797.062 179.934 797.107 Q 179.638 797.151 179.340 797.189 Q 179.043 797.227 178.745 797.258 Q 178.447 797.289 178.149 797.313 Q 177.850 797.338 177.551 797.355 Q 177.252 797.373 176.952 797.384 Q 176.653 797.395 176.353 797.399 Q 176.054 797.403 175.754 797.400 Q 175.454 797.397 175.155 797.388 Q 174.855 797.379 174.556 797.362 Q 174.257 797.346 173.958 797.323 Q 173.660 797.300 173.362 797.270 Q 173.063 797.241 172.766 797.204 Q 172.469 797.168 172.172 797.125 Q 171.876 797.081 171.580 797.031 Q 171.285 796.982 170.990 796.925 Q 170.696 796.869 170.403 796.805 Q 170.110 796.742 169.819 796.672 Q 169.528 796.603 169.238 796.526 Q 168.948 796.450 168.660 796.367 Q 168.372 796.284 168.086 796.195 Q 167.800 796.106 167.516 796.010 Q 167.233 795.914 166.951 795.812 Q 166.669 795.710 166.390 795.601 Q 166.111 795.493 165.834 795.378 Q 165.557 795.263 165.283 795.142 Q 165.009 795.021 164.738 794.894 Q 164.466 794.766 164.198 794.633 Q 163.930 794.500 163.665 794.361 Q 163.399 794.221 163.137 794.076 Q 162.875 793.931 162.616 793.779 Q 162.358 793.628 162.103 793.471 Q 161.847 793.314 161.596 793.152 Q 161.344 792.989 161.096 792.821 Q 160.848 792.652 160.604 792.478 Q 160.360 792.304 160.120 792.125 Q 159.880 791.946 159.645 791.761 Q 159.409 791.576 159.177 791.386 Q 158.945 791.196 158.718 791.001 Q 158.491 790.806 158.268 790.605 Q 158.045 790.405 157.827 790.200 Q 157.609 789.994 157.395 789.784 Q 157.182 789.574 156.973 789.359 Q 156.764 789.144 156.560 788.925 Q 156.357 788.705 156.158 788.481 Q 155.959 788.257 155.765 788.028 Q 155.572 787.799 155.383 787.567 Q 155.195 787.334 155.011 787.096 Q 154.828 786.859 154.650 786.618 Q 154.473 786.377 154.300 786.132 Q 154.128 785.887 153.961 785.638 Q 153.795 785.389 153.634 785.136 Q 153.473 784.883 153.318 784.627 Q 153.162 784.371 153.013 784.111 Q 152.863 783.851 152.720 783.588 Q 152.576 783.325 152.439 783.059 Q 152.301 782.793 152.170 782.524 Q 152.038 782.255 151.913 781.982 Q 151.788 781.710 151.668 781.435 Q 151.549 781.161 151.436 780.883 Q 151.323 780.606 151.217 780.326 Q 151.110 780.046 151.010 779.763 Q 150.909 779.481 150.816 779.196 Q 150.722 778.912 150.634 778.625 Q 150.547 778.339 150.466 778.050 Q 150.385 777.762 150.311 777.471 Q 150.236 777.181 150.168 776.889 Q 150.100 776.597 150.039 776.304 Q 149.978 776.011 149.924 775.716 Q 149.869 775.422 149.821 775.126 Q 149.773 774.830 149.732 774.533 Q 149.691 774.237 149.656 773.939 Q 149.622 773.641 149.594 773.343 Q 149.566 773.045 149.545 772.746 Q 149.524 772.447 149.510 772.148 Q 149.496 771.848 149.489 771.549 Q 149.481 771.249 149.480 770.950 Q 149.480 770.650 149.486 770.350 Q 149.492 770.051 149.505 769.751 Q 149.518 769.452 149.537 769.153 Q 149.557 768.854 149.583 768.556 Q 149.610 768.257 149.643 767.959 Q 149.676 767.662 149.716 767.365 Q 149.755 767.068 149.802 766.772 Q 149.848 766.476 149.902 766.181 Q 149.955 765.886 150.015 765.592 Q 150.075 765.299 150.141 765.007 Q 150.208 764.715 150.281 764.424 Q 150.354 764.133 150.433 763.844 Q 150.513 763.556 150.599 763.269 Q 150.685 762.982 150.778 762.697 Q 150.870 762.412 150.969 762.129 Q 151.068 761.846 151.174 761.566 Q 151.279 761.285 151.391 761.007 Q 151.502 760.729 151.620 760.454 Q 151.738 760.178 151.862 759.906 Q 151.986 759.633 152.117 759.363 Q 152.247 759.093 152.383 758.826 Q 152.520 758.560 152.662 758.296 Q 152.804 758.032 152.952 757.772 Q 153.101 757.511 153.255 757.255 Q 153.409 756.997 153.569 756.744 Q 153.729 756.491 153.894 756.241 Q 154.060 755.991 154.231 755.745 Q 154.402 755.499 154.579 755.257 Q 154.755 755.015 154.937 754.777 Q 155.119 754.539 155.307 754.306 Q 155.494 754.072 155.687 753.842 Q 155.879 753.613 156.077 753.388 Q 156.275 753.163 156.478 752.942 Q 156.681 752.722 156.888 752.506 Q 157.096 752.290 157.309 752.079 Q 157.521 751.868 157.739 751.661 Q 157.956 751.455 158.178 751.254 Q 158.400 751.052 158.626 750.856 Q 158.852 750.660 159.083 750.469 Q 159.314 750.278 159.549 750.092 Q 159.784 749.906 160.023 749.725 Q 160.262 749.545 160.506 749.370 Q 160.749 749.195 160.996 749.025 Q 161.243 748.856 161.494 748.692 Q 161.745 748.528 161.999 748.370 Q 162.254 748.212 162.512 748.060 Q 162.770 747.907 163.031 747.761 Q 163.292 747.614 163.557 747.474 Q 163.822 747.333 164.089 747.199 Q 164.357 747.064 164.628 746.936 Q 164.898 746.807 165.172 746.685 Q 165.446 746.563 165.722 746.447 Q 165.998 746.331 166.277 746.221 Q 166.556 746.111 166.837 746.007 Q 167.118 745.904 167.401 745.807 Q 167.685 745.710 167.970 745.619 Q 168.256 745.528 168.544 745.444 Q 168.831 745.360 169.121 745.282 Q 169.410 745.205 169.701 745.134 Q 169.992 745.062 170.285 744.998 Q 170.577 744.933 170.871 744.876 Q 171.165 744.818 171.460 744.766 Q 171.756 744.715 172.052 744.671 Q 172.348 744.626 172.645 744.588 Q 172.943 744.551 173.241 744.519 Q 173.539 744.488 173.837 744.464 Q 174.136 744.440 174.435 744.422 Q 174.734 744.404 175.034 744.394 Q 175.333 744.383 175.633 744.379 Q 175.932 744.375 176.232 744.377 Q 176.531 744.380 176.831 744.389 Q 177.130 744.399 177.430 744.415 Q 177.729 744.431 178.028 744.454 Q 178.326 744.477 178.624 744.507 Q 178.923 744.537 179.220 744.573 Q 179.517 744.610 179.814 744.653 Q 180.110 744.696 180.406 744.746 Q 180.701 744.796 180.995 744.852 Q 181.290 744.909 181.583 744.972 Q 181.876 745.035 182.167 745.105 Q 182.458 745.175 182.748 745.251 Q 183.038 745.328 183.326 745.410 Q 183.614 745.493 183.900 745.583 Q 184.186 745.672 184.470 745.768 Q 184.753 745.864 185.035 745.966 Q 185.317 746.068 185.596 746.177 Q 185.875 746.285 186.152 746.400 Q 186.429 746.515 186.703 746.636 Q 186.977 746.757 187.248 746.884 Q 187.520 747.011 187.788 747.144 Q 188.056 747.278 188.322 747.417 Q 188.587 747.556 188.849 747.702 Q 189.111 747.847 189.370 747.998 Q 189.628 748.149 189.883 748.306 Q 190.139 748.463 190.390 748.626 Q 190.642 748.789 190.890 748.957 Q 191.138 749.125 191.382 749.299 Q 191.626 749.473 191.866 749.653 Q 192.106 749.832 192.341 750.017 Q 192.577 750.201 192.809 750.392 Q 193.041 750.582 193.268 750.777 Q 193.495 750.972 193.718 751.172 Q 193.941 751.373 194.159 751.578 Q 194.377 751.783 194.591 751.993 Q 194.804 752.204 195.013 752.419 Q 195.222 752.634 195.426 752.853 Q 195.629 753.073 195.828 753.297 Q 196.027 753.521 196.221 753.750 Q 196.414 753.978 196.603 754.211 Q 196.791 754.444 196.975 754.681 Q 197.158 754.918 197.336 755.160 Q 197.513 755.401 197.686 755.646 Q 197.858 755.891 198.024 756.140 Q 198.191 756.389 198.352 756.642 Q 198.513 756.894 198.668 757.151 Q 198.824 757.407 198.973 757.667 Q 199.123 757.926 199.266 758.189 Q 199.410 758.452 199.547 758.719 Q 199.685 758.985 199.816 759.254 Q 199.948 759.523 200.073 759.795 Q 200.198 760.068 200.318 760.342 Q 200.437 760.617 200.550 760.895 Q 200.663 761.172 200.769 761.452 Q 200.876 761.732 200.976 762.015 Q 201.076 762.297 201.170 762.582 Q 201.264 762.866 201.352 763.153 Q 201.439 763.439 201.520 763.728 Q 201.601 764.016 201.675 764.307 Q 201.750 764.597 201.818 764.889 Q 201.885 765.181 201.947 765.474 Q 202.008 765.767 202.062 766.062 Q 202.117 766.356 202.165 766.652 Q 202.213 766.948 202.254 767.245 Q 202.295 767.542 202.329 767.839 Q 202.364 768.137 202.392 768.435 Q 202.419 768.733 202.440 769.032 Q 202.461 769.331 202.476 769.630 Q 202.490 769.930 202.497 770.229 Q 202.505 770.529 202.505 770.828 Z"></path>
    <path id="STROKE_7dfa5ab4-ea6e-49a2-a9b9-3223e5624b3d" opacity="1.000" fill="none" stroke="#f9f9f1" stroke-width="2.515" stroke-opacity="1.000" stroke-linecap="round" stroke-linejoin="round" d="M -118.399 658.508 L -1.585 744.574 "></path>
    <path id="STROKE_0020feeb-7beb-42c1-a2ca-9d5a19bea940" opacity="1.000" fill="none" stroke="#f9f9f1" stroke-width="2.515" stroke-opacity="1.000" stroke-linecap="round" stroke-linejoin="round" d="M -109.855 636.710 L -14.822 637.589 "></path>
    <path id="STROKE_10050ac6-f020-4f8c-be28-7c89f4f723ff" opacity="1.000" fill="none" stroke="#f9f9f1" stroke-width="2.515" stroke-opacity="1.000" stroke-linecap="round" stroke-linejoin="round" d="M -129.121 656.919 L -6.847 871.774 "></path>
    <path id="STROKE_004f027c-e5fb-4458-928f-31cedda70ba1" opacity="1.000" fill="none" stroke="#f9f9f1" stroke-width="2.515" stroke-opacity="1.000" stroke-linecap="round" stroke-linejoin="round" d="M -116.678 769.266 L -20.123 772.069 "></path>
    <path id="STROKE_9838c010-111e-4b44-bc3c-d91a832d8648" opacity="1.000" fill="none" stroke="#f9f9f1" stroke-width="2.515" stroke-opacity="1.000" stroke-linecap="round" stroke-linejoin="round" d="M -118.507 899.549 L -18.489 899.687 "></path>
    <path id="STROKE_7ad2fff7-ea66-4c5b-9178-e0d6ee3388ea" opacity="1.000" fill="none" stroke="#f9f9f1" stroke-width="2.515" stroke-opacity="1.000" stroke-linecap="round" stroke-linejoin="round" d="M -121.086 879.608 L -9.999 667.888 "></path>
    <path id="STROKE_7e0fef1f-5231-4b1f-94b1-518c5ffd65ac" opacity="1.000" fill="none" stroke="#f9f9f1" stroke-width="2.515" stroke-opacity="1.000" stroke-linecap="round" stroke-linejoin="round" d="M -120.019 748.555 L -15.327 660.962 "></path>
    <path id="STROKE_fe0cd8b1-2efe-4ea5-ba62-4fae566d2a97" opacity="1.000" fill="none" stroke="#f9f9f1" stroke-width="2.515" stroke-opacity="1.000" stroke-linecap="round" stroke-linejoin="round" d="M -120.570 780.742 L -20.283 876.302 "></path>
    <path id="STROKE_ed0c860d-6cb7-49e8-a0cb-7c1ea962fef3" opacity="1.000" fill="none" stroke="#f9f9f1" stroke-width="2.515" stroke-opacity="1.000" stroke-linecap="round" stroke-linejoin="round" d="M 40.664 652.824 L 152.846 745.380 "></path>
    <path id="STROKE_7cdfdbc9-85df-47ee-938f-cb86ac40d1b3" opacity="1.000" fill="none" stroke="#f9f9f1" stroke-width="2.515" stroke-opacity="1.000" stroke-linecap="round" stroke-linejoin="round" d="M 48.099 770.126 L 138.908 772.516 "></path>
    <path id="STROKE_c414775a-f603-4418-b98e-cbcdee777f6d" opacity="1.000" fill="none" stroke="#f9f9f1" stroke-width="2.515" stroke-opacity="1.000" stroke-linecap="round" stroke-linejoin="round" d="M 49.396 888.928 L 145.676 797.460 "></path>
  </g>
</svg>