<?xml version="1.0" encoding="UTF-8" standalone="yes"?>
<svg xmlns="http://www.w3.org/2000/svg" xmlns:xlink="http://www.w3.org/1999/xlink" width="1920.000px" height="1080.000px" version="1.1" viewBox="-415.838 480.424 853.333 480.000">
  <!--
	Exported with Concepts: Smarter Sketching
	Version: 2024.11 on Android 13
	https://concepts.app/
	-->
  <title>Node Features Example</title>
  <desc>Drawing exported from Concepts: Smarter Sketching</desc>
  <defs></defs>
  <g id="Pen" opacity="1.000">
    <path id="STROKE_9bb4d267-b962-4c98-84fe-f778dff0d1bd" opacity="1.000" fill="none" stroke="#f9f9f1" stroke-width="0.921" stroke-opacity="1.000" stroke-linecap="round" stroke-linejoin="round" d="M -38.724 631.222 Q -38.534 631.224 -38.343 631.222 Q -38.153 631.221 -37.962 631.217 Q -37.772 631.212 -37.582 631.204 Q -37.392 631.196 -37.202 631.185 Q -37.011 631.174 -36.822 631.159 Q -36.632 631.144 -36.442 631.127 Q -36.253 631.109 -36.063 631.087 Q -35.874 631.066 -35.685 631.042 Q -35.496 631.017 -35.308 630.990 Q -35.120 630.962 -34.932 630.931 Q -34.744 630.900 -34.557 630.865 Q -34.369 630.831 -34.183 630.793 Q -33.996 630.756 -33.810 630.715 Q -33.624 630.674 -33.439 630.630 Q -33.253 630.586 -33.069 630.538 Q -32.885 630.491 -32.701 630.441 Q -32.517 630.390 -32.335 630.336 Q -32.152 630.283 -31.970 630.226 Q -31.788 630.169 -31.608 630.109 Q -31.427 630.049 -31.247 629.985 Q -31.068 629.922 -30.889 629.856 Q -30.711 629.789 -30.534 629.720 Q -30.356 629.651 -30.180 629.578 Q -30.004 629.506 -29.829 629.430 Q -29.655 629.354 -29.481 629.276 Q -29.308 629.197 -29.136 629.115 Q -28.964 629.034 -28.793 628.949 Q -28.622 628.865 -28.453 628.777 Q -28.284 628.689 -28.117 628.599 Q -27.949 628.508 -27.783 628.415 Q -27.617 628.321 -27.453 628.225 Q -27.289 628.129 -27.126 628.029 Q -26.964 627.930 -26.803 627.828 Q -26.642 627.726 -26.483 627.621 Q -26.324 627.517 -26.167 627.409 Q -26.010 627.302 -25.855 627.191 Q -25.699 627.081 -25.546 626.968 Q -25.393 626.855 -25.242 626.739 Q -25.090 626.624 -24.941 626.505 Q -24.792 626.387 -24.645 626.266 Q -24.497 626.146 -24.352 626.022 Q -24.207 625.899 -24.064 625.773 Q -23.922 625.647 -23.781 625.519 Q -23.640 625.390 -23.502 625.259 Q -23.364 625.129 -23.227 624.995 Q -23.091 624.862 -22.958 624.727 Q -22.824 624.591 -22.693 624.453 Q -22.561 624.315 -22.432 624.175 Q -22.303 624.035 -22.177 623.893 Q -22.050 623.750 -21.927 623.606 Q -21.803 623.461 -21.681 623.314 Q -21.560 623.168 -21.441 623.019 Q -21.322 622.870 -21.206 622.719 Q -21.090 622.568 -20.976 622.416 Q -20.863 622.263 -20.752 622.108 Q -20.641 621.953 -20.533 621.796 Q -20.424 621.640 -20.319 621.481 Q -20.214 621.323 -20.111 621.162 Q -20.008 621.002 -19.909 620.839 Q -19.809 620.677 -19.712 620.513 Q -19.615 620.350 -19.521 620.184 Q -19.427 620.018 -19.336 619.851 Q -19.244 619.684 -19.156 619.515 Q -19.068 619.347 -18.983 619.176 Q -18.897 619.006 -18.815 618.834 Q -18.733 618.663 -18.653 618.490 Q -18.574 618.316 -18.498 618.142 Q -18.421 617.967 -18.348 617.792 Q -18.275 617.616 -18.205 617.439 Q -18.135 617.262 -18.068 617.083 Q -18.001 616.905 -17.937 616.726 Q -17.873 616.547 -17.812 616.366 Q -17.751 616.186 -17.694 616.004 Q -17.636 615.823 -17.582 615.640 Q -17.527 615.458 -17.476 615.274 Q -17.425 615.091 -17.377 614.907 Q -17.329 614.722 -17.284 614.537 Q -17.239 614.352 -17.198 614.166 Q -17.156 613.980 -17.118 613.794 Q -17.079 613.607 -17.044 613.420 Q -17.009 613.233 -16.977 613.045 Q -16.946 612.858 -16.917 612.669 Q -16.889 612.481 -16.863 612.292 Q -16.838 612.104 -16.816 611.914 Q -16.794 611.725 -16.776 611.536 Q -16.757 611.346 -16.742 611.156 Q -16.726 610.967 -16.714 610.776 Q -16.702 610.586 -16.694 610.396 Q -16.685 610.206 -16.680 610.016 Q -16.674 609.825 -16.672 609.635 Q -16.670 609.445 -16.672 609.254 Q -16.673 609.064 -16.678 608.873 Q -16.682 608.683 -16.690 608.493 Q -16.698 608.302 -16.709 608.112 Q -16.721 607.922 -16.735 607.732 Q -16.750 607.542 -16.768 607.353 Q -16.785 607.163 -16.807 606.974 Q -16.828 606.785 -16.852 606.596 Q -16.877 606.407 -16.905 606.219 Q -16.932 606.030 -16.963 605.843 Q -16.995 605.655 -17.029 605.467 Q -17.063 605.280 -17.101 605.093 Q -17.138 604.907 -17.179 604.721 Q -17.220 604.535 -17.264 604.349 Q -17.308 604.164 -17.356 603.980 Q -17.403 603.795 -17.454 603.612 Q -17.504 603.428 -17.558 603.245 Q -17.612 603.063 -17.668 602.881 Q -17.725 602.699 -17.785 602.519 Q -17.846 602.338 -17.909 602.158 Q -17.972 601.979 -18.038 601.800 Q -18.105 601.622 -18.174 601.444 Q -18.244 601.267 -18.316 601.091 Q -18.389 600.915 -18.464 600.740 Q -18.540 600.565 -18.618 600.392 Q -18.697 600.219 -18.779 600.046 Q -18.860 599.874 -18.945 599.704 Q -19.030 599.533 -19.117 599.364 Q -19.205 599.195 -19.295 599.028 Q -19.386 598.860 -19.479 598.694 Q -19.573 598.528 -19.669 598.364 Q -19.765 598.200 -19.865 598.037 Q -19.964 597.875 -20.066 597.714 Q -20.168 597.553 -20.273 597.394 Q -20.377 597.235 -20.485 597.078 Q -20.593 596.921 -20.703 596.766 Q -20.813 596.610 -20.926 596.457 Q -21.039 596.304 -21.155 596.152 Q -21.270 596.001 -21.389 595.852 Q -21.507 595.703 -21.628 595.555 Q -21.749 595.408 -21.872 595.263 Q -21.995 595.118 -22.121 594.975 Q -22.247 594.832 -22.376 594.692 Q -22.504 594.551 -22.635 594.413 Q -22.766 594.274 -22.899 594.138 Q -23.032 594.002 -23.168 593.868 Q -23.303 593.735 -23.441 593.603 Q -23.579 593.472 -23.719 593.343 Q -23.859 593.214 -24.001 593.088 Q -24.144 592.961 -24.288 592.837 Q -24.433 592.713 -24.580 592.592 Q -24.726 592.471 -24.875 592.352 Q -25.024 592.233 -25.175 592.117 Q -25.326 592.000 -25.479 591.887 Q -25.631 591.773 -25.786 591.662 Q -25.941 591.552 -26.098 591.443 Q -26.254 591.335 -26.413 591.230 Q -26.572 591.125 -26.732 591.022 Q -26.892 590.919 -27.055 590.819 Q -27.217 590.720 -27.381 590.623 Q -27.545 590.526 -27.710 590.432 Q -27.876 590.338 -28.043 590.246 Q -28.210 590.155 -28.379 590.067 Q -28.548 589.979 -28.718 589.893 Q -28.888 589.808 -29.060 589.726 Q -29.231 589.643 -29.405 589.564 Q -29.578 589.485 -29.752 589.409 Q -29.927 589.332 -30.102 589.259 Q -30.278 589.186 -30.455 589.116 Q -30.632 589.046 -30.811 588.979 Q -30.989 588.911 -31.168 588.848 Q -31.348 588.784 -31.528 588.723 Q -31.709 588.662 -31.890 588.605 Q -32.072 588.547 -32.254 588.492 Q -32.436 588.438 -32.620 588.387 Q -32.803 588.336 -32.988 588.288 Q -33.172 588.240 -33.357 588.195 Q -33.542 588.150 -33.728 588.108 Q -33.914 588.067 -34.100 588.028 Q -34.287 587.990 -34.474 587.955 Q -34.661 587.920 -34.849 587.888 Q -35.037 587.856 -35.225 587.828 Q -35.413 587.799 -35.602 587.774 Q -35.791 587.749 -35.980 587.727 Q -36.169 587.705 -36.358 587.686 Q -36.548 587.668 -36.738 587.653 Q -36.928 587.637 -37.118 587.625 Q -37.308 587.613 -37.498 587.605 Q -37.688 587.596 -37.878 587.591 Q -38.069 587.585 -38.259 587.583 Q -38.450 587.581 -38.640 587.582 Q -38.830 587.584 -39.021 587.588 Q -39.211 587.593 -39.401 587.601 Q -39.592 587.609 -39.782 587.620 Q -39.972 587.631 -40.162 587.646 Q -40.352 587.661 -40.541 587.678 Q -40.731 587.696 -40.920 587.718 Q -41.109 587.739 -41.298 587.763 Q -41.487 587.788 -41.675 587.815 Q -41.864 587.843 -42.052 587.874 Q -42.239 587.905 -42.427 587.940 Q -42.614 587.974 -42.801 588.012 Q -42.987 588.049 -43.173 588.090 Q -43.359 588.131 -43.545 588.175 Q -43.730 588.219 -43.914 588.266 Q -44.099 588.314 -44.282 588.364 Q -44.466 588.415 -44.649 588.469 Q -44.831 588.522 -45.013 588.579 Q -45.195 588.636 -45.376 588.696 Q -45.556 588.756 -45.736 588.820 Q -45.915 588.883 -46.094 588.949 Q -46.272 589.015 -46.450 589.085 Q -46.627 589.154 -46.803 589.227 Q -46.979 589.299 -47.154 589.375 Q -47.329 589.451 -47.502 589.529 Q -47.676 589.608 -47.848 589.690 Q -48.020 589.771 -48.190 589.856 Q -48.361 589.940 -48.530 590.028 Q -48.699 590.116 -48.867 590.206 Q -49.034 590.297 -49.200 590.390 Q -49.366 590.484 -49.530 590.580 Q -49.694 590.676 -49.857 590.775 Q -50.020 590.875 -50.180 590.977 Q -50.341 591.079 -50.500 591.183 Q -50.659 591.288 -50.816 591.396 Q -50.973 591.503 -51.129 591.614 Q -51.284 591.724 -51.437 591.837 Q -51.590 591.950 -51.742 592.066 Q -51.893 592.181 -52.042 592.299 Q -52.192 592.418 -52.339 592.539 Q -52.486 592.659 -52.631 592.783 Q -52.776 592.906 -52.919 593.032 Q -53.062 593.158 -53.202 593.286 Q -53.343 593.415 -53.481 593.546 Q -53.620 593.676 -53.756 593.810 Q -53.892 593.943 -54.026 594.078 Q -54.159 594.214 -54.291 594.352 Q -54.422 594.490 -54.551 594.630 Q -54.680 594.770 -54.806 594.912 Q -54.933 595.055 -55.057 595.199 Q -55.181 595.344 -55.302 595.490 Q -55.424 595.637 -55.542 595.786 Q -55.661 595.935 -55.777 596.086 Q -55.894 596.237 -56.007 596.389 Q -56.121 596.542 -56.232 596.697 Q -56.343 596.852 -56.451 597.009 Q -56.559 597.165 -56.664 597.324 Q -56.770 597.482 -56.872 597.643 Q -56.975 597.803 -57.075 597.965 Q -57.175 598.128 -57.271 598.292 Q -57.368 598.455 -57.463 598.621 Q -57.557 598.786 -57.648 598.954 Q -57.739 599.121 -57.827 599.290 Q -57.916 599.458 -58.001 599.629 Q -58.086 599.799 -58.168 599.971 Q -58.251 600.142 -58.330 600.315 Q -58.409 600.489 -58.486 600.663 Q -58.562 600.838 -58.635 601.013 Q -58.708 601.189 -58.778 601.366 Q -58.849 601.543 -58.916 601.721 Q -58.983 601.900 -59.047 602.079 Q -59.110 602.258 -59.171 602.439 Q -59.232 602.619 -59.290 602.801 Q -59.347 602.982 -59.402 603.165 Q -59.456 603.347 -59.507 603.531 Q -59.559 603.714 -59.607 603.898 Q -59.655 604.083 -59.699 604.268 Q -59.744 604.453 -59.786 604.639 Q -59.827 604.824 -59.866 605.011 Q -59.904 605.198 -59.939 605.385 Q -59.974 605.572 -60.006 605.760 Q -60.038 605.947 -60.066 606.136 Q -60.095 606.324 -60.120 606.513 Q -60.145 606.701 -60.167 606.891 Q -60.189 607.080 -60.208 607.269 Q -60.226 607.459 -60.242 607.649 Q -60.257 607.838 -60.269 608.028 Q -60.281 608.218 -60.290 608.409 Q -60.298 608.599 -60.304 608.789 Q -60.309 608.980 -60.311 609.170 Q -60.313 609.360 -60.312 609.551 Q -60.310 609.741 -60.306 609.932 Q -60.301 610.122 -60.293 610.312 Q -60.285 610.503 -60.274 610.693 Q -60.263 610.883 -60.248 611.073 Q -60.234 611.262 -60.216 611.452 Q -60.198 611.642 -60.177 611.831 Q -60.155 612.020 -60.131 612.209 Q -60.106 612.398 -60.079 612.586 Q -60.051 612.775 -60.020 612.962 Q -59.989 613.150 -59.954 613.338 Q -59.920 613.525 -59.882 613.712 Q -59.845 613.898 -59.804 614.084 Q -59.763 614.270 -59.719 614.456 Q -59.675 614.641 -59.628 614.825 Q -59.580 615.010 -59.530 615.193 Q -59.479 615.377 -59.426 615.560 Q -59.372 615.742 -59.315 615.924 Q -59.258 616.106 -59.198 616.286 Q -59.138 616.467 -59.075 616.647 Q -59.011 616.826 -58.945 617.005 Q -58.879 617.183 -58.809 617.361 Q -58.740 617.538 -58.667 617.714 Q -58.595 617.890 -58.519 618.065 Q -58.444 618.240 -58.365 618.413 Q -58.286 618.586 -58.205 618.758 Q -58.123 618.931 -58.038 619.101 Q -57.954 619.272 -57.866 619.441 Q -57.778 619.610 -57.688 619.777 Q -57.597 619.945 -57.504 620.111 Q -57.411 620.277 -57.314 620.441 Q -57.218 620.605 -57.119 620.768 Q -57.019 620.930 -56.917 621.091 Q -56.815 621.252 -56.711 621.411 Q -56.606 621.570 -56.498 621.727 Q -56.391 621.884 -56.280 622.039 Q -56.170 622.195 -56.057 622.348 Q -55.944 622.501 -55.829 622.653 Q -55.713 622.804 -55.595 622.953 Q -55.476 623.102 -55.356 623.250 Q -55.235 623.397 -55.111 623.542 Q -54.988 623.687 -54.862 623.830 Q -54.736 623.973 -54.608 624.113 Q -54.479 624.254 -54.349 624.392 Q -54.218 624.531 -54.085 624.667 Q -53.951 624.803 -53.816 624.936 Q -53.680 625.070 -53.542 625.202 Q -53.405 625.333 -53.264 625.462 Q -53.124 625.591 -52.982 625.717 Q -52.839 625.844 -52.695 625.968 Q -52.550 626.092 -52.404 626.213 Q -52.257 626.334 -52.108 626.453 Q -51.959 626.572 -51.808 626.688 Q -51.658 626.804 -51.505 626.918 Q -51.352 627.032 -51.197 627.142 Q -51.042 627.253 -50.886 627.362 Q -50.729 627.470 -50.570 627.575 Q -50.412 627.680 -50.251 627.783 Q -50.091 627.886 -49.929 627.986 Q -49.767 628.085 -49.603 628.182 Q -49.439 628.279 -49.273 628.373 Q -49.108 628.467 -48.940 628.559 Q -48.773 628.650 -48.605 628.738 Q -48.436 628.826 -48.266 628.912 Q -48.095 628.997 -47.924 629.079 Q -47.752 629.162 -47.579 629.241 Q -47.406 629.320 -47.231 629.396 Q -47.057 629.473 -46.881 629.546 Q -46.705 629.619 -46.528 629.689 Q -46.351 629.759 -46.173 629.826 Q -45.994 629.893 -45.815 629.957 Q -45.636 630.021 -45.455 630.082 Q -45.275 630.143 -45.093 630.200 Q -44.912 630.258 -44.729 630.312 Q -44.547 630.367 -44.363 630.418 Q -44.180 630.469 -43.996 630.517 Q -43.812 630.565 -43.626 630.610 Q -43.441 630.655 -43.256 630.697 Q -43.070 630.738 -42.883 630.776 Q -42.697 630.815 -42.509 630.850 Q -42.322 630.885 -42.135 630.917 Q -41.947 630.949 -41.759 630.977 Q -41.570 631.006 -41.381 631.031 Q -41.193 631.056 -41.004 631.078 Q -40.814 631.100 -40.625 631.118 Q -40.435 631.137 -40.246 631.152 Q -40.056 631.168 -39.866 631.180 Q -39.676 631.192 -39.485 631.200 Q -39.295 631.209 -39.105 631.214 Q -38.915 631.220 -38.724 631.222 Z"></path>
    <path id="STROKE_3c77941f-6e56-4fce-a3ce-9d92bccd0418" opacity="1.000" fill="none" stroke="#f9f9f1" stroke-width="0.921" stroke-opacity="1.000" stroke-linecap="round" stroke-linejoin="round" d="M -39.289 741.195 Q -39.099 741.197 -38.908 741.196 Q -38.718 741.195 -38.527 741.190 Q -38.337 741.185 -38.147 741.177 Q -37.957 741.169 -37.766 741.158 Q -37.576 741.147 -37.387 741.132 Q -37.197 741.118 -37.007 741.100 Q -36.817 741.082 -36.628 741.061 Q -36.439 741.040 -36.250 741.015 Q -36.061 740.991 -35.873 740.963 Q -35.685 740.935 -35.497 740.904 Q -35.309 740.873 -35.121 740.839 Q -34.934 740.804 -34.748 740.767 Q -34.561 740.729 -34.375 740.688 Q -34.189 740.647 -34.004 740.603 Q -33.818 740.559 -33.634 740.512 Q -33.449 740.465 -33.266 740.414 Q -33.082 740.363 -32.900 740.310 Q -32.717 740.256 -32.535 740.199 Q -32.353 740.142 -32.173 740.082 Q -31.992 740.022 -31.812 739.959 Q -31.633 739.896 -31.454 739.829 Q -31.276 739.763 -31.098 739.693 Q -30.921 739.624 -30.745 739.552 Q -30.569 739.479 -30.394 739.403 Q -30.219 739.328 -30.046 739.249 Q -29.873 739.170 -29.701 739.089 Q -29.529 739.007 -29.358 738.923 Q -29.187 738.838 -29.018 738.750 Q -28.849 738.663 -28.682 738.572 Q -28.514 738.482 -28.348 738.388 Q -28.182 738.295 -28.018 738.198 Q -27.854 738.102 -27.691 738.003 Q -27.529 737.904 -27.368 737.802 Q -27.207 737.700 -27.048 737.595 Q -26.889 737.490 -26.732 737.383 Q -26.575 737.275 -26.420 737.165 Q -26.264 737.054 -26.111 736.941 Q -25.958 736.828 -25.806 736.713 Q -25.655 736.597 -25.506 736.479 Q -25.357 736.361 -25.210 736.240 Q -25.062 736.119 -24.917 735.996 Q -24.772 735.872 -24.629 735.746 Q -24.487 735.620 -24.346 735.492 Q -24.205 735.364 -24.067 735.233 Q -23.928 735.102 -23.792 734.969 Q -23.656 734.836 -23.523 734.700 Q -23.389 734.564 -23.258 734.427 Q -23.126 734.289 -22.997 734.149 Q -22.868 734.008 -22.742 733.866 Q -22.615 733.724 -22.492 733.579 Q -22.368 733.435 -22.246 733.288 Q -22.125 733.141 -22.006 732.992 Q -21.887 732.844 -21.771 732.693 Q -21.655 732.542 -21.541 732.389 Q -21.428 732.236 -21.317 732.081 Q -21.206 731.927 -21.098 731.770 Q -20.989 731.613 -20.884 731.454 Q -20.779 731.296 -20.676 731.135 Q -20.573 730.975 -20.474 730.813 Q -20.374 730.651 -20.277 730.487 Q -20.180 730.323 -20.086 730.157 Q -19.992 729.992 -19.900 729.825 Q -19.809 729.657 -19.721 729.489 Q -19.633 729.320 -19.547 729.150 Q -19.462 728.979 -19.380 728.808 Q -19.298 728.636 -19.218 728.463 Q -19.139 728.290 -19.063 728.115 Q -18.986 727.941 -18.913 727.765 Q -18.840 727.589 -18.770 727.412 Q -18.700 727.235 -18.633 727.057 Q -18.566 726.879 -18.502 726.699 Q -18.438 726.520 -18.377 726.339 Q -18.316 726.159 -18.259 725.978 Q -18.201 725.796 -18.147 725.614 Q -18.092 725.431 -18.041 725.248 Q -17.990 725.064 -17.942 724.880 Q -17.894 724.696 -17.849 724.511 Q -17.804 724.326 -17.762 724.140 Q -17.721 723.954 -17.683 723.767 Q -17.644 723.581 -17.609 723.394 Q -17.574 723.206 -17.542 723.019 Q -17.511 722.831 -17.482 722.643 Q -17.454 722.454 -17.428 722.266 Q -17.403 722.077 -17.381 721.888 Q -17.359 721.699 -17.341 721.509 Q -17.322 721.320 -17.307 721.130 Q -17.291 720.940 -17.279 720.750 Q -17.267 720.560 -17.259 720.370 Q -17.250 720.179 -17.245 719.989 Q -17.239 719.799 -17.237 719.608 Q -17.235 719.418 -17.237 719.227 Q -17.238 719.037 -17.243 718.847 Q -17.247 718.656 -17.255 718.466 Q -17.263 718.276 -17.274 718.086 Q -17.286 717.896 -17.300 717.706 Q -17.315 717.516 -17.333 717.326 Q -17.350 717.137 -17.372 716.948 Q -17.393 716.758 -17.417 716.569 Q -17.442 716.381 -17.470 716.192 Q -17.497 716.004 -17.528 715.816 Q -17.560 715.628 -17.594 715.441 Q -17.628 715.253 -17.666 715.067 Q -17.703 714.880 -17.744 714.694 Q -17.785 714.508 -17.829 714.323 Q -17.873 714.138 -17.921 713.953 Q -17.968 713.769 -18.019 713.585 Q -18.069 713.401 -18.123 713.219 Q -18.176 713.036 -18.233 712.854 Q -18.290 712.673 -18.350 712.492 Q -18.410 712.311 -18.474 712.132 Q -18.537 711.952 -18.603 711.774 Q -18.670 711.595 -18.739 711.418 Q -18.809 711.240 -18.881 711.064 Q -18.954 710.888 -19.029 710.714 Q -19.105 710.539 -19.183 710.365 Q -19.262 710.192 -19.344 710.020 Q -19.425 709.848 -19.510 709.677 Q -19.595 709.507 -19.682 709.338 Q -19.770 709.169 -19.860 709.001 Q -19.951 708.833 -20.044 708.667 Q -20.138 708.502 -20.234 708.337 Q -20.330 708.173 -20.430 708.011 Q -20.529 707.848 -20.631 707.687 Q -20.733 707.526 -20.838 707.367 Q -20.942 707.208 -21.050 707.051 Q -21.158 706.894 -21.268 706.739 Q -21.378 706.584 -21.491 706.430 Q -21.604 706.277 -21.720 706.126 Q -21.835 705.974 -21.954 705.825 Q -22.072 705.676 -22.193 705.529 Q -22.314 705.382 -22.437 705.237 Q -22.560 705.092 -22.686 704.949 Q -22.812 704.806 -22.940 704.665 Q -23.069 704.525 -23.200 704.386 Q -23.330 704.248 -23.464 704.112 Q -23.597 703.976 -23.732 703.842 Q -23.868 703.708 -24.006 703.577 Q -24.144 703.445 -24.284 703.317 Q -24.424 703.188 -24.566 703.061 Q -24.709 702.935 -24.853 702.811 Q -24.998 702.687 -25.145 702.565 Q -25.291 702.444 -25.440 702.325 Q -25.589 702.206 -25.740 702.090 Q -25.891 701.974 -26.044 701.860 Q -26.196 701.747 -26.351 701.636 Q -26.506 701.525 -26.663 701.417 Q -26.819 701.309 -26.978 701.203 Q -27.137 701.098 -27.297 700.995 Q -27.457 700.893 -27.620 700.793 Q -27.782 700.693 -27.946 700.596 Q -28.110 700.499 -28.275 700.405 Q -28.441 700.311 -28.608 700.220 Q -28.775 700.129 -28.944 700.040 Q -29.112 699.952 -29.283 699.867 Q -29.453 699.781 -29.625 699.699 Q -29.796 699.617 -29.970 699.537 Q -30.143 699.458 -30.317 699.382 Q -30.492 699.306 -30.667 699.232 Q -30.843 699.159 -31.020 699.089 Q -31.197 699.019 -31.376 698.952 Q -31.554 698.885 -31.733 698.821 Q -31.913 698.757 -32.093 698.696 Q -32.273 698.636 -32.455 698.578 Q -32.636 698.520 -32.819 698.466 Q -33.001 698.411 -33.185 698.360 Q -33.368 698.309 -33.553 698.261 Q -33.737 698.213 -33.922 698.168 Q -34.107 698.123 -34.293 698.082 Q -34.479 698.040 -34.665 698.002 Q -34.852 697.964 -35.039 697.928 Q -35.226 697.893 -35.414 697.862 Q -35.601 697.830 -35.790 697.801 Q -35.978 697.773 -36.167 697.748 Q -36.356 697.722 -36.545 697.700 Q -36.734 697.678 -36.923 697.660 Q -37.113 697.641 -37.303 697.626 Q -37.492 697.611 -37.683 697.599 Q -37.873 697.587 -38.063 697.578 Q -38.253 697.569 -38.443 697.564 Q -38.634 697.559 -38.824 697.557 Q -39.015 697.555 -39.205 697.556 Q -39.395 697.557 -39.586 697.562 Q -39.776 697.566 -39.966 697.574 Q -40.157 697.582 -40.347 697.594 Q -40.537 697.605 -40.727 697.619 Q -40.917 697.634 -41.106 697.652 Q -41.296 697.670 -41.485 697.691 Q -41.674 697.712 -41.863 697.737 Q -42.052 697.761 -42.240 697.789 Q -42.429 697.817 -42.617 697.848 Q -42.804 697.879 -42.992 697.913 Q -43.179 697.947 -43.366 697.985 Q -43.552 698.023 -43.738 698.063 Q -43.924 698.104 -44.110 698.148 Q -44.295 698.193 -44.479 698.240 Q -44.664 698.287 -44.847 698.338 Q -45.031 698.388 -45.214 698.442 Q -45.396 698.496 -45.578 698.553 Q -45.760 698.610 -45.940 698.670 Q -46.121 698.730 -46.301 698.793 Q -46.480 698.856 -46.659 698.922 Q -46.837 698.989 -47.015 699.058 Q -47.192 699.128 -47.368 699.200 Q -47.544 699.273 -47.719 699.348 Q -47.894 699.424 -48.067 699.503 Q -48.241 699.581 -48.413 699.663 Q -48.585 699.745 -48.755 699.829 Q -48.926 699.914 -49.095 700.001 Q -49.264 700.089 -49.432 700.180 Q -49.599 700.270 -49.765 700.364 Q -49.931 700.457 -50.095 700.553 Q -50.259 700.650 -50.422 700.749 Q -50.585 700.848 -50.745 700.950 Q -50.906 701.052 -51.065 701.157 Q -51.224 701.262 -51.381 701.369 Q -51.538 701.477 -51.694 701.587 Q -51.849 701.697 -52.002 701.810 Q -52.155 701.923 -52.307 702.039 Q -52.458 702.155 -52.607 702.273 Q -52.757 702.391 -52.904 702.512 Q -53.051 702.633 -53.196 702.756 Q -53.341 702.880 -53.484 703.005 Q -53.627 703.131 -53.767 703.260 Q -53.908 703.388 -54.046 703.519 Q -54.185 703.650 -54.321 703.783 Q -54.457 703.916 -54.591 704.052 Q -54.724 704.187 -54.856 704.325 Q -54.987 704.463 -55.116 704.603 Q -55.245 704.743 -55.371 704.886 Q -55.498 705.028 -55.622 705.173 Q -55.746 705.317 -55.867 705.464 Q -55.989 705.611 -56.107 705.759 Q -56.226 705.908 -56.342 706.059 Q -56.459 706.210 -56.572 706.363 Q -56.686 706.516 -56.797 706.670 Q -56.907 706.825 -57.016 706.982 Q -57.124 707.139 -57.229 707.297 Q -57.335 707.456 -57.437 707.616 Q -57.540 707.777 -57.640 707.939 Q -57.739 708.101 -57.836 708.265 Q -57.933 708.429 -58.028 708.594 Q -58.122 708.760 -58.213 708.927 Q -58.304 709.094 -58.392 709.263 Q -58.480 709.432 -58.566 709.602 Q -58.651 709.772 -58.733 709.944 Q -58.816 710.116 -58.895 710.289 Q -58.974 710.462 -59.051 710.636 Q -59.127 710.811 -59.200 710.987 Q -59.273 711.162 -59.343 711.340 Q -59.414 711.517 -59.481 711.695 Q -59.548 711.873 -59.611 712.052 Q -59.675 712.232 -59.736 712.412 Q -59.797 712.593 -59.855 712.774 Q -59.912 712.956 -59.967 713.138 Q -60.021 713.321 -60.072 713.504 Q -60.124 713.688 -60.172 713.872 Q -60.220 714.056 -60.264 714.241 Q -60.309 714.426 -60.351 714.612 Q -60.392 714.798 -60.431 714.984 Q -60.469 715.171 -60.504 715.358 Q -60.539 715.545 -60.571 715.733 Q -60.603 715.921 -60.631 716.109 Q -60.660 716.297 -60.685 716.486 Q -60.710 716.675 -60.732 716.864 Q -60.754 717.053 -60.773 717.243 Q -60.791 717.432 -60.807 717.622 Q -60.822 717.812 -60.834 718.002 Q -60.846 718.192 -60.854 718.382 Q -60.863 718.572 -60.869 718.763 Q -60.874 718.953 -60.876 719.143 Q -60.878 719.334 -60.877 719.524 Q -60.875 719.715 -60.871 719.905 Q -60.866 720.095 -60.858 720.286 Q -60.850 720.476 -60.839 720.666 Q -60.828 720.856 -60.813 721.046 Q -60.799 721.236 -60.781 721.425 Q -60.763 721.615 -60.742 721.804 Q -60.720 721.993 -60.696 722.182 Q -60.671 722.371 -60.644 722.560 Q -60.616 722.748 -60.585 722.936 Q -60.554 723.124 -60.519 723.311 Q -60.485 723.498 -60.447 723.685 Q -60.410 723.872 -60.369 724.058 Q -60.328 724.244 -60.284 724.429 Q -60.240 724.614 -60.193 724.799 Q -60.145 724.983 -60.095 725.167 Q -60.044 725.350 -59.990 725.533 Q -59.937 725.716 -59.880 725.897 Q -59.823 726.079 -59.763 726.260 Q -59.703 726.440 -59.640 726.620 Q -59.576 726.800 -59.510 726.978 Q -59.444 727.157 -59.374 727.334 Q -59.305 727.511 -59.232 727.687 Q -59.160 727.863 -59.084 728.038 Q -59.008 728.213 -58.930 728.386 Q -58.851 728.560 -58.770 728.732 Q -58.688 728.904 -58.603 729.074 Q -58.519 729.245 -58.431 729.414 Q -58.343 729.583 -58.253 729.751 Q -58.162 729.918 -58.069 730.084 Q -57.975 730.250 -57.879 730.414 Q -57.783 730.579 -57.684 730.741 Q -57.584 730.904 -57.482 731.065 Q -57.380 731.225 -57.276 731.384 Q -57.171 731.543 -57.063 731.700 Q -56.956 731.858 -56.845 732.013 Q -56.735 732.168 -56.622 732.321 Q -56.509 732.475 -56.394 732.626 Q -56.278 732.777 -56.160 732.927 Q -56.041 733.076 -55.921 733.223 Q -55.800 733.370 -55.676 733.515 Q -55.553 733.660 -55.427 733.803 Q -55.301 733.946 -55.173 734.087 Q -55.044 734.227 -54.914 734.366 Q -54.783 734.504 -54.650 734.640 Q -54.516 734.776 -54.381 734.910 Q -54.245 735.044 -54.107 735.175 Q -53.969 735.306 -53.829 735.435 Q -53.689 735.564 -53.547 735.691 Q -53.404 735.817 -53.260 735.941 Q -53.115 736.065 -52.969 736.186 Q -52.822 736.308 -52.673 736.427 Q -52.524 736.545 -52.373 736.662 Q -52.223 736.778 -52.070 736.891 Q -51.917 737.005 -51.762 737.116 Q -51.607 737.227 -51.451 737.335 Q -51.294 737.443 -51.135 737.548 Q -50.977 737.654 -50.816 737.756 Q -50.656 737.859 -50.494 737.959 Q -50.331 738.059 -50.168 738.156 Q -50.004 738.253 -49.838 738.347 Q -49.673 738.441 -49.505 738.532 Q -49.338 738.623 -49.169 738.711 Q -49.001 738.800 -48.830 738.885 Q -48.660 738.970 -48.489 739.053 Q -48.317 739.135 -48.144 739.214 Q -47.971 739.294 -47.796 739.370 Q -47.622 739.446 -47.446 739.519 Q -47.270 739.593 -47.093 739.663 Q -46.916 739.733 -46.738 739.800 Q -46.559 739.867 -46.380 739.931 Q -46.201 739.995 -46.020 740.055 Q -45.840 740.116 -45.658 740.174 Q -45.477 740.231 -45.294 740.286 Q -45.112 740.340 -44.928 740.391 Q -44.745 740.443 -44.561 740.491 Q -44.376 740.539 -44.191 740.584 Q -44.006 740.628 -43.820 740.670 Q -43.635 740.712 -43.448 740.750 Q -43.262 740.788 -43.074 740.823 Q -42.887 740.858 -42.700 740.890 Q -42.512 740.922 -42.323 740.950 Q -42.135 740.979 -41.946 741.004 Q -41.758 741.029 -41.569 741.051 Q -41.379 741.073 -41.190 741.092 Q -41.000 741.110 -40.811 741.126 Q -40.621 741.141 -40.431 741.153 Q -40.241 741.165 -40.050 741.174 Q -39.860 741.182 -39.670 741.188 Q -39.479 741.193 -39.289 741.195 Z"></path>
    <path id="STROKE_f1456df3-75e7-4ddf-8da9-916b6563acf7" opacity="1.000" fill="none" stroke="#f9f9f1" stroke-width="0.921" stroke-opacity="1.000" stroke-linecap="round" stroke-linejoin="round" d="M -39.267 862.681 Q -39.077 862.683 -38.887 862.682 Q -38.696 862.681 -38.506 862.676 Q -38.315 862.672 -38.125 862.664 Q -37.935 862.656 -37.745 862.644 Q -37.555 862.633 -37.365 862.619 Q -37.175 862.604 -36.985 862.586 Q -36.796 862.568 -36.607 862.547 Q -36.417 862.526 -36.228 862.501 Q -36.040 862.477 -35.851 862.449 Q -35.663 862.421 -35.475 862.390 Q -35.287 862.359 -35.100 862.325 Q -34.912 862.290 -34.726 862.253 Q -34.539 862.215 -34.353 862.174 Q -34.167 862.134 -33.982 862.089 Q -33.797 862.045 -33.612 861.998 Q -33.428 861.951 -33.244 861.900 Q -33.061 861.850 -32.878 861.796 Q -32.695 861.742 -32.513 861.685 Q -32.332 861.628 -32.151 861.568 Q -31.970 861.508 -31.791 861.445 Q -31.611 861.382 -31.433 861.315 Q -31.254 861.249 -31.077 861.180 Q -30.899 861.110 -30.723 861.038 Q -30.547 860.965 -30.373 860.889 Q -30.198 860.814 -30.024 860.735 Q -29.851 860.657 -29.679 860.575 Q -29.507 860.493 -29.336 860.409 Q -29.166 860.324 -28.997 860.236 Q -28.828 860.149 -28.660 860.058 Q -28.493 859.968 -28.327 859.874 Q -28.161 859.781 -27.996 859.685 Q -27.832 859.588 -27.670 859.489 Q -27.507 859.390 -27.346 859.288 Q -27.185 859.186 -27.026 859.081 Q -26.867 858.976 -26.710 858.869 Q -26.553 858.761 -26.398 858.651 Q -26.243 858.541 -26.089 858.428 Q -25.936 858.315 -25.785 858.199 Q -25.633 858.083 -25.484 857.965 Q -25.335 857.847 -25.188 857.726 Q -25.041 857.605 -24.896 857.482 Q -24.751 857.358 -24.608 857.232 Q -24.465 857.107 -24.324 856.978 Q -24.184 856.850 -24.045 856.719 Q -23.907 856.588 -23.771 856.455 Q -23.635 856.322 -23.501 856.186 Q -23.367 856.051 -23.236 855.913 Q -23.104 855.775 -22.976 855.635 Q -22.847 855.495 -22.720 855.352 Q -22.594 855.210 -22.470 855.065 Q -22.346 854.921 -22.224 854.774 Q -22.103 854.627 -21.984 854.479 Q -21.865 854.330 -21.749 854.179 Q -21.633 854.028 -21.519 853.875 Q -21.406 853.722 -21.295 853.568 Q -21.184 853.413 -21.076 853.256 Q -20.968 853.099 -20.862 852.941 Q -20.757 852.782 -20.654 852.622 Q -20.552 852.461 -20.452 852.299 Q -20.352 852.137 -20.255 851.973 Q -20.158 851.809 -20.064 851.644 Q -19.970 851.478 -19.879 851.311 Q -19.788 851.144 -19.699 850.975 Q -19.611 850.806 -19.526 850.636 Q -19.440 850.466 -19.358 850.294 Q -19.276 850.122 -19.197 849.949 Q -19.117 849.776 -19.041 849.601 Q -18.965 849.427 -18.892 849.251 Q -18.818 849.075 -18.748 848.898 Q -18.678 848.721 -18.611 848.543 Q -18.544 848.365 -18.480 848.185 Q -18.416 848.006 -18.355 847.826 Q -18.295 847.645 -18.237 847.464 Q -18.179 847.282 -18.125 847.100 Q -18.071 846.917 -18.019 846.734 Q -17.968 846.550 -17.920 846.366 Q -17.872 846.182 -17.827 845.997 Q -17.782 845.812 -17.741 845.626 Q -17.699 845.440 -17.661 845.254 Q -17.623 845.067 -17.587 844.880 Q -17.552 844.693 -17.521 844.505 Q -17.489 844.317 -17.460 844.129 Q -17.432 843.941 -17.407 843.752 Q -17.381 843.563 -17.359 843.374 Q -17.338 843.185 -17.319 842.995 Q -17.300 842.806 -17.285 842.616 Q -17.270 842.426 -17.258 842.236 Q -17.246 842.046 -17.237 841.856 Q -17.228 841.666 -17.223 841.475 Q -17.218 841.285 -17.216 841.094 Q -17.214 840.904 -17.215 840.714 Q -17.216 840.523 -17.221 840.333 Q -17.225 840.142 -17.233 839.952 Q -17.241 839.762 -17.253 839.572 Q -17.264 839.382 -17.278 839.192 Q -17.293 839.002 -17.311 838.812 Q -17.329 838.623 -17.350 838.434 Q -17.371 838.244 -17.396 838.056 Q -17.420 837.867 -17.448 837.678 Q -17.476 837.490 -17.507 837.302 Q -17.538 837.114 -17.572 836.927 Q -17.607 836.740 -17.644 836.553 Q -17.682 836.366 -17.723 836.180 Q -17.763 835.994 -17.808 835.809 Q -17.852 835.624 -17.899 835.439 Q -17.946 835.255 -17.997 835.071 Q -18.047 834.888 -18.101 834.705 Q -18.155 834.522 -18.212 834.341 Q -18.269 834.159 -18.329 833.978 Q -18.389 833.797 -18.452 833.618 Q -18.515 833.438 -18.582 833.260 Q -18.648 833.081 -18.717 832.904 Q -18.787 832.727 -18.859 832.551 Q -18.932 832.374 -19.007 832.200 Q -19.083 832.025 -19.162 831.851 Q -19.240 831.678 -19.322 831.506 Q -19.404 831.334 -19.488 831.163 Q -19.573 830.993 -19.660 830.824 Q -19.748 830.655 -19.839 830.487 Q -19.929 830.320 -20.023 830.154 Q -20.116 829.988 -20.212 829.823 Q -20.309 829.659 -20.408 829.497 Q -20.507 829.334 -20.609 829.173 Q -20.711 829.013 -20.816 828.854 Q -20.921 828.695 -21.028 828.537 Q -21.136 828.380 -21.246 828.225 Q -21.356 828.070 -21.469 827.917 Q -21.582 827.763 -21.698 827.612 Q -21.814 827.461 -21.932 827.311 Q -22.050 827.162 -22.171 827.015 Q -22.292 826.868 -22.415 826.723 Q -22.539 826.578 -22.664 826.435 Q -22.790 826.292 -22.919 826.151 Q -23.047 826.011 -23.178 825.872 Q -23.309 825.734 -23.442 825.598 Q -23.575 825.462 -23.711 825.328 Q -23.846 825.194 -23.984 825.063 Q -24.122 824.932 -24.262 824.803 Q -24.402 824.674 -24.545 824.547 Q -24.687 824.421 -24.832 824.297 Q -24.976 824.173 -25.123 824.052 Q -25.270 823.930 -25.418 823.811 Q -25.567 823.692 -25.718 823.576 Q -25.869 823.460 -26.022 823.346 Q -26.175 823.233 -26.329 823.122 Q -26.484 823.011 -26.641 822.903 Q -26.798 822.795 -26.956 822.689 Q -27.115 822.584 -27.275 822.481 Q -27.436 822.379 -27.598 822.279 Q -27.760 822.179 -27.924 822.082 Q -28.088 821.985 -28.253 821.891 Q -28.419 821.797 -28.586 821.706 Q -28.753 821.615 -28.922 821.526 Q -29.091 821.438 -29.261 821.353 Q -29.431 821.268 -29.603 821.185 Q -29.775 821.103 -29.948 821.024 Q -30.121 820.944 -30.295 820.868 Q -30.470 820.792 -30.646 820.719 Q -30.822 820.645 -30.999 820.575 Q -31.176 820.505 -31.354 820.438 Q -31.532 820.371 -31.711 820.307 Q -31.891 820.243 -32.071 820.182 Q -32.252 820.122 -32.433 820.064 Q -32.615 820.006 -32.797 819.952 Q -32.980 819.898 -33.163 819.846 Q -33.347 819.795 -33.531 819.747 Q -33.715 819.699 -33.900 819.654 Q -34.085 819.609 -34.271 819.568 Q -34.457 819.526 -34.643 819.488 Q -34.830 819.450 -35.017 819.415 Q -35.204 819.380 -35.392 819.348 Q -35.580 819.316 -35.768 819.287 Q -35.956 819.259 -36.145 819.234 Q -36.334 819.208 -36.523 819.187 Q -36.712 819.165 -36.902 819.146 Q -37.091 819.127 -37.281 819.112 Q -37.471 819.097 -37.661 819.085 Q -37.851 819.073 -38.041 819.064 Q -38.231 819.055 -38.422 819.050 Q -38.612 819.045 -38.802 819.043 Q -38.993 819.041 -39.183 819.042 Q -39.374 819.043 -39.564 819.048 Q -39.754 819.052 -39.945 819.060 Q -40.135 819.068 -40.325 819.080 Q -40.515 819.091 -40.705 819.105 Q -40.895 819.120 -41.084 819.138 Q -41.274 819.156 -41.463 819.177 Q -41.653 819.198 -41.841 819.223 Q -42.030 819.247 -42.219 819.275 Q -42.407 819.303 -42.595 819.334 Q -42.783 819.365 -42.970 819.399 Q -43.157 819.434 -43.344 819.471 Q -43.531 819.509 -43.717 819.550 Q -43.903 819.591 -44.088 819.635 Q -44.273 819.679 -44.458 819.726 Q -44.642 819.773 -44.826 819.824 Q -45.009 819.874 -45.192 819.928 Q -45.375 819.982 -45.556 820.039 Q -45.738 820.096 -45.919 820.156 Q -46.100 820.216 -46.279 820.279 Q -46.459 820.342 -46.637 820.409 Q -46.816 820.475 -46.993 820.544 Q -47.170 820.614 -47.346 820.686 Q -47.523 820.759 -47.697 820.835 Q -47.872 820.910 -48.045 820.989 Q -48.219 821.067 -48.391 821.149 Q -48.563 821.231 -48.734 821.315 Q -48.904 821.400 -49.073 821.488 Q -49.242 821.575 -49.410 821.666 Q -49.577 821.756 -49.743 821.850 Q -49.909 821.943 -50.073 822.040 Q -50.238 822.136 -50.400 822.235 Q -50.563 822.334 -50.724 822.436 Q -50.884 822.538 -51.043 822.643 Q -51.202 822.748 -51.360 822.855 Q -51.517 822.963 -51.672 823.073 Q -51.827 823.183 -51.980 823.296 Q -52.134 823.409 -52.285 823.525 Q -52.436 823.641 -52.586 823.759 Q -52.735 823.877 -52.882 823.998 Q -53.029 824.119 -53.174 824.242 Q -53.319 824.366 -53.462 824.492 Q -53.605 824.617 -53.746 824.746 Q -53.886 824.874 -54.025 825.005 Q -54.163 825.136 -54.299 825.269 Q -54.435 825.402 -54.569 825.538 Q -54.703 825.673 -54.834 825.811 Q -54.965 825.949 -55.094 826.089 Q -55.223 826.229 -55.350 826.372 Q -55.476 826.514 -55.600 826.659 Q -55.724 826.803 -55.845 826.950 Q -55.967 827.097 -56.086 827.246 Q -56.204 827.394 -56.321 827.545 Q -56.437 827.696 -56.550 827.849 Q -56.664 828.002 -56.775 828.157 Q -56.886 828.311 -56.994 828.468 Q -57.102 828.625 -57.208 828.783 Q -57.313 828.942 -57.416 829.102 Q -57.518 829.263 -57.618 829.425 Q -57.718 829.587 -57.815 829.751 Q -57.912 829.915 -58.006 830.080 Q -58.100 830.246 -58.191 830.413 Q -58.282 830.580 -58.371 830.749 Q -58.459 830.918 -58.544 831.088 Q -58.629 831.258 -58.712 831.430 Q -58.794 831.602 -58.873 831.775 Q -58.953 831.948 -59.029 832.123 Q -59.105 832.297 -59.178 832.473 Q -59.252 832.649 -59.322 832.826 Q -59.392 833.003 -59.459 833.181 Q -59.526 833.359 -59.590 833.539 Q -59.654 833.718 -59.714 833.898 Q -59.775 834.079 -59.833 834.260 Q -59.890 834.442 -59.945 834.624 Q -59.999 834.807 -60.051 834.990 Q -60.102 835.174 -60.150 835.358 Q -60.198 835.542 -60.243 835.727 Q -60.287 835.912 -60.329 836.098 Q -60.371 836.284 -60.409 836.470 Q -60.447 836.657 -60.482 836.844 Q -60.517 837.031 -60.549 837.219 Q -60.581 837.407 -60.610 837.595 Q -60.638 837.783 -60.663 837.972 Q -60.688 838.161 -60.710 838.350 Q -60.732 838.539 -60.751 838.729 Q -60.770 838.918 -60.785 839.108 Q -60.800 839.298 -60.812 839.488 Q -60.824 839.678 -60.833 839.868 Q -60.841 840.058 -60.847 840.249 Q -60.852 840.439 -60.854 840.630 Q -60.856 840.820 -60.855 841.010 Q -60.854 841.201 -60.849 841.391 Q -60.844 841.582 -60.836 841.772 Q -60.829 841.962 -60.817 842.152 Q -60.806 842.342 -60.791 842.532 Q -60.777 842.722 -60.759 842.912 Q -60.741 843.101 -60.720 843.290 Q -60.699 843.480 -60.674 843.668 Q -60.650 843.857 -60.622 844.046 Q -60.594 844.234 -60.563 844.422 Q -60.532 844.610 -60.498 844.797 Q -60.463 844.984 -60.426 845.171 Q -60.388 845.358 -60.347 845.544 Q -60.306 845.730 -60.262 845.915 Q -60.218 846.100 -60.171 846.285 Q -60.124 846.469 -60.073 846.653 Q -60.023 846.836 -59.969 847.019 Q -59.915 847.202 -59.858 847.383 Q -59.801 847.565 -59.741 847.746 Q -59.681 847.927 -59.618 848.106 Q -59.555 848.286 -59.488 848.464 Q -59.422 848.643 -59.353 848.820 Q -59.283 848.997 -59.211 849.174 Q -59.138 849.350 -59.062 849.524 Q -58.987 849.699 -58.908 849.873 Q -58.830 850.046 -58.748 850.218 Q -58.666 850.390 -58.582 850.561 Q -58.497 850.731 -58.409 850.900 Q -58.322 851.069 -58.231 851.237 Q -58.141 851.404 -58.047 851.570 Q -57.954 851.736 -57.857 851.901 Q -57.761 852.065 -57.662 852.227 Q -57.563 852.390 -57.461 852.551 Q -57.359 852.711 -57.254 852.870 Q -57.149 853.029 -57.042 853.187 Q -56.934 853.344 -56.824 853.499 Q -56.713 853.654 -56.600 853.807 Q -56.488 853.961 -56.372 854.112 Q -56.256 854.263 -56.138 854.413 Q -56.020 854.562 -55.899 854.709 Q -55.778 854.856 -55.655 855.001 Q -55.531 855.146 -55.405 855.289 Q -55.279 855.432 -55.151 855.573 Q -55.023 855.713 -54.892 855.852 Q -54.761 855.990 -54.628 856.126 Q -54.495 856.262 -54.359 856.396 Q -54.224 856.530 -54.086 856.661 Q -53.948 856.792 -53.808 856.921 Q -53.667 857.050 -53.525 857.177 Q -53.383 857.303 -53.238 857.427 Q -53.094 857.551 -52.947 857.672 Q -52.800 857.794 -52.651 857.913 Q -52.503 858.032 -52.352 858.148 Q -52.201 858.264 -52.048 858.378 Q -51.895 858.491 -51.740 858.602 Q -51.586 858.713 -51.429 858.821 Q -51.272 858.929 -51.114 859.035 Q -50.955 859.140 -50.795 859.243 Q -50.634 859.345 -50.472 859.445 Q -50.310 859.545 -50.146 859.642 Q -49.982 859.739 -49.816 859.833 Q -49.651 859.927 -49.484 860.018 Q -49.317 860.109 -49.148 860.198 Q -48.979 860.286 -48.809 860.371 Q -48.639 860.456 -48.467 860.539 Q -48.295 860.621 -48.122 860.700 Q -47.949 860.780 -47.774 860.856 Q -47.600 860.932 -47.424 861.005 Q -47.248 861.079 -47.071 861.149 Q -46.894 861.219 -46.716 861.286 Q -46.538 861.353 -46.358 861.417 Q -46.179 861.481 -45.999 861.542 Q -45.818 861.602 -45.637 861.660 Q -45.455 861.718 -45.273 861.772 Q -45.090 861.826 -44.907 861.878 Q -44.723 861.929 -44.539 861.977 Q -44.355 862.025 -44.170 862.070 Q -43.985 862.115 -43.799 862.156 Q -43.613 862.198 -43.426 862.236 Q -43.240 862.274 -43.053 862.309 Q -42.866 862.344 -42.678 862.376 Q -42.490 862.408 -42.302 862.437 Q -42.113 862.465 -41.925 862.490 Q -41.736 862.516 -41.547 862.537 Q -41.358 862.559 -41.168 862.578 Q -40.979 862.597 -40.789 862.612 Q -40.599 862.627 -40.409 862.639 Q -40.219 862.651 -40.029 862.660 Q -39.839 862.669 -39.648 862.674 Q -39.458 862.679 -39.267 862.681 Z"></path>
    <path id="STROKE_251296db-17df-4915-8af2-1dc98b031dbe" opacity="1.000" fill="none" stroke="#f9f9f1" stroke-width="0.921" stroke-opacity="1.000" stroke-linecap="round" stroke-linejoin="round" d="M 95.739 681.480 Q 95.930 681.482 96.120 681.480 Q 96.311 681.479 96.501 681.474 Q 96.691 681.470 96.882 681.462 Q 97.072 681.454 97.262 681.443 Q 97.452 681.431 97.642 681.417 Q 97.832 681.402 98.021 681.384 Q 98.211 681.366 98.400 681.345 Q 98.590 681.324 98.778 681.300 Q 98.967 681.275 99.156 681.247 Q 99.344 681.220 99.532 681.188 Q 99.720 681.157 99.907 681.123 Q 100.094 681.089 100.281 681.051 Q 100.468 681.013 100.654 680.973 Q 100.840 680.932 101.025 680.888 Q 101.210 680.844 101.395 680.796 Q 101.579 680.749 101.763 680.698 Q 101.946 680.648 102.129 680.594 Q 102.312 680.540 102.493 680.484 Q 102.675 680.427 102.856 680.367 Q 103.036 680.306 103.216 680.243 Q 103.396 680.180 103.574 680.114 Q 103.753 680.047 103.930 679.978 Q 104.107 679.908 104.283 679.836 Q 104.459 679.763 104.634 679.688 Q 104.809 679.612 104.982 679.534 Q 105.156 679.455 105.328 679.373 Q 105.500 679.292 105.671 679.207 Q 105.841 679.122 106.010 679.035 Q 106.179 678.947 106.347 678.857 Q 106.514 678.766 106.680 678.673 Q 106.846 678.579 107.010 678.483 Q 107.175 678.386 107.337 678.287 Q 107.500 678.188 107.661 678.086 Q 107.821 677.984 107.980 677.879 Q 108.139 677.774 108.297 677.667 Q 108.454 677.559 108.609 677.449 Q 108.764 677.339 108.917 677.226 Q 109.071 677.113 109.222 676.997 Q 109.373 676.882 109.523 676.763 Q 109.672 676.645 109.819 676.524 Q 109.966 676.403 110.111 676.280 Q 110.256 676.157 110.399 676.031 Q 110.542 675.905 110.683 675.776 Q 110.823 675.648 110.962 675.517 Q 111.100 675.386 111.236 675.253 Q 111.372 675.120 111.506 674.984 Q 111.640 674.849 111.771 674.711 Q 111.902 674.573 112.031 674.433 Q 112.160 674.293 112.287 674.150 Q 112.413 674.008 112.537 673.864 Q 112.661 673.719 112.782 673.572 Q 112.904 673.426 113.023 673.277 Q 113.141 673.128 113.258 672.977 Q 113.374 672.826 113.487 672.673 Q 113.601 672.521 113.712 672.366 Q 113.823 672.211 113.931 672.054 Q 114.039 671.897 114.145 671.739 Q 114.250 671.580 114.353 671.420 Q 114.455 671.260 114.555 671.097 Q 114.655 670.935 114.752 670.771 Q 114.849 670.607 114.943 670.442 Q 115.037 670.276 115.128 670.109 Q 115.219 669.942 115.308 669.773 Q 115.396 669.604 115.481 669.434 Q 115.566 669.264 115.649 669.092 Q 115.731 668.920 115.810 668.747 Q 115.890 668.574 115.966 668.400 Q 116.042 668.225 116.115 668.049 Q 116.189 667.874 116.259 667.697 Q 116.329 667.520 116.396 667.341 Q 116.463 667.163 116.527 666.984 Q 116.591 666.804 116.651 666.624 Q 116.712 666.443 116.770 666.262 Q 116.827 666.080 116.882 665.898 Q 116.936 665.715 116.988 665.532 Q 117.039 665.349 117.087 665.164 Q 117.135 664.980 117.180 664.795 Q 117.224 664.610 117.266 664.424 Q 117.308 664.238 117.346 664.052 Q 117.384 663.865 117.419 663.678 Q 117.454 663.491 117.486 663.303 Q 117.518 663.115 117.547 662.927 Q 117.575 662.739 117.600 662.550 Q 117.625 662.361 117.647 662.172 Q 117.669 661.983 117.688 661.794 Q 117.707 661.604 117.722 661.414 Q 117.737 661.224 117.749 661.034 Q 117.761 660.844 117.770 660.654 Q 117.778 660.464 117.784 660.273 Q 117.789 660.083 117.791 659.893 Q 117.793 659.702 117.792 659.512 Q 117.791 659.321 117.786 659.131 Q 117.781 658.941 117.773 658.750 Q 117.766 658.560 117.754 658.370 Q 117.743 658.180 117.728 657.990 Q 117.714 657.800 117.696 657.611 Q 117.678 657.421 117.657 657.232 Q 117.636 657.043 117.611 656.854 Q 117.587 656.665 117.559 656.477 Q 117.531 656.288 117.500 656.100 Q 117.469 655.912 117.435 655.725 Q 117.400 655.538 117.363 655.351 Q 117.325 655.164 117.284 654.979 Q 117.243 654.793 117.199 654.607 Q 117.155 654.422 117.108 654.238 Q 117.061 654.053 117.010 653.870 Q 116.960 653.686 116.906 653.503 Q 116.852 653.321 116.795 653.139 Q 116.738 652.957 116.678 652.776 Q 116.618 652.596 116.555 652.416 Q 116.492 652.236 116.425 652.058 Q 116.359 651.880 116.289 651.702 Q 116.220 651.525 116.147 651.349 Q 116.075 651.173 115.999 650.998 Q 115.924 650.823 115.845 650.650 Q 115.767 650.476 115.685 650.304 Q 115.603 650.132 115.519 649.962 Q 115.434 649.791 115.346 649.622 Q 115.259 649.453 115.168 649.285 Q 115.078 649.118 114.984 648.952 Q 114.891 648.786 114.794 648.622 Q 114.698 648.458 114.599 648.295 Q 114.500 648.132 114.398 647.972 Q 114.296 647.811 114.191 647.652 Q 114.086 647.493 113.979 647.336 Q 113.871 647.179 113.761 647.023 Q 113.650 646.868 113.537 646.715 Q 113.424 646.561 113.309 646.410 Q 113.193 646.259 113.075 646.110 Q 112.957 645.960 112.836 645.813 Q 112.715 645.666 112.592 645.521 Q 112.468 645.376 112.342 645.233 Q 112.216 645.090 112.088 644.950 Q 111.960 644.809 111.829 644.671 Q 111.698 644.532 111.565 644.396 Q 111.432 644.260 111.296 644.126 Q 111.161 643.993 111.023 643.861 Q 110.885 643.730 110.745 643.601 Q 110.604 643.472 110.462 643.346 Q 110.320 643.219 110.175 643.095 Q 110.031 642.971 109.884 642.850 Q 109.737 642.728 109.588 642.610 Q 109.440 642.491 109.289 642.375 Q 109.138 642.258 108.985 642.145 Q 108.832 642.031 108.677 641.920 Q 108.523 641.809 108.366 641.701 Q 108.209 641.593 108.050 641.488 Q 107.892 641.382 107.732 641.280 Q 107.571 641.177 107.409 641.077 Q 107.247 640.977 107.083 640.880 Q 106.919 640.784 106.753 640.689 Q 106.588 640.595 106.421 640.504 Q 106.254 640.413 106.085 640.325 Q 105.916 640.236 105.746 640.151 Q 105.576 640.066 105.404 639.984 Q 105.232 639.901 105.059 639.822 Q 104.886 639.743 104.711 639.666 Q 104.537 639.590 104.361 639.517 Q 104.185 639.444 104.008 639.374 Q 103.831 639.303 103.653 639.236 Q 103.475 639.169 103.295 639.105 Q 103.116 639.042 102.936 638.981 Q 102.755 638.920 102.574 638.862 Q 102.392 638.805 102.210 638.750 Q 102.027 638.696 101.844 638.645 Q 101.660 638.593 101.476 638.545 Q 101.292 638.497 101.107 638.453 Q 100.922 638.408 100.736 638.366 Q 100.550 638.325 100.363 638.286 Q 100.177 638.248 99.990 638.213 Q 99.803 638.178 99.615 638.146 Q 99.427 638.114 99.239 638.086 Q 99.050 638.057 98.862 638.032 Q 98.673 638.007 98.484 637.985 Q 98.295 637.963 98.105 637.944 Q 97.916 637.926 97.726 637.910 Q 97.536 637.895 97.346 637.883 Q 97.156 637.871 96.966 637.862 Q 96.775 637.854 96.585 637.848 Q 96.395 637.843 96.204 637.841 Q 96.014 637.839 95.824 637.840 Q 95.633 637.842 95.443 637.846 Q 95.252 637.851 95.062 637.859 Q 94.872 637.867 94.682 637.878 Q 94.492 637.889 94.302 637.904 Q 94.112 637.918 93.922 637.936 Q 93.733 637.954 93.544 637.975 Q 93.354 637.997 93.165 638.021 Q 92.977 638.045 92.788 638.073 Q 92.600 638.101 92.412 638.132 Q 92.224 638.163 92.037 638.198 Q 91.849 638.232 91.663 638.269 Q 91.476 638.307 91.290 638.348 Q 91.104 638.389 90.919 638.433 Q 90.734 638.477 90.549 638.524 Q 90.365 638.572 90.181 638.622 Q 89.998 638.673 89.815 638.726 Q 89.632 638.780 89.450 638.837 Q 89.269 638.894 89.088 638.954 Q 88.907 639.014 88.728 639.077 Q 88.548 639.141 88.370 639.207 Q 88.191 639.273 88.014 639.343 Q 87.836 639.412 87.660 639.485 Q 87.484 639.557 87.310 639.633 Q 87.135 639.708 86.961 639.787 Q 86.788 639.866 86.616 639.947 Q 86.444 640.029 86.273 640.114 Q 86.103 640.198 85.934 640.286 Q 85.765 640.373 85.597 640.464 Q 85.429 640.555 85.264 640.648 Q 85.098 640.741 84.933 640.838 Q 84.769 640.934 84.607 641.033 Q 84.444 641.132 84.283 641.234 Q 84.122 641.336 83.963 641.441 Q 83.804 641.546 83.647 641.654 Q 83.490 641.761 83.335 641.872 Q 83.180 641.982 83.026 642.095 Q 82.873 642.208 82.722 642.323 Q 82.571 642.439 82.421 642.557 Q 82.272 642.675 82.125 642.796 Q 81.978 642.917 81.833 643.041 Q 81.688 643.164 81.545 643.290 Q 81.402 643.416 81.261 643.544 Q 81.121 643.672 80.982 643.803 Q 80.844 643.934 80.708 644.067 Q 80.572 644.201 80.438 644.336 Q 80.304 644.472 80.173 644.610 Q 80.041 644.747 79.913 644.888 Q 79.784 645.028 79.657 645.170 Q 79.531 645.312 79.407 645.457 Q 79.283 645.602 79.161 645.748 Q 79.040 645.895 78.921 646.044 Q 78.802 646.193 78.686 646.344 Q 78.570 646.494 78.456 646.647 Q 78.343 646.800 78.232 646.955 Q 78.121 647.110 78.013 647.266 Q 77.905 647.423 77.799 647.582 Q 77.694 647.740 77.591 647.901 Q 77.489 648.061 77.389 648.223 Q 77.289 648.385 77.192 648.549 Q 77.095 648.713 77.001 648.879 Q 76.907 649.044 76.816 649.211 Q 76.725 649.379 76.636 649.547 Q 76.548 649.716 76.463 649.886 Q 76.377 650.057 76.295 650.228 Q 76.213 650.400 76.134 650.573 Q 76.054 650.746 75.978 650.921 Q 75.902 651.095 75.828 651.271 Q 75.755 651.447 75.685 651.624 Q 75.615 651.801 75.548 651.979 Q 75.481 652.157 75.417 652.337 Q 75.353 652.516 75.292 652.697 Q 75.232 652.877 75.174 653.059 Q 75.116 653.240 75.062 653.423 Q 75.007 653.605 74.956 653.789 Q 74.905 653.972 74.857 654.156 Q 74.809 654.340 74.764 654.526 Q 74.719 654.711 74.678 654.896 Q 74.636 655.082 74.598 655.269 Q 74.560 655.455 74.524 655.642 Q 74.489 655.830 74.458 656.017 Q 74.426 656.205 74.397 656.393 Q 74.369 656.582 74.344 656.771 Q 74.318 656.959 74.296 657.148 Q 74.275 657.338 74.256 657.527 Q 74.237 657.717 74.222 657.906 Q 74.207 658.096 74.195 658.286 Q 74.183 658.476 74.174 658.667 Q 74.165 658.857 74.160 659.047 Q 74.155 659.237 74.153 659.428 Q 74.151 659.618 74.152 659.809 Q 74.153 659.999 74.158 660.189 Q 74.162 660.380 74.170 660.570 Q 74.178 660.760 74.190 660.950 Q 74.201 661.141 74.215 661.330 Q 74.230 661.520 74.248 661.710 Q 74.266 661.899 74.287 662.089 Q 74.308 662.278 74.333 662.467 Q 74.357 662.656 74.385 662.844 Q 74.413 663.032 74.444 663.220 Q 74.475 663.408 74.509 663.595 Q 74.543 663.783 74.581 663.969 Q 74.619 664.156 74.660 664.342 Q 74.700 664.528 74.745 664.713 Q 74.789 664.899 74.836 665.083 Q 74.883 665.267 74.934 665.451 Q 74.984 665.635 75.038 665.817 Q 75.092 666.000 75.149 666.182 Q 75.206 666.363 75.266 666.544 Q 75.326 666.725 75.389 666.904 Q 75.452 667.084 75.519 667.263 Q 75.585 667.441 75.654 667.618 Q 75.724 667.796 75.796 667.972 Q 75.869 668.148 75.944 668.323 Q 76.020 668.497 76.099 668.671 Q 76.177 668.844 76.259 669.016 Q 76.341 669.188 76.425 669.359 Q 76.510 669.529 76.597 669.699 Q 76.685 669.868 76.776 670.035 Q 76.866 670.203 76.960 670.369 Q 77.053 670.535 77.149 670.699 Q 77.246 670.863 77.345 671.026 Q 77.444 671.188 77.546 671.349 Q 77.648 671.510 77.753 671.669 Q 77.858 671.828 77.965 671.985 Q 78.073 672.142 78.183 672.297 Q 78.293 672.453 78.406 672.606 Q 78.519 672.759 78.635 672.910 Q 78.751 673.062 78.869 673.211 Q 78.987 673.360 79.108 673.507 Q 79.229 673.655 79.352 673.800 Q 79.476 673.945 79.601 674.088 Q 79.727 674.230 79.856 674.371 Q 79.984 674.512 80.115 674.650 Q 80.246 674.788 80.379 674.924 Q 80.512 675.061 80.648 675.194 Q 80.783 675.328 80.921 675.459 Q 81.059 675.591 81.199 675.720 Q 81.339 675.849 81.482 675.975 Q 81.624 676.101 81.769 676.225 Q 81.913 676.349 82.060 676.471 Q 82.207 676.592 82.355 676.711 Q 82.504 676.830 82.655 676.946 Q 82.806 677.062 82.959 677.176 Q 83.112 677.289 83.266 677.400 Q 83.421 677.511 83.578 677.619 Q 83.735 677.727 83.893 677.833 Q 84.052 677.938 84.212 678.041 Q 84.373 678.144 84.535 678.243 Q 84.697 678.343 84.861 678.440 Q 85.025 678.537 85.190 678.631 Q 85.356 678.725 85.523 678.816 Q 85.690 678.908 85.859 678.996 Q 86.028 679.084 86.198 679.169 Q 86.368 679.255 86.540 679.337 Q 86.712 679.419 86.885 679.499 Q 87.058 679.578 87.232 679.654 Q 87.407 679.730 87.583 679.804 Q 87.759 679.877 87.936 679.947 Q 88.113 680.017 88.291 680.084 Q 88.469 680.151 88.648 680.215 Q 88.828 680.279 89.008 680.340 Q 89.189 680.401 89.370 680.458 Q 89.552 680.516 89.734 680.570 Q 89.917 680.625 90.100 680.676 Q 90.284 680.727 90.468 680.775 Q 90.652 680.823 90.837 680.868 Q 91.022 680.913 91.208 680.954 Q 91.394 680.996 91.580 681.034 Q 91.767 681.073 91.954 681.108 Q 92.141 681.143 92.329 681.175 Q 92.517 681.206 92.705 681.235 Q 92.893 681.263 93.082 681.289 Q 93.271 681.314 93.460 681.336 Q 93.649 681.358 93.839 681.376 Q 94.028 681.395 94.218 681.410 Q 94.408 681.426 94.598 681.438 Q 94.788 681.449 94.978 681.458 Q 95.168 681.467 95.359 681.472 Q 95.549 681.478 95.739 681.480 Z"></path>
    <path id="STROKE_57fd8580-3323-4f01-8189-4df5343122b9" opacity="1.000" fill="none" stroke="#f9f9f1" stroke-width="0.921" stroke-opacity="1.000" stroke-linecap="round" stroke-linejoin="round" d="M 95.761 802.966 Q 95.952 802.968 96.142 802.966 Q 96.332 802.965 96.523 802.960 Q 96.713 802.956 96.903 802.948 Q 97.094 802.940 97.284 802.929 Q 97.474 802.917 97.664 802.903 Q 97.854 802.888 98.043 802.870 Q 98.233 802.853 98.422 802.831 Q 98.611 802.810 98.800 802.786 Q 98.989 802.761 99.177 802.733 Q 99.366 802.706 99.554 802.675 Q 99.741 802.643 99.929 802.609 Q 100.116 802.575 100.303 802.537 Q 100.489 802.500 100.675 802.459 Q 100.861 802.418 101.047 802.374 Q 101.232 802.330 101.416 802.282 Q 101.601 802.235 101.784 802.185 Q 101.968 802.134 102.151 802.080 Q 102.333 802.026 102.515 801.970 Q 102.697 801.913 102.877 801.853 Q 103.058 801.793 103.238 801.729 Q 103.417 801.666 103.596 801.600 Q 103.774 801.533 103.952 801.464 Q 104.129 801.395 104.305 801.322 Q 104.481 801.249 104.656 801.174 Q 104.831 801.098 105.004 801.020 Q 105.178 800.941 105.350 800.859 Q 105.522 800.778 105.692 800.693 Q 105.863 800.608 106.032 800.521 Q 106.201 800.433 106.368 800.343 Q 106.536 800.252 106.702 800.159 Q 106.868 800.065 107.032 799.969 Q 107.196 799.873 107.359 799.773 Q 107.521 799.674 107.682 799.572 Q 107.843 799.470 108.002 799.365 Q 108.161 799.261 108.318 799.153 Q 108.475 799.045 108.631 798.935 Q 108.786 798.825 108.939 798.712 Q 109.092 798.599 109.244 798.483 Q 109.395 798.368 109.544 798.249 Q 109.694 798.131 109.841 798.010 Q 109.988 797.890 110.133 797.766 Q 110.278 797.643 110.421 797.517 Q 110.564 797.391 110.704 797.263 Q 110.845 797.134 110.983 797.003 Q 111.122 796.872 111.258 796.739 Q 111.394 796.606 111.528 796.471 Q 111.661 796.335 111.793 796.197 Q 111.924 796.059 112.053 795.919 Q 112.182 795.779 112.308 795.637 Q 112.435 795.494 112.559 795.350 Q 112.683 795.205 112.804 795.058 Q 112.926 794.912 113.044 794.763 Q 113.163 794.614 113.279 794.463 Q 113.396 794.312 113.509 794.160 Q 113.623 794.007 113.734 793.852 Q 113.844 793.697 113.953 793.540 Q 114.061 793.384 114.166 793.225 Q 114.272 793.066 114.374 792.906 Q 114.477 792.746 114.577 792.583 Q 114.676 792.421 114.773 792.257 Q 114.870 792.093 114.965 791.928 Q 115.059 791.762 115.150 791.595 Q 115.241 791.428 115.329 791.259 Q 115.417 791.091 115.503 790.920 Q 115.588 790.750 115.670 790.578 Q 115.753 790.407 115.832 790.233 Q 115.911 790.060 115.988 789.886 Q 116.064 789.711 116.137 789.536 Q 116.210 789.360 116.280 789.183 Q 116.350 789.006 116.418 788.827 Q 116.485 788.649 116.548 788.470 Q 116.612 788.290 116.673 788.110 Q 116.734 787.930 116.792 787.748 Q 116.849 787.567 116.904 787.384 Q 116.958 787.202 117.009 787.018 Q 117.061 786.835 117.109 786.650 Q 117.157 786.466 117.201 786.281 Q 117.246 786.096 117.288 785.910 Q 117.329 785.724 117.368 785.538 Q 117.406 785.351 117.441 785.164 Q 117.476 784.977 117.508 784.789 Q 117.540 784.602 117.568 784.413 Q 117.597 784.225 117.622 784.036 Q 117.647 783.847 117.669 783.658 Q 117.691 783.469 117.710 783.280 Q 117.728 783.090 117.744 782.900 Q 117.759 782.710 117.771 782.520 Q 117.783 782.330 117.791 782.140 Q 117.800 781.950 117.806 781.760 Q 117.811 781.569 117.813 781.379 Q 117.815 781.188 117.814 780.998 Q 117.812 780.808 117.808 780.617 Q 117.803 780.427 117.795 780.237 Q 117.787 780.046 117.776 779.856 Q 117.765 779.666 117.750 779.476 Q 117.736 779.286 117.718 779.097 Q 117.700 778.907 117.679 778.718 Q 117.657 778.529 117.633 778.340 Q 117.608 778.151 117.581 777.963 Q 117.553 777.774 117.522 777.586 Q 117.491 777.399 117.456 777.211 Q 117.422 777.024 117.384 776.837 Q 117.347 776.651 117.306 776.465 Q 117.265 776.279 117.221 776.093 Q 117.177 775.908 117.130 775.724 Q 117.082 775.539 117.032 775.356 Q 116.981 775.172 116.927 774.989 Q 116.874 774.807 116.817 774.625 Q 116.760 774.443 116.700 774.262 Q 116.640 774.082 116.577 773.902 Q 116.513 773.723 116.447 773.544 Q 116.381 773.366 116.311 773.188 Q 116.242 773.011 116.169 772.835 Q 116.097 772.659 116.021 772.484 Q 115.945 772.309 115.867 772.136 Q 115.788 771.962 115.707 771.790 Q 115.625 771.618 115.540 771.448 Q 115.456 771.277 115.368 771.108 Q 115.280 770.939 115.190 770.771 Q 115.099 770.604 115.006 770.438 Q 114.912 770.272 114.816 770.108 Q 114.720 769.944 114.621 769.781 Q 114.521 769.619 114.419 769.458 Q 114.317 769.297 114.213 769.138 Q 114.108 768.979 114.000 768.822 Q 113.893 768.665 113.782 768.509 Q 113.672 768.354 113.559 768.201 Q 113.446 768.048 113.331 767.896 Q 113.215 767.745 113.097 767.596 Q 112.978 767.446 112.858 767.299 Q 112.737 767.152 112.613 767.007 Q 112.490 766.862 112.364 766.719 Q 112.238 766.576 112.110 766.436 Q 111.981 766.295 111.851 766.157 Q 111.720 766.018 111.587 765.882 Q 111.453 765.746 111.318 765.612 Q 111.182 765.479 111.044 765.347 Q 110.906 765.216 110.766 765.087 Q 110.626 764.958 110.484 764.832 Q 110.341 764.705 110.197 764.581 Q 110.052 764.457 109.906 764.336 Q 109.759 764.214 109.610 764.096 Q 109.461 763.977 109.310 763.861 Q 109.160 763.744 109.007 763.631 Q 108.854 763.517 108.699 763.406 Q 108.544 763.296 108.388 763.187 Q 108.231 763.079 108.072 762.974 Q 107.914 762.868 107.753 762.766 Q 107.593 762.663 107.431 762.563 Q 107.268 762.464 107.105 762.367 Q 106.941 762.270 106.775 762.176 Q 106.610 762.081 106.442 761.990 Q 106.275 761.899 106.106 761.811 Q 105.938 761.723 105.767 761.637 Q 105.597 761.552 105.426 761.470 Q 105.254 761.387 105.081 761.308 Q 104.908 761.229 104.733 761.152 Q 104.559 761.076 104.383 761.003 Q 104.207 760.930 104.030 760.860 Q 103.853 760.789 103.675 760.722 Q 103.496 760.655 103.317 760.591 Q 103.138 760.528 102.957 760.467 Q 102.777 760.406 102.595 760.348 Q 102.414 760.291 102.231 760.236 Q 102.049 760.182 101.865 760.131 Q 101.682 760.079 101.498 760.031 Q 101.313 759.983 101.128 759.939 Q 100.943 759.894 100.757 759.852 Q 100.572 759.811 100.385 759.772 Q 100.199 759.734 100.011 759.699 Q 99.824 759.664 99.636 759.632 Q 99.449 759.600 99.260 759.572 Q 99.072 759.543 98.883 759.518 Q 98.695 759.493 98.506 759.471 Q 98.316 759.449 98.127 759.430 Q 97.937 759.412 97.748 759.396 Q 97.558 759.381 97.368 759.369 Q 97.178 759.357 96.987 759.349 Q 96.797 759.340 96.607 759.334 Q 96.416 759.329 96.226 759.327 Q 96.036 759.325 95.845 759.326 Q 95.655 759.328 95.464 759.332 Q 95.274 759.337 95.084 759.345 Q 94.894 759.353 94.703 759.364 Q 94.513 759.375 94.324 759.390 Q 94.134 759.404 93.944 759.422 Q 93.754 759.440 93.565 759.461 Q 93.376 759.483 93.187 759.507 Q 92.998 759.532 92.810 759.559 Q 92.622 759.587 92.434 759.618 Q 92.246 759.649 92.058 759.684 Q 91.871 759.718 91.685 759.756 Q 91.498 759.793 91.312 759.834 Q 91.126 759.875 90.941 759.919 Q 90.755 759.963 90.571 760.010 Q 90.386 760.058 90.203 760.108 Q 90.019 760.159 89.837 760.213 Q 89.654 760.266 89.472 760.323 Q 89.290 760.380 89.110 760.440 Q 88.929 760.500 88.749 760.563 Q 88.570 760.627 88.391 760.693 Q 88.213 760.759 88.035 760.829 Q 87.858 760.898 87.682 760.971 Q 87.506 761.043 87.331 761.119 Q 87.156 761.195 86.983 761.273 Q 86.810 761.352 86.638 761.433 Q 86.466 761.515 86.295 761.600 Q 86.124 761.684 85.955 761.772 Q 85.786 761.860 85.619 761.950 Q 85.451 762.041 85.285 762.134 Q 85.119 762.228 84.955 762.324 Q 84.791 762.420 84.628 762.519 Q 84.466 762.619 84.305 762.721 Q 84.144 762.823 83.985 762.927 Q 83.826 763.032 83.669 763.140 Q 83.512 763.247 83.357 763.358 Q 83.201 763.468 83.048 763.581 Q 82.895 763.694 82.743 763.809 Q 82.592 763.925 82.443 764.043 Q 82.294 764.162 82.147 764.282 Q 81.999 764.403 81.854 764.527 Q 81.709 764.650 81.566 764.776 Q 81.424 764.902 81.283 765.030 Q 81.142 765.159 81.004 765.289 Q 80.865 765.420 80.729 765.553 Q 80.593 765.687 80.460 765.822 Q 80.326 765.958 80.195 766.096 Q 80.063 766.234 79.934 766.374 Q 79.805 766.514 79.679 766.656 Q 79.552 766.799 79.428 766.943 Q 79.305 767.088 79.183 767.234 Q 79.062 767.381 78.943 767.530 Q 78.824 767.679 78.708 767.830 Q 78.592 767.980 78.478 768.133 Q 78.365 768.286 78.254 768.441 Q 78.143 768.596 78.035 768.752 Q 77.926 768.909 77.821 769.068 Q 77.716 769.226 77.613 769.387 Q 77.510 769.547 77.411 769.709 Q 77.311 769.872 77.214 770.035 Q 77.117 770.199 77.023 770.365 Q 76.929 770.530 76.837 770.698 Q 76.746 770.865 76.658 771.034 Q 76.570 771.202 76.484 771.372 Q 76.399 771.543 76.317 771.714 Q 76.235 771.886 76.155 772.059 Q 76.076 772.232 76.000 772.407 Q 75.923 772.581 75.850 772.757 Q 75.777 772.933 75.707 773.110 Q 75.637 773.287 75.570 773.465 Q 75.503 773.644 75.439 773.823 Q 75.375 774.002 75.314 774.183 Q 75.253 774.363 75.196 774.545 Q 75.138 774.726 75.084 774.909 Q 75.029 775.091 74.978 775.275 Q 74.927 775.458 74.879 775.642 Q 74.831 775.827 74.786 776.012 Q 74.741 776.197 74.699 776.383 Q 74.658 776.568 74.620 776.755 Q 74.581 776.941 74.546 777.129 Q 74.511 777.316 74.479 777.504 Q 74.448 777.691 74.419 777.880 Q 74.391 778.068 74.365 778.257 Q 74.340 778.445 74.318 778.634 Q 74.296 778.824 74.278 779.013 Q 74.259 779.203 74.244 779.392 Q 74.228 779.582 74.216 779.772 Q 74.204 779.962 74.196 780.153 Q 74.187 780.343 74.182 780.533 Q 74.176 780.724 74.174 780.914 Q 74.172 781.104 74.174 781.295 Q 74.175 781.485 74.180 781.676 Q 74.184 781.866 74.192 782.056 Q 74.200 782.246 74.211 782.437 Q 74.223 782.627 74.237 782.817 Q 74.252 783.006 74.270 783.196 Q 74.287 783.385 74.309 783.575 Q 74.330 783.764 74.354 783.953 Q 74.379 784.142 74.407 784.330 Q 74.434 784.518 74.465 784.706 Q 74.497 784.894 74.531 785.082 Q 74.565 785.269 74.603 785.455 Q 74.640 785.642 74.681 785.828 Q 74.722 786.014 74.766 786.199 Q 74.810 786.385 74.858 786.569 Q 74.905 786.754 74.955 786.937 Q 75.006 787.121 75.060 787.303 Q 75.113 787.486 75.170 787.668 Q 75.227 787.850 75.287 788.030 Q 75.347 788.211 75.411 788.391 Q 75.474 788.570 75.540 788.749 Q 75.607 788.927 75.676 789.104 Q 75.745 789.282 75.818 789.458 Q 75.891 789.634 75.966 789.809 Q 76.042 789.984 76.120 790.157 Q 76.199 790.330 76.281 790.502 Q 76.362 790.674 76.447 790.845 Q 76.532 791.016 76.619 791.185 Q 76.707 791.354 76.797 791.521 Q 76.888 791.689 76.981 791.855 Q 77.075 792.021 77.171 792.185 Q 77.267 792.349 77.367 792.512 Q 77.466 792.674 77.568 792.835 Q 77.670 792.996 77.775 793.155 Q 77.879 793.314 77.987 793.471 Q 78.095 793.628 78.205 793.783 Q 78.315 793.939 78.428 794.092 Q 78.541 794.245 78.657 794.396 Q 78.772 794.548 78.891 794.697 Q 79.009 794.846 79.130 794.993 Q 79.250 795.141 79.374 795.286 Q 79.497 795.431 79.623 795.574 Q 79.749 795.716 79.877 795.857 Q 80.006 795.998 80.137 796.136 Q 80.267 796.274 80.401 796.411 Q 80.534 796.547 80.669 796.680 Q 80.805 796.814 80.943 796.945 Q 81.081 797.077 81.221 797.206 Q 81.361 797.335 81.503 797.461 Q 81.646 797.588 81.790 797.711 Q 81.935 797.835 82.082 797.957 Q 82.228 798.078 82.377 798.197 Q 82.526 798.316 82.677 798.432 Q 82.828 798.548 82.980 798.662 Q 83.133 798.776 83.288 798.886 Q 83.443 798.997 83.600 799.105 Q 83.756 799.214 83.915 799.319 Q 84.074 799.424 84.234 799.527 Q 84.394 799.630 84.557 799.729 Q 84.719 799.829 84.883 799.926 Q 85.047 800.023 85.212 800.117 Q 85.378 800.211 85.545 800.302 Q 85.712 800.394 85.881 800.482 Q 86.049 800.570 86.220 800.656 Q 86.390 800.741 86.562 800.823 Q 86.733 800.905 86.907 800.985 Q 87.080 801.064 87.254 801.140 Q 87.429 801.217 87.604 801.290 Q 87.780 801.363 87.957 801.433 Q 88.134 801.503 88.313 801.570 Q 88.491 801.637 88.670 801.701 Q 88.850 801.765 89.030 801.826 Q 89.210 801.887 89.392 801.944 Q 89.573 802.002 89.756 802.056 Q 89.938 802.111 90.122 802.162 Q 90.305 802.213 90.490 802.261 Q 90.674 802.309 90.859 802.354 Q 91.044 802.399 91.230 802.440 Q 91.416 802.482 91.602 802.520 Q 91.789 802.559 91.976 802.594 Q 92.163 802.629 92.351 802.661 Q 92.538 802.692 92.727 802.721 Q 92.915 802.750 93.104 802.775 Q 93.293 802.800 93.482 802.822 Q 93.671 802.844 93.860 802.862 Q 94.050 802.881 94.240 802.896 Q 94.429 802.912 94.620 802.924 Q 94.810 802.936 95.000 802.944 Q 95.190 802.953 95.380 802.958 Q 95.571 802.964 95.761 802.966 Z"></path>
    <path id="STROKE_bea7ca91-0f6f-4874-8b3b-937efc6cfd89" opacity="1.000" fill="none" stroke="#f9f9f1" stroke-width="0.921" stroke-opacity="1.000" stroke-linecap="round" stroke-linejoin="round" d="M -14.268 613.667 L 75.313 646.289 "></path>
    <path id="STROKE_3d01a0b0-db57-4513-a89f-5b13aa857a52" opacity="1.000" fill="none" stroke="#f9f9f1" stroke-width="0.921" stroke-opacity="1.000" stroke-linecap="round" stroke-linejoin="round" d="M -14.460 713.253 L 73.729 672.118 "></path>
    <path id="STROKE_f9c410cb-16ec-4430-861c-b25dee24e4ab" opacity="1.000" fill="none" stroke="#f9f9f1" stroke-width="0.921" stroke-opacity="1.000" stroke-linecap="round" stroke-linejoin="round" d="M -17.433 729.616 L 73.536 771.992 "></path>
    <path id="STROKE_9231812a-a044-4a52-9740-15b211132bf3" opacity="1.000" fill="none" stroke="#f9f9f1" stroke-width="0.921" stroke-opacity="1.000" stroke-linecap="round" stroke-linejoin="round" d="M -20.685 824.880 L 80.364 679.548 "></path>
    <path id="STROKE_8c8e3d95-b360-4869-bd70-e97a1261c57b" opacity="1.000" fill="none" stroke="#f9f9f1" stroke-width="0.921" stroke-opacity="1.000" stroke-linecap="round" stroke-linejoin="round" d="M -23.756 626.820 L 80.980 758.067 "></path>
    <path id="STROKE_9ee31984-00f8-4557-a630-71b316777d0c" opacity="1.000" fill="none" stroke="#f9f9f1" stroke-width="0.921" stroke-opacity="1.000" stroke-linecap="round" stroke-linejoin="round" d="M -16.742 835.758 L 74.519 792.710 "></path>
  </g>
</svg>