<?xml version="1.0" encoding="UTF-8" standalone="yes"?>
<svg xmlns="http://www.w3.org/2000/svg" xmlns:xlink="http://www.w3.org/1999/xlink" width="354.793pt" height="511.275pt" version="1.1" viewBox="-162.269 485.963 354.793 511.275">
  <!--
	Exported with Concepts: Smarter Sketching
	Version: 2024.11 on Android 13
	https://concepts.app/
	-->
  <title>Node Features Example</title>
  <desc>Drawing exported from Concepts: Smarter Sketching</desc>
  <defs></defs>
  <g id="Pen" opacity="1.000">
    <path id="STROKE_9bb4d267-b962-4c98-84fe-f778dff0d1bd" opacity="1.000" fill="none" stroke="#f9f9f1" stroke-width="1.600" stroke-opacity="1.000" stroke-linecap="round" stroke-linejoin="round" d="M -103.569 588.146 Q -103.238 588.149 -102.907 588.146 Q -102.576 588.143 -102.245 588.135 Q -101.915 588.126 -101.584 588.112 Q -101.253 588.097 -100.923 588.077 Q -100.593 588.057 -100.263 588.031 Q -99.933 588.005 -99.604 587.973 Q -99.274 587.941 -98.945 587.904 Q -98.617 587.866 -98.289 587.823 Q -97.960 587.780 -97.633 587.731 Q -97.306 587.682 -96.980 587.628 Q -96.653 587.573 -96.328 587.513 Q -96.002 587.452 -95.678 587.386 Q -95.354 587.320 -95.031 587.249 Q -94.708 587.177 -94.386 587.100 Q -94.064 587.023 -93.744 586.940 Q -93.424 586.857 -93.105 586.769 Q -92.786 586.680 -92.468 586.586 Q -92.151 586.492 -91.836 586.393 Q -91.520 586.293 -91.206 586.188 Q -90.892 586.083 -90.580 585.973 Q -90.269 585.862 -89.959 585.746 Q -89.649 585.630 -89.341 585.509 Q -89.033 585.388 -88.727 585.261 Q -88.421 585.135 -88.118 585.003 Q -87.814 584.871 -87.513 584.734 Q -87.212 584.596 -86.914 584.454 Q -86.615 584.311 -86.319 584.164 Q -86.023 584.016 -85.729 583.863 Q -85.436 583.710 -85.145 583.553 Q -84.854 583.395 -84.566 583.232 Q -84.278 583.069 -83.993 582.901 Q -83.708 582.733 -83.426 582.560 Q -83.143 582.387 -82.864 582.209 Q -82.585 582.031 -82.309 581.849 Q -82.033 581.666 -81.761 581.479 Q -81.488 581.291 -81.219 581.099 Q -80.949 580.907 -80.683 580.710 Q -80.417 580.513 -80.155 580.312 Q -79.892 580.110 -79.633 579.904 Q -79.374 579.698 -79.119 579.488 Q -78.863 579.277 -78.612 579.063 Q -78.360 578.848 -78.112 578.628 Q -77.865 578.409 -77.621 578.186 Q -77.377 577.962 -77.137 577.734 Q -76.897 577.506 -76.661 577.275 Q -76.424 577.043 -76.193 576.807 Q -75.961 576.571 -75.733 576.331 Q -75.505 576.090 -75.282 575.846 Q -75.058 575.603 -74.839 575.355 Q -74.619 575.107 -74.404 574.855 Q -74.190 574.604 -73.979 574.348 Q -73.769 574.093 -73.563 573.834 Q -73.357 573.575 -73.155 573.312 Q -72.954 573.050 -72.757 572.784 Q -72.560 572.518 -72.368 572.249 Q -72.176 571.979 -71.988 571.706 Q -71.801 571.434 -71.618 571.158 Q -71.436 570.882 -71.258 570.603 Q -71.080 570.324 -70.907 570.042 Q -70.734 569.759 -70.566 569.474 Q -70.398 569.189 -70.235 568.901 Q -70.072 568.613 -69.915 568.322 Q -69.757 568.031 -69.604 567.738 Q -69.451 567.444 -69.303 567.148 Q -69.156 566.852 -69.013 566.553 Q -68.871 566.255 -68.734 565.954 Q -68.596 565.653 -68.464 565.349 Q -68.332 565.046 -68.206 564.740 Q -68.079 564.434 -67.958 564.126 Q -67.837 563.818 -67.721 563.508 Q -67.605 563.198 -67.494 562.887 Q -67.384 562.575 -67.279 562.261 Q -67.174 561.947 -67.074 561.631 Q -66.975 561.316 -66.881 560.999 Q -66.787 560.681 -66.699 560.362 Q -66.610 560.044 -66.527 559.723 Q -66.444 559.403 -66.367 559.081 Q -66.290 558.759 -66.218 558.436 Q -66.147 558.113 -66.081 557.789 Q -66.015 557.465 -65.954 557.139 Q -65.894 556.814 -65.839 556.487 Q -65.785 556.161 -65.736 555.834 Q -65.687 555.507 -65.644 555.179 Q -65.601 554.850 -65.563 554.522 Q -65.526 554.193 -65.494 553.863 Q -65.462 553.534 -65.436 553.204 Q -65.410 552.874 -65.390 552.544 Q -65.370 552.214 -65.356 551.883 Q -65.341 551.553 -65.332 551.222 Q -65.324 550.891 -65.321 550.560 Q -65.318 550.229 -65.321 549.898 Q -65.324 549.567 -65.332 549.237 Q -65.341 548.906 -65.356 548.575 Q -65.370 548.245 -65.390 547.914 Q -65.410 547.584 -65.436 547.254 Q -65.462 546.924 -65.494 546.595 Q -65.526 546.265 -65.563 545.937 Q -65.601 545.608 -65.644 545.280 Q -65.687 544.952 -65.736 544.624 Q -65.785 544.297 -65.839 543.971 Q -65.894 543.644 -65.954 543.319 Q -66.015 542.994 -66.081 542.669 Q -66.147 542.345 -66.218 542.022 Q -66.290 541.699 -66.367 541.377 Q -66.444 541.056 -66.527 540.735 Q -66.610 540.415 -66.699 540.096 Q -66.787 539.777 -66.881 539.460 Q -66.975 539.142 -67.074 538.827 Q -67.174 538.511 -67.279 538.197 Q -67.384 537.884 -67.494 537.572 Q -67.605 537.260 -67.721 536.950 Q -67.837 536.640 -67.958 536.332 Q -68.079 536.024 -68.206 535.718 Q -68.332 535.413 -68.464 535.109 Q -68.596 534.806 -68.734 534.505 Q -68.871 534.203 -69.013 533.905 Q -69.156 533.606 -69.303 533.310 Q -69.451 533.014 -69.604 532.720 Q -69.757 532.427 -69.915 532.136 Q -70.072 531.845 -70.235 531.557 Q -70.398 531.269 -70.566 530.984 Q -70.734 530.699 -70.907 530.417 Q -71.080 530.135 -71.258 529.856 Q -71.436 529.577 -71.618 529.301 Q -71.801 529.025 -71.988 528.752 Q -72.176 528.479 -72.368 528.210 Q -72.560 527.940 -72.757 527.674 Q -72.954 527.408 -73.155 527.146 Q -73.357 526.883 -73.563 526.624 Q -73.769 526.365 -73.979 526.110 Q -74.190 525.855 -74.405 525.603 Q -74.619 525.351 -74.839 525.104 Q -75.058 524.856 -75.282 524.612 Q -75.505 524.368 -75.733 524.128 Q -75.961 523.888 -76.193 523.652 Q -76.424 523.416 -76.661 523.184 Q -76.897 522.952 -77.137 522.724 Q -77.377 522.496 -77.621 522.273 Q -77.865 522.049 -78.112 521.830 Q -78.360 521.611 -78.612 521.396 Q -78.863 521.181 -79.119 520.970 Q -79.374 520.760 -79.633 520.554 Q -79.892 520.348 -80.155 520.146 Q -80.417 519.945 -80.683 519.748 Q -80.949 519.551 -81.219 519.359 Q -81.488 519.167 -81.761 518.980 Q -82.033 518.792 -82.309 518.609 Q -82.585 518.427 -82.864 518.249 Q -83.143 518.071 -83.426 517.898 Q -83.708 517.725 -83.993 517.557 Q -84.278 517.390 -84.566 517.227 Q -84.854 517.064 -85.145 516.906 Q -85.436 516.748 -85.729 516.595 Q -86.023 516.442 -86.319 516.295 Q -86.615 516.147 -86.914 516.005 Q -87.212 515.862 -87.513 515.725 Q -87.815 515.588 -88.118 515.456 Q -88.421 515.324 -88.727 515.197 Q -89.033 515.070 -89.341 514.949 Q -89.649 514.828 -89.959 514.712 Q -90.269 514.596 -90.580 514.486 Q -90.892 514.375 -91.206 514.270 Q -91.520 514.165 -91.836 514.066 Q -92.151 513.966 -92.468 513.872 Q -92.786 513.778 -93.105 513.690 Q -93.424 513.601 -93.744 513.518 Q -94.064 513.436 -94.386 513.358 Q -94.708 513.281 -95.031 513.210 Q -95.354 513.138 -95.678 513.072 Q -96.002 513.006 -96.328 512.946 Q -96.653 512.885 -96.980 512.831 Q -97.306 512.776 -97.633 512.727 Q -97.960 512.678 -98.289 512.635 Q -98.617 512.592 -98.945 512.554 Q -99.274 512.517 -99.604 512.485 Q -99.933 512.454 -100.263 512.428 Q -100.593 512.402 -100.923 512.381 Q -101.253 512.361 -101.584 512.347 Q -101.915 512.332 -102.245 512.324 Q -102.576 512.315 -102.907 512.312 Q -103.238 512.309 -103.569 512.312 Q -103.900 512.315 -104.230 512.324 Q -104.561 512.332 -104.892 512.347 Q -105.222 512.361 -105.553 512.381 Q -105.883 512.402 -106.213 512.428 Q -106.543 512.454 -106.872 512.485 Q -107.202 512.517 -107.530 512.554 Q -107.859 512.592 -108.187 512.635 Q -108.515 512.678 -108.843 512.727 Q -109.170 512.776 -109.496 512.831 Q -109.823 512.885 -110.148 512.946 Q -110.473 513.006 -110.798 513.072 Q -111.122 513.138 -111.445 513.210 Q -111.768 513.281 -112.090 513.358 Q -112.412 513.436 -112.732 513.518 Q -113.052 513.601 -113.371 513.690 Q -113.690 513.778 -114.007 513.872 Q -114.325 513.966 -114.640 514.066 Q -114.956 514.165 -115.270 514.270 Q -115.583 514.375 -115.895 514.486 Q -116.207 514.596 -116.517 514.712 Q -116.827 514.828 -117.135 514.949 Q -117.443 515.070 -117.749 515.197 Q -118.054 515.324 -118.358 515.456 Q -118.661 515.588 -118.962 515.725 Q -119.264 515.862 -119.562 516.005 Q -119.861 516.147 -120.157 516.295 Q -120.453 516.442 -120.747 516.595 Q -121.040 516.748 -121.331 516.906 Q -121.622 517.064 -121.910 517.227 Q -122.198 517.390 -122.483 517.557 Q -122.768 517.725 -123.050 517.898 Q -123.332 518.071 -123.611 518.249 Q -123.891 518.427 -124.167 518.609 Q -124.442 518.792 -124.715 518.980 Q -124.988 519.167 -125.257 519.359 Q -125.527 519.551 -125.793 519.748 Q -126.059 519.945 -126.321 520.146 Q -126.584 520.348 -126.843 520.554 Q -127.102 520.760 -127.357 520.970 Q -127.612 521.181 -127.864 521.396 Q -128.116 521.611 -128.363 521.830 Q -128.611 522.049 -128.855 522.273 Q -129.099 522.496 -129.339 522.724 Q -129.579 522.952 -129.815 523.184 Q -130.051 523.416 -130.283 523.652 Q -130.515 523.888 -130.743 524.128 Q -130.971 524.368 -131.194 524.612 Q -131.418 524.856 -131.637 525.104 Q -131.856 525.351 -132.071 525.603 Q -132.286 525.855 -132.497 526.110 Q -132.707 526.365 -132.913 526.624 Q -133.119 526.883 -133.321 527.146 Q -133.522 527.408 -133.719 527.674 Q -133.916 527.940 -134.108 528.210 Q -134.300 528.479 -134.488 528.752 Q -134.675 529.025 -134.858 529.301 Q -135.040 529.577 -135.218 529.856 Q -135.396 530.135 -135.569 530.417 Q -135.742 530.699 -135.910 530.984 Q -136.078 531.269 -136.240 531.557 Q -136.403 531.845 -136.561 532.136 Q -136.719 532.427 -136.872 532.720 Q -137.025 533.014 -137.172 533.310 Q -137.320 533.606 -137.463 533.905 Q -137.605 534.203 -137.742 534.505 Q -137.879 534.806 -138.011 535.109 Q -138.143 535.413 -138.270 535.718 Q -138.397 536.024 -138.518 536.332 Q -138.639 536.640 -138.755 536.950 Q -138.871 537.260 -138.981 537.572 Q -139.092 537.884 -139.197 538.197 Q -139.302 538.511 -139.401 538.827 Q -139.501 539.142 -139.595 539.460 Q -139.689 539.777 -139.777 540.096 Q -139.866 540.415 -139.949 540.735 Q -140.031 541.056 -140.109 541.377 Q -140.186 541.699 -140.258 542.022 Q -140.329 542.345 -140.395 542.669 Q -140.461 542.994 -140.521 543.319 Q -140.582 543.644 -140.636 543.971 Q -140.691 544.297 -140.740 544.624 Q -140.789 544.952 -140.832 545.280 Q -140.875 545.608 -140.913 545.937 Q -140.950 546.265 -140.982 546.595 Q -141.014 546.924 -141.039 547.254 Q -141.065 547.584 -141.086 547.914 Q -141.106 548.245 -141.120 548.575 Q -141.135 548.906 -141.143 549.237 Q -141.152 549.567 -141.155 549.898 Q -141.158 550.229 -141.155 550.560 Q -141.152 550.891 -141.143 551.222 Q -141.135 551.553 -141.120 551.883 Q -141.106 552.214 -141.086 552.544 Q -141.065 552.874 -141.039 553.204 Q -141.014 553.534 -140.982 553.863 Q -140.950 554.193 -140.913 554.522 Q -140.875 554.850 -140.832 555.179 Q -140.789 555.507 -140.740 555.834 Q -140.691 556.161 -140.636 556.487 Q -140.582 556.814 -140.521 557.139 Q -140.461 557.465 -140.395 557.789 Q -140.329 558.113 -140.258 558.436 Q -140.186 558.759 -140.109 559.081 Q -140.031 559.403 -139.949 559.723 Q -139.866 560.044 -139.777 560.362 Q -139.689 560.681 -139.595 560.999 Q -139.501 561.316 -139.401 561.631 Q -139.302 561.947 -139.197 562.261 Q -139.092 562.575 -138.981 562.887 Q -138.871 563.199 -138.755 563.508 Q -138.639 563.818 -138.518 564.126 Q -138.397 564.434 -138.270 564.740 Q -138.143 565.046 -138.011 565.349 Q -137.879 565.653 -137.742 565.954 Q -137.605 566.255 -137.463 566.553 Q -137.320 566.852 -137.172 567.148 Q -137.025 567.444 -136.872 567.738 Q -136.719 568.031 -136.561 568.322 Q -136.403 568.613 -136.240 568.901 Q -136.078 569.189 -135.910 569.474 Q -135.742 569.759 -135.569 570.042 Q -135.396 570.324 -135.218 570.603 Q -135.040 570.882 -134.858 571.158 Q -134.675 571.434 -134.488 571.706 Q -134.300 571.979 -134.108 572.249 Q -133.916 572.518 -133.719 572.784 Q -133.522 573.050 -133.321 573.312 Q -133.119 573.575 -132.913 573.834 Q -132.707 574.093 -132.497 574.348 Q -132.286 574.604 -132.071 574.855 Q -131.856 575.107 -131.637 575.355 Q -131.418 575.603 -131.194 575.846 Q -130.971 576.090 -130.743 576.331 Q -130.515 576.571 -130.283 576.807 Q -130.051 577.043 -129.815 577.275 Q -129.579 577.506 -129.339 577.734 Q -129.099 577.962 -128.855 578.186 Q -128.611 578.409 -128.363 578.628 Q -128.116 578.848 -127.864 579.063 Q -127.612 579.277 -127.357 579.488 Q -127.102 579.698 -126.843 579.904 Q -126.584 580.110 -126.321 580.312 Q -126.059 580.513 -125.793 580.710 Q -125.527 580.907 -125.257 581.099 Q -124.988 581.291 -124.715 581.479 Q -124.442 581.666 -124.167 581.849 Q -123.891 582.031 -123.611 582.209 Q -123.332 582.387 -123.050 582.560 Q -122.768 582.733 -122.483 582.901 Q -122.198 583.069 -121.910 583.232 Q -121.622 583.395 -121.331 583.553 Q -121.040 583.710 -120.747 583.863 Q -120.453 584.016 -120.157 584.164 Q -119.861 584.311 -119.562 584.454 Q -119.264 584.596 -118.962 584.734 Q -118.661 584.871 -118.358 585.003 Q -118.054 585.135 -117.749 585.261 Q -117.443 585.388 -117.135 585.509 Q -116.827 585.630 -116.517 585.746 Q -116.207 585.862 -115.895 585.973 Q -115.583 586.083 -115.270 586.188 Q -114.956 586.293 -114.640 586.393 Q -114.325 586.492 -114.007 586.586 Q -113.690 586.680 -113.371 586.769 Q -113.052 586.857 -112.732 586.940 Q -112.412 587.023 -112.090 587.100 Q -111.768 587.177 -111.445 587.249 Q -111.122 587.320 -110.798 587.386 Q -110.473 587.452 -110.148 587.513 Q -109.823 587.573 -109.496 587.628 Q -109.170 587.682 -108.843 587.731 Q -108.515 587.780 -108.187 587.823 Q -107.859 587.866 -107.530 587.904 Q -107.202 587.941 -106.872 587.973 Q -106.543 588.005 -106.213 588.031 Q -105.883 588.057 -105.553 588.077 Q -105.222 588.097 -104.892 588.112 Q -104.561 588.126 -104.230 588.135 Q -103.900 588.143 -103.569 588.146 Z"></path>
    <path id="STROKE_3c77941f-6e56-4fce-a3ce-9d92bccd0418" opacity="1.000" fill="none" stroke="#f9f9f1" stroke-width="1.600" stroke-opacity="1.000" stroke-linecap="round" stroke-linejoin="round" d="M -104.182 779.253 Q -103.851 779.256 -103.521 779.253 Q -103.190 779.250 -102.859 779.242 Q -102.528 779.233 -102.197 779.219 Q -101.867 779.204 -101.537 779.184 Q -101.206 779.164 -100.876 779.138 Q -100.547 779.112 -100.217 779.080 Q -99.888 779.048 -99.559 779.011 Q -99.230 778.973 -98.902 778.930 Q -98.574 778.887 -98.247 778.838 Q -97.919 778.789 -97.593 778.735 Q -97.267 778.680 -96.941 778.620 Q -96.616 778.559 -96.292 778.493 Q -95.967 778.427 -95.644 778.356 Q -95.321 778.284 -95.000 778.207 Q -94.678 778.130 -94.357 778.047 Q -94.037 777.964 -93.718 777.876 Q -93.399 777.787 -93.082 777.693 Q -92.765 777.599 -92.449 777.500 Q -92.134 777.400 -91.820 777.295 Q -91.506 777.190 -91.194 777.080 Q -90.882 776.969 -90.572 776.853 Q -90.262 776.737 -89.954 776.616 Q -89.646 776.495 -89.341 776.368 Q -89.035 776.242 -88.732 776.110 Q -88.428 775.978 -88.127 775.840 Q -87.826 775.703 -87.527 775.561 Q -87.228 775.418 -86.932 775.271 Q -86.636 775.123 -86.343 774.970 Q -86.049 774.817 -85.758 774.660 Q -85.468 774.502 -85.180 774.339 Q -84.892 774.176 -84.606 774.008 Q -84.321 773.840 -84.039 773.667 Q -83.757 773.494 -83.478 773.316 Q -83.199 773.138 -82.923 772.956 Q -82.647 772.773 -82.374 772.586 Q -82.102 772.398 -81.832 772.206 Q -81.563 772.014 -81.297 771.817 Q -81.031 771.620 -80.768 771.419 Q -80.506 771.217 -80.247 771.011 Q -79.988 770.805 -79.732 770.595 Q -79.477 770.384 -79.225 770.170 Q -78.974 769.955 -78.726 769.735 Q -78.478 769.516 -78.234 769.293 Q -77.990 769.069 -77.750 768.841 Q -77.510 768.613 -77.274 768.381 Q -77.038 768.150 -76.806 767.914 Q -76.574 767.677 -76.346 767.438 Q -76.119 767.197 -75.895 766.953 Q -75.671 766.710 -75.452 766.462 Q -75.233 766.214 -75.018 765.962 Q -74.803 765.711 -74.593 765.455 Q -74.382 765.200 -74.176 764.941 Q -73.970 764.682 -73.769 764.419 Q -73.567 764.157 -73.370 763.891 Q -73.174 763.625 -72.981 763.355 Q -72.789 763.086 -72.602 762.813 Q -72.414 762.541 -72.232 762.265 Q -72.049 761.989 -71.871 761.710 Q -71.694 761.431 -71.521 761.148 Q -71.348 760.866 -71.180 760.581 Q -71.012 760.296 -70.849 760.008 Q -70.686 759.720 -70.528 759.429 Q -70.370 759.138 -70.217 758.845 Q -70.065 758.551 -69.917 758.255 Q -69.769 757.959 -69.627 757.660 Q -69.484 757.362 -69.347 757.061 Q -69.210 756.760 -69.078 756.456 Q -68.946 756.153 -68.819 755.847 Q -68.693 755.541 -68.571 755.233 Q -68.450 754.925 -68.334 754.615 Q -68.218 754.306 -68.108 753.994 Q -67.997 753.682 -67.893 753.368 Q -67.788 753.054 -67.688 752.738 Q -67.589 752.423 -67.495 752.106 Q -67.401 751.788 -67.312 751.469 Q -67.224 751.151 -67.141 750.830 Q -67.058 750.510 -66.981 750.188 Q -66.903 749.866 -66.832 749.543 Q -66.760 749.220 -66.694 748.896 Q -66.628 748.572 -66.568 748.246 Q -66.508 747.921 -66.453 747.594 Q -66.398 747.268 -66.350 746.941 Q -66.301 746.614 -66.257 746.286 Q -66.214 745.957 -66.177 745.629 Q -66.139 745.300 -66.108 744.970 Q -66.076 744.641 -66.050 744.311 Q -66.024 743.981 -66.004 743.651 Q -65.984 743.321 -65.969 742.990 Q -65.955 742.660 -65.946 742.329 Q -65.937 741.998 -65.934 741.667 Q -65.932 741.336 -65.934 741.005 Q -65.937 740.674 -65.946 740.344 Q -65.955 740.013 -65.969 739.682 Q -65.984 739.352 -66.004 739.021 Q -66.024 738.691 -66.050 738.361 Q -66.076 738.031 -66.108 737.702 Q -66.139 737.372 -66.177 737.044 Q -66.214 736.715 -66.257 736.387 Q -66.301 736.059 -66.350 735.731 Q -66.398 735.404 -66.453 735.078 Q -66.508 734.751 -66.568 734.426 Q -66.628 734.101 -66.694 733.776 Q -66.760 733.452 -66.832 733.129 Q -66.903 732.806 -66.981 732.484 Q -67.058 732.162 -67.141 731.842 Q -67.224 731.522 -67.312 731.203 Q -67.401 730.884 -67.495 730.567 Q -67.589 730.249 -67.688 729.934 Q -67.788 729.618 -67.893 729.304 Q -67.997 728.991 -68.108 728.679 Q -68.218 728.367 -68.334 728.057 Q -68.450 727.747 -68.571 727.439 Q -68.693 727.131 -68.819 726.825 Q -68.946 726.520 -69.078 726.216 Q -69.210 725.913 -69.347 725.612 Q -69.484 725.311 -69.627 725.012 Q -69.769 724.713 -69.917 724.417 Q -70.065 724.121 -70.217 723.827 Q -70.370 723.534 -70.528 723.243 Q -70.686 722.952 -70.849 722.664 Q -71.012 722.376 -71.180 722.091 Q -71.348 721.806 -71.521 721.524 Q -71.694 721.242 -71.871 720.963 Q -72.049 720.683 -72.232 720.408 Q -72.414 720.132 -72.602 719.859 Q -72.789 719.586 -72.981 719.317 Q -73.174 719.047 -73.370 718.781 Q -73.567 718.515 -73.769 718.253 Q -73.970 717.990 -74.176 717.731 Q -74.382 717.472 -74.593 717.217 Q -74.803 716.962 -75.018 716.710 Q -75.233 716.458 -75.452 716.211 Q -75.671 715.963 -75.895 715.719 Q -76.119 715.475 -76.346 715.235 Q -76.574 714.995 -76.806 714.759 Q -77.038 714.523 -77.274 714.291 Q -77.510 714.059 -77.750 713.831 Q -77.990 713.603 -78.234 713.380 Q -78.478 713.156 -78.726 712.937 Q -78.974 712.718 -79.225 712.503 Q -79.477 712.288 -79.732 712.077 Q -79.988 711.867 -80.247 711.661 Q -80.506 711.455 -80.768 711.253 Q -81.031 711.052 -81.297 710.855 Q -81.563 710.658 -81.832 710.466 Q -82.102 710.274 -82.374 710.087 Q -82.647 709.899 -82.923 709.716 Q -83.199 709.534 -83.478 709.356 Q -83.757 709.178 -84.039 709.005 Q -84.321 708.832 -84.606 708.665 Q -84.892 708.497 -85.180 708.334 Q -85.468 708.171 -85.758 708.013 Q -86.049 707.855 -86.343 707.702 Q -86.636 707.549 -86.932 707.402 Q -87.228 707.254 -87.527 707.112 Q -87.826 706.969 -88.127 706.832 Q -88.428 706.695 -88.732 706.563 Q -89.035 706.431 -89.341 706.304 Q -89.646 706.177 -89.954 706.056 Q -90.262 705.935 -90.572 705.819 Q -90.882 705.703 -91.194 705.593 Q -91.506 705.482 -91.820 705.377 Q -92.134 705.272 -92.449 705.173 Q -92.765 705.073 -93.082 704.979 Q -93.399 704.885 -93.718 704.797 Q -94.037 704.708 -94.357 704.625 Q -94.678 704.543 -95.000 704.465 Q -95.321 704.388 -95.644 704.317 Q -95.967 704.245 -96.292 704.179 Q -96.616 704.113 -96.941 704.053 Q -97.267 703.992 -97.593 703.938 Q -97.919 703.883 -98.247 703.834 Q -98.574 703.785 -98.902 703.742 Q -99.230 703.699 -99.559 703.661 Q -99.888 703.624 -100.217 703.592 Q -100.547 703.561 -100.876 703.535 Q -101.206 703.509 -101.537 703.488 Q -101.867 703.468 -102.197 703.454 Q -102.528 703.439 -102.859 703.431 Q -103.190 703.422 -103.521 703.419 Q -103.851 703.416 -104.182 703.419 Q -104.513 703.422 -104.844 703.431 Q -105.175 703.439 -105.505 703.454 Q -105.836 703.468 -106.166 703.488 Q -106.497 703.509 -106.827 703.535 Q -107.156 703.561 -107.486 703.592 Q -107.815 703.624 -108.144 703.661 Q -108.473 703.699 -108.801 703.742 Q -109.129 703.785 -109.456 703.834 Q -109.783 703.883 -110.110 703.938 Q -110.436 703.992 -110.762 704.053 Q -111.087 704.113 -111.411 704.179 Q -111.735 704.245 -112.059 704.317 Q -112.382 704.388 -112.703 704.465 Q -113.025 704.543 -113.345 704.625 Q -113.666 704.708 -113.985 704.797 Q -114.304 704.885 -114.621 704.979 Q -114.938 705.073 -115.254 705.173 Q -115.569 705.272 -115.883 705.377 Q -116.197 705.482 -116.509 705.593 Q -116.821 705.703 -117.131 705.819 Q -117.441 705.935 -117.749 706.056 Q -118.057 706.177 -118.362 706.304 Q -118.668 706.431 -118.971 706.563 Q -119.275 706.695 -119.576 706.832 Q -119.877 706.969 -120.176 707.112 Q -120.474 707.254 -120.771 707.402 Q -121.067 707.549 -121.360 707.702 Q -121.654 707.855 -121.945 708.013 Q -122.235 708.171 -122.523 708.334 Q -122.811 708.497 -123.097 708.665 Q -123.382 708.832 -123.664 709.005 Q -123.946 709.178 -124.225 709.356 Q -124.504 709.534 -124.780 709.716 Q -125.056 709.899 -125.329 710.087 Q -125.601 710.274 -125.871 710.466 Q -126.140 710.658 -126.406 710.855 Q -126.672 711.052 -126.935 711.253 Q -127.197 711.455 -127.456 711.661 Q -127.715 711.867 -127.971 712.077 Q -128.226 712.288 -128.478 712.503 Q -128.729 712.718 -128.977 712.937 Q -129.225 713.156 -129.469 713.380 Q -129.713 713.603 -129.953 713.831 Q -130.193 714.059 -130.429 714.291 Q -130.665 714.523 -130.897 714.759 Q -131.129 714.995 -131.357 715.235 Q -131.584 715.475 -131.808 715.719 Q -132.031 715.963 -132.251 716.211 Q -132.470 716.458 -132.685 716.710 Q -132.900 716.962 -133.110 717.217 Q -133.321 717.472 -133.527 717.731 Q -133.733 717.990 -133.934 718.253 Q -134.136 718.515 -134.332 718.781 Q -134.529 719.047 -134.721 719.317 Q -134.914 719.586 -135.101 719.859 Q -135.288 720.132 -135.471 720.408 Q -135.654 720.683 -135.832 720.963 Q -136.009 721.242 -136.182 721.524 Q -136.355 721.806 -136.523 722.091 Q -136.691 722.376 -136.854 722.664 Q -137.017 722.952 -137.175 723.243 Q -137.333 723.534 -137.486 723.827 Q -137.638 724.121 -137.786 724.417 Q -137.934 724.713 -138.076 725.012 Q -138.219 725.311 -138.356 725.612 Q -138.493 725.913 -138.625 726.216 Q -138.757 726.520 -138.884 726.825 Q -139.010 727.131 -139.131 727.439 Q -139.253 727.747 -139.369 728.057 Q -139.484 728.367 -139.595 728.679 Q -139.705 728.991 -139.810 729.304 Q -139.915 729.618 -140.015 729.934 Q -140.114 730.249 -140.208 730.567 Q -140.302 730.884 -140.391 731.203 Q -140.479 731.522 -140.562 731.842 Q -140.645 732.162 -140.722 732.484 Q -140.799 732.806 -140.871 733.129 Q -140.943 733.452 -141.009 733.776 Q -141.075 734.101 -141.135 734.426 Q -141.195 734.751 -141.250 735.078 Q -141.305 735.404 -141.353 735.731 Q -141.402 736.059 -141.446 736.387 Q -141.489 736.715 -141.526 737.044 Q -141.564 737.372 -141.595 737.702 Q -141.627 738.031 -141.653 738.361 Q -141.679 738.691 -141.699 739.021 Q -141.719 739.352 -141.734 739.682 Q -141.748 740.013 -141.757 740.344 Q -141.766 740.674 -141.768 741.005 Q -141.771 741.336 -141.768 741.667 Q -141.766 741.998 -141.757 742.329 Q -141.748 742.660 -141.734 742.990 Q -141.719 743.321 -141.699 743.651 Q -141.679 743.981 -141.653 744.311 Q -141.627 744.641 -141.595 744.970 Q -141.564 745.300 -141.526 745.629 Q -141.489 745.957 -141.446 746.286 Q -141.402 746.614 -141.353 746.941 Q -141.305 747.268 -141.250 747.594 Q -141.195 747.921 -141.135 748.246 Q -141.075 748.572 -141.009 748.896 Q -140.943 749.220 -140.871 749.543 Q -140.799 749.866 -140.722 750.188 Q -140.645 750.510 -140.562 750.830 Q -140.479 751.151 -140.391 751.469 Q -140.302 751.788 -140.208 752.106 Q -140.114 752.423 -140.015 752.738 Q -139.915 753.054 -139.810 753.368 Q -139.705 753.682 -139.595 753.994 Q -139.484 754.306 -139.369 754.615 Q -139.253 754.925 -139.131 755.233 Q -139.010 755.541 -138.884 755.847 Q -138.757 756.153 -138.625 756.456 Q -138.493 756.760 -138.356 757.061 Q -138.219 757.362 -138.076 757.660 Q -137.934 757.959 -137.786 758.255 Q -137.638 758.551 -137.486 758.845 Q -137.333 759.138 -137.175 759.429 Q -137.017 759.720 -136.854 760.008 Q -136.691 760.296 -136.523 760.581 Q -136.355 760.866 -136.182 761.148 Q -136.009 761.431 -135.832 761.710 Q -135.654 761.989 -135.471 762.265 Q -135.288 762.541 -135.101 762.813 Q -134.914 763.086 -134.721 763.355 Q -134.529 763.625 -134.332 763.891 Q -134.136 764.157 -133.934 764.419 Q -133.733 764.682 -133.527 764.941 Q -133.321 765.200 -133.110 765.455 Q -132.900 765.711 -132.685 765.962 Q -132.470 766.214 -132.251 766.462 Q -132.031 766.710 -131.808 766.953 Q -131.584 767.197 -131.357 767.438 Q -131.129 767.677 -130.897 767.914 Q -130.665 768.150 -130.429 768.381 Q -130.193 768.613 -129.953 768.841 Q -129.713 769.069 -129.469 769.293 Q -129.225 769.516 -128.977 769.735 Q -128.729 769.955 -128.478 770.170 Q -128.226 770.384 -127.971 770.595 Q -127.715 770.805 -127.456 771.011 Q -127.197 771.217 -126.935 771.419 Q -126.672 771.620 -126.406 771.817 Q -126.140 772.014 -125.871 772.206 Q -125.601 772.398 -125.329 772.586 Q -125.056 772.773 -124.780 772.956 Q -124.504 773.138 -124.225 773.316 Q -123.946 773.494 -123.664 773.667 Q -123.382 773.840 -123.097 774.008 Q -122.811 774.176 -122.523 774.339 Q -122.235 774.502 -121.945 774.660 Q -121.654 774.817 -121.360 774.970 Q -121.067 775.123 -120.771 775.271 Q -120.474 775.418 -120.176 775.561 Q -119.877 775.703 -119.576 775.840 Q -119.275 775.978 -118.971 776.110 Q -118.668 776.242 -118.362 776.368 Q -118.057 776.495 -117.749 776.616 Q -117.441 776.737 -117.131 776.853 Q -116.821 776.969 -116.509 777.080 Q -116.197 777.190 -115.883 777.295 Q -115.569 777.400 -115.254 777.500 Q -114.938 777.599 -114.621 777.693 Q -114.304 777.787 -113.985 777.876 Q -113.666 777.964 -113.345 778.047 Q -113.025 778.130 -112.703 778.207 Q -112.382 778.284 -112.059 778.356 Q -111.735 778.427 -111.411 778.493 Q -111.087 778.559 -110.762 778.620 Q -110.436 778.680 -110.110 778.735 Q -109.783 778.789 -109.456 778.838 Q -109.129 778.887 -108.801 778.930 Q -108.473 778.973 -108.144 779.011 Q -107.815 779.048 -107.486 779.080 Q -107.156 779.112 -106.827 779.138 Q -106.497 779.164 -106.166 779.184 Q -105.836 779.204 -105.505 779.219 Q -105.175 779.233 -104.844 779.242 Q -104.513 779.250 -104.182 779.253 Z"></path>
    <path id="STROKE_f1456df3-75e7-4ddf-8da9-916b6563acf7" opacity="1.000" fill="none" stroke="#f9f9f1" stroke-width="1.600" stroke-opacity="1.000" stroke-linecap="round" stroke-linejoin="round" d="M -103.738 990.364 Q -103.407 990.367 -103.076 990.364 Q -102.745 990.361 -102.414 990.353 Q -102.084 990.344 -101.753 990.330 Q -101.422 990.315 -101.092 990.295 Q -100.762 990.275 -100.432 990.249 Q -100.102 990.223 -99.773 990.191 Q -99.443 990.159 -99.115 990.122 Q -98.786 990.085 -98.458 990.041 Q -98.130 989.998 -97.802 989.949 Q -97.475 989.900 -97.149 989.846 Q -96.822 989.791 -96.497 989.731 Q -96.172 989.671 -95.847 989.605 Q -95.523 989.539 -95.200 989.467 Q -94.877 989.395 -94.555 989.318 Q -94.233 989.241 -93.913 989.158 Q -93.593 989.075 -93.274 988.987 Q -92.955 988.898 -92.638 988.804 Q -92.320 988.710 -92.005 988.611 Q -91.689 988.511 -91.375 988.406 Q -91.062 988.301 -90.750 988.191 Q -90.438 988.080 -90.128 987.964 Q -89.818 987.849 -89.510 987.727 Q -89.202 987.606 -88.896 987.479 Q -88.591 987.353 -88.287 987.221 Q -87.984 987.089 -87.683 986.952 Q -87.381 986.814 -87.083 986.672 Q -86.784 986.529 -86.488 986.382 Q -86.192 986.234 -85.898 986.081 Q -85.605 985.929 -85.314 985.771 Q -85.023 985.613 -84.735 985.450 Q -84.447 985.287 -84.162 985.119 Q -83.877 984.951 -83.595 984.778 Q -83.313 984.605 -83.033 984.427 Q -82.754 984.250 -82.478 984.067 Q -82.202 983.884 -81.930 983.697 Q -81.657 983.509 -81.388 983.317 Q -81.118 983.125 -80.852 982.928 Q -80.586 982.731 -80.324 982.530 Q -80.061 982.329 -79.802 982.123 Q -79.543 981.917 -79.288 981.706 Q -79.033 981.496 -78.781 981.281 Q -78.529 981.066 -78.282 980.847 Q -78.034 980.627 -77.790 980.404 Q -77.546 980.180 -77.306 979.952 Q -77.066 979.725 -76.830 979.493 Q -76.594 979.261 -76.362 979.025 Q -76.130 978.789 -75.902 978.549 Q -75.674 978.309 -75.451 978.065 Q -75.227 977.821 -75.008 977.573 Q -74.789 977.325 -74.574 977.073 Q -74.359 976.822 -74.148 976.566 Q -73.938 976.311 -73.732 976.052 Q -73.526 975.793 -73.324 975.531 Q -73.123 975.268 -72.926 975.002 Q -72.729 974.736 -72.537 974.467 Q -72.345 974.197 -72.157 973.925 Q -71.970 973.652 -71.787 973.376 Q -71.605 973.100 -71.427 972.821 Q -71.249 972.542 -71.076 972.260 Q -70.903 971.977 -70.735 971.692 Q -70.567 971.407 -70.404 971.119 Q -70.242 970.831 -70.084 970.540 Q -69.926 970.250 -69.773 969.956 Q -69.620 969.663 -69.473 969.366 Q -69.325 969.070 -69.182 968.772 Q -69.040 968.473 -68.903 968.172 Q -68.766 967.871 -68.634 967.567 Q -68.502 967.264 -68.375 966.958 Q -68.248 966.652 -68.127 966.344 Q -68.006 966.037 -67.890 965.727 Q -67.774 965.417 -67.664 965.105 Q -67.553 964.793 -67.448 964.479 Q -67.343 964.165 -67.244 963.850 Q -67.144 963.534 -67.050 963.217 Q -66.956 962.899 -66.868 962.581 Q -66.779 962.262 -66.696 961.941 Q -66.614 961.621 -66.536 961.299 Q -66.459 960.977 -66.387 960.654 Q -66.316 960.331 -66.250 960.007 Q -66.184 959.683 -66.124 959.357 Q -66.063 959.032 -66.009 958.706 Q -65.954 958.379 -65.905 958.052 Q -65.856 957.725 -65.813 957.397 Q -65.770 957.069 -65.732 956.740 Q -65.695 956.411 -65.663 956.082 Q -65.631 955.752 -65.605 955.422 Q -65.580 955.092 -65.559 954.762 Q -65.539 954.432 -65.525 954.101 Q -65.510 953.771 -65.502 953.440 Q -65.493 953.109 -65.490 952.778 Q -65.487 952.447 -65.490 952.116 Q -65.493 951.786 -65.502 951.455 Q -65.510 951.124 -65.525 950.793 Q -65.539 950.463 -65.559 950.132 Q -65.580 949.802 -65.605 949.472 Q -65.631 949.142 -65.663 948.813 Q -65.695 948.484 -65.732 948.155 Q -65.770 947.826 -65.813 947.498 Q -65.856 947.170 -65.905 946.843 Q -65.954 946.515 -66.009 946.189 Q -66.063 945.863 -66.124 945.537 Q -66.184 945.212 -66.250 944.888 Q -66.316 944.563 -66.387 944.240 Q -66.459 943.917 -66.536 943.595 Q -66.614 943.274 -66.696 942.953 Q -66.779 942.633 -66.868 942.314 Q -66.956 941.995 -67.050 941.678 Q -67.144 941.361 -67.244 941.045 Q -67.343 940.729 -67.448 940.416 Q -67.553 940.102 -67.664 939.790 Q -67.774 939.478 -67.890 939.168 Q -68.006 938.858 -68.127 938.550 Q -68.248 938.242 -68.375 937.937 Q -68.502 937.631 -68.634 937.327 Q -68.766 937.024 -68.903 936.723 Q -69.040 936.422 -69.182 936.123 Q -69.325 935.824 -69.473 935.528 Q -69.620 935.232 -69.773 934.939 Q -69.926 934.645 -70.084 934.354 Q -70.242 934.063 -70.405 933.775 Q -70.567 933.487 -70.735 933.202 Q -70.903 932.917 -71.076 932.635 Q -71.249 932.353 -71.427 932.074 Q -71.605 931.795 -71.787 931.519 Q -71.970 931.243 -72.157 930.970 Q -72.345 930.697 -72.537 930.428 Q -72.729 930.159 -72.926 929.893 Q -73.123 929.627 -73.324 929.364 Q -73.526 929.101 -73.732 928.842 Q -73.938 928.583 -74.148 928.328 Q -74.359 928.073 -74.574 927.821 Q -74.789 927.570 -75.008 927.322 Q -75.227 927.074 -75.451 926.830 Q -75.674 926.586 -75.902 926.346 Q -76.130 926.106 -76.362 925.870 Q -76.594 925.634 -76.830 925.402 Q -77.066 925.170 -77.306 924.942 Q -77.546 924.714 -77.790 924.491 Q -78.034 924.267 -78.282 924.048 Q -78.529 923.829 -78.781 923.614 Q -79.033 923.399 -79.288 923.188 Q -79.543 922.978 -79.802 922.772 Q -80.061 922.566 -80.324 922.365 Q -80.586 922.163 -80.852 921.966 Q -81.118 921.769 -81.388 921.577 Q -81.657 921.385 -81.930 921.198 Q -82.203 921.010 -82.478 920.828 Q -82.754 920.645 -83.033 920.467 Q -83.313 920.289 -83.595 920.117 Q -83.877 919.944 -84.162 919.776 Q -84.447 919.608 -84.735 919.445 Q -85.023 919.282 -85.314 919.124 Q -85.605 918.966 -85.898 918.813 Q -86.192 918.660 -86.488 918.513 Q -86.784 918.365 -87.083 918.223 Q -87.381 918.080 -87.683 917.943 Q -87.984 917.806 -88.287 917.674 Q -88.591 917.542 -88.896 917.415 Q -89.202 917.289 -89.510 917.167 Q -89.818 917.046 -90.128 916.930 Q -90.438 916.814 -90.750 916.704 Q -91.062 916.593 -91.375 916.488 Q -91.689 916.383 -92.005 916.284 Q -92.320 916.184 -92.638 916.090 Q -92.955 915.996 -93.274 915.908 Q -93.593 915.819 -93.913 915.737 Q -94.233 915.654 -94.555 915.577 Q -94.877 915.499 -95.200 915.428 Q -95.523 915.356 -95.847 915.290 Q -96.172 915.224 -96.497 915.164 Q -96.822 915.104 -97.149 915.049 Q -97.475 914.994 -97.802 914.945 Q -98.130 914.896 -98.458 914.853 Q -98.786 914.810 -99.115 914.773 Q -99.443 914.735 -99.773 914.703 Q -100.102 914.672 -100.432 914.646 Q -100.762 914.620 -101.092 914.600 Q -101.422 914.579 -101.753 914.565 Q -102.084 914.551 -102.414 914.542 Q -102.745 914.533 -103.076 914.530 Q -103.407 914.527 -103.738 914.530 Q -104.069 914.533 -104.400 914.542 Q -104.730 914.551 -105.061 914.565 Q -105.392 914.579 -105.722 914.600 Q -106.052 914.620 -106.382 914.646 Q -106.712 914.672 -107.041 914.703 Q -107.371 914.735 -107.700 914.773 Q -108.028 914.810 -108.356 914.853 Q -108.684 914.896 -109.012 914.945 Q -109.339 914.994 -109.665 915.049 Q -109.992 915.104 -110.317 915.164 Q -110.642 915.224 -110.967 915.290 Q -111.291 915.356 -111.614 915.428 Q -111.937 915.499 -112.259 915.577 Q -112.581 915.654 -112.901 915.737 Q -113.221 915.819 -113.540 915.908 Q -113.859 915.996 -114.176 916.090 Q -114.494 916.184 -114.809 916.284 Q -115.125 916.383 -115.439 916.488 Q -115.753 916.593 -116.064 916.704 Q -116.376 916.814 -116.686 916.930 Q -116.996 917.046 -117.304 917.167 Q -117.612 917.289 -117.918 917.415 Q -118.224 917.542 -118.527 917.674 Q -118.830 917.806 -119.132 917.943 Q -119.433 918.080 -119.731 918.223 Q -120.030 918.365 -120.326 918.513 Q -120.622 918.660 -120.916 918.813 Q -121.209 918.966 -121.500 919.124 Q -121.791 919.282 -122.079 919.445 Q -122.367 919.608 -122.652 919.776 Q -122.937 919.944 -123.219 920.117 Q -123.502 920.289 -123.781 920.467 Q -124.060 920.645 -124.336 920.828 Q -124.612 921.010 -124.884 921.198 Q -125.157 921.385 -125.426 921.577 Q -125.696 921.769 -125.962 921.966 Q -126.228 922.163 -126.490 922.365 Q -126.753 922.566 -127.012 922.772 Q -127.271 922.978 -127.526 923.188 Q -127.781 923.399 -128.033 923.614 Q -128.285 923.829 -128.533 924.048 Q -128.780 924.267 -129.024 924.491 Q -129.268 924.714 -129.508 924.942 Q -129.748 925.170 -129.984 925.402 Q -130.220 925.634 -130.452 925.870 Q -130.684 926.106 -130.912 926.346 Q -131.140 926.586 -131.363 926.830 Q -131.587 927.074 -131.806 927.322 Q -132.026 927.570 -132.240 927.821 Q -132.455 928.073 -132.666 928.328 Q -132.876 928.583 -133.082 928.842 Q -133.288 929.101 -133.490 929.364 Q -133.691 929.627 -133.888 929.893 Q -134.085 930.159 -134.277 930.428 Q -134.469 930.697 -134.657 930.970 Q -134.844 931.243 -135.027 931.519 Q -135.209 931.795 -135.387 932.074 Q -135.565 932.353 -135.738 932.635 Q -135.911 932.917 -136.079 933.202 Q -136.247 933.487 -136.410 933.775 Q -136.573 934.063 -136.730 934.354 Q -136.888 934.645 -137.041 934.939 Q -137.194 935.232 -137.342 935.528 Q -137.489 935.824 -137.632 936.123 Q -137.774 936.422 -137.911 936.723 Q -138.049 937.024 -138.181 937.327 Q -138.312 937.631 -138.439 937.937 Q -138.566 938.242 -138.687 938.550 Q -138.808 938.858 -138.924 939.168 Q -139.040 939.478 -139.151 939.790 Q -139.261 940.102 -139.366 940.416 Q -139.471 940.729 -139.571 941.045 Q -139.670 941.361 -139.764 941.678 Q -139.858 941.995 -139.946 942.314 Q -140.035 942.633 -140.118 942.953 Q -140.201 943.274 -140.278 943.595 Q -140.355 943.917 -140.427 944.240 Q -140.498 944.563 -140.564 944.888 Q -140.630 945.212 -140.691 945.537 Q -140.751 945.863 -140.805 946.189 Q -140.860 946.515 -140.909 946.843 Q -140.958 947.170 -141.001 947.498 Q -141.044 947.826 -141.082 948.155 Q -141.119 948.484 -141.151 948.813 Q -141.183 949.142 -141.209 949.472 Q -141.235 949.802 -141.255 950.132 Q -141.275 950.463 -141.289 950.793 Q -141.304 951.124 -141.312 951.455 Q -141.321 951.786 -141.324 952.116 Q -141.327 952.447 -141.324 952.778 Q -141.321 953.109 -141.312 953.440 Q -141.304 953.771 -141.289 954.101 Q -141.275 954.432 -141.255 954.762 Q -141.235 955.092 -141.209 955.422 Q -141.183 955.752 -141.151 956.082 Q -141.119 956.411 -141.082 956.740 Q -141.044 957.069 -141.001 957.397 Q -140.958 957.725 -140.909 958.052 Q -140.860 958.379 -140.805 958.706 Q -140.751 959.032 -140.691 959.357 Q -140.630 959.683 -140.564 960.007 Q -140.498 960.331 -140.427 960.654 Q -140.355 960.977 -140.278 961.299 Q -140.201 961.621 -140.118 961.941 Q -140.035 962.262 -139.946 962.581 Q -139.858 962.899 -139.764 963.217 Q -139.670 963.534 -139.571 963.850 Q -139.471 964.165 -139.366 964.479 Q -139.261 964.793 -139.151 965.105 Q -139.040 965.417 -138.924 965.727 Q -138.808 966.037 -138.687 966.344 Q -138.566 966.652 -138.439 966.958 Q -138.312 967.264 -138.181 967.567 Q -138.049 967.871 -137.911 968.172 Q -137.774 968.473 -137.632 968.772 Q -137.489 969.070 -137.342 969.366 Q -137.194 969.663 -137.041 969.956 Q -136.888 970.250 -136.730 970.540 Q -136.573 970.831 -136.410 971.119 Q -136.247 971.407 -136.079 971.692 Q -135.911 971.977 -135.738 972.260 Q -135.565 972.542 -135.387 972.821 Q -135.209 973.100 -135.027 973.376 Q -134.844 973.652 -134.657 973.925 Q -134.469 974.197 -134.277 974.467 Q -134.085 974.736 -133.888 975.002 Q -133.691 975.268 -133.490 975.531 Q -133.288 975.793 -133.082 976.052 Q -132.876 976.311 -132.666 976.566 Q -132.455 976.822 -132.240 977.073 Q -132.026 977.325 -131.806 977.573 Q -131.587 977.821 -131.363 978.065 Q -131.140 978.309 -130.912 978.549 Q -130.684 978.789 -130.452 979.025 Q -130.220 979.261 -129.984 979.493 Q -129.748 979.725 -129.508 979.952 Q -129.268 980.180 -129.024 980.404 Q -128.780 980.627 -128.533 980.847 Q -128.285 981.066 -128.033 981.281 Q -127.781 981.496 -127.526 981.706 Q -127.271 981.917 -127.012 982.123 Q -126.753 982.329 -126.490 982.530 Q -126.228 982.731 -125.962 982.928 Q -125.696 983.125 -125.426 983.317 Q -125.157 983.509 -124.884 983.697 Q -124.612 983.884 -124.336 984.067 Q -124.060 984.250 -123.781 984.427 Q -123.502 984.605 -123.219 984.778 Q -122.937 984.951 -122.652 985.119 Q -122.367 985.287 -122.079 985.450 Q -121.791 985.613 -121.500 985.771 Q -121.209 985.929 -120.916 986.081 Q -120.622 986.234 -120.326 986.382 Q -120.030 986.529 -119.731 986.672 Q -119.433 986.814 -119.132 986.952 Q -118.830 987.089 -118.527 987.221 Q -118.224 987.353 -117.918 987.479 Q -117.612 987.606 -117.304 987.727 Q -116.996 987.849 -116.686 987.964 Q -116.376 988.080 -116.064 988.191 Q -115.753 988.301 -115.439 988.406 Q -115.125 988.511 -114.809 988.611 Q -114.494 988.710 -114.176 988.804 Q -113.859 988.898 -113.540 988.987 Q -113.221 989.075 -112.901 989.158 Q -112.581 989.241 -112.259 989.318 Q -111.937 989.395 -111.614 989.467 Q -111.291 989.539 -110.967 989.605 Q -110.642 989.671 -110.317 989.731 Q -109.992 989.791 -109.665 989.846 Q -109.339 989.900 -109.012 989.949 Q -108.684 989.998 -108.356 990.041 Q -108.028 990.085 -107.700 990.122 Q -107.371 990.159 -107.041 990.191 Q -106.712 990.223 -106.382 990.249 Q -106.052 990.275 -105.722 990.295 Q -105.392 990.315 -105.061 990.330 Q -104.730 990.344 -104.400 990.353 Q -104.069 990.361 -103.738 990.364 Z"></path>
    <path id="STROKE_251296db-17df-4915-8af2-1dc98b031dbe" opacity="1.000" fill="none" stroke="#f9f9f1" stroke-width="1.600" stroke-opacity="1.000" stroke-linecap="round" stroke-linejoin="round" d="M 130.262 675.031 Q 130.593 675.034 130.924 675.031 Q 131.255 675.028 131.586 675.019 Q 131.916 675.011 132.247 674.996 Q 132.578 674.982 132.908 674.962 Q 133.238 674.941 133.568 674.916 Q 133.898 674.890 134.227 674.858 Q 134.557 674.826 134.885 674.789 Q 135.214 674.751 135.542 674.708 Q 135.870 674.665 136.198 674.616 Q 136.525 674.567 136.851 674.512 Q 137.178 674.458 137.503 674.397 Q 137.828 674.337 138.153 674.271 Q 138.477 674.205 138.800 674.134 Q 139.123 674.062 139.445 673.985 Q 139.767 673.907 140.087 673.825 Q 140.407 673.742 140.726 673.653 Q 141.045 673.565 141.362 673.471 Q 141.680 673.377 141.995 673.277 Q 142.311 673.178 142.625 673.073 Q 142.938 672.968 143.250 672.857 Q 143.562 672.747 143.872 672.631 Q 144.182 672.515 144.490 672.394 Q 144.798 672.273 145.104 672.146 Q 145.409 672.019 145.713 671.887 Q 146.016 671.755 146.317 671.618 Q 146.619 671.481 146.917 671.339 Q 147.216 671.196 147.512 671.048 Q 147.808 670.901 148.102 670.748 Q 148.395 670.595 148.686 670.437 Q 148.977 670.279 149.265 670.116 Q 149.553 669.953 149.838 669.786 Q 150.123 669.618 150.405 669.445 Q 150.687 669.272 150.967 669.094 Q 151.246 668.916 151.522 668.734 Q 151.798 668.551 152.070 668.364 Q 152.343 668.176 152.612 667.984 Q 152.882 667.792 153.148 667.595 Q 153.414 667.398 153.676 667.197 Q 153.939 666.995 154.198 666.789 Q 154.457 666.583 154.712 666.373 Q 154.967 666.162 155.219 665.947 Q 155.471 665.732 155.718 665.513 Q 155.966 665.294 156.210 665.070 Q 156.454 664.847 156.694 664.619 Q 156.934 664.391 157.170 664.159 Q 157.406 663.927 157.638 663.691 Q 157.870 663.455 158.098 663.215 Q 158.326 662.975 158.549 662.731 Q 158.773 662.487 158.992 662.239 Q 159.211 661.992 159.426 661.740 Q 159.641 661.488 159.852 661.233 Q 160.062 660.978 160.268 660.719 Q 160.474 660.460 160.676 660.197 Q 160.877 659.935 161.074 659.669 Q 161.271 659.403 161.463 659.133 Q 161.655 658.864 161.843 658.591 Q 162.030 658.318 162.213 658.043 Q 162.395 657.767 162.573 657.487 Q 162.751 657.208 162.924 656.926 Q 163.097 656.644 163.265 656.359 Q 163.433 656.074 163.596 655.786 Q 163.758 655.498 163.916 655.207 Q 164.074 654.916 164.227 654.623 Q 164.380 654.329 164.527 654.033 Q 164.675 653.737 164.818 653.438 Q 164.960 653.140 165.097 652.838 Q 165.234 652.537 165.366 652.234 Q 165.498 651.930 165.625 651.625 Q 165.752 651.319 165.873 651.011 Q 165.994 650.703 166.110 650.393 Q 166.226 650.083 166.336 649.771 Q 166.447 649.459 166.552 649.146 Q 166.657 648.832 166.756 648.516 Q 166.856 648.201 166.950 647.883 Q 167.044 647.566 167.132 647.247 Q 167.221 646.928 167.304 646.608 Q 167.386 646.288 167.464 645.966 Q 167.541 645.644 167.613 645.321 Q 167.684 644.998 167.750 644.674 Q 167.816 644.349 167.876 644.024 Q 167.937 643.699 167.991 643.372 Q 168.046 643.046 168.095 642.719 Q 168.144 642.391 168.187 642.063 Q 168.230 641.735 168.268 641.406 Q 168.305 641.078 168.337 640.748 Q 168.369 640.419 168.395 640.089 Q 168.420 639.759 168.441 639.429 Q 168.461 639.099 168.475 638.768 Q 168.490 638.437 168.498 638.107 Q 168.507 637.776 168.510 637.445 Q 168.513 637.114 168.510 636.783 Q 168.507 636.452 168.498 636.121 Q 168.490 635.791 168.475 635.460 Q 168.461 635.129 168.441 634.799 Q 168.420 634.469 168.395 634.139 Q 168.369 633.809 168.337 633.480 Q 168.305 633.150 168.268 632.821 Q 168.230 632.493 168.187 632.165 Q 168.144 631.836 168.095 631.509 Q 168.046 631.182 167.991 630.856 Q 167.937 630.529 167.876 630.204 Q 167.816 629.878 167.750 629.554 Q 167.684 629.230 167.613 628.907 Q 167.541 628.584 167.464 628.262 Q 167.386 627.940 167.304 627.620 Q 167.221 627.300 167.132 626.981 Q 167.044 626.662 166.950 626.344 Q 166.856 626.027 166.756 625.712 Q 166.657 625.396 166.552 625.082 Q 166.447 624.768 166.336 624.456 Q 166.226 624.145 166.110 623.835 Q 165.994 623.525 165.873 623.217 Q 165.752 622.909 165.625 622.603 Q 165.498 622.297 165.366 621.994 Q 165.234 621.691 165.097 621.389 Q 164.960 621.088 164.818 620.790 Q 164.675 620.491 164.527 620.195 Q 164.380 619.899 164.227 619.605 Q 164.074 619.312 163.916 619.021 Q 163.758 618.730 163.595 618.442 Q 163.433 618.154 163.265 617.869 Q 163.097 617.584 162.924 617.302 Q 162.751 617.019 162.573 616.740 Q 162.395 616.461 162.213 616.185 Q 162.030 615.909 161.843 615.637 Q 161.655 615.364 161.463 615.095 Q 161.271 614.825 161.074 614.559 Q 160.877 614.293 160.676 614.031 Q 160.474 613.768 160.268 613.509 Q 160.062 613.250 159.852 612.995 Q 159.641 612.740 159.426 612.488 Q 159.211 612.236 158.992 611.988 Q 158.773 611.741 158.549 611.497 Q 158.326 611.253 158.098 611.013 Q 157.870 610.773 157.638 610.537 Q 157.406 610.301 157.170 610.069 Q 156.934 609.837 156.694 609.609 Q 156.454 609.381 156.210 609.158 Q 155.966 608.934 155.718 608.715 Q 155.471 608.495 155.219 608.281 Q 154.967 608.066 154.712 607.855 Q 154.457 607.645 154.198 607.439 Q 153.939 607.233 153.676 607.031 Q 153.414 606.830 153.148 606.633 Q 152.882 606.436 152.612 606.244 Q 152.343 606.052 152.070 605.864 Q 151.797 605.677 151.522 605.494 Q 151.246 605.312 150.967 605.134 Q 150.687 604.956 150.405 604.783 Q 150.123 604.610 149.838 604.442 Q 149.553 604.274 149.265 604.111 Q 148.977 603.948 148.686 603.791 Q 148.395 603.633 148.102 603.480 Q 147.808 603.327 147.512 603.179 Q 147.216 603.032 146.917 602.889 Q 146.619 602.747 146.317 602.610 Q 146.016 602.472 145.713 602.340 Q 145.409 602.208 145.104 602.082 Q 144.798 601.955 144.490 601.834 Q 144.182 601.713 143.872 601.597 Q 143.562 601.481 143.250 601.370 Q 142.938 601.260 142.625 601.155 Q 142.311 601.050 141.995 600.950 Q 141.680 600.851 141.362 600.757 Q 141.045 600.663 140.726 600.575 Q 140.407 600.486 140.087 600.403 Q 139.767 600.320 139.445 600.243 Q 139.123 600.166 138.800 600.094 Q 138.477 600.023 138.153 599.957 Q 137.828 599.891 137.503 599.830 Q 137.178 599.770 136.851 599.716 Q 136.525 599.661 136.198 599.612 Q 135.870 599.563 135.542 599.520 Q 135.214 599.477 134.885 599.439 Q 134.557 599.402 134.227 599.370 Q 133.898 599.338 133.568 599.312 Q 133.238 599.286 132.908 599.266 Q 132.578 599.246 132.247 599.232 Q 131.916 599.217 131.586 599.208 Q 131.255 599.200 130.924 599.197 Q 130.593 599.194 130.262 599.197 Q 129.931 599.200 129.600 599.208 Q 129.270 599.217 128.939 599.232 Q 128.608 599.246 128.278 599.266 Q 127.948 599.286 127.618 599.312 Q 127.288 599.338 126.959 599.370 Q 126.629 599.402 126.300 599.439 Q 125.972 599.477 125.644 599.520 Q 125.316 599.563 124.988 599.612 Q 124.661 599.661 124.335 599.716 Q 124.008 599.770 123.683 599.830 Q 123.358 599.891 123.033 599.957 Q 122.709 600.023 122.386 600.094 Q 122.063 600.166 121.741 600.243 Q 121.419 600.320 121.099 600.403 Q 120.779 600.486 120.460 600.575 Q 120.141 600.663 119.824 600.757 Q 119.506 600.851 119.191 600.950 Q 118.875 601.050 118.561 601.155 Q 118.247 601.260 117.936 601.370 Q 117.624 601.481 117.314 601.597 Q 117.004 601.713 116.696 601.834 Q 116.388 601.955 116.082 602.082 Q 115.776 602.208 115.473 602.340 Q 115.170 602.472 114.868 602.610 Q 114.567 602.747 114.269 602.889 Q 113.970 603.032 113.674 603.179 Q 113.378 603.327 113.084 603.480 Q 112.791 603.633 112.500 603.791 Q 112.209 603.948 111.921 604.111 Q 111.633 604.274 111.348 604.442 Q 111.063 604.610 110.781 604.783 Q 110.498 604.956 110.219 605.134 Q 109.940 605.312 109.664 605.494 Q 109.388 605.677 109.116 605.864 Q 108.843 606.052 108.574 606.244 Q 108.304 606.436 108.038 606.633 Q 107.772 606.830 107.510 607.031 Q 107.247 607.233 106.988 607.439 Q 106.729 607.645 106.474 607.855 Q 106.219 608.066 105.967 608.281 Q 105.715 608.495 105.467 608.715 Q 105.220 608.934 104.976 609.158 Q 104.732 609.381 104.492 609.609 Q 104.252 609.837 104.016 610.069 Q 103.780 610.301 103.548 610.537 Q 103.316 610.773 103.088 611.013 Q 102.860 611.253 102.637 611.497 Q 102.413 611.741 102.194 611.988 Q 101.974 612.236 101.760 612.488 Q 101.545 612.740 101.334 612.995 Q 101.124 613.250 100.918 613.509 Q 100.712 613.768 100.510 614.031 Q 100.309 614.293 100.112 614.559 Q 99.915 614.825 99.723 615.095 Q 99.531 615.364 99.343 615.637 Q 99.156 615.909 98.973 616.185 Q 98.791 616.461 98.613 616.740 Q 98.435 617.019 98.262 617.302 Q 98.089 617.584 97.921 617.869 Q 97.753 618.154 97.590 618.442 Q 97.427 618.730 97.270 619.021 Q 97.112 619.312 96.959 619.605 Q 96.806 619.899 96.658 620.195 Q 96.511 620.491 96.368 620.790 Q 96.226 621.088 96.089 621.389 Q 95.951 621.691 95.819 621.994 Q 95.688 622.297 95.561 622.603 Q 95.434 622.909 95.313 623.217 Q 95.192 623.525 95.076 623.835 Q 94.960 624.145 94.849 624.456 Q 94.739 624.768 94.634 625.082 Q 94.529 625.396 94.429 625.712 Q 94.330 626.027 94.236 626.344 Q 94.142 626.662 94.054 626.981 Q 93.965 627.300 93.882 627.620 Q 93.799 627.940 93.722 628.262 Q 93.645 628.584 93.573 628.907 Q 93.502 629.230 93.436 629.554 Q 93.370 629.878 93.309 630.204 Q 93.249 630.529 93.195 630.856 Q 93.140 631.182 93.091 631.509 Q 93.042 631.836 92.999 632.165 Q 92.956 632.493 92.918 632.821 Q 92.881 633.150 92.849 633.480 Q 92.817 633.809 92.791 634.139 Q 92.765 634.469 92.745 634.799 Q 92.725 635.129 92.711 635.460 Q 92.696 635.791 92.688 636.121 Q 92.679 636.452 92.676 636.783 Q 92.673 637.114 92.676 637.445 Q 92.679 637.776 92.688 638.107 Q 92.696 638.437 92.711 638.768 Q 92.725 639.099 92.745 639.429 Q 92.765 639.759 92.791 640.089 Q 92.817 640.419 92.849 640.748 Q 92.881 641.078 92.918 641.406 Q 92.956 641.735 92.999 642.063 Q 93.042 642.391 93.091 642.719 Q 93.140 643.046 93.195 643.372 Q 93.249 643.699 93.309 644.024 Q 93.370 644.349 93.436 644.674 Q 93.502 644.998 93.573 645.321 Q 93.645 645.644 93.722 645.966 Q 93.799 646.288 93.882 646.608 Q 93.965 646.928 94.054 647.247 Q 94.142 647.566 94.236 647.883 Q 94.330 648.201 94.429 648.516 Q 94.529 648.832 94.634 649.146 Q 94.739 649.459 94.849 649.771 Q 94.960 650.083 95.076 650.393 Q 95.192 650.703 95.313 651.011 Q 95.434 651.319 95.561 651.625 Q 95.688 651.930 95.819 652.234 Q 95.951 652.537 96.089 652.838 Q 96.226 653.140 96.368 653.438 Q 96.511 653.737 96.658 654.033 Q 96.806 654.329 96.959 654.623 Q 97.112 654.916 97.270 655.207 Q 97.427 655.498 97.590 655.786 Q 97.753 656.074 97.921 656.359 Q 98.089 656.644 98.262 656.926 Q 98.435 657.208 98.613 657.487 Q 98.791 657.767 98.973 658.043 Q 99.156 658.318 99.343 658.591 Q 99.531 658.864 99.723 659.133 Q 99.915 659.403 100.112 659.669 Q 100.309 659.935 100.510 660.197 Q 100.712 660.460 100.918 660.719 Q 101.124 660.978 101.334 661.233 Q 101.545 661.488 101.760 661.740 Q 101.974 661.992 102.194 662.239 Q 102.413 662.487 102.637 662.731 Q 102.860 662.975 103.088 663.215 Q 103.316 663.455 103.548 663.691 Q 103.780 663.927 104.016 664.159 Q 104.252 664.391 104.492 664.619 Q 104.732 664.847 104.976 665.070 Q 105.220 665.294 105.467 665.513 Q 105.715 665.732 105.967 665.947 Q 106.219 666.162 106.474 666.373 Q 106.729 666.583 106.988 666.789 Q 107.247 666.995 107.510 667.197 Q 107.772 667.398 108.038 667.595 Q 108.304 667.792 108.574 667.984 Q 108.843 668.176 109.116 668.364 Q 109.388 668.551 109.664 668.734 Q 109.940 668.916 110.219 669.094 Q 110.498 669.272 110.781 669.445 Q 111.063 669.618 111.348 669.786 Q 111.633 669.953 111.921 670.116 Q 112.209 670.279 112.500 670.437 Q 112.791 670.595 113.084 670.748 Q 113.378 670.901 113.674 671.048 Q 113.970 671.196 114.269 671.339 Q 114.567 671.481 114.868 671.618 Q 115.170 671.755 115.473 671.887 Q 115.776 672.019 116.082 672.146 Q 116.388 672.273 116.696 672.394 Q 117.004 672.515 117.314 672.631 Q 117.624 672.747 117.936 672.857 Q 118.247 672.968 118.561 673.073 Q 118.875 673.178 119.191 673.277 Q 119.506 673.377 119.824 673.471 Q 120.141 673.565 120.460 673.653 Q 120.779 673.742 121.099 673.825 Q 121.419 673.907 121.741 673.985 Q 122.063 674.062 122.386 674.134 Q 122.709 674.205 123.033 674.271 Q 123.358 674.337 123.683 674.397 Q 124.008 674.458 124.335 674.512 Q 124.661 674.567 124.988 674.616 Q 125.316 674.665 125.644 674.708 Q 125.972 674.751 126.300 674.789 Q 126.629 674.826 126.959 674.858 Q 127.288 674.890 127.618 674.915 Q 127.948 674.941 128.278 674.962 Q 128.608 674.982 128.939 674.996 Q 129.270 675.011 129.600 675.019 Q 129.931 675.028 130.262 675.031 Z"></path>
    <path id="STROKE_57fd8580-3323-4f01-8189-4df5343122b9" opacity="1.000" fill="none" stroke="#f9f9f1" stroke-width="1.600" stroke-opacity="1.000" stroke-linecap="round" stroke-linejoin="round" d="M 130.706 886.142 Q 131.037 886.145 131.368 886.142 Q 131.699 886.139 132.030 886.130 Q 132.361 886.122 132.691 886.107 Q 133.022 886.093 133.352 886.073 Q 133.683 886.053 134.012 886.027 Q 134.342 886.001 134.672 885.969 Q 135.001 885.937 135.330 885.900 Q 135.659 885.862 135.987 885.819 Q 136.315 885.776 136.642 885.727 Q 136.969 885.678 137.296 885.623 Q 137.622 885.569 137.947 885.509 Q 138.273 885.448 138.597 885.382 Q 138.921 885.316 139.244 885.245 Q 139.568 885.173 139.889 885.096 Q 140.211 885.019 140.531 884.936 Q 140.852 884.853 141.171 884.764 Q 141.490 884.676 141.807 884.582 Q 142.124 884.488 142.440 884.388 Q 142.755 884.289 143.069 884.184 Q 143.383 884.079 143.695 883.969 Q 144.007 883.858 144.317 883.742 Q 144.627 883.626 144.935 883.505 Q 145.242 883.384 145.548 883.257 Q 145.854 883.130 146.157 882.999 Q 146.461 882.867 146.762 882.729 Q 147.063 882.592 147.362 882.450 Q 147.660 882.307 147.957 882.160 Q 148.253 882.012 148.546 881.859 Q 148.840 881.706 149.130 881.548 Q 149.421 881.391 149.709 881.228 Q 149.997 881.065 150.282 880.897 Q 150.568 880.729 150.850 880.556 Q 151.132 880.383 151.411 880.205 Q 151.690 880.027 151.966 879.845 Q 152.242 879.662 152.515 879.475 Q 152.787 879.287 153.057 879.095 Q 153.326 878.903 153.592 878.706 Q 153.858 878.509 154.121 878.308 Q 154.383 878.106 154.642 877.900 Q 154.901 877.694 155.156 877.484 Q 155.412 877.273 155.663 877.058 Q 155.915 876.844 156.163 876.624 Q 156.411 876.405 156.655 876.181 Q 156.899 875.958 157.139 875.730 Q 157.379 875.502 157.615 875.270 Q 157.851 875.038 158.083 874.802 Q 158.315 874.566 158.542 874.326 Q 158.770 874.086 158.994 873.842 Q 159.217 873.598 159.437 873.351 Q 159.656 873.103 159.871 872.851 Q 160.086 872.599 160.296 872.344 Q 160.507 872.089 160.713 871.830 Q 160.919 871.571 161.120 871.308 Q 161.322 871.046 161.518 870.780 Q 161.715 870.514 161.907 870.244 Q 162.100 869.975 162.287 869.702 Q 162.474 869.430 162.657 869.154 Q 162.840 868.878 163.017 868.599 Q 163.195 868.319 163.368 868.037 Q 163.541 867.755 163.709 867.470 Q 163.877 867.185 164.040 866.897 Q 164.203 866.609 164.361 866.318 Q 164.519 866.027 164.671 865.734 Q 164.824 865.440 164.972 865.144 Q 165.120 864.848 165.262 864.549 Q 165.404 864.251 165.542 863.950 Q 165.679 863.648 165.811 863.345 Q 165.943 863.042 166.069 862.736 Q 166.196 862.430 166.317 862.122 Q 166.439 861.814 166.555 861.504 Q 166.670 861.194 166.781 860.882 Q 166.891 860.570 166.996 860.257 Q 167.101 859.943 167.201 859.627 Q 167.300 859.312 167.394 858.994 Q 167.488 858.677 167.577 858.358 Q 167.665 858.039 167.748 857.719 Q 167.831 857.399 167.908 857.077 Q 167.985 856.755 168.057 856.432 Q 168.129 856.109 168.195 855.785 Q 168.261 855.460 168.321 855.135 Q 168.381 854.810 168.436 854.483 Q 168.490 854.157 168.539 853.830 Q 168.588 853.502 168.631 853.174 Q 168.675 852.846 168.712 852.518 Q 168.750 852.189 168.781 851.859 Q 168.813 851.530 168.839 851.200 Q 168.865 850.870 168.885 850.540 Q 168.905 850.210 168.920 849.879 Q 168.934 849.548 168.943 849.218 Q 168.952 848.887 168.954 848.556 Q 168.957 848.225 168.954 847.894 Q 168.952 847.563 168.943 847.232 Q 168.934 846.902 168.920 846.571 Q 168.905 846.240 168.885 845.910 Q 168.865 845.580 168.839 845.250 Q 168.813 844.920 168.781 844.591 Q 168.750 844.261 168.712 843.932 Q 168.675 843.604 168.631 843.276 Q 168.588 842.948 168.539 842.620 Q 168.490 842.293 168.436 841.967 Q 168.381 841.640 168.321 841.315 Q 168.261 840.990 168.195 840.665 Q 168.129 840.341 168.057 840.018 Q 167.985 839.695 167.908 839.373 Q 167.831 839.051 167.748 838.731 Q 167.665 838.411 167.577 838.092 Q 167.488 837.773 167.394 837.456 Q 167.300 837.138 167.201 836.823 Q 167.101 836.507 166.996 836.193 Q 166.891 835.880 166.781 835.568 Q 166.670 835.256 166.555 834.946 Q 166.439 834.636 166.317 834.328 Q 166.196 834.020 166.069 833.714 Q 165.943 833.409 165.811 833.105 Q 165.679 832.802 165.542 832.500 Q 165.404 832.199 165.262 831.901 Q 165.120 831.602 164.972 831.306 Q 164.824 831.010 164.671 830.716 Q 164.519 830.423 164.361 830.132 Q 164.203 829.841 164.040 829.553 Q 163.877 829.265 163.709 828.980 Q 163.541 828.695 163.368 828.413 Q 163.195 828.130 163.017 827.851 Q 162.840 827.572 162.657 827.296 Q 162.474 827.021 162.287 826.748 Q 162.100 826.475 161.907 826.206 Q 161.715 825.936 161.518 825.670 Q 161.322 825.404 161.120 825.142 Q 160.919 824.879 160.713 824.620 Q 160.507 824.361 160.296 824.106 Q 160.086 823.851 159.871 823.599 Q 159.656 823.347 159.437 823.099 Q 159.217 822.852 158.994 822.608 Q 158.770 822.364 158.542 822.124 Q 158.315 821.884 158.083 821.648 Q 157.851 821.412 157.615 821.180 Q 157.379 820.948 157.139 820.720 Q 156.899 820.492 156.655 820.269 Q 156.411 820.045 156.163 819.826 Q 155.915 819.607 155.663 819.392 Q 155.412 819.177 155.156 818.966 Q 154.901 818.756 154.642 818.550 Q 154.383 818.344 154.121 818.142 Q 153.858 817.941 153.592 817.744 Q 153.326 817.547 153.057 817.355 Q 152.787 817.163 152.515 816.975 Q 152.242 816.788 151.966 816.605 Q 151.690 816.423 151.411 816.245 Q 151.132 816.067 150.850 815.894 Q 150.568 815.721 150.282 815.553 Q 149.997 815.385 149.709 815.222 Q 149.421 815.060 149.130 814.902 Q 148.840 814.744 148.546 814.591 Q 148.253 814.438 147.957 814.290 Q 147.660 814.143 147.362 814.000 Q 147.063 813.858 146.762 813.721 Q 146.461 813.583 146.157 813.452 Q 145.854 813.320 145.548 813.193 Q 145.242 813.066 144.935 812.945 Q 144.627 812.824 144.317 812.708 Q 144.007 812.592 143.695 812.481 Q 143.383 812.371 143.069 812.266 Q 142.755 812.161 142.440 812.062 Q 142.124 811.962 141.807 811.868 Q 141.490 811.774 141.171 811.686 Q 140.852 811.597 140.531 811.514 Q 140.211 811.432 139.889 811.354 Q 139.568 811.277 139.244 811.205 Q 138.921 811.134 138.597 811.068 Q 138.273 811.002 137.947 810.942 Q 137.622 810.881 137.296 810.827 Q 136.969 810.772 136.642 810.723 Q 136.315 810.674 135.987 810.631 Q 135.659 810.588 135.330 810.550 Q 135.001 810.513 134.672 810.481 Q 134.342 810.449 134.012 810.423 Q 133.683 810.397 133.352 810.377 Q 133.022 810.357 132.691 810.343 Q 132.361 810.328 132.030 810.320 Q 131.699 810.311 131.368 810.308 Q 131.037 810.305 130.706 810.308 Q 130.376 810.311 130.045 810.320 Q 129.714 810.328 129.383 810.343 Q 129.053 810.357 128.723 810.377 Q 128.392 810.397 128.062 810.423 Q 127.732 810.449 127.403 810.481 Q 127.074 810.513 126.745 810.550 Q 126.416 810.588 126.088 810.631 Q 125.760 810.674 125.433 810.723 Q 125.105 810.772 124.779 810.827 Q 124.453 810.881 124.127 810.942 Q 123.802 811.002 123.478 811.068 Q 123.153 811.134 122.830 811.205 Q 122.507 811.277 122.186 811.354 Q 121.864 811.432 121.543 811.514 Q 121.223 811.597 120.904 811.686 Q 120.585 811.774 120.268 811.868 Q 119.951 811.962 119.635 812.062 Q 119.319 812.161 119.006 812.266 Q 118.692 812.371 118.380 812.481 Q 118.068 812.592 117.758 812.708 Q 117.448 812.824 117.140 812.945 Q 116.832 813.066 116.527 813.193 Q 116.221 813.320 115.917 813.452 Q 115.614 813.583 115.313 813.721 Q 115.012 813.858 114.713 814.000 Q 114.414 814.143 114.118 814.290 Q 113.822 814.438 113.529 814.591 Q 113.235 814.744 112.944 814.902 Q 112.653 815.060 112.365 815.222 Q 112.077 815.385 111.792 815.553 Q 111.507 815.721 111.225 815.894 Q 110.943 816.067 110.664 816.245 Q 110.385 816.423 110.109 816.605 Q 109.833 816.788 109.560 816.975 Q 109.287 817.163 109.018 817.355 Q 108.749 817.547 108.483 817.744 Q 108.217 817.941 107.954 818.142 Q 107.692 818.344 107.433 818.550 Q 107.174 818.756 106.918 818.966 Q 106.663 819.177 106.411 819.392 Q 106.160 819.607 105.912 819.826 Q 105.664 820.045 105.420 820.269 Q 105.176 820.492 104.936 820.720 Q 104.696 820.948 104.460 821.180 Q 104.224 821.412 103.992 821.648 Q 103.760 821.884 103.532 822.124 Q 103.305 822.364 103.081 822.608 Q 102.857 822.852 102.638 823.099 Q 102.419 823.347 102.204 823.599 Q 101.989 823.851 101.779 824.106 Q 101.568 824.361 101.362 824.620 Q 101.156 824.879 100.955 825.142 Q 100.753 825.404 100.556 825.670 Q 100.360 825.936 100.167 826.206 Q 99.975 826.475 99.788 826.748 Q 99.600 827.021 99.418 827.296 Q 99.235 827.572 99.057 827.851 Q 98.879 828.130 98.707 828.413 Q 98.534 828.695 98.366 828.980 Q 98.198 829.265 98.035 829.553 Q 97.872 829.841 97.714 830.132 Q 97.556 830.423 97.403 830.716 Q 97.251 831.010 97.103 831.306 Q 96.955 831.602 96.813 831.901 Q 96.670 832.199 96.533 832.500 Q 96.396 832.802 96.264 833.105 Q 96.132 833.409 96.005 833.714 Q 95.879 834.020 95.757 834.328 Q 95.636 834.636 95.520 834.946 Q 95.404 835.256 95.294 835.568 Q 95.183 835.880 95.078 836.193 Q 94.973 836.507 94.874 836.823 Q 94.774 837.138 94.680 837.456 Q 94.586 837.773 94.498 838.092 Q 94.410 838.411 94.327 838.731 Q 94.244 839.051 94.167 839.373 Q 94.089 839.695 94.018 840.018 Q 93.946 840.341 93.880 840.665 Q 93.814 840.990 93.754 841.315 Q 93.694 841.640 93.639 841.967 Q 93.584 842.293 93.535 842.620 Q 93.487 842.948 93.443 843.276 Q 93.400 843.604 93.363 843.932 Q 93.325 844.261 93.294 844.591 Q 93.262 844.920 93.236 845.250 Q 93.210 845.580 93.190 845.910 Q 93.169 846.240 93.155 846.571 Q 93.141 846.902 93.132 847.232 Q 93.123 847.563 93.120 847.894 Q 93.117 848.225 93.120 848.556 Q 93.123 848.887 93.132 849.218 Q 93.141 849.548 93.155 849.879 Q 93.169 850.210 93.190 850.540 Q 93.210 850.870 93.236 851.200 Q 93.262 851.530 93.294 851.859 Q 93.325 852.189 93.363 852.518 Q 93.400 852.846 93.443 853.174 Q 93.487 853.502 93.535 853.830 Q 93.584 854.157 93.639 854.483 Q 93.694 854.810 93.754 855.135 Q 93.814 855.460 93.880 855.785 Q 93.946 856.109 94.018 856.432 Q 94.089 856.755 94.167 857.077 Q 94.244 857.399 94.327 857.719 Q 94.410 858.039 94.498 858.358 Q 94.586 858.677 94.680 858.994 Q 94.774 859.312 94.874 859.627 Q 94.973 859.943 95.078 860.257 Q 95.183 860.570 95.294 860.882 Q 95.404 861.194 95.520 861.504 Q 95.636 861.814 95.757 862.122 Q 95.879 862.430 96.005 862.736 Q 96.132 863.042 96.264 863.345 Q 96.396 863.648 96.533 863.950 Q 96.670 864.251 96.813 864.549 Q 96.955 864.848 97.103 865.144 Q 97.251 865.440 97.403 865.734 Q 97.556 866.027 97.714 866.318 Q 97.872 866.609 98.035 866.897 Q 98.198 867.185 98.366 867.470 Q 98.534 867.755 98.707 868.037 Q 98.879 868.319 99.057 868.599 Q 99.235 868.878 99.418 869.154 Q 99.600 869.430 99.788 869.702 Q 99.975 869.975 100.167 870.244 Q 100.360 870.514 100.556 870.780 Q 100.753 871.046 100.955 871.308 Q 101.156 871.571 101.362 871.830 Q 101.568 872.089 101.779 872.344 Q 101.989 872.599 102.204 872.851 Q 102.419 873.103 102.638 873.351 Q 102.857 873.598 103.081 873.842 Q 103.305 874.086 103.532 874.326 Q 103.760 874.566 103.992 874.802 Q 104.224 875.038 104.460 875.270 Q 104.696 875.502 104.936 875.730 Q 105.176 875.958 105.420 876.181 Q 105.664 876.405 105.912 876.624 Q 106.160 876.844 106.411 877.058 Q 106.663 877.273 106.918 877.484 Q 107.174 877.694 107.433 877.900 Q 107.692 878.106 107.954 878.308 Q 108.217 878.509 108.483 878.706 Q 108.749 878.903 109.018 879.095 Q 109.287 879.287 109.560 879.475 Q 109.833 879.662 110.109 879.845 Q 110.385 880.027 110.664 880.205 Q 110.943 880.383 111.225 880.556 Q 111.507 880.729 111.792 880.897 Q 112.077 881.065 112.365 881.228 Q 112.653 881.391 112.944 881.548 Q 113.235 881.706 113.529 881.859 Q 113.822 882.012 114.118 882.160 Q 114.414 882.307 114.713 882.450 Q 115.012 882.592 115.313 882.729 Q 115.614 882.867 115.917 882.999 Q 116.221 883.130 116.527 883.257 Q 116.832 883.384 117.140 883.505 Q 117.448 883.626 117.758 883.742 Q 118.068 883.858 118.380 883.969 Q 118.692 884.079 119.006 884.184 Q 119.319 884.289 119.635 884.388 Q 119.951 884.488 120.268 884.582 Q 120.585 884.676 120.904 884.764 Q 121.223 884.853 121.543 884.936 Q 121.864 885.019 122.186 885.096 Q 122.507 885.173 122.830 885.245 Q 123.153 885.316 123.478 885.382 Q 123.802 885.448 124.127 885.509 Q 124.453 885.569 124.779 885.623 Q 125.105 885.678 125.433 885.727 Q 125.760 885.776 126.088 885.819 Q 126.416 885.862 126.745 885.900 Q 127.074 885.937 127.403 885.969 Q 127.732 886.001 128.062 886.027 Q 128.392 886.052 128.723 886.073 Q 129.053 886.093 129.383 886.107 Q 129.714 886.122 130.045 886.130 Q 130.376 886.139 130.706 886.142 Z"></path>
    <path id="STROKE_bea7ca91-0f6f-4874-8b3b-937efc6cfd89" opacity="1.000" fill="none" stroke="#f9f9f1" stroke-width="1.600" stroke-opacity="1.000" stroke-linecap="round" stroke-linejoin="round" d="M -61.129 557.558 L 94.648 613.947 "></path>
    <path id="STROKE_3d01a0b0-db57-4513-a89f-5b13aa857a52" opacity="1.000" fill="none" stroke="#f9f9f1" stroke-width="1.600" stroke-opacity="1.000" stroke-linecap="round" stroke-linejoin="round" d="M -61.129 730.614 L 91.982 658.836 "></path>
    <path id="STROKE_f9c410cb-16ec-4430-861c-b25dee24e4ab" opacity="1.000" fill="none" stroke="#f9f9f1" stroke-width="1.600" stroke-opacity="1.000" stroke-linecap="round" stroke-linejoin="round" d="M -66.240 759.058 L 91.982 832.392 "></path>
    <path id="STROKE_9231812a-a044-4a52-9740-15b211132bf3" opacity="1.000" fill="none" stroke="#f9f9f1" stroke-width="1.600" stroke-opacity="1.000" stroke-linecap="round" stroke-linejoin="round" d="M -71.574 924.614 L 103.537 671.725 "></path>
    <path id="STROKE_8c8e3d95-b360-4869-bd70-e97a1261c57b" opacity="1.000" fill="none" stroke="#f9f9f1" stroke-width="1.600" stroke-opacity="1.000" stroke-linecap="round" stroke-linejoin="round" d="M -77.574 580.447 L 104.871 808.169 "></path>
    <path id="STROKE_9ee31984-00f8-4557-a630-71b316777d0c" opacity="1.000" fill="none" stroke="#f9f9f1" stroke-width="1.600" stroke-opacity="1.000" stroke-linecap="round" stroke-linejoin="round" d="M -64.685 943.503 L 93.760 868.392 "></path>
    <path id="STROKE_fd4bbf5f-4a43-4b87-8c55-234e4ab4b078" opacity="1.000" fill="none" stroke="#71c047" stroke-width="1.600" stroke-opacity="1.000" stroke-linecap="round" stroke-linejoin="round" d="M -148.513 503.917 Q -148.951 504.354 -148.958 504.361 Q -148.494 504.083 -147.339 503.557 Q -146.184 503.031 -144.581 501.677 Q -142.978 500.324 -136.847 492.805 Q -135.902 495.134 -136.291 495.139 Q -136.220 495.667 -136.373 498.931 Q -136.526 502.194 -135.069 508.694 Q -134.847 508.694 -134.736 508.583 "></path>
    <path id="STROKE_5e9f0aab-f4ea-4968-a5a7-697a69610d02" opacity="1.000" fill="none" stroke="#71c047" stroke-width="1.600" stroke-opacity="1.000" stroke-linecap="round" stroke-linejoin="round" d="M -149.847 689.639 Q -149.625 689.194 -149.402 688.750 Q -149.513 688.861 -149.625 689.417 Q -149.625 688.852 -149.625 689.007 Q -149.625 689.163 -149.625 689.090 Q -149.625 689.016 -149.609 688.488 Q -149.593 687.960 -149.650 687.212 Q -149.708 686.463 -149.511 685.780 Q -149.314 685.097 -149.218 685.045 Q -149.122 684.993 -149.144 685.017 Q -149.167 685.040 -149.149 685.002 Q -149.131 684.964 -148.513 684.083 Q -148.794 683.749 -147.523 684.711 Q -146.252 685.673 -146.088 688.659 Q -145.924 691.646 -146.034 693.197 Q -146.144 694.749 -146.746 697.810 Q -147.349 700.872 -149.847 706.305 Q -149.958 706.194 -149.958 703.972 Q -148.940 703.790 -148.958 703.861 Q -148.374 703.852 -147.630 705.557 Q -146.887 707.261 -142.847 708.861 Q -142.539 708.998 -140.069 706.083 "></path>
    <path id="STROKE_eea4f42e-f335-4853-8fad-b297fa85cf62" opacity="1.000" fill="none" stroke="#71c047" stroke-width="1.600" stroke-opacity="1.000" stroke-linecap="round" stroke-linejoin="round" d="M -154.736 903.639 Q -154.958 903.528 -155.180 903.417 Q -155.503 903.338 -152.625 898.528 Q -152.734 898.611 -152.313 898.569 Q -151.893 898.527 -151.491 898.879 Q -151.089 899.231 -151.003 899.998 Q -150.918 900.765 -151.247 903.395 Q -151.576 906.025 -155.402 914.528 Q -155.395 915.083 -153.479 914.555 Q -151.564 914.028 -150.057 913.705 Q -148.550 913.382 -147.835 913.751 Q -147.119 914.120 -146.571 914.613 Q -146.024 915.106 -146.204 916.601 Q -146.383 918.095 -146.841 919.807 Q -147.298 921.519 -148.006 923.162 Q -148.714 924.805 -151.736 928.861 Q -151.884 928.999 -153.180 928.417 Q -153.324 928.200 -152.958 927.194 "></path>
    <path id="STROKE_bb1d045d-ed7e-41bc-ba0a-fd16c8161ff6" opacity="1.000" fill="none" stroke="#71c047" stroke-width="1.600" stroke-opacity="1.000" stroke-linecap="round" stroke-linejoin="round" d="M 166.848 579.000 Q 167.011 579.895 162.750 594.670 Q 162.685 594.620 164.214 595.545 Q 165.742 596.471 167.805 595.410 Q 169.868 594.349 171.257 593.359 Q 172.646 592.369 173.479 591.736 Q 174.313 591.102 174.803 590.571 "></path>
    <path id="STROKE_09826076-49d7-415b-8838-58d964b2df32" opacity="1.000" fill="none" stroke="#71c047" stroke-width="1.600" stroke-opacity="1.000" stroke-linecap="round" stroke-linejoin="round" d="M 174.562 579.964 Q 174.761 579.962 174.503 580.055 Q 174.246 580.149 173.742 585.872 Q 173.237 591.595 172.910 595.527 Q 172.582 599.460 174.321 602.866 "></path>
    <path id="STROKE_9993ca18-5f8c-498c-92c5-962380619614" opacity="1.000" fill="none" stroke="#71c047" stroke-width="1.600" stroke-opacity="1.000" stroke-linecap="round" stroke-linejoin="round" d="M 171.669 799.823 Q 171.138 800.490 168.536 808.984 Q 168.668 809.317 169.597 809.230 Q 170.525 809.142 172.348 808.612 Q 174.171 808.081 175.842 808.052 Q 177.513 808.022 178.409 808.306 Q 179.306 808.590 179.817 809.229 Q 180.328 809.869 180.442 810.219 Q 180.555 810.570 180.987 811.032 Q 181.419 811.494 176.611 822.364 Q 175.437 823.498 173.598 815.975 "></path>
    <path id="STROKE_19cbf4de-51cd-4faf-b59d-0442c30a6b7c" opacity="1.000" fill="none" stroke="#71c047" stroke-width="1.600" stroke-opacity="1.000" stroke-linecap="round" stroke-linejoin="round" d="M 169.500 798.136 Q 169.381 797.026 185.652 797.413 "></path>
    <path id="STROKE_1cedf5eb-a250-4777-af1a-59d3e05fa642" opacity="1.000" fill="none" stroke="#f9f9f1" stroke-width="1.600" stroke-opacity="1.000" stroke-linecap="round" stroke-linejoin="round" d="M -116.178 542.959 Q -117.228 542.420 -116.864 542.578 Q -117.596 541.960 -115.474 538.540 Q -113.352 535.121 -114.172 536.550 Q -114.992 537.980 -114.577 537.320 Q -114.382 537.206 -113.419 538.693 Q -112.455 540.180 -112.421 543.114 Q -112.387 546.048 -112.808 549.136 Q -113.229 552.223 -116.483 558.467 Q -117.291 558.232 -116.330 553.437 Q -116.019 553.286 -115.019 553.323 Q -114.020 553.359 -112.790 554.750 Q -111.560 556.141 -110.939 556.953 Q -110.318 557.765 -109.839 558.134 Q -109.360 558.504 -108.226 558.148 Q -107.093 557.791 -105.966 556.486 "></path>
    <path id="STROKE_37abaa82-f7cc-45ff-b014-f8832b2bfcba" opacity="1.000" fill="none" stroke="#f9f9f1" stroke-width="1.600" stroke-opacity="1.000" stroke-linecap="round" stroke-linejoin="round" d="M -114.806 732.370 Q -114.677 732.281 -114.948 730.670 Q -115.220 729.059 -112.748 726.273 Q -113.146 726.195 -112.298 726.586 Q -111.451 726.976 -111.580 730.027 Q -111.709 733.078 -112.068 735.384 Q -112.427 737.690 -112.680 738.711 Q -112.932 739.732 -113.901 742.500 Q -114.870 745.268 -116.330 748.678 Q -116.236 748.259 -115.044 747.777 Q -113.852 747.294 -112.616 747.706 Q -111.379 748.117 -107.643 750.888 Q -107.001 750.936 -106.449 750.322 Q -105.897 749.709 -105.745 749.103 Q -105.592 748.497 -105.572 748.141 Q -105.552 747.786 -105.707 747.256 Q -105.861 746.727 -105.661 745.477 "></path>
    <path id="STROKE_6461fdbe-cb47-466d-8ad6-b45a4cb7de8b" opacity="1.000" fill="none" stroke="#f9f9f1" stroke-width="1.600" stroke-opacity="1.000" stroke-linecap="round" stroke-linejoin="round" d="M -102.765 738.924 Q -102.687 738.948 -100.653 737.821 Q -98.619 736.695 -92.554 728.407 Q -92.199 729.146 -92.604 732.733 Q -93.010 736.320 -92.924 739.316 Q -92.838 742.312 -92.367 744.522 Q -91.895 746.733 -90.725 748.526 "></path>
    <path id="STROKE_28392b28-3ae2-4790-878c-9de11d78ad73" opacity="1.000" fill="none" stroke="#f9f9f1" stroke-width="1.600" stroke-opacity="1.000" stroke-linecap="round" stroke-linejoin="round" d="M -96.217 542.784 Q -96.059 542.849 -96.025 541.522 Q -95.992 540.195 -96.377 539.173 Q -96.762 538.152 -97.075 537.671 Q -97.388 537.191 -97.423 537.192 Q -97.458 537.192 -97.677 536.975 Q -97.897 536.758 -99.129 537.490 Q -100.362 538.221 -101.409 540.304 Q -102.457 542.387 -103.186 544.715 Q -103.916 547.042 -104.198 549.340 Q -104.480 551.638 -104.470 552.809 Q -104.459 553.979 -104.129 555.468 Q -103.798 556.956 -102.944 557.994 Q -102.089 559.032 -100.668 559.133 Q -99.247 559.235 -98.093 558.872 Q -96.940 558.510 -95.680 557.037 Q -94.421 555.564 -93.596 553.300 Q -92.772 551.036 -92.536 549.124 Q -92.301 547.211 -92.536 546.371 Q -92.771 545.532 -93.746 544.354 Q -94.721 543.176 -95.461 542.410 Q -96.200 541.643 -96.658 540.723 "></path>
    <circle id="STROKE_4c65422f-caf0-446f-bd5f-14f42ccc7b6a" opacity="1.000" fill="#f9f9f1" stroke="#f9f9f1" stroke-width="0.1" stroke-opacity="1.000" fill-opacity="1.000" cx="-113.527" cy="941.745" r="0.800"></circle>
    <path id="STROKE_1b9593e4-3f07-49f2-bdc0-6129f4b988de" opacity="1.000" fill="none" stroke="#f9f9f1" stroke-width="1.600" stroke-opacity="1.000" stroke-linecap="round" stroke-linejoin="round" d="M -112.916 946.941 Q -113.004 947.297 -112.865 944.709 Q -112.726 942.121 -110.700 939.453 Q -109.430 939.809 -110.360 946.228 Q -111.290 952.647 -114.444 963.444 Q -113.383 963.128 -112.422 962.650 Q -111.460 962.173 -110.826 962.208 Q -110.191 962.243 -109.871 962.393 Q -109.550 962.543 -108.798 963.287 Q -108.046 964.031 -107.536 964.378 Q -107.027 964.724 -106.554 964.786 Q -106.081 964.849 -105.988 964.831 Q -105.895 964.814 -105.621 964.806 Q -105.347 964.799 -105.313 964.741 Q -105.279 964.683 -104.891 964.477 Q -104.503 964.271 -104.206 959.471 "></path>
    <path id="STROKE_33f505f1-6fb8-4869-80ab-5c2f8a61ea6d" opacity="1.000" fill="none" stroke="#f9f9f1" stroke-width="1.600" stroke-opacity="1.000" stroke-linecap="round" stroke-linejoin="round" d="M -99.163 947.399 Q -99.250 946.884 -96.718 942.204 Q -95.287 942.455 -96.576 948.620 Q -97.864 954.785 -98.894 957.858 Q -99.923 960.931 -100.345 962.443 Q -100.768 963.955 -100.309 965.430 Q -100.763 965.703 -98.792 965.319 Q -96.820 964.935 -95.545 964.509 Q -94.269 964.082 -93.885 963.907 Q -93.501 963.732 -93.085 962.623 Q -92.668 961.513 -92.898 960.235 "></path>
    <path id="STROKE_878f4839-75be-4f84-b298-acb2a546a525" opacity="1.000" fill="none" stroke="#f9f9f1" stroke-width="1.600" stroke-opacity="1.000" stroke-linecap="round" stroke-linejoin="round" d="M 112.236 637.040 Q 112.566 636.701 114.706 635.742 Q 116.845 634.783 119.373 631.535 Q 121.901 628.288 124.852 622.568 Q 125.216 622.672 125.076 628.005 Q 124.935 633.338 124.869 636.655 Q 124.803 639.971 125.687 642.328 Q 125.873 642.328 125.966 642.235 "></path>
    <path id="STROKE_e01e651a-7fd1-497d-980b-ba2f025b475c" opacity="1.000" fill="none" stroke="#f9f9f1" stroke-width="1.600" stroke-opacity="1.000" stroke-linecap="round" stroke-linejoin="round" d="M 133.944 634.999 Q 134.353 635.013 137.067 632.627 Q 139.781 630.240 143.035 624.052 Q 143.848 624.020 143.400 628.711 Q 142.952 633.401 144.891 643.720 "></path>
    <path id="STROKE_62786ddb-46bc-4b8c-bbac-9b73390aaf1e" opacity="1.000" fill="none" stroke="#f9f9f1" stroke-width="1.600" stroke-opacity="1.000" stroke-linecap="round" stroke-linejoin="round" d="M 114.091 852.820 Q 113.939 852.893 115.650 851.720 Q 117.360 850.546 119.723 847.127 Q 122.086 843.708 123.555 841.616 Q 125.024 839.525 126.430 837.977 Q 126.962 838.369 126.667 842.465 Q 126.371 846.561 126.187 849.000 Q 126.003 851.439 126.421 852.844 Q 126.838 854.249 127.156 855.088 Q 127.474 855.927 130.048 855.789 "></path>
    <circle id="STROKE_0eeddca7-6350-4536-ba3e-463712fd8103" opacity="1.000" fill="#f9f9f1" stroke="#f9f9f1" stroke-width="0.1" stroke-opacity="1.000" fill-opacity="1.000" cx="138.397" cy="839.647" r="0.800"></circle>
    <path id="STROKE_f360b375-e175-4d7c-b52f-96e8f79a3e1b" opacity="1.000" fill="none" stroke="#f9f9f1" stroke-width="1.600" stroke-opacity="1.000" stroke-linecap="round" stroke-linejoin="round" d="M 138.953 841.132 Q 138.861 841.224 138.768 841.317 Q 138.332 840.344 138.393 839.270 Q 138.453 838.196 139.216 837.333 Q 139.980 836.470 140.483 836.142 Q 140.986 835.814 141.404 835.995 Q 141.822 836.176 142.324 836.542 Q 142.827 836.908 142.778 839.001 Q 142.730 841.094 141.849 844.485 Q 140.968 847.875 139.176 851.848 Q 137.383 855.822 135.799 859.314 Q 135.833 859.375 135.773 859.346 Q 135.712 859.318 137.725 859.095 Q 139.738 858.872 141.278 858.912 Q 142.819 858.952 143.107 859.074 Q 143.394 859.196 143.331 859.158 Q 143.268 859.119 143.829 859.105 Q 144.389 859.090 145.447 857.088 "></path>
    <path id="STROKE_4ff93247-004a-4622-89c0-dd8b90bb3ac5" opacity="1.000" fill="none" stroke="#f9f9f1" stroke-width="1.600" stroke-opacity="1.000" stroke-linecap="round" stroke-linejoin="round" d="M 8.609 567.061 Q 8.776 566.893 7.839 567.676 Q 8.421 567.531 10.718 564.712 Q 13.016 561.893 15.532 558.291 Q 16.008 558.958 15.497 561.998 Q 14.985 565.038 14.770 566.934 Q 14.555 568.830 14.596 569.687 Q 14.636 570.544 15.032 571.531 Q 15.429 572.518 16.147 573.523 Q 16.279 573.325 16.455 573.061 "></path>
    <path id="STROKE_0dfd523f-b2bd-4fdc-868a-b28b00f3e84e" opacity="1.000" fill="none" stroke="#f9f9f1" stroke-width="1.600" stroke-opacity="1.000" stroke-linecap="round" stroke-linejoin="round" d="M -62.934 616.871 Q -62.521 616.614 -62.318 615.948 Q -62.320 616.086 -63.318 618.443 Q -64.317 620.799 -64.950 622.625 Q -65.584 624.451 -65.950 625.915 Q -66.316 627.379 -66.138 628.266 Q -65.960 629.153 -65.532 629.554 Q -65.104 629.954 -64.417 630.130 Q -63.729 630.307 -63.096 630.306 Q -62.462 630.306 -61.387 629.759 Q -60.312 629.213 -58.995 628.185 Q -57.678 627.156 -57.087 626.102 "></path>
    <path id="STROKE_36e262ad-e663-48d6-9701-9691f0f3ec01" opacity="1.000" fill="none" stroke="#f9f9f1" stroke-width="1.600" stroke-opacity="1.000" stroke-linecap="round" stroke-linejoin="round" d="M -56.779 621.179 Q -56.828 620.722 -57.253 624.491 Q -57.679 628.260 -57.760 630.242 Q -57.841 632.225 -57.731 633.364 Q -57.620 634.503 -57.087 635.333 "></path>
    <path id="STROKE_969785bf-5ad3-4275-9fd7-9723b59d9da5" opacity="1.000" fill="none" stroke="#f9f9f1" stroke-width="1.600" stroke-opacity="1.000" stroke-linecap="round" stroke-linejoin="round" d="M -43.304 845.678 Q -44.187 845.338 -43.061 844.062 Q -41.935 842.786 -41.062 842.156 Q -40.190 841.527 -39.556 841.472 Q -38.922 841.417 -38.362 841.500 Q -37.802 841.582 -37.618 841.854 Q -37.433 842.125 -37.281 842.737 Q -37.128 843.348 -38.724 846.098 Q -40.320 848.848 -41.422 850.682 Q -42.523 852.517 -43.155 853.438 Q -43.787 854.360 -43.860 855.348 Q -43.933 856.337 -43.878 857.248 Q -43.824 858.159 -36.548 859.419 Q -36.022 859.968 -37.681 862.180 Q -39.341 864.391 -40.521 865.844 Q -41.701 867.297 -43.153 867.694 Q -43.099 867.671 -43.186 867.728 Q -43.272 867.784 -43.456 866.935 "></path>
    <path id="STROKE_bd566858-6369-4a4e-a97c-8454f03f07f1" opacity="1.000" fill="none" stroke="#f9f9f1" stroke-width="1.600" stroke-opacity="1.000" stroke-linecap="round" stroke-linejoin="round" d="M 47.341 900.946 Q 47.179 899.945 47.114 899.959 Q 47.072 899.363 46.741 899.035 Q 46.409 898.708 46.173 898.533 Q 45.937 898.358 45.425 898.800 Q 44.913 899.241 44.531 899.804 Q 44.150 900.367 43.854 900.844 Q 43.557 901.321 43.192 901.755 Q 42.827 902.189 41.869 904.331 Q 40.911 906.473 40.444 908.519 Q 39.976 910.565 39.790 912.547 Q 39.605 914.529 39.852 916.278 Q 40.099 918.028 41.015 919.295 Q 41.931 920.563 42.732 921.261 Q 43.532 921.959 44.389 921.580 Q 45.246 921.201 45.923 920.697 Q 46.600 920.192 46.768 919.365 Q 46.936 918.537 46.583 917.646 Q 46.230 916.754 45.748 916.102 Q 45.265 915.451 44.532 915.286 Q 43.799 915.122 43.264 915.232 Q 42.730 915.341 42.035 915.857 Q 41.340 916.373 40.774 916.942 Q 40.208 917.511 39.969 918.104 Q 39.730 918.696 40.071 919.179 Q 40.411 919.662 40.812 920.078 "></path>
    <circle id="STROKE_47c302e4-3c8b-4c2b-939e-2c4458a631a2" opacity="1.000" fill="#f9f9f1" stroke="#f9f9f1" stroke-width="0.1" stroke-opacity="1.000" fill-opacity="1.000" cx="47.268" cy="654.334" r="0.800"></circle>
    <path id="STROKE_47b1eb97-4fe3-4377-b1b0-1c7cd6c7b58d" opacity="1.000" fill="none" stroke="#f9f9f1" stroke-width="1.600" stroke-opacity="1.000" stroke-linecap="round" stroke-linejoin="round" d="M 47.098 656.040 Q 47.102 655.350 47.012 655.357 Q 46.391 654.714 47.107 653.111 Q 47.824 651.507 48.534 650.738 Q 49.243 649.969 49.730 649.687 Q 50.218 649.406 50.206 649.443 Q 50.195 649.480 50.105 649.436 Q 50.014 649.391 50.876 649.521 Q 51.738 649.651 51.914 651.202 Q 52.090 652.753 51.399 655.341 Q 50.708 657.929 49.006 660.877 Q 47.305 663.825 46.140 665.576 Q 44.975 667.328 44.965 669.433 Q 44.694 669.860 46.494 669.313 Q 48.295 668.767 49.579 668.796 Q 50.864 668.824 51.522 669.144 Q 52.181 669.464 52.596 669.613 Q 53.011 669.762 53.308 669.892 Q 53.604 670.021 53.713 670.096 Q 53.822 670.170 53.929 670.213 Q 54.036 670.255 54.245 670.160 Q 54.454 670.064 55.063 669.563 Q 55.672 669.062 55.969 668.324 "></path>
    <circle id="STROKE_c82ec2ce-266a-4ab9-bdeb-a273009aca89" opacity="1.000" fill="#f9f9f1" stroke="#f9f9f1" stroke-width="0.1" stroke-opacity="1.000" fill-opacity="1.000" cx="38.826" cy="819.639" r="0.800"></circle>
    <circle id="STROKE_819c6ae3-f7f2-4a07-b57a-94839ba1958c" opacity="1.000" fill="#f9f9f1" stroke="#f9f9f1" stroke-width="0.1" stroke-opacity="1.000" fill-opacity="1.000" cx="37.825" cy="821.354" r="0.800"></circle>
    <path id="STROKE_782d1a9e-001c-42c7-95f3-4b633151592d" opacity="1.000" fill="none" stroke="#f9f9f1" stroke-width="1.600" stroke-opacity="1.000" stroke-linecap="round" stroke-linejoin="round" d="M 37.968 820.210 Q 38.499 819.636 38.438 819.690 Q 38.378 819.743 38.397 819.639 Q 37.918 819.505 35.394 826.787 Q 35.792 827.008 37.304 827.110 Q 38.816 827.212 39.870 827.521 Q 40.923 827.831 41.402 828.361 Q 41.881 828.892 41.818 830.127 Q 41.754 831.363 39.398 835.795 Q 39.299 835.705 39.112 835.486 Q 38.926 835.267 38.881 835.146 Q 38.836 835.025 38.723 834.780 Q 38.609 834.535 38.305 833.299 Q 38.000 832.062 37.825 829.647 "></path>
    <path id="STROKE_d7b92b46-4731-4ebc-920e-67cb8e8a97b7" opacity="1.000" fill="none" stroke="#f9f9f1" stroke-width="1.600" stroke-opacity="1.000" stroke-linecap="round" stroke-linejoin="round" d="M 36.967 818.352 Q 36.790 818.282 39.891 818.018 Q 42.992 817.754 44.745 817.780 Q 46.499 817.807 47.446 817.524 Q 48.394 817.242 49.120 816.779 "></path>
  </g>
</svg>