<?xml version="1.0" encoding="utf-8"?>
<svg xmlns="http://www.w3.org/2000/svg" xmlns:xlink="http://www.w3.org/1999/xlink" version= "1.1" width="700px" height="700px" viewBox="930 432 700 700">
<g id="layer1">
<g style="fill:rgb(254,254,254); fill-opacity:1.0; stroke-linejoin: miter">
<path d="M1822.9978,446.80804C1822.5931,446.80804,1822.1837,446.91998,1821.8177,447.15442Q1788.346,468.59338,1775.896,481.0341L1775.88,481.0341Q1761.0021,493.3234,1728.5072,534.312L1728.4961,534.312Q1718.8887,544.4938,1714.488,547.841L1714.4572,547.86505Q1703.1298,556.80524,1696.3331,556.80524Q1692.8567,556.80524,1690.5656,554.4663C1690.1364,554.02814,1689.5682,553.8083,1688.9998,553.8083C1688.4464,553.8083,1687.8927,554.01654,1687.4662,554.4343C1686.6014,555.2814,1686.5872,556.669,1687.4342,557.5337Q1691.042,561.21686,1696.1826,561.21686Q1704.6051,561.21686,1717.1422,551.3299L1717.1418,551.3299Q1721.86,547.74115,1731.8193,537.177C1731.8623,537.13135,1731.9031,537.0843,1731.942,537.03516Q1764.3368,496.17297,1778.8353,484.2789C1778.8906,484.23352,1778.9437,484.1854,1778.9944,484.1348Q1791.1091,472.029,1824.182,450.84558C1825.2013,450.19272,1825.4983,448.8372,1824.8455,447.8179C1824.427,447.16464,1823.72,446.80804,1822.9978,446.80804 Z"/>
</g>
<g style="fill:rgb(254,254,254); fill-opacity:1.0; stroke-linejoin: miter">
</g>
<g style="fill:rgb(254,254,254); fill-opacity:1.0; stroke-linejoin: miter">
</g>
<g style="fill:rgb(254,254,254); fill-opacity:1.0; stroke-linejoin: miter">
</g>
<g style="fill:rgb(254,254,254); fill-opacity:1.0; stroke-linejoin: miter">
</g>
<g style="fill:rgb(254,254,254); fill-opacity:1.0; stroke-linejoin: miter">
</g>
<g style="fill:rgb(254,254,254); fill-opacity:1.0; stroke-linejoin: miter">
</g>
<g style="fill:rgb(254,254,254); fill-opacity:1.0; stroke-linejoin: miter">
</g>
<g style="fill:rgb(254,254,254); fill-opacity:1.0; stroke-linejoin: miter">
</g>
<g style="fill:rgb(254,254,254); fill-opacity:1.0; stroke-linejoin: miter">
</g>
<g style="fill:rgb(254,254,254); fill-opacity:1.0; stroke-linejoin: miter">
</g>
<g style="fill:rgb(254,254,254); fill-opacity:1.0; stroke-linejoin: miter">
</g>
<g style="fill:rgb(254,254,254); fill-opacity:1.0; stroke-linejoin: miter">
</g>
<g style="fill:rgb(254,254,254); fill-opacity:1.0; stroke-linejoin: miter">
</g>
<g style="fill:rgb(254,254,254); fill-opacity:1.0; stroke-linejoin: miter">
</g>
<g style="fill:rgb(254,254,254); fill-opacity:1.0; stroke-linejoin: miter">
</g>
<g style="fill:rgb(254,254,254); fill-opacity:1.0; stroke-linejoin: miter">
</g>
<g style="fill:rgb(254,254,254); fill-opacity:1.0; stroke-linejoin: miter">
</g>
<g style="fill:rgb(254,254,254); fill-opacity:1.0; stroke-linejoin: miter">
</g>
<g style="fill:rgb(254,254,254); fill-opacity:1.0; stroke-linejoin: miter">
</g>
<g style="fill:rgb(254,254,254); fill-opacity:1.0; stroke-linejoin: miter">
</g>
<g style="fill:rgb(254,254,254); fill-opacity:1.0; stroke-linejoin: miter">
</g>
<g style="fill:rgb(254,254,254); fill-opacity:1.0; stroke-linejoin: miter">
</g>
<g style="fill:rgb(254,254,254); fill-opacity:1.0; stroke-linejoin: miter">
</g>
<g style="fill:rgb(254,254,254); fill-opacity:1.0; stroke-linejoin: miter">
</g>
<g style="fill:rgb(254,254,254); fill-opacity:1.0; stroke-linejoin: miter">
</g>
<g style="fill:rgb(254,254,254); fill-opacity:1.0; stroke-linejoin: miter">
</g>
<g style="fill:rgb(254,254,254); fill-opacity:1.0; stroke-linejoin: miter">
</g>
<g style="fill:rgb(254,254,254); fill-opacity:1.0; stroke-linejoin: miter">
</g>
<g style="fill:rgb(254,254,254); fill-opacity:1.0; stroke-linejoin: miter">
<path d="M1701.387,780.1476L1701.387,780.1476L1701.8317,779.2583C1702.26,778.4017,1703.3015,778.05444,1704.1582,778.4828C1705.0149,778.9111,1705.362,779.9527,1704.9337,780.8093L1704.9337,780.8093L1704.489,781.6986C1704.0608,782.5552,1703.0192,782.9024,1702.1626,782.4741C1701.3059,782.0458,1700.9587,781.00415,1701.387,780.1476 Z"/>
</g>
<g style="fill:rgb(254,254,254); fill-opacity:1.0; stroke-linejoin: miter">
</g>
<g style="fill:rgb(254,254,254); fill-opacity:1.0; stroke-linejoin: miter">
</g>
<g style="fill:rgb(254,254,254); fill-opacity:1.0; stroke-linejoin: miter">
</g>
<g style="fill:rgb(254,254,254); fill-opacity:1.0; stroke-linejoin: miter">
</g>
<g style="fill:rgb(254,254,254); fill-opacity:1.0; stroke-linejoin: miter">
</g>
<g style="fill:rgb(254,254,254); fill-opacity:1.0; stroke-linejoin: miter">
</g>
<g style="fill:rgb(254,254,254); fill-opacity:1.0; stroke-linejoin: miter">
</g>
<g style="fill:rgb(254,254,254); fill-opacity:1.0; stroke-linejoin: miter">
</g>
<g style="fill:rgb(254,254,254); fill-opacity:1.0; stroke-linejoin: miter">
</g>
<g style="fill:rgb(254,254,254); fill-opacity:1.0; stroke-linejoin: miter">
</g>
<g style="fill:rgb(254,254,254); fill-opacity:1.0; stroke-linejoin: miter">
</g>
<g style="fill:rgb(254,254,254); fill-opacity:1.0; stroke-linejoin: miter">
</g>
<g style="fill:rgb(254,254,254); fill-opacity:1.0; stroke-linejoin: miter">
</g>
<g style="fill:rgb(254,254,254); fill-opacity:1.0; stroke-linejoin: miter">
</g>
<g style="fill:rgb(254,254,254); fill-opacity:1.0; stroke-linejoin: miter">
</g>
<g style="fill:rgb(254,254,254); fill-opacity:1.0; stroke-linejoin: miter">
</g>
<g style="fill:rgb(254,254,254); fill-opacity:1.0; stroke-linejoin: miter">
</g>
<g style="fill:rgb(254,254,254); fill-opacity:1.0; stroke-linejoin: miter">
</g>
<g style="fill:rgb(254,254,254); fill-opacity:1.0; stroke-linejoin: miter">
<path d="M1419.3502,490.08298Q1440.3706,490.08298,1465.7473,499.8131L1465.7441,499.8131Q1513.6464,520.75104,1552.2357,572.2452L1552.2201,572.2452Q1564.9916,599.07916,1562.6166,641.1828L1562.6094,641.1828Q1559.0516,662.5749,1548.7156,702.67114L1548.7001,702.67114Q1529.0084,744.47534,1475.0297,815.9981C1474.9884,816.05273,1474.9518,816.1109,1474.9202,816.17163Q1458.8936,847.0017,1432.2711,923.02094L1432.2568,923.02094L1410.1478,955.3998L1410.1461,955.3998Q1355.2251,1028.0914,1229.121,1028.0914Q1226.5454,1028.0914,1223.9402,1028.061L1223.9332,1028.061Q1188.0532,1026.788,1163.5089,1013.4082L1163.4973,1013.4082Q1135.5459,988.69055,1072.2474,971.26135L1072.2367,971.26135L1050.3342,955.0141L1050.3237,955.0141Q1020.3181,893.31866,1033.4441,840.4214C1033.4586,840.3629,1033.4689,840.30347,1033.4746,840.24347Q1038.947,783.5687,1089.4998,717.23364L1089.4954,717.23364Q1101.1985,704.08545,1117.1792,690.8219L1117.168,690.8219L1207.9578,633.8925C1208.0253,633.8502,1208.0883,633.8015,1208.1464,633.74695Q1230.4888,612.75653,1237.5153,601.52045C1237.5696,601.43365,1237.6127,601.3406,1237.6438,601.24304Q1255.4116,545.66864,1269.8328,537.9726C1269.9291,537.92114,1270.0182,537.85706,1270.0977,537.7821Q1285.0237,523.69525,1302.0027,523.69525Q1302.931,523.69525,1303.8655,523.73737L1303.8524,523.73737Q1302.8513,528.54987,1303.6194,530.0877L1303.6194,530.0877Q1303.6366,530.1224,1303.657,530.1599L1303.6576,530.1611Q1304.2247,531.2053,1305.2672,531.2053Q1305.5424,531.2053,1305.8507,531.13257Q1306.2178,531.04596,1306.6096,530.8332L1306.6914,530.78467L1322.3127,520.66705L1322.326,520.66705Q1322.3658,520.6674,1322.4065,520.6674Q1329.0663,520.6674,1361.3562,510.35287C1361.4491,510.3232,1361.5381,510.2826,1361.6213,510.2319Q1392.9436,491.16287,1400.0016,491.16287Q1401.016,491.16287,1401.5292,491.55685C1401.7457,491.7231,1402.0093,491.81104,1402.2776,491.81104C1402.3625,491.81104,1402.4479,491.80225,1402.5323,491.78433Q1410.5604,490.08298,1419.3502,490.08298 Z M1419.3473,487.625Q1410.5465,487.625,1402.4713,489.2859L1402.4713,489.2859Q1401.7183,488.9622,1400.5813,488.9622Q1391.8467,488.9622,1360.4535,508.065L1360.4398,508.065Q1328.6508,518.2145,1322.5287,518.2145Q1322.2794,518.2145,1322.0728,518.19763C1322.0394,518.19495,1322.0062,518.19354,1321.9729,518.19354C1321.7366,518.19354,1321.5044,518.26184,1321.3048,518.39105L1305.7031,528.496L1305.7031,528.496Q1305.5931,527.27496,1306.3256,523.92145L1306.3386,523.92145Q1308.037,524.0973,1309.7554,524.4099C1309.8297,524.42346,1309.9038,524.43,1309.9768,524.43C1310.5593,524.43,1311.0767,524.0141,1311.1846,523.42065C1311.306,522.7528,1310.8632,522.113,1310.1953,521.99146Q1306.0168,521.2313,1301.9547,521.2313Q1284.1101,521.2313,1268.5103,535.9003L1268.4976,535.9003Q1253.284,544.28955,1235.3372,600.3861L1235.3248,600.3861Q1228.4135,611.327,1206.5264,631.8961L1206.5144,631.8961L1115.8392,688.7536C1115.7933,688.7824,1115.7494,688.8143,1115.7076,688.8489Q1099.5211,702.27277,1087.6592,715.59924L1087.5999,715.67126Q1036.58,782.5922,1031.0299,839.98596L1031.0195,839.98596Q1017.7344,893.79486,1048.2395,956.3488C1048.3259,956.526,1048.4536,956.67975,1048.6119,956.7972L1070.9503,973.3678C1071.0724,973.4584,1071.2103,973.5255,1071.3569,973.5658Q1134.3875,990.8893,1161.9524,1015.32355C1162.0212,1015.3846,1162.0968,1015.43774,1162.1775,1015.48193Q1187.2776,1029.2223,1223.8595,1030.5181L1223.8885,1030.5188Q1226.5204,1030.5496,1229.1222,1030.5496Q1356.4906,1030.5496,1412.1438,956.83344L1412.1779,956.786L1434.4077,924.2302C1434.4684,924.14136,1434.5172,924.04486,1434.5527,923.9433Q1461.0774,848.19244,1477.0214,817.45935L1477.0066,817.45935Q1531.2413,745.5953,1551.008,703.5397C1551.0408,703.4702,1551.0668,703.398,1551.0859,703.32367Q1561.489,662.97107,1565.0563,641.453C1565.0635,641.4093,1565.0685,641.3654,1565.0709,641.3212Q1567.4889,598.4573,1554.3582,571.018C1554.3234,570.9452,1554.2815,570.87616,1554.2332,570.8116Q1515.2239,518.74,1466.6793,497.53915L1466.6274,497.51788Q1440.8263,487.625,1419.3473,487.625 Z"/>
</g>
<g style="fill:rgb(254,254,254); fill-opacity:1.0; stroke-linejoin: miter">
</g>
<g style="fill:rgb(254,254,254); fill-opacity:1.0; stroke-linejoin: miter">
<path d="M1310.3679,806.0032L1310.3456,806.00336Q1309.0303,806.097,1308.0614,806.68463L1307.5734,807.01044Q1307.0988,807.36755,1306.6771,807.84973Q1306.2556,808.33185,1305.8871,808.9391Q1304.4806,809.37506,1303.5059,810.3778L1303.0406,810.9146Q1302.6007,811.4869,1302.2623,812.2008Q1301.9337,812.8741,1301.667,813.8518Q1301.5056,814.6394,1301.4279,815.37006Q1301.3065,817.14685,1301.3826,817.4339Q1301.4778,818.7244,1301.9075,819.78723Q1301.8436,822.19446,1302.2639,822.9927Q1303.331,825.61975,1306.5824,825.85284Q1307.3508,825.8449,1308.1188,825.48926Q1309.138,825.7159,1310.7003,825.2333Q1310.8851,825.1714,1311.0736,825.03656Q1311.673,824.63214,1311.837,824.47626Q1312.2476,824.365,1313.3943,823.65137Q1314.2992,823.0191,1314.9731,822.11Q1315.7719,820.91296,1315.8412,820.5905Q1316.522,820.3733,1317.0416,819.97614Q1317.1967,819.90497,1317.7305,819.2792Q1318.163,818.9634,1318.5513,817.0231Q1318.9713,814.90875,1318.4681,813.4664Q1318.2913,812.8631,1317.8306,812.4301Q1317.1509,811.7306,1316.7188,811.5253L1316.5831,811.35675Q1316.3419,810.25653,1315.9058,809.38116L1315.4209,808.56195Q1313.869,806.27496,1310.3679,806.0032"/>
</g>
<g style="fill:rgb(30,160,25); fill-opacity:1.0; stroke-linejoin: miter">
</g>
<g style="fill:rgb(28,151,23); fill-opacity:1.0; stroke-linejoin: miter">
<path d="M1312.3391,737.73425C1312.2885,737.73425,1312.2372,737.73737,1312.1857,737.7438Q1304.4227,738.71014,1299.6096,742.8676L1299.6051,742.8676Q1296.2755,745.4265,1287.3899,760.7892L1287.3577,760.8485Q1283.5819,768.2923,1278.3229,789.4986L1278.3229,789.4986Q1275.1727,801.54724,1274.5397,810.9873L1274.5393,810.9873Q1270.8472,851.87134,1298.2452,906.29895C1298.4612,906.72797,1298.8943,906.9756,1299.344,906.9756C1299.5298,906.9756,1299.7184,906.93335,1299.8956,906.8441C1300.502,906.53894,1300.746,905.8,1300.4408,905.1937Q1273.349,851.3748,1276.9901,811.1804L1276.9923,811.15173Q1277.6101,801.9382,1280.705,790.1054L1280.7089,790.0903Q1285.8792,769.24133,1289.52,762.0199L1289.5178,762.0199Q1298.2526,746.918,1301.1426,744.7869L1301.2166,744.72784Q1305.4657,741.05743,1312.4894,740.1831C1313.163,740.09924,1313.6411,739.48517,1313.5573,738.8116C1313.4799,738.1896,1312.9502,737.73425,1312.3391,737.73425 Z"/>
</g>
<g style="fill:rgb(28,151,23); fill-opacity:1.0; stroke-linejoin: miter">
<path d="M1332.0872,771.17413Q1332.0872,771.1742,1332.0872,771.1743L1332.0872,771.1743L1332.0872,771.17413 Z M1333.9277,771.8681Q1333.5798,772.14075,1333.2379,772.14075Q1332.9307,772.14075,1332.6283,771.92053L1332.6416,771.92053C1332.7251,771.9665,1332.8145,772.00305,1332.9084,772.02893C1333.0162,772.0586,1333.1259,772.07306,1333.2347,772.07306C1333.476,772.07306,1333.7128,772.0021,1333.9144,771.8681 Z M1338.2836,831.9493C1338.1359,832.0611,1338.0166,832.20404,1337.9331,832.36597L1337.9331,832.36597Q1338.0334,832.11847,1338.2701,831.9493 Z M1317.209,736.574C1316.6179,736.574,1316.0968,737.00146,1315.9977,737.6037C1315.8875,738.2735,1316.3411,738.90576,1317.0109,739.016Q1321.5726,739.76654,1325.7224,749.5132L1325.7861,749.6415L1325.7823,749.6415Q1326.5426,751.2469,1326.89,752.53467L1326.8921,752.5424L1332.05,771.1719C1332.0686,771.2387,1332.0924,771.3032,1332.1213,771.36487L1332.108,771.36487Q1332.1592,772.04407,1332.1388,774.39856C1332.1382,774.4735,1332.1443,774.5482,1332.1572,774.6221Q1335.3923,793.0171,1335.4639,795.56274L1335.4702,795.657L1337.7089,816.9064L1337.7054,816.9064Q1338.1313,831.04047,1337.8903,832.4918L1337.877,832.4918C1337.8097,832.6682,1337.7825,832.86163,1337.8033,833.05853Q1338.321,837.9488,1338.2672,838.5924L1338.2678,838.5924L1338.2587,838.69824L1337.9106,848.2121L1337.909,848.2121Q1337.07,857.6764,1332.9448,873.19324L1332.9315,873.19324L1320.7904,898.2048L1313.7278,907.0017L1305.71,911.63184L1305.71,911.63184Q1305.5436,911.56354,1305.2473,911.30994C1305.0156,911.1116,1304.7314,911.0145,1304.4486,911.0145C1304.1019,911.0145,1303.7573,911.16034,1303.5143,911.44434C1303.0729,911.96,1303.133,912.7359,1303.6487,913.17737Q1304.526,913.9284,1305.3547,914.0747L1305.355,914.0747Q1305.5701,914.1127,1305.7758,914.1127Q1306.3917,914.1127,1306.9235,913.7722L1306.9191,913.7722L1315.1566,909.01514C1315.2885,908.93896,1315.405,908.83905,1315.5004,908.7203L1322.7941,899.63544C1322.8517,899.5636,1322.9012,899.48553,1322.9414,899.4027L1335.224,874.09973C1335.2584,874.0289,1335.2858,873.9551,1335.306,873.87897Q1339.5123,858.06793,1340.3633,848.3644L1340.3672,848.30194L1340.7152,838.7881L1340.7177,838.7881Q1340.785,837.92426,1340.2821,833.12396L1340.2687,833.12396Q1340.2808,833.0764,1340.2909,833.02673L1340.291,833.0262Q1340.6049,831.4821,1340.1597,816.7405L1340.1534,816.6488L1337.9148,795.3994L1337.9177,795.3994Q1337.7913,792.4763,1334.6105,774.379L1334.5972,774.379Q1334.6221,771.41614,1334.5105,770.7614L1334.5105,770.7612Q1334.4714,770.5321,1334.3851,770.3449L1334.3718,770.3449L1329.2612,751.88654L1329.2612,751.88654Q1328.8466,750.3533,1327.9629,748.50287L1327.9209,748.4227L1327.9204,748.4219L1327.9293,748.4219Q1323.2705,737.5547,1317.41,736.59045C1317.3424,736.57935,1317.2753,736.574,1317.209,736.574 Z"/>
</g>
</g>
</svg>