<?xml version="1.0" encoding="utf-8"?>
<svg xmlns="http://www.w3.org/2000/svg" xmlns:xlink="http://www.w3.org/1999/xlink" version= "1.1" width="500px" height="500px" viewBox="1030 532 500 500">
<g id="layer1">
<g style="fill:rgb(0,0,0); fill-opacity:1.0; stroke-linejoin: miter">
<path d="M1285.2372,686.76495L1284.9432,686.7668Q1284.4202,686.7733,1283.8948,686.8029Q1283.632,686.81775,1283.3687,686.8384Q1282.7098,686.89496,1282.5775,686.9132L1282.5903,686.9142L1282.6057,687.5306Q1283.8362,687.5561,1285.0027,687.8407Q1285.1909,687.7781,1285.3822,687.7228Q1285.8639,687.5909,1285.9641,687.5732Q1286.3505,687.4838,1286.776,687.4257L1286.7264,686.81433L1286.7393,686.8153Q1286.5292,686.8025,1286.3192,686.79L1285.779,686.7712Q1285.5083,686.768,1285.2372,686.76495 Z"/>
</g>
<g style="fill:rgb(0,0,0); fill-opacity:1.0; stroke-linejoin: miter">
</g>
<g style="fill:rgb(254,254,254); fill-opacity:1.0; stroke-linejoin: miter">
</g>
<g style="fill:rgb(254,254,254); fill-opacity:1.0; stroke-linejoin: miter">
</g>
<g style="fill:rgb(254,254,254); fill-opacity:1.0; stroke-linejoin: miter">
</g>
<g style="fill:rgb(254,254,254); fill-opacity:1.0; stroke-linejoin: miter">
</g>
<g style="fill:rgb(254,254,254); fill-opacity:1.0; stroke-linejoin: miter">
<path d="M1343.2332,569.4562L1342.2168,569.50574Q1338.2577,569.90234,1335.9507,573.4717Q1333.5565,577.1042,1333.8892,581.1045L1334.083,582.1149L1334.5813,584.0487Q1334.7722,584.7263,1335.0288,585.2315Q1336.6302,588.3269,1338.3219,589.9062Q1339.7675,591.43494,1341.3,591.9445Q1341.8109,592.1144,1342.3315,592.171Q1343.0592,592.25165,1343.8253,592.1042L1344.8895,592.1499L1345.7295,592.0978Q1346.5469,591.99347,1347.2748,591.68066Q1348.7305,591.055,1349.8278,589.5951Q1351.0736,587.7506,1351.3668,586.61035Q1352.2781,585.48,1352.8895,584.0873Q1353.0615,583.8071,1353.4297,582.40375Q1353.6669,581.28076,1353.5764,580.15594Q1353.4634,578.367,1352.6141,576.8934L1352.3094,576.41095L1350.8875,574.5092Q1350.2319,573.74976,1349.7896,573.4015L1349.3064,572.6801Q1348.8062,571.99493,1348.238,571.45447Q1347.1018,570.3735,1345.6937,569.8713Q1343.9719,569.3637,1343.2332,569.4562"/>
</g>
<g style="fill:rgb(254,254,254); fill-opacity:1.0; stroke-linejoin: miter">
<path d="M1392.9731,629.77264L1392.7427,629.77875Q1392.6265,629.7696,1392.0579,629.8705Q1391.2673,630.07526,1390.9379,630.2678Q1390.0984,630.338,1389.2217,630.6011Q1388.3381,630.86414,1387.3893,631.3201Q1386.402,631.6101,1384.0293,633.7979Q1382.8575,634.8091,1382.128,636.34863Q1381.0929,638.4171,1380.7848,640.99243Q1380.6185,643.11884,1380.9395,644.65466Q1381.3197,646.45233,1382.402,647.71045Q1383.925,649.2718,1384.2579,649.51013Q1384.925,650.0513,1385.7394,650.4807Q1388.6819,651.8511,1390.3983,651.7741Q1391.1648,651.7741,1391.8903,651.599Q1393.6677,651.00806,1393.9739,650.67975Q1395.2103,649.9309,1396.6454,647.97516Q1397.8861,646.08215,1398.296,644.79877Q1398.6462,643.64856,1398.71,642.8707Q1398.8844,642.3201,1399.1189,641.2831Q1399.3783,640.1293,1399.6075,638.85Q1400.1199,635.6827,1398.1357,632.70197Q1395.7417,629.8649,1392.9731,629.77264"/>
</g>
<g style="fill:rgb(254,254,254); fill-opacity:1.0; stroke-linejoin: miter">
<path d="M1224.6616,633.99054L1224.096,634.0118Q1222.9753,634.0968,1221.9402,634.5217Q1220.905,634.94666,1219.9554,635.71155Q1219.6602,635.7196,1218.4066,636.36Q1217.9103,636.65125,1217.4348,637.04254Q1217.184,637.17566,1216.0557,638.4418Q1214.8131,639.9216,1214.0719,642.2929Q1213.6388,643.3671,1213.4669,646.29987Q1213.302,648.5186,1214.5693,651.6229Q1215.2604,653.24255,1216.8058,654.6314Q1217.1766,655.52704,1217.702,656.2292Q1218.7406,657.6335,1220.2999,658.26434Q1222.1764,658.8848,1223.3049,658.7731Q1224.9012,658.81116,1227.0809,657.3298Q1227.3231,657.2013,1228.3948,656.2972Q1229.432,655.31665,1229.5919,655.06824Q1229.767,654.97205,1230.4775,654.32495Q1231.0267,653.7879,1231.4661,653.14026Q1232.6957,651.34564,1233.1737,649.53296Q1233.3362,648.9057,1233.4194,648.24585Q1233.5631,646.53595,1233.4803,646.25574Q1233.7915,644.655,1233.8307,643.85895Q1233.868,642.0239,1233.4167,640.5624Q1233.1862,639.8076,1232.8234,639.09814L1232.4276,638.4Q1231.9989,637.7132,1231.438,637.0718Q1230.0955,635.538,1228.8706,635.0087Q1227.1073,634.11,1224.6616,633.99054"/>
</g>
<g style="fill:rgb(254,254,254); fill-opacity:1.0; stroke-linejoin: miter">
<path d="M1268.3673,747.67004L1267.9496,747.6851Q1264.2914,748.138,1262.1509,751.6106Q1260.8531,753.81506,1260.5778,755.5813Q1260.2421,757.2196,1260.4967,759.7288Q1260.6707,761.3901,1261.6494,763.57275Q1261.9321,764.18494,1262.275,764.7217Q1263.1848,765.99774,1263.4388,766.1626Q1263.6178,766.4216,1264.873,767.2644Q1265.3599,767.8729,1265.9768,768.3516Q1266.1132,768.4916,1266.9519,768.9967Q1268.4877,769.8908,1270.458,769.9521Q1274.3788,769.86694,1277.7184,765.7042Q1278.6703,764.3588,1279.1006,762.74994Q1279.3157,761.94543,1279.4004,761.07513L1279.5394,759.0162Q1279.561,758.6205,1279.5286,758.2269Q1279.4308,756.4167,1277.7572,754.234Q1277.2758,753.6359,1277.1554,753.53796L1275.9552,752.46234Q1275.5232,751.8899,1275.1143,751.51044Q1274.5697,751.0113,1274.2034,750.7969Q1273.7959,750.22327,1273.2615,749.7281Q1270.7894,747.63763,1268.3673,747.67004"/>
</g>
<g style="fill:rgb(254,254,254); fill-opacity:1.0; stroke-linejoin: miter">
</g>
<g style="fill:rgb(254,254,254); fill-opacity:1.0; stroke-linejoin: miter">
<path d="M1134.6053,737.9752L1133.8889,738.01666Q1132.4823,738.1824,1131.286,739.01105L1130.701,739.46686Q1130.1292,739.96405,1129.6099,740.627Q1129.0156,741.3946,1128.675,742.05994Q1128.1288,743.06165,1127.7701,744.0863Q1127.4115,745.11096,1127.2402,746.1586Q1126.5507,747.55237,1126.0656,749.247Q1125.505,751.4248,1125.6841,753.72577Q1125.9359,756.37537,1126.9644,758.4522Q1127.4991,759.71924,1129.1201,761.21796L1129.4248,762.0415Q1129.779,762.8246,1130.2854,763.44604Q1132.4146,765.933,1136.5625,765.8292Q1137.6415,765.7437,1138.7086,765.31616Q1140.0398,764.7069,1140.3025,764.4825Q1142.9392,762.61725,1144.0216,760.7748Q1145.0687,758.7907,1145.396,756.17944Q1146.0693,751.76575,1145.7639,749.91003Q1145.5135,746.9448,1144.4342,744.2456Q1143.6978,742.4788,1142.5493,741.33545Q1141.975,740.76373,1141.2977,740.3479L1137.9349,738.691Q1136.5026,738.05524,1134.6053,737.9752"/>
</g>
<g style="fill:rgb(254,254,254); fill-opacity:1.0; stroke-linejoin: miter">
<path d="M1190.7826,862.6923Q1186.2917,862.6923,1184.2195,867.89886L1184.2072,867.9301Q1183.9778,868.5163,1183.8131,869.1416L1183.8131,869.1416Q1183.4341,870.5804,1183.4009,872.2165L1183.4008,872.2165Q1183.3589,873.8906,1183.5277,875.10126L1183.5278,875.10205Q1183.6427,875.925,1183.8665,876.6356L1183.8546,876.6356Q1183.8553,877.86017,1184.0621,879.33765L1184.0621,879.3376C1184.0719,879.4073,1184.083,879.47754,1184.0953,879.5468Q1184.3284,880.8585,1184.7157,881.92773L1184.7157,881.92773Q1185.3612,883.7104,1186.4819,884.9521L1186.4819,884.9521C1186.5466,885.02374,1186.6132,885.09393,1186.6814,885.16223Q1188.6537,887.1377,1191.7906,887.55426L1191.7905,887.55426Q1191.9586,887.5766,1192.1302,887.59436L1192.1322,887.59454C1192.3287,887.61487,1192.5261,887.62494,1192.7236,887.62494C1192.7375,887.62494,1192.7515,887.62494,1192.7654,887.6248Q1195.9988,887.6011,1198.4948,885.52356L1198.4828,885.52356Q1200.1926,884.23035,1201.0613,881.8471L1201.0614,881.84656Q1201.3579,881.03265,1201.5834,880.02606L1201.5834,880.02625C1201.6023,879.94183,1201.6193,879.8568,1201.6344,879.7716Q1202.0142,877.6267,1201.9846,876.11646L1201.9846,876.11646Q1201.9744,875.5927,1201.917,875.1115L1201.906,875.02515Q1201.4507,871.64526,1200.6302,869.66095L1200.6302,869.66095Q1200.5723,869.5207,1200.5116,869.3845L1200.51,869.3845Q1200.2731,868.8298,1199.9874,868.3124L1199.9874,868.3124Q1198.1971,865.0693,1194.8031,863.5859L1194.8031,863.5859Q1194.1841,863.3153,1193.5221,863.1125L1193.5219,863.1124C1193.4579,863.09283,1193.3933,863.0742,1193.3286,863.0569Q1191.971,862.6923,1190.7826,862.6923 Z"/>
</g>
<g style="fill:rgb(254,254,254); fill-opacity:1.0; stroke-linejoin: miter">
<path d="M1323.4966,815.4464L1323.3912,815.44696Q1319.9552,815.623,1319.1621,816.0403Q1318.6715,816.2085,1318.1727,816.4423L1315.4977,817.7298L1314.6416,818.26685Q1313.0128,819.4159,1312.0507,821.1643L1311.6113,822.076Q1311.2136,823.02515,1310.9825,824.1241Q1310.4032,827.28955,1310.7228,829.67456Q1310.8466,830.5689,1311.0947,831.34644L1312.2566,834.29846Q1314.2374,837.93414,1317.6678,837.9559Q1318.588,838.0303,1320.5271,837.39514Q1321.7333,836.9755,1323.1936,836.05414Q1325.538,835.6925,1327.1677,834.535Q1328.0405,833.93195,1328.6632,833.32837Q1329.7867,832.29846,1330.2847,831.56335Q1331.0968,830.6032,1331.8309,828.10077Q1333.0454,823.48706,1331.0365,820.149Q1330.5325,819.3357,1329.8252,818.6232L1327.7534,816.7488L1327.2661,816.40326Q1325.7437,815.4464,1323.4966,815.4464"/>
</g>
<g style="fill:rgb(254,254,254); fill-opacity:1.0; stroke-linejoin: miter">
<path d="M1368.5459,732.0096L1368.5841,732.1162L1368.6201,732.2238Q1368.6549,732.332,1368.6854,732.44214Q1368.7158,732.55237,1368.7418,732.6646Q1368.7678,732.7769,1368.7894,732.89124L1368.8099,733.0061L1368.7981,733.00616L1368.7821,732.92303Q1368.7654,732.84015,1368.7463,732.758Q1368.7081,732.59375,1368.6606,732.43274Q1368.637,732.35223,1368.611,732.27264L1368.5844,732.19324Q1368.5573,732.11414,1368.5278,732.0359L1368.5142,732.03595L1368.5322,732.0096L1368.5459,732.0096 M1364.5988,716.68494L1364.152,716.6984Q1359.8351,716.9963,1356.7181,721.1409Q1355.7874,722.4739,1355.238,724.61957Q1354.8805,726.2692,1354.884,727.86414Q1354.4843,729.13684,1354.3297,730.40674Q1354.0876,732.2964,1354.3375,734.241Q1354.6399,736.5009,1355.6156,738.0196Q1356.5912,739.53827,1358.2401,740.31573Q1359.5192,740.8685,1360.1503,741.02344Q1360.5469,741.1506,1361.4735,741.18646Q1363.064,741.18646,1364.6589,740.2457Q1366.369,739.1676,1367.6238,737.698Q1369.0985,736.0215,1371.0853,733.66315Q1371.6691,732.9345,1372.1394,732.125Q1373.418,729.84106,1373.663,727.54236Q1373.9093,725.2952,1373.1278,723.2394Q1372.737,722.2115,1372.0894,721.2314L1371.2375,720.09406Q1368.2415,716.73474,1364.5988,716.68494"/>
</g>
<g style="fill:rgb(254,254,254); fill-opacity:1.0; stroke-linejoin: miter">
</g>
<g style="fill:rgb(254,254,254); fill-opacity:1.0; stroke-linejoin: miter">
</g>
<g style="fill:rgb(254,254,254); fill-opacity:1.0; stroke-linejoin: miter">
</g>
<g style="fill:rgb(254,254,254); fill-opacity:1.0; stroke-linejoin: miter">
<path d="M1147.2024,768.6766C1147.113,768.6766,1147.0225,768.6853,1146.9315,768.7035Q1144.6914,769.1511,1143.5135,769.74445C1142.8354,770.086,1142.5627,770.9126,1142.9043,771.59064C1143.1459,772.0703,1143.6302,772.34717,1144.1329,772.34717C1144.341,772.34717,1144.552,772.2998,1144.7504,772.1999Q1145.5955,771.7742,1147.4703,771.39954C1148.2148,771.25073,1148.6978,770.5266,1148.549,769.7821C1148.4183,769.12854,1147.8444,768.6766,1147.2024,768.6766 Z"/>
</g>
<g style="fill:rgb(254,254,254); fill-opacity:1.0; stroke-linejoin: miter">
<path d="M1174.7312,834.842Q1174.3912,835.51843,1173.7365,835.51843Q1173.65,835.51843,1173.5582,835.50665L1173.5427,835.50665C1174.0283,835.50665,1174.473,835.25055,1174.7195,834.842 Z M1147.0464,766.8352C1146.8488,766.8352,1146.648,766.87805,1146.4575,766.9685C1145.7717,767.29425,1145.4799,768.11426,1145.8057,768.80005Q1151.0693,779.8812,1153.0566,787.3631C1153.0892,787.4859,1153.1387,787.6036,1153.2036,787.71277Q1155.3065,791.2495,1155.608,792.32184L1155.6178,792.3549Q1158.7781,802.599,1159.8925,804.5164L1159.892,804.5164L1163.9478,811.8893L1163.9362,811.8893Q1166.7589,819.26276,1168.5616,822.4408L1168.6003,822.50494Q1169.4365,823.80817,1172.2119,834.478C1172.2908,834.7812,1172.4675,835.03937,1172.7037,835.2212L1172.692,835.2212Q1173.4452,836.6904,1176.3485,844.6896L1176.3438,844.6896Q1177.1582,847.56104,1182.4877,855.44257L1182.4758,855.44257Q1182.5878,855.67334,1182.6882,855.88196L1182.6764,855.88196C1182.6178,856.1951,1182.6671,856.53,1182.8402,856.8269Q1183.4608,857.8911,1183.6971,858.20294Q1184.1934,858.8577,1184.8142,858.8577Q1185.1288,858.8577,1185.4755,858.68964L1185.4792,858.6878Q1186.5743,858.1525,1186.162,856.9069L1186.1619,856.9067Q1185.9849,856.37213,1184.8757,854.0908C1184.8472,854.03217,1184.8146,853.9757,1184.7781,853.9217Q1179.5844,846.24255,1178.9716,843.87604C1178.9607,843.8341,1178.9478,843.7923,1178.933,843.7516Q1175.6276,834.6443,1174.8569,833.47723L1174.8567,833.4769Q1174.816,833.41547,1174.7733,833.359L1174.7615,833.359Q1172.0184,822.85895,1170.9541,821.08435L1170.953,821.08435Q1169.234,818.0538,1166.4438,810.7497C1166.4213,810.6906,1166.3947,810.63306,1166.3641,810.57764L1162.2854,803.163L1162.2694,803.1348Q1161.3143,801.49164,1158.2552,791.5776L1158.2548,791.5776Q1157.8654,790.193,1155.6854,786.50745L1155.6738,786.50745Q1153.6096,778.8211,1148.2891,767.62036C1148.0537,767.125,1147.5605,766.8352,1147.0464,766.8352 Z"/>
</g>
<g style="fill:rgb(254,254,254); fill-opacity:1.0; stroke-linejoin: miter">
<path d="M1205.5112,664.02704C1205.0758,664.02704,1204.6476,664.23334,1204.3806,664.6181Q1197.6544,674.3107,1189.6816,682.1079C1189.6228,682.1654,1189.5693,682.228,1189.5217,682.2951L1183.5321,690.73505L1172.382,702.6318C1172.3063,702.7126,1172.2406,702.8022,1172.1864,702.89874Q1168.2712,709.8706,1167.2023,711.0132L1167.1906,711.0132Q1162.3214,714.49536,1161.5352,715.5655L1161.5352,715.5655Q1161.3942,715.75726,1161.3064,715.9517L1161.2948,715.9517Q1157.6643,720.90515,1155.4437,727.4158L1155.4321,727.4158C1154.7717,727.51605,1154.2657,728.08624,1154.2656,728.77466C1154.2655,729.5339,1154.881,730.1494,1155.6403,730.1495Q1155.7335,730.1495,1155.8252,730.1435L1155.8258,730.14343Q1157.0883,730.06036,1157.7557,728.9858L1157.7561,728.9852Q1157.8092,728.8996,1157.857,728.8087C1157.8917,728.7429,1157.9209,728.67444,1157.9445,728.60394Q1160.0868,722.1873,1163.6412,717.40234C1163.6957,717.32904,1163.7426,717.25073,1163.7811,717.16864L1163.7695,717.16864Q1164.3643,716.4081,1168.9277,713.1511C1168.9905,713.1064,1169.0493,713.05634,1169.1036,713.0017Q1170.3795,711.71924,1174.4841,704.42194L1174.4724,704.42194L1185.602,692.547C1185.6447,692.5016,1185.6841,692.4533,1185.7201,692.4025L1191.6655,684.02496L1191.6536,684.02496Q1199.7849,676.063,1206.6394,666.1856C1207.0723,665.5619,1206.9175,664.7053,1206.2937,664.27246C1206.0547,664.1066,1205.7816,664.02704,1205.5112,664.02704 Z"/>
</g>
<g style="fill:rgb(254,254,254); fill-opacity:1.0; stroke-linejoin: miter">
<path d="M1248.7816,782.9469C1248.22,782.9469,1247.6926,783.2939,1247.4896,783.8525Q1247.3303,784.2908,1246.893,784.90796L1246.8917,784.90796L1241.0004,792.5623L1240.9437,792.64154Q1238.9286,795.6831,1238.2831,796.9437L1238.2736,796.9628L1235.1707,803.2616C1235.1514,803.3008,1235.1339,803.3408,1235.1184,803.38165L1230.8055,814.75543L1222.1792,829.26953L1222.1338,829.3523L1218.5958,836.3596C1218.5638,836.42285,1218.537,836.4884,1218.5151,836.55585Q1217.6443,839.2462,1214.3654,847.2504L1214.3427,847.3121L1214.3304,847.3121Q1214.2334,847.4037,1213.9731,847.5274L1213.9731,847.52734C1213.2875,847.8533,1212.9958,848.6734,1213.3218,849.3591C1213.5571,849.8542,1214.0503,850.1439,1214.5643,850.1439C1214.7621,850.1439,1214.963,850.101,1215.1536,850.01044Q1216.0623,849.5784,1216.5435,848.9511Q1216.7804,848.6421,1216.9111,848.29266L1216.9095,848.29266Q1220.1282,840.4358,1221.0745,837.5748L1221.0623,837.5748L1224.5668,830.63367L1233.2302,816.0571C1233.271,815.98865,1233.3057,815.91675,1233.3339,815.8422L1237.6661,804.4173L1240.7399,798.1778L1240.7401,798.1778Q1241.3146,797.06323,1243.1832,794.2392L1243.1791,794.2392L1249.1039,786.5413L1249.1361,786.4978Q1249.7876,785.57874,1250.0736,784.7913C1250.3329,784.07776,1249.9645,783.2892,1249.251,783.0299C1249.0961,782.9736,1248.9375,782.9469,1248.7816,782.9469 Z"/>
</g>
<g style="fill:rgb(254,254,254); fill-opacity:1.0; stroke-linejoin: miter">
<path d="M1238.9602,677.6834C1238.7793,677.6834,1238.5955,677.71936,1238.4187,677.7952C1237.7211,678.09467,1237.3983,678.90295,1237.6978,679.60065Q1240.4103,685.9205,1243.0723,693.56226L1243.0712,693.56226Q1247.6635,708.75037,1248.8148,713.9257C1248.834,714.01184,1248.8615,714.09607,1248.8967,714.17694L1254.6094,727.26996C1254.6652,727.3979,1254.7402,727.51666,1254.8318,727.622Q1255.938,728.8947,1258.8209,734.8117L1258.8083,734.8117C1258.3054,735.11725,1258.0378,735.7254,1258.1904,736.3254Q1259.1073,739.93115,1260.9058,740.71265L1260.9058,740.71265Q1261.0454,740.77325,1261.1897,740.8176L1261.19,740.81775C1261.3225,740.85846,1261.4584,740.8783,1261.5931,740.8783C1261.938,740.8783,1262.276,740.74835,1262.5345,740.50543C1262.8942,740.16754,1263.0452,739.66284,1262.93,739.183L1261.9232,734.9841C1261.9005,734.88934,1261.8678,734.7972,1261.8256,734.70935Q1258.5533,727.89813,1257.0797,726.02783L1257.0671,726.02783L1251.4952,713.2574L1251.4828,713.2574Q1250.2921,707.943,1245.6863,692.71216L1245.6687,692.65784Q1242.976,684.92755,1240.2241,678.5163C1240.0006,677.99536,1239.4933,677.6834,1238.9602,677.6834 Z"/>
</g>
<g style="fill:rgb(254,254,254); fill-opacity:1.0; stroke-linejoin: miter">
<path d="M1317.5239,584.4272C1317.2512,584.4272,1316.9758,584.5081,1316.7356,584.67664L1310.8453,588.8087L1299.036,594.5866L1299.025,594.5866Q1299.0055,594.5951,1298.9857,594.6041L1298.9852,594.6044Q1298.1797,594.97235,1294.1875,597.7489L1294.1746,597.7489L1289.6526,599.9079L1289.5752,599.94794Q1281.4302,604.49164,1277.2115,608.1353L1277.1987,608.1353L1262.7051,616.7457L1262.7046,616.7457Q1258.496,619.1372,1253.7316,620.668C1253.0088,620.90027,1252.611,621.6745,1252.8433,622.39734C1253.0306,622.9804,1253.5707,623.35187,1254.1519,623.35187C1254.2911,623.35187,1254.4329,623.3305,1254.5726,623.2856Q1259.621,621.66345,1264.087,619.1224L1264.1094,619.1094L1278.7491,610.4122C1278.8197,610.37024,1278.8864,610.32214,1278.9484,610.2683Q1282.9366,606.80505,1290.8428,602.389L1290.8372,602.389L1295.5011,600.1622C1295.5684,600.13007,1295.6328,600.0925,1295.6858,600.05566L1295.6924,600.05115L1295.7006,600.04553Q1299.3997,597.4717,1300.0797,597.12823L1300.0668,597.12823C1300.1274,597.1084,1300.1869,597.08435,1300.2443,597.0562L1312.1504,591.23096C1312.215,591.1994,1312.2769,591.1628,1312.3357,591.1215L1318.3145,586.92737C1318.936,586.49133,1319.0864,585.63403,1318.6504,585.0125C1318.3828,584.63116,1317.9568,584.4272,1317.5239,584.4272 Z"/>
</g>
<g style="fill:rgb(254,254,254); fill-opacity:1.0; stroke-linejoin: miter">
<path d="M1385.8075,542.53674C1385.4915,542.53674,1385.1738,542.6451,1384.9148,542.8666Q1383.6887,543.9149,1383.3057,544.4546L1383.3052,544.4552Q1383.2225,544.5717,1383.1606,544.68524L1383.1484,544.7081Q1382.506,545.94073,1381.3582,547.5425L1381.3582,547.5425L1381.3568,547.5443C1381.312,547.6068,1381.2725,547.673,1381.2388,547.7421L1381.2333,547.7421Q1380.9447,548.1698,1379.4082,549.9386C1379.3701,549.9824,1379.335,550.02856,1379.3027,550.07684L1374.115,557.8483L1367.0406,567.8207C1366.6013,568.4399,1366.7472,569.29803,1367.3665,569.7373C1367.6079,569.90857,1367.8856,569.9909,1368.1606,569.9909C1368.5911,569.9909,1369.015,569.7893,1369.2831,569.4115L1376.368,559.42426L1376.3901,559.3921L1381.4971,551.7416L1381.4839,551.7416Q1383.2445,549.71466,1383.6003,549.1439L1383.593,549.1439Q1384.8237,547.4265,1385.5513,546.0459L1385.5476,546.0459Q1385.7339,545.78345,1386.7014,544.9562C1387.2784,544.4628,1387.3463,543.5951,1386.8529,543.01807C1386.5809,542.7001,1386.1954,542.53674,1385.8075,542.53674 Z"/>
</g>
<g style="fill:rgb(254,254,254); fill-opacity:1.0; stroke-linejoin: miter">
<path d="M1362.3323,590.7183C1361.8413,590.7183,1361.3662,590.98206,1361.1187,591.4454C1360.7609,592.115,1361.0137,592.94794,1361.6832,593.3057Q1362.7095,593.8541,1363.3837,594.781L1363.4282,594.83905Q1369.72,602.58636,1370.3701,603.82825C1370.4224,603.92804,1370.4868,604.0211,1370.5618,604.1052Q1371.7704,605.46155,1374.9082,617.67285C1374.9303,617.75885,1374.9607,617.84247,1374.999,617.9229Q1375.0817,618.09607,1375.1814,618.25024L1375.1815,618.25024Q1375.8636,619.3053,1377.1182,619.3736L1377.1183,619.3736Q1377.1926,619.3776,1377.2684,619.3776Q1378.0731,619.3776,1379.0327,618.9219C1379.7185,618.5961,1380.0104,617.7761,1379.6846,617.09033C1379.4492,616.595,1378.956,616.3052,1378.4419,616.3052C1378.2443,616.3052,1378.0435,616.348,1377.853,616.4385Q1377.6233,616.5476,1377.4694,616.5941L1377.4694,616.5941Q1374.4115,604.75946,1372.7899,602.49774L1372.7762,602.49774Q1371.9154,600.93036,1365.6096,593.1638L1365.607,593.1638Q1364.5618,591.72656,1362.9789,590.8808C1362.7726,590.77057,1362.5509,590.7183,1362.3323,590.7183 Z"/>
</g>
<g style="fill:rgb(254,254,254); fill-opacity:1.0; stroke-linejoin: miter">
<path d="M1435.5408,569.8746Q1435.6177,569.8746,1435.6978,569.8837L1435.6978,569.8837C1435.6702,569.8821,1435.6426,569.8812,1435.615,569.8812C1435.3102,569.8812,1435.0087,569.9825,1434.7628,570.17664L1434.7628,570.17664Q1435.099,569.8746,1435.5408,569.8746 Z M1436.3301,570.0736Q1437.1781,570.4802,1436.9884,571.4264L1436.9786,571.4264C1437.0457,570.8912,1436.7917,570.3559,1436.3157,570.0736 Z M1437.5204,567.2413C1437.0854,567.2413,1436.6576,567.4472,1436.3905,567.83136Q1434.8992,569.97626,1434.6323,570.3089L1434.618,570.3089C1434.6095,570.3178,1434.6012,570.32684,1434.5929,570.336L1426.9547,578.8172L1426.9349,578.83954Q1426.2257,579.66223,1425.5972,580.5666L1425.534,580.6662L1416.585,596.23846L1416.5708,596.23846Q1409.4637,603.7219,1406.3643,610.01434C1406.0288,610.69543,1406.309,611.51953,1406.99,611.855C1407.1853,611.9512,1407.3923,611.99677,1407.5963,611.99677C1408.1035,611.99677,1408.5913,611.71497,1408.8306,611.2292Q1411.7765,605.24835,1418.7109,597.9778C1418.787,597.8981,1418.8531,597.80945,1418.9081,597.7139L1427.9178,582.0361L1427.9244,582.0361Q1428.4314,581.3168,1428.9983,580.65704L1428.9977,580.65704L1436.4679,572.36237L1436.4535,572.36237Q1436.5917,572.25165,1436.7198,572.0988L1436.72,572.09863Q1437.026,571.73346,1438.6478,569.4008C1439.0812,568.77747,1438.9272,567.92084,1438.304,567.4874C1438.0648,567.3211,1437.7913,567.2413,1437.5204,567.2413 Z"/>
</g>
<g style="fill:rgb(254,254,254); fill-opacity:1.0; stroke-linejoin: miter">
<path d="M1324.5308,685.176Q1323.7886,685.176,1323.0671,685.49316L1323.0804,685.49316Q1327.643,687.66156,1332.4227,693.24493Q1333.5688,694.8029,1334.4763,696.5558L1337.1637,702.1707Q1338.8998,703.687,1338.9854,703.87585Q1342.4772,707.88574,1342.292,708.1003L1343.1241,710.8481L1343.1376,710.8481Q1343.264,711.1923,1343.2983,711.46796L1343.3118,711.46796L1343.6146,712.468L1343.628,712.468C1343.8809,712.77136,1344.2614,712.9634,1344.6842,712.9634C1344.6968,712.9634,1344.7095,712.96326,1344.7222,712.9629C1345.4811,712.9423,1346.0796,712.31036,1346.059,711.55145Q1346.0055,709.58154,1343.727,706.48676C1343.6996,706.4494,1343.6704,706.4139,1343.6393,706.37946Q1340.488,702.8968,1337.3048,698.33093C1337.2682,698.27844,1337.2279,698.2285,1337.1843,698.1816L1334.01,694.764L1333.9967,694.764Q1331.9805,691.3544,1328.5436,687.33734L1328.4828,687.2709Q1326.4382,685.176,1324.5308,685.176 Z"/>
</g>
<g style="fill:rgb(254,254,254); fill-opacity:1.0; stroke-linejoin: miter">
<path d="M1293.1525,779.424L1293.2065,779.4739Q1293.3729,779.6191,1293.5747,779.7051L1293.6422,779.7317Q1293.7107,779.75653,1293.7812,779.7742Q1293.852,779.79175,1293.9244,779.80176L1293.8193,779.7875L1293.7189,779.76624L1293.6227,779.7381L1293.5309,779.70306L1293.4436,779.66113L1293.361,779.61224L1293.2827,779.55634L1293.2089,779.49365L1293.1395,779.424L1293.1525,779.425"/>
</g>
<g style="fill:rgb(254,254,254); fill-opacity:1.0; stroke-linejoin: miter">
<path d="M1288.371,769.13715L1288.2776,769.1404Q1287.4371,769.26666,1287.1434,769.89105Q1286.8674,770.3139,1287.1227,771.0896Q1289.7854,773.90356,1290.5186,775.1229Q1291.6583,776.75793,1293.0305,779.2881Q1294.4418,782.29456,1299.315,793.1701L1301.8778,800.65094L1302.2216,801.51556Q1303.5117,804.6832,1304.7507,806.74194L1305.8618,810.78564Q1306.3358,811.7026,1307.1892,811.6614Q1308.2528,811.596,1308.5112,810.42255L1307.9425,806.31384Q1307.7511,805.7292,1307.1893,805.4755L1306.8401,804.8685Q1305.9841,803.3622,1305.0844,801.24066L1304.4781,799.759L1301.8237,792.04565Q1296.3475,779.8475,1295.8391,778.8231Q1295.7609,778.468,1294.0413,775.51385Q1290.1727,769.47546,1288.371,769.13715 Z M1295.4764,778.6974L1295.4764,778.6983L1295.4421,778.909L1295.3842,779.09753L1295.3025,779.26404L1295.1975,779.40845L1295.069,779.53076L1294.9167,779.6309L1294.7411,779.70905L1294.5417,779.765L1294.3188,779.79895Q1294.3676,779.7929,1294.4639,779.76874L1294.5912,779.7285L1294.7119,779.6769L1294.8263,779.6148L1294.933,779.5428L1295.0323,779.4618L1295.1229,779.3722L1295.2048,779.2749L1295.2773,779.17065L1295.3401,779.06006L1295.3922,778.9438L1295.4335,778.8227L1295.4636,778.6974L1295.4764,778.69836"/>
</g>
<g style="fill:rgb(254,254,254); fill-opacity:1.0; stroke-linejoin: miter">
</g>
<g style="fill:rgb(254,254,254); fill-opacity:1.0; stroke-linejoin: miter">
<path d="M1336.5522,598.08356C1335.9867,598.08356,1335.4567,598.43536,1335.2567,598.9989Q1331.7083,608.99805,1330.925,611.98254L1330.925,611.98254Q1326.7946,627.1879,1326.3159,630.1832L1326.3093,630.1832Q1325.9832,631.4275,1325.6046,632.5164L1325.6046,632.5164L1322.7842,640.4028L1322.7802,640.4028Q1320.0753,646.5001,1319.3223,648.9163L1319.3091,648.9163Q1317.2703,652.38763,1316.9934,653.28296L1316.9934,653.28296Q1316.975,653.3426,1316.9608,653.39764C1316.7717,654.133,1317.2146,654.8823,1317.95,655.07135C1318.0648,655.1009,1318.1799,655.115,1318.2932,655.115C1318.9014,655.115,1319.4563,654.70844,1319.6202,654.0951L1319.6201,654.0951Q1319.8096,653.4823,1321.7876,650.12524C1321.843,650.0313,1321.8871,649.931,1321.9187,649.82666Q1322.5984,647.58777,1325.3329,641.4286L1325.34,641.4123L1325.3422,641.40717L1325.373,641.32855L1328.1975,633.4308L1328.2015,633.4194Q1328.6365,632.16846,1329.0044,630.7439C1329.0153,630.7019,1329.0239,630.65985,1329.0308,630.61707Q1329.4861,627.7673,1333.5814,612.69183L1333.5845,612.6804Q1334.3386,609.807,1337.8478,599.91833C1338.1017,599.2028,1337.7274,598.417,1337.012,598.1631C1336.86,598.10913,1336.7048,598.08356,1336.5522,598.08356 Z"/>
</g>
<g style="fill:rgb(254,254,254); fill-opacity:1.0; stroke-linejoin: miter">
<path d="M1289.2928,852.918C1289.2043,852.918,1289.1146,852.92664,1289.0245,852.94446Q1286.8044,853.38367,1285.6948,854.1011L1285.682,854.1011Q1282.4211,855.74805,1278.303,858.7265L1278.2903,858.7265Q1271.9319,861.1477,1269.0673,862.51587L1269.0652,862.51587Q1267.5667,863.17395,1264.1412,865.4302L1264.1287,865.4302Q1255.8994,869.2004,1251.9867,870.6438C1251.9113,870.67163,1251.8385,870.706,1251.7692,870.7465Q1248.1215,872.8771,1243.7994,874.93054L1243.7073,874.9787Q1237.3917,878.5884,1236.5992,879.24005L1236.5992,879.24005Q1236.4268,879.3819,1236.31,879.53156L1236.2976,879.53156Q1232.966,882.9003,1227.7428,886.356L1227.7411,886.356Q1226.7015,886.99097,1225.959,887.3984L1225.959,887.3984C1225.7223,887.2267,1225.4379,887.13635,1225.1499,887.13635C1224.8887,887.13635,1224.6245,887.21075,1224.3906,887.36615Q1223.9623,887.6507,1223.7097,887.8985L1223.7094,887.8988Q1222.6873,888.9023,1223.388,889.95685L1223.3881,889.95685Q1223.8032,890.5818,1224.6793,890.6727L1224.6798,890.6728Q1224.8411,890.68945,1225.0319,890.68945Q1225.1128,890.68945,1225.199,890.68646C1225.3469,890.68134,1225.4929,890.6523,1225.6316,890.6006Q1226.7577,890.1805,1229.2186,888.67523L1229.2599,888.649Q1234.7976,884.9851,1238.3523,881.3636L1238.3456,881.3636Q1238.9541,880.8631,1244.9873,877.4138L1244.9794,877.4138Q1249.3326,875.3454,1253.0297,873.19415L1253.0171,873.19415Q1257.0631,871.6943,1265.4116,867.8665C1265.4755,867.8373,1265.5369,867.80316,1265.5955,867.7645Q1268.9235,865.5697,1270.2031,865.0191L1270.2523,864.9968Q1273.0604,863.6556,1279.4647,861.22125C1279.5784,861.1781,1279.6855,861.1201,1279.7839,861.0487Q1283.8811,858.074,1287.0385,856.4964C1287.0869,856.4722,1287.1338,856.44525,1287.179,856.4155Q1287.8395,855.98157,1289.5582,855.6415C1290.303,855.4941,1290.7872,854.7709,1290.6399,854.0261C1290.5104,853.37146,1289.9358,852.918,1289.2928,852.918 Z"/>
</g>
<g style="fill:rgb(254,254,254); fill-opacity:1.0; stroke-linejoin: miter">
<path d="M1277.9348,685.9696C1277.6952,685.9696,1277.4524,686.0323,1277.2317,686.164L1261.5087,695.5472L1250.8698,699.41064C1250.8054,699.434,1250.743,699.4621,1250.6829,699.49475L1232.5232,709.35864L1220.7777,713.8364C1220.7211,713.85803,1220.6664,713.8832,1220.6132,713.912Q1205.4213,722.13464,1197.3027,729.76495L1197.2908,729.76495Q1190.3329,732.90497,1184.7687,736.91345L1184.7568,736.91345Q1165.532,743.87354,1162.5073,746.8168C1161.9633,747.34625,1161.9514,748.21655,1162.4808,748.7607C1162.7502,749.0376,1163.108,749.1767,1163.4662,749.1767C1163.8118,749.1767,1164.1576,749.04724,1164.4248,748.78723Q1167.0408,746.24176,1185.8969,739.4248C1186.0178,739.38104,1186.1321,739.32056,1186.2362,739.24506Q1191.7185,735.2712,1198.6503,732.1682C1198.7917,732.10486,1198.9215,732.0181,1199.034,731.9115Q1206.8707,724.48785,1221.8127,716.38885L1221.8005,716.38885L1233.5885,711.8949C1233.6456,711.8731,1233.7012,711.8476,1233.7549,711.8184L1251.9049,701.9598L1262.5702,698.08673C1262.652,698.057,1262.7307,698.01965,1262.8054,697.9751L1273.4552,691.6195L1273.4679,691.6195Q1273.7957,691.2256,1274.1414,690.8681Q1276.3124,688.76355,1279.1515,687.9626L1279.1642,687.9626C1279.3679,687.5568,1279.3665,687.0588,1279.1166,686.64C1278.8593,686.2088,1278.403,685.9696,1277.9348,685.9696 Z"/>
</g>
<g style="fill:rgb(254,254,254); fill-opacity:1.0; stroke-linejoin: miter">
<path d="M1210.1132,556.0396C1209.9568,556.0396,1209.7977,556.0665,1209.6422,556.1232Q1208.9817,556.3642,1208.5967,557.0756L1208.5967,557.0756Q1207.9056,558.3523,1207.8757,562.5026L1207.8757,562.50494Q1207.8698,563.59894,1208.0074,564.9998L1208.0084,565.0096L1208.8192,572.69226L1208.8192,572.69226Q1209.0669,575.0956,1210.762,583.425L1210.76,583.425L1211.5574,588.78345L1211.5798,588.8995Q1213.1129,595.3394,1213.18,596.03687L1213.1799,596.03687C1213.1843,596.09534,1213.1925,596.1538,1213.2042,596.2112Q1213.5452,597.8743,1214.3473,605.41583L1214.3479,605.42224L1214.3481,605.42444L1214.3545,605.47296Q1214.8378,608.75354,1216.0923,614.76447L1216.0913,614.76447Q1216.3455,616.2655,1216.5708,618.5807C1216.6399,619.291,1217.238,619.8223,1217.9373,619.8223C1217.9818,619.8223,1218.0267,619.8201,1218.072,619.81573C1218.8276,619.7422,1219.3806,619.07007,1219.3071,618.31445Q1219.0684,615.8604,1218.793,614.25165L1218.7837,614.2027Q1217.5549,608.31525,1217.0817,605.12085L1217.0808,605.12085L1217.0806,605.11865L1217.0804,605.11865Q1216.2894,597.6833,1215.9203,595.7732L1215.9166,595.7732Q1215.8319,594.8945,1214.282,588.3788L1214.2769,588.3788L1213.4688,582.94855L1213.456,582.8768Q1211.7865,574.67285,1211.5537,572.4075L1211.5533,572.4037L1210.7426,564.721L1210.7426,564.721Q1210.6199,563.46985,1210.625,562.5224L1210.625,562.5224Q1210.6481,559.33124,1210.9591,558.5081L1210.947,558.5081C1211.4132,558.1529,1211.6161,557.5232,1211.4047,556.9436C1211.2013,556.3858,1210.6743,556.0396,1210.1132,556.0396 Z"/>
</g>
<g style="fill:rgb(254,254,254); fill-opacity:1.0; stroke-linejoin: miter">
<path d="M1439.9066,685.69086Q1439.6885,685.69086,1439.4496,685.72833Q1438.9272,685.81024,1438.3232,686.11584L1438.2898,686.13336L1428.8701,691.2293L1428.8694,691.2293Q1427.305,692.0338,1422.2305,695.6124L1422.2162,695.6124Q1413.418,700.53613,1412.62,701.1176L1412.6193,701.11816Q1412.556,701.1643,1412.4991,701.2131L1412.4851,701.2131Q1410.2828,702.5925,1405.7572,706.06085L1405.7543,706.06085Q1404.9271,706.6302,1404.2207,706.9834C1403.5416,707.32294,1403.2665,708.1486,1403.606,708.8277C1403.8468,709.3094,1404.3323,709.58795,1404.8365,709.58795C1405.0431,709.58795,1405.2528,709.5412,1405.4502,709.4425Q1406.3566,708.9893,1407.377,708.2815L1407.4296,708.2431Q1412.0094,704.7332,1414.0845,703.45624C1414.1414,703.4212,1414.1954,703.38226,1414.2463,703.33966L1414.2391,703.33966Q1414.9103,702.85065,1423.69,697.9383C1423.7316,697.915,1423.772,697.8895,1423.8109,697.86206Q1428.7802,694.3577,1430.1464,693.6642L1430.1782,693.6475L1439.3295,688.6968L1439.3439,688.6968C1439.5646,689.16547,1440.0413,689.48627,1440.5873,689.48627C1440.6051,689.48627,1440.623,689.4859,1440.6411,689.4852C1441.3998,689.456,1441.991,688.8173,1441.9618,688.05865Q1441.9451,687.62415,1441.8448,687.26666L1441.8446,687.2657Q1441.7771,687.0256,1441.6715,686.81683L1441.6715,686.8169Q1441.1019,685.69086,1439.9066,685.69086 Z"/>
</g>
<g style="fill:rgb(254,254,254); fill-opacity:1.0; stroke-linejoin: miter">
<path d="M1381.6667,666.7889C1381.5917,666.7889,1381.5155,666.79504,1381.439,666.8078C1380.6901,666.9327,1380.1843,667.64105,1380.3092,668.3899Q1380.4121,669.0071,1380.3322,669.62366L1380.331,669.6328Q1379.4194,677.048,1379.1105,678.2858L1379.0941,678.36017Q1378.6339,680.76294,1378.2191,682.53357L1378.2192,682.53357L1374.4126,698.747L1374.4053,698.78015L1373.6617,702.3397C1373.6532,702.3808,1373.6464,702.4223,1373.6416,702.464Q1373.3633,704.888,1373.2808,705.24316L1373.2803,705.24316C1373.0852,705.958,1373.4933,706.7028,1374.2069,706.9197C1374.3402,706.96014,1374.4747,706.97943,1374.6072,706.97943C1375.1967,706.97943,1375.7417,706.59735,1375.922,706.00415Q1375.9413,705.9406,1375.9587,705.8651L1375.9587,705.8651Q1376.074,705.3685,1376.3588,702.90186L1376.3529,702.90186L1377.0928,699.3599L1380.8959,683.1613L1380.8961,683.16064Q1381.3162,681.36725,1381.78,678.9517L1381.778,678.9517Q1382.1274,677.55164,1383.0587,669.9774L1383.0587,669.9774Q1383.1912,668.9569,1383.0211,667.9376C1382.909,667.2653,1382.3265,666.7889,1381.6667,666.7889 Z"/>
</g>
<g style="fill:rgb(254,254,254); fill-opacity:1.0; stroke-linejoin: miter">
<path d="M1180.0308,904.14026Q1179.5537,904.14026,1179.0625,904.5859L1179.061,904.5872Q1178.9753,904.66516,1178.7659,904.87177L1178.7659,904.87177C1178.6581,904.9781,1178.5715,905.09784,1178.5063,905.22577L1178.4945,905.22577Q1177.7178,906.1194,1177.349,906.72565L1177.349,906.72565L1172.7284,914.262L1172.7009,914.30884L1172.6992,914.3119L1172.6825,914.34283Q1171.808,916.0027,1171.1207,917.58795L1171.0848,917.6795Q1168.8754,923.97485,1168.2902,924.7594L1168.2897,924.7594C1168.2537,924.80286,1168.2203,924.84845,1168.19,924.89606L1161.8503,934.8122C1161.8082,934.87805,1161.7719,934.9473,1161.7416,935.01935L1160.4004,938.2057L1160.2931,938.73694L1160.3772,938.2958L1160.3656,938.2958Q1160.2849,938.52203,1160.2522,938.7868L1160.2521,938.7874Q1160.1436,939.66876,1160.5984,941.47815C1160.7551,942.102,1161.3153,942.5181,1161.9307,942.5181C1162.0415,942.5181,1162.1543,942.5046,1162.2667,942.4763C1163.003,942.29126,1163.45,941.5443,1163.2649,940.808Q1162.9662,939.6195,1162.9756,939.2021L1162.9639,939.2021L1164.2299,936.1944L1170.489,926.40405L1170.4933,926.40405L1170.4938,926.4033L1170.4895,926.4033L1170.5063,926.377L1170.5131,926.377Q1171.3516,925.2133,1173.647,918.6816L1173.6432,918.6816Q1174.2828,917.20624,1175.0986,915.6553L1175.0981,915.6553L1175.0999,915.6522L1175.1011,915.6522L1179.6956,908.1585L1179.6981,908.15436Q1180.0331,907.60364,1181.0007,906.54694L1181.0215,906.52374Q1181.0259,906.5187,1181.0345,906.5087L1181.0345,906.5087Q1181.867,905.5432,1181.0238,904.63983L1180.9742,904.5894Q1180.5096,904.14026,1180.0308,904.14026 Z"/>
</g>
<g style="fill:rgb(254,254,254); fill-opacity:1.0; stroke-linejoin: miter">
<path d="M1315.5314,859.0558C1315.0331,859.0558,1314.5522,859.32764,1314.3082,859.8011Q1310.9657,866.2877,1309.8262,867.6531L1309.8168,867.6531Q1308.0432,869.43225,1302.7672,876.9812L1302.7542,876.9812L1297.0852,882.57715C1297.0206,882.6409,1296.9624,882.71094,1296.9116,882.7862L1291.5142,890.7793L1291.5013,890.7793Q1283.9752,897.79504,1277.4634,906.73663L1277.4552,906.73663Q1275.7191,908.68805,1269.2465,914.9409C1269.1865,914.9988,1269.132,915.06195,1269.0835,915.1297Q1263.159,923.4099,1259.7405,927.0962L1259.7384,927.0962L1250.8793,935.80664C1250.821,935.8639,1250.7681,935.92615,1250.721,935.9928L1245.3579,943.5713C1244.9193,944.19104,1245.0662,945.04895,1245.6859,945.4875C1245.9271,945.65814,1246.2042,945.7401,1246.4788,945.7401C1246.9098,945.7401,1247.3341,945.538,1247.602,945.1594L1252.8942,937.68115L1261.7122,929.01117L1261.7563,928.9657Q1265.2645,925.18274,1271.2183,916.87103L1271.2056,916.87103Q1277.8837,910.4187,1279.6082,908.4523C1279.6355,908.421,1279.6614,908.38873,1279.6858,908.35516Q1286.1061,899.53937,1293.5227,892.6539C1293.5996,892.5825,1293.668,892.5026,1293.7267,892.4157L1299.1139,884.4378L1304.817,878.80804C1304.8763,878.74945,1304.9305,878.6854,1304.9783,878.617Q1310.3103,870.98486,1311.8325,869.5266C1311.8693,869.49133,1311.9043,869.4539,1311.937,869.4148Q1313.2711,867.8164,1316.7523,861.0605C1317.1001,860.3856,1316.8348,859.5566,1316.1599,859.2088C1315.9585,859.105,1315.7433,859.0558,1315.5314,859.0558 Z"/>
</g>
<g style="fill:rgb(254,254,254); fill-opacity:1.0; stroke-linejoin: miter">
<path d="M1085.3862,795.2942Q1085.2834,795.767,1084.897,796.016L1084.897,796.016C1085.1305,795.8328,1085.2981,795.5791,1085.3754,795.2942 Z M1118.0378,776.95795C1117.7915,776.95795,1117.5452,777.025,1117.3293,777.1646L1117.3271,777.16595L1117.298,777.1842Q1112.4575,780.311,1107.3064,784.2941L1107.2953,784.2941L1104.3893,785.9478L1104.3782,785.9478Q1092.352,790.22656,1089.5985,791.65674L1089.5875,791.65674Q1084.3478,793.2334,1083.5529,793.62274L1083.5527,793.6228Q1083.3716,793.71155,1083.2278,793.81964L1083.2169,793.81964L1072.093,799.74176L1072.0823,799.74176Q1065.1779,802.26294,1063.4772,803.44934L1063.468,803.44934Q1061.345,804.7047,1060.0725,806.9731C1059.701,807.63525,1059.9366,808.47314,1060.5989,808.8446C1060.8116,808.9639,1061.0425,809.0206,1061.2701,809.0206C1061.7513,809.0206,1062.2184,808.76764,1062.4705,808.3182Q1063.4047,806.6529,1064.9469,805.76965L1065.0502,805.7042Q1066.4717,804.71246,1073.1484,802.27936C1073.2086,802.25745,1073.2672,802.2313,1073.3237,802.20123L1084.6946,796.1477C1084.7412,796.12286,1084.786,796.0956,1084.829,796.066L1084.8181,796.066Q1085.574,795.7336,1090.5319,794.2438C1090.6195,794.2174,1090.7045,794.1824,1090.7852,794.13916Q1093.2319,792.82904,1105.443,788.4872C1105.5189,788.4602,1105.5923,788.4266,1105.6624,788.3867L1108.7816,786.6117C1108.8378,786.5797,1108.8918,786.5437,1108.943,786.50415Q1114.0121,782.58185,1118.7638,779.51056L1118.763,779.51056L1118.792,779.4923C1119.4297,779.0804,1119.6129,778.2295,1119.2009,777.59174C1118.935,777.1801,1118.4863,776.95795,1118.0378,776.95795 Z"/>
</g>
<g style="fill:rgb(254,254,254); fill-opacity:1.0; stroke-linejoin: miter">
</g>
<g style="fill:rgb(254,254,254); fill-opacity:1.0; stroke-linejoin: miter">
</g>
<g style="fill:rgb(254,254,254); fill-opacity:1.0; stroke-linejoin: miter">
</g>
<g style="fill:rgb(254,254,254); fill-opacity:1.0; stroke-linejoin: miter">
</g>
<g style="fill:rgb(254,254,254); fill-opacity:1.0; stroke-linejoin: miter">
</g>
<g style="fill:rgb(254,254,254); fill-opacity:1.0; stroke-linejoin: miter">
<path d="M1308.6296,663.23425L1308.4171,663.2385Q1307.5677,663.2729,1306.7351,663.58185Q1305.9843,663.4673,1304.7168,663.7628Q1304.1476,663.8593,1302.7336,664.5992Q1302.0452,664.6098,1301.4023,664.762Q1300.753,664.9143,1300.1235,665.2083L1299.499,665.5377Q1295.6769,668.0618,1294.6285,671.9324Q1294.0906,673.99536,1294.2848,676.1339Q1294.6238,679.428,1295.3652,680.66235Q1295.439,680.88666,1296.1104,681.73804Q1296.1626,682.0313,1296.8811,683.17236Q1297.492,684.0473,1298.3381,684.7055Q1300.3801,686.2917,1303.0197,686.42236Q1303.5178,686.463,1304.64,686.1965L1306.9481,685.3427L1307.5968,685.0584Q1308.543,684.5881,1308.9946,684.2641Q1309.9631,683.5797,1310.2866,683.21326Q1311.039,682.8095,1311.722,682.224Q1314.8584,679.19684,1315.7974,675.2063Q1316.2428,673.6554,1316.0829,671.0465Q1315.8016,668.68256,1314.7551,666.90125Q1313.7556,665.3,1312.0955,664.3281Q1311.086,663.70306,1310.0986,663.4352Q1309.8483,663.3124,1308.6296,663.23425"/>
</g>
<g style="fill:rgb(254,254,254); fill-opacity:1.0; stroke-linejoin: miter">
<path d="M1286.8489,726.0031L1286.8489,726.0031L1286.0496,726.48267C1285.7316,726.67346,1285.3191,726.5704,1285.1283,726.2524C1284.9375,725.93445,1285.0406,725.522,1285.3586,725.3312L1285.3586,725.3312L1286.158,724.8516C1286.4758,724.6608,1286.8883,724.764,1287.0791,725.0819C1287.2699,725.3999,1287.1667,725.8123,1286.8489,726.0031 Z"/>
</g>
<g style="fill:rgb(254,254,254); fill-opacity:1.0; stroke-linejoin: miter">
<path d="M1299.4517,695.66113C1299.1443,695.66113,1298.867,695.87354,1298.797,696.186Q1297.9805,699.83374,1297.6862,700.3178C1297.6335,700.40436,1297.6013,700.50134,1297.5916,700.60144L1297.5786,700.60144Q1297.3336,701.17377,1295.5828,704.06696C1295.5597,704.1051,1295.5403,704.1456,1295.5253,704.1876Q1295.011,705.6199,1290.8004,713.84607L1290.799,713.8488L1290.7938,713.85895L1290.7511,713.965Q1289.7506,717.22314,1287.0088,723.3963L1287.008,723.3963Q1286.7101,724.0135,1286.2573,726.28796L1286.2446,726.28796Q1285.6405,727.7903,1285.376,728.76764L1285.3657,728.8114L1285.3655,728.8114Q1284.5277,732.4622,1283.8713,734.3119L1283.8473,734.3966Q1283.7822,734.7019,1283.7705,734.85706L1283.7705,734.85706Q1283.7275,735.4224,1284.2029,735.6103L1284.2029,735.6103Q1284.357,735.6714,1284.4938,735.6714Q1284.8458,735.6714,1285.0826,735.2661L1285.0826,735.2663Q1285.1844,735.09216,1285.3689,734.62714L1285.3689,734.6271C1285.4359,734.45807,1285.4296,734.2781,1285.365,734.12244L1285.3522,734.12244Q1285.9534,732.2557,1286.6782,729.09436L1286.6821,729.0759L1286.6824,729.0747L1286.6841,729.0747Q1286.9402,728.1457,1287.538,726.6714C1287.5538,726.6322,1287.5659,726.5917,1287.5742,726.5502Q1288.0037,724.39307,1288.2188,723.9774L1288.2361,723.94135Q1290.9668,717.79333,1292.002,714.4653L1291.9921,714.4653L1291.9972,714.45514L1291.9972,714.45514Q1296.0896,706.4596,1296.7441,704.76215L1296.7317,704.76215Q1298.6781,701.5457,1298.8788,700.95886L1298.8658,700.95886Q1299.2758,700.19415,1300.1073,696.4793C1300.1884,696.1175,1299.9607,695.7585,1299.5989,695.6775C1299.5496,695.66644,1299.5001,695.66113,1299.4517,695.66113 Z"/>
</g>
<g style="fill:rgb(254,254,254); fill-opacity:1.0; stroke-linejoin: miter">
<path d="M1324.9777,685.06573Q1324.7043,685.06573,1324.4822,685.3486Q1324.101,685.8338,1324.5692,686.2733L1324.5692,686.2733Q1324.7198,686.41473,1325.8175,687.3079L1325.8174,687.3079C1325.9084,687.3821,1326.0132,687.42834,1326.1211,687.4479L1326.1079,687.4479Q1326.2656,687.571,1326.4403,687.7075L1326.427,687.7075Q1327.2175,688.7407,1331.4492,692.21173L1331.4359,692.21173L1333.6791,695.35455L1333.7565,695.4448Q1334.6345,696.30225,1336.3583,698.6892C1336.3881,698.7304,1336.4224,698.76807,1336.4607,698.8016L1336.4474,698.8016Q1336.6823,699.16766,1337.5754,701.0133C1337.595,701.0537,1337.6185,701.0921,1337.6458,701.1278Q1338.4224,702.1468,1339.8794,704.5704L1339.8881,704.58435Q1340.1124,704.93774,1340.8032,705.753C1340.936,705.9097,1341.1254,705.99036,1341.3158,705.99036C1341.4692,705.99036,1341.6234,705.93805,1341.7495,705.8312C1342.0323,705.5915,1342.0674,705.16785,1341.8276,704.88495Q1341.2125,704.15894,1341.0306,703.8785L1341.0303,703.8785Q1339.6055,701.5085,1338.7928,700.4187L1338.7795,700.4187Q1337.7546,698.3014,1337.4844,697.9417L1337.4838,697.9409Q1337.469,697.9214,1337.454,697.9031L1337.4469,697.9031Q1335.7383,695.5371,1334.7855,694.5744L1334.7721,694.5744L1332.4584,691.33276C1332.424,691.28455,1332.3833,691.24115,1332.3375,691.2036Q1327.943,687.60077,1327.4657,686.85315C1327.4248,686.78906,1327.3733,686.73236,1327.3134,686.68555Q1325.6179,685.35986,1325.4081,685.2192L1325.4076,685.2189Q1325.1788,685.06573,1324.9777,685.06573 Z"/>
</g>
<g style="fill:rgb(254,254,254); fill-opacity:1.0; stroke-linejoin: miter">
<path d="M1325.1461,683.998Q1324.8533,683.998,1324.6246,684.1987L1324.6246,684.19867C1324.346,684.4433,1324.3182,684.86755,1324.5629,685.14624C1324.6956,685.2974,1324.8812,685.37476,1325.0677,685.37476C1325.0905,685.37476,1325.1132,685.3736,1325.1357,685.37134L1325.149,685.37134Q1325.4288,685.51746,1326.0089,686.04114L1325.9956,686.04114C1325.7013,686.15326,1325.518,686.4613,1325.5737,686.7832C1325.6304,687.10974,1325.9141,687.34,1326.2346,687.34C1326.2687,687.34,1326.3032,687.3374,1326.338,687.33203L1326.3512,687.33203Q1326.4381,687.3443,1326.6218,687.4855L1326.6082,687.4855L1332.3566,693.7558L1332.3433,693.7558Q1332.5397,694.05365,1332.7446,694.3677C1332.7753,694.4147,1332.8118,694.45764,1332.8531,694.49554Q1333.3662,694.966,1333.9387,695.61725L1333.9254,695.61725L1335.4463,697.5523L1337.6967,701.38916L1337.6832,701.38916Q1338.2689,702.8051,1338.9973,704.13824C1339.0211,704.18176,1339.0497,704.22253,1339.0824,704.25977L1342.3373,707.96027C1342.3701,707.99756,1342.407,708.0311,1342.4386,708.05396L1342.4391,708.0543L1342.4476,708.06067Q1343.2535,708.6454,1343.7854,709.12115L1343.772,709.12115L1344.6033,709.98535L1344.5897,709.98535Q1344.6979,710.1428,1344.7545,710.2799C1344.826,710.453,1344.9667,710.5884,1345.1421,710.6532Q1345.3564,710.7325,1345.5294,710.7325Q1345.953,710.7325,1346.1292,710.25757L1346.129,710.25757Q1346.248,709.9377,1346.0562,709.5914C1346.0278,709.54034,1345.9932,709.49335,1345.9528,709.4513L1345.5918,709.0761L1345.5784,709.0761Q1345.2764,708.6846,1344.8043,708.24347L1344.7909,708.24347L1342.6357,706.0031L1339.1543,701.2203L1338.9031,700.792L1338.8896,700.792Q1338.6108,700.11163,1338.3663,699.4111C1338.3484,699.3596,1338.3242,699.31055,1338.2944,699.26495Q1336.4692,696.4729,1334.9827,694.7722L1334.9694,694.7722L1334.1394,693.71625L1334.1063,693.67737L1333.4187,692.9273L1333.4054,692.9273Q1331.0289,689.3298,1329.8596,688.0287L1329.8507,688.019Q1326.4741,684.4071,1325.5083,684.0658Q1325.3164,683.998,1325.1461,683.998 Z"/>
</g>
</g>
</svg>