<?xml version="1.0" encoding="UTF-8" standalone="yes"?>
<svg xmlns="http://www.w3.org/2000/svg" xmlns:xlink="http://www.w3.org/1999/xlink" width="586.997pt" height="638.611pt" version="1.1" viewBox="-297.243 437.972 586.997 638.611">
  <!--
	Exported with Concepts: Smarter Sketching
	Version: 2024.11 on Android 13
	https://concepts.app/
	-->
  <title>Search Space</title>
  <desc>Drawing exported from Concepts: Smarter Sketching</desc>
  <defs></defs>
  <g id="Pen" opacity="1.000">
    <path id="STROKE_41ac19cf-4ad0-417d-8689-05e1604819f2" opacity="1.000" fill="none" stroke="#ffffff" stroke-width="1.600" stroke-opacity="1.000" stroke-linecap="round" stroke-linejoin="round" d="M 83.086 450.633 Q 83.344 450.775 82.618 449.086 Q 81.893 447.397 80.884 446.689 Q 79.875 445.982 79.221 446.074 Q 78.566 446.166 77.835 446.342 Q 77.105 446.519 71.556 446.887 Q 66.007 447.255 57.279 449.141 Q 48.552 451.027 44.231 452.126 Q 39.911 453.226 37.893 453.800 Q 35.875 454.375 31.916 455.850 Q 27.957 457.326 24.286 458.897 Q 20.615 460.469 18.256 461.746 Q 15.896 463.022 14.504 463.813 Q 13.112 464.603 8.815 469.382 Q 4.518 474.161 2.301 477.050 Q 0.084 479.939 -2.326 481.786 Q -4.736 483.632 -7.703 486.484 Q -10.669 489.336 -13.886 494.596 Q -17.104 499.857 -19.288 503.005 Q -21.473 506.154 -23.133 507.706 Q -24.793 509.258 -28.269 512.395 Q -31.746 515.532 -35.009 518.332 Q -38.273 521.132 -39.747 523.282 Q -41.221 525.432 -44.357 529.121 Q -47.492 532.811 -50.374 535.550 Q -53.255 538.289 -56.513 540.545 Q -59.771 542.801 -62.553 544.884 Q -65.335 546.967 -67.411 549.018 Q -69.488 551.069 -72.968 553.884 Q -76.448 556.699 -78.210 558.535 Q -79.973 560.372 -81.238 561.178 Q -82.502 561.984 -84.010 563.051 Q -85.518 564.118 -87.681 566.472 Q -89.843 568.825 -94.686 573.371 Q -99.529 577.917 -102.017 580.473 Q -104.505 583.028 -107.739 584.952 Q -110.974 586.876 -114.279 589.843 Q -117.583 592.809 -119.721 594.927 Q -121.859 597.045 -123.411 599.007 Q -124.962 600.970 -129.688 604.474 Q -134.413 607.977 -137.377 609.571 Q -140.340 611.164 -143.488 614.172 Q -146.636 617.180 -150.274 621.197 Q -153.912 625.214 -158.264 628.327 Q -162.616 631.439 -165.835 633.856 Q -169.054 636.273 -172.384 640.859 Q -175.714 645.446 -179.717 649.466 Q -183.719 653.487 -187.333 656.041 Q -190.947 658.596 -194.719 662.394 Q -198.492 666.193 -200.453 668.722 Q -202.415 671.251 -203.391 672.577 Q -204.367 673.903 -205.994 675.355 Q -207.621 676.807 -212.132 680.983 Q -216.643 685.158 -219.008 687.440 Q -221.373 689.721 -224.068 694.217 Q -226.762 698.713 -229.554 702.574 Q -232.345 706.436 -233.632 708.548 Q -234.919 710.660 -236.926 711.425 Q -238.932 712.190 -239.977 712.600 Q -241.023 713.009 -242.005 713.779 Q -242.987 714.549 -243.912 715.947 Q -244.838 717.345 -246.114 718.745 Q -247.390 720.145 -248.620 723.002 Q -249.849 725.858 -251.490 728.743 Q -253.131 731.628 -254.446 733.362 Q -255.760 735.096 -257.711 736.706 Q -259.661 738.316 -262.717 742.354 Q -265.773 746.392 -267.989 748.669 Q -270.204 750.947 -273.167 757.840 Q -276.130 764.734 -278.032 770.134 Q -279.934 775.535 -280.901 782.060 Q -281.867 788.585 -281.843 795.339 Q -281.819 802.093 -281.283 806.428 Q -280.746 810.762 -280.560 816.155 Q -280.375 821.547 -280.512 824.400 Q -280.650 827.252 -280.530 832.929 Q -280.410 838.607 -281.945 851.415 Q -283.480 864.222 -284.314 870.694 Q -285.147 877.166 -286.018 882.258 Q -286.889 887.351 -287.648 894.192 Q -288.408 901.034 -288.930 910.954 Q -289.453 920.875 -289.348 926.589 Q -289.242 932.302 -289.235 935.593 Q -289.228 938.884 -288.792 943.943 Q -288.356 949.002 -287.932 954.556 Q -287.507 960.111 -285.481 967.259 Q -283.455 974.407 -282.228 979.005 Q -281.001 983.603 -280.222 985.840 Q -279.444 988.077 -278.797 989.132 Q -278.150 990.188 -276.817 991.734 Q -275.484 993.281 -274.370 994.226 Q -273.255 995.171 -272.558 995.459 Q -271.861 995.747 -269.485 996.721 Q -267.109 997.694 -264.636 998.410 Q -262.163 999.126 -257.935 1002.129 Q -253.708 1005.133 -251.134 1007.301 Q -248.561 1009.468 -244.862 1010.743 Q -241.164 1012.017 -236.723 1012.766 Q -232.282 1013.515 -230.334 1013.544 Q -228.386 1013.573 -221.964 1015.671 Q -215.541 1017.770 -210.047 1019.266 Q -204.552 1020.761 -198.562 1021.879 Q -192.572 1022.997 -186.755 1023.294 Q -180.938 1023.590 -177.736 1023.320 Q -174.534 1023.050 -173.116 1023.674 Q -171.698 1024.297 -167.112 1024.280 Q -162.527 1024.262 -156.509 1025.220 Q -150.490 1026.178 -143.872 1027.279 Q -137.253 1028.381 -132.105 1029.293 Q -126.957 1030.204 -121.947 1031.970 Q -116.937 1033.736 -113.955 1034.897 Q -110.973 1036.058 -109.210 1036.523 Q -107.448 1036.987 -106.170 1037.318 Q -104.892 1037.648 -103.643 1037.885 Q -102.394 1038.121 -97.765 1040.102 Q -93.136 1042.083 -87.042 1043.785 Q -80.948 1045.488 -72.908 1048.256 Q -64.869 1051.025 -60.416 1052.224 Q -55.963 1053.423 -53.316 1054.689 Q -50.669 1055.954 -45.336 1058.072 Q -40.003 1060.190 -31.553 1061.986 Q -23.102 1063.782 -18.334 1064.319 Q -13.566 1064.856 -10.486 1065.272 Q -7.405 1065.689 -0.988 1066.616 Q 5.429 1067.543 8.889 1068.115 Q 12.349 1068.688 14.301 1068.717 Q 16.253 1068.746 22.377 1068.532 Q 28.502 1068.317 37.025 1068.291 Q 45.547 1068.264 52.310 1067.584 Q 59.072 1066.905 62.323 1066.167 Q 65.573 1065.428 67.437 1065.096 Q 69.300 1064.763 73.380 1063.869 Q 77.460 1062.974 84.153 1060.305 Q 90.847 1057.636 94.004 1056.537 Q 97.161 1055.438 101.030 1053.773 Q 104.899 1052.108 108.957 1048.589 Q 113.015 1045.071 115.803 1042.878 Q 118.592 1040.685 121.176 1039.122 Q 123.760 1037.558 126.088 1034.189 Q 128.416 1030.819 129.822 1028.864 Q 131.228 1026.909 132.590 1023.687 Q 133.951 1020.465 135.365 1015.023 Q 136.778 1009.581 137.730 1004.697 Q 138.683 999.812 140.309 994.138 Q 141.935 988.464 143.829 983.337 Q 145.723 978.210 149.045 972.952 Q 152.366 967.694 154.316 965.044 Q 156.266 962.393 157.147 960.447 Q 158.027 958.500 159.593 955.395 Q 161.159 952.289 162.114 949.560 Q 163.070 946.830 167.043 940.451 Q 171.015 934.071 173.283 930.734 Q 175.551 927.397 177.225 924.463 Q 178.899 921.529 179.711 919.497 Q 180.524 917.465 182.812 914.551 Q 185.101 911.637 186.868 908.001 Q 188.634 904.365 189.463 900.791 Q 190.292 897.217 191.794 894.121 Q 193.296 891.025 195.885 888.683 Q 198.473 886.341 204.228 876.479 Q 209.983 866.617 213.029 861.485 Q 216.075 856.354 217.428 853.732 Q 218.781 851.111 219.371 850.032 Q 219.961 848.953 220.893 847.435 Q 221.825 845.916 224.127 842.957 Q 226.430 839.998 227.793 837.974 Q 229.157 835.951 231.873 830.801 Q 234.589 825.650 236.856 821.245 Q 239.124 816.839 242.925 807.677 Q 246.726 798.514 249.231 791.800 Q 251.735 785.086 252.772 781.593 Q 253.810 778.099 254.486 776.401 Q 255.163 774.703 255.117 773.494 Q 255.071 772.285 256.352 766.807 Q 257.634 761.328 258.618 757.210 Q 259.602 753.092 260.682 748.498 Q 261.762 743.905 262.155 741.582 Q 262.548 739.260 262.729 737.373 Q 262.911 735.486 263.792 731.389 Q 264.674 727.292 265.397 722.891 Q 266.120 718.489 266.920 713.840 Q 267.719 709.191 267.923 706.478 Q 268.128 703.764 269.009 697.316 Q 269.891 690.868 271.128 685.760 Q 272.366 680.653 273.723 676.043 Q 275.081 671.434 276.752 663.758 Q 278.423 656.082 279.180 651.556 Q 279.936 647.030 280.055 644.420 Q 280.173 641.810 280.208 640.201 Q 280.244 638.593 280.726 635.860 Q 281.209 633.128 281.559 626.378 Q 281.909 619.629 280.660 609.305 Q 279.412 598.982 278.823 593.403 Q 278.233 587.823 276.607 583.321 Q 274.981 578.818 272.974 572.940 Q 270.966 567.062 269.385 561.315 Q 267.803 555.569 266.859 552.778 Q 265.914 549.988 264.252 546.305 Q 262.589 542.622 261.288 539.910 Q 259.987 537.198 255.393 532.498 Q 250.799 527.799 247.988 525.583 Q 245.177 523.367 242.463 519.313 Q 239.749 515.260 238.138 512.747 Q 236.526 510.234 230.164 506.133 Q 223.801 502.032 218.925 498.680 Q 214.049 495.328 211.328 493.355 Q 208.608 491.382 204.278 489.985 Q 199.948 488.587 197.356 487.422 Q 194.764 486.257 188.638 484.311 Q 182.512 482.365 178.516 481.446 Q 174.520 480.526 170.651 479.112 Q 166.782 477.697 162.921 476.095 Q 159.060 474.492 156.865 473.478 Q 154.670 472.464 150.184 470.636 Q 145.698 468.809 140.964 466.327 Q 136.230 463.846 133.528 462.167 Q 130.825 460.488 127.464 459.429 Q 124.103 458.371 122.160 457.754 Q 120.218 457.136 118.567 456.408 Q 116.917 455.679 114.132 454.683 Q 111.346 453.687 109.921 453.243 Q 108.496 452.798 106.935 451.907 Q 105.375 451.015 102.784 450.904 Q 100.193 450.793 98.917 451.227 Q 97.640 451.661 96.623 451.648 Q 95.606 451.635 94.847 451.651 Q 94.087 451.667 91.153 451.641 "></path>
    <path id="STROKE_6a63e7ec-4c2a-4859-a88f-d38fddbcdaec" opacity="1.000" fill="none" stroke="#ffffff" stroke-width="1.600" stroke-opacity="1.000" stroke-linecap="round" stroke-linejoin="round" d="M -249.693 637.884 Q -249.447 638.257 -250.320 637.117 Q -251.192 635.977 -253.284 636.261 Q -255.375 636.545 -256.526 637.216 Q -257.676 637.887 -258.563 639.199 Q -259.450 640.511 -256.247 644.508 Q -253.045 648.504 -251.274 651.324 Q -249.502 654.143 -246.736 656.348 Q -243.970 658.554 -241.955 659.757 Q -239.940 660.961 -237.621 662.953 Q -235.303 664.946 -234.266 667.749 Q -233.229 670.551 -232.590 672.471 Q -231.952 674.391 -234.189 676.708 Q -234.793 676.563 -236.136 675.772 Q -237.480 674.981 -238.431 671.942 Q -239.383 668.904 -239.132 666.508 Q -238.882 664.113 -237.883 662.023 Q -236.884 659.933 -236.003 659.016 Q -235.123 658.098 -235.129 657.185 Q -235.135 656.271 -235.029 655.862 Q -234.923 655.453 -234.567 655.279 "></path>
    <path id="STROKE_9eadb8f3-63c4-404b-a2c4-208726d452dd" opacity="1.000" fill="none" stroke="#ffffff" stroke-width="1.600" stroke-opacity="1.000" stroke-linecap="round" stroke-linejoin="round" d="M -230.785 654.271 Q -230.585 653.956 -229.480 649.398 Q -228.376 644.840 -231.416 637.128 Q -231.156 636.136 -231.823 638.069 Q -232.490 640.002 -231.687 643.877 Q -230.884 647.752 -229.805 651.924 Q -228.726 656.096 -224.231 660.574 Q -223.020 660.033 -220.701 655.784 "></path>
    <path id="STROKE_4cea65eb-5b4f-4b05-99d9-9c04d2fa381d" opacity="1.000" fill="none" stroke="#ffffff" stroke-width="1.600" stroke-opacity="1.000" stroke-linecap="round" stroke-linejoin="round" d="M -215.911 633.598 Q -215.235 632.460 -221.079 628.934 Q -221.045 628.522 -221.309 629.073 Q -221.573 629.623 -221.981 630.598 Q -222.390 631.573 -222.406 633.402 Q -222.421 635.231 -222.265 636.027 Q -222.109 636.824 -221.773 638.104 Q -221.438 639.385 -220.581 641.693 Q -219.723 644.000 -218.764 645.878 Q -217.804 647.755 -214.273 648.347 Q -213.030 647.522 -213.108 643.879 Q -213.185 640.237 -218.432 629.060 Q -218.885 629.813 -215.935 634.478 Q -212.985 639.142 -210.572 641.844 Q -208.159 644.545 -205.071 646.078 Q -204.916 645.975 -204.511 645.691 Q -204.106 645.407 -203.642 644.859 Q -203.177 644.311 -203.043 644.123 Q -202.909 643.934 -202.550 642.926 "></path>
    <path id="STROKE_a8923074-d13e-4098-b24d-5b8dde98aca3" opacity="1.000" fill="none" stroke="#ffffff" stroke-width="1.600" stroke-opacity="1.000" stroke-linecap="round" stroke-linejoin="round" d="M -206.835 623.766 Q -206.930 624.734 -205.848 628.162 Q -204.765 631.590 -202.980 634.455 Q -201.195 637.321 -196.751 638.893 Q -196.073 638.727 -199.081 636.192 Q -202.089 633.656 -204.847 631.458 Q -207.605 629.259 -210.995 621.119 Q -210.915 620.761 -208.541 617.916 Q -206.168 615.071 -201.541 613.430 "></path>
    <path id="STROKE_b3580241-128d-41dd-a38a-3bd25e0897a2" opacity="1.000" fill="none" stroke="#ffffff" stroke-width="1.600" stroke-opacity="1.000" stroke-linecap="round" stroke-linejoin="round" d="M -192.465 613.178 Q -192.528 613.388 -192.398 613.020 Q -192.267 612.652 -192.732 611.970 Q -193.196 611.287 -193.444 611.179 Q -193.692 611.070 -194.492 611.166 Q -195.292 611.261 -195.402 611.483 Q -195.513 611.706 -195.794 612.162 Q -196.074 612.619 -195.968 613.172 Q -195.861 613.725 -195.980 614.255 Q -196.099 614.784 -195.594 616.682 Q -195.089 618.580 -193.326 621.185 Q -191.563 623.790 -189.400 625.428 Q -187.236 627.066 -185.548 627.686 Q -183.860 628.306 -181.797 627.707 Q -179.733 627.108 -178.348 622.254 "></path>
    <path id="STROKE_66879d22-0cc3-4734-9432-3c2ab17c6194" opacity="1.000" fill="none" stroke="#ffffff" stroke-width="1.600" stroke-opacity="1.000" stroke-linecap="round" stroke-linejoin="round" d="M -188.180 596.791 Q -187.175 597.290 -174.692 619.228 Q -173.347 619.377 -174.909 612.230 Q -176.470 605.083 -176.205 596.413 Q -174.853 596.571 -173.895 599.934 Q -172.937 603.296 -171.535 606.016 Q -170.134 608.736 -168.238 610.115 Q -166.343 611.494 -162.465 609.396 "></path>
    <path id="STROKE_6cefe903-1d90-4550-be19-5735b6e59250" opacity="1.000" fill="none" stroke="#ffffff" stroke-width="1.600" stroke-opacity="1.000" stroke-linecap="round" stroke-linejoin="round" d="M -144.313 564.774 Q -145.425 564.180 -147.979 563.391 Q -150.532 562.601 -156.919 565.530 Q -155.644 567.145 -154.966 567.621 Q -154.289 568.097 -152.444 570.094 Q -150.598 572.090 -148.604 574.527 Q -146.610 576.965 -145.422 579.687 Q -144.234 582.409 -143.968 584.141 Q -143.701 585.874 -144.691 587.211 Q -145.018 587.201 -146.503 585.896 Q -147.989 584.591 -146.582 580.152 "></path>
    <path id="STROKE_e032584d-5c64-4053-b41d-a7edde98c949" opacity="1.000" fill="none" stroke="#ffffff" stroke-width="1.600" stroke-opacity="1.000" stroke-linecap="round" stroke-linejoin="round" d="M -140.784 568.807 Q -140.484 569.910 -137.163 575.333 Q -133.842 580.756 -123.389 595.530 Q -123.554 593.993 -127.246 591.290 Q -130.937 588.588 -133.493 585.660 Q -136.049 582.732 -137.587 579.720 Q -139.126 576.708 -139.548 573.193 Q -139.971 569.678 -139.787 567.854 Q -139.602 566.030 -139.144 564.369 Q -138.685 562.709 -137.988 561.550 Q -137.291 560.392 -136.201 560.020 Q -135.110 559.648 -133.687 559.453 Q -132.264 559.258 -131.194 561.295 Q -130.125 563.332 -130.561 568.510 Q -130.997 573.687 -132.969 579.396 Q -133.103 579.126 -131.204 574.102 "></path>
    <path id="STROKE_a424e0e4-ca4f-479c-9439-7f17538ca4a2" opacity="1.000" fill="none" stroke="#ffffff" stroke-width="1.600" stroke-opacity="1.000" stroke-linecap="round" stroke-linejoin="round" d="M -122.380 548.702 Q -122.220 547.440 -122.942 551.224 Q -123.664 555.008 -123.357 558.013 Q -123.049 561.019 -122.211 563.263 Q -121.372 565.508 -119.733 566.917 Q -117.660 566.499 -118.055 559.457 Q -118.449 552.415 -121.120 545.172 Q -120.724 545.192 -119.606 548.677 Q -118.487 552.162 -116.970 554.771 Q -115.452 557.380 -113.659 558.925 Q -111.865 560.469 -107.254 558.786 "></path>
    <path id="STROKE_2ec27972-c545-464b-b301-804aaf304ba2" opacity="1.000" fill="none" stroke="#ffffff" stroke-width="1.600" stroke-opacity="1.000" stroke-linecap="round" stroke-linejoin="round" d="M -107.002 533.576 Q -107.057 533.645 -107.024 533.587 Q -106.991 533.529 -106.946 533.412 Q -106.901 533.295 -106.929 533.360 Q -106.957 533.425 -107.098 534.174 Q -107.239 534.923 -107.183 535.644 Q -107.127 536.364 -106.937 537.020 Q -106.747 537.675 -105.589 541.365 Q -104.430 545.056 -103.552 547.212 Q -102.674 549.368 -101.603 550.736 Q -100.532 552.104 -100.061 552.515 Q -99.591 552.926 -97.781 552.711 Q -95.972 552.496 -94.850 549.205 Q -93.729 545.915 -93.388 541.391 "></path>
    <path id="STROKE_74060d85-b99d-4f0f-837e-e383f83f05dd" opacity="1.000" fill="none" stroke="#ffffff" stroke-width="1.600" stroke-opacity="1.000" stroke-linecap="round" stroke-linejoin="round" d="M -97.674 531.811 Q -97.551 532.437 -96.484 534.167 Q -95.417 535.896 -94.424 536.438 Q -93.431 536.981 -92.668 537.037 Q -91.905 537.093 -91.251 536.696 Q -90.597 536.299 -89.727 535.208 Q -88.857 534.118 -88.577 531.525 Q -88.296 528.932 -88.591 526.183 Q -88.885 523.435 -91.245 521.474 Q -92.126 522.124 -92.001 521.979 Q -92.605 522.172 -92.745 524.326 Q -92.885 526.480 -92.639 528.915 Q -92.393 531.351 -91.511 533.694 Q -90.629 536.037 -90.085 537.424 Q -89.541 538.812 -88.217 540.353 Q -86.894 541.894 -85.336 541.996 Q -83.778 542.099 -82.402 541.305 Q -81.025 540.512 -80.531 537.609 "></path>
    <path id="STROKE_21203b52-01df-438f-a8e6-9c26eb3d73e5" opacity="1.000" fill="none" stroke="#ffffff" stroke-width="1.600" stroke-opacity="1.000" stroke-linecap="round" stroke-linejoin="round" d="M 155.897 580.506 Q 155.850 580.725 154.453 578.950 Q 154.365 579.033 156.009 576.172 Q 157.579 576.748 157.342 576.839 Q 157.953 577.089 158.111 578.698 Q 158.269 580.307 157.811 581.738 Q 157.353 583.170 157.038 583.420 Q 156.724 583.670 156.082 584.024 Q 155.440 584.379 155.488 584.306 Q 155.536 584.234 155.510 584.275 Q 155.484 584.315 155.192 584.093 Q 154.900 583.870 154.407 583.304 Q 153.913 582.738 153.891 581.368 Q 153.870 579.998 154.406 579.092 Q 154.942 578.186 155.536 578.203 Q 156.130 578.220 156.620 578.689 Q 157.110 579.157 157.167 579.542 Q 157.225 579.926 157.039 580.304 Q 156.853 580.682 156.569 581.241 Q 156.285 581.801 156.014 581.792 Q 155.743 581.784 155.873 581.892 Q 156.002 582.000 155.170 581.708 Q 154.338 581.416 154.509 579.977 Q 154.680 578.538 156.120 577.172 Q 157.129 577.471 156.899 579.011 Q 156.668 580.551 154.564 582.506 Q 153.208 581.775 153.207 581.674 Q 153.206 581.573 153.297 581.611 Q 153.388 581.649 153.221 581.670 Q 153.053 581.691 152.650 579.820 Q 152.246 577.950 152.556 576.929 Q 152.865 575.909 153.132 575.667 Q 153.399 575.426 153.646 575.277 Q 153.892 575.128 154.647 575.661 Q 155.401 576.194 155.654 576.550 Q 155.907 576.905 155.882 577.163 Q 155.858 577.421 155.931 577.436 Q 156.005 577.451 156.052 577.792 Q 156.099 578.133 153.897 579.950 Q 154.024 579.510 152.564 580.283 Q 152.044 580.356 152.214 579.013 Q 152.383 577.670 152.572 576.868 Q 152.760 576.066 152.916 575.843 Q 153.073 575.621 153.137 575.530 Q 153.202 575.439 153.261 575.432 Q 153.320 575.426 153.676 575.433 Q 154.031 575.439 154.434 575.455 Q 154.837 575.470 154.767 575.535 Q 154.697 575.600 154.885 575.724 Q 155.072 575.848 155.472 576.590 Q 155.872 577.333 155.504 578.283 Q 155.135 579.233 155.044 580.177 Q 154.954 581.121 152.564 582.728 Q 152.137 583.254 152.043 581.386 Q 151.948 579.518 151.922 577.987 Q 151.895 576.456 154.786 573.950 Q 156.292 574.276 157.002 575.596 Q 157.712 576.915 158.250 577.711 Q 158.788 578.507 154.786 582.506 Q 154.881 582.787 154.607 581.855 Q 154.333 580.923 154.640 579.657 Q 154.947 578.391 155.803 577.811 Q 156.660 577.232 157.174 577.396 Q 157.687 577.559 157.650 577.547 Q 157.614 577.535 157.542 577.508 Q 157.471 577.481 158.207 577.978 Q 158.942 578.475 155.231 582.950 Q 154.704 582.335 154.479 580.656 Q 154.255 578.977 156.342 576.506 Q 156.482 576.629 157.383 577.225 Q 158.283 577.821 158.450 579.057 Q 158.617 580.292 158.345 580.729 Q 158.073 581.166 157.487 582.221 Q 156.902 583.275 156.233 583.601 Q 155.564 583.927 155.375 583.874 Q 155.187 583.820 154.418 583.429 Q 153.650 583.038 153.207 582.129 Q 152.764 581.220 152.793 580.677 Q 152.822 580.133 152.756 579.465 Q 152.690 578.797 153.219 578.147 Q 153.748 577.498 154.431 576.792 Q 155.115 576.086 157.675 577.394 Q 158.127 578.102 157.265 579.143 Q 156.402 580.184 155.583 580.621 Q 154.763 581.057 154.064 580.993 Q 153.365 580.928 153.342 580.839 Q 153.318 580.750 153.416 580.918 Q 153.514 581.087 152.760 580.333 Q 152.006 579.579 151.758 579.182 Q 151.511 578.786 151.855 578.147 Q 152.199 577.509 152.676 577.067 Q 153.152 576.625 153.796 576.703 Q 154.440 576.780 155.114 577.191 Q 155.788 577.601 156.065 577.997 Q 156.342 578.392 156.234 579.562 Q 156.126 580.732 153.675 582.506 Q 152.982 581.574 152.227 580.103 Q 151.471 578.632 153.564 574.728 Q 153.655 574.689 154.440 575.341 Q 155.225 575.993 155.726 576.767 Q 156.227 577.542 156.351 577.746 Q 156.475 577.949 156.659 578.535 Q 156.842 579.121 156.795 579.382 Q 156.748 579.643 156.885 579.933 Q 157.022 580.223 153.564 585.283 Q 152.129 584.560 152.453 584.617 Q 151.881 583.255 152.009 583.283 Q 151.430 581.338 151.501 580.730 Q 151.572 580.122 151.559 580.257 Q 151.545 580.393 151.807 579.270 Q 152.070 578.147 152.885 577.619 Q 153.701 577.091 154.067 577.008 Q 154.434 576.925 155.063 577.186 Q 155.693 577.446 155.735 577.609 Q 155.778 577.772 155.930 578.225 Q 156.082 578.679 155.957 578.777 Q 155.833 578.875 155.685 579.295 Q 155.538 579.715 154.791 580.974 Q 154.044 582.233 152.342 583.172 Q 151.042 582.791 150.749 580.801 Q 150.457 578.811 150.790 577.662 Q 151.124 576.514 151.398 576.140 Q 151.672 575.766 152.151 575.578 Q 152.631 575.389 152.637 575.342 Q 152.642 575.295 153.499 575.373 Q 154.355 575.451 154.698 575.920 Q 155.041 576.388 155.525 576.781 Q 156.009 577.173 152.342 580.283 Q 151.820 579.884 151.387 578.047 Q 150.954 576.209 153.231 573.506 Q 153.547 573.539 154.871 574.032 Q 156.195 574.526 156.487 575.316 Q 156.780 576.107 157.395 576.866 Q 158.010 577.626 160.342 578.506 Q 159.916 579.364 156.231 582.394 Q 155.709 582.406 155.553 581.105 Q 155.398 579.803 155.895 578.764 Q 156.392 577.726 156.903 577.452 Q 157.414 577.178 157.777 577.158 Q 158.139 577.137 158.463 577.162 Q 158.787 577.186 159.208 577.402 Q 159.630 577.618 159.561 577.543 Q 159.492 577.468 159.792 577.760 Q 160.093 578.053 160.392 578.439 Q 160.692 578.826 160.570 578.800 Q 160.447 578.773 160.576 578.685 Q 160.705 578.597 160.172 580.165 Q 159.638 581.732 157.675 583.394 Q 157.152 582.818 156.988 582.502 Q 156.824 582.186 157.031 581.127 Q 157.238 580.069 157.857 579.316 Q 158.475 578.564 158.931 578.048 Q 159.386 577.533 160.180 578.216 Q 160.973 578.900 160.816 579.686 Q 160.659 580.472 160.283 580.875 Q 159.908 581.277 158.675 582.950 Q 158.545 583.633 156.786 580.283 Q 156.897 580.283 157.009 580.283 "></path>
  </g>
</svg>