<?xml version="1.0" encoding="UTF-8" standalone="yes"?>
<svg xmlns="http://www.w3.org/2000/svg" xmlns:xlink="http://www.w3.org/1999/xlink" width="586.997pt" height="638.611pt" version="1.1" viewBox="-297.243 437.972 586.997 638.611">
  <!--
	Exported with Concepts: Smarter Sketching
	Version: 2024.11 on Android 13
	https://concepts.app/
	-->
  <title>Search Space</title>
  <desc>Drawing exported from Concepts: Smarter Sketching</desc>
  <defs></defs>
  <g id="Pen" opacity="1.000">
    <path id="STROKE_41ac19cf-4ad0-417d-8689-05e1604819f2" opacity="1.000" fill="none" stroke="#ffffff" stroke-width="1.600" stroke-opacity="1.000" stroke-linecap="round" stroke-linejoin="round" d="M 83.086 450.633 Q 83.344 450.775 82.618 449.086 Q 81.893 447.397 80.884 446.689 Q 79.875 445.982 79.221 446.074 Q 78.566 446.166 77.835 446.342 Q 77.105 446.519 71.556 446.887 Q 66.007 447.255 57.279 449.141 Q 48.552 451.027 44.231 452.126 Q 39.911 453.226 37.893 453.800 Q 35.875 454.375 31.916 455.850 Q 27.957 457.326 24.286 458.897 Q 20.615 460.469 18.256 461.746 Q 15.896 463.022 14.504 463.813 Q 13.112 464.603 8.815 469.382 Q 4.518 474.161 2.301 477.050 Q 0.084 479.939 -2.326 481.786 Q -4.736 483.632 -7.703 486.484 Q -10.669 489.336 -13.886 494.596 Q -17.104 499.857 -19.288 503.005 Q -21.473 506.154 -23.133 507.706 Q -24.793 509.258 -28.269 512.395 Q -31.746 515.532 -35.009 518.332 Q -38.273 521.132 -39.747 523.282 Q -41.221 525.432 -44.357 529.121 Q -47.492 532.811 -50.374 535.550 Q -53.255 538.289 -56.513 540.545 Q -59.771 542.801 -62.553 544.884 Q -65.335 546.967 -67.411 549.018 Q -69.488 551.069 -72.968 553.884 Q -76.448 556.699 -78.210 558.535 Q -79.973 560.372 -81.238 561.178 Q -82.502 561.984 -84.010 563.051 Q -85.518 564.118 -87.681 566.472 Q -89.843 568.825 -94.686 573.371 Q -99.529 577.917 -102.017 580.473 Q -104.505 583.028 -107.739 584.952 Q -110.974 586.876 -114.279 589.843 Q -117.583 592.809 -119.721 594.927 Q -121.859 597.045 -123.411 599.007 Q -124.962 600.970 -129.688 604.474 Q -134.413 607.977 -137.377 609.571 Q -140.340 611.164 -143.488 614.172 Q -146.636 617.180 -150.274 621.197 Q -153.912 625.214 -158.264 628.327 Q -162.616 631.439 -165.835 633.856 Q -169.054 636.273 -172.384 640.859 Q -175.714 645.446 -179.717 649.466 Q -183.719 653.487 -187.333 656.041 Q -190.947 658.596 -194.719 662.394 Q -198.492 666.193 -200.453 668.722 Q -202.415 671.251 -203.391 672.577 Q -204.367 673.903 -205.994 675.355 Q -207.621 676.807 -212.132 680.983 Q -216.643 685.158 -219.008 687.440 Q -221.373 689.721 -224.068 694.217 Q -226.762 698.713 -229.554 702.574 Q -232.345 706.436 -233.632 708.548 Q -234.919 710.660 -236.926 711.425 Q -238.932 712.190 -239.977 712.600 Q -241.023 713.009 -242.005 713.779 Q -242.987 714.549 -243.912 715.947 Q -244.838 717.345 -246.114 718.745 Q -247.390 720.145 -248.620 723.002 Q -249.849 725.858 -251.490 728.743 Q -253.131 731.628 -254.446 733.362 Q -255.760 735.096 -257.711 736.706 Q -259.661 738.316 -262.717 742.354 Q -265.773 746.392 -267.989 748.669 Q -270.204 750.947 -273.167 757.840 Q -276.130 764.734 -278.032 770.134 Q -279.934 775.535 -280.901 782.060 Q -281.867 788.585 -281.843 795.339 Q -281.819 802.093 -281.283 806.428 Q -280.746 810.762 -280.560 816.155 Q -280.375 821.547 -280.512 824.400 Q -280.650 827.252 -280.530 832.929 Q -280.410 838.607 -281.945 851.415 Q -283.480 864.222 -284.314 870.694 Q -285.147 877.166 -286.018 882.258 Q -286.889 887.351 -287.648 894.192 Q -288.408 901.034 -288.930 910.954 Q -289.453 920.875 -289.348 926.589 Q -289.242 932.302 -289.235 935.593 Q -289.228 938.884 -288.792 943.943 Q -288.356 949.002 -287.932 954.556 Q -287.507 960.111 -285.481 967.259 Q -283.455 974.407 -282.228 979.005 Q -281.001 983.603 -280.222 985.840 Q -279.444 988.077 -278.797 989.132 Q -278.150 990.188 -276.817 991.734 Q -275.484 993.281 -274.370 994.226 Q -273.255 995.171 -272.558 995.459 Q -271.861 995.747 -269.485 996.721 Q -267.109 997.694 -264.636 998.410 Q -262.163 999.126 -257.935 1002.129 Q -253.708 1005.133 -251.134 1007.301 Q -248.561 1009.468 -244.862 1010.743 Q -241.164 1012.017 -236.723 1012.766 Q -232.282 1013.515 -230.334 1013.544 Q -228.386 1013.573 -221.964 1015.671 Q -215.541 1017.770 -210.047 1019.266 Q -204.552 1020.761 -198.562 1021.879 Q -192.572 1022.997 -186.755 1023.294 Q -180.938 1023.590 -177.736 1023.320 Q -174.534 1023.050 -173.116 1023.674 Q -171.698 1024.297 -167.112 1024.280 Q -162.527 1024.262 -156.509 1025.220 Q -150.490 1026.178 -143.872 1027.279 Q -137.253 1028.381 -132.105 1029.293 Q -126.957 1030.204 -121.947 1031.970 Q -116.937 1033.736 -113.955 1034.897 Q -110.973 1036.058 -109.210 1036.523 Q -107.448 1036.987 -106.170 1037.318 Q -104.892 1037.648 -103.643 1037.885 Q -102.394 1038.121 -97.765 1040.102 Q -93.136 1042.083 -87.042 1043.785 Q -80.948 1045.488 -72.908 1048.256 Q -64.869 1051.025 -60.416 1052.224 Q -55.963 1053.423 -53.316 1054.689 Q -50.669 1055.954 -45.336 1058.072 Q -40.003 1060.190 -31.553 1061.986 Q -23.102 1063.782 -18.334 1064.319 Q -13.566 1064.856 -10.486 1065.272 Q -7.405 1065.689 -0.988 1066.616 Q 5.429 1067.543 8.889 1068.115 Q 12.349 1068.688 14.301 1068.717 Q 16.253 1068.746 22.377 1068.532 Q 28.502 1068.317 37.025 1068.291 Q 45.547 1068.264 52.310 1067.584 Q 59.072 1066.905 62.323 1066.167 Q 65.573 1065.428 67.437 1065.096 Q 69.300 1064.763 73.380 1063.869 Q 77.460 1062.974 84.153 1060.305 Q 90.847 1057.636 94.004 1056.537 Q 97.161 1055.438 101.030 1053.773 Q 104.899 1052.108 108.957 1048.589 Q 113.015 1045.071 115.803 1042.878 Q 118.592 1040.685 121.176 1039.122 Q 123.760 1037.558 126.088 1034.189 Q 128.416 1030.819 129.822 1028.864 Q 131.228 1026.909 132.590 1023.687 Q 133.951 1020.465 135.365 1015.023 Q 136.778 1009.581 137.730 1004.697 Q 138.683 999.812 140.309 994.138 Q 141.935 988.464 143.829 983.337 Q 145.723 978.210 149.045 972.952 Q 152.366 967.694 154.316 965.044 Q 156.266 962.393 157.147 960.447 Q 158.027 958.500 159.593 955.395 Q 161.159 952.289 162.114 949.560 Q 163.070 946.830 167.043 940.451 Q 171.015 934.071 173.283 930.734 Q 175.551 927.397 177.225 924.463 Q 178.899 921.529 179.711 919.497 Q 180.524 917.465 182.812 914.551 Q 185.101 911.637 186.868 908.001 Q 188.634 904.365 189.463 900.791 Q 190.292 897.217 191.794 894.121 Q 193.296 891.025 195.885 888.683 Q 198.473 886.341 204.228 876.479 Q 209.983 866.617 213.029 861.485 Q 216.075 856.354 217.428 853.732 Q 218.781 851.111 219.371 850.032 Q 219.961 848.953 220.893 847.435 Q 221.825 845.916 224.127 842.957 Q 226.430 839.998 227.793 837.974 Q 229.157 835.951 231.873 830.801 Q 234.589 825.650 236.856 821.245 Q 239.124 816.839 242.925 807.677 Q 246.726 798.514 249.231 791.800 Q 251.735 785.086 252.772 781.593 Q 253.810 778.099 254.486 776.401 Q 255.163 774.703 255.117 773.494 Q 255.071 772.285 256.352 766.807 Q 257.634 761.328 258.618 757.210 Q 259.602 753.092 260.682 748.498 Q 261.762 743.905 262.155 741.582 Q 262.548 739.260 262.729 737.373 Q 262.911 735.486 263.792 731.389 Q 264.674 727.292 265.397 722.891 Q 266.120 718.489 266.920 713.840 Q 267.719 709.191 267.923 706.478 Q 268.128 703.764 269.009 697.316 Q 269.891 690.868 271.128 685.760 Q 272.366 680.653 273.723 676.043 Q 275.081 671.434 276.752 663.758 Q 278.423 656.082 279.180 651.556 Q 279.936 647.030 280.055 644.420 Q 280.173 641.810 280.208 640.201 Q 280.244 638.593 280.726 635.860 Q 281.209 633.128 281.559 626.378 Q 281.909 619.629 280.660 609.305 Q 279.412 598.982 278.823 593.403 Q 278.233 587.823 276.607 583.321 Q 274.981 578.818 272.974 572.940 Q 270.966 567.062 269.385 561.315 Q 267.803 555.569 266.859 552.778 Q 265.914 549.988 264.252 546.305 Q 262.589 542.622 261.288 539.910 Q 259.987 537.198 255.393 532.498 Q 250.799 527.799 247.988 525.583 Q 245.177 523.367 242.463 519.313 Q 239.749 515.260 238.138 512.747 Q 236.526 510.234 230.164 506.133 Q 223.801 502.032 218.925 498.680 Q 214.049 495.328 211.328 493.355 Q 208.608 491.382 204.278 489.985 Q 199.948 488.587 197.356 487.422 Q 194.764 486.257 188.638 484.311 Q 182.512 482.365 178.516 481.446 Q 174.520 480.526 170.651 479.112 Q 166.782 477.697 162.921 476.095 Q 159.060 474.492 156.865 473.478 Q 154.670 472.464 150.184 470.636 Q 145.698 468.809 140.964 466.327 Q 136.230 463.846 133.528 462.167 Q 130.825 460.488 127.464 459.429 Q 124.103 458.371 122.160 457.754 Q 120.218 457.136 118.567 456.408 Q 116.917 455.679 114.132 454.683 Q 111.346 453.687 109.921 453.243 Q 108.496 452.798 106.935 451.907 Q 105.375 451.015 102.784 450.904 Q 100.193 450.793 98.917 451.227 Q 97.640 451.661 96.623 451.648 Q 95.606 451.635 94.847 451.651 Q 94.087 451.667 91.153 451.641 "></path>
    <path id="STROKE_6a63e7ec-4c2a-4859-a88f-d38fddbcdaec" opacity="1.000" fill="none" stroke="#ffffff" stroke-width="1.600" stroke-opacity="1.000" stroke-linecap="round" stroke-linejoin="round" d="M -249.693 637.884 Q -249.447 638.257 -250.320 637.117 Q -251.192 635.977 -253.284 636.261 Q -255.375 636.545 -256.526 637.216 Q -257.676 637.887 -258.563 639.199 Q -259.450 640.511 -256.247 644.508 Q -253.045 648.504 -251.274 651.324 Q -249.502 654.143 -246.736 656.348 Q -243.970 658.554 -241.955 659.757 Q -239.940 660.961 -237.621 662.953 Q -235.303 664.946 -234.266 667.749 Q -233.229 670.551 -232.590 672.471 Q -231.952 674.391 -234.189 676.708 Q -234.793 676.563 -236.136 675.772 Q -237.480 674.981 -238.431 671.942 Q -239.383 668.904 -239.132 666.508 Q -238.882 664.113 -237.883 662.023 Q -236.884 659.933 -236.003 659.016 Q -235.123 658.098 -235.129 657.185 Q -235.135 656.271 -235.029 655.862 Q -234.923 655.453 -234.567 655.279 "></path>
    <path id="STROKE_9eadb8f3-63c4-404b-a2c4-208726d452dd" opacity="1.000" fill="none" stroke="#ffffff" stroke-width="1.600" stroke-opacity="1.000" stroke-linecap="round" stroke-linejoin="round" d="M -230.785 654.271 Q -230.585 653.956 -229.480 649.398 Q -228.376 644.840 -231.416 637.128 Q -231.156 636.136 -231.823 638.069 Q -232.490 640.002 -231.687 643.877 Q -230.884 647.752 -229.805 651.924 Q -228.726 656.096 -224.231 660.574 Q -223.020 660.033 -220.701 655.784 "></path>
    <path id="STROKE_4cea65eb-5b4f-4b05-99d9-9c04d2fa381d" opacity="1.000" fill="none" stroke="#ffffff" stroke-width="1.600" stroke-opacity="1.000" stroke-linecap="round" stroke-linejoin="round" d="M -215.911 633.598 Q -215.235 632.460 -221.079 628.934 Q -221.045 628.522 -221.309 629.073 Q -221.573 629.623 -221.981 630.598 Q -222.390 631.573 -222.406 633.402 Q -222.421 635.231 -222.265 636.027 Q -222.109 636.824 -221.773 638.104 Q -221.438 639.385 -220.581 641.693 Q -219.723 644.000 -218.764 645.878 Q -217.804 647.755 -214.273 648.347 Q -213.030 647.522 -213.108 643.879 Q -213.185 640.237 -218.432 629.060 Q -218.885 629.813 -215.935 634.478 Q -212.985 639.142 -210.572 641.844 Q -208.159 644.545 -205.071 646.078 Q -204.916 645.975 -204.511 645.691 Q -204.106 645.407 -203.642 644.859 Q -203.177 644.311 -203.043 644.123 Q -202.909 643.934 -202.550 642.926 "></path>
    <path id="STROKE_a8923074-d13e-4098-b24d-5b8dde98aca3" opacity="1.000" fill="none" stroke="#ffffff" stroke-width="1.600" stroke-opacity="1.000" stroke-linecap="round" stroke-linejoin="round" d="M -206.835 623.766 Q -206.930 624.734 -205.848 628.162 Q -204.765 631.590 -202.980 634.455 Q -201.195 637.321 -196.751 638.893 Q -196.073 638.727 -199.081 636.192 Q -202.089 633.656 -204.847 631.458 Q -207.605 629.259 -210.995 621.119 Q -210.915 620.761 -208.541 617.916 Q -206.168 615.071 -201.541 613.430 "></path>
    <path id="STROKE_b3580241-128d-41dd-a38a-3bd25e0897a2" opacity="1.000" fill="none" stroke="#ffffff" stroke-width="1.600" stroke-opacity="1.000" stroke-linecap="round" stroke-linejoin="round" d="M -192.465 613.178 Q -192.528 613.388 -192.398 613.020 Q -192.267 612.652 -192.732 611.970 Q -193.196 611.287 -193.444 611.179 Q -193.692 611.070 -194.492 611.166 Q -195.292 611.261 -195.402 611.483 Q -195.513 611.706 -195.794 612.162 Q -196.074 612.619 -195.968 613.172 Q -195.861 613.725 -195.980 614.255 Q -196.099 614.784 -195.594 616.682 Q -195.089 618.580 -193.326 621.185 Q -191.563 623.790 -189.400 625.428 Q -187.236 627.066 -185.548 627.686 Q -183.860 628.306 -181.797 627.707 Q -179.733 627.108 -178.348 622.254 "></path>
    <path id="STROKE_66879d22-0cc3-4734-9432-3c2ab17c6194" opacity="1.000" fill="none" stroke="#ffffff" stroke-width="1.600" stroke-opacity="1.000" stroke-linecap="round" stroke-linejoin="round" d="M -188.180 596.791 Q -187.175 597.290 -174.692 619.228 Q -173.347 619.377 -174.909 612.230 Q -176.470 605.083 -176.205 596.413 Q -174.853 596.571 -173.895 599.934 Q -172.937 603.296 -171.535 606.016 Q -170.134 608.736 -168.238 610.115 Q -166.343 611.494 -162.465 609.396 "></path>
    <path id="STROKE_6cefe903-1d90-4550-be19-5735b6e59250" opacity="1.000" fill="none" stroke="#ffffff" stroke-width="1.600" stroke-opacity="1.000" stroke-linecap="round" stroke-linejoin="round" d="M -144.313 564.774 Q -145.425 564.180 -147.979 563.391 Q -150.532 562.601 -156.919 565.530 Q -155.644 567.145 -154.966 567.621 Q -154.289 568.097 -152.444 570.094 Q -150.598 572.090 -148.604 574.527 Q -146.610 576.965 -145.422 579.687 Q -144.234 582.409 -143.968 584.141 Q -143.701 585.874 -144.691 587.211 Q -145.018 587.201 -146.503 585.896 Q -147.989 584.591 -146.582 580.152 "></path>
    <path id="STROKE_e032584d-5c64-4053-b41d-a7edde98c949" opacity="1.000" fill="none" stroke="#ffffff" stroke-width="1.600" stroke-opacity="1.000" stroke-linecap="round" stroke-linejoin="round" d="M -140.784 568.807 Q -140.484 569.910 -137.163 575.333 Q -133.842 580.756 -123.389 595.530 Q -123.554 593.993 -127.246 591.290 Q -130.937 588.588 -133.493 585.660 Q -136.049 582.732 -137.587 579.720 Q -139.126 576.708 -139.548 573.193 Q -139.971 569.678 -139.787 567.854 Q -139.602 566.030 -139.144 564.369 Q -138.685 562.709 -137.988 561.550 Q -137.291 560.392 -136.201 560.020 Q -135.110 559.648 -133.687 559.453 Q -132.264 559.258 -131.194 561.295 Q -130.125 563.332 -130.561 568.510 Q -130.997 573.687 -132.969 579.396 Q -133.103 579.126 -131.204 574.102 "></path>
    <path id="STROKE_a424e0e4-ca4f-479c-9439-7f17538ca4a2" opacity="1.000" fill="none" stroke="#ffffff" stroke-width="1.600" stroke-opacity="1.000" stroke-linecap="round" stroke-linejoin="round" d="M -122.380 548.702 Q -122.220 547.440 -122.942 551.224 Q -123.664 555.008 -123.357 558.013 Q -123.049 561.019 -122.211 563.263 Q -121.372 565.508 -119.733 566.917 Q -117.660 566.499 -118.055 559.457 Q -118.449 552.415 -121.120 545.172 Q -120.724 545.192 -119.606 548.677 Q -118.487 552.162 -116.970 554.771 Q -115.452 557.380 -113.659 558.925 Q -111.865 560.469 -107.254 558.786 "></path>
    <path id="STROKE_2ec27972-c545-464b-b301-804aaf304ba2" opacity="1.000" fill="none" stroke="#ffffff" stroke-width="1.600" stroke-opacity="1.000" stroke-linecap="round" stroke-linejoin="round" d="M -107.002 533.576 Q -107.057 533.645 -107.024 533.587 Q -106.991 533.529 -106.946 533.412 Q -106.901 533.295 -106.929 533.360 Q -106.957 533.425 -107.098 534.174 Q -107.239 534.923 -107.183 535.644 Q -107.127 536.364 -106.937 537.020 Q -106.747 537.675 -105.589 541.365 Q -104.430 545.056 -103.552 547.212 Q -102.674 549.368 -101.603 550.736 Q -100.532 552.104 -100.061 552.515 Q -99.591 552.926 -97.781 552.711 Q -95.972 552.496 -94.850 549.205 Q -93.729 545.915 -93.388 541.391 "></path>
    <path id="STROKE_74060d85-b99d-4f0f-837e-e383f83f05dd" opacity="1.000" fill="none" stroke="#ffffff" stroke-width="1.600" stroke-opacity="1.000" stroke-linecap="round" stroke-linejoin="round" d="M -97.674 531.811 Q -97.551 532.437 -96.484 534.167 Q -95.417 535.896 -94.424 536.438 Q -93.431 536.981 -92.668 537.037 Q -91.905 537.093 -91.251 536.696 Q -90.597 536.299 -89.727 535.208 Q -88.857 534.118 -88.577 531.525 Q -88.296 528.932 -88.591 526.183 Q -88.885 523.435 -91.245 521.474 Q -92.126 522.124 -92.001 521.979 Q -92.605 522.172 -92.745 524.326 Q -92.885 526.480 -92.639 528.915 Q -92.393 531.351 -91.511 533.694 Q -90.629 536.037 -90.085 537.424 Q -89.541 538.812 -88.217 540.353 Q -86.894 541.894 -85.336 541.996 Q -83.778 542.099 -82.402 541.305 Q -81.025 540.512 -80.531 537.609 "></path>
    <path id="STROKE_21203b52-01df-438f-a8e6-9c26eb3d73e5" opacity="1.000" fill="none" stroke="#ffffff" stroke-width="1.600" stroke-opacity="1.000" stroke-linecap="round" stroke-linejoin="round" d="M 155.897 580.506 Q 155.850 580.725 154.453 578.950 Q 154.365 579.033 156.009 576.172 Q 157.579 576.748 157.342 576.839 Q 157.953 577.089 158.111 578.698 Q 158.269 580.307 157.811 581.738 Q 157.353 583.170 157.038 583.420 Q 156.724 583.670 156.082 584.024 Q 155.440 584.379 155.488 584.306 Q 155.536 584.234 155.510 584.275 Q 155.484 584.315 155.192 584.093 Q 154.900 583.870 154.407 583.304 Q 153.913 582.738 153.891 581.368 Q 153.870 579.998 154.406 579.092 Q 154.942 578.186 155.536 578.203 Q 156.130 578.220 156.620 578.689 Q 157.110 579.157 157.167 579.542 Q 157.225 579.926 157.039 580.304 Q 156.853 580.682 156.569 581.241 Q 156.285 581.801 156.014 581.792 Q 155.743 581.784 155.873 581.892 Q 156.002 582.000 155.170 581.708 Q 154.338 581.416 154.509 579.977 Q 154.680 578.538 156.120 577.172 Q 157.129 577.471 156.899 579.011 Q 156.668 580.551 154.564 582.506 Q 153.208 581.775 153.207 581.674 Q 153.206 581.573 153.297 581.611 Q 153.388 581.649 153.221 581.670 Q 153.053 581.691 152.650 579.820 Q 152.246 577.950 152.556 576.929 Q 152.865 575.909 153.132 575.667 Q 153.399 575.426 153.646 575.277 Q 153.892 575.128 154.647 575.661 Q 155.401 576.194 155.654 576.550 Q 155.907 576.905 155.882 577.163 Q 155.858 577.421 155.931 577.436 Q 156.005 577.451 156.052 577.792 Q 156.099 578.133 153.897 579.950 Q 154.024 579.510 152.564 580.283 Q 152.044 580.356 152.214 579.013 Q 152.383 577.670 152.572 576.868 Q 152.760 576.066 152.916 575.843 Q 153.073 575.621 153.137 575.530 Q 153.202 575.439 153.261 575.432 Q 153.320 575.426 153.676 575.433 Q 154.031 575.439 154.434 575.455 Q 154.837 575.470 154.767 575.535 Q 154.697 575.600 154.885 575.724 Q 155.072 575.848 155.472 576.590 Q 155.872 577.333 155.504 578.283 Q 155.135 579.233 155.044 580.177 Q 154.954 581.121 152.564 582.728 Q 152.137 583.254 152.043 581.386 Q 151.948 579.518 151.922 577.987 Q 151.895 576.456 154.786 573.950 Q 156.292 574.276 157.002 575.596 Q 157.712 576.915 158.250 577.711 Q 158.788 578.507 154.786 582.506 Q 154.881 582.787 154.607 581.855 Q 154.333 580.923 154.640 579.657 Q 154.947 578.391 155.803 577.811 Q 156.660 577.232 157.174 577.396 Q 157.687 577.559 157.650 577.547 Q 157.614 577.535 157.542 577.508 Q 157.471 577.481 158.207 577.978 Q 158.942 578.475 155.231 582.950 Q 154.704 582.335 154.479 580.656 Q 154.255 578.977 156.342 576.506 Q 156.482 576.629 157.383 577.225 Q 158.283 577.821 158.450 579.057 Q 158.617 580.292 158.345 580.729 Q 158.073 581.166 157.487 582.221 Q 156.902 583.275 156.233 583.601 Q 155.564 583.927 155.375 583.874 Q 155.187 583.820 154.418 583.429 Q 153.650 583.038 153.207 582.129 Q 152.764 581.220 152.793 580.677 Q 152.822 580.133 152.756 579.465 Q 152.690 578.797 153.219 578.147 Q 153.748 577.498 154.431 576.792 Q 155.115 576.086 157.675 577.394 Q 158.127 578.102 157.265 579.143 Q 156.402 580.184 155.583 580.621 Q 154.763 581.057 154.064 580.993 Q 153.365 580.928 153.342 580.839 Q 153.318 580.750 153.416 580.918 Q 153.514 581.087 152.760 580.333 Q 152.006 579.579 151.758 579.182 Q 151.511 578.786 151.855 578.147 Q 152.199 577.509 152.676 577.067 Q 153.152 576.625 153.796 576.703 Q 154.440 576.780 155.114 577.191 Q 155.788 577.601 156.065 577.997 Q 156.342 578.392 156.234 579.562 Q 156.126 580.732 153.675 582.506 Q 152.982 581.574 152.227 580.103 Q 151.471 578.632 153.564 574.728 Q 153.655 574.689 154.440 575.341 Q 155.225 575.993 155.726 576.767 Q 156.227 577.542 156.351 577.746 Q 156.475 577.949 156.659 578.535 Q 156.842 579.121 156.795 579.382 Q 156.748 579.643 156.885 579.933 Q 157.022 580.223 153.564 585.283 Q 152.129 584.560 152.453 584.617 Q 151.881 583.255 152.009 583.283 Q 151.430 581.338 151.501 580.730 Q 151.572 580.122 151.559 580.257 Q 151.545 580.393 151.807 579.270 Q 152.070 578.147 152.885 577.619 Q 153.701 577.091 154.067 577.008 Q 154.434 576.925 155.063 577.186 Q 155.693 577.446 155.735 577.609 Q 155.778 577.772 155.930 578.225 Q 156.082 578.679 155.957 578.777 Q 155.833 578.875 155.685 579.295 Q 155.538 579.715 154.791 580.974 Q 154.044 582.233 152.342 583.172 Q 151.042 582.791 150.749 580.801 Q 150.457 578.811 150.790 577.662 Q 151.124 576.514 151.398 576.140 Q 151.672 575.766 152.151 575.578 Q 152.631 575.389 152.637 575.342 Q 152.642 575.295 153.499 575.373 Q 154.355 575.451 154.698 575.920 Q 155.041 576.388 155.525 576.781 Q 156.009 577.173 152.342 580.283 Q 151.820 579.884 151.387 578.047 Q 150.954 576.209 153.231 573.506 Q 153.547 573.539 154.871 574.032 Q 156.195 574.526 156.487 575.316 Q 156.780 576.107 157.395 576.866 Q 158.010 577.626 160.342 578.506 Q 159.916 579.364 156.231 582.394 Q 155.709 582.406 155.553 581.105 Q 155.398 579.803 155.895 578.764 Q 156.392 577.726 156.903 577.452 Q 157.414 577.178 157.777 577.158 Q 158.139 577.137 158.463 577.162 Q 158.787 577.186 159.208 577.402 Q 159.630 577.618 159.561 577.543 Q 159.492 577.468 159.792 577.760 Q 160.093 578.053 160.392 578.439 Q 160.692 578.826 160.570 578.800 Q 160.447 578.773 160.576 578.685 Q 160.705 578.597 160.172 580.165 Q 159.638 581.732 157.675 583.394 Q 157.152 582.818 156.988 582.502 Q 156.824 582.186 157.031 581.127 Q 157.238 580.069 157.857 579.316 Q 158.475 578.564 158.931 578.048 Q 159.386 577.533 160.180 578.216 Q 160.973 578.900 160.816 579.686 Q 160.659 580.472 160.283 580.875 Q 159.908 581.277 158.675 582.950 Q 158.545 583.633 156.786 580.283 Q 156.897 580.283 157.009 580.283 "></path>
    <path id="STROKE_47f124fd-b771-418e-859a-da3d8c399394" opacity="1.000" fill="none" stroke="#ffb352" stroke-width="1.600" stroke-opacity="1.000" stroke-linecap="round" stroke-linejoin="round" d="M 166.286 504.633 Q 166.424 504.909 166.563 505.186 Q 166.424 505.324 166.286 505.462 Q 166.615 505.420 165.267 504.663 Q 163.919 503.905 162.626 503.768 Q 161.333 503.632 160.278 503.615 Q 159.223 503.598 156.746 503.576 Q 154.268 503.553 150.208 503.910 Q 146.148 504.267 144.295 504.764 Q 142.441 505.260 141.387 505.405 Q 140.332 505.550 135.976 507.233 Q 131.619 508.917 127.961 509.949 Q 124.302 510.981 121.813 511.623 Q 119.324 512.265 116.035 513.445 Q 112.746 514.624 110.259 515.990 Q 107.772 517.355 106.398 518.316 Q 105.024 519.278 104.229 520.232 Q 103.433 521.186 101.999 522.215 Q 100.565 523.244 99.809 523.711 Q 99.052 524.178 98.464 524.731 Q 97.876 525.284 97.800 525.400 Q 97.724 525.516 94.983 527.902 Q 92.242 530.287 89.219 533.238 Q 86.197 536.189 84.458 539.382 Q 82.719 542.574 82.001 544.414 Q 81.284 546.254 80.646 547.158 Q 80.008 548.063 79.506 548.962 Q 79.004 549.861 78.588 549.861 Q 78.171 549.861 75.985 555.645 Q 73.799 561.429 72.934 564.727 Q 72.069 568.026 70.953 570.641 Q 69.838 573.257 69.094 574.978 Q 68.350 576.700 66.843 581.475 Q 65.335 586.251 64.820 589.309 Q 64.305 592.368 64.070 595.792 Q 63.835 599.217 63.439 600.870 Q 63.043 602.522 63.467 604.282 Q 63.891 606.042 63.899 607.066 Q 63.907 608.090 64.346 610.949 Q 64.784 613.808 65.128 615.507 Q 65.472 617.206 65.544 617.912 Q 65.615 618.619 65.461 619.504 Q 65.306 620.389 65.865 621.709 Q 66.423 623.029 66.364 623.516 Q 66.305 624.002 67.277 626.126 Q 68.249 628.250 71.552 634.934 Q 74.855 641.618 77.153 645.870 Q 79.451 650.122 80.391 651.993 Q 81.332 653.864 82.851 655.867 Q 84.370 657.870 85.099 658.558 Q 85.828 659.246 86.067 659.444 Q 86.306 659.642 86.408 659.656 Q 86.509 659.670 87.108 660.037 Q 87.706 660.405 88.922 661.208 Q 90.138 662.011 91.001 662.480 Q 91.863 662.948 92.415 663.222 Q 92.967 663.497 94.138 664.246 Q 95.309 664.996 96.177 665.512 Q 97.045 666.028 98.239 666.607 Q 99.433 667.186 101.301 668.145 Q 103.169 669.104 104.311 669.818 Q 105.453 670.531 106.626 670.953 Q 107.799 671.374 109.638 672.244 Q 111.476 673.114 112.734 673.732 Q 113.993 674.351 115.178 674.613 Q 116.363 674.875 117.053 675.040 Q 117.743 675.205 118.786 675.649 Q 119.829 676.094 121.619 676.109 Q 123.409 676.123 124.164 676.393 Q 124.919 676.664 125.247 676.829 Q 125.574 676.994 127.784 677.163 Q 129.994 677.332 133.104 677.982 Q 136.214 678.632 139.396 678.661 Q 142.578 678.691 144.213 678.503 Q 145.847 678.315 150.688 677.648 Q 155.530 676.982 158.632 676.251 Q 161.735 675.520 163.292 674.922 Q 164.849 674.323 166.227 674.015 Q 167.606 673.707 168.637 673.634 Q 169.668 673.561 171.861 672.601 Q 174.054 671.641 175.222 671.074 Q 176.391 670.508 177.080 670.196 Q 177.769 669.884 177.989 669.745 Q 178.209 669.606 178.246 669.783 Q 178.282 669.960 181.504 668.925 Q 184.727 667.890 188.286 665.184 Q 191.846 662.478 193.773 661.211 Q 195.700 659.944 198.782 656.707 Q 201.863 653.470 203.445 651.460 Q 205.026 649.449 206.292 647.954 Q 207.559 646.460 208.211 645.372 Q 208.863 644.283 209.986 643.258 Q 211.109 642.233 212.406 639.864 Q 213.704 637.496 215.569 634.637 Q 217.435 631.777 219.030 625.952 Q 220.625 620.126 221.208 616.389 Q 221.792 612.653 222.335 608.147 Q 222.879 603.640 223.265 601.328 Q 223.651 599.016 223.519 597.546 Q 223.387 596.075 223.566 595.202 Q 223.744 594.329 223.702 592.714 Q 223.659 591.099 223.832 587.666 Q 224.004 584.234 223.705 578.180 Q 223.405 572.126 223.257 569.479 Q 223.108 566.833 222.540 564.464 Q 221.972 562.095 221.839 559.524 Q 221.705 556.953 221.303 555.512 Q 220.900 554.070 220.617 553.409 Q 220.333 552.748 220.102 552.089 Q 219.870 551.430 219.772 549.646 Q 219.675 547.863 218.790 546.250 Q 217.906 544.637 217.369 543.621 Q 216.832 542.606 216.238 540.815 Q 215.643 539.024 214.854 537.515 Q 214.064 536.007 213.515 535.144 Q 212.966 534.282 212.390 533.678 Q 211.814 533.073 211.208 531.700 Q 210.603 530.327 208.539 528.259 Q 206.474 526.192 204.680 524.320 Q 202.886 522.448 201.831 521.240 Q 200.776 520.033 200.369 519.450 Q 199.961 518.867 199.870 518.777 Q 199.779 518.688 199.737 518.683 Q 199.696 518.678 198.843 517.312 Q 197.990 515.947 195.752 513.443 Q 193.514 510.940 191.356 508.757 Q 189.198 506.574 187.952 505.485 Q 186.706 504.396 185.314 504.105 Q 183.922 503.815 182.691 503.295 Q 181.460 502.775 180.392 502.987 Q 179.324 503.200 179.276 503.095 Q 179.228 502.991 179.233 502.987 Q 179.238 502.984 179.348 503.062 Q 179.457 503.139 171.812 503.804 "></path>
    <path id="STROKE_99b11523-a832-436b-91a6-1103443a2a75" opacity="1.000" fill="none" stroke="#71c047" stroke-width="1.600" stroke-opacity="1.000" stroke-linecap="round" stroke-linejoin="round" d="M 157.998 544.416 Q 158.347 543.545 158.345 543.844 Q 158.343 544.143 158.219 543.337 Q 158.095 542.530 157.923 541.956 Q 157.751 541.381 157.494 540.585 Q 157.237 539.789 156.959 539.599 Q 156.682 539.409 156.245 539.035 Q 155.809 538.660 155.668 538.573 Q 155.527 538.485 155.766 538.518 Q 156.006 538.550 154.694 537.909 Q 153.383 537.269 152.176 537.140 Q 150.968 537.011 150.389 537.218 Q 149.810 537.424 150.000 537.419 Q 150.189 537.414 148.938 537.791 Q 147.686 538.168 145.655 539.259 Q 143.625 540.349 142.716 541.422 Q 141.808 542.494 141.342 542.640 Q 140.876 542.785 139.929 544.584 Q 138.981 546.382 138.571 547.222 Q 138.161 548.061 138.037 548.602 Q 137.913 549.142 137.865 549.697 Q 137.816 550.252 137.588 550.599 Q 137.360 550.946 137.436 550.693 Q 137.513 550.440 136.566 552.473 Q 135.619 554.505 134.505 557.820 Q 133.390 561.135 133.073 563.299 Q 132.756 565.463 132.603 566.421 Q 132.449 567.379 132.818 567.949 Q 133.187 568.520 133.142 568.601 Q 133.097 568.682 132.983 569.172 Q 132.869 569.661 132.793 570.904 Q 132.718 572.146 132.696 572.630 Q 132.675 573.114 132.604 574.547 Q 132.533 575.980 132.411 576.879 Q 132.288 577.778 132.155 578.596 Q 132.022 579.413 132.020 579.735 Q 132.018 580.056 132.005 580.906 Q 131.991 581.757 131.963 582.380 Q 131.934 583.004 131.910 583.600 Q 131.886 584.196 131.801 584.653 Q 131.715 585.110 131.739 585.533 Q 131.763 585.955 131.751 586.740 Q 131.738 587.526 131.742 587.025 Q 131.745 586.525 131.848 590.168 Q 131.950 593.812 132.168 596.991 Q 132.386 600.171 132.700 602.835 Q 133.014 605.500 132.898 607.479 Q 132.782 609.457 132.802 610.415 Q 132.821 611.373 132.873 610.865 Q 132.924 610.356 133.175 613.918 Q 133.427 617.479 133.218 621.809 Q 133.009 626.140 133.187 628.840 Q 133.365 631.541 133.559 632.764 Q 133.752 633.988 133.705 634.598 Q 133.659 635.209 133.693 635.542 Q 133.728 635.875 133.732 635.757 Q 133.735 635.639 134.046 641.768 Q 134.356 647.896 134.544 650.823 Q 134.732 653.751 135.106 655.426 Q 135.479 657.102 135.570 657.896 Q 135.661 658.690 135.634 659.089 Q 135.607 659.489 135.571 659.659 Q 135.534 659.830 135.593 660.255 Q 135.652 660.680 135.657 660.630 Q 135.661 660.580 135.857 660.957 Q 136.053 661.334 136.098 661.471 Q 136.142 661.608 136.135 661.634 Q 136.129 661.660 136.256 662.153 Q 136.383 662.645 136.532 663.057 Q 136.681 663.468 136.660 663.408 Q 136.638 663.348 136.683 663.394 Q 136.729 663.440 136.824 664.870 Q 136.920 666.299 137.343 667.168 Q 137.766 668.036 138.004 668.884 Q 138.241 669.731 138.433 670.231 Q 138.625 670.730 138.650 670.767 Q 138.675 670.804 138.578 670.565 Q 138.480 670.327 139.903 674.193 Q 141.166 674.169 141.008 674.331 Q 142.209 675.533 142.239 675.532 Q 142.269 675.531 142.177 675.504 Q 142.086 675.477 143.087 675.575 Q 144.088 675.673 145.371 675.364 Q 146.654 675.056 147.827 675.229 Q 148.999 675.402 149.326 675.600 Q 149.653 675.798 150.800 674.767 Q 151.946 673.736 153.730 672.536 Q 155.515 671.335 158.669 668.331 Q 161.824 665.326 163.200 664.314 Q 164.576 663.302 165.912 660.841 Q 167.249 658.381 167.927 657.071 Q 168.605 655.761 168.949 654.883 Q 169.294 654.004 169.625 652.767 Q 169.956 651.530 170.350 650.789 Q 170.743 650.048 170.945 649.639 Q 171.147 649.229 171.418 648.713 Q 171.690 648.196 171.772 647.961 Q 171.854 647.726 171.739 647.778 Q 171.624 647.831 172.303 645.685 Q 172.982 643.540 173.732 642.193 Q 174.482 640.845 174.852 640.015 Q 175.223 639.185 175.698 637.828 Q 176.173 636.471 176.978 634.953 Q 177.783 633.434 178.004 632.338 Q 178.226 631.241 179.127 628.262 Q 180.029 625.284 180.526 622.362 Q 181.022 619.440 181.832 615.070 Q 182.641 610.700 183.042 608.423 Q 183.442 606.147 183.399 601.890 Q 183.357 597.632 183.798 593.001 Q 184.239 588.369 184.129 586.089 Q 184.019 583.809 184.082 582.892 Q 184.146 581.975 183.995 580.170 Q 183.844 578.366 183.552 576.637 Q 183.261 574.908 183.455 574.538 Q 183.649 574.169 182.864 572.262 Q 182.079 570.354 181.733 568.414 Q 181.386 566.473 181.013 565.567 Q 180.640 564.661 180.395 564.368 Q 180.149 564.074 180.067 563.864 Q 179.984 563.653 180.089 563.150 Q 180.194 562.647 179.694 560.782 Q 179.194 558.918 178.739 557.878 Q 178.284 556.838 177.872 556.403 Q 177.461 555.968 177.267 555.269 Q 177.073 554.569 177.253 555.003 Q 177.433 555.436 176.519 554.301 Q 175.606 553.165 175.047 552.093 Q 174.488 551.021 174.125 550.448 Q 173.761 549.876 173.583 549.730 Q 173.404 549.585 173.449 549.737 Q 173.493 549.890 172.994 548.958 Q 172.495 548.027 163.247 539.719 "></path>
  </g>
</svg>