<?xml version="1.0" encoding="utf-8"?>
<svg xmlns="http://www.w3.org/2000/svg" xmlns:xlink="http://www.w3.org/1999/xlink" version= "1.1" width="700px" height="700px" viewBox="930 432 700 700">
<g id="layer1">
<g style="fill:rgb(255,255,255); fill-opacity:1.0; stroke-linejoin: miter">
<path d="M1824.182,450.84558L1824.182,450.84558Q1791.1091,472.029,1778.9944,484.1348C1778.9437,484.1854,1778.8906,484.23352,1778.8353,484.2789L1778.8353,484.2789Q1764.3368,496.17297,1731.942,537.03516C1731.9031,537.0843,1731.8623,537.13135,1731.8193,537.177L1731.8193,537.177Q1721.86,547.74115,1717.1418,551.3299L1717.1727,551.30585Q1696.9602,567.25867,1687.4342,557.5337C1686.5872,556.669,1686.6014,555.2814,1687.4662,554.4343C1688.3309,553.5873,1689.7185,553.6016,1690.5656,554.4663L1690.5656,554.4663Q1697.3359,561.37805,1714.4572,547.86505L1714.488,547.841Q1718.9193,544.4705,1728.6299,534.17017L1728.5072,534.312Q1761.194,493.08142,1776.055,480.88998L1775.896,481.0341Q1788.346,468.59338,1821.8177,447.15442C1822.837,446.50156,1824.1926,446.7986,1824.8455,447.8179C1825.4983,448.8372,1825.2013,450.19272,1824.182,450.84558 Z"/>
</g>
<g style="fill:rgb(255,255,255); fill-opacity:1.0; stroke-linejoin: miter">
</g>
<g style="fill:rgb(255,255,255); fill-opacity:1.0; stroke-linejoin: miter">
</g>
<g style="fill:rgb(255,255,255); fill-opacity:1.0; stroke-linejoin: miter">
</g>
<g style="fill:rgb(255,255,255); fill-opacity:1.0; stroke-linejoin: miter">
</g>
<g style="fill:rgb(255,255,255); fill-opacity:1.0; stroke-linejoin: miter">
</g>
<g style="fill:rgb(255,255,255); fill-opacity:1.0; stroke-linejoin: miter">
</g>
<g style="fill:rgb(255,255,255); fill-opacity:1.0; stroke-linejoin: miter">
</g>
<g style="fill:rgb(255,255,255); fill-opacity:1.0; stroke-linejoin: miter">
</g>
<g style="fill:rgb(255,255,255); fill-opacity:1.0; stroke-linejoin: miter">
</g>
<g style="fill:rgb(255,255,255); fill-opacity:1.0; stroke-linejoin: miter">
</g>
<g style="fill:rgb(255,255,255); fill-opacity:1.0; stroke-linejoin: miter">
</g>
<g style="fill:rgb(255,255,255); fill-opacity:1.0; stroke-linejoin: miter">
</g>
<g style="fill:rgb(255,255,255); fill-opacity:1.0; stroke-linejoin: miter">
</g>
<g style="fill:rgb(255,255,255); fill-opacity:1.0; stroke-linejoin: miter">
</g>
<g style="fill:rgb(255,255,255); fill-opacity:1.0; stroke-linejoin: miter">
</g>
<g style="fill:rgb(255,255,255); fill-opacity:1.0; stroke-linejoin: miter">
</g>
<g style="fill:rgb(255,255,255); fill-opacity:1.0; stroke-linejoin: miter">
</g>
<g style="fill:rgb(255,255,255); fill-opacity:1.0; stroke-linejoin: miter">
</g>
<g style="fill:rgb(255,255,255); fill-opacity:1.0; stroke-linejoin: miter">
</g>
<g style="fill:rgb(255,255,255); fill-opacity:1.0; stroke-linejoin: miter">
</g>
<g style="fill:rgb(255,255,255); fill-opacity:1.0; stroke-linejoin: miter">
</g>
<g style="fill:rgb(255,255,255); fill-opacity:1.0; stroke-linejoin: miter">
</g>
<g style="fill:rgb(255,255,255); fill-opacity:1.0; stroke-linejoin: miter">
</g>
<g style="fill:rgb(255,255,255); fill-opacity:1.0; stroke-linejoin: miter">
</g>
<g style="fill:rgb(255,255,255); fill-opacity:1.0; stroke-linejoin: miter">
</g>
<g style="fill:rgb(255,255,255); fill-opacity:1.0; stroke-linejoin: miter">
</g>
<g style="fill:rgb(255,255,255); fill-opacity:1.0; stroke-linejoin: miter">
</g>
<g style="fill:rgb(255,255,255); fill-opacity:1.0; stroke-linejoin: miter">
</g>
<g style="fill:rgb(255,255,255); fill-opacity:1.0; stroke-linejoin: miter">
<path d="M1701.387,780.1475L1701.387,780.1475L1701.8317,779.25824C1702.26,778.4017,1703.3018,778.0545,1704.1583,778.48285C1705.0149,778.9112,1705.362,779.9528,1704.9337,780.8094L1704.9337,780.8094L1704.489,781.69867C1704.0607,782.55524,1703.0189,782.9024,1702.1624,782.47406C1701.3058,782.0457,1700.9586,781.0041,1701.387,780.1475 Z"/>
</g>
<g style="fill:rgb(255,255,255); fill-opacity:1.0; stroke-linejoin: miter">
</g>
<g style="fill:rgb(255,255,255); fill-opacity:1.0; stroke-linejoin: miter">
</g>
<g style="fill:rgb(255,255,255); fill-opacity:1.0; stroke-linejoin: miter">
</g>
<g style="fill:rgb(255,255,255); fill-opacity:1.0; stroke-linejoin: miter">
</g>
<g style="fill:rgb(255,255,255); fill-opacity:1.0; stroke-linejoin: miter">
</g>
<g style="fill:rgb(255,255,255); fill-opacity:1.0; stroke-linejoin: miter">
</g>
<g style="fill:rgb(255,255,255); fill-opacity:1.0; stroke-linejoin: miter">
</g>
<g style="fill:rgb(255,255,255); fill-opacity:1.0; stroke-linejoin: miter">
</g>
<g style="fill:rgb(255,255,255); fill-opacity:1.0; stroke-linejoin: miter">
</g>
<g style="fill:rgb(255,255,255); fill-opacity:1.0; stroke-linejoin: miter">
</g>
<g style="fill:rgb(255,255,255); fill-opacity:1.0; stroke-linejoin: miter">
</g>
<g style="fill:rgb(255,255,255); fill-opacity:1.0; stroke-linejoin: miter">
</g>
<g style="fill:rgb(255,255,255); fill-opacity:1.0; stroke-linejoin: miter">
</g>
<g style="fill:rgb(255,255,255); fill-opacity:1.0; stroke-linejoin: miter">
</g>
<g style="fill:rgb(255,255,255); fill-opacity:1.0; stroke-linejoin: miter">
</g>
<g style="fill:rgb(255,255,255); fill-opacity:1.0; stroke-linejoin: miter">
</g>
<g style="fill:rgb(255,255,255); fill-opacity:1.0; stroke-linejoin: miter">
</g>
<g style="fill:rgb(255,255,255); fill-opacity:1.0; stroke-linejoin: miter">
</g>
<g style="fill:rgb(254,254,254); fill-opacity:1.0; stroke-linejoin: miter">
<path d="M1419.3502,490.08298L1424.0752,490.2031Q1454.0433,491.52246,1486.5741,510.62842Q1531.5447,541.1852,1552.2357,572.2451Q1563.5647,596.09827,1562.9574,632.01495Q1565.5505,635.8862,1548.7156,702.67114Q1525.2756,750.1765,1474.9364,816.1415Q1463.5588,835.4235,1432.2712,923.02094Q1405.6287,963.9607,1397.0627,970.6568Q1343.8075,1028.1062,1223.9332,1028.062Q1189.1029,1025.6672,1174.9773,1018.75696Q1168.9691,1016.381,1163.4973,1013.4092Q1151.0747,1002.4231,1131.6694,992.87695Q1095.316,976.6655,1072.2368,971.2623L1050.3237,955.01514Q1030.3201,913.88403,1029.4858,876.66394Q1029.2078,864.2571,1031.0597,852.28503Q1033.8986,828.22363,1042.1318,801.38696Q1055.798,761.45703,1089.4999,717.23364Q1098.1521,707.01953,1117.168,690.8229L1207.9746,633.88184L1217.32,624.8996Q1234.8214,607.01306,1237.554,601.4542Q1253.4823,551.7379,1266.5868,540.274Q1281.8038,527.1449,1290.9116,525.26044Q1299.1212,523.2394,1303.8655,523.73737Q1302.001,531.99854,1306.0151,531.0878L1322.3127,520.66705Q1324.8866,521.7714,1361.4703,510.31018Q1390.7725,492.88934,1395.6665,492.10455L1419.3502,490.08298 M1419.3473,487.625L1417.4005,487.6455Q1391.9006,489.03094,1392.2405,491.08472Q1381.3822,495.3298,1360.4535,508.065Q1325.1243,519.2344,1321.4602,518.30566L1305.7031,528.496L1306.3254,523.92145Q1312.7078,525.62335,1310.3574,522.03235Q1303.5767,520.01587,1290.3077,522.8612Q1280.6238,524.8939,1265.083,538.3544Q1251.29,550.52246,1235.3372,600.3861Q1227.0209,612.2192,1215.5144,623.22986L1206.5264,631.8961L1115.7719,688.7991Q1096.4288,705.23334,1087.5999,715.67126Q1053.5865,760.28534,1039.7821,800.6649Q1031.4542,827.8699,1028.6079,852.05225Q1026.7368,864.2256,1027.0283,876.8307Q1027.8231,914.5229,1048.3988,956.59546L1071.1107,973.46875Q1118.0956,987.5709,1130.4447,995.0088Q1149.6086,1004.3961,1162.1376,1015.45917Q1167.7753,1018.54675,1173.9001,1020.97424Q1199.9835,1030.7811,1229.1222,1030.5496Q1342.3387,1030.5496,1398.891,972.3048Q1407.5857,965.4929,1434.5127,924.0431Q1456.3207,860.25146,1477.0066,817.4603Q1539.2323,733.16547,1551.0457,703.45154Q1568.0358,636.17444,1565.4163,631.9863Q1566.0696,595.4787,1554.2793,570.8777Q1488.7542,487.72116,1419.3473,487.625 Z"/>
</g>
<g style="fill:rgb(255,255,255); fill-opacity:1.0; stroke-linejoin: miter">
</g>
<g style="fill:rgb(254,254,254); fill-opacity:1.0; stroke-linejoin: miter">
<path d="M1310.3678,806.00323C1310.338,806.00323,1310.3082,806.00433,1310.2786,806.00653Q1307.5452,806.20667,1305.8871,808.93915L1305.874,808.9401Q1302.7534,809.92,1301.6866,813.7705L1301.667,813.85187Q1300.9406,817.396,1301.9073,819.7873L1301.8944,819.78827Q1301.8383,821.1008,1302.0426,822.351C1302.0544,822.4236,1302.0728,822.49475,1302.0974,822.564Q1302.81,824.57117,1304.1716,825.17224L1304.1669,825.1732Q1305.5048,825.8529,1306.5824,825.8529Q1307.1858,825.8529,1307.7076,825.63947L1307.6945,825.64044Q1307.8942,825.5837,1308.1187,825.4893L1308.1317,825.4903Q1308.4999,825.55444,1308.887,825.55444Q1309.7466,825.55444,1310.7002,825.23334C1310.7964,825.201,1310.8881,825.1568,1310.9734,825.10187Q1311.4259,824.8105,1311.85,824.4763L1311.8369,824.4773Q1312.1224,824.359,1312.4164,824.2216L1312.4315,824.2144Q1314.7273,823.1034,1315.8544,820.5905L1315.8412,820.5915Q1317.3727,820.1018,1318.0891,818.70215C1318.1211,818.63965,1318.1477,818.5744,1318.1686,818.5073Q1319.2603,814.9999,1318.2747,813.0043C1318.2347,812.9234,1318.186,812.8472,1318.1294,812.77704Q1317.4645,811.95233,1316.7318,811.5254L1316.7186,811.52637Q1316.6595,811.4397,1316.5962,811.35675L1316.583,811.3577Q1315.4976,806.406,1310.4655,806.00714C1310.433,806.0046,1310.4004,806.00323,1310.3678,806.00323 Z"/>
</g>
<g style="fill:rgb(255,255,255); fill-opacity:1.0; stroke-linejoin: miter">
</g>
<g style="fill:rgb(255,255,255); fill-opacity:1.0; stroke-linejoin: miter">
</g>
<g style="fill:rgb(255,255,255); fill-opacity:1.0; stroke-linejoin: miter">
</g>
<g style="fill:rgb(255,255,255); fill-opacity:1.0; stroke-linejoin: miter">
</g>
<g style="fill:rgb(255,255,255); fill-opacity:1.0; stroke-linejoin: miter">
</g>
<g style="fill:rgb(255,255,255); fill-opacity:1.0; stroke-linejoin: miter">
</g>
<g style="fill:rgb(255,255,255); fill-opacity:1.0; stroke-linejoin: miter">
</g>
<g style="fill:rgb(28,151,23); fill-opacity:1.0; stroke-linejoin: miter">
</g>
<g style="fill:rgb(255,255,255); fill-opacity:1.0; stroke-linejoin: miter">
</g>
<g style="fill:rgb(255,255,255); fill-opacity:1.0; stroke-linejoin: miter">
</g>
<g style="fill:rgb(28,151,23); fill-opacity:1.0; stroke-linejoin: miter">
</g>
<g style="fill:rgb(255,255,255); fill-opacity:1.0; stroke-linejoin: miter">
</g>
<g style="fill:rgb(255,255,255); fill-opacity:1.0; stroke-linejoin: miter">
</g>
<g style="fill:rgb(255,255,255); fill-opacity:1.0; stroke-linejoin: miter">
</g>
<g style="fill:rgb(254,254,254); fill-opacity:1.0; stroke-linejoin: miter">
<path d="M1339.6548,738.87994L1339.7703,738.92Q1340.196,739.0685,1340.1884,739.0681Q1340.203,739.0504,1340.2772,738.96826Q1340.2838,738.96875,1340.2905,738.96924Q1340.165,738.9486,1339.9207,738.9132Q1339.6677,738.8781,1339.6548,738.87994 Z"/>
</g>
<g style="fill:rgb(255,255,255); fill-opacity:1.0; stroke-linejoin: miter">
</g>
<g style="fill:rgb(255,255,255); fill-opacity:1.0; stroke-linejoin: miter">
</g>
<g style="fill:rgb(254,254,254); fill-opacity:1.0; stroke-linejoin: miter">
</g>
<g style="fill:rgb(255,255,255); fill-opacity:1.0; stroke-linejoin: miter">
</g>
<g style="fill:rgb(255,255,255); fill-opacity:1.0; stroke-linejoin: miter">
</g>
<g style="fill:rgb(255,255,255); fill-opacity:1.0; stroke-linejoin: miter">
</g>
<g style="fill:rgb(255,255,255); fill-opacity:1.0; stroke-linejoin: miter">
</g>
<g style="fill:rgb(254,254,254); fill-opacity:1.0; stroke-linejoin: miter">
<path d="M1330.5515,799.5522C1329.718,799.5522,1328.9775,800.1468,1328.8224,800.9959Q1328.7008,801.661,1328.6796,802.0146L1328.6776,802.0146L1328.6774,802.0169Q1328.6515,802.29474,1328.6362,803.0768L1328.6334,803.0768Q1328.627,803.1504,1328.6173,803.22626L1328.6173,803.22675Q1328.5867,803.46796,1328.5234,803.72565L1328.5233,803.72565Q1328.3263,804.4914,1328.0269,805.37665L1328.026,805.37665Q1327.867,805.7967,1327.576,806.2817L1327.5404,806.34406L1327.5404,806.34406C1327.089,807.1685,1327.3662,808.2094,1328.1793,808.69714C1328.4585,808.8646,1328.7655,808.9456,1329.0704,808.9456C1329.6758,808.9456,1330.2731,808.62646,1330.6293,808.0307L1330.63,808.02936L1330.6315,808.02936Q1331.0822,807.26685,1331.3463,806.54535L1331.3608,806.5041Q1331.7057,805.48425,1331.937,804.5818L1331.9414,804.56415Q1332.0525,804.11127,1332.1085,803.6705L1332.1085,803.67096Q1332.137,803.4479,1332.1515,803.22687L1332.155,803.1456Q1332.1663,802.5744,1332.1783,802.38806L1332.176,802.38806C1332.1836,802.3376,1332.1888,802.28613,1332.1907,802.2567L1332.1906,802.2567Q1332.1906,802.2567,1332.1915,802.2424L1332.1926,802.22504Q1332.2008,802.087,1332.2845,801.6286C1332.4592,800.67255,1331.8259,799.75586,1330.8699,799.5812C1330.763,799.56165,1330.6565,799.5522,1330.5515,799.5522 Z"/>
</g>
<g style="fill:rgb(254,254,254); fill-opacity:1.0; stroke-linejoin: miter">
<path d="M1329.9644,781.3372C1329.6051,781.3372,1329.2426,781.44684,1328.9299,781.6745C1328.1443,782.2466,1327.9713,783.34717,1328.5433,784.1328Q1328.892,784.6116,1329.038,785.36566L1329.0541,785.4399Q1329.2649,786.32263,1329.328,786.8603L1329.3296,786.8734L1329.3298,786.87537L1329.3376,786.9307Q1329.3767,787.1786,1329.3961,788.2082L1329.4012,788.3131Q1329.422,788.5772,1329.4656,788.8262L1329.4788,788.894Q1329.5848,789.38617,1329.7056,789.7098L1329.7056,789.7098Q1329.8108,789.992,1329.9501,790.2111L1329.9504,790.2118C1330.2859,790.7386,1330.855,791.02655,1331.4365,791.02655C1331.7599,791.02655,1332.087,790.9375,1332.38,790.751C1333.1482,790.26184,1333.4084,789.27606,1333.009,788.4799L1333.0032,788.4799Q1332.9762,788.40753,1332.9341,788.2201L1332.9324,788.2201Q1332.9258,788.18225,1332.9205,788.14166L1332.9149,788.14166Q1332.8922,786.9399,1332.8224,786.43884L1332.822,786.43884L1332.8218,786.4369L1332.8218,786.4369Q1332.7368,785.72266,1332.4948,784.6966L1332.4933,784.6966Q1332.1984,783.1737,1331.3883,782.06116C1331.044,781.58813,1330.5079,781.3372,1329.9644,781.3372 Z"/>
</g>
<g style="fill:rgb(254,254,254); fill-opacity:1.0; stroke-linejoin: miter">
<path d="M1330.3516,766.82715L1330.3082,766.82764Q1330.0645,766.8295,1329.5598,767.0127L1329.8602,766.8992L1329.8469,766.8992Q1329.4543,767.02686,1329.3931,767.07074Q1328.9713,767.2767,1328.6782,767.6201Q1327.9808,767.5505,1327.2406,767.8981Q1326.3259,768.44403,1325.8448,769.4259Q1324.6287,773.51154,1324.5613,773.5296Q1324.5037,773.8548,1324.5654,774.1762Q1324.7133,774.7278,1324.8984,774.91626L1324.8488,775.0374L1323.4293,775.83624Q1323.2429,775.9426,1323.0924,776.08466Q1322.635,776.52637,1322.5525,777.14703Q1322.4984,778.06213,1323.0226,778.578Q1323.5272,779.11017,1324.3259,779.1251Q1324.5664,779.1227,1324.8795,779.0394Q1325.5372,778.8589,1326.0413,778.63794Q1326.385,778.63574,1326.7065,778.5037Q1326.9673,778.38135,1327.0123,778.33984Q1327.4207,777.98987,1327.47,777.9797L1328.3947,777.5129L1328.3813,777.5129Q1328.9521,777.29785,1329.5383,777.044Q1330.2366,776.72815,1330.4603,776.5713Q1330.8075,776.4558,1331.5128,776.10767Q1331.8663,775.95636,1332.736,775.31213Q1333.1743,775.19165,1333.5322,774.93384Q1333.9375,774.62726,1334.043,774.4467Q1334.5345,774.1552,1334.6031,774.04474Q1334.7654,773.8782,1334.877,773.6798Q1335.1014,773.27734,1335.1044,772.81647Q1335.0542,772.2485,1334.9711,772.1426Q1334.7878,771.7294,1334.5332,771.52856Q1334.4215,771.19214,1334.2983,770.9754Q1333.5928,769.7595,1333.0323,768.9312Q1331.7081,766.78455,1330.3516,766.82715"/>
</g>
<g style="fill:rgb(254,254,254); fill-opacity:1.0; stroke-linejoin: miter">
<path d="M1315.9233,750.0738L1315.7499,750.0807Q1314.8265,750.10046,1313.3226,751.35974Q1312.4432,752.1984,1311.923,753.3275Q1311.588,754.065,1311.3937,755.77185Q1311.3103,756.76306,1311.4541,757.89355Q1311.3206,758.55206,1311.3134,759.2601Q1311.3062,759.9681,1311.4254,760.72546Q1311.6906,762.38934,1312.968,763.3231Q1314.0305,764.0428,1315.2463,764.00635Q1315.9167,764.8403,1316.7944,765.2068Q1317.3545,765.4683,1318.1897,765.46515Q1319.448,765.3654,1320.3396,764.7042Q1320.866,764.349,1321.2324,763.9362Q1321.9044,763.20264,1322.1234,762.7761Q1323.1637,762.318,1323.9259,761.4981Q1325.4133,759.76984,1325.2273,757.60864Q1324.9744,756.3626,1324.3484,755.3058Q1323.959,754.594,1323.2523,753.77014L1323.0405,753.2233Q1322.8097,752.7009,1322.5026,752.2761Q1322.1956,751.8513,1321.8121,751.52405Q1321.0454,750.8696,1319.9738,750.6055Q1318.7529,750.3374,1317.5391,750.71954Q1316.5819,750.00604,1315.9233,750.0738"/>
</g>
<g style="fill:rgb(254,254,254); fill-opacity:1.0; stroke-linejoin: miter">
<path d="M1307.6798,763.6734C1307.6844,763.67426,1307.6891,763.6751,1307.6938,763.67596L1307.6799,763.67694Q1307.6733,763.6747,1307.6667,763.6734 Z"/>
</g>
<g style="fill:rgb(254,254,254); fill-opacity:1.0; stroke-linejoin: miter">
<path d="M1307.8324,760.14246Q1307.051,760.14246,1306.3163,760.7612C1306.2428,760.8231,1306.1746,760.89087,1306.1122,760.9639Q1305.5667,761.60223,1305.3724,761.7605L1305.3599,761.7615Q1304.3972,762.4131,1304.0732,762.6928Q1303.9388,762.8089,1303.8389,762.9204L1303.7866,762.9814Q1303.3801,763.4788,1303.013,763.85815C1302.988,763.8571,1302.9633,763.85657,1302.9384,763.85657C1302.3728,763.85657,1301.8174,764.1288,1301.4774,764.6332Q1301.2064,765.0354,1301.0635,765.32135Q1300.2609,766.92633,1301.6016,767.82983Q1302.0808,768.15295,1302.6025,768.15295Q1303.1443,768.15295,1303.7317,767.8045L1303.7319,767.8043Q1303.9178,767.694,1304.1456,767.5268L1304.1451,767.5278Q1305.2147,766.7693,1306.3975,765.3472L1306.3844,765.3482Q1306.5315,765.2237,1307.0344,764.8782L1307.0475,764.87915Q1307.0801,765.1343,1307.116,765.4253C1307.1241,765.49164,1307.136,765.5571,1307.1516,765.62213Q1307.2128,765.8763,1307.2932,766.12506C1307.3068,766.1669,1307.322,766.2085,1307.3386,766.2492Q1307.6533,767.01965,1307.7092,767.20886L1307.6998,767.20984C1307.7034,767.22504,1307.7072,767.24115,1307.7112,767.25726Q1307.7122,767.2614,1307.7122,767.2614L1307.7123,767.2624Q1307.7635,767.48816,1307.662,768.1337C1307.5109,769.09375,1308.1664,769.99457,1309.1265,770.14575C1309.2192,770.16034,1309.3114,770.1674,1309.4023,770.1674C1310.2535,770.1674,1311.0021,769.5485,1311.1385,768.6812Q1311.3188,767.5368,1311.1886,766.7143L1311.1754,766.7153Q1311.1678,766.589,1311.144,766.4598L1311.139,766.46075Q1311.1323,766.4309,1311.1274,766.4113L1311.1346,766.4123Q1311.1143,766.31274,1311.0845,766.2119L1311.0842,766.21094Q1310.9803,765.8599,1310.6102,764.9518L1310.6035,764.95276Q1310.3354,762.7812,1310.1813,762.19275Q1310.1372,762.0245,1310.0804,761.883L1310.0801,761.884Q1309.9854,761.64246,1309.8809,761.4454L1309.8806,761.445Q1309.3967,760.53253,1308.5834,760.27673L1308.5703,760.2777Q1308.1963,760.14246,1307.8324,760.14246 Z"/>
</g>
<g style="fill:rgb(254,254,254); fill-opacity:1.0; stroke-linejoin: miter">
<path d="M1315.4197,832.3716L1315.4197,832.3716C1315.4827,832.37854,1315.546,832.3821,1315.6095,832.3822L1315.6095,832.3822Q1315.5099,832.382,1315.4172,832.3731L1315.404,832.3731Q1315.4053,832.3724,1315.4065,832.3716 Z M1315.3856,838.51605Q1315.3857,838.51605,1315.3857,838.5161L1315.3856,838.5161L1315.3856,838.51605 Z M1315.1895,832.54596C1315.2391,832.587,1315.291,832.6252,1315.345,832.6605Q1315.6665,832.87115,1316.0184,832.96484L1316.0052,832.96484Q1316.3179,833.0773,1316.6261,833.0773Q1317.2189,833.0773,1317.7952,832.66144L1317.8083,832.66144Q1317.8209,832.70416,1317.8341,832.75433L1317.8342,832.7545C1317.8478,832.80634,1317.8639,832.85785,1317.8822,832.9083L1317.869,832.9083Q1317.9337,833.5253,1317.6929,835.622L1317.6853,835.7075L1317.6853,835.7075L1317.685,835.70966Q1317.6631,835.9073,1317.4142,836.39874L1317.4082,836.39874Q1316.6487,837.6324,1315.599,838.53723L1315.5858,838.53723Q1315.5641,838.55096,1315.5454,838.56116L1315.5454,838.56116Q1315.514,838.55505,1315.4877,838.54877L1315.4745,838.54877Q1314.8297,837.6509,1314.3419,836.33685L1314.3289,836.33685Q1313.8158,833.9997,1314.6006,833.1786C1314.6403,833.13715,1314.678,833.0935,1314.7134,833.0484Q1314.9553,832.73975,1315.1763,832.54596 Z M1317.627,828.1973C1317.1609,828.1973,1316.6957,828.3814,1316.3496,828.74634C1316.2869,828.81256,1316.2302,828.8824,1316.1797,828.95514L1316.1797,828.95514Q1315.7489,828.7965,1315.3041,828.7965Q1315.018,828.7965,1314.7261,828.8621C1314.6746,828.8737,1314.6237,828.8876,1314.5734,828.90375Q1313.1257,829.36914,1311.9436,830.877L1311.9363,830.877Q1309.9978,833.0523,1310.8967,837.11597C1310.9124,837.1866,1310.9323,837.256,1310.9564,837.32416Q1311.657,839.2993,1312.6836,840.6949L1312.6798,840.6949Q1313.1133,841.3327,1313.8746,841.69464L1313.8746,841.6946Q1314.3987,841.9437,1315.0734,842.05096L1315.0719,842.05096Q1315.3274,842.0943,1315.5839,842.0943Q1316.0864,842.0943,1316.593,841.92786L1316.5931,841.92786Q1317.2089,841.7255,1317.8027,841.2789L1317.8936,841.20575Q1319.4218,839.8894,1320.494,838.0975C1320.5153,838.0621,1320.5352,838.0258,1320.5538,837.9891Q1321.0898,836.93085,1321.1826,836.1001L1321.1826,836.1001Q1321.1869,836.0616,1321.1903,836.02374L1321.1892,836.02374Q1321.5094,833.2374,1321.3192,832.189L1321.3192,832.189Q1321.2878,832.01587,1321.2415,831.8604L1321.2382,831.8604Q1321.0623,831.1904,1320.7826,830.70496L1320.7823,830.7046Q1320.5575,830.3145,1320.2596,830.02856L1320.2518,830.02106L1318.8373,828.68C1318.497,828.35736,1318.0615,828.1973,1317.627,828.1973 Z"/>
</g>
<g style="fill:rgb(255,255,255); fill-opacity:1.0; stroke-linejoin: miter">
</g>
<g style="fill:rgb(255,255,255); fill-opacity:1.0; stroke-linejoin: miter">
<path d="M1374.6954,707.0466Q1374.7018,707.0466,1374.708,707.04663L1374.683,707.04663Q1374.6892,707.0466,1374.6954,707.0466 Z M1374.6777,707.04675C1374.1606,707.05365,1373.6785,707.28723,1373.3528,707.67566L1373.3528,707.67566Q1373.7217,707.0569,1374.664,707.04675 Z M1268.8561,759.7171Q1268.53,760.25,1267.6566,760.32324L1267.656,760.32324C1268.129,760.2836,1268.5502,760.0579,1268.8434,759.7171 Z M1333.1052,695.07764Q1348.8228,695.07764,1360.4941,701.28235L1360.4893,701.28235Q1370.9529,707.58405,1373.0176,709.2706L1373.0038,709.2706C1373.0518,709.4459,1373.1272,709.6152,1373.23,709.7718L1383.1135,724.8334C1383.1694,724.91864,1383.2328,724.99896,1383.3026,725.07324Q1387.9406,730.0064,1385.6569,756.1917L1385.6556,756.1917Q1383.907,770.24176,1381.9489,773.752L1381.935,773.7772L1371.4784,793.26294C1371.4218,793.3684,1371.3762,793.4791,1371.3422,793.5939Q1370.2367,797.3148,1354.1855,807.1065L1354.1499,807.12885Q1347.482,811.41833,1334.1001,811.41833Q1327.6587,811.41833,1319.6617,810.4245C1319.5898,810.4155,1319.5173,810.4111,1319.445,810.4111C1319.4071,810.4111,1319.3693,810.4123,1319.3315,810.41473Q1319.1145,810.4287,1318.8685,810.4287Q1313.6558,810.4287,1295.4243,804.14716L1295.4114,804.14716Q1291.3989,802.1081,1286.7844,798.3364L1286.7716,798.3364Q1283.369,794.71387,1281.2607,791.57306L1281.2504,791.57306L1271.8965,774.02875L1271.8837,774.02875Q1269.3274,763.29535,1269.0518,760.0009L1269.0518,760.0008Q1269.0259,759.69226,1269.0211,759.4913L1269.0084,759.4913C1269.1289,759.2954,1269.2124,759.07355,1269.2488,758.8351Q1276.245,712.97845,1294.6074,712.97845Q1295.1797,712.97845,1295.7631,713.023C1295.8086,713.0265,1295.8539,713.0282,1295.8989,713.0282C1296.8099,713.0282,1297.5813,712.32587,1297.6517,711.4024C1297.7257,710.43335,1297.0001,709.5878,1296.0311,709.51385Q1295.2875,709.4571,1294.5599,709.4571Q1294.2434,709.4571,1293.9298,709.46783L1293.9298,709.46783Q1304.1055,700.0066,1306.6708,699.33966L1306.6663,699.33966L1325.0787,695.4588L1325.0654,695.4588Q1329.2096,695.07764,1333.1052,695.07764 Z M1333.1097,691.558Q1329.013,691.558,1324.6635,691.9615C1324.5962,691.9677,1324.5292,691.9779,1324.4631,691.9918L1305.9404,695.89594L1305.8955,695.906Q1302.4557,696.72565,1291.4312,706.9855C1290.7197,707.6476,1290.6797,708.76105,1291.3418,709.4725C1291.4233,709.56006,1291.5116,709.63745,1291.6052,709.7046L1291.5923,709.7046Q1272.8071,712.9147,1265.8546,757.7511L1265.8419,757.7511Q1265.6292,758.1451,1265.5477,758.7033L1265.5477,758.70337Q1265.4612,759.29736,1265.5447,760.2945L1265.5447,760.2945Q1265.8448,763.88116,1268.5024,775.0219C1268.5372,775.16797,1268.5907,775.30896,1268.6614,775.44147L1278.1449,793.2288C1278.1715,793.2787,1278.2004,793.3273,1278.2317,793.3744Q1280.5331,796.8402,1284.2426,800.7845C1284.2942,800.83936,1284.3492,800.89087,1284.4075,800.93866Q1289.4489,805.0801,1293.9032,807.3284C1293.974,807.3642,1294.0474,807.39514,1294.1223,807.421Q1313.033,813.94446,1318.9745,813.94446Q1319.1813,813.94446,1319.3723,813.9366L1319.3855,813.9366Q1327.403,814.925,1333.9823,814.925Q1348.5026,814.925,1356.0192,810.111L1356.0183,810.111Q1372.765,799.8949,1374.6249,794.8682L1374.6111,794.8682L1385.0361,775.4414L1385.0364,775.4414Q1387.3253,771.3034,1389.1562,756.5615L1389.163,756.4975Q1391.5481,729.14746,1386.0316,722.8443L1386.0177,722.8443L1376.6421,708.55664L1376.6283,708.55664Q1376.5725,707.88556,1376.0366,707.2861L1376.0365,707.28595Q1374.5823,705.6596,1362.2279,698.22107L1362.1462,698.1748Q1349.6996,691.558,1333.1097,691.558 Z"/>
</g>
<g style="fill:rgb(52,244,44); fill-opacity:1.0; stroke-linejoin: miter">
</g>
<g style="fill:rgb(52,244,44); fill-opacity:1.0; stroke-linejoin: miter">
<path d="M1358.3467,703.2166L1358.3146,703.2169Q1358.0568,703.2088,1357.5498,703.3746Q1356.6368,703.12555,1355.8213,703.35925Q1354.531,703.69867,1353.6178,704.4982Q1353.3295,704.7606,1353.3049,704.8018Q1352.8107,705.37054,1352.4324,705.94366Q1352.0541,706.5167,1351.7919,707.0941Q1351.2675,708.249,1351.207,709.42126Q1351.131,710.48236,1351.6469,711.59894Q1352.1086,712.49,1352.7427,712.9202Q1352.75,713.0283,1353.0283,713.4828Q1353.0726,713.58014,1353.4277,713.98114Q1353.7054,714.27966,1354.16,714.57007Q1354.0596,714.49915,1354.599,715.0581L1354.9874,715.41235Q1355.3804,715.743,1355.7913,715.9792Q1355.9855,716.1563,1357.0646,716.4751Q1357.4696,716.5698,1358.0243,716.5691Q1358.4663,716.57764,1359.2731,716.395L1359.9231,716.15155L1360.502,715.7995L1361.0099,715.3388L1361.4467,714.7695Q1361.8479,714.1459,1362.107,713.30505L1362.3307,712.4099Q1362.5167,711.53876,1362.5687,710.1372Q1362.5533,708.8365,1362.4235,708.46985L1362.0948,707.2145L1361.9403,706.7682Q1361.7748,706.3379,1361.5648,705.97156Q1361.1566,705.2426,1360.5251,704.75525Q1360.2577,704.2089,1359.881,703.86005Q1359.3823,703.4593,1359.2476,703.43396Q1358.7075,703.2028,1358.3467,703.2166"/>
</g>
<g style="fill:rgb(52,244,44); fill-opacity:1.0; stroke-linejoin: miter">
<path d="M1367.8542,710.164Q1365.9608,710.164,1365.3798,712.0542L1365.3024,712.56964L1365.3457,712.2346L1365.3322,712.2346Q1364.9293,713.915,1365.8242,715.2691C1366.1626,715.7812,1366.7228,716.0588,1367.294,716.0588C1367.4518,716.0588,1367.6105,716.0376,1367.7656,715.99426L1367.7793,715.99426Q1367.5842,716.89545,1367.3011,718.311L1367.2986,718.311Q1367.1562,718.84503,1366.8304,719.5833L1366.83,719.5833Q1366.5092,720.29474,1366.7808,721.1311C1366.8357,721.30035,1366.9161,721.4604,1367.019,721.6056Q1367.5085,722.29584,1368.3687,722.4065C1368.4432,722.4161,1368.5183,722.4209,1368.5933,722.4209C1368.6908,722.4209,1368.7882,722.4128,1368.8846,722.3966Q1369.0784,722.3641,1369.1846,722.35364L1369.1984,722.35364Q1369.3794,722.4024,1369.8131,722.6194L1369.8115,722.6194Q1370.2166,722.8258,1370.7115,722.8258Q1370.9297,722.8258,1371.1653,722.7857L1371.1663,722.7855Q1371.3118,722.7607,1371.4792,722.71936C1371.6837,722.6689,1371.8774,722.58215,1372.0513,722.46326Q1373.6984,721.33636,1373.8951,719.0811C1373.9796,718.1129,1373.2632,717.2596,1372.295,717.1751C1372.243,717.1706,1372.1913,717.16833,1372.1401,717.16833C1371.7311,717.16833,1371.3496,717.3102,1371.0472,717.5505L1371.0472,717.5505Q1371.1632,716.9918,1371.2546,716.5745L1371.2546,716.5745L1371.2722,716.4904Q1371.4904,715.2942,1371.2776,714.22955L1371.2709,714.1979Q1370.9003,712.5064,1370.5891,711.8378L1370.5891,711.8378Q1370.554,711.7623,1370.5172,711.69275L1370.5172,711.6928C1370.479,711.6204,1370.4357,711.55066,1370.3877,711.48425Q1370.2113,711.24023,1370.0178,711.0415L1370.0178,711.0415Q1369.1661,710.16675,1368.0808,710.16675Q1368.0498,710.16675,1368.0186,710.1675L1368.0186,710.1675Q1367.9352,710.164,1367.8542,710.164 Z"/>
</g>
<g style="fill:rgb(255,255,255); fill-opacity:1.0; stroke-linejoin: miter">
<path d="M1325.1887,727.7499C1324.682,727.7499,1324.1792,727.96765,1323.8312,728.38885Q1322.9741,729.4262,1322.1285,730.932L1322.1215,730.9447Q1321.8678,731.4053,1321.6833,731.8157L1321.6665,731.8542L1321.6655,731.8565L1321.6401,731.92017Q1321.3842,732.6012,1320.5859,734.3142C1320.5623,734.365,1320.5411,734.41675,1320.5225,734.46954Q1320.3298,735.01294,1320.242,735.564C1320.2349,735.60846,1320.2295,735.65265,1320.2258,735.6975Q1320.1018,737.2112,1320.0068,737.87964L1319.9983,737.94946Q1319.9031,738.8866,1320.0219,739.95465C1320.122,740.8545,1320.8839,741.52,1321.7687,741.52C1321.8336,741.52,1321.8992,741.5164,1321.9652,741.5091C1322.9312,741.40173,1323.6271,740.5316,1323.5197,739.56573Q1323.4471,738.913,1323.4933,738.3749L1323.4912,738.3749Q1323.5963,737.6361,1323.7224,736.11835L1323.7173,736.11835Q1323.7423,735.9613,1323.7893,735.80066L1323.7761,735.80066Q1324.5983,734.03613,1324.9104,733.2222L1324.9092,733.2222L1324.9102,733.2199L1324.9108,733.2199Q1325.0289,732.96173,1325.1973,732.6553L1325.1971,732.6553Q1325.8887,731.424,1326.5443,730.6303C1327.1633,729.8811,1327.0577,728.772,1326.3085,728.153C1325.9805,727.882,1325.5834,727.7499,1325.1887,727.7499 Z"/>
</g>
<g style="fill:rgb(255,255,255); fill-opacity:1.0; stroke-linejoin: miter">
<path d="M1337.8644,715.2943C1337.7202,715.2943,1337.5737,715.31213,1337.4276,715.3495Q1335.5607,715.8264,1334.6545,716.66705L1334.6545,716.66705Q1334.369,716.93195,1334.1656,717.2381L1334.1532,717.2381Q1333.0999,718.53235,1331.2723,721.39923L1331.2686,721.39923Q1331.0155,721.74414,1330.7772,721.98236C1330.0898,722.66943,1330.0897,723.7836,1330.7769,724.47095C1331.1205,724.8147,1331.5709,724.9866,1332.0214,724.9866C1332.4717,724.9866,1332.9219,724.8148,1333.2655,724.4714Q1333.736,724.0011,1334.1882,723.3678L1334.2401,723.29095Q1336.0591,720.4374,1336.9783,719.3444C1337.0115,719.30493,1337.0431,719.2637,1337.2122,718.7594L1337.2258,718.7594L1337.0973,719.18524Q1337.0696,719.2269,1337.0492,719.2463L1337.0492,719.2463Q1337.3,719.01447,1338.2987,718.7594C1339.2404,718.51886,1339.8087,717.56055,1339.5681,716.6189C1339.3649,715.82336,1338.6494,715.2943,1337.8644,715.2943 Z"/>
</g>
<g style="fill:rgb(255,255,255); fill-opacity:1.0; stroke-linejoin: miter">
<path d="M1344.037,708.9015C1343.8956,708.9015,1343.752,708.91864,1343.6085,708.9545C1342.6658,709.1904,1342.0928,710.14594,1342.3286,711.08875Q1342.3522,711.18286,1342.3724,711.2802L1342.359,711.2802Q1341.8783,711.94214,1342.0371,712.8974L1342.0309,712.8974Q1342.0547,713.10516,1342.1104,713.3199C1342.1288,713.3908,1342.1515,713.4606,1342.1786,713.5286Q1342.4254,714.1492,1342.5183,714.51794L1342.5182,714.51794Q1342.6188,714.95123,1342.6709,715.43976L1342.6707,715.43976Q1342.6726,715.456,1342.6747,715.4721C1342.6946,715.63025,1342.7349,715.7809,1342.7926,715.9217L1342.7792,715.9217L1342.5217,717.4173C1342.3568,718.37506,1342.9996,719.28516,1343.9574,719.45C1344.0583,719.4674,1344.1588,719.4758,1344.2579,719.4758C1344.3993,719.4758,1344.5377,719.45874,1344.6711,719.4263L1344.6846,719.4263Q1345.0719,719.6354,1345.484,719.6354Q1346.1251,719.6354,1346.8265,719.1294L1346.8265,719.1294Q1347.4525,718.678,1348.5195,717.4124C1348.5507,717.3754,1348.5801,717.33746,1348.6082,717.29803Q1349.5852,715.92444,1349.8335,714.98737Q1349.9761,714.4496,1349.9216,713.96277L1349.9174,713.96277Q1349.8186,712.66986,1348.8573,711.79504L1348.8573,711.79504Q1348.5283,711.49567,1348.109,711.2658L1348.109,711.2658C1348.049,711.23285,1347.9869,711.2034,1347.9233,711.17773Q1346.6835,710.67615,1345.8047,710.43976L1345.7913,710.43976Q1345.7682,710.33636,1345.7427,710.2345C1345.5427,709.43506,1344.8253,708.9015,1344.037,708.9015 Z"/>
</g>
</g>
</svg>