<?xml version="1.0" encoding="utf-8"?>
<svg xmlns="http://www.w3.org/2000/svg" xmlns:xlink="http://www.w3.org/1999/xlink" version= "1.1" width="700px" height="700px" viewBox="930 432 700 700">
<g id="layer1">
<g style="fill:rgb(255,255,255); fill-opacity:1.0; stroke-linejoin: miter">
<path d="M1824.182,450.84558L1824.182,450.84558Q1791.1091,472.029,1778.9944,484.1348C1778.9437,484.1854,1778.8906,484.23352,1778.8353,484.2789L1778.8353,484.2789Q1764.3368,496.17297,1731.942,537.03516C1731.9031,537.0843,1731.8623,537.13135,1731.8193,537.177L1731.8193,537.177Q1721.86,547.74115,1717.1418,551.3299L1717.1727,551.30585Q1696.9602,567.25867,1687.4342,557.5337C1686.5872,556.669,1686.6014,555.2814,1687.4662,554.4343C1688.3309,553.5873,1689.7185,553.6016,1690.5656,554.4663L1690.5656,554.4663Q1697.3359,561.37805,1714.4572,547.86505L1714.488,547.841Q1718.9193,544.4705,1728.6299,534.17017L1728.5072,534.312Q1761.194,493.08142,1776.055,480.88998L1775.896,481.0341Q1788.346,468.59338,1821.8177,447.15442C1822.837,446.50156,1824.1926,446.7986,1824.8455,447.8179C1825.4983,448.8372,1825.2013,450.19272,1824.182,450.84558 Z"/>
</g>
<g style="fill:rgb(255,255,255); fill-opacity:1.0; stroke-linejoin: miter">
</g>
<g style="fill:rgb(255,255,255); fill-opacity:1.0; stroke-linejoin: miter">
</g>
<g style="fill:rgb(255,255,255); fill-opacity:1.0; stroke-linejoin: miter">
</g>
<g style="fill:rgb(255,255,255); fill-opacity:1.0; stroke-linejoin: miter">
</g>
<g style="fill:rgb(255,255,255); fill-opacity:1.0; stroke-linejoin: miter">
</g>
<g style="fill:rgb(255,255,255); fill-opacity:1.0; stroke-linejoin: miter">
</g>
<g style="fill:rgb(255,255,255); fill-opacity:1.0; stroke-linejoin: miter">
</g>
<g style="fill:rgb(255,255,255); fill-opacity:1.0; stroke-linejoin: miter">
</g>
<g style="fill:rgb(255,255,255); fill-opacity:1.0; stroke-linejoin: miter">
</g>
<g style="fill:rgb(255,255,255); fill-opacity:1.0; stroke-linejoin: miter">
</g>
<g style="fill:rgb(255,255,255); fill-opacity:1.0; stroke-linejoin: miter">
</g>
<g style="fill:rgb(255,255,255); fill-opacity:1.0; stroke-linejoin: miter">
</g>
<g style="fill:rgb(255,255,255); fill-opacity:1.0; stroke-linejoin: miter">
</g>
<g style="fill:rgb(255,255,255); fill-opacity:1.0; stroke-linejoin: miter">
</g>
<g style="fill:rgb(255,255,255); fill-opacity:1.0; stroke-linejoin: miter">
</g>
<g style="fill:rgb(255,255,255); fill-opacity:1.0; stroke-linejoin: miter">
</g>
<g style="fill:rgb(255,255,255); fill-opacity:1.0; stroke-linejoin: miter">
</g>
<g style="fill:rgb(255,255,255); fill-opacity:1.0; stroke-linejoin: miter">
</g>
<g style="fill:rgb(255,255,255); fill-opacity:1.0; stroke-linejoin: miter">
</g>
<g style="fill:rgb(255,255,255); fill-opacity:1.0; stroke-linejoin: miter">
</g>
<g style="fill:rgb(255,255,255); fill-opacity:1.0; stroke-linejoin: miter">
</g>
<g style="fill:rgb(255,255,255); fill-opacity:1.0; stroke-linejoin: miter">
</g>
<g style="fill:rgb(255,255,255); fill-opacity:1.0; stroke-linejoin: miter">
</g>
<g style="fill:rgb(255,255,255); fill-opacity:1.0; stroke-linejoin: miter">
</g>
<g style="fill:rgb(255,255,255); fill-opacity:1.0; stroke-linejoin: miter">
</g>
<g style="fill:rgb(255,255,255); fill-opacity:1.0; stroke-linejoin: miter">
</g>
<g style="fill:rgb(255,255,255); fill-opacity:1.0; stroke-linejoin: miter">
</g>
<g style="fill:rgb(255,255,255); fill-opacity:1.0; stroke-linejoin: miter">
</g>
<g style="fill:rgb(255,255,255); fill-opacity:1.0; stroke-linejoin: miter">
<path d="M1701.387,780.1475L1701.387,780.1475L1701.8317,779.25824C1702.26,778.4017,1703.3018,778.0545,1704.1583,778.48285C1705.0149,778.9112,1705.362,779.9528,1704.9337,780.8094L1704.9337,780.8094L1704.489,781.69867C1704.0607,782.55524,1703.0189,782.9024,1702.1624,782.47406C1701.3058,782.0457,1700.9586,781.0041,1701.387,780.1475 Z"/>
</g>
<g style="fill:rgb(255,255,255); fill-opacity:1.0; stroke-linejoin: miter">
</g>
<g style="fill:rgb(255,255,255); fill-opacity:1.0; stroke-linejoin: miter">
</g>
<g style="fill:rgb(255,255,255); fill-opacity:1.0; stroke-linejoin: miter">
</g>
<g style="fill:rgb(255,255,255); fill-opacity:1.0; stroke-linejoin: miter">
</g>
<g style="fill:rgb(255,255,255); fill-opacity:1.0; stroke-linejoin: miter">
</g>
<g style="fill:rgb(255,255,255); fill-opacity:1.0; stroke-linejoin: miter">
</g>
<g style="fill:rgb(255,255,255); fill-opacity:1.0; stroke-linejoin: miter">
</g>
<g style="fill:rgb(255,255,255); fill-opacity:1.0; stroke-linejoin: miter">
</g>
<g style="fill:rgb(255,255,255); fill-opacity:1.0; stroke-linejoin: miter">
</g>
<g style="fill:rgb(255,255,255); fill-opacity:1.0; stroke-linejoin: miter">
</g>
<g style="fill:rgb(255,255,255); fill-opacity:1.0; stroke-linejoin: miter">
</g>
<g style="fill:rgb(255,255,255); fill-opacity:1.0; stroke-linejoin: miter">
</g>
<g style="fill:rgb(255,255,255); fill-opacity:1.0; stroke-linejoin: miter">
</g>
<g style="fill:rgb(255,255,255); fill-opacity:1.0; stroke-linejoin: miter">
</g>
<g style="fill:rgb(255,255,255); fill-opacity:1.0; stroke-linejoin: miter">
</g>
<g style="fill:rgb(255,255,255); fill-opacity:1.0; stroke-linejoin: miter">
</g>
<g style="fill:rgb(255,255,255); fill-opacity:1.0; stroke-linejoin: miter">
</g>
<g style="fill:rgb(255,255,255); fill-opacity:1.0; stroke-linejoin: miter">
</g>
<g style="fill:rgb(254,254,254); fill-opacity:1.0; stroke-linejoin: miter">
<path d="M1419.3502,490.08298L1424.0752,490.2031Q1461.0035,493.90173,1486.5742,510.6284Q1538.6907,548.03455,1552.2357,572.2451Q1562.1316,588.713,1563.2937,633.652Q1563.6798,643.3068,1548.7156,702.67114Q1516.9119,762.8983,1474.9365,816.1415Q1458.6953,847.7206,1432.2712,923.02094Q1408.5889,959.4118,1399.1895,968.746Q1372.3486,997.1255,1336.6221,1010.34436Q1287.7605,1025.5815,1274.0464,1025.2272Q1250.8164,1028.0619,1223.9332,1028.062Q1192.973,1025.9333,1178.372,1020.2368L1163.4973,1013.4092Q1147.4954,1000.1506,1131.6694,992.87695Q1102.0017,979.13385,1072.2368,971.2623L1050.3237,955.01514Q1032.5427,918.4541,1029.9078,884.98334Q1027.4946,850.6225,1042.1318,801.38696Q1061.1848,752.08014,1089.4999,717.23364Q1095.142,709.9172,1117.168,690.8229L1207.9746,633.88184L1217.3198,624.8996Q1232.8768,609.00037,1236.7644,602.84174Q1255.4326,545.8718,1269.893,537.49524Q1278.4598,529.993,1288.8123,525.81805Q1298.7443,523.14075,1303.8655,523.73737Q1302.0026,532.0044,1306.0151,531.0878L1322.3127,520.66705Q1324.3628,521.90967,1361.4703,510.31018Q1387.5166,494.82495,1394.2776,492.48434L1419.3502,490.08298 M1419.3473,487.625L1417.4005,487.6455Q1401.1604,488.3616,1393.3655,490.20493Q1377.2257,497.70877,1360.4536,508.065Q1324.1282,519.4947,1321.4602,518.30566L1305.7031,528.496L1306.3254,523.92145Q1312.4711,525.7199,1310.3574,522.03235Q1302.8658,519.81323,1288.0835,523.454Q1277.2063,527.81464,1268.4642,535.5043Q1252.8914,545.28784,1235.3373,600.3861Q1227.9447,610.9044,1218.032,620.7728L1206.5264,631.8961L1115.7719,688.7991Q1093.3633,708.182,1087.5999,715.67126Q1059.0243,750.8154,1039.7821,800.6649Q1010.8078,891.89136,1048.3988,956.59546L1071.1107,973.46875Q1114.8888,986.95386,1123.2458,991.3739L1142.4834,1001.4532Q1153.7852,1008.08386,1162.1376,1015.45917Q1167.149,1018.20374,1172.545,1020.4266Q1193.4192,1029.7078,1229.1222,1030.5496Q1254.2815,1030.5494,1276.6425,1027.6732Q1330.0964,1017.9658,1337.4293,1012.57275Q1372.678,999.1621,1401.0481,970.3634Q1410.5776,960.88745,1434.5127,924.0431Q1461.0352,848.5385,1477.0066,817.4603Q1547.1477,720.8348,1551.0457,703.45154Q1566.148,643.6497,1565.7563,633.6958Q1564.5854,587.90753,1554.2793,570.8777Q1539.7183,552.39844,1524.9653,538.021Q1510.2124,523.6435,1495.268,513.36774L1480.2756,504.11746Q1450.1947,487.6677,1419.3473,487.625 Z"/>
</g>
<g style="fill:rgb(255,255,255); fill-opacity:1.0; stroke-linejoin: miter">
</g>
<g style="fill:rgb(254,254,254); fill-opacity:1.0; stroke-linejoin: miter">
<path d="M1310.3678,806.0032L1310.3379,806.0035L1310.0283,806.03033Q1309.6747,807.5529,1308.6854,809.13135L1308.0239,810.09686Q1307.3312,811.00836,1306.5149,811.7039L1305.6676,812.34546Q1304.7892,812.93274,1303.7871,813.3044Q1302.7852,813.67584,1301.6589,813.8312Q1301.3407,815.7814,1301.3708,816.0865Q1301.3348,816.78864,1301.3824,817.43396Q1301.4778,818.7244,1301.9073,819.78723Q1301.8435,822.1946,1302.2639,822.9927Q1303.331,825.6198,1306.5824,825.85284Q1307.3475,825.8458,1308.1187,825.48926Q1309.1381,825.7158,1310.7003,825.2333Q1310.8851,825.17126,1311.0735,825.0367Q1311.6714,824.63245,1311.8369,824.4782Q1312.2478,824.36395,1313.3939,823.6515Q1314.2986,823.01935,1314.9727,822.11053Q1315.7711,820.9134,1315.8413,820.5924Q1316.7574,820.3928,1317.7305,819.2793Q1317.8955,819.09375,1318.1578,818.54065Q1318.3949,817.7934,1318.5997,816.8383Q1317.7443,815.7529,1317.2206,814.4862Q1316.5262,812.8186,1316.4626,810.8676L1316.1476,809.9223Q1315.7885,809.0277,1315.2539,808.3356Q1313.6987,806.2614,1310.3678,806.0032 Z"/>
</g>
<g style="fill:rgb(255,255,255); fill-opacity:1.0; stroke-linejoin: miter">
</g>
<g style="fill:rgb(255,255,255); fill-opacity:1.0; stroke-linejoin: miter">
</g>
<g style="fill:rgb(255,255,255); fill-opacity:1.0; stroke-linejoin: miter">
</g>
<g style="fill:rgb(255,255,255); fill-opacity:1.0; stroke-linejoin: miter">
</g>
<g style="fill:rgb(255,255,255); fill-opacity:1.0; stroke-linejoin: miter">
</g>
<g style="fill:rgb(255,255,255); fill-opacity:1.0; stroke-linejoin: miter">
</g>
<g style="fill:rgb(255,255,255); fill-opacity:1.0; stroke-linejoin: miter">
</g>
<g style="fill:rgb(28,151,23); fill-opacity:1.0; stroke-linejoin: miter">
</g>
<g style="fill:rgb(255,255,255); fill-opacity:1.0; stroke-linejoin: miter">
</g>
<g style="fill:rgb(255,255,255); fill-opacity:1.0; stroke-linejoin: miter">
</g>
<g style="fill:rgb(28,151,23); fill-opacity:1.0; stroke-linejoin: miter">
</g>
<g style="fill:rgb(255,255,255); fill-opacity:1.0; stroke-linejoin: miter">
</g>
<g style="fill:rgb(255,255,255); fill-opacity:1.0; stroke-linejoin: miter">
</g>
<g style="fill:rgb(255,255,255); fill-opacity:1.0; stroke-linejoin: miter">
</g>
<g style="fill:rgb(254,254,254); fill-opacity:1.0; stroke-linejoin: miter">
</g>
<g style="fill:rgb(254,254,254); fill-opacity:1.0; stroke-linejoin: miter">
</g>
<g style="fill:rgb(255,255,255); fill-opacity:1.0; stroke-linejoin: miter">
</g>
<g style="fill:rgb(255,255,255); fill-opacity:1.0; stroke-linejoin: miter">
</g>
<g style="fill:rgb(254,254,254); fill-opacity:1.0; stroke-linejoin: miter">
</g>
<g style="fill:rgb(255,255,255); fill-opacity:1.0; stroke-linejoin: miter">
</g>
<g style="fill:rgb(255,255,255); fill-opacity:1.0; stroke-linejoin: miter">
</g>
<g style="fill:rgb(255,255,255); fill-opacity:1.0; stroke-linejoin: miter">
</g>
<g style="fill:rgb(255,255,255); fill-opacity:1.0; stroke-linejoin: miter">
</g>
<g style="fill:rgb(254,254,254); fill-opacity:1.0; stroke-linejoin: miter">
</g>
<g style="fill:rgb(254,254,254); fill-opacity:1.0; stroke-linejoin: miter">
</g>
<g style="fill:rgb(254,254,254); fill-opacity:1.0; stroke-linejoin: miter">
</g>
<g style="fill:rgb(254,254,254); fill-opacity:1.0; stroke-linejoin: miter">
</g>
<g style="fill:rgb(254,254,254); fill-opacity:1.0; stroke-linejoin: miter">
</g>
<g style="fill:rgb(254,254,254); fill-opacity:1.0; stroke-linejoin: miter">
</g>
<g style="fill:rgb(254,254,254); fill-opacity:1.0; stroke-linejoin: miter">
</g>
<g style="fill:rgb(255,255,255); fill-opacity:1.0; stroke-linejoin: miter">
</g>
<g style="fill:rgb(255,255,255); fill-opacity:1.0; stroke-linejoin: miter">
<path d="M1309.0564,808.4931L1308.835,808.8832Q1307.9332,810.4144,1306.766,811.48236Q1310.2842,812.46497,1310.8085,812.5758Q1312.0459,812.88696,1313.1431,813.12726Q1315.3368,813.60767,1316.968,813.807Q1316.7068,813.0106,1316.5813,812.1775Q1316.4252,811.0079,1316.4324,810.20624Q1315.1841,810.01215,1313.5907,809.6522L1311.9115,809.25073Q1311.5305,809.16595,1309.0564,808.4931"/>
</g>
<g style="fill:rgb(255,255,255); fill-opacity:1.0; stroke-linejoin: miter">
<path d="M1316.968,813.806L1316.9681,813.80615L1316.968,813.8071L1316.9681,813.8063L1316.968,813.80725L1316.9683,813.8065L1316.9681,813.8075L1316.9683,813.8066L1316.9683,813.8069L1316.9684,813.80695L1316.9684,813.807L1316.9684,813.806L1316.968,813.807 Z"/>
</g>
<g style="fill:rgb(52,244,44); fill-opacity:1.0; stroke-linejoin: miter">
</g>
<g style="fill:rgb(255,255,255); fill-opacity:1.0; stroke-linejoin: miter">
</g>
<g style="fill:rgb(255,255,255); fill-opacity:1.0; stroke-linejoin: miter">
</g>
<g style="fill:rgb(255,255,255); fill-opacity:1.0; stroke-linejoin: miter">
</g>
<g style="fill:rgb(255,255,255); fill-opacity:1.0; stroke-linejoin: miter">
</g>
<g style="fill:rgb(255,255,255); fill-opacity:1.0; stroke-linejoin: miter">
</g>
<g style="fill:rgb(255,255,255); fill-opacity:1.0; stroke-linejoin: miter">
</g>
<g style="fill:rgb(255,255,255); fill-opacity:1.0; stroke-linejoin: miter">
</g>
<g style="fill:rgb(255,255,255); fill-opacity:1.0; stroke-linejoin: miter">
</g>
<g style="fill:rgb(255,255,255); fill-opacity:1.0; stroke-linejoin: miter">
</g>
<g style="fill:rgb(255,255,255); fill-opacity:1.0; stroke-linejoin: miter">
</g>
<g style="fill:rgb(255,255,255); fill-opacity:1.0; stroke-linejoin: miter">
<path d="M1307.7931,816.56555L1307.793,816.56586L1307.7816,816.56586Q1307.7816,816.56573,1307.7816,816.56555 Z M1309.5918,811.04913C1309.2052,811.04913,1308.8269,811.17694,1308.5193,811.4125L1308.5062,811.4125Q1306.781,812.5032,1306.2494,813.00684L1306.2494,813.00684Q1306.1599,813.0915,1306.0848,813.1748L1306.0802,813.1748Q1305.0131,814.2308,1304.624,815.0349L1304.6229,815.0371Q1304.5895,815.10645,1304.5605,815.1738L1304.5597,815.1738Q1304.5118,815.2783,1304.4717,815.38214L1304.4714,815.38275Q1303.9215,816.80743,1304.7565,817.9028L1304.8329,817.99603Q1305.7036,818.9892,1306.6372,818.9892Q1307.4291,818.9892,1308.266,818.27484C1308.3176,818.23083,1308.3668,818.18365,1308.413,818.134Q1309.4088,817.06195,1311.0443,813.8308L1311.0442,813.8308L1311.0657,813.7889L1311.0525,813.7889C1311.091,813.73157,1311.1257,813.67224,1311.1569,813.61127L1311.1566,813.61127C1311.5996,812.7462,1311.2574,811.6859,1310.3925,811.2429C1310.1357,811.11145,1309.8617,811.04913,1309.5918,811.04913 Z"/>
</g>
<g style="fill:rgb(255,255,255); fill-opacity:1.0; stroke-linejoin: miter">
<path d="M1304.6818,813.60986L1304.6818,813.60986L1305.1641,812.9153C1305.7184,812.117,1306.815,811.9192,1307.6132,812.4735C1308.4114,813.02783,1308.6093,814.1243,1308.0549,814.9226L1308.0549,814.9226L1307.5726,815.6172C1307.0183,816.41547,1305.9218,816.6133,1305.1235,816.05896C1304.3253,815.50464,1304.1274,814.40814,1304.6818,813.60986 Z"/>
</g>
<g style="fill:rgb(255,255,255); fill-opacity:1.0; stroke-linejoin: miter">
<path d="M1317.2074,812.1941L1317.2058,812.23706L1317.2054,812.23804L1317.2072,812.1941 Z M1307.8499,805.8899Q1307.4028,805.8899,1306.9283,806.0465L1306.9282,806.0475Q1306.6128,806.1506,1306.2717,806.3325L1306.2587,806.3335Q1305.9797,806.40594,1305.6907,806.5382L1305.6852,806.5392Q1305.2208,806.73804,1304.8837,807.1226L1304.8707,807.1236Q1304.5128,807.32556,1304.2135,807.6613L1304.2134,807.6623Q1303.7737,808.1437,1303.4481,808.7075L1303.435,808.7085C1303.3314,808.79974,1303.2393,808.9039,1303.1602,809.01776Q1302.2871,810.2744,1302.2549,812.4849C1302.2543,812.5296,1302.2554,812.57367,1302.258,812.6183Q1302.3398,813.9521,1302.5552,814.78644L1302.5421,814.7874Q1302.5436,814.9008,1302.5452,815.01855L1302.5472,815.0844Q1302.5605,815.34503,1302.5972,815.5672L1302.5972,815.5682Q1302.804,816.82446,1303.7982,817.278L1303.7982,817.279C1304.0125,817.37573,1304.2441,817.42944,1304.4795,817.43604Q1304.5197,817.43713,1304.5592,817.43713Q1305.2937,817.43713,1305.8584,817.0522L1305.8715,817.05316Q1305.9042,817.05316,1305.9371,817.05316Q1306.5366,817.05316,1307.1832,816.72687L1307.1832,816.7268Q1307.4288,816.60284,1307.6903,816.41833L1307.7035,816.4193C1308.0338,816.75726,1308.4882,816.9497,1308.9633,816.9497C1309.0011,816.9497,1309.0391,816.9485,1309.0771,816.946L1309.0902,816.94696Q1309.047,817.4289,1309.1306,817.9363L1309.1428,818.0022Q1309.3524,819.0291,1309.7944,819.7106L1309.7944,819.71155Q1310.1841,820.3112,1310.7144,820.6441L1310.7012,820.6451Q1310.6748,822.8662,1313.0366,823.1544L1313.0369,823.1554Q1313.1188,823.1644,1313.202,823.1707L1313.2024,823.1717C1313.2465,823.174,1313.2906,823.17566,1313.3347,823.17566C1313.4397,823.17566,1313.5446,823.16626,1313.6478,823.14764L1313.661,823.1486Q1313.7493,823.1582,1313.8405,823.1582Q1314.3375,823.1582,1314.9221,822.8441L1315.0131,822.79175Q1316.5544,821.84125,1316.9617,819.90186C1316.9778,819.8253,1316.9886,819.748,1316.9944,819.67Q1317.0433,819.00824,1316.9386,818.4354L1316.9254,818.4364Q1316.9363,818.41364,1316.9469,818.39154L1316.9469,818.3916Q1316.9578,818.369,1316.9685,818.3459L1316.9553,818.34686Q1317.0134,818.26855,1317.0695,818.1858L1317.0695,818.1857Q1317.6764,817.2893,1317.9309,815.65295L1317.9349,815.62585Q1318.1425,814.14014,1317.943,813.2413L1317.943,813.24097Q1317.7559,812.39813,1317.2296,811.89465L1317.2164,811.8956Q1317.2161,811.8677,1317.2153,811.841L1317.2152,811.8389Q1317.2106,811.68353,1317.1925,811.53656L1317.1925,811.5372Q1316.925,809.35565,1314.9147,809.35565Q1314.6769,809.35565,1314.4147,809.3862L1314.4015,809.3872Q1313.9666,809.4272,1313.5999,809.6467L1313.5999,809.6477Q1313.3369,809.3344,1313.0284,809.0111L1312.9758,808.9583Q1312.7891,808.7784,1312.5732,808.64667L1312.5732,808.64764Q1312.4216,808.5541,1312.2697,808.48566L1312.2566,808.48663Q1311.9631,808.05,1311.5105,807.7122Q1311.1755,807.4623,1310.7594,807.2763L1310.7463,807.2773Q1309.8329,806.1376,1308.3457,805.93713L1308.3326,805.9381Q1308.0955,805.8899,1307.8499,805.8899 Z"/>
</g>
<g style="fill:rgb(255,255,255); fill-opacity:1.0; stroke-linejoin: miter">
</g>
<g style="fill:rgb(255,255,255); fill-opacity:1.0; stroke-linejoin: miter">
</g>
<g style="fill:rgb(255,255,255); fill-opacity:1.0; stroke-linejoin: miter">
</g>
<g style="fill:rgb(255,255,255); fill-opacity:1.0; stroke-linejoin: miter">
</g>
<g style="fill:rgb(255,255,255); fill-opacity:1.0; stroke-linejoin: miter">
</g>
<g style="fill:rgb(255,255,255); fill-opacity:1.0; stroke-linejoin: miter">
</g>
<g style="fill:rgb(255,255,255); fill-opacity:1.0; stroke-linejoin: miter">
</g>
<g style="fill:rgb(255,255,255); fill-opacity:1.0; stroke-linejoin: miter">
</g>
<g style="fill:rgb(255,255,255); fill-opacity:1.0; stroke-linejoin: miter">
</g>
<g style="fill:rgb(255,255,255); fill-opacity:1.0; stroke-linejoin: miter">
</g>
<g style="fill:rgb(255,255,255); fill-opacity:1.0; stroke-linejoin: miter">
</g>
<g style="fill:rgb(255,255,255); fill-opacity:1.0; stroke-linejoin: miter">
</g>
<g style="fill:rgb(255,255,255); fill-opacity:1.0; stroke-linejoin: miter">
</g>
<g style="fill:rgb(255,255,255); fill-opacity:1.0; stroke-linejoin: miter">
</g>
<g style="fill:rgb(255,255,255); fill-opacity:1.0; stroke-linejoin: miter">
</g>
<g style="fill:rgb(255,255,255); fill-opacity:1.0; stroke-linejoin: miter">
</g>
<g style="fill:rgb(255,255,255); fill-opacity:1.0; stroke-linejoin: miter">
</g>
<g style="fill:rgb(255,255,255); fill-opacity:1.0; stroke-linejoin: miter">
</g>
<g style="fill:rgb(255,255,255); fill-opacity:1.0; stroke-linejoin: miter">
</g>
<g style="fill:rgb(255,255,255); fill-opacity:1.0; stroke-linejoin: miter">
</g>
<g style="fill:rgb(0,0,0); fill-opacity:1.0; stroke-linejoin: miter">
</g>
<g style="fill:rgb(247,24,21); fill-opacity:1.0; stroke-linejoin: miter">
</g>
<g style="fill:rgb(34,247,21); fill-opacity:1.0; stroke-linejoin: miter">
</g>
<g style="fill:rgb(255,152,0); fill-opacity:1.0; stroke-linejoin: miter">
</g>
<g style="fill:rgb(255,152,0); fill-opacity:1.0; stroke-linejoin: miter">
<path d="M1309.4663,791.40533L1309.4663,791.40533Q1306.0973,790.52985,1305.4696,790.5017L1305.4698,790.5017Q1306.637,790.55383,1306.9723,789.26465L1306.9738,789.25885Q1307.1868,788.42816,1306.6498,787.7873C1307.007,788.2136,1307.1359,788.7864,1306.9956,789.3246C1306.8553,789.8628,1306.4634,790.29987,1305.9435,790.4976L1305.9435,790.4976L1298.1174,793.4746L1298.162,793.457Q1297.8208,793.5978,1297.616,793.79785L1297.709,793.6995Q1293.2413,798.81055,1292.4628,799.47906L1292.463,799.4789Q1291.2278,800.54004,1290.0891,799.5457L1290.0878,799.5446Q1289.1168,798.695,1289.6652,797.4857L1292.4863,799.369Q1287.5785,804.62146,1288.4546,815.9225L1288.4545,815.9206Q1288.9557,822.29205,1289.8969,825.5807L1289.8665,825.48517Q1291.5988,830.42834,1295.0022,834.3839L1294.9185,834.29333Q1296.135,835.5174,1296.5355,835.72766L1296.5354,835.7276Q1296.4785,835.6977,1296.374,835.6716C1296.4587,835.6928,1296.5417,835.72034,1296.6223,835.7542L1296.6223,835.7542L1305.2728,839.3878L1305.1273,839.3343Q1308.6798,840.46216,1312.57,840.003L1312.2312,840.07825Q1317.8297,838.2247,1321.2378,836.1836L1320.906,836.4423L1328.0006,829.3529L1327.7107,829.7381Q1329.1432,827.14307,1329.9106,825.235L1329.8198,825.53925L1329.8201,825.538L1329.8141,825.56995Q1330.6826,820.7554,1330.492,816.5526L1330.4913,816.53705Q1330.2728,810.517,1329.7609,808.7217L1329.8054,808.85675Q1327.7631,803.4402,1325.5898,800.8331C1325.5625,800.8003,1325.5365,800.7667,1325.5116,800.73193L1325.48,800.686L1325.479,800.6845L1325.5106,800.73047Q1321.2607,794.78345,1319.9148,793.6736L1319.9937,793.73486Q1316.3452,791.0668,1313.3264,790.902C1312.3785,790.8503,1311.6521,790.04,1311.7039,789.09216C1311.7556,788.14435,1312.5658,787.4179,1313.5137,787.4696L1313.5137,787.4696Q1317.5513,787.68994,1322.023,790.9602L1322.1018,791.0215Q1323.7957,792.4182,1328.3075,798.7318L1328.3391,798.7778L1328.3401,798.77924L1328.2302,798.6321Q1330.775,801.68494,1333.022,807.644C1333.0388,807.68854,1333.0535,807.7333,1333.0665,807.77905L1333.0665,807.77905Q1333.693,809.976,1333.9266,816.4123L1333.926,816.3967Q1334.1343,820.9846,1333.1969,826.1803L1333.1909,826.2122L1333.1907,826.21344C1333.1759,826.2966,1333.1434,826.40924,1333.0999,826.5177L1333.0999,826.5177Q1332.2538,828.6212,1330.7202,831.39935C1330.6422,831.5407,1330.5446,831.6704,1330.4303,831.78455L1330.4303,831.78455L1323.3357,838.87396C1323.2361,838.9735,1323.1248,839.06036,1323.0039,839.1327L1323.0039,839.1327Q1319.2704,841.3687,1313.3115,843.34155C1313.2014,843.378,1313.088,843.4032,1312.9728,843.4168L1312.9728,843.4168Q1308.3463,843.9629,1304.087,842.61066C1304.0377,842.59503,1303.9893,842.57715,1303.9415,842.5571L1303.9415,842.5571L1295.291,838.9235L1295.5393,839.00616Q1295.2446,838.93243,1294.9377,838.7713L1294.9376,838.77124Q1294.0691,838.31525,1292.4802,836.71655L1292.3965,836.626Q1288.5695,832.178,1286.6223,826.622L1286.5919,826.5265Q1285.5558,822.90594,1285.0275,816.1901L1285.0273,816.18823Q1284.0343,803.3794,1289.9746,797.0221C1290.5492,796.4071,1291.4847,796.29877,1292.1848,796.76605C1292.8849,797.23334,1293.1434,798.13885,1292.7958,798.9054L1292.7958,798.9054Q1293.3019,797.78925,1292.3514,796.9576L1292.3501,796.9565Q1291.2461,795.99243,1290.223,796.87134L1290.2233,796.87115Q1290.8151,796.3629,1295.1208,791.4372C1295.1505,791.40326,1295.1816,791.37036,1295.2139,791.33887L1295.2139,791.33887Q1295.8945,790.67395,1296.8507,790.27936L1296.8953,790.2617L1304.7213,787.2847L1304.015,789.99506Q1303.4187,789.2834,1303.6439,788.4051L1303.6454,788.3993Q1304.0105,786.9956,1305.6232,787.0676L1305.6234,787.0676Q1306.6119,787.1119,1310.3308,788.0783C1311.2495,788.3171,1311.8008,789.25543,1311.562,790.17413C1311.3232,791.09283,1310.385,791.6441,1309.4663,791.40533 Z"/>
</g>
</g>
</svg>