<?xml version="1.0" encoding="utf-8"?>
<svg xmlns="http://www.w3.org/2000/svg" xmlns:xlink="http://www.w3.org/1999/xlink" version= "1.1" width="700px" height="700px" viewBox="930 432 700 700">
<g id="layer1">
<g style="fill:rgb(254,254,254); fill-opacity:1.0; stroke-linejoin: miter">
<path d="M1822.9978,446.80804C1822.5931,446.80804,1822.1837,446.91998,1821.8177,447.15442Q1788.346,468.59338,1775.896,481.0341L1775.88,481.0341Q1761.0021,493.3234,1728.5072,534.312L1728.4961,534.312Q1718.8887,544.4938,1714.488,547.841L1714.4572,547.86505Q1703.1298,556.80524,1696.3331,556.80524Q1692.8567,556.80524,1690.5656,554.4663C1690.1364,554.02814,1689.5682,553.8083,1688.9998,553.8083C1688.4464,553.8083,1687.8927,554.01654,1687.4662,554.4343C1686.6014,555.2814,1686.5872,556.669,1687.4342,557.5337Q1691.042,561.21686,1696.1826,561.21686Q1704.6051,561.21686,1717.1422,551.3299L1717.1418,551.3299Q1721.86,547.74115,1731.8193,537.177C1731.8623,537.13135,1731.9031,537.0843,1731.942,537.03516Q1764.3368,496.17297,1778.8353,484.2789C1778.8906,484.23352,1778.9437,484.1854,1778.9944,484.1348Q1791.1091,472.029,1824.182,450.84558C1825.2013,450.19272,1825.4983,448.8372,1824.8455,447.8179C1824.427,447.16464,1823.72,446.80804,1822.9978,446.80804 Z"/>
</g>
<g style="fill:rgb(254,254,254); fill-opacity:1.0; stroke-linejoin: miter">
</g>
<g style="fill:rgb(254,254,254); fill-opacity:1.0; stroke-linejoin: miter">
</g>
<g style="fill:rgb(254,254,254); fill-opacity:1.0; stroke-linejoin: miter">
</g>
<g style="fill:rgb(254,254,254); fill-opacity:1.0; stroke-linejoin: miter">
</g>
<g style="fill:rgb(254,254,254); fill-opacity:1.0; stroke-linejoin: miter">
</g>
<g style="fill:rgb(254,254,254); fill-opacity:1.0; stroke-linejoin: miter">
</g>
<g style="fill:rgb(254,254,254); fill-opacity:1.0; stroke-linejoin: miter">
</g>
<g style="fill:rgb(254,254,254); fill-opacity:1.0; stroke-linejoin: miter">
</g>
<g style="fill:rgb(254,254,254); fill-opacity:1.0; stroke-linejoin: miter">
</g>
<g style="fill:rgb(254,254,254); fill-opacity:1.0; stroke-linejoin: miter">
</g>
<g style="fill:rgb(254,254,254); fill-opacity:1.0; stroke-linejoin: miter">
</g>
<g style="fill:rgb(254,254,254); fill-opacity:1.0; stroke-linejoin: miter">
</g>
<g style="fill:rgb(254,254,254); fill-opacity:1.0; stroke-linejoin: miter">
</g>
<g style="fill:rgb(254,254,254); fill-opacity:1.0; stroke-linejoin: miter">
</g>
<g style="fill:rgb(254,254,254); fill-opacity:1.0; stroke-linejoin: miter">
</g>
<g style="fill:rgb(254,254,254); fill-opacity:1.0; stroke-linejoin: miter">
</g>
<g style="fill:rgb(254,254,254); fill-opacity:1.0; stroke-linejoin: miter">
</g>
<g style="fill:rgb(254,254,254); fill-opacity:1.0; stroke-linejoin: miter">
</g>
<g style="fill:rgb(254,254,254); fill-opacity:1.0; stroke-linejoin: miter">
</g>
<g style="fill:rgb(254,254,254); fill-opacity:1.0; stroke-linejoin: miter">
</g>
<g style="fill:rgb(254,254,254); fill-opacity:1.0; stroke-linejoin: miter">
</g>
<g style="fill:rgb(254,254,254); fill-opacity:1.0; stroke-linejoin: miter">
</g>
<g style="fill:rgb(254,254,254); fill-opacity:1.0; stroke-linejoin: miter">
</g>
<g style="fill:rgb(254,254,254); fill-opacity:1.0; stroke-linejoin: miter">
</g>
<g style="fill:rgb(254,254,254); fill-opacity:1.0; stroke-linejoin: miter">
</g>
<g style="fill:rgb(254,254,254); fill-opacity:1.0; stroke-linejoin: miter">
</g>
<g style="fill:rgb(254,254,254); fill-opacity:1.0; stroke-linejoin: miter">
</g>
<g style="fill:rgb(254,254,254); fill-opacity:1.0; stroke-linejoin: miter">
</g>
<g style="fill:rgb(254,254,254); fill-opacity:1.0; stroke-linejoin: miter">
<path d="M1701.387,780.1476L1701.387,780.1476L1701.8317,779.2583C1702.26,778.4017,1703.3015,778.05444,1704.1582,778.4828C1705.0149,778.9111,1705.362,779.9527,1704.9337,780.8093L1704.9337,780.8093L1704.489,781.6986C1704.0608,782.5552,1703.0192,782.9024,1702.1626,782.4741C1701.3059,782.0458,1700.9587,781.00415,1701.387,780.1476 Z"/>
</g>
<g style="fill:rgb(254,254,254); fill-opacity:1.0; stroke-linejoin: miter">
</g>
<g style="fill:rgb(254,254,254); fill-opacity:1.0; stroke-linejoin: miter">
</g>
<g style="fill:rgb(254,254,254); fill-opacity:1.0; stroke-linejoin: miter">
</g>
<g style="fill:rgb(254,254,254); fill-opacity:1.0; stroke-linejoin: miter">
</g>
<g style="fill:rgb(254,254,254); fill-opacity:1.0; stroke-linejoin: miter">
</g>
<g style="fill:rgb(254,254,254); fill-opacity:1.0; stroke-linejoin: miter">
</g>
<g style="fill:rgb(254,254,254); fill-opacity:1.0; stroke-linejoin: miter">
</g>
<g style="fill:rgb(254,254,254); fill-opacity:1.0; stroke-linejoin: miter">
</g>
<g style="fill:rgb(254,254,254); fill-opacity:1.0; stroke-linejoin: miter">
</g>
<g style="fill:rgb(254,254,254); fill-opacity:1.0; stroke-linejoin: miter">
</g>
<g style="fill:rgb(254,254,254); fill-opacity:1.0; stroke-linejoin: miter">
</g>
<g style="fill:rgb(254,254,254); fill-opacity:1.0; stroke-linejoin: miter">
</g>
<g style="fill:rgb(254,254,254); fill-opacity:1.0; stroke-linejoin: miter">
</g>
<g style="fill:rgb(254,254,254); fill-opacity:1.0; stroke-linejoin: miter">
</g>
<g style="fill:rgb(254,254,254); fill-opacity:1.0; stroke-linejoin: miter">
</g>
<g style="fill:rgb(254,254,254); fill-opacity:1.0; stroke-linejoin: miter">
</g>
<g style="fill:rgb(254,254,254); fill-opacity:1.0; stroke-linejoin: miter">
</g>
<g style="fill:rgb(254,254,254); fill-opacity:1.0; stroke-linejoin: miter">
</g>
<g style="fill:rgb(254,254,254); fill-opacity:1.0; stroke-linejoin: miter">
<path d="M1419.3502,490.08298Q1440.3706,490.08298,1465.7473,499.8131L1465.7441,499.8131Q1513.6464,520.75104,1552.2357,572.2452L1552.2201,572.2452Q1564.9916,599.07916,1562.6166,641.1828L1562.6094,641.1828Q1559.0516,662.5749,1548.7156,702.67114L1548.7001,702.67114Q1529.0084,744.47534,1475.0297,815.9981C1474.9884,816.05273,1474.9518,816.1109,1474.9202,816.17163Q1458.8936,847.0017,1432.2711,923.02094L1432.2568,923.02094L1410.1478,955.3998L1410.1461,955.3998Q1355.2251,1028.0914,1229.121,1028.0914Q1226.5454,1028.0914,1223.9402,1028.061L1223.9332,1028.061Q1188.0532,1026.788,1163.5089,1013.4082L1163.4973,1013.4082Q1135.5459,988.69055,1072.2474,971.26135L1072.2367,971.26135L1050.3342,955.0141L1050.3237,955.0141Q1020.3181,893.31866,1033.4441,840.4214C1033.4586,840.3629,1033.4689,840.30347,1033.4746,840.24347Q1038.947,783.5687,1089.4998,717.23364L1089.4954,717.23364Q1101.1985,704.08545,1117.1792,690.8219L1117.168,690.8219L1207.9578,633.8925C1208.0253,633.8502,1208.0883,633.8015,1208.1464,633.74695Q1230.4888,612.75653,1237.5153,601.52045C1237.5696,601.43365,1237.6127,601.3406,1237.6438,601.24304Q1255.4116,545.66864,1269.8328,537.9726C1269.9291,537.92114,1270.0182,537.85706,1270.0977,537.7821Q1285.0237,523.69525,1302.0027,523.69525Q1302.931,523.69525,1303.8655,523.73737L1303.8524,523.73737Q1302.8513,528.54987,1303.6194,530.0877L1303.6194,530.0877Q1303.6366,530.1224,1303.657,530.1599L1303.6576,530.1611Q1304.2247,531.2053,1305.2672,531.2053Q1305.5424,531.2053,1305.8507,531.13257Q1306.2178,531.04596,1306.6096,530.8332L1306.6914,530.78467L1322.3127,520.66705L1322.326,520.66705Q1322.3658,520.6674,1322.4065,520.6674Q1329.0663,520.6674,1361.3562,510.35287C1361.4491,510.3232,1361.5381,510.2826,1361.6213,510.2319Q1392.9436,491.16287,1400.0016,491.16287Q1401.016,491.16287,1401.5292,491.55685C1401.7457,491.7231,1402.0093,491.81104,1402.2776,491.81104C1402.3625,491.81104,1402.4479,491.80225,1402.5323,491.78433Q1410.5604,490.08298,1419.3502,490.08298 Z M1419.3473,487.625Q1410.5465,487.625,1402.4713,489.2859L1402.4713,489.2859Q1401.7183,488.9622,1400.5813,488.9622Q1391.8467,488.9622,1360.4535,508.065L1360.4398,508.065Q1328.6508,518.2145,1322.5287,518.2145Q1322.2794,518.2145,1322.0728,518.19763C1322.0394,518.19495,1322.0062,518.19354,1321.9729,518.19354C1321.7366,518.19354,1321.5044,518.26184,1321.3048,518.39105L1305.7031,528.496L1305.7031,528.496Q1305.5931,527.27496,1306.3256,523.92145L1306.3386,523.92145Q1308.037,524.0973,1309.7554,524.4099C1309.8297,524.42346,1309.9038,524.43,1309.9768,524.43C1310.5593,524.43,1311.0767,524.0141,1311.1846,523.42065C1311.306,522.7528,1310.8632,522.113,1310.1953,521.99146Q1306.0168,521.2313,1301.9547,521.2313Q1284.1101,521.2313,1268.5103,535.9003L1268.4976,535.9003Q1253.284,544.28955,1235.3372,600.3861L1235.3248,600.3861Q1228.4135,611.327,1206.5264,631.8961L1206.5144,631.8961L1115.8392,688.7536C1115.7933,688.7824,1115.7494,688.8143,1115.7076,688.8489Q1099.5211,702.27277,1087.6592,715.59924L1087.5999,715.67126Q1036.58,782.5922,1031.0299,839.98596L1031.0195,839.98596Q1017.7344,893.79486,1048.2395,956.3488C1048.3259,956.526,1048.4536,956.67975,1048.6119,956.7972L1070.9503,973.3678C1071.0724,973.4584,1071.2103,973.5255,1071.3569,973.5658Q1134.3875,990.8893,1161.9524,1015.32355C1162.0212,1015.3846,1162.0968,1015.43774,1162.1775,1015.48193Q1187.2776,1029.2223,1223.8595,1030.5181L1223.8885,1030.5188Q1226.5204,1030.5496,1229.1222,1030.5496Q1356.4906,1030.5496,1412.1438,956.83344L1412.1779,956.786L1434.4077,924.2302C1434.4684,924.14136,1434.5172,924.04486,1434.5527,923.9433Q1461.0774,848.19244,1477.0214,817.45935L1477.0066,817.45935Q1531.2413,745.5953,1551.008,703.5397C1551.0408,703.4702,1551.0668,703.398,1551.0859,703.32367Q1561.489,662.97107,1565.0563,641.453C1565.0635,641.4093,1565.0685,641.3654,1565.0709,641.3212Q1567.4889,598.4573,1554.3582,571.018C1554.3234,570.9452,1554.2815,570.87616,1554.2332,570.8116Q1515.2239,518.74,1466.6793,497.53915L1466.6274,497.51788Q1440.8263,487.625,1419.3473,487.625 Z"/>
</g>
<g style="fill:rgb(254,254,254); fill-opacity:1.0; stroke-linejoin: miter">
</g>
<g style="fill:rgb(254,254,254); fill-opacity:1.0; stroke-linejoin: miter">
<path d="M1310.3679,806.0032L1310.3456,806.00336Q1309.0303,806.097,1308.0614,806.68463L1307.5734,807.01044Q1307.0988,807.36755,1306.6771,807.84973Q1306.2556,808.33185,1305.8871,808.9391Q1304.4806,809.37506,1303.5059,810.3778L1303.0406,810.9146Q1302.6007,811.4869,1302.2623,812.2008Q1301.9337,812.8741,1301.667,813.8518Q1301.5056,814.6394,1301.4279,815.37006Q1301.3065,817.14685,1301.3826,817.4339Q1301.4778,818.7244,1301.9075,819.78723Q1301.8436,822.19446,1302.2639,822.9927Q1303.331,825.61975,1306.5824,825.85284Q1307.3508,825.8449,1308.1188,825.48926Q1309.138,825.7159,1310.7003,825.2333Q1310.8851,825.1714,1311.0736,825.03656Q1311.673,824.63214,1311.837,824.47626Q1312.2476,824.365,1313.3943,823.65137Q1314.2992,823.0191,1314.9731,822.11Q1315.7719,820.91296,1315.8412,820.5905Q1316.522,820.3733,1317.0416,819.97614Q1317.1967,819.90497,1317.7305,819.2792Q1318.163,818.9634,1318.5513,817.0231Q1318.9713,814.90875,1318.4681,813.4664Q1318.2913,812.8631,1317.8306,812.4301Q1317.1509,811.7306,1316.7188,811.5253L1316.5831,811.35675Q1316.3419,810.25653,1315.9058,809.38116L1315.4209,808.56195Q1313.869,806.27496,1310.3679,806.0032"/>
</g>
<g style="fill:rgb(210,45,38); fill-opacity:1.0; stroke-linejoin: miter">
<path d="M1351.1593,844.43787Q1351.429,844.43787,1351.7234,844.66394L1351.7145,844.66394C1351.5074,844.5233,1351.2661,844.4519,1351.0239,844.4519L1351.0262,844.4519Q1351.0919,844.43787,1351.1593,844.43787 Z M1339.8561,767.265C1339.8501,767.265,1339.8442,767.2651,1339.8383,767.26514L1322.8073,767.5109C1322.1285,767.5207,1321.5862,768.0789,1321.596,768.7576C1321.6056,769.4303,1322.154,769.96893,1322.8246,769.96893C1322.8306,769.96893,1322.8367,769.9689,1322.8427,769.9688L1339.6696,769.72595L1339.6696,769.72595L1348.0938,772.4662L1348.0803,772.4662Q1352.9008,775.2914,1355.4646,783.7005L1355.4844,783.76Q1359.3749,794.5188,1359.793,797.6771L1359.7882,797.6771Q1360.1604,806.42926,1359.2858,816.64294L1359.2722,816.64294Q1352.728,841.55133,1350.7733,844.4806L1350.7598,844.4806C1350.6023,844.51526,1350.4498,844.5813,1350.3118,844.6795L1338.3754,853.1711L1319.3037,863.4828C1319.1849,863.547,1319.0775,863.6304,1318.9858,863.72955L1318.9832,863.72955Q1317.8717,864.6378,1309.3644,865.3826L1309.3644,865.3826Q1289.2083,863.7851,1278.1914,844.67163L1278.1914,844.67163Q1273.0677,835.62823,1273.7755,816.10425L1273.7716,816.10425Q1275.4227,801.88763,1279.1158,796.1217L1279.1528,796.05994Q1284.7461,786.08484,1301.6559,772.36255L1301.7167,772.30975Q1303.8745,770.31067,1313.0405,770.31067Q1313.963,770.31067,1314.9564,770.33093L1314.9434,770.33093Q1317.7526,770.61273,1317.6857,772.60846C1317.663,773.28687,1318.1945,773.8553,1318.8729,773.87805C1318.887,773.87854,1318.901,773.8788,1318.9149,773.8788C1319.5747,773.8788,1320.1202,773.3552,1320.1425,772.69086Q1320.2874,768.3664,1315.1276,767.8791L1315.0374,767.8739Q1314.1029,767.8546,1313.2228,767.8546Q1302.9086,767.8546,1300.046,770.50653L1300.0417,770.50653Q1282.8213,784.49164,1277.0088,794.85767L1277.0063,794.85767Q1273.0383,801.1125,1271.33,815.8207L1271.3225,815.9171Q1270.5729,836.21124,1276.0527,845.8834L1276.0571,845.8911Q1287.7494,866.18353,1309.2758,867.8414C1309.3073,867.8438,1309.3389,867.845,1309.3704,867.845C1309.4059,867.845,1309.4413,867.84344,1309.4767,867.8404Q1318.9353,867.0176,1320.6056,865.57684L1320.606,865.5765L1320.5999,865.5765L1339.6111,855.2975C1339.6553,855.27356,1339.698,855.24695,1339.739,855.21783L1351.2391,847.0366L1351.2256,847.0366Q1351.7852,847.0144,1352.3572,846.42633L1352.359,846.42444Q1352.3767,846.4062,1352.3984,846.3828L1352.4011,846.38Q1354.6422,843.95667,1361.6968,817.08856C1361.7146,817.02075,1361.7266,816.9513,1361.7325,816.8815Q1362.629,806.431,1362.2394,797.46246L1362.23,797.3545Q1361.7782,793.942,1357.8176,782.9836L1357.8159,782.9836Q1354.9341,773.53156,1349.1726,770.2584C1349.1006,770.21747,1349.0245,770.1839,1348.9457,770.15826L1340.2362,767.32526C1340.1134,767.28534,1339.9851,767.265,1339.8561,767.265 Z"/>
</g>
</g>
</svg>