<?xml version="1.0" encoding="utf-8"?>
<svg xmlns="http://www.w3.org/2000/svg" xmlns:xlink="http://www.w3.org/1999/xlink" version= "1.1" width="700px" height="700px" viewBox="930 432 700 700">
<g id="layer1">
<g style="fill:rgb(254,254,254); fill-opacity:1.0; stroke-linejoin: miter">
<path d="M1822.9978,446.80804C1822.5931,446.80804,1822.1837,446.91998,1821.8177,447.15442Q1788.346,468.59338,1775.896,481.0341L1775.88,481.0341Q1761.0021,493.3234,1728.5072,534.312L1728.4961,534.312Q1718.8887,544.4938,1714.488,547.841L1714.4572,547.86505Q1703.1298,556.80524,1696.3331,556.80524Q1692.8567,556.80524,1690.5656,554.4663C1690.1364,554.02814,1689.5682,553.8083,1688.9998,553.8083C1688.4464,553.8083,1687.8927,554.01654,1687.4662,554.4343C1686.6014,555.2814,1686.5872,556.669,1687.4342,557.5337Q1691.042,561.21686,1696.1826,561.21686Q1704.6051,561.21686,1717.1422,551.3299L1717.1418,551.3299Q1721.86,547.74115,1731.8193,537.177C1731.8623,537.13135,1731.9031,537.0843,1731.942,537.03516Q1764.3368,496.17297,1778.8353,484.2789C1778.8906,484.23352,1778.9437,484.1854,1778.9944,484.1348Q1791.1091,472.029,1824.182,450.84558C1825.2013,450.19272,1825.4983,448.8372,1824.8455,447.8179C1824.427,447.16464,1823.72,446.80804,1822.9978,446.80804 Z"/>
</g>
<g style="fill:rgb(254,254,254); fill-opacity:1.0; stroke-linejoin: miter">
</g>
<g style="fill:rgb(254,254,254); fill-opacity:1.0; stroke-linejoin: miter">
</g>
<g style="fill:rgb(254,254,254); fill-opacity:1.0; stroke-linejoin: miter">
</g>
<g style="fill:rgb(254,254,254); fill-opacity:1.0; stroke-linejoin: miter">
</g>
<g style="fill:rgb(254,254,254); fill-opacity:1.0; stroke-linejoin: miter">
</g>
<g style="fill:rgb(254,254,254); fill-opacity:1.0; stroke-linejoin: miter">
</g>
<g style="fill:rgb(254,254,254); fill-opacity:1.0; stroke-linejoin: miter">
</g>
<g style="fill:rgb(254,254,254); fill-opacity:1.0; stroke-linejoin: miter">
</g>
<g style="fill:rgb(254,254,254); fill-opacity:1.0; stroke-linejoin: miter">
</g>
<g style="fill:rgb(254,254,254); fill-opacity:1.0; stroke-linejoin: miter">
</g>
<g style="fill:rgb(254,254,254); fill-opacity:1.0; stroke-linejoin: miter">
</g>
<g style="fill:rgb(254,254,254); fill-opacity:1.0; stroke-linejoin: miter">
</g>
<g style="fill:rgb(254,254,254); fill-opacity:1.0; stroke-linejoin: miter">
</g>
<g style="fill:rgb(254,254,254); fill-opacity:1.0; stroke-linejoin: miter">
</g>
<g style="fill:rgb(254,254,254); fill-opacity:1.0; stroke-linejoin: miter">
</g>
<g style="fill:rgb(254,254,254); fill-opacity:1.0; stroke-linejoin: miter">
</g>
<g style="fill:rgb(254,254,254); fill-opacity:1.0; stroke-linejoin: miter">
</g>
<g style="fill:rgb(254,254,254); fill-opacity:1.0; stroke-linejoin: miter">
</g>
<g style="fill:rgb(254,254,254); fill-opacity:1.0; stroke-linejoin: miter">
</g>
<g style="fill:rgb(254,254,254); fill-opacity:1.0; stroke-linejoin: miter">
</g>
<g style="fill:rgb(254,254,254); fill-opacity:1.0; stroke-linejoin: miter">
</g>
<g style="fill:rgb(254,254,254); fill-opacity:1.0; stroke-linejoin: miter">
</g>
<g style="fill:rgb(254,254,254); fill-opacity:1.0; stroke-linejoin: miter">
</g>
<g style="fill:rgb(254,254,254); fill-opacity:1.0; stroke-linejoin: miter">
</g>
<g style="fill:rgb(254,254,254); fill-opacity:1.0; stroke-linejoin: miter">
</g>
<g style="fill:rgb(254,254,254); fill-opacity:1.0; stroke-linejoin: miter">
</g>
<g style="fill:rgb(254,254,254); fill-opacity:1.0; stroke-linejoin: miter">
</g>
<g style="fill:rgb(254,254,254); fill-opacity:1.0; stroke-linejoin: miter">
</g>
<g style="fill:rgb(254,254,254); fill-opacity:1.0; stroke-linejoin: miter">
<path d="M1701.387,780.1476L1701.387,780.1476L1701.8317,779.2583C1702.26,778.4017,1703.3015,778.05444,1704.1582,778.4828C1705.0149,778.9111,1705.362,779.9527,1704.9337,780.8093L1704.9337,780.8093L1704.489,781.6986C1704.0608,782.5552,1703.0192,782.9024,1702.1626,782.4741C1701.3059,782.0458,1700.9587,781.00415,1701.387,780.1476 Z"/>
</g>
<g style="fill:rgb(254,254,254); fill-opacity:1.0; stroke-linejoin: miter">
</g>
<g style="fill:rgb(254,254,254); fill-opacity:1.0; stroke-linejoin: miter">
</g>
<g style="fill:rgb(254,254,254); fill-opacity:1.0; stroke-linejoin: miter">
</g>
<g style="fill:rgb(254,254,254); fill-opacity:1.0; stroke-linejoin: miter">
</g>
<g style="fill:rgb(254,254,254); fill-opacity:1.0; stroke-linejoin: miter">
</g>
<g style="fill:rgb(254,254,254); fill-opacity:1.0; stroke-linejoin: miter">
</g>
<g style="fill:rgb(254,254,254); fill-opacity:1.0; stroke-linejoin: miter">
</g>
<g style="fill:rgb(254,254,254); fill-opacity:1.0; stroke-linejoin: miter">
</g>
<g style="fill:rgb(254,254,254); fill-opacity:1.0; stroke-linejoin: miter">
</g>
<g style="fill:rgb(254,254,254); fill-opacity:1.0; stroke-linejoin: miter">
</g>
<g style="fill:rgb(254,254,254); fill-opacity:1.0; stroke-linejoin: miter">
</g>
<g style="fill:rgb(254,254,254); fill-opacity:1.0; stroke-linejoin: miter">
</g>
<g style="fill:rgb(254,254,254); fill-opacity:1.0; stroke-linejoin: miter">
</g>
<g style="fill:rgb(254,254,254); fill-opacity:1.0; stroke-linejoin: miter">
</g>
<g style="fill:rgb(254,254,254); fill-opacity:1.0; stroke-linejoin: miter">
</g>
<g style="fill:rgb(254,254,254); fill-opacity:1.0; stroke-linejoin: miter">
</g>
<g style="fill:rgb(254,254,254); fill-opacity:1.0; stroke-linejoin: miter">
</g>
<g style="fill:rgb(254,254,254); fill-opacity:1.0; stroke-linejoin: miter">
</g>
<g style="fill:rgb(254,254,254); fill-opacity:1.0; stroke-linejoin: miter">
<path d="M1419.3502,490.08298Q1440.3706,490.08298,1465.7473,499.8131L1465.7441,499.8131Q1513.6464,520.75104,1552.2357,572.2452L1552.2201,572.2452Q1564.9916,599.07916,1562.6166,641.1828L1562.6094,641.1828Q1559.0516,662.5749,1548.7156,702.67114L1548.7001,702.67114Q1529.0084,744.47534,1475.0297,815.9981C1474.9884,816.05273,1474.9518,816.1109,1474.9202,816.17163Q1458.8936,847.0017,1432.2711,923.02094L1432.2568,923.02094L1410.1478,955.3998L1410.1461,955.3998Q1355.2251,1028.0914,1229.121,1028.0914Q1226.5454,1028.0914,1223.9402,1028.061L1223.9332,1028.061Q1188.0532,1026.788,1163.5089,1013.4082L1163.4973,1013.4082Q1135.5459,988.69055,1072.2474,971.26135L1072.2367,971.26135L1050.3342,955.0141L1050.3237,955.0141Q1020.3181,893.31866,1033.4441,840.4214C1033.4586,840.3629,1033.4689,840.30347,1033.4746,840.24347Q1038.947,783.5687,1089.4998,717.23364L1089.4954,717.23364Q1101.1985,704.08545,1117.1792,690.8219L1117.168,690.8219L1207.9578,633.8925C1208.0253,633.8502,1208.0883,633.8015,1208.1464,633.74695Q1230.4888,612.75653,1237.5153,601.52045C1237.5696,601.43365,1237.6127,601.3406,1237.6438,601.24304Q1255.4116,545.66864,1269.8328,537.9726C1269.9291,537.92114,1270.0182,537.85706,1270.0977,537.7821Q1285.0237,523.69525,1302.0027,523.69525Q1302.931,523.69525,1303.8655,523.73737L1303.8524,523.73737Q1302.8513,528.54987,1303.6194,530.0877L1303.6194,530.0877Q1303.6366,530.1224,1303.657,530.1599L1303.6576,530.1611Q1304.2247,531.2053,1305.2672,531.2053Q1305.5424,531.2053,1305.8507,531.13257Q1306.2178,531.04596,1306.6096,530.8332L1306.6914,530.78467L1322.3127,520.66705L1322.326,520.66705Q1322.3658,520.6674,1322.4065,520.6674Q1329.0663,520.6674,1361.3562,510.35287C1361.4491,510.3232,1361.5381,510.2826,1361.6213,510.2319Q1392.9436,491.16287,1400.0016,491.16287Q1401.016,491.16287,1401.5292,491.55685C1401.7457,491.7231,1402.0093,491.81104,1402.2776,491.81104C1402.3625,491.81104,1402.4479,491.80225,1402.5323,491.78433Q1410.5604,490.08298,1419.3502,490.08298 Z M1419.3473,487.625Q1410.5465,487.625,1402.4713,489.2859L1402.4713,489.2859Q1401.7183,488.9622,1400.5813,488.9622Q1391.8467,488.9622,1360.4535,508.065L1360.4398,508.065Q1328.6508,518.2145,1322.5287,518.2145Q1322.2794,518.2145,1322.0728,518.19763C1322.0394,518.19495,1322.0062,518.19354,1321.9729,518.19354C1321.7366,518.19354,1321.5044,518.26184,1321.3048,518.39105L1305.7031,528.496L1305.7031,528.496Q1305.5931,527.27496,1306.3256,523.92145L1306.3386,523.92145Q1308.037,524.0973,1309.7554,524.4099C1309.8297,524.42346,1309.9038,524.43,1309.9768,524.43C1310.5593,524.43,1311.0767,524.0141,1311.1846,523.42065C1311.306,522.7528,1310.8632,522.113,1310.1953,521.99146Q1306.0168,521.2313,1301.9547,521.2313Q1284.1101,521.2313,1268.5103,535.9003L1268.4976,535.9003Q1253.284,544.28955,1235.3372,600.3861L1235.3248,600.3861Q1228.4135,611.327,1206.5264,631.8961L1206.5144,631.8961L1115.8392,688.7536C1115.7933,688.7824,1115.7494,688.8143,1115.7076,688.8489Q1099.5211,702.27277,1087.6592,715.59924L1087.5999,715.67126Q1036.58,782.5922,1031.0299,839.98596L1031.0195,839.98596Q1017.7344,893.79486,1048.2395,956.3488C1048.3259,956.526,1048.4536,956.67975,1048.6119,956.7972L1070.9503,973.3678C1071.0724,973.4584,1071.2103,973.5255,1071.3569,973.5658Q1134.3875,990.8893,1161.9524,1015.32355C1162.0212,1015.3846,1162.0968,1015.43774,1162.1775,1015.48193Q1187.2776,1029.2223,1223.8595,1030.5181L1223.8885,1030.5188Q1226.5204,1030.5496,1229.1222,1030.5496Q1356.4906,1030.5496,1412.1438,956.83344L1412.1779,956.786L1434.4077,924.2302C1434.4684,924.14136,1434.5172,924.04486,1434.5527,923.9433Q1461.0774,848.19244,1477.0214,817.45935L1477.0066,817.45935Q1531.2413,745.5953,1551.008,703.5397C1551.0408,703.4702,1551.0668,703.398,1551.0859,703.32367Q1561.489,662.97107,1565.0563,641.453C1565.0635,641.4093,1565.0685,641.3654,1565.0709,641.3212Q1567.4889,598.4573,1554.3582,571.018C1554.3234,570.9452,1554.2815,570.87616,1554.2332,570.8116Q1515.2239,518.74,1466.6793,497.53915L1466.6274,497.51788Q1440.8263,487.625,1419.3473,487.625 Z"/>
</g>
<g style="fill:rgb(254,254,254); fill-opacity:1.0; stroke-linejoin: miter">
</g>
<g style="fill:rgb(254,254,254); fill-opacity:1.0; stroke-linejoin: miter">
<path d="M1310.3679,806.0032L1310.3456,806.00336Q1309.0303,806.097,1308.0614,806.68463L1307.5734,807.01044Q1307.0988,807.36755,1306.6771,807.84973Q1306.2556,808.33185,1305.8871,808.9391Q1304.4806,809.37506,1303.5059,810.3778L1303.0406,810.9146Q1302.6007,811.4869,1302.2623,812.2008Q1301.9337,812.8741,1301.667,813.8518Q1301.5056,814.6394,1301.4279,815.37006Q1301.3065,817.14685,1301.3826,817.4339Q1301.4778,818.7244,1301.9075,819.78723Q1301.8436,822.19446,1302.2639,822.9927Q1303.331,825.61975,1306.5824,825.85284Q1307.3508,825.8449,1308.1188,825.48926Q1309.138,825.7159,1310.7003,825.2333Q1310.8851,825.1714,1311.0736,825.03656Q1311.673,824.63214,1311.837,824.47626Q1312.2476,824.365,1313.3943,823.65137Q1314.2992,823.0191,1314.9731,822.11Q1315.7719,820.91296,1315.8412,820.5905Q1316.522,820.3733,1317.0416,819.97614Q1317.1967,819.90497,1317.7305,819.2792Q1318.163,818.9634,1318.5513,817.0231Q1318.9713,814.90875,1318.4681,813.4664Q1318.2913,812.8631,1317.8306,812.4301Q1317.1509,811.7306,1316.7188,811.5253L1316.5831,811.35675Q1316.3419,810.25653,1315.9058,809.38116L1315.4209,808.56195Q1313.869,806.27496,1310.3679,806.0032"/>
</g>
<g style="fill:rgb(30,160,25); fill-opacity:1.0; stroke-linejoin: miter">
</g>
<g style="fill:rgb(28,151,23); fill-opacity:1.0; stroke-linejoin: miter">
</g>
<g style="fill:rgb(28,151,23); fill-opacity:1.0; stroke-linejoin: miter">
</g>
<g style="fill:rgb(28,151,23); fill-opacity:1.0; stroke-linejoin: miter">
</g>
<g style="fill:rgb(28,151,23); fill-opacity:1.0; stroke-linejoin: miter">
</g>
<g style="fill:rgb(28,151,23); fill-opacity:1.0; stroke-linejoin: miter">
<path d="M1236.2725,851.8715L1236.2656,852.0458Q1236.2571,852.21954,1236.2443,852.3929Q1236.2075,852.82495,1236.1943,852.91003Q1236.1333,853.42535,1236.0299,853.9302L1236.7518,854.0693Q1236.8888,853.3948,1236.9192,852.69904L1236.9261,852.46655Q1236.9302,852.2336,1236.9226,851.99817L1236.9348,851.9991L1236.2725,851.8715 Z"/>
</g>
<g style="fill:rgb(28,151,23); fill-opacity:1.0; stroke-linejoin: miter">
</g>
<g style="fill:rgb(28,151,23); fill-opacity:1.0; stroke-linejoin: miter">
<path d="M1366.2709,838.1542Q1364.725,840.0589,1363.2308,842.1845L1363.2308,842.1845Q1363.4425,842.0292,1363.6013,841.9423C1363.7764,841.8466,1363.9255,841.70966,1364.0359,841.5434L1366.2845,838.1542 Z"/>
</g>
<g style="fill:rgb(28,151,23); fill-opacity:1.0; stroke-linejoin: miter">
<path d="M1322.0568,727.0668C1321.7067,727.0668,1321.3651,727.24475,1321.1709,727.56635L1310.7477,744.83307L1310.7408,744.83307Q1301.7905,756.72217,1300.2816,757.61536L1300.2687,757.61536C1300.0159,757.67914,1299.7931,757.83716,1299.6498,758.062Q1283.2533,783.77936,1274.1296,793.8242C1274.0756,793.8837,1274.0286,793.9494,1273.9897,794.0198Q1266.3517,807.8617,1262.6499,813.0865L1262.6185,813.1333Q1259.1637,818.62036,1251.1099,826.71906C1251.0483,826.78094,1250.9948,826.8504,1250.9507,826.9257Q1240.4424,844.87915,1227.7247,859.81415L1227.7125,859.81415Q1227.6791,859.8409,1227.646,859.86993L1227.6461,859.86993Q1225.8649,861.4333,1216.1549,882.00446C1215.9113,882.5206,1216.1322,883.1366,1216.6484,883.38025C1216.791,883.4475,1216.9412,883.4794,1217.089,883.4794C1217.4764,883.4794,1217.8479,883.26044,1218.0243,882.8868Q1227.4282,862.96356,1228.9703,861.4599L1228.9586,861.4599C1229.0615,861.4009,1229.1536,861.3245,1229.2307,861.2341Q1242.0549,846.1889,1252.6503,828.1139L1252.6378,828.1139Q1260.771,819.9274,1264.3383,814.28143L1264.3364,814.28143Q1268.0867,808.9881,1275.7214,795.16L1275.7086,795.16Q1284.8926,785.0286,1301.2046,759.46814L1301.2021,759.46814Q1303.0417,758.50116,1312.4583,745.98865L1312.5172,745.9013L1322.9404,728.6346C1323.2355,728.14594,1323.0785,727.5106,1322.5898,727.21564C1322.4229,727.1148,1322.2386,727.0668,1322.0568,727.0668 Z"/>
</g>
<g style="fill:rgb(28,151,23); fill-opacity:1.0; stroke-linejoin: miter">
<path d="M1327.6932,728.51447C1327.3854,728.51447,1327.0771,728.62946,1326.8385,728.86053C1326.3508,729.3327,1326.3381,730.1108,1326.8103,730.5985Q1331.5698,735.51483,1341.7649,758.1825L1341.7598,758.1825L1350.059,782.1609L1350.0927,782.24744L1374.4254,838.42395C1374.4425,838.4634,1374.4615,838.5019,1374.4827,838.5393L1387.5577,861.71814L1404.3676,896.7979C1404.5787,897.2388,1405.0186,897.49615,1405.4768,897.49615C1405.6549,897.49615,1405.8357,897.4573,1406.0071,897.3752C1406.6193,897.08185,1406.8777,896.34784,1406.5844,895.73566L1389.7565,860.6182L1389.7186,860.5455L1376.6552,837.38715L1376.6552,837.38715L1352.3668,781.3133L1344.0474,757.27637L1344.0068,757.1742Q1333.6353,734.1143,1328.5764,728.8887C1328.3353,728.63965,1328.0145,728.51447,1327.6932,728.51447 Z"/>
</g>
<g style="fill:rgb(28,151,23); fill-opacity:1.0; stroke-linejoin: miter">
<path d="M1351.3586,876.9798Q1351.9987,877.0976,1352.1884,877.7062L1352.1884,877.7062C1352.04,877.34515,1351.726,877.07336,1351.3451,876.9798 Z M1333.771,877.3905Q1334.1456,878.1511,1333.4963,878.707L1333.4858,878.707C1333.6198,878.5722,1333.7223,878.4065,1333.7826,878.2211C1333.8718,877.94684,1333.861,877.6529,1333.7577,877.3905 Z M1386.0114,878.3904C1385.6534,878.5119,1385.3772,878.7897,1385.2518,879.1344L1385.2499,879.1344Q1385.3962,878.5418,1385.9976,878.3904 Z M1352.2682,878.42444Q1352.2026,879.2853,1351.1833,879.3955L1351.1832,879.3955C1351.7251,879.33704,1352.1488,878.9337,1352.2548,878.42444 Z M1385.2963,880.08014C1385.4678,880.4418,1385.8109,880.7084,1386.2275,880.76996Q1385.4884,880.6607,1385.2825,880.08014 Z M1274.4491,881.58264Q1274.2427,882.0696,1273.5687,882.1685L1273.5687,882.1685C1273.9413,882.11066,1274.2534,881.88855,1274.4357,881.58264 Z M1273.5201,882.1751L1273.519,882.17523L1273.5189,882.17523L1273.5201,882.1751 Z M1340.1874,875.5519Q1339.6359,875.5519,1338.5317,875.71277L1338.4237,875.7335Q1335.7249,876.3775,1335.2793,876.40454L1335.2772,876.40454Q1332.9603,876.5209,1332.4932,876.5999L1332.4932,876.6Q1332.2438,876.64215,1332.0485,876.7436L1332.0352,876.7436Q1327.5935,878.3555,1324.4799,878.46564L1324.4392,878.4678Q1322.3534,878.6108,1320.7018,878.6108Q1320.6941,878.6108,1320.6864,878.6108L1320.6732,878.6108Q1315.6406,878.3601,1314.1221,878.3601Q1314.0377,878.3601,1313.9642,878.36084L1313.9642,878.36084Q1312.9967,878.31415,1311.3976,877.93274L1311.2968,877.9131Q1310.6539,877.8156,1309.9769,877.8156Q1309.857,877.8156,1309.7361,877.81866C1309.6946,877.8197,1309.6532,877.8229,1309.6119,877.8281Q1306.8451,878.1803,1304.4092,878.21826C1304.363,878.219,1304.3169,878.2223,1304.2711,878.2282Q1300.8125,878.6742,1299.9065,878.707L1299.8596,878.70953Q1294.453,879.11206,1290.1547,879.1344C1290.1047,879.13464,1290.0546,879.13794,1290.005,879.1443Q1285.0737,879.7752,1282.3384,879.78845L1282.339,879.78845Q1279.3618,879.8015,1277.38,879.8015Q1274.5293,879.8015,1273.738,879.7745L1273.7253,879.7745C1273.6398,879.74945,1273.5503,879.73346,1273.4579,879.72754Q1272.585,879.6717,1271.7754,879.5698L1271.7648,879.5698Q1267.279,878.7377,1263.7909,878.43427L1263.7894,878.43427Q1262.8228,878.3343,1256.4324,877.9997L1256.432,877.9997Q1256.4172,877.9989,1256.4148,877.9988L1256.4148,877.9988L1256.3914,877.9978Q1255.8284,877.9792,1255.3198,877.9792Q1255.0101,877.9792,1254.7206,877.9861L1254.6638,877.9888Q1253.0668,878.1009,1252.2426,878.1009Q1251.9525,878.1009,1251.7582,878.08704L1251.7487,878.08704L1245.6749,877.401L1245.6395,877.3975Q1244.1628,877.2739,1243.1661,877.2739Q1242.7236,877.2739,1242.3757,877.2983L1242.3636,877.2983Q1240.8973,877.3618,1238.8236,877.8573L1238.7971,877.86395L1229.4614,880.3148C1228.8048,880.4872,1228.4124,881.1591,1228.5847,881.8157C1228.7296,882.3676,1229.2277,882.733,1229.7727,882.733C1229.8761,882.733,1229.9811,882.71985,1230.0857,882.6924L1239.4214,880.2415L1239.4229,880.2415Q1241.279,879.79987,1242.5088,879.7525L1242.5474,879.7504Q1242.8196,879.7314,1243.1753,879.7314Q1244.0516,879.7314,1245.4344,879.8471L1245.4298,879.8471L1251.4728,880.52966L1251.5072,880.5331Q1251.7938,880.5573,1252.2275,880.5573Q1253.1681,880.5573,1254.8005,880.4434L1254.788,880.4434Q1255.0459,880.4373,1255.3225,880.4373Q1255.7896,880.4373,1256.31,880.4546L1256.305,880.4546Q1262.6311,880.7858,1263.5365,880.87946L1263.5569,880.88135Q1266.9388,881.1742,1271.3281,881.9889L1271.3956,881.9995Q1272.1599,882.0978,1272.9729,882.158L1272.9601,882.158Q1273.0962,882.19293,1273.2529,882.2081Q1273.7731,882.2585,1277.71,882.2585Q1279.6254,882.2585,1282.3497,882.2466L1282.3503,882.2466Q1285.2156,882.2327,1290.2423,881.59216L1290.2294,881.59216Q1294.5764,881.5669,1300.0078,881.1635L1299.9954,881.1635Q1301.0048,881.12695,1304.5153,880.67523L1304.5022,880.67523Q1307.0208,880.6327,1309.8553,880.2751L1309.8422,880.2751Q1309.9097,880.2738,1309.9764,880.2738Q1310.4612,880.2738,1310.9148,880.3415L1310.9016,880.3415Q1312.7062,880.7673,1313.8901,880.81824L1313.9601,880.8192Q1314.0409,880.8181,1314.1376,880.8181Q1315.5813,880.8181,1320.5807,881.0673L1320.64,881.06885Q1320.6707,881.0689,1320.7015,881.0689Q1322.4252,881.0689,1324.5762,880.9223L1324.5668,880.9223Q1328.107,880.7972,1332.984,879.01416L1332.9707,879.01416Q1333.4119,878.9595,1335.409,878.8592L1335.4095,878.8592L1335.4282,878.85815Q1336.0786,878.8187,1338.9191,878.14246L1338.9056,878.14246Q1339.8287,878.0084,1340.1447,878.0084Q1340.1819,878.0084,1340.2106,878.01025L1340.2611,878.01245Q1341.204,878.0342,1341.6342,878.1049L1341.6321,878.1049Q1344.3372,878.6181,1344.9619,878.6458L1344.9613,878.6458L1347.4912,878.7784L1347.4778,878.7784Q1349.88,879.3917,1350.942,879.4035L1350.9285,879.4035Q1350.9675,879.407,1351.0079,879.4091L1351.0084,879.4092Q1351.2025,879.4194,1352.2056,879.4194Q1353.5317,879.4194,1356.2719,879.40155L1356.2891,879.4013Q1357.659,879.3733,1360.173,878.8871L1360.1594,878.8871Q1360.48,878.8543,1360.7684,878.8543Q1360.96,878.8543,1361.1373,878.8688L1361.123,878.8688Q1367.2012,879.70917,1369.6768,879.70917Q1369.7699,879.70917,1369.858,879.70795L1369.8717,879.70795Q1374.1833,881.0343,1376.6287,881.0474L1376.6149,881.0474Q1376.8723,881.0642,1377.2715,881.0642Q1378.7434,881.0642,1382.1426,880.83624L1382.1288,880.83624Q1385.9896,880.8352,1386.4752,880.7959L1386.4755,880.7959Q1386.7592,880.77295,1386.9749,880.6903L1386.961,880.6903L1390.8317,879.833L1390.8456,879.833Q1391.6761,879.89703,1392.1702,880.1845C1392.3646,880.29767,1392.5773,880.3515,1392.7871,880.3515C1393.2104,880.3515,1393.6223,880.1326,1393.8506,879.74036C1394.192,879.1536,1393.9932,878.4013,1393.4065,878.0599Q1392.3455,877.4425,1390.7977,877.3672C1390.7778,877.3662,1390.7579,877.3657,1390.738,877.3657C1390.6487,877.3657,1390.5597,877.3755,1390.4723,877.39484L1386.1466,878.35297L1386.1327,878.35297Q1385.4304,878.3773,1382.1006,878.3781L1382.0183,878.38086Q1378.6335,878.60846,1377.3057,878.60846Q1376.9583,878.60846,1376.7516,878.5929L1376.6621,878.5894Q1374.53,878.5844,1370.4082,877.3007C1370.2897,877.26385,1370.1664,877.2451,1370.0425,877.2451C1370.0286,877.2451,1370.0145,877.24536,1370.0006,877.24585Q1369.837,877.25146,1369.6486,877.25146Q1367.3627,877.25146,1361.4058,876.4263L1361.3368,876.4187Q1361.0607,876.39624,1360.7693,876.39624Q1360.3405,876.39624,1359.8788,876.4449L1359.7727,876.46075Q1357.4191,876.91895,1356.2418,876.9436L1356.2283,876.9436Q1353.3696,876.96216,1352.1058,876.96216Q1351.4803,876.96216,1351.2455,876.9576L1351.232,876.9576C1351.1732,876.9489,1351.113,876.94446,1351.052,876.94446C1351.0376,876.94446,1351.0231,876.9447,1351.0085,876.9452Q1350.9812,876.94617,1350.9513,876.94617Q1350.215,876.94617,1347.9683,876.3664C1347.8888,876.3459,1347.8074,876.3334,1347.7255,876.3291L1345.0807,876.1905L1345.0708,876.19Q1344.6189,876.17,1342.0629,875.68463L1342.0331,875.6794Q1341.4404,875.58185,1340.3469,875.5556L1340.3423,875.5556Q1340.2712,875.5519,1340.1874,875.5519 Z"/>
</g>
</g>
</svg>