<?xml version="1.0" encoding="UTF-8" standalone="yes"?>
<svg xmlns="http://www.w3.org/2000/svg" xmlns:xlink="http://www.w3.org/1999/xlink" width="700.000px" height="550.000px" version="1.1" viewBox="-134.120 634.687 311.111 244.444">
  <!--
	Exported with Concepts: Smarter Sketching
	Version: 2024.11 on Android 13
	https://concepts.app/
	-->
  <title>Unassign</title>
  <desc>Drawing exported from Concepts: Smarter Sketching</desc>
  <defs></defs>
  <g id="Pen" opacity="1.000">
    <path id="STROKE_657107b3-bb3a-4586-b72b-7a7a68777756" opacity="1.000" fill="none" stroke="#f9f9f1" stroke-width="1.600" stroke-opacity="1.000" stroke-linecap="round" stroke-linejoin="round" d="M -107.480 688.357 L -108.258 872.218 "></path>
    <path id="STROKE_05989b4d-5445-4626-827f-2bde4a594e6e" opacity="1.000" fill="none" stroke="#f9f9f1" stroke-width="1.600" stroke-opacity="1.000" stroke-linecap="round" stroke-linejoin="round" d="M -101.925 683.468 Q -101.578 683.542 -101.506 683.571 Q -101.434 683.599 -99.296 683.749 Q -97.158 683.898 -95.331 683.892 Q -93.504 683.886 -91.441 683.892 Q -89.379 683.897 -87.324 683.980 Q -85.270 684.063 -83.976 684.098 Q -82.683 684.133 -81.351 684.182 Q -80.018 684.231 -79.459 684.244 Q -78.900 684.257 -78.204 684.305 Q -77.508 684.353 -76.884 684.370 Q -76.260 684.387 -75.147 684.468 "></path>
    <path id="STROKE_503e98af-ce44-47ab-bae1-7c4e170c571a" opacity="1.000" fill="none" stroke="#f9f9f1" stroke-width="1.600" stroke-opacity="1.000" stroke-linecap="round" stroke-linejoin="round" d="M -71.814 683.690 L -73.925 870.884 "></path>
    <path id="STROKE_9ea3fc57-cdf4-4d08-a6c8-291415df1ec3" opacity="1.000" fill="none" stroke="#f9f9f1" stroke-width="1.600" stroke-opacity="1.000" stroke-linecap="round" stroke-linejoin="round" d="M -97.814 874.107 Q -97.869 874.107 -98.036 874.107 Q -97.926 873.686 -93.879 873.437 Q -89.831 873.187 -87.258 872.950 Q -84.684 872.714 -82.480 872.884 Q -82.564 872.501 -82.591 871.773 "></path>
    <path id="STROKE_51a1882a-7d67-49b3-9c01-b514621ce109" opacity="1.000" fill="none" stroke="#f9f9f1" stroke-width="1.600" stroke-opacity="1.000" stroke-linecap="round" stroke-linejoin="round" d="M -99.258 839.662 Q -98.866 839.735 -97.450 839.999 Q -96.034 840.264 -94.922 839.994 Q -93.810 839.723 -92.408 839.796 Q -91.007 839.869 -90.047 840.168 Q -89.088 840.466 -87.702 840.107 "></path>
    <path id="STROKE_58d005b9-ff07-42cb-8c5f-523ccd812cf5" opacity="1.000" fill="none" stroke="#f9f9f1" stroke-width="1.600" stroke-opacity="1.000" stroke-linecap="round" stroke-linejoin="round" d="M -97.480 807.773 Q -97.365 807.640 -94.587 807.639 Q -91.809 807.638 -89.732 807.450 Q -87.655 807.262 -86.670 806.942 Q -85.686 806.622 -85.277 806.642 Q -84.867 806.662 -84.615 806.770 Q -84.364 806.879 -84.272 806.823 Q -84.181 806.767 -83.702 806.662 "></path>
    <path id="STROKE_15eae7b8-234f-4d3d-9f98-27a9618267a2" opacity="1.000" fill="none" stroke="#f9f9f1" stroke-width="1.600" stroke-opacity="1.000" stroke-linecap="round" stroke-linejoin="round" d="M -97.258 772.551 Q -96.844 772.616 -94.518 772.454 Q -92.192 772.292 -90.364 772.182 Q -88.536 772.071 -87.465 772.117 Q -86.393 772.164 -85.480 771.662 "></path>
    <path id="STROKE_b53b1e35-d324-4a1d-9e46-886ded500513" opacity="1.000" fill="none" stroke="#f9f9f1" stroke-width="1.600" stroke-opacity="1.000" stroke-linecap="round" stroke-linejoin="round" d="M -98.369 743.107 Q -98.323 743.495 -95.577 743.335 Q -92.832 743.174 -90.901 743.093 Q -88.971 743.013 -88.079 742.942 Q -87.187 742.871 -86.638 742.993 Q -86.089 743.115 -85.774 743.179 Q -85.460 743.244 -85.258 742.995 "></path>
    <path id="STROKE_4bab3991-d942-411d-970b-d9a785c65238" opacity="1.000" fill="none" stroke="#f9f9f1" stroke-width="1.600" stroke-opacity="1.000" stroke-linecap="round" stroke-linejoin="round" d="M -98.147 716.884 Q -98.258 716.940 -98.480 717.107 Q -98.208 716.913 -95.095 716.385 Q -91.982 715.857 -89.648 715.737 Q -87.315 715.617 -84.925 716.218 "></path>
    <path id="STROKE_59a7b4f8-ec1e-413e-a697-97d05c59cdac" opacity="1.000" fill="none" stroke="#f9f9f1" stroke-width="1.600" stroke-opacity="1.000" stroke-linecap="round" stroke-linejoin="round" d="M -52.814 778.218 Q -52.629 778.254 -51.849 776.597 Q -51.070 774.940 -48.724 772.609 Q -46.378 770.277 -45.225 769.312 Q -44.073 768.346 -42.870 767.306 Q -41.668 766.265 -41.026 765.599 Q -40.385 764.932 -39.991 764.517 Q -39.597 764.102 -38.210 763.372 Q -36.823 762.642 -35.798 762.260 Q -34.773 761.879 -34.580 761.618 Q -34.387 761.356 -34.070 761.256 Q -33.753 761.155 -32.914 760.707 Q -32.076 760.258 -30.521 759.439 Q -28.965 758.621 -27.425 758.164 Q -25.885 757.706 -22.719 756.502 Q -19.554 755.297 -16.728 754.368 Q -13.903 753.439 -12.422 753.123 Q -10.941 752.808 -6.949 752.028 Q -2.956 751.248 -1.054 750.898 Q 0.848 750.548 0.990 750.513 "></path>
    <path id="STROKE_df678536-e818-4d92-9721-0ee7e5c1b395" opacity="1.000" fill="none" stroke="#f9f9f1" stroke-width="1.600" stroke-opacity="1.000" stroke-linecap="round" stroke-linejoin="round" d="M 45.274 750.529 Q 45.436 750.564 46.971 751.106 Q 48.506 751.648 49.392 752.265 Q 50.277 752.882 51.687 753.215 Q 53.097 753.549 55.311 754.567 Q 57.524 755.584 59.298 756.520 Q 61.072 757.457 62.381 758.569 Q 63.689 759.682 64.817 760.385 Q 65.945 761.088 66.811 761.625 Q 67.677 762.162 68.385 762.607 Q 69.094 763.052 69.603 763.383 Q 70.113 763.714 70.653 764.263 Q 71.193 764.811 71.865 765.711 Q 72.536 766.611 73.558 767.584 Q 74.579 768.557 75.259 769.130 Q 75.938 769.702 76.277 769.921 Q 76.615 770.139 76.773 770.377 Q 76.932 770.615 78.186 771.662 "></path>
    <path id="STROKE_aa968d1c-254a-47c6-a64c-8cbc4544d523" opacity="1.000" fill="none" stroke="#f9f9f1" stroke-width="1.600" stroke-opacity="1.000" stroke-linecap="round" stroke-linejoin="round" d="M 79.298 768.884 Q 79.510 768.678 80.853 766.995 Q 81.057 767.141 81.131 767.162 Q 81.096 767.276 79.866 769.120 Q 78.636 770.964 77.322 772.457 Q 76.008 773.949 74.075 776.218 Q 74.568 776.270 81.631 767.329 Q 81.647 767.495 81.539 769.709 Q 81.430 771.923 81.493 773.522 Q 81.556 775.121 82.298 776.440 Q 82.122 776.677 80.469 776.473 Q 78.817 776.269 77.879 776.129 Q 76.941 775.988 76.014 776.238 Q 75.088 776.487 73.853 776.662 Q 73.851 776.612 75.966 776.365 Q 78.082 776.119 79.236 776.019 Q 80.390 775.919 80.912 775.926 Q 81.434 775.933 81.627 776.106 Q 81.819 776.279 82.075 776.551 "></path>
    <path id="STROKE_832c042c-6987-4fcf-8dec-65a405e66207" opacity="1.000" fill="none" stroke="#f9f9f1" stroke-width="1.600" stroke-opacity="1.000" stroke-linecap="round" stroke-linejoin="round" d="M 108.936 689.815 L 108.159 873.676 "></path>
    <path id="STROKE_5fb3eb60-61a3-4754-89c1-bb6a69ffb14e" opacity="1.000" fill="none" stroke="#f9f9f1" stroke-width="1.600" stroke-opacity="1.000" stroke-linecap="round" stroke-linejoin="round" d="M 114.492 684.926 Q 114.839 685.000 114.911 685.029 Q 114.983 685.057 117.121 685.207 Q 119.259 685.357 121.086 685.351 Q 122.913 685.344 124.975 685.350 Q 127.037 685.356 129.092 685.439 Q 131.147 685.521 132.440 685.556 Q 133.733 685.591 135.066 685.640 Q 136.398 685.690 136.958 685.702 Q 137.517 685.715 138.213 685.763 Q 138.909 685.811 139.533 685.828 Q 140.157 685.845 141.270 685.926 "></path>
    <path id="STROKE_ddb03fa3-3eff-4558-97b4-33b517398cc7" opacity="1.000" fill="none" stroke="#f9f9f1" stroke-width="1.600" stroke-opacity="1.000" stroke-linecap="round" stroke-linejoin="round" d="M 144.603 685.148 L 142.492 872.343 "></path>
    <path id="STROKE_0e079182-48c6-49c0-8a09-9c8a1970f7c3" opacity="1.000" fill="none" stroke="#f9f9f1" stroke-width="1.600" stroke-opacity="1.000" stroke-linecap="round" stroke-linejoin="round" d="M 118.603 875.565 Q 118.548 875.565 118.381 875.565 Q 118.490 875.144 122.538 874.895 Q 126.585 874.645 129.159 874.409 Q 131.733 874.172 133.936 874.343 Q 133.853 873.959 133.825 873.232 "></path>
    <path id="STROKE_ae1fbd38-e57c-4b9b-b6fe-d365f439b140" opacity="1.000" fill="none" stroke="#f9f9f1" stroke-width="1.600" stroke-opacity="1.000" stroke-linecap="round" stroke-linejoin="round" d="M 117.159 841.120 Q 117.551 841.193 118.967 841.458 Q 120.383 841.722 121.495 841.452 Q 122.606 841.181 124.008 841.254 Q 125.410 841.328 126.369 841.626 Q 127.329 841.924 128.714 841.565 "></path>
    <path id="STROKE_e9ff8430-174e-48e1-99a1-920d6e68f7a7" opacity="1.000" fill="none" stroke="#f9f9f1" stroke-width="1.600" stroke-opacity="1.000" stroke-linecap="round" stroke-linejoin="round" d="M 118.936 809.232 Q 119.051 809.099 121.830 809.097 Q 124.608 809.096 126.685 808.908 Q 128.762 808.721 129.746 808.401 Q 130.730 808.080 131.140 808.100 Q 131.549 808.120 131.801 808.229 Q 132.053 808.338 132.145 808.282 Q 132.236 808.226 132.714 808.120 "></path>
    <path id="STROKE_e12e9117-8a54-45d2-aa26-145ae788a466" opacity="1.000" fill="none" stroke="#f9f9f1" stroke-width="1.600" stroke-opacity="1.000" stroke-linecap="round" stroke-linejoin="round" d="M 119.159 774.009 Q 119.572 774.074 121.899 773.912 Q 124.225 773.751 126.053 773.640 Q 127.880 773.529 128.952 773.576 Q 130.023 773.622 130.936 773.120 "></path>
    <path id="STROKE_6789d0bc-2edf-41f0-a702-175820a01a38" opacity="1.000" fill="none" stroke="#f9f9f1" stroke-width="1.600" stroke-opacity="1.000" stroke-linecap="round" stroke-linejoin="round" d="M 118.048 744.565 Q 118.094 744.954 120.839 744.793 Q 123.585 744.632 125.515 744.552 Q 127.446 744.471 128.338 744.400 Q 129.230 744.329 129.779 744.451 Q 130.328 744.573 130.642 744.638 Q 130.957 744.702 131.159 744.454 "></path>
    <path id="STROKE_393d8cb4-ed5f-48be-9fad-3193f486aec7" opacity="1.000" fill="none" stroke="#f9f9f1" stroke-width="1.600" stroke-opacity="1.000" stroke-linecap="round" stroke-linejoin="round" d="M 118.270 718.343 Q 118.159 718.398 117.936 718.565 Q 118.208 718.372 121.322 717.843 Q 124.435 717.315 126.768 717.195 Q 129.102 717.075 131.492 717.676 "></path>
    <path id="STROKE_2155abeb-0189-4251-b0f5-70abcaa7fc95" opacity="1.000" fill="none" stroke="#f9f9f1" stroke-width="1.600" stroke-opacity="1.000" stroke-linecap="round" stroke-linejoin="round" d="M -94.480 698.134 Q -94.447 698.092 -94.732 698.575 Q -95.017 699.058 -95.682 699.706 Q -96.346 700.354 -97.147 701.023 Q -96.960 700.836 -95.821 700.521 Q -94.682 700.206 -92.955 698.824 Q -91.228 697.442 -88.591 693.357 Q -88.369 693.653 -88.635 695.636 Q -88.900 697.619 -88.258 701.773 "></path>
    <path id="STROKE_de751121-810d-4a8e-8346-efcec08d7566" opacity="1.000" fill="none" stroke="#f9f9f1" stroke-width="1.600" stroke-opacity="1.000" stroke-linecap="round" stroke-linejoin="round" d="M -98.702 731.440 Q -98.758 731.495 -98.925 731.551 Q -98.172 732.131 -90.258 724.107 Q -89.998 724.448 -89.936 726.551 Q -89.874 728.654 -89.867 729.951 Q -89.861 731.248 -89.480 732.329 "></path>
    <path id="STROKE_0043dfd8-cd93-4d66-91b6-8c5c181f1a9e" opacity="1.000" fill="none" stroke="#f9f9f1" stroke-width="1.600" stroke-opacity="1.000" stroke-linecap="round" stroke-linejoin="round" d="M -92.147 755.440 Q -92.006 755.868 -92.099 754.946 Q -92.192 754.024 -92.439 753.441 Q -92.686 752.859 -92.975 752.666 Q -93.264 752.473 -93.407 752.395 Q -93.549 752.316 -94.052 752.486 Q -94.555 752.657 -94.913 752.927 Q -95.271 753.198 -95.633 753.637 Q -95.995 754.077 -96.405 755.129 Q -96.816 756.182 -97.058 757.198 Q -97.300 758.214 -96.863 759.433 Q -96.426 760.653 -95.750 761.159 Q -95.073 761.666 -94.405 761.808 Q -93.737 761.951 -93.116 761.783 Q -92.495 761.615 -91.849 760.864 Q -91.202 760.112 -91.137 758.565 Q -91.072 757.017 -91.361 755.687 Q -91.650 754.356 -92.702 753.551 Q -92.776 753.598 -92.480 754.662 "></path>
    <path id="STROKE_10115052-dcef-4676-987e-66a385b8a25d" opacity="1.000" fill="none" stroke="#f9f9f1" stroke-width="1.600" stroke-opacity="1.000" stroke-linecap="round" stroke-linejoin="round" d="M -96.480 792.107 Q -96.388 792.381 -94.923 791.534 Q -93.458 790.687 -91.999 788.918 Q -90.540 787.148 -89.147 785.107 Q -89.146 785.263 -89.327 787.263 Q -89.508 789.263 -89.298 790.565 Q -89.088 791.866 -88.480 792.773 "></path>
    <path id="STROKE_08675472-b76c-4233-8a11-0c2a8b08b0d2" opacity="1.000" fill="none" stroke="#f9f9f1" stroke-width="1.600" stroke-opacity="1.000" stroke-linecap="round" stroke-linejoin="round" d="M -92.036 823.773 Q -92.030 823.877 -91.906 823.699 Q -91.782 823.521 -91.695 823.284 Q -91.609 823.048 -91.599 822.959 Q -91.588 822.870 -91.606 822.910 Q -91.625 822.950 -91.513 822.510 Q -91.401 822.070 -91.601 821.228 Q -91.800 820.387 -92.525 819.848 Q -93.251 819.309 -93.751 819.028 Q -94.252 818.746 -94.686 818.817 Q -95.121 818.889 -95.555 819.190 Q -95.989 819.492 -96.512 820.491 Q -97.034 821.490 -97.009 823.010 Q -96.984 824.530 -96.636 825.684 Q -96.288 826.838 -95.797 827.608 Q -95.305 828.378 -94.417 828.724 Q -93.529 829.071 -92.723 829.113 Q -91.916 829.154 -91.160 828.503 Q -90.405 827.851 -90.207 826.821 Q -90.009 825.791 -90.132 824.273 Q -90.255 822.756 -92.036 819.995 Q -91.941 820.138 -91.814 820.329 "></path>
    <path id="STROKE_aac3f816-09e2-4194-97d4-5b9d408091e1" opacity="1.000" fill="none" stroke="#f9f9f1" stroke-width="1.600" stroke-opacity="1.000" stroke-linecap="round" stroke-linejoin="round" d="M -97.036 858.440 Q -97.092 858.545 -98.036 859.440 Q -98.064 859.581 -96.539 858.365 Q -95.014 857.148 -93.839 856.068 Q -92.665 854.988 -90.036 850.773 Q -89.828 850.916 -89.911 853.471 Q -89.995 856.025 -89.889 857.683 Q -89.783 859.341 -89.147 860.551 "></path>
    <path id="STROKE_df42c026-7e7b-4617-8d4a-903e292f07a8" opacity="1.000" fill="none" stroke="#f9f9f1" stroke-width="1.600" stroke-opacity="1.000" stroke-linecap="round" stroke-linejoin="round" d="M 123.409 701.218 Q 123.439 701.162 125.017 700.069 Q 126.596 698.977 129.742 695.134 Q 129.804 695.197 129.428 696.974 Q 129.051 698.751 129.409 701.329 "></path>
    <path id="STROKE_14631745-3f2e-4a60-a227-d44ed52d5c42" opacity="1.000" fill="none" stroke="#f9f9f1" stroke-width="1.600" stroke-opacity="1.000" stroke-linecap="round" stroke-linejoin="round" d="M 128.964 699.912 Q 128.719 699.968 128.685 701.379 Q 128.651 702.791 128.807 703.706 Q 128.963 704.622 128.520 705.329 "></path>
    <path id="STROKE_ee43083b-6c1a-4a82-b957-e2dfc173e512" opacity="1.000" fill="none" stroke="#ffb352" stroke-width="1.600" stroke-opacity="1.000" stroke-linecap="round" stroke-linejoin="round" d="M 122.186 727.662 Q 121.981 727.424 121.863 727.144 Q 121.745 726.863 121.186 726.218 Q 121.285 726.529 122.511 728.581 Q 123.738 730.634 124.400 731.622 Q 125.061 732.610 125.554 733.178 Q 126.046 733.747 126.964 734.107 "></path>
    <path id="STROKE_2f64d19c-10ba-42cd-baef-b85daabf72f8" opacity="1.000" fill="none" stroke="#ffb352" stroke-width="1.600" stroke-opacity="1.000" stroke-linecap="round" stroke-linejoin="round" d="M 121.186 734.440 Q 121.442 734.184 121.409 734.218 Q 121.440 734.189 121.502 734.127 Q 121.565 734.065 121.730 733.891 Q 121.896 733.718 122.125 733.430 Q 122.353 733.142 122.466 732.985 Q 122.578 732.829 122.781 732.647 Q 122.983 732.466 123.811 731.319 Q 124.640 730.173 125.446 728.614 Q 126.253 727.055 127.742 725.440 Q 127.743 726.155 127.742 726.051 Q 127.740 725.948 127.742 725.995 "></path>
    <path id="STROKE_ed076a24-7ad0-4749-8ee6-e0df263665d9" opacity="1.000" fill="none" stroke="#ffb352" stroke-width="1.600" stroke-opacity="1.000" stroke-linecap="round" stroke-linejoin="round" d="M 118.520 731.107 Q 118.464 731.218 118.409 731.273 Q 118.359 731.010 120.694 730.872 Q 123.028 730.735 124.285 730.804 Q 125.543 730.873 126.244 730.697 Q 126.945 730.520 127.395 730.451 Q 127.844 730.381 128.186 730.884 "></path>
    <path id="STROKE_44eddd37-9eb9-4b28-bcef-3646d703363a" opacity="1.000" fill="none" stroke="#ffb352" stroke-width="1.600" stroke-opacity="1.000" stroke-linecap="round" stroke-linejoin="round" d="M 119.742 786.440 Q 119.798 786.329 119.909 786.273 Q 120.142 786.315 121.882 788.548 Q 123.623 790.781 124.612 792.218 Q 125.601 793.654 126.002 794.496 Q 126.403 795.338 126.742 795.884 Q 126.798 795.829 127.020 794.884 Q 126.826 795.449 126.823 795.475 Q 126.820 795.501 126.853 795.440 "></path>
    <path id="STROKE_bd5bfa01-306b-459c-9c5a-1da6ba1e124a" opacity="1.000" fill="none" stroke="#ffb352" stroke-width="1.600" stroke-opacity="1.000" stroke-linecap="round" stroke-linejoin="round" d="M 120.631 795.107 Q 120.804 794.896 122.505 792.656 Q 124.207 790.416 125.452 789.092 Q 126.696 787.769 127.631 784.440 Q 127.733 784.478 127.487 786.620 Q 127.241 788.763 127.244 790.184 Q 127.247 791.606 127.418 792.825 Q 127.588 794.043 127.409 795.773 Q 127.298 795.551 127.186 795.329 Q 127.044 795.424 126.853 795.551 "></path>
    <path id="STROKE_6ff45774-7c17-4e95-853f-7c1f510c332c" opacity="1.000" fill="none" stroke="#ffb352" stroke-width="1.600" stroke-opacity="1.000" stroke-linecap="round" stroke-linejoin="round" d="M 118.631 791.440 Q 118.603 791.117 127.964 790.329 "></path>
    <path id="STROKE_a2d50302-caed-4724-a33a-ee54433bf4ba" opacity="1.000" fill="none" stroke="#ffb352" stroke-width="1.600" stroke-opacity="1.000" stroke-linecap="round" stroke-linejoin="round" d="M 122.520 821.551 Q 122.454 821.467 123.201 822.364 Q 123.948 823.261 127.075 829.829 Q 127.181 829.826 128.520 830.551 Q 128.618 830.449 128.631 830.329 "></path>
    <path id="STROKE_f1a2aa5a-999e-4b0e-8192-3259a5c851bd" opacity="1.000" fill="none" stroke="#ffb352" stroke-width="1.600" stroke-opacity="1.000" stroke-linecap="round" stroke-linejoin="round" d="M 120.520 830.662 Q 120.407 830.858 121.644 829.121 Q 122.881 827.383 124.132 825.770 Q 125.383 824.157 128.409 822.440 "></path>
    <path id="STROKE_7b354267-1ab8-40ec-aaa5-ccb7deb31748" opacity="1.000" fill="none" stroke="#ffb352" stroke-width="1.600" stroke-opacity="1.000" stroke-linecap="round" stroke-linejoin="round" d="M 118.631 826.662 Q 119.122 826.727 121.585 826.567 Q 124.047 826.406 125.995 825.857 Q 127.943 825.307 129.628 824.979 Q 131.312 824.650 132.853 824.551 "></path>
    <path id="STROKE_911ebf05-fef5-470a-b75d-c083cfd25b1d" opacity="1.000" fill="none" stroke="#f9f9f1" stroke-width="1.600" stroke-opacity="1.000" stroke-linecap="round" stroke-linejoin="round" d="M 125.409 755.773 Q 125.353 755.829 125.298 755.884 Q 125.353 755.940 125.409 755.995 Q 125.593 755.996 125.712 755.286 Q 125.831 754.576 125.249 753.922 Q 124.667 753.267 124.342 752.951 Q 124.016 752.636 123.749 752.625 Q 123.482 752.614 123.079 752.637 Q 122.677 752.659 122.124 753.892 Q 121.570 755.124 121.346 756.146 Q 121.121 757.168 120.998 758.300 Q 120.875 759.433 121.407 760.310 Q 121.939 761.188 122.193 761.668 Q 122.447 762.148 122.876 762.300 Q 123.305 762.452 123.932 762.483 Q 124.559 762.514 125.195 762.160 Q 125.831 761.806 126.292 760.770 Q 126.754 759.734 127.203 758.433 Q 127.651 757.131 125.298 752.329 Q 125.353 752.384 125.742 752.773 "></path>
    <circle id="STROKE_613a549e-6803-4030-ad2c-8490f3dfcf4a" opacity="1.000" fill="#f9f9f1" stroke="#f9f9f1" stroke-width="0.1" stroke-opacity="1.000" fill-opacity="1.000" cx="121.631" cy="854.662" r="0.800"></circle>
    <path id="STROKE_5ebe2469-39f7-4a9b-9cab-ef810b96704a" opacity="1.000" fill="none" stroke="#f9f9f1" stroke-width="1.600" stroke-opacity="1.000" stroke-linecap="round" stroke-linejoin="round" d="M 121.075 855.218 Q 121.181 855.166 120.742 855.773 Q 121.340 856.007 123.033 854.845 Q 124.727 853.682 126.742 849.329 Q 126.941 849.819 126.831 850.197 Q 126.721 850.575 126.475 852.895 Q 126.229 855.216 126.123 856.941 Q 126.017 858.666 126.853 860.218 Q 126.909 860.218 127.075 860.218 "></path>
    <path id="STROKE_e2fd2da8-3040-4147-b5e8-1712458bd3a0" opacity="1.000" fill="none" stroke="#f9f9f1" stroke-width="1.600" stroke-opacity="1.000" stroke-linecap="round" stroke-linejoin="round" d="M -2.770 750.624 Q -2.995 750.870 -3.415 751.012 Q -3.480 750.947 -3.544 750.883 Q -3.570 750.596 -2.030 750.513 Q -0.490 750.429 0.328 750.334 Q 1.146 750.238 1.565 750.136 Q 1.984 750.034 2.336 750.003 Q 2.689 749.972 2.736 749.976 Q 2.784 749.980 2.744 749.972 Q 2.704 749.963 2.919 749.969 Q 3.133 749.974 3.663 749.975 Q 4.193 749.976 5.838 749.934 Q 7.483 749.892 8.344 749.817 Q 9.206 749.741 9.409 749.717 Q 9.612 749.693 9.948 749.704 Q 10.283 749.715 10.149 749.733 Q 10.015 749.751 10.558 749.595 Q 11.100 749.439 11.821 749.602 Q 12.542 749.764 13.106 749.750 Q 13.669 749.737 13.999 749.730 Q 14.328 749.722 14.595 749.713 Q 14.862 749.704 14.704 749.714 Q 14.546 749.724 15.513 749.823 Q 16.480 749.921 17.117 749.823 Q 17.754 749.725 18.270 749.719 Q 18.786 749.714 19.220 749.710 Q 19.653 749.707 20.031 749.719 Q 20.409 749.732 20.338 749.790 Q 20.268 749.849 20.531 749.734 Q 20.794 749.619 21.174 749.604 Q 21.555 749.590 21.740 749.640 Q 21.925 749.690 21.894 749.724 Q 21.863 749.759 22.167 749.691 Q 22.472 749.622 24.818 749.635 Q 27.164 749.648 28.832 749.795 Q 30.500 749.942 31.290 749.943 Q 32.080 749.944 32.486 749.937 Q 32.892 749.931 33.890 750.041 Q 34.887 750.152 35.803 750.196 Q 36.718 750.239 37.102 750.238 Q 37.485 750.238 37.743 750.237 Q 38.000 750.237 38.119 750.256 Q 38.238 750.276 38.231 750.239 Q 38.224 750.202 38.848 750.199 Q 39.471 750.197 40.090 750.377 Q 40.708 750.556 41.192 750.586 Q 41.676 750.616 42.056 750.702 Q 42.437 750.787 42.621 750.845 Q 42.805 750.903 43.087 750.944 Q 43.369 750.986 43.237 751.001 Q 43.105 751.017 43.609 750.904 Q 44.113 750.790 44.883 751.010 Q 45.652 751.230 45.859 751.305 Q 46.066 751.381 46.770 751.528 Q 47.474 751.676 47.721 751.839 Q 47.968 752.002 48.296 752.166 Q 48.625 752.330 48.901 752.501 Q 49.178 752.672 49.233 752.725 Q 49.287 752.778 49.114 752.757 Q 48.941 752.735 50.447 753.337 "></path>
    <circle id="STROKE_8301239b-63e0-4776-9f9e-077b0ebcf86e" opacity="1.000" fill="#f9f9f1" stroke="#f9f9f1" stroke-width="0.1" stroke-opacity="1.000" fill-opacity="1.000" cx="50.188" cy="753.337" r="0.800"></circle>
    <circle id="STROKE_072bc656-7bdb-459b-8ad4-764117a34b57" opacity="1.000" fill="#f9f9f1" stroke="#f9f9f1" stroke-width="0.1" stroke-opacity="1.000" fill-opacity="1.000" cx="49.284" cy="753.854" r="0.800"></circle>
  </g>
</svg>